<?xml version="1.0" encoding="UTF-8" standalone="no"?>
<!DOCTYPE svg PUBLIC "-//W3C//DTD SVG 1.1//EN" "http://www.w3.org/Graphics/SVG/1.1/DTD/svg11.dtd">
<svg width="100%" height="100%" viewBox="0 0 3840 2160" version="1.1" xmlns="http://www.w3.org/2000/svg" xmlns:xlink="http://www.w3.org/1999/xlink" xml:space="preserve" xmlns:serif="http://www.serif.com/" style="fill-rule:evenodd;clip-rule:evenodd;stroke-linejoin:round;stroke-miterlimit:2;">
    <rect id="Artboard1" x="0" y="0" width="3840" height="2160" style="fill:none;"/>
    <clipPath id="_clip1">
        <rect id="Artboard11" serif:id="Artboard1" x="0" y="0" width="3840" height="2160"/>
    </clipPath>
    <g clip-path="url(#_clip1)">
        <g transform="matrix(1.19386,0,0,0.927224,-41191,-12714.4)">
            <path d="M37766,13733.1L37650.3,13979.2L37803.9,14009.7C37816.2,14038.7 37819.8,14071.5 37812.4,14104.5C37793.3,14187.7 37710.3,14239.9 37627.2,14220.9C37577.9,14209.7 37539.7,14171.5 37513.3,14130.9C37476.1,14073.8 37382.7,13926.5 37382.7,13926.5L37528.3,13853.1L37357.6,13639.4L37598.1,13517.7L37766,13733.1Z" style="fill:rgb(166,198,161);"/>
        </g>
        <g transform="matrix(0.592652,0.0981628,-0.0981628,0.592652,-19673.6,-11556)">
            <path d="M36786.4,13827.5C36786.4,13827.5 36704.1,14085.5 36704.1,14085.5L36432.2,14067.5L36614.7,13943.8L36537.4,13833.4L36367.2,13833.4L36315.5,13666.3L36459.2,13564.4L36598.9,13667.8L36683.8,13643.2L36728,13630.5L36744.3,13685.5L36786.4,13827.5Z" style="fill:rgb(171,137,187);"/>
        </g>
        <g transform="matrix(0.648527,0,0,0.648527,-22660.2,-9015.63)">
            <path d="M39360.9,14409.4C39339.7,14432.7 39311.4,14449.9 39278.3,14456.6C39194.7,14474.2 39112.6,14420.6 39095.1,14337C39084.7,14287.5 39102.7,14236.6 39129.1,14196.1C39162.7,14144.7 39259.9,13989.7 39259.9,13989.7L39537.4,14001.4L39493.6,14273.9L39309.3,14194.6L39360.9,14409.4Z" style="fill:rgb(33,154,214);"/>
        </g>
        <g transform="matrix(0.869111,0,0,0.869111,-32926.6,-11230.6)">
            <path d="M38341.1,14478.4L38068.9,14432.5L38149.5,14249L38149.6,14249L38164.3,13971.2L38436.5,14017.5L38355.6,14201L38355.6,14201.1L38627.2,14247.2L38546.6,14430.7L38341.3,14478.4L38341.3,14478.4L38341.2,14478.4L38341.1,14478.4L38341.1,14478.4Z" style="fill:rgb(20,52,92);"/>
        </g>
        <g transform="matrix(0.47658,-0.423366,0.423366,0.47658,-22868.7,9069.14)">
            <path d="M35877.8,14046L35906.3,13963.3L36047.9,14009.9L36094.9,14160.9L36031.4,14245.2C36031.4,14245.2 36022.1,14257.6 36022.1,14257.6L36064.4,14393.8L36000.9,14478L35973.2,14514.9L35927.1,14480.4L35808.3,14392.1L35835.1,14314.5L35799,14287.5L35680.3,14199.3L35747.8,14003.3L35877.8,14046Z" style="fill:rgb(245,128,78);"/>
        </g>
        <g transform="matrix(1.12079,0,0,1.12079,-40175,-15310.7)">
            <path d="M37039.3,14241.3L37159.9,14122.6L37224.9,14390.4L36999.8,14326.2L36915.3,14472.2L36653.5,14396.3L37039.3,14241.3Z" style="fill:rgb(108,27,64);"/>
        </g>
        <g transform="matrix(0.469109,0,0,0.469109,-16079.3,-6133.61)">
            <path d="M38894.5,13672.4L39034.8,13509L39022.5,13781.4L38915.1,13802.9L38937.6,13946.3L38661.6,13957.1L38703.1,13760.9L38894.5,13672L38894.5,13672.4Z" style="fill:rgb(171,137,187);"/>
        </g>
        <g transform="matrix(0.850677,-0.629981,0.629981,0.850677,-38721.3,10726.5)">
            <path d="M35285.5,13652.9L35285.5,13652.9C35303.5,13627.1 35329.3,13606.5 35361.3,13595.4C35441.9,13567.2 35530.2,13609.5 35558.6,13690.1C35575.3,13737.9 35569.3,13795.4 35543.1,13834.5L35526.4,13866.2L35439.4,14053.5L35387,13918.1L35239.8,13821.8L35285.5,13652.9L35285.5,13652.9Z" style="fill:rgb(166,198,161);"/>
        </g>
        <g transform="matrix(0.469109,0,0,0.469109,-15652,-6334.68)">
            <path d="M40277.6,14380.8L40219.4,14338.7C40219.4,14338.7 40073.4,14230.2 40073.4,14230.2L40156.4,13989.2L40330.6,14046.4L40354.3,14122.8L40662.6,14117.8L40602,14443.1L40264.7,14448.5L40277.6,14380.8Z" style="fill:rgb(170,210,119);"/>
        </g>
        <g transform="matrix(0.0113304,-0.898117,1.10342,0.0139204,-14226.5,35879.6)">
            <path d="M39996.7,13601.4L39997,13600.6L39997.3,13601.4L39998,13601.4L39997.4,13601.8L40089.8,13839.4L39881.2,13986.3L39880.8,13987.4L39880.6,13986.7L39880.4,13986.8L39880.5,13986.5L39787.8,13748.8L39788.1,13748.6L39595.1,13582.4L39996.7,13601.4Z" style="fill:rgb(244,208,106);"/>
        </g>
        <g transform="matrix(0.845049,0,0,1.01994,-32208.8,-13273.1)">
            <path d="M40965.4,13668.3L40898.6,13618.7L40966.1,13422.7L41107.7,13469.2L41117.5,13500.9L41270,13498.5L41220.7,13763L40946.4,13767.5L40965.4,13668.3Z" style="fill:rgb(239,192,26);"/>
        </g>
        <g transform="matrix(0.469109,0,0,0.469109,-16534.5,-5762.18)">
            <path d="M41312.1,14278.6L41311.9,14278.5L41446.6,14026.6L41794.3,14063L41754,14193L41767.9,14332.7C41768.8,14338.3 41769.3,14343.9 41769.6,14349.7L41769.7,14351.2L41769.7,14351.2C41769.7,14353 41769.7,14354.8 41769.7,14356.5C41769.7,14441.8 41700.3,14511.2 41615,14511.2C41564.4,14511.2 41512.2,14486.5 41484,14449L41459.7,14422.8L41311.3,14278.6L41312.1,14278.6Z" style="fill:rgb(192,168,206);"/>
        </g>
        <g transform="matrix(-1.45592,-0.534488,0.534488,-1.45592,52802.8,41853.4)">
            <path d="M38993.4,13869.8L38846.5,13930.6L38846.8,13930.2L38846.7,13930.3L38835.7,13757.2L38886.2,13690L38858.8,13596.1L39029.9,13616L39022.5,13781.4L38928.2,13798.1L38993.4,13869.8Z" style="fill:rgb(245,128,78);"/>
        </g>
    </g>
</svg>
