<?xml version="1.0" encoding="utf-8"?>
<!-- Generator: Adobe Illustrator 25.2.1, SVG Export Plug-In . SVG Version: 6.00 Build 0)  -->
<svg version="1.1" id="Ebene_1" xmlns="http://www.w3.org/2000/svg" xmlns:xlink="http://www.w3.org/1999/xlink" x="0px" y="0px"
	 viewBox="0 0 841.9 595.3" style="enable-background:new 0 0 841.9 595.3;" xml:space="preserve">
<style type="text/css">
	.st0{fill:#19375D;}
	.st1{fill:#FFFFFF;}
</style>
<path class="st0" d="M124.9,189.2v-25.8h10.2c2.5,0,4.6,0.7,6.3,2.1c1.7,1.4,2.5,3.4,2.5,6c0,1.6-0.4,3.2-1.3,4.5
	c-0.9,1.4-2.1,2.4-3.8,3l6.4,10.2h-5.3l-6.1-9.7h-4.2v9.7H124.9z M129.7,175.4h4.8c1.4,0,2.6-0.3,3.4-1c0.8-0.7,1.3-1.7,1.3-3
	c0-2.7-1.6-4-4.7-4h-4.7V175.4z"/>
<path class="st0" d="M159.7,189.6c-3.1,0-5.6-0.8-7.4-2.4c-1.8-1.6-2.7-3.9-2.7-6.9v-16.9h4.8v16.4c0,1.7,0.4,3,1.3,4
	c0.9,1,2.2,1.5,4,1.5c3.5,0,5.3-1.8,5.3-5.5v-16.4h4.8v16.6c0,3-0.9,5.4-2.8,7.1C165.2,188.7,162.8,189.6,159.7,189.6z"/>
<path class="st0" d="M176.2,189.2v-25.8h4.8v10.5h10.3v-10.5h4.8v25.8h-4.8v-11.1H181v11.1H176.2z"/>
<path class="st0" d="M202.7,189.2v-25.8h10.2c2.5,0,4.6,0.7,6.3,2.1c1.7,1.4,2.5,3.4,2.5,6c0,1.6-0.4,3.2-1.3,4.5
	c-0.9,1.4-2.1,2.4-3.8,3l6.4,10.2h-5.3l-6.1-9.7h-4.2v9.7H202.7z M207.5,175.4h4.8c1.4,0,2.6-0.3,3.4-1c0.8-0.7,1.3-1.7,1.3-3
	c0-2.7-1.6-4-4.7-4h-4.7V175.4z"/>
<path class="st0" d="M134.8,233c-3.1,0-5.6-0.8-7.4-2.4c-1.8-1.6-2.7-3.9-2.7-6.9v-16.9h4.8v16.4c0,1.7,0.4,3,1.3,4
	c0.9,1,2.2,1.5,4,1.5c3.5,0,5.3-1.8,5.3-5.5v-16.4h4.8v16.6c0,3-0.9,5.4-2.8,7.1C140.3,232.2,137.9,233,134.8,233z"/>
<path class="st0" d="M151.3,232.6v-25.8h4.7l11.2,17.6h0.1v-17.6h4.6v25.8h-4.7L156,215h-0.1v17.7H151.3z"/>
<path class="st0" d="M178.4,232.6v-25.8h4.8v25.8H178.4z"/>
<path class="st0" d="M195.6,232.7l-8.5-26h5.2l5.8,19h0.1l5.8-19h4.8l-8.6,26H195.6z"/>
<path class="st0" d="M212.8,232.6v-25.8h17.9v4.2h-13.1v6.3h11.6v4.2h-11.6v6.8h13.3v4.2H212.8z"/>
<path class="st0" d="M236.8,232.6v-25.8H247c2.5,0,4.6,0.7,6.3,2.1c1.7,1.4,2.5,3.4,2.5,6c0,1.6-0.4,3.2-1.3,4.5
	c-0.9,1.4-2.1,2.4-3.8,3l6.4,10.2h-5.3l-6.1-9.7h-4.2v9.7H236.8z M241.6,218.9h4.8c1.4,0,2.6-0.3,3.4-1c0.8-0.7,1.3-1.7,1.3-3
	c0-2.7-1.6-4-4.7-4h-4.7V218.9z"/>
<path class="st0" d="M270.3,233c-2.5,0-4.7-0.5-6.6-1.6c-1.9-1.1-3.2-2.7-3.8-4.8l4.4-1.7c0.5,1.2,1.3,2.2,2.4,2.9s2.4,1,3.9,1
	c1.4,0,2.6-0.3,3.6-0.9c1-0.6,1.5-1.4,1.5-2.6c0-0.9-0.3-1.6-0.9-2.1c-0.6-0.5-1.5-0.9-2.6-1.3l-4.4-1.1c-2-0.5-3.5-1.3-4.6-2.3
	c-1.1-1-1.6-2.6-1.6-4.7c0-2.3,0.9-4.2,2.7-5.6c1.8-1.4,4-2.1,6.6-2.1c4.5,0,7.6,1.8,9.1,5.3l-4,1.7c-1-2-2.9-3-5.5-3
	c-1.2,0-2.1,0.3-2.9,0.8c-0.8,0.5-1.2,1.4-1.2,2.4c0,1.5,1.3,2.5,3.8,3.2l4.4,1.1c3.9,0.9,5.9,3.3,5.9,7.2c0,2.3-0.9,4.2-2.8,5.7
	C275.6,232.3,273.2,233,270.3,233z"/>
<path class="st0" d="M285.7,232.6v-25.8h4.8v25.8H285.7z"/>
<path class="st0" d="M302.8,232.6v-21.7h-7.4v-4.1H315v4.1h-7.4v21.7H302.8z"/>
<path class="st0" d="M314.5,232.6l9.6-25.9h4.4l9.5,25.9H333l-1.9-5.5h-9.9l-2,5.5H314.5z M320.5,204.4v-4.7h4.3v4.7H320.5z
	 M322.6,223h7.1l-3.5-10.4h-0.1L322.6,223z M327.8,204.4v-4.7h4.3v4.7H327.8z"/>
<path class="st0" d="M345.3,232.6v-21.7h-7.4v-4.1h19.6v4.1h-7.4v21.7H345.3z"/>
<path class="st0" d="M125.1,276.1v-25.9h9.9c2.3,0,4.1,0.5,5.4,1.6c1.3,1.1,2,2.7,2,4.8c0,1.4-0.4,2.6-1.2,3.7
	c-0.8,1.1-1.9,1.8-3.3,2.2v0c1.7,0.3,3,1,3.9,2.2c0.9,1.2,1.4,2.5,1.4,4.1c0,2.3-0.8,4.1-2.3,5.3c-1.5,1.3-3.4,1.9-5.6,1.9H125.1z
	 M128.1,261.6h6.2c1.5,0,2.8-0.4,3.8-1.2c1-0.8,1.5-1.9,1.5-3.4c0-1.5-0.5-2.6-1.4-3.3c-0.9-0.7-2.2-1.1-3.8-1.1h-6.4V261.6z
	 M128.1,273.6h6.7c1.6,0,3-0.4,4-1.2c1-0.8,1.5-2,1.5-3.6c0-1.6-0.5-2.7-1.5-3.5c-1-0.8-2.4-1.2-4.1-1.2h-6.6V273.6z"/>
<path class="st0" d="M158.4,276.5c-2.8,0-5.2-0.8-7.1-2.3s-2.8-3.6-2.8-6.4v-8.8c0-2.9,0.9-5.1,2.8-6.8c1.9-1.7,4.2-2.5,7-2.5
	c2.9,0,5.2,0.8,7.1,2.4c1.9,1.6,2.8,3.8,2.8,6.5v8.5c0,2.8-0.9,5.1-2.8,6.8C163.5,275.7,161.2,276.5,158.4,276.5z M158.4,273.9
	c2,0,3.6-0.6,4.9-1.7c1.3-1.2,2-2.8,2-4.8v-8.8c0-1.9-0.6-3.5-1.9-4.6c-1.3-1.1-3-1.7-5.1-1.7c-2,0-3.6,0.6-4.9,1.8
	s-1.9,2.8-1.9,4.9v8.5c0,2,0.7,3.5,2,4.7C154.7,273.4,156.4,273.9,158.4,273.9z"/>
<path class="st0" d="M183.9,276.5c-2.9,0-5.2-0.8-7.1-2.3c-1.9-1.5-2.8-3.6-2.8-6.4v-9c0-2.7,0.9-4.9,2.8-6.6
	c1.8-1.7,4.2-2.5,7.1-2.5c2.6,0,4.8,0.7,6.6,2.1c1.8,1.4,2.6,3.3,2.6,5.6v1.3h-2.8v-0.9c0-1.7-0.6-3.1-1.8-4c-1.2-1-2.8-1.5-4.7-1.5
	c-2,0-3.6,0.6-4.9,1.8c-1.3,1.2-1.9,2.7-1.9,4.7v8.7c0,1.9,0.7,3.5,2,4.6c1.3,1.2,3,1.7,5,1.7c1.9,0,3.4-0.5,4.6-1.5
	c1.2-1,1.7-2.3,1.7-4.1v-0.5h2.8v0.9c0,2.4-0.9,4.3-2.6,5.7C188.7,275.8,186.6,276.5,183.9,276.5z"/>
<path class="st0" d="M199.1,276.1v-25.8h2.9v11.2h13.1v-11.2h2.9v25.8h-2.9V264H202v12.1H199.1z"/>
<path class="st0" d="M234.4,276.5c-2.7,0-5-0.7-6.8-2.2c-1.8-1.5-2.7-3.7-2.7-6.7v-17.4h2.9v16.9c0,2.2,0.6,3.9,1.8,5
	c1.2,1.1,2.8,1.7,4.9,1.7c2.1,0,3.8-0.6,4.9-1.7c1.2-1.2,1.7-2.8,1.7-4.9v-17h2.9v17.2c0,2.8-0.8,5-2.6,6.6
	C239.6,275.7,237.3,276.5,234.4,276.5z"/>
<path class="st0" d="M250.8,276.1v-25.8h3.6l8.1,15.8h0l7.9-15.8h3.6v25.8h-2.8v-20.7h-0.1l-7.6,14.8h-2.3l-7.6-14.7h-0.1v20.7
	H250.8z"/>
<path class="st0" d="M474.1,222l16.6,0c6.2,0,10.8-2.6,14.5-5.7c3.7-3,5.5-8.2,5.5-14c0-11.7-7.6-19.2-21.4-19.2l-18.9,0.1
	l-0.2,48.2l0,44.3h-24.2V163.3h46.8c11.1,0,20.5,2.2,27.7,8.4c7.2,6.2,13.8,17.8,13.8,29c0,7.2-1,15.1-4.9,21.2
	c-3.8,6.1-7.9,11.2-16.7,15.9l26.8,37.6l-27.3,0.1L474.1,222z"/>
<path class="st0" d="M597.1,277.6c-13.5,0-23.1-2-31.1-9c-8-7-13.8-18-13.8-31.2v-74.1H577v71.6c0,7.4,1.9,11.9,5.8,16.3
	c5.3,6,20.1,6.4,25.8,3c8.9-5.3,9.8-12.9,9.9-19.2v-71.6h24.3v72.5c0,13.3-5.1,23.8-13.1,31.2C621.5,274.5,610.5,277.6,597.1,277.6z
	"/>
<path class="st0" d="M663,276V163.3h43.2c10,0,15.2,2.1,20.9,6.9c5.7,4.8,8.7,11.9,8.7,20.9c0,6.1-2,11.5-5.4,16.2
	c-3.4,4.6-9,8.1-15.2,9.9l4,0.7c6.1,1.8,10.2,4.8,14.2,9.9c4,5.1,5.4,9.7,5.4,16.5c0,10-3.6,18.3-10.3,23.8
	c-6.7,5.5-13.7,7.9-23.1,7.9H663z M673.2,213.7h29.5c6.7,0,12.3-2.5,16.7-5.9c4.4-3.4,6.5-8.3,6.5-14.7c0-6.4-2.7-13-6.8-16.1
	c-4.1-3.1-8.9-5.1-15.8-5.1h-30.2V213.7z M673.1,267h32.5c7.2,0,11.5-2.2,16-5.8c4.5-3.6,7.4-10.2,7.4-17.2c0-6.8-3.6-12.9-8-16.3
	c-4.4-3.4-9.8-5.1-17.1-5.1h-30.8V267z"/>
<rect x="105.5" y="323.9" class="st0" width="653.1" height="108.1"/>
<path class="st1" d="M125,412.5v-69h15.7l17.8,43.2h0.2l17.3-43.2h15.7v69h-12.4v-46h-0.2l-15.7,38h-10.2l-15.7-37.8h-0.2v45.8H125z
	"/>
<path class="st1" d="M199.7,412.5l25.7-69.1h11.8l25.5,69.1H249l-5-14.7h-26.3l-5.2,14.7H199.7z M221.2,386.7h19.1l-9.4-27.7h-0.2
	L221.2,386.7z"/>
<path class="st1" d="M270.7,412.5v-69h12.9v32l27.8-32H327l-24.6,27.2l27,41.8h-15L293.9,380l-10.4,10.7v21.7H270.7z"/>
<path class="st1" d="M337.1,412.5v-69H385v11.3h-35v16.8H381v11.3H350v18.2h35.4v11.3H337.1z"/>
<path class="st1" d="M397.6,412.5v-69h27.3c6.8,0,12.4,1.9,16.8,5.7c4.4,3.8,6.6,9.1,6.6,16c0,4.4-1.2,8.4-3.5,12.1
	c-2.3,3.7-5.7,6.3-10.2,7.9l17.1,27.3h-14l-16.2-25.8h-11.1v25.8H397.6z M410.4,375.8h12.9c3.8,0,6.8-0.9,9-2.8
	c2.2-1.8,3.3-4.5,3.3-8c0-7.2-4.2-10.7-12.6-10.7h-12.7V375.8z"/>
<path class="st1" d="M482.8,413.6c-6.5,0-12-1.4-16.6-4.3c-4.6-2.9-7.7-7-9.2-12.2l7.2-2.6c1.4,3.9,3.7,6.9,7,9
	c3.3,2.2,7.3,3.2,12.1,3.2c4.7,0,8.6-1.1,11.8-3.3c3.1-2.2,4.7-5.2,4.7-9.1c0-3.4-0.9-6.1-2.8-7.9c-1.8-1.8-4.5-3.3-7.9-4.4
	l-13.1-3.7c-5-1.4-8.8-3.5-11.4-6.3c-2.6-2.8-3.9-6.5-3.9-11.3c0-5.6,2.1-10.1,6.3-13.5c4.2-3.4,9.5-5.1,15.9-5.1
	c5.5,0,10.4,1.1,14.4,3.2c4.1,2.2,7,5.4,8.7,9.8l-6.8,2.7c-3.1-6.1-8.6-9.2-16.5-9.2c-3.9,0-7.2,1-10.1,3c-2.8,2-4.3,4.8-4.3,8.4
	c0,5.5,3.8,9.4,11.4,11.6l13.2,3.7c9.6,2.6,14.3,8.7,14.3,18.2c0,5.9-2.3,10.8-6.8,14.5C495.9,411.8,490,413.6,482.8,413.6z"/>
<path class="st1" d="M519,412.5v-69h24.8c6.7,0,12.1,1.9,16.2,5.7c4.1,3.8,6.1,8.8,6.1,15.1c0,6-2,11-6.1,15c-4.1,4-9.8,6-17,6
	h-16.1v27.3H519z M526.8,378.5h14.3c5.4,0,9.6-1.2,12.6-3.6c3-2.4,4.5-6,4.5-10.7c0-4.4-1.4-7.8-4.3-10.4c-2.9-2.5-6.6-3.8-11.2-3.8
	h-16V378.5z"/>
<path class="st1" d="M565.9,412.5l25.8-69.2h7.3l25.5,69.2h-8.2l-7.1-20H581l-7.3,20H565.9z M583.2,385.8h23.7l-11.7-33.2h-0.1
	L583.2,385.8z"/>
<path class="st1" d="M657.5,413.7c-7.7,0-14-2-19-6.1c-5-4.1-7.5-9.7-7.5-17v-23.9c0-7.3,2.5-13.2,7.4-17.7
	c4.9-4.5,11.2-6.7,18.8-6.7c7,0,12.9,1.9,17.6,5.7c4.7,3.8,7,8.8,7,15.1v3.4h-7.5V364c0-4.6-1.6-8.2-4.8-10.8
	c-3.2-2.6-7.4-3.9-12.6-3.9c-5.2,0-9.6,1.6-13,4.7c-3.5,3.1-5.2,7.3-5.2,12.6v23.1c0,5.2,1.7,9.3,5.2,12.4c3.5,3.1,8,4.6,13.5,4.6
	c5.1,0,9.2-1.3,12.3-4c3.1-2.6,4.6-6.3,4.6-10.8v-1.5h7.5v2.5c0,6.4-2.3,11.4-6.9,15.1C670.4,411.9,664.6,413.7,657.5,413.7z"/>
<path class="st1" d="M694.5,412.5v-69.1h44.3v7h-36.5v23h30.7v6.9h-30.7v25.3h36.7v7H694.5z"/>
</svg>
