<?xml version="1.0" encoding="UTF-8"?>
<!DOCTYPE svg PUBLIC "-//W3C//DTD SVG 1.1//EN" "http://www.w3.org/Graphics/SVG/1.1/DTD/svg11.dtd">
<!-- Creator: Corel DESIGNER -->
<svg xmlns="http://www.w3.org/2000/svg" xml:space="preserve" width="40mm" height="40mm" version="1.1" style="shape-rendering:geometricPrecision; text-rendering:geometricPrecision; image-rendering:optimizeQuality; fill-rule:evenodd; clip-rule:evenodd"
viewBox="0 0 1000 1000"
 xmlns:xlink="http://www.w3.org/1999/xlink"
 xmlns:xodm="http://www.corel.com/coreldraw/odm/2003">
 <defs>
  <style type="text/css">
   <![CDATA[
    .fil0e {fill:#008E5E}
    .fil1 {fill:white}
   ]]>
  </style>
 </defs>
<symbol id="ISO_x0020_7010_x0020_E001" viewBox="1125 2212.5 1750 1750">
 <polygon class="fil0e" points="1125,2212.5 2875,2212.5 2875,3962.5 1125,3962.5 "/>
 <path class="fil1" d="M1620.31 3773.8l298.24 -610.85 -89.87 -208.26 -93.82 113.3c-19.73,23.83 -30.54,30.05 -61.31,30.8l-199.3 0 0 724.88 110.87 110.68 185.48 0 -125.63 -125.41 110.02 -0.66c38.75,-0.18 55.77,7.08 85.31,27.3l100.18 98.77 691.46 0 -107.01 -106.82 0 -228.93 183.15 -0.12c2.8,-80.59 -28.26,-114.04 -43.13,-131.75 -43.48,-47.09 -80.05,-57.71 -140.02,-68.63l0 -1074.99 -1050.68 0 0 656.05 166.66 0 136 -172.7c27.44,-34.85 52.41,-51.26 114.73,-55.96l332.15 0c71.11,0.16 91.25,17.21 119.78,65.77l93.16 158.54c48.37,82.32 -58.11,130.78 -99.52,64.2l-103.03 -165.63c-2.83,-4.55 -4.93,-9.36 -15.97,-9.36l-124.08 0 98.11 208.87c9.55,20.33 16.76,42.25 19.27,64.57l31.22 277.53c0.58,5.15 5.31,11.47 10.49,11.47l225.77 0c58.22,0 112.8,14.61 147.68,45.65 24.72,22 48.67,60.77 49.36,95.16l-491.17 0c-50.45,1.24 -87.06,-43.34 -90.28,-73.21l-30.05 -248.97c-87.74,154.55 -164.85,322.21 -249.5,480.26 -16.57,30.93 -37.68,47.48 -74.73,48.63l-119.99 -0.22zm360.25 -1187.89c5.96,68.6 -45.16,129.07 -114.19,135.07 -69.03,6 -129.82,-44.75 -135.78,-113.35 -5.96,-68.6 45.17,-129.07 114.2,-135.07 69.03,-6 129.81,44.75 135.78,113.35z"/>
</symbol>
 <g id="Ebene_x0020_1">
  <metadata id="CorelCorpID_0Corel-Layer"/>
  <use id="ISO_x0020_7010_x0020_E001_0" transform="scale(0.571429 0.571429)" x="-0" y="-0" width="1750" height="1750" xlink:href="#ISO_x0020_7010_x0020_E001"/>
 </g>
</svg>
