<?xml version="1.0" encoding="UTF-8"?>
<!DOCTYPE svg PUBLIC "-//W3C//DTD SVG 1.1//EN" "http://www.w3.org/Graphics/SVG/1.1/DTD/svg11.dtd">
<!-- Creator: Corel DESIGNER -->
<svg xmlns="http://www.w3.org/2000/svg" xml:space="preserve" width="40mm" height="40mm" version="1.1" style="shape-rendering:geometricPrecision; text-rendering:geometricPrecision; image-rendering:optimizeQuality; fill-rule:evenodd; clip-rule:evenodd"
viewBox="0 0 4000 4000"
 xmlns:xlink="http://www.w3.org/1999/xlink"
 xmlns:xodm="http://www.corel.com/coreldraw/odm/2003">
 <defs>
  <style type="text/css">
   <![CDATA[
    .fil0e {fill:#008E5E}
    .fil1 {fill:white}
   ]]>
  </style>
 </defs>
<symbol id="ISO_x0020_7010_x0020_E008" viewBox="-1500 -3616.67 7000 7000">
 <polygon class="fil0e" points="-1500,-3616.67 5500,-3616.67 5500,3383.33 -1500,3383.33 "/>
 <path class="fil1" d="M1320.15 -1121.06c71.33,-141.68 260.81,-168.43 369.29,-56.1 60.39,-155.29 269.49,-205.06 391.64,-61.58l80.9 90.55c67.81,-174.6 289.17,-181.9 376.91,-77.62l96.56 108.08c60.56,-155.16 270.66,-206.53 394.75,-57.59 52.62,63.15 380.57,410.93 390.56,446.96l45.42 162.97 763.61 0 -234.72 745.57 -321.09 0 73.17 262.51 455.93 210.14 689.42 -237.95 -455.62 -980.27 400.4 -1781.06 -2181.46 883.63 -704.14 -1560.16 -745.57 1270.21 -2098.61 -690.33 1049.3 1877.71 -1035.49 1560.16 1380.66 124.26 -82.84 1615.39 1380.68 -1076.93 1491.12 1076.93 22.02 -946.93 -872.84 -619.6 -1021.54 -390.8 0.06 -0.15c-10.3,-3.9 -19.69,-10.59 -26.97,-19.9l-418.58 -534.25c-11.66,-13.64 -16.76,-28.49 -16.85,-42.61l-1034.14 0 483.24 -745.57 672.92 0c0.14,-9.62 2.49,-19.8 7.6,-30.1 70.75,-142.61 164.07,-386.05 234.3,-525.57z"/>
 <path class="fil1" d="M1606.24 -1083.22c-62.32,-67.66 -148.27,-38.16 -175.15,19.2l-194.12 436.01 237.58 0c19.66,0 37.22,9.07 48.7,23.26l225.35 248.12c12.14,13.34 17.42,30.49 16.07,47.16l-11.44 485.21c-1.91,63.89 -66.74,106.32 -125.7,84.8 -10.92,-3.99 -21.05,-9.97 -29.87,-17.74l-450.4 0 331.81 423.48c17.11,12.63 999.17,374.07 1029.7,397.2l2348.72 1667.26 0 -1638.66 -1188.87 -547.95c-16.08,-7.49 -28.91,-21.7 -34.01,-40.12l-330.25 -1185.15 -382.27 -427.89c-87.48,-92.79 -239.92,40.38 -152.71,141.21l215.06 240.72c54.74,61.23 -38.25,144.33 -92.95,83.15l-445.37 -498.51c-82.47,-83.53 -240.91,35.07 -146.43,148.41l216.07 241.86c54.74,61.23 -38.25,144.33 -92.94,83.16l-445.06 -498.16c-86,-91.81 -248.08,32.02 -147.99,147l285.6 319.69c54.74,61.23 -38.26,144.34 -92.95,83.16l-416.18 -465.88z"/>
</symbol>
 <g id="Ebene_x0020_1">
  <metadata id="CorelCorpID_0Corel-Layer"/>
  <use id="ISO_x0020_7010_x0020_E008_0" transform="scale(0.571429 0.571429)" x="-0" y="-0" width="7000" height="7000" xlink:href="#ISO_x0020_7010_x0020_E008"/>
 </g>
</svg>
