<?xml version="1.0" encoding="UTF-8"?>
<!DOCTYPE svg PUBLIC "-//W3C//DTD SVG 1.1//EN" "http://www.w3.org/Graphics/SVG/1.1/DTD/svg11.dtd">
<!-- Creator: Corel DESIGNER -->
<svg xmlns="http://www.w3.org/2000/svg" xml:space="preserve" width="40mm" height="40mm" version="1.1" style="shape-rendering:geometricPrecision; text-rendering:geometricPrecision; image-rendering:optimizeQuality; fill-rule:evenodd; clip-rule:evenodd"
viewBox="0 0 4000 4000"
 xmlns:xlink="http://www.w3.org/1999/xlink"
 xmlns:xodm="http://www.corel.com/coreldraw/odm/2003">
 <defs>
  <style type="text/css">
   <![CDATA[
    .fil0e {fill:#008E5E}
    .fil1 {fill:white}
   ]]>
  </style>
 </defs>
<symbol id="ISO_x0020_7010_x0020_E011" viewBox="-1500 -9850 7000 7000">
 <rect class="fil0e" x="-1500" y="-9850" width="7000" height="7000"/>
 <polygon class="fil1" points="4882.16,-8666.08 4882.16,-8072.38 4305.73,-8072.38 4305.73,-7495.95 3712.03,-7495.95 3712.03,-8072.38 3135.6,-8072.38 3135.6,-8666.08 3712.03,-8666.08 3712.03,-9242.51 4305.73,-9242.51 4305.73,-8666.08 "/>
 <path class="fil1" d="M1468.07 -8365.8c0,-327.75 -398.06,-492.67 -629.83,-260.89 -231.78,231.77 -66.86,629.83 260.89,629.83 203.78,0 368.94,-165.15 368.94,-368.94zm868.84 179c-159.13,-229.23 -366.23,-401.99 -605.91,-510.33 247.62,471.2 -93.88,1044.68 -631.87,1044.68 -525.26,0 -867.71,-548.97 -644.85,-1018.73 -223.69,109.37 -419.81,272.87 -570.73,484.38 591.73,829.29 1844.8,876.59 2453.36,0zm392.54 0c-792.17,1306.03 -2427.22,1317.83 -3241.05,0 813.83,-1317.82 2448.86,-1306.02 3241.05,0z"/>
 <circle class="fil1" cx="1121.82" cy="-5365.74" r="111.75"/>
 <circle class="fil1" cx="280.43" cy="-5365.74" r="111.75"/>
 <circle class="fil1" cx="1963.21" cy="-5365.74" r="111.75"/>
 <circle class="fil1" cx="1682.75" cy="-5365.74" r="111.75"/>
 <circle class="fil1" cx="1402.29" cy="-5365.74" r="111.75"/>
 <circle class="fil1" cx="841.36" cy="-5365.74" r="111.75"/>
 <circle class="fil1" cx="560.89" cy="-5365.74" r="111.75"/>
 <circle class="fil1" cx="1121.82" cy="-5626.65" r="111.75"/>
 <circle class="fil1" cx="249.12" cy="-5626.65" r="111.75"/>
 <circle class="fil1" cx="1994.52" cy="-5626.65" r="111.75"/>
 <circle class="fil1" cx="1703.62" cy="-5626.65" r="111.75"/>
 <circle class="fil1" cx="1402.29" cy="-5626.65" r="111.75"/>
 <circle class="fil1" cx="841.36" cy="-5626.65" r="111.75"/>
 <circle class="fil1" cx="540.02" cy="-5626.65" r="111.75"/>
 <circle class="fil1" cx="1121.82" cy="-5887.57" r="111.75"/>
 <circle class="fil1" cx="186.5" cy="-5887.57" r="111.75"/>
 <circle class="fil1" cx="2057.14" cy="-5887.57" r="111.75"/>
 <circle class="fil1" cx="1703.62" cy="-5887.57" r="111.75"/>
 <circle class="fil1" cx="1402.29" cy="-5887.57" r="111.75"/>
 <circle class="fil1" cx="841.36" cy="-5887.57" r="111.75"/>
 <circle class="fil1" cx="540.02" cy="-5887.57" r="111.75"/>
 <circle class="fil1" cx="1121.82" cy="-6169.35" r="111.75"/>
 <circle class="fil1" cx="123.88" cy="-6169.35" r="111.75"/>
 <circle class="fil1" cx="2119.76" cy="-6169.35" r="111.75"/>
 <circle class="fil1" cx="1734.93" cy="-6169.35" r="111.75"/>
 <circle class="fil1" cx="1402.29" cy="-6169.35" r="111.75"/>
 <circle class="fil1" cx="841.36" cy="-6169.35" r="111.75"/>
 <circle class="fil1" cx="508.71" cy="-6169.35" r="111.75"/>
 <circle class="fil1" cx="1121.82" cy="-6482.45" r="111.75"/>
 <circle class="fil1" cx="19.52" cy="-6482.45" r="111.75"/>
 <circle class="fil1" cx="2224.12" cy="-6482.45" r="111.75"/>
 <circle class="fil1" cx="1807.99" cy="-6482.45" r="111.75"/>
 <circle class="fil1" cx="1475.34" cy="-6482.45" r="111.75"/>
 <circle class="fil1" cx="768.3" cy="-6482.45" r="111.75"/>
 <circle class="fil1" cx="435.66" cy="-6482.45" r="111.75"/>
 <circle class="fil1" cx="1121.82" cy="-6826.86" r="111.75"/>
 <circle class="fil1" cx="-147.47" cy="-6826.86" r="111.75"/>
 <circle class="fil1" cx="2370.24" cy="-6826.86" r="111.75"/>
 <circle class="fil1" cx="1922.79" cy="-6826.86" r="111.75"/>
 <circle class="fil1" cx="1579.71" cy="-6826.86" r="111.75"/>
 <circle class="fil1" cx="663.93" cy="-6826.86" r="111.75"/>
 <circle class="fil1" cx="310.42" cy="-6826.86" r="111.75"/>
 <circle class="fil1" cx="-366.63" cy="-7202.57" r="111.75"/>
 <circle class="fil1" cx="2589.4" cy="-7202.57" r="111.75"/>
 <circle class="fil1" cx="2058.47" cy="-7202.57" r="111.75"/>
 <circle class="fil1" cx="164.31" cy="-7202.57" r="111.75"/>
 <circle class="fil1" cx="-742.35" cy="-7661.78" r="111.75"/>
 <circle class="fil1" cx="2965.12" cy="-7661.78" r="111.75"/>
 <path class="fil1" d="M1121.82 -3482.33l-283.02 0 0 -835.31c0,-179.19 -86.94,-283.11 -283.03,-303.74l-262.33 -27.62c-207.52,-21.83 -296.85,-218.9 -296.85,-400.4l0 -158.77 1125.23 0 1125.22 0 0 158.77c0,181.5 -89.32,378.57 -296.84,400.4l-262.34 27.62c-196.09,20.63 -283.02,124.55 -283.02,303.74l0 835.31 -283.02 0z"/>
</symbol>
 <g id="Ebene_x0020_1">
  <metadata id="CorelCorpID_0Corel-Layer"/>
  <use id="ISO_x0020_7010_x0020_E011_0" transform="scale(0.571429 0.571429)" x="-0" y="-0" width="7000" height="7000" xlink:href="#ISO_x0020_7010_x0020_E011"/>
 </g>
</svg>
