<?xml version="1.0" encoding="UTF-8"?>
<!DOCTYPE svg PUBLIC "-//W3C//DTD SVG 1.1//EN" "http://www.w3.org/Graphics/SVG/1.1/DTD/svg11.dtd">
<!-- Creator: Corel DESIGNER -->
<svg xmlns="http://www.w3.org/2000/svg" xml:space="preserve" width="40mm" height="40mm" version="1.1" style="shape-rendering:geometricPrecision; text-rendering:geometricPrecision; image-rendering:optimizeQuality; fill-rule:evenodd; clip-rule:evenodd"
viewBox="0 0 2000 2000"
 xmlns:xlink="http://www.w3.org/1999/xlink"
 xmlns:xodm="http://www.corel.com/coreldraw/odm/2003">
 <defs>
  <style type="text/css">
   <![CDATA[
    .fil0e {fill:#008E5E}
    .fil1 {fill:white}
   ]]>
  </style>
 </defs>
<symbol id="ISO_x0020_7010_x0020_E014" viewBox="-3750 4425 3500 3500">
 <rect class="fil0e" x="-3750" y="4425" width="3500" height="3500"/>
 <circle class="fil1" cx="-1639.85" cy="6036.4" r="95.18"/>
 <path class="fil1" d="M-584.07 5703.78c-177.93,6.69 -320.12,153.05 -320.12,332.62 0,179.57 142.19,325.93 320.12,332.62 52.75,-217.57 52.75,-447.67 0,-665.24z"/>
 <path class="fil1" d="M-1446.76 6229.49c106.65,-106.65 106.65,-279.52 0,-386.18l-52.67 52.67c77.53,77.54 77.53,203.3 0,280.84l52.67 52.67z"/>
 <path class="fil1" d="M-1377.19 5773.74c145.05,145.05 145.05,380.28 0,525.32l52.68 52.68c174.15,-174.17 174.16,-456.51 0,-630.68l-52.68 52.68z"/>
 <path class="fil1" d="M-1252.82 5649.36c213.73,213.74 213.74,560.34 0,774.07l52.67 52.67c242.86,-242.84 242.86,-636.57 0,-879.41l-52.67 52.66z"/>
 <circle class="fil1" cx="-2092.42" cy="5658.05" r="146.34"/>
 <path class="fil1" d="M-2372.91 6366.36l311.18 -371.6c32.1,-38.34 28.08,-92.85 -11.43,-129.03 -38.61,-32.34 -96.69,-27.19 -129.01,11.42l-31.76 37.94 -259.58 0c-79.93,0 -79.94,121.32 0,121.32l157.99 0 -147.03 175.59 -203.84 0c0,0.03 -46.71,13.12 -50.3,15.53l-177.36 119.09c-41.47,27.85 -52.84,81.35 -24.97,127.1 28.09,41.82 85.26,53.06 127.09,24.98l148.41 -99.65 220.9 -0.01c26.02,-0.17 51.81,-11.28 69.72,-32.67z"/>
 <path class="fil1" d="M-1969.08 5969.56l97.06 -208.76c15.17,-32.63 54.6,-25 54.6,5.69l0 113.65c0,35.11 -6.66,65.16 -21.52,96.97 -26.33,56.41 -58.61,124.56 -90.18,164.84 -121.63,155.19 -239.62,260.57 -372.06,406.65l-431.38 0c-5.06,0 -9.36,-3.13 -10.91,-7.95 -1.55,-4.82 0.12,-9.88 4.24,-12.82l74.5 -53.34c20.3,-14.53 41.75,-21.42 66.72,-21.42l165.64 0c33.64,0 83.22,-29.65 104.82,-55.45l358.45 -428.06z"/>
 <path class="fil1" d="M-3371.94 5547.6l0 260.43 168.39 1000.07 764.79 0 39.06 -125.87c2.88,-9.91 -3.63,-16.4 -17.26,-16.99l-647.56 0c-44.04,-312.6 -113.64,-608.53 -246.6,-896.28 2.28,-62.29 5.21,-124.78 6.96,-187.06 0.9,-22.74 -11.1,-34.23 -34.51,-34.41l-33.28 0.11zm-57.32 262.47l0 -319.78 94.05 0.16c55.48,1.47 93.09,55.46 88.14,91.9 -1.09,57.99 -4.29,116.86 -6.45,174.91 122.96,267.84 195.94,559.81 238.61,850.66l597.96 0c49.49,0 86.47,48.07 70.9,97.03l-51.05 160.45 -854.8 0 -177.36 -1055.35z"/>
</symbol>
 <g id="Ebene_x0020_1">
  <metadata id="CorelCorpID_0Corel-Layer"/>
  <use id="ISO_x0020_7010_x0020_E014_0" transform="scale(0.571429 0.571429)" x="-0" y="-0" width="3500" height="3500" xlink:href="#ISO_x0020_7010_x0020_E014"/>
 </g>
</svg>
