<?xml version="1.0" encoding="UTF-8"?>
<!DOCTYPE svg PUBLIC "-//W3C//DTD SVG 1.1//EN" "http://www.w3.org/Graphics/SVG/1.1/DTD/svg11.dtd">
<!-- Creator: Corel DESIGNER -->
<svg xmlns="http://www.w3.org/2000/svg" xml:space="preserve" width="40mm" height="40mm" version="1.1" style="shape-rendering:geometricPrecision; text-rendering:geometricPrecision; image-rendering:optimizeQuality; fill-rule:evenodd; clip-rule:evenodd"
viewBox="0 0 1000 1000"
 xmlns:xlink="http://www.w3.org/1999/xlink"
 xmlns:xodm="http://www.corel.com/coreldraw/odm/2003">
 <defs>
  <style type="text/css">
   <![CDATA[
    .fil0e {fill:#008E5E}
    .fil1 {fill:white}
   ]]>
  </style>
 </defs>
<symbol id="ISO_x0020_7010_x0020_E015" viewBox="1125 654.16 1750 1750">
 <rect class="fil0e" x="1125" y="654.16" width="1750" height="1750"/>
 <path class="fil1" d="M1979.19 1026.04c-196.66,0 -356.08,159.42 -356.08,356.08l-0.01 79.15 8.84 0 182.25 0 0 -78.16c-0,-0.33 -0,-0.65 -0,-0.98 0,-91.13 73.88,-165.01 165.01,-165.01l85.2 0c85.54,61.38 171.08,83.42 256.62,64.93 45.89,-9.92 91.78,-31.5 137.66,-64.93l227.47 0 0 -191.07 -362.44 0 0 -63.7 69.76 0c36.7,0 66.72,-30.02 66.72,-66.72 0,-36.7 -30.02,-66.73 -66.72,-66.73l-254.77 0c-36.7,0 -66.72,30.02 -66.72,66.73 0,36.7 30.03,66.72 66.72,66.72l62.18 0 0 63.7 -221.68 0z"/>
 <path class="fil1" d="M1994.29 2151.34l103.09 -353.33c-63.84,-5.58 -117.24,-23.76 -152.89,-35.91 -17.64,-6.01 -30.24,-10.3 -33.28,-10.07 -29.55,2.3 -39.06,17.88 -60.4,34.1 -66.3,50.4 -186.56,76.88 -299.85,-7.91 -23.64,-17.77 -57.36,-20.45 -86.16,-20.03l114.7 393.13 414.78 0zm-569.92 -531.72c75.71,-4.83 148.07,-1.01 211.11,46.61 36.93,27.9 89.73,40.06 128.79,9.46 49.18,-38.54 67.91,-58.46 136.43,-63.62 37.62,-2.84 64.16,7.77 94.9,20.05 33.82,13.51 73.47,29.35 142.19,27.41l42.15 -144.48 76.79 22.26 -202.56 694.28 -534.53 0 -202.57 -694.28 76.79 -22.26 30.51 104.58zm701.68 80.11c-68.79,0.04 -109.86,-16.37 -145.19,-30.48 -26.05,-10.41 -48.54,-19.39 -77.2,-17.23 -57.62,4.35 -73.77,23.02 -114.79,55.16 -53.7,42.07 -125.77,30.12 -177.53,-8.99 -51.78,-39.11 -113.17,-42.49 -175.46,-39.13l17.32 59.39c41.78,-1.56 87.18,1.85 121.74,27.81 103.7,77.62 192.27,52.41 251.11,8.38 30.13,-23.71 38.88,-39.19 82.18,-42.56 11.09,-0.84 26.93,4.55 49.1,12.1 35.19,11.99 88.75,30.23 151.5,34.54l17.21 -58.99z"/>
</symbol>
 <g id="Ebene_x0020_1">
  <metadata id="CorelCorpID_0Corel-Layer"/>
  <use id="ISO_x0020_7010_x0020_E015_0" transform="scale(0.571429 0.571429)" x="-0" y="-0" width="1750" height="1750" xlink:href="#ISO_x0020_7010_x0020_E015"/>
 </g>
</svg>
