<?xml version="1.0" encoding="UTF-8"?>
<!DOCTYPE svg PUBLIC "-//W3C//DTD SVG 1.1//EN" "http://www.w3.org/Graphics/SVG/1.1/DTD/svg11.dtd">
<!-- Creator: Corel DESIGNER -->
<svg xmlns="http://www.w3.org/2000/svg" xml:space="preserve" width="40mm" height="40mm" version="1.1" style="shape-rendering:geometricPrecision; text-rendering:geometricPrecision; image-rendering:optimizeQuality; fill-rule:evenodd; clip-rule:evenodd"
viewBox="0 0 1000 1000"
 xmlns:xlink="http://www.w3.org/1999/xlink"
 xmlns:xodm="http://www.corel.com/coreldraw/odm/2003">
 <defs>
  <style type="text/css">
   <![CDATA[
    .fil0e {fill:#008E5E}
    .fil1 {fill:white}
   ]]>
  </style>
 </defs>
<symbol id="ISO_x0020_7010_x0020_E021" viewBox="1125 -2453.24 1750 1750">
 <polygon class="fil0e" points="1125,-2453.24 2875,-2453.24 2875,-703.24 1125,-703.24 "/>
 <path class="fil1" d="M2000 -861.31c231.39,-80.18 621.41,-356.01 621.41,-879.35l0 -552.24 -621.41 0 -621.41 0 0 552.24c0,523.33 390.01,799.16 621.41,879.35z"/>
 <path id="Person_x0020_front_x0020_view" class="fil0e" d="M2156.62 -1768.28c0,-22.74 -18.43,-41.17 -41.17,-41.17 -22.74,0 -41.17,18.43 -41.17,41.17 0,22.74 18.43,41.17 41.17,41.17 22.74,0 41.17,-18.43 41.17,-41.17zm8.97 491.3c0,12.96 -10.6,23.55 -23.55,23.55 -12.95,0 -23.55,-10.6 -23.55,-23.55l0 -228.95 -6.06 0 0 228.95c0,12.96 -10.6,23.55 -23.55,23.55 -12.95,0 -23.55,-10.6 -23.55,-23.55l0 -375.88c0,-3.82 -5.89,-3.82 -5.89,0l0 157.4c0,11.51 -9.42,20.93 -20.94,20.93 -11.51,0 -20.94,-9.42 -20.94,-20.93 0,-53.22 0,-106.43 0,-159.65 0,-33.52 27.43,-60.95 60.96,-60.95 24.63,0 49.26,0 73.89,0 33.53,0 60.95,27.43 60.95,60.95 0,53.22 0,106.43 0,159.65 0,11.51 -9.42,20.93 -20.94,20.93 -11.51,0 -20.93,-9.42 -20.93,-20.93l0 -157.4c0,-3.82 -5.89,-3.82 -5.89,0l0 375.88zm175.43 -359.01c0,-16.9 -13.7,-30.6 -30.6,-30.6 -16.9,0 -30.59,13.7 -30.59,30.6 0,16.89 13.69,30.59 30.59,30.59 16.9,0 30.6,-13.7 30.6,-30.59zm6.66 365.06c0,9.62 -7.88,17.5 -17.5,17.5 -9.62,0 -17.5,-7.88 -17.5,-17.5l0 -170.12 -4.51 0 0 170.12c0,9.62 -7.88,17.5 -17.5,17.5 -9.63,0 -17.5,-7.88 -17.5,-17.5l0 -279.3c0,-2.84 -4.38,-2.84 -4.38,0l0 116.96c0,8.56 -7,15.56 -15.55,15.56 -8.56,0 -15.56,-7 -15.56,-15.56 0,-39.54 0,-79.08 0,-118.63 0,-24.91 20.38,-45.29 45.29,-45.29 18.3,0 36.6,0 54.9,0 24.91,0 45.29,20.38 45.29,45.29 0,39.55 0,79.09 0,118.63 0,8.56 -7,15.56 -15.56,15.56 -8.55,0 -15.56,-7 -15.56,-15.56l0 -116.96c0,-2.84 -4.38,-2.84 -4.38,0l0 279.3zm-757.36 69.33l819.38 0 0 -542.82 -295.42 -295.42 -228.53 0 -295.42 295.42 0 542.82zm253.07 -566.68c0,-22.74 18.43,-41.17 41.17,-41.17 22.74,0 41.17,18.43 41.17,41.17 0,22.74 -18.43,41.17 -41.17,41.17 -22.74,0 -41.17,-18.43 -41.17,-41.17zm-8.96 491.3c0,12.96 10.6,23.55 23.55,23.55 12.95,0 23.55,-10.6 23.55,-23.55l0 -228.95 6.06 0 0 228.95c0,12.96 10.6,23.55 23.55,23.55 12.95,0 23.55,-10.6 23.55,-23.55l0 -375.88c0,-3.82 5.89,-3.82 5.89,0l0 157.4c0,11.51 9.42,20.93 20.94,20.93 11.52,0 20.93,-9.42 20.93,-20.93 0,-53.22 0,-106.43 0,-159.65 0,-33.52 -27.43,-60.95 -60.95,-60.95 -24.63,0 -49.26,0 -73.88,0 -33.53,0 -60.95,27.43 -60.95,60.95 0,53.22 0,106.43 0,159.65 0,11.51 9.42,20.93 20.93,20.93 11.51,0 20.93,-9.42 20.93,-20.93l0 -157.4c0,-3.82 5.89,-3.82 5.89,0l0 375.88zm-173.51 -376.44c0,-17.66 14.32,-31.98 31.99,-31.98 17.67,0 31.99,14.32 31.99,31.98 0,17.67 -14.32,31.99 -31.99,31.99 -17.66,0 -31.99,-14.32 -31.99,-31.99zm-6.96 381.7c0,10.06 8.23,18.3 18.3,18.3 10.06,0 18.3,-8.23 18.3,-18.3l0 -177.88 4.71 0 0 177.88c0,10.06 8.24,18.3 18.3,18.3 10.06,0 18.3,-8.23 18.3,-18.3l0 -292.03c0,-2.97 4.58,-2.97 4.58,0l0 122.29c0,8.94 7.32,16.27 16.26,16.27 8.95,0 16.27,-7.32 16.27,-16.27 0,-41.35 0,-82.69 0,-124.04 0,-26.04 -21.31,-47.35 -47.36,-47.35 -19.13,0 -38.27,0 -57.4,0 -26.05,0 -47.36,21.31 -47.36,47.35 0,41.35 0,82.69 0,124.04 0,8.94 7.32,16.27 16.26,16.27 8.95,0 16.27,-7.32 16.27,-16.27l0 -122.29c0,-2.97 4.58,-2.97 4.58,0l0 292.03z"/>
 <path class="fil0e" d="M2139.34 -2119.35l347.99 347.99 104.82 0 -422.11 -422.12c-114.1,0 -228.21,0 -342.31,0l-422.11 422.12 104.82 0 347.99 -347.99c93.63,0 187.27,0 280.91,0z"/>
</symbol>
 <g id="Ebene_x0020_1">
  <metadata id="CorelCorpID_0Corel-Layer"/>
  <use id="ISO_x0020_7010_x0020_E021_0" transform="scale(0.571429 0.571429)" x="-0" y="-0" width="1750" height="1750" xlink:href="#ISO_x0020_7010_x0020_E021"/>
 </g>
</svg>
