<?xml version="1.0" encoding="UTF-8"?>
<!DOCTYPE svg PUBLIC "-//W3C//DTD SVG 1.1//EN" "http://www.w3.org/Graphics/SVG/1.1/DTD/svg11.dtd">
<!-- Creator: Corel DESIGNER -->
<svg xmlns="http://www.w3.org/2000/svg" xml:space="preserve" width="40mm" height="40mm" version="1.1" style="shape-rendering:geometricPrecision; text-rendering:geometricPrecision; image-rendering:optimizeQuality; fill-rule:evenodd; clip-rule:evenodd"
viewBox="0 0 1000 1000"
 xmlns:xlink="http://www.w3.org/1999/xlink"
 xmlns:xodm="http://www.corel.com/coreldraw/odm/2003">
 <defs>
  <style type="text/css">
   <![CDATA[
    .fil0e {fill:#008E5E}
    .fil1 {fill:white}
   ]]>
  </style>
 </defs>
<symbol id="ISO_x0020_7010_x0020_E029" viewBox="1125 -904.17 1750 1750">
 <rect class="fil0e" x="1125" y="-904.17" width="1750" height="1750"/>
 <polygon class="fil1" points="2721.4,-604.22 2721.4,-457.87 2574.36,-457.87 2574.36,-310.83 2428.01,-310.83 2428.01,-457.87 2280.97,-457.87 2280.97,-604.22 2428.01,-604.22 2428.01,-751.26 2574.36,-751.26 2574.36,-604.22 "/>
 <path class="fil1" d="M1712.49 -375.76c-57.08,0.01 -178.77,0.51 -221.65,12.9 -45.62,13.18 -104.49,32.75 -96.45,63.4 8.04,30.65 71.6,-4.6 128.13,-19 40.91,-10.42 339.04,-10.42 379.95,0 56.52,14.4 120.09,49.65 128.13,19 8.04,-30.65 -50.83,-50.22 -96.45,-63.4 -42.89,-12.39 -164.57,-12.89 -221.65,-12.9zm-2.53 886.59c-37.21,0 -67.37,24.52 -67.37,54.78 0,30.26 30.16,54.78 67.37,54.78 37.21,0 67.38,-24.52 67.38,-54.78 0,-30.25 -30.16,-54.78 -67.38,-54.78zm2.53 -83.12c-93.68,0 -169.6,61.74 -169.6,137.9 0,76.16 75.93,137.9 169.6,137.9 93.68,0 169.6,-61.74 169.6,-137.9 0,-76.16 -75.93,-137.9 -169.6,-137.9zm-91.25 -189.95c-33.67,-3.95 -78.48,-7.27 -114.09,-8.72 -35.61,-1.45 -80.78,-12.44 -112.5,-55.61 -50.87,-69.24 -80.89,-289.54 -57.79,-429.08 7.38,-44.57 32.33,-72.23 54,-96.4 74.6,-83.22 412.3,-68.58 519.52,-51.12 54.73,8.91 102.19,27.11 123.71,51.12 21.67,24.17 46.62,51.83 54,96.4 23.1,139.54 -6.92,359.83 -57.78,429.08 -31.72,43.17 -76.89,54.16 -112.5,55.61 -35.61,1.45 -80.42,4.77 -114.09,8.72 -7.75,0.91 -42.74,12.18 15.96,41.14 65.82,32.48 35.33,44.91 -20.36,11.21 -33.94,-20.53 -67.64,-19.09 -86.85,-19.09 -83.7,0 -76.32,22.3 -126.57,37.55 -21.57,6.55 -22.76,-5.09 -6.28,-15.4 6.58,-4.11 15.01,-9.02 25.64,-14.27 58.7,-28.96 23.71,-40.23 15.96,-41.14zm91.25 -970.61c-47.17,2.27 -49.03,34.59 -49.22,94.9 -0.14,43.61 -49.23,99.14 -77.21,133.64 -19.15,23.62 -36.67,1.67 -20.96,-21.6 24.37,-36.11 51.68,-55.6 61.44,-89.18 5.17,-17.79 -18.67,-28.95 -49.16,-16.53 -15.06,6.13 -28.6,18.46 -43.83,31.21 -26.75,22.4 -54.15,41.02 -93.82,120.08 -23.93,47.69 -70.98,53.36 -99.06,96.66 -32.61,50.29 -53.95,103.25 -53.52,207.47 0.41,99.87 7.66,164.4 40.93,278.32 27.93,95.65 105.85,188.67 126.55,237.4 15.26,35.91 28.66,73.73 7.58,82.49 -33.06,13.72 -97.35,28.12 -126.57,36.5 -40.61,11.65 -66.47,51.56 -29.49,73.26 31.1,18.25 90.44,8.83 127.39,4.19 30.09,-3.77 70.46,-11.82 97.86,-30.68 29.09,-56.87 100.85,-96.85 181.34,-96.85 64.16,0 129.58,23 167.68,75.38l67.38 -85.67c8.95,-11.38 15.69,-42.44 22.57,-58.63 20.7,-48.73 98.62,-141.75 126.55,-237.4 33.27,-113.92 40.51,-178.44 40.92,-278.32 0.43,-104.23 -20.91,-157.18 -53.52,-207.47 -28.08,-43.31 -75.12,-48.97 -99.06,-96.66 -39.68,-79.06 -67.07,-97.67 -93.83,-120.08 -15.23,-12.75 -28.77,-25.08 -43.83,-31.21 -30.49,-12.42 -54.34,-1.26 -49.16,16.53 9.76,33.58 37.08,53.07 61.44,89.18 15.71,23.27 -1.81,45.22 -20.96,21.6 -27.98,-34.5 -77.07,-90.03 -77.21,-133.64 -0.19,-60.31 -2.05,-92.62 -49.22,-94.9zm-111.61 1093.19l2.94 12.08c37.36,-23.23 75.78,-25.86 108.67,-25.32 32.89,0.54 71.31,2.09 108.67,25.32l2.94 -12.08c-33.66,-21.79 -68.09,-28.08 -111.61,-28.08 -43.52,0 -77.95,6.29 -111.61,28.08zm8.67 35.63c3.89,16.12 -18.5,20.33 -21.95,6.13l-6.64 -27.29c-22.43,17.99 -28.34,-6.12 -19.62,-13.41 45.93,-38.44 85.06,-51.61 151.14,-51.9 66.08,-0.29 122.35,26.73 151.16,51.9 8.69,7.59 2.69,31.31 -19.62,13.41l-6.64 27.29c-3.45,14.21 -25.84,10 -21.94,-6.13 -35.45,-24.27 -72.78,-25.66 -102.94,-26.12 -30.16,-0.45 -67.49,1.84 -102.94,26.12zm102.94 -428.86c-48.32,4.32 -72.33,48.28 -90.16,92.13 -19.02,46.79 -49.04,105.35 -9.34,126.24 30.93,16.28 168.06,16.28 198.99,0 39.7,-20.9 9.68,-79.45 -9.34,-126.24 -17.82,-43.85 -41.83,-87.81 -90.16,-92.13zm317.38 -224.49c28.19,11.07 28.84,83.6 28.34,155.53 -0.5,71.93 -12.79,135.24 -22.47,168.84 -9.68,33.61 -23.36,76.81 -57.82,84.59 -34.46,7.79 -41.93,-42.7 -32.42,-90.14 9.51,-47.44 36.68,-137.68 41.99,-213.68 4.34,-62.06 5.69,-119.56 42.39,-105.16zm-634.74 0c-28.2,11.07 -28.84,83.6 -28.34,155.53 0.5,71.93 12.79,135.24 22.47,168.84 9.68,33.61 23.36,76.81 57.82,84.59 34.46,7.79 41.93,-42.7 32.42,-90.14 -9.51,-47.44 -36.68,-137.68 -41.99,-213.68 -4.34,-62.06 -5.68,-119.56 -42.38,-105.16z"/>
</symbol>
 <g id="Ebene_x0020_1">
  <metadata id="CorelCorpID_0Corel-Layer"/>
  <use id="ISO_x0020_7010_x0020_E029_0" transform="scale(0.571429 0.571429)" x="-0" y="0" width="1750" height="1750" xlink:href="#ISO_x0020_7010_x0020_E029"/>
 </g>
</svg>
