<?xml version="1.0" encoding="UTF-8"?>
<!DOCTYPE svg PUBLIC "-//W3C//DTD SVG 1.1//EN" "http://www.w3.org/Graphics/SVG/1.1/DTD/svg11.dtd">
<!-- Creator: Corel DESIGNER -->
<svg xmlns="http://www.w3.org/2000/svg" xml:space="preserve" width="40mm" height="40mm" version="1.1" style="shape-rendering:geometricPrecision; text-rendering:geometricPrecision; image-rendering:optimizeQuality; fill-rule:evenodd; clip-rule:evenodd"
viewBox="0 0 4000 4000"
 xmlns:xlink="http://www.w3.org/1999/xlink"
 xmlns:xodm="http://www.corel.com/coreldraw/odm/2003">
 <defs>
  <style type="text/css">
   <![CDATA[
    .fil0e {fill:#008E5E}
    .fil1 {fill:white}
   ]]>
  </style>
 </defs>
<symbol id="ISO_x0020_7010_x0020_E035" viewBox="-1500 8850 7000 7000">
 <rect class="fil0e" x="-1500" y="8850" width="7000" height="7000"/>
 <path class="fil1" d="M4604.88 9931.86c0,-67.52 -54.73,-122.24 -122.24,-122.24 -67.51,0 -122.24,54.72 -122.24,122.24 0,67.51 54.73,122.24 122.24,122.24 67.51,0 122.24,-54.73 122.24,-122.24zm-4911.4 3435.5c0,-86.8 -70.36,-157.16 -157.16,-157.16 -86.79,0 -157.16,70.36 -157.16,157.16 0,86.8 70.37,157.16 157.16,157.16 86.8,0 157.16,-70.36 157.16,-157.16zm1793.95 -1461.86c0,-35.81 -29.03,-64.83 -64.84,-64.83 -35.8,0 -64.82,29.02 -64.82,64.83 0,35.8 29.02,64.83 64.82,64.83 35.81,0 64.84,-29.03 64.84,-64.83zm-318.87 79.71c0,-35.81 -29.03,-64.83 -64.84,-64.83 -35.8,0 -64.83,29.02 -64.83,64.83 0,35.81 29.03,64.83 64.83,64.83 35.81,0 64.84,-29.02 64.84,-64.83zm-315.09 125.27c0,-35.81 -29.02,-64.83 -64.83,-64.83 -35.8,0 -64.83,29.02 -64.83,64.83 0,35.81 29.03,64.83 64.83,64.83 35.81,0 64.83,-29.02 64.83,-64.83zm-294.54 140.46c0,-30.37 -24.62,-55 -55,-55 -30.37,0 -55.01,24.63 -55.01,55 0,30.38 24.64,55 55.01,55 30.38,0 55,-24.62 55,-55zm-284.71 163.22c0,-30.37 -24.62,-55 -55.01,-55 -30.37,0 -55,24.63 -55,55 0,30.38 24.63,55 55,55 30.39,0 55.01,-24.62 55.01,-55zm-299.9 204.99c0,-30.37 -24.62,-55 -55,-55 -30.37,0 -55,24.63 -55,55 0,30.38 24.63,55 55,55 30.38,0 55,-24.62 55,-55zm-216.38 216.37c0,-30.37 -24.62,-55 -55,-55 -30.37,0 -55,24.63 -55,55 0,30.38 24.63,55 55,55 30.38,0 55,-24.62 55,-55zm2040.77 -689.26l-260.34 -440.83c-15.87,-26.87 -46.47,-39.49 -76.68,-31.62 -744.15,193.92 -1376.4,528.72 -1938.77,1061.42 -160.08,151.62 -307.44,464.63 -307.44,632.13 0,177.2 143.65,320.85 320.84,320.85 150.25,0 274.45,-103.8 311.24,-242.71 60.24,-227.5 61.09,-361.89 258.48,-542.78 451.79,-413.99 931.98,-484.82 1649.21,-654.42 22.01,-5.2 38.67,-19.24 47.52,-40.04 8.86,-20.8 7.44,-42.54 -4.06,-62zm606.73 -519.44c0,-54.12 -43.88,-97.99 -97.99,-97.99 -54.12,0 -97.99,43.87 -97.99,97.99 0,54.11 43.87,97.99 97.99,97.99 54.11,0 97.99,-43.88 97.99,-97.99zm-786.71 -17.51l461.6 781.57c11.79,19.97 30.86,31.84 53.96,33.65 23.1,1.78 43.79,-7 58.51,-24.88 145.12,-176.27 256.83,-366.68 449.93,-494.96 331.1,-219.98 778.21,-289.02 1108.96,-509.52 175.25,-116.84 293.49,-342.5 440.35,-493.49 213.64,-219.65 429.14,-390.55 637.74,-614.97 291.03,-313.12 -123.96,-1018.53 -597.49,-657.75 -496.16,378.04 -912.05,864.83 -1444.81,1189.21l-1145.28 697.29c-32.12,19.56 -42.59,61.46 -23.47,93.85zm888.03 17.51c0,-110.07 -89.24,-199.31 -199.31,-199.31 -110.07,0 -199.31,89.24 -199.31,199.31 0,110.07 89.24,199.31 199.31,199.31 110.07,0 199.31,-89.24 199.31,-199.31z"/>
 <path class="fil1" d="M126.2 10298.76l-284.38 887.82c-165.67,517.27 390.17,826.32 412.56,756.32l20.64 -64.44 -26.36 -229.01 84.98 46.03 -11.25 -304.23 109.74 -3.24 -36.76 -296.4 138.2 -20.31 6.59 -20.58c164.75,-514.31 -389.78,-827.75 -413.96,-751.96zm1824.42 4918.8l599.51 0 125.61 -392.14c164.75,-514.31 -389.78,-827.75 -413.96,-751.96l-284.38 887.82c-29.6,92.41 -36.09,178.13 -26.78,256.28zm685.04 0l457.03 0c-123.04,-217.76 -352.42,-326.74 -367.79,-278.59l-89.24 278.59zm-3099.27 -5754.89l-410.43 0 0 777.36c76.47,50.97 139.63,68.07 146.89,45.42l263.54 -822.78zm64.53 73.7l-284.38 887.82c-165.67,517.27 390.17,826.32 412.57,756.32l285.78 -892.18c164.74,-514.31 -389.78,-827.75 -413.97,-751.96zm2193.41 3721.42l-284.38 887.82c-165.67,517.27 390.17,826.33 412.56,756.32l285.78 -892.18c164.74,-514.31 -389.78,-827.75 -413.96,-751.96zm-523.35 -740.5l-30.41 94.92 19.31 205.79 -76.8 -26.32 14.07 270.53 -98.68 -6.37 25.32 301.99 -121.97 -0.24 -15.22 47.52c-165.67,517.27 390.17,826.32 412.56,756.32l285.78 -892.18c164.74,-514.31 -389.78,-827.75 -413.96,-751.96z"/>
</symbol>
 <g id="Ebene_x0020_1">
  <metadata id="CorelCorpID_0Corel-Layer"/>
  <use id="ISO_x0020_7010_x0020_E035_0" transform="scale(0.571429 0.571429)" x="-0" y="-0" width="7000" height="7000" xlink:href="#ISO_x0020_7010_x0020_E035"/>
 </g>
</svg>
