<?xml version="1.0" encoding="UTF-8"?>
<!DOCTYPE svg PUBLIC "-//W3C//DTD SVG 1.1//EN" "http://www.w3.org/Graphics/SVG/1.1/DTD/svg11.dtd">
<!-- Creator: Corel DESIGNER -->
<svg xmlns="http://www.w3.org/2000/svg" xml:space="preserve" width="40mm" height="40mm" version="1.1" style="shape-rendering:geometricPrecision; text-rendering:geometricPrecision; image-rendering:optimizeQuality; fill-rule:evenodd; clip-rule:evenodd"
viewBox="0 0 2000 2000"
 xmlns:xlink="http://www.w3.org/1999/xlink"
 xmlns:xodm="http://www.corel.com/coreldraw/odm/2003">
 <defs>
  <style type="text/css">
   <![CDATA[
    .fil0e {fill:#008E5E}
    .fil1 {fill:white}
   ]]>
  </style>
 </defs>
<symbol id="ISO_x0020_7010_x0020_E036" viewBox="-3750 4425 3500 3500">
 <rect class="fil0e" x="-3750" y="4425" width="3500" height="3500"/>
 <path class="fil1" d="M-1150.13 6033.37l350.25 0c0,60.2 -4.07,105.3 -51.3,152.53 -31.68,31.68 -75.47,51.29 -123.83,51.29 -78.93,0 -122.85,-51.29 -123.83,-51.29 -8.44,-8.44 -16.01,-17.73 -22.59,-27.74 -31.72,48.24 -85.95,79.03 -146.43,79.03 -78.93,0 -122.85,-51.29 -123.83,-51.29 -8.44,-8.44 -16.02,-17.73 -22.6,-27.74 -31.72,48.24 -85.93,79.03 -146.42,79.03 -78.93,0 -122.85,-51.29 -123.83,-51.29 -8.44,-8.44 -16.02,-17.73 -22.6,-27.74 -31.72,48.24 -85.93,79.03 -146.42,79.03 -78.93,0 -122.85,-51.29 -123.83,-51.29 -8.43,-8.44 -16.02,-17.73 -22.6,-27.74 -31.72,48.24 -85.93,79.03 -146.42,79.03 -78.93,0 -122.85,-51.29 -123.83,-51.29 -8.43,-8.44 -16.02,-17.73 -22.6,-27.74 -31.72,48.24 -85.93,79.03 -146.42,79.03 -78.94,0 -122.85,-51.29 -123.83,-51.29 -8.44,-8.44 -16.02,-17.73 -22.6,-27.74 -31.72,48.24 -85.93,79.03 -146.42,79.03 -78.93,0 -122.85,-51.29 -123.83,-51.29 -8.43,-8.44 -16.01,-17.73 -22.59,-27.74 -6.57,10.01 -14.16,19.3 -22.59,27.74 -0.98,0 -44.9,51.29 -123.83,51.29 -96.71,0 -175.12,-78.41 -175.12,-175.12l0 -28.69c683.32,0 1366.65,0 2049.98,0zm60.92 57.39c5.26,20.99 16.14,39.74 30.95,54.56l-0.06 0.05c64.87,64.78 175.49,33.47 197.52,-54.61l-228.42 0zm-2049.98 0c22.03,88.07 132.65,119.39 197.52,54.61l-0.05 -0.05c14.82,-14.81 25.7,-33.57 30.96,-54.56l-228.42 0zm292.85 0c5.25,20.98 16.14,39.74 30.95,54.56l-0.05 0.05c64.82,64.73 175.44,33.54 197.51,-54.61l-228.41 0zm292.86 0c5.25,20.99 16.14,39.74 30.95,54.56l-0.05 0.05c64.82,64.73 175.44,33.54 197.51,-54.61l-228.41 0zm292.85 0c5.26,20.99 16.14,39.74 30.95,54.56l-0.05 0.05c64.82,64.73 175.44,33.54 197.51,-54.61l-228.41 0zm292.86 0c5.25,20.99 16.13,39.74 30.95,54.56l-0.06 0.05c64.82,64.73 175.44,33.54 197.52,-54.61l-228.41 0zm292.86 0c5.25,20.99 16.13,39.74 30.95,54.56l-0.06 0.05c64.82,64.73 175.44,33.54 197.52,-54.61l-228.41 0zm292.86 0c5.25,20.99 16.13,39.74 30.95,54.56l-0.06 0.05c64.82,64.73 175.44,33.54 197.52,-54.61l-228.41 0zm-617.93 428.33c-111.18,0 -193.62,-29.12 -275.1,-57.9 -119.12,-42.07 -235.81,-83.28 -454.6,7.69 -73.55,30.57 -164.1,44.98 -249.15,41.37 -84.32,-3.57 -165.56,-25.11 -223.88,-66.39 -44.37,-31.4 -86.36,-65.41 -120.58,-98.19 -34.82,-33.34 -63.24,-66.78 -80.67,-97.13 -1.11,-1.94 -2.11,-3.92 -3.02,-5.92 -19.12,-35.09 -31.11,-73.3 -37.48,-112.24 -7.34,-44.88 -7.41,-90.91 -2.62,-134.06 3.54,-31.87 16.22,-64.17 35.07,-91.39 18.76,-27.1 44.4,-50.2 74.17,-64.19 50.94,-23.94 100.53,-28.3 150.13,-32.64 35.88,-3.15 71.83,-6.31 98.62,-17.74l-0.04 -0.1c66.49,-28.55 129.61,-69.33 192.69,-110.08 74.57,-48.18 149.11,-96.33 234.72,-129.91 96.8,-37.97 213.2,-59.46 330.96,-71.75 113.73,-11.87 229.98,-15.11 329.94,-16.53l2.03 0.01c99.89,1.41 215.99,4.66 329.6,16.52 117.75,12.29 234.16,33.78 330.95,71.75 85.62,33.59 160.15,81.74 234.72,129.91 63.08,40.75 126.21,81.53 192.69,110.08l2.66 1.22c26.48,10.52 61.22,13.58 95.91,16.62 49.61,4.34 99.19,8.7 150.13,32.64 29.77,13.99 55.41,37.09 74.17,64.19 18.85,27.23 31.54,59.52 35.07,91.39 4.79,43.15 4.72,89.18 -2.62,134.06 -6.72,41.09 -19.68,81.38 -40.72,118.04l0.22 0.12c-17.43,30.35 -45.85,63.78 -80.67,97.13 -34.22,32.78 -76.21,66.79 -120.58,98.19 -58.32,41.28 -139.57,62.82 -223.88,66.39 -85.06,3.61 -175.61,-10.8 -249.15,-41.37 -218.8,-90.97 -335.48,-49.76 -454.6,-7.69 -81.47,28.77 -163.92,57.9 -275.1,57.9zm-227.47 -192.97c69.65,24.6 140.13,49.49 227.47,49.49 87.34,0 157.82,-24.9 227.46,-49.49 145.29,-51.32 287.61,-101.58 557.15,10.49 54.84,22.79 123.41,33.48 188.63,30.72 58.66,-2.49 112.44,-15.52 147.09,-40.05 37.57,-26.59 73.68,-55.92 103.77,-84.74 25.2,-24.14 44.85,-46.74 55.44,-65.19l0.22 0.12 0.07 -0.12c11.74,-20.45 19.24,-44.48 23.41,-69.96 5.07,-31.02 5.01,-63.89 1.5,-95.39 -0.93,-8.43 -4.71,-17.58 -10.41,-25.82 -5.11,-7.39 -11.07,-13.2 -17,-15.99 -26.81,-12.59 -64.36,-15.89 -101.93,-19.18 -45.78,-4.02 -91.62,-8.05 -138.62,-27.39l-4.23 -1.65c-76.54,-32.87 -145.01,-77.1 -213.43,-121.3 -68.65,-44.36 -137.28,-88.7 -209.49,-117.03 -83.67,-32.82 -187.35,-51.72 -293.41,-62.78 -109.78,-11.45 -220.81,-14.59 -316.21,-15.95 -95.39,1.36 -206.45,4.5 -316.2,15.95 -106.08,11.07 -209.75,29.97 -293.42,62.78 -72.21,28.33 -140.84,72.67 -209.49,117.03 -68.42,44.2 -136.89,88.43 -213.43,121.3l-0.05 -0.11 -0.24 0.11c-48.38,20.77 -95.51,24.91 -142.57,29.04 -37.58,3.29 -75.13,6.59 -101.93,19.18 -5.93,2.78 -11.89,8.6 -17,15.99 -5.7,8.24 -9.48,17.39 -10.41,25.82 -3.51,31.5 -3.57,64.37 1.51,95.39 3.88,23.74 10.66,46.22 21.07,65.73l2.62 4.23c10.59,18.45 30.24,41.05 55.44,65.19 30.09,28.82 66.2,58.15 103.77,84.74 34.65,24.52 88.43,37.56 147.09,40.05 65.22,2.77 133.8,-7.93 188.63,-30.72 269.55,-112.07 411.86,-61.82 557.15,-10.49z"/>
 <path class="fil1" d="M-3447.26 6529.75c45.4,-1.11 80.19,1.09 111.7,6.93 32.71,6.07 60.58,15.57 91.6,28.93 70.09,30.21 146.48,52.89 226.9,58.78 79.78,5.84 164.12,-4.69 251.02,-40.61 260.52,-107.71 394.63,-60.32 534.41,-10.93 72.08,25.46 145.88,51.53 240.32,52.13 95.59,0.6 169.86,-25.72 242.67,-51.53 138.78,-49.18 272.84,-96.69 531.71,10.33 86.91,35.93 171.24,46.45 251.02,40.61 80.42,-5.89 156.81,-28.57 226.9,-58.78 31.14,-13.41 56.46,-22.27 85.67,-27.93 27.98,-5.41 58.47,-7.4 100.58,-7.23l-0.36 91.47c-35.34,-0.14 -60.55,1.45 -83.01,5.8 -21.24,4.11 -41.18,11.22 -66.67,22.19 -78.4,33.78 -164.59,59.21 -256.67,65.95 -92.72,6.79 -190.87,-5.51 -292.27,-47.43 -226.41,-93.6 -344.35,-51.81 -466.43,-8.54 -79.98,28.34 -161.57,57.26 -273.51,56.56 -110.64,-0.7 -191.48,-29.27 -270.45,-57.16 -123.01,-43.47 -241.03,-85.16 -469.14,9.15 -101.39,41.92 -199.55,54.22 -292.27,47.43 -92.08,-6.74 -178.26,-32.17 -256.67,-65.95 -25.61,-11.03 -47.73,-18.71 -71.88,-23.19 -25.34,-4.7 -54.3,-6.44 -93.04,-5.49l-2.15 -91.47zm0 185.85c45.4,-1.11 80.19,1.09 111.7,6.93 32.71,6.07 60.58,15.57 91.6,28.93 70.09,30.2 146.48,52.89 226.9,58.77 79.78,5.85 164.12,-4.68 251.02,-40.6 260.52,-107.71 394.63,-60.32 534.41,-10.94 72.08,25.46 145.88,51.53 240.32,52.13 95.59,0.61 169.86,-25.72 242.67,-51.52 138.78,-49.19 272.84,-96.7 531.71,10.33 86.91,35.93 171.24,46.45 251.02,40.6 80.42,-5.88 156.81,-28.57 226.9,-58.77 31.14,-13.41 56.46,-22.28 85.67,-27.94 27.98,-5.41 58.47,-7.41 100.58,-7.23l-0.36 91.47c-35.34,-0.15 -60.55,1.44 -83.01,5.79 -21.24,4.11 -41.18,11.22 -66.67,22.19 -78.4,33.78 -164.59,59.21 -256.67,65.95 -92.72,6.79 -190.87,-5.51 -292.27,-47.43 -226.41,-93.6 -344.35,-51.81 -466.43,-8.54 -79.98,28.35 -161.57,57.26 -273.51,56.55 -110.64,-0.69 -191.48,-29.27 -270.45,-57.16 -123.01,-43.46 -241.03,-85.16 -469.14,9.15 -101.39,41.91 -199.55,54.22 -292.27,47.43 -92.08,-6.74 -178.26,-32.16 -256.67,-65.95 -25.61,-11.03 -47.73,-18.72 -71.88,-23.19 -25.34,-4.7 -54.3,-6.43 -93.04,-5.49l-2.15 -91.47z"/>
</symbol>
 <g id="Ebene_x0020_1">
  <metadata id="CorelCorpID_0Corel-Layer"/>
  <use id="ISO_x0020_7010_x0020_E036_0" transform="scale(0.571429 0.571429)" x="-0" y="-0" width="3500" height="3500" xlink:href="#ISO_x0020_7010_x0020_E036"/>
 </g>
</svg>
