<?xml version="1.0" encoding="UTF-8"?>
<!DOCTYPE svg PUBLIC "-//W3C//DTD SVG 1.1//EN" "http://www.w3.org/Graphics/SVG/1.1/DTD/svg11.dtd">
<!-- Creator: Corel DESIGNER -->
<svg xmlns="http://www.w3.org/2000/svg" xml:space="preserve" width="40mm" height="40mm" version="1.1" style="shape-rendering:geometricPrecision; text-rendering:geometricPrecision; image-rendering:optimizeQuality; fill-rule:evenodd; clip-rule:evenodd"
viewBox="0 0 1000 1000"
 xmlns:xlink="http://www.w3.org/1999/xlink"
 xmlns:xodm="http://www.corel.com/coreldraw/odm/2003">
 <defs>
  <style type="text/css">
   <![CDATA[
    .fil0e {fill:#008E5E}
    .fil1 {fill:white}
   ]]>
  </style>
 </defs>
<symbol id="ISO_x0020_7010_x0020_E037" viewBox="1125 654.16 1750 1750">
 <rect class="fil0e" x="1125" y="654.16" width="1750" height="1750"/>
 <path class="fil1" d="M1283.9 1727.85c22.61,-0.55 39.92,0.54 55.61,3.45 16.28,3.02 30.16,7.75 45.61,14.4 34.89,15.04 72.93,26.33 112.97,29.26 39.72,2.91 81.71,-2.33 124.97,-20.22 129.71,-53.62 196.48,-30.03 266.07,-5.45 35.89,12.68 72.62,25.66 119.65,25.96 47.59,0.3 84.57,-12.81 120.82,-25.65 69.1,-24.49 135.84,-48.14 264.73,5.14 43.27,17.89 85.25,23.13 124.97,20.22 40.04,-2.93 78.07,-14.23 112.97,-29.26 15.51,-6.68 28.11,-11.09 42.66,-13.91 13.93,-2.69 29.11,-3.69 50.08,-3.6l-0.18 45.54c-17.6,-0.08 -30.14,0.72 -41.33,2.88 -10.57,2.05 -20.5,5.59 -33.19,11.05 -39.03,16.82 -81.94,29.48 -127.79,32.84 -46.16,3.38 -95.03,-2.74 -145.51,-23.61 -112.72,-46.6 -171.44,-25.79 -232.22,-4.25 -39.82,14.11 -80.44,28.51 -136.18,28.16 -55.09,-0.35 -95.33,-14.57 -134.65,-28.46 -61.25,-21.64 -120.01,-42.4 -233.57,4.56 -50.48,20.87 -99.35,26.99 -145.52,23.61 -45.84,-3.36 -88.75,-16.02 -127.78,-32.84 -12.75,-5.49 -23.77,-9.32 -35.79,-11.55 -12.62,-2.34 -27.04,-3.2 -46.32,-2.74l-1.07 -45.54zm0 92.53c22.61,-0.55 39.92,0.54 55.61,3.45 16.28,3.02 30.16,7.75 45.61,14.4 34.89,15.04 72.93,26.33 112.97,29.26 39.72,2.91 81.71,-2.33 124.97,-20.22 129.71,-53.62 196.48,-30.03 266.07,-5.45 35.89,12.68 72.62,25.66 119.65,25.96 47.59,0.3 84.57,-12.81 120.82,-25.65 69.1,-24.49 135.84,-48.14 264.73,5.14 43.27,17.89 85.25,23.13 124.97,20.22 40.04,-2.93 78.07,-14.23 112.97,-29.26 15.51,-6.68 28.11,-11.09 42.66,-13.91 13.93,-2.7 29.11,-3.69 50.08,-3.6l-0.18 45.54c-17.6,-0.08 -30.14,0.72 -41.33,2.88 -10.57,2.05 -20.5,5.59 -33.19,11.05 -39.03,16.82 -81.94,29.48 -127.79,32.84 -46.16,3.38 -95.03,-2.74 -145.51,-23.61 -112.72,-46.6 -171.44,-25.79 -232.22,-4.25 -39.82,14.11 -80.44,28.51 -136.18,28.15 -55.09,-0.35 -95.33,-14.57 -134.65,-28.46 -61.25,-21.64 -120.01,-42.4 -233.57,4.56 -50.48,20.87 -99.35,26.99 -145.52,23.61 -45.84,-3.36 -88.75,-16.02 -127.78,-32.84 -12.75,-5.49 -23.77,-9.32 -35.79,-11.55 -12.62,-2.34 -27.04,-3.2 -46.32,-2.73l-1.07 -45.54z"/>
 <path class="fil1" d="M1686.07 1218.77c0,-37.23 -30.19,-67.42 -67.42,-67.42 -37.23,0 -67.41,30.18 -67.41,67.42 0,37.23 30.18,67.42 67.41,67.42 37.23,0 67.42,-30.19 67.42,-67.42zm28.35 290.11c0,-37.23 -30.18,-67.42 -67.42,-67.42 -37.24,0 -67.42,30.18 -67.42,67.42 0,37.23 30.18,67.42 67.42,67.42 37.23,0 67.42,-30.18 67.42,-67.42zm918 186.43l94.07 -231.13 -194.43 -1.32c-32.77,-1.37 -55.01,-112.09 -155.03,-141.61l-182.43 -53.84c-16.3,-4.81 -33.37,2.81 -40.67,18.16 -40.43,85.01 -89.68,137.13 -144.34,146.41l-119.85 20.35 -69.92 159.68 101.34 73.54c8,8.46 8.43,19.27 6.27,28.2 208.12,52.62 231.43,-106.36 466.88,-9.02 82.43,34.08 161.41,23.62 238.09,-9.42zm-765.56 -240.39c3.8,-8.67 -0.42,-25.16 -7.1,-31.44l-111.79 -105.04c-10.98,-10.32 -24.14,-15.25 -39.19,-14.69l-145.58 5.41c-20.9,0.77 -38.36,12.43 -47.22,31.38l-65.84 141.89c-4.69,10.11 -5.42,21.06 2.69,31.69l110.88 145.39c25.81,33.84 74.77,2.41 49.48,-33.05l-85.63 -112.28c-2.81,-3.68 -2.42,-9.9 -0.72,-13.78l35.12 -79.63 3.43 81.75 -21.63 0 77.44 101.56 102.08 -15.36 51.14 -116.81 -57.12 9.7 -3.81 -90.9 78.63 75.19c2.75,2.63 3.82,8.7 2.14,12.2l-51.79 116.49c-18.57,41.76 35.47,63.38 52.55,24.38l71.84 -164.06zm-447.97 47.61l-130.8 0 -0.01 175.21c106.44,-1.4 101.62,42.83 228.53,47.96l35.23 -48.84 -132.94 -174.33zm759.04 -46.8l237.19 0c-12.81,-45.48 -64.24,-97.34 -119.07,-97.34l-85.52 0 -32.6 97.34z"/>
</symbol>
 <g id="Ebene_x0020_1">
  <metadata id="CorelCorpID_0Corel-Layer"/>
  <use id="ISO_x0020_7010_x0020_E037_0" transform="scale(0.571429 0.571429)" x="-0" y="-0" width="1750" height="1750" xlink:href="#ISO_x0020_7010_x0020_E037"/>
 </g>
</svg>
