<?xml version="1.0" encoding="UTF-8"?>
<!DOCTYPE svg PUBLIC "-//W3C//DTD SVG 1.1//EN" "http://www.w3.org/Graphics/SVG/1.1/DTD/svg11.dtd">
<!-- Creator: Corel DESIGNER -->
<svg xmlns="http://www.w3.org/2000/svg" xml:space="preserve" width="40mm" height="40mm" version="1.1" style="shape-rendering:geometricPrecision; text-rendering:geometricPrecision; image-rendering:optimizeQuality; fill-rule:evenodd; clip-rule:evenodd"
viewBox="0 0 1000 1000"
 xmlns:xlink="http://www.w3.org/1999/xlink"
 xmlns:xodm="http://www.corel.com/coreldraw/odm/2003">
 <defs>
  <style type="text/css">
   <![CDATA[
    .fil0e {fill:#008E5E}
    .fil1 {fill:white}
   ]]>
  </style>
 </defs>
<symbol id="ISO_x0020_7010_x0020_E040" viewBox="1125 -904.17 1750 1750">
 <rect class="fil0e" x="1125" y="-904.17" width="1750" height="1750"/>
 <path class="fil1" d="M2299.95 -19.69c0,-170.89 -138.54,-309.43 -309.43,-309.43 -170.89,0 -309.42,138.54 -309.42,309.43 0,170.89 138.54,309.43 309.42,309.43 170.89,0 309.43,-138.53 309.43,-309.43zm-904.95 -9.49c-51.78,71.38 -82.32,159.16 -82.32,254.09 0,239.27 193.97,433.24 433.24,433.24 94.92,0 182.7,-30.54 254.08,-82.32 71.38,51.78 159.16,82.32 254.08,82.32 239.27,0 433.24,-193.97 433.24,-433.24 0,-94.93 -30.54,-182.71 -82.32,-254.08 51.78,-71.37 82.32,-159.16 82.32,-254.09 0,-239.27 -193.97,-433.24 -433.24,-433.24 -94.93,0 -182.7,30.54 -254.08,82.32 -71.38,-51.78 -159.16,-82.32 -254.09,-82.32 -239.27,0 -433.24,193.97 -433.24,433.24 0,94.93 30.54,182.69 82.32,254.07zm465.54 586.7c-35.93,12.38 -74.49,19.1 -114.62,19.1 -194.24,0 -351.71,-157.47 -351.71,-351.71 0,-40.12 6.73,-78.68 19.11,-114.6 49.86,222.33 224.88,397.35 447.22,447.21zm713.38 -479.11c20.47,44.6 31.88,94.22 31.88,146.5 0,194.24 -157.47,351.71 -351.71,351.71 -42.94,0 -84.09,-7.7 -122.13,-21.79 227.32,-55.77 402.99,-242.95 441.97,-476.42zm-1157.92 -239.55c-14.09,-38.04 -21.79,-79.18 -21.79,-122.12 0,-194.25 157.47,-351.71 351.71,-351.71 52.28,0 101.89,11.41 146.49,31.88 -233.46,38.98 -420.63,214.63 -476.41,441.95zm686.39 -439.52c45.93,-22 97.37,-34.31 151.7,-34.31 194.24,0 351.71,157.47 351.71,351.71 0,54.32 -12.32,105.76 -34.31,151.69 -45.37,-236.98 -232.11,-423.73 -469.1,-469.09z"/>
</symbol>
 <g id="Ebene_x0020_1">
  <metadata id="CorelCorpID_0Corel-Layer"/>
  <use id="ISO_x0020_7010_x0020_E040_0" transform="scale(0.571429 0.571429)" x="-0" y="-0" width="1750" height="1750" xlink:href="#ISO_x0020_7010_x0020_E040"/>
 </g>
</svg>
