<?xml version="1.0" encoding="UTF-8"?>
<!DOCTYPE svg PUBLIC "-//W3C//DTD SVG 1.1//EN" "http://www.w3.org/Graphics/SVG/1.1/DTD/svg11.dtd">
<!-- Creator: Corel DESIGNER -->
<svg xmlns="http://www.w3.org/2000/svg" xml:space="preserve" width="40mm" height="40mm" version="1.1" style="shape-rendering:geometricPrecision; text-rendering:geometricPrecision; image-rendering:optimizeQuality; fill-rule:evenodd; clip-rule:evenodd"
viewBox="0 0 2000 2000"
 xmlns:xlink="http://www.w3.org/1999/xlink"
 xmlns:xodm="http://www.corel.com/coreldraw/odm/2003">
 <defs>
  <style type="text/css">
   <![CDATA[
    .fil0e {fill:#008E5E}
    .fil1 {fill:white}
   ]]>
  </style>
 </defs>
<symbol id="ISO_x0020_7010_x0020_E042" viewBox="-3750 -1808.34 3500 3500">
 <rect class="fil0e" x="-3750" y="-1808.33" width="3500" height="3500"/>
 <path class="fil1" d="M-1405.97 -677.87c-10.14,-12.12 -8.54,-30.18 3.58,-40.31 12.12,-10.13 30.17,-8.53 40.31,3.59l177.88 212.03c10.13,12.12 8.53,30.17 -3.59,40.31 -12.12,10.13 -30.17,8.54 -40.31,-3.58l-177.88 -212.03zm99.49 -132.97c-6.99,-14.16 -1.17,-31.32 12.99,-38.29 14.16,-6.99 31.31,-1.17 38.3,12.99l122.67 248.09c6.98,14.16 1.17,31.31 -12.99,38.3 -14.16,6.98 -31.31,1.16 -38.29,-13l-122.67 -248.08zm142.84 -81.42c-3.46,-15.39 6.21,-30.69 21.61,-34.15 15.39,-3.46 30.68,6.22 34.15,21.61l61.61 269.81c3.46,15.39 -6.22,30.68 -21.61,34.15 -15.39,3.46 -30.68,-6.22 -34.15,-21.61l-61.61 -269.81zm155.61 -23.88c0,-15.76 12.78,-28.55 28.55,-28.55 15.77,0 28.55,12.78 28.55,28.55l0.01 276.76c0,15.76 -12.79,28.54 -28.55,28.54 -15.76,0 -28.55,-12.78 -28.55,-28.54l-0 -276.76zm411.16 201.54c10.13,-12.12 28.18,-13.72 40.3,-3.59 12.12,10.13 13.72,28.19 3.59,40.31l-177.88 212.03c-10.13,12.12 -28.19,13.71 -40.31,3.58 -12.12,-10.13 -13.71,-28.19 -3.58,-40.31l177.88 -212.03zm-106.89 -121.55c6.99,-14.16 24.13,-19.97 38.3,-12.99 14.16,6.98 19.97,24.13 12.99,38.29l-122.66 248.08c-6.99,14.16 -24.13,19.98 -38.3,13 -14.16,-6.99 -19.98,-24.14 -12.99,-38.3l122.66 -248.09zm-147.32 -68.65c3.46,-15.39 18.76,-25.07 34.15,-21.61 15.39,3.47 25.07,18.76 21.61,34.15l-61.6 269.81c-3.46,15.39 -18.75,25.07 -34.15,21.61 -15.39,-3.47 -25.07,-18.76 -21.61,-34.15l61.6 -269.81zm28.69 497.52c0,-86.76 -70.33,-157.09 -157.09,-157.09 -86.76,0 -157.09,70.33 -157.09,157.09 0,66.42 41.22,123.21 99.47,146.19l0 115.75 115.23 0 0 -115.75c58.26,-22.98 99.48,-79.76 99.48,-146.19zm-249.6 364.97l185.01 0 0 -55.93 -185.01 0 0 55.93z"/>
 <path class="fil1" d="M-1025.16 45.04c-1.41,-60.16 89.94,-62.3 91.37,-2.16 2.36,99.36 -13.42,232.77 -132.44,267.78 -205.77,60.53 -308.88,-204.34 -383.22,-264.31 -66.41,-53.56 -147.62,-45.45 -228.52,-49.61 -60.19,-3.1 -55.44,-94.47 4.65,-91.37 101.04,5.21 189.73,-4.09 281.19,69.67 88.18,71.12 167.62,286.81 300.11,247.83 65.78,-19.35 68.15,-124.59 66.87,-177.83z"/>
 <path class="fil1" d="M-2038.62 -46.88c0,-238.57 -193.41,-431.97 -431.98,-431.97 -238.57,0 -431.97,193.4 -431.97,431.97 0,238.57 193.4,431.98 431.97,431.98 238.57,0 431.98,-193.41 431.98,-431.98zm-1263.36 -13.25c-72.3,99.65 -114.93,222.21 -114.93,354.73 0,334.03 270.8,604.83 604.82,604.83 132.53,0 255.07,-42.64 354.72,-114.92 99.64,72.28 222.19,114.92 354.72,114.92 334.03,0 604.83,-270.79 604.83,-604.83 0,-132.52 -42.63,-255.07 -114.92,-354.71 72.29,-99.65 114.92,-222.2 114.92,-354.72 0,-334.03 -270.79,-604.83 -604.83,-604.83 -132.53,0 -255.07,42.64 -354.71,114.93 -99.64,-72.3 -222.2,-114.93 -354.73,-114.93 -334.03,0 -604.82,270.8 -604.82,604.83 0,132.52 42.64,255.06 114.93,354.7zm649.91 819.07c-50.16,17.29 -103.99,26.67 -160.02,26.67 -271.18,0 -491.01,-219.84 -491.01,-491.01 0,-56.02 9.4,-109.84 26.68,-159.99 69.61,310.39 313.95,554.73 624.35,624.33zm995.93 -668.86c28.57,62.26 44.51,131.53 44.51,204.53 0,271.17 -219.84,491.01 -491.01,491.01 -59.95,0 -117.4,-10.75 -170.51,-30.42 317.35,-77.86 562.6,-339.18 617.01,-665.12zm-1616.53 -334.43c-19.66,-53.11 -30.42,-110.53 -30.42,-170.48 0,-271.18 219.83,-491.01 491.01,-491.01 72.99,0 142.26,15.93 204.53,44.5 -325.93,54.41 -587.24,299.64 -665.11,616.99zm958.25 -613.6c64.11,-30.71 135.94,-47.9 211.78,-47.9 271.18,0 491.01,219.84 491.01,491.01 0,75.83 -17.2,147.65 -47.9,211.77 -63.34,-330.84 -324.04,-591.55 -654.89,-654.88z"/>
</symbol>
 <g id="Ebene_x0020_1">
  <metadata id="CorelCorpID_0Corel-Layer"/>
  <use id="ISO_x0020_7010_x0020_E042_0" transform="scale(0.571429 0.571429)" x="-0" y="-0" width="3500" height="3500" xlink:href="#ISO_x0020_7010_x0020_E042"/>
 </g>
</svg>
