<?xml version="1.0" encoding="UTF-8"?>
<!DOCTYPE svg PUBLIC "-//W3C//DTD SVG 1.1//EN" "http://www.w3.org/Graphics/SVG/1.1/DTD/svg11.dtd">
<!-- Creator: Corel DESIGNER -->
<svg xmlns="http://www.w3.org/2000/svg" xml:space="preserve" width="40mm" height="40mm" version="1.1" style="shape-rendering:geometricPrecision; text-rendering:geometricPrecision; image-rendering:optimizeQuality; fill-rule:evenodd; clip-rule:evenodd"
viewBox="0 0 2000 2000"
 xmlns:xlink="http://www.w3.org/1999/xlink"
 xmlns:xodm="http://www.corel.com/coreldraw/odm/2003">
 <defs>
  <style type="text/css">
   <![CDATA[
    .fil0e {fill:#008E5E}
    .fil1 {fill:white}
   ]]>
  </style>
 </defs>
<symbol id="ISO_x0020_7010_x0020_E047" viewBox="-3750 4425 3500 3500">
 <rect class="fil0e" x="-3750.01" y="4424.99" width="3500" height="3500"/>
 <path class="fil1" d="M-2703.76 6728.23l99.54 414.78c48.68,77.17 149.67,117.36 263.81,126.27 131.1,10.23 282.74,-20.6 394.34,-88.43 83.71,-50.89 142.15,-121.94 146.36,-208.28l-104.68 -436.18 -320.45 -233.32 -53.46 -177.16 329.55 269.72 335.35 -59.86 0 -159.86 -313.05 34.66 -677.21 -713.81 43.31 -259.63 -112.94 0 -127.39 328.1 293.51 387.03 9.1 428.32 -205.68 347.66zm129.24 538.51l48.96 203.99c69.09,265.61 867.66,103.27 799.37,-191.85l-42.54 -177.28c-133.31,228.84 -583.95,310.15 -805.78,165.14z"/>
 <polygon class="fil1" points="-1598.34,4750.89 -2114.68,5271.32 -2216.26,5170.53 -2242.73,5566.15 -1846.75,5537.15 -1950.16,5434.56 -1433.8,4914.11 "/>
 <polygon class="fil1" points="-1840.88,5952.37 -1324.54,5431.93 -1222.95,5532.72 -1196.49,5137.11 -1592.47,5166.1 -1489.06,5268.7 -2005.41,5789.14 "/>
</symbol>
 <g id="Ebene_x0020_1">
  <metadata id="CorelCorpID_0Corel-Layer"/>
  <use id="ISO_x0020_7010_x0020_E047_0" transform="scale(0.571429 0.571429)" x="-0" y="-0" width="3500" height="3500" xlink:href="#ISO_x0020_7010_x0020_E047"/>
 </g>
</svg>
