<?xml version="1.0" encoding="UTF-8"?>
<!DOCTYPE svg PUBLIC "-//W3C//DTD SVG 1.1//EN" "http://www.w3.org/Graphics/SVG/1.1/DTD/svg11.dtd">
<!-- Creator: Corel DESIGNER -->
<svg xmlns="http://www.w3.org/2000/svg" xml:space="preserve" width="40mm" height="40mm" version="1.1" style="shape-rendering:geometricPrecision; text-rendering:geometricPrecision; image-rendering:optimizeQuality; fill-rule:evenodd; clip-rule:evenodd"
viewBox="0 0 1000 1000"
 xmlns:xlink="http://www.w3.org/1999/xlink"
 xmlns:xodm="http://www.corel.com/coreldraw/odm/2003">
 <defs>
  <style type="text/css">
   <![CDATA[
    .fil0e {fill:#008E5E}
    .fil1 {fill:white}
   ]]>
  </style>
 </defs>
<symbol id="ISO_x0020_7010_x0020_E051" viewBox="1125 -904.17 1750 1750">
 <rect class="fil0e" x="1125" y="-904.17" width="1750" height="1750"/>
 <path class="fil1" d="M2137.03 -326.37c-21.09,-44.75 -58.32,-76.72 -101.46,-92.22 -3.01,-1.08 -6.04,-2.08 -9.1,-3l17.66 -49.15c3.05,0.95 6.08,1.97 9.08,3.05 55.71,20.02 103.78,61.29 131.01,119.07 26.79,56.85 28.41,119.1 9.39,174.15l-49.11 -17.65c14.51,-42.48 13.17,-90.43 -7.48,-134.25zm-249.22 290.61c-51.89,-21.09 -96.31,-60.98 -122.07,-115.64 -26.9,-57.09 -29.13,-120.41 -7.46,-179.52l49.11 17.65c-17.17,45.55 -15.21,95.58 5.55,139.62 19.62,41.63 53.21,72.2 92.53,88.73l-17.66 49.15zm398.84 -361.12c-40.56,-86.07 -112.16,-147.55 -195.14,-177.37 -3,-1.08 -6.03,-2.12 -9.06,-3.11l17.66 -49.12c3.03,1.01 6.05,2.05 9.05,3.13 95.55,34.34 178,105.13 224.7,204.22 46.26,98.17 48.76,205.71 15.43,300.6l-49.1 -17.64c28.82,-82.32 26.6,-175.57 -13.53,-260.71zm-454.81 516.87c-91.72,-35.47 -170.49,-104.89 -215.72,-200.87 -45.57,-96.7 -50.14,-205.65 -13.5,-305.97l49.11 17.65c-31.97,87.19 -28.03,182 11.6,266.08 39.09,82.95 107.02,143.06 186.17,174l-17.65 49.12zm614.04 -591.91c-61.28,-130.04 -169.47,-222.93 -294.84,-267.99 -3.01,-1.08 -6.02,-2.12 -9.05,-3.15l17.65 -49.11c3.02,1.03 6.04,2.08 9.05,3.16 137.94,49.57 256.98,151.77 324.4,294.84 66.98,142.14 70.42,297.89 21.84,435.18l-49.1 -17.65c44.05,-124.72 40.9,-266.18 -19.95,-395.29zm-673.59 757.6c-134.12,-50.73 -249.46,-151.56 -315.41,-291.52 -65.24,-138.44 -72.62,-296.81 -19.92,-440.55l49.1 17.65c-47.97,130.82 -41.37,274.63 18.02,400.66 59.82,126.92 164.32,218.45 285.86,264.66l-17.65 49.11zm220.48 -886.2c1.36,-9.96 10.54,-16.93 20.5,-15.57 9.96,1.36 16.94,10.54 15.58,20.5l-42.77 318.27 98.56 61.3c8.55,5.29 11.19,16.51 5.9,25.06 -5.29,8.55 -16.51,11.19 -25.06,5.9l-56.15 -34.92 71.4 151.51 4.69 -34.9c1.36,-9.96 10.54,-16.93 20.5,-15.57 9.96,1.36 16.93,10.54 15.57,20.5l-12.18 90.62 37.91 80.44 111.49 -52.54 57.46 121.94 -61.63 -6.03c-6.24,-0.62 -8.23,4.22 -8.8,9.28l-3.46 -7.35 -130 61.26 -8.26 3.9 29.95 63.55c-6.78,-0.97 -13.89,-0.04 -20.5,3.07l-40.92 19.28 -69.87 -148.25 111.49 -52.54 -37.91 -80.44 -77.65 -48.29c-8.55,-5.29 -11.19,-16.52 -5.9,-25.07 5.29,-8.55 16.51,-11.19 25.06,-5.9l29.9 18.6 -71.4 -151.51 -8.81 65.53c-1.36,9.96 -10.54,16.93 -20.5,15.57 -9.96,-1.36 -16.93,-10.54 -15.57,-20.5l15.46 -115.03 -272.69 -169.61c-8.55,-5.29 -11.19,-16.51 -5.89,-25.06 5.29,-8.55 16.51,-11.19 25.06,-5.9l230.28 143.23 -122.21 -259.34c-4.3,-9.12 -0.39,-20.01 8.73,-24.31 9.12,-4.29 20.01,-0.38 24.31,8.74l122.21 259.34 36.12 -268.78zm454.1 1019.88l61.97 131.51 -256.03 120.66 -76.51 -162.36 25.3 -11.93c18.1,-8.53 25.92,-30.29 17.39,-48.39 -3.35,-7.1 -8.74,-12.62 -15.14,-16.18 14.88,-9.91 20.42,-29.52 12.76,-45.78 -3.37,-7.15 -8.81,-12.7 -15.27,-16.26 13.06,-10.46 17.35,-28.69 10.18,-43.89 -5.87,-12.47 -18.34,-20.41 -31.94,-20.81l116.08 -54.7 -21.95 -46.59c11.97,5.95 21.04,7.01 34.26,7.38 13.64,0.37 25.51,0.7 37.27,25.72l-0.03 0.01 73.8 156.59c5.07,10.77 12.76,18.14 21.62,22.5 2.03,1 4.11,1.83 6.23,2.51zm-213.33 -257.13l-105.22 49.59 37.83 80.27 105.22 -49.59 -37.83 -80.27zm-113.41 121.63l-48.69 22.95c-10.28,4.84 -14.75,17.27 -9.9,27.55 4.85,10.3 17.24,14.76 27.55,9.9l48.7 -22.94c10.32,-4.87 14.76,-17.23 9.9,-27.56 -4.86,-10.31 -17.25,-14.76 -27.55,-9.9zm57.4 161.66l-33.46 15.77c-10.14,4.93 -14.48,17.22 -9.66,27.44 4.84,10.29 17.27,14.75 27.55,9.9l32.99 -15.54c10.28,-4.85 14.74,-17.27 9.9,-27.56 -4.82,-10.21 -17.04,-14.7 -27.31,-10.01zm9.95 -84.55c10.28,-4.84 14.75,-17.27 9.9,-27.55 -4.87,-10.33 -17.23,-14.77 -27.55,-9.9l-85.77 40.42c-10.32,4.87 -14.76,17.23 -9.9,27.55 4.76,10.1 16.86,14.62 27.07,10.12l86.25 -40.64zm-8.36 21.25l-69.93 32.96c-6.35,4.31 -10.27,16.47 -6.13,25.25 4.86,10.3 17.24,14.76 27.55,9.9 20.65,-9.73 41.31,-19.47 61.96,-29.2 10.32,-4.87 14.76,-17.23 9.9,-27.55 -4.14,-8.78 -16.16,-14.55 -23.35,-11.36zm227.65 -215.66l-145.99 -14.3c-0.65,12.1 1.6,20.43 5.43,26.35 9.05,14 26.83,17.38 42.2,17.81 18.77,0.51 35.11,0.96 50.95,34.69l73.82 156.58c14.47,30.71 58.47,19.9 64.91,-10.54 5.79,-27.33 28.62,-54.37 50.43,-70.06 24.63,-17.71 40,-64.19 33.59,-92.43 -10.92,-48.12 -52.57,-82.96 -98.27,-54.91 -9.1,5.59 -0.23,21.34 -6.92,41.02 -10.84,31.89 -26.63,13.81 -37.43,-3.15 -8.22,-12.9 -18.93,-29.69 -32.74,-31.05z"/>
</symbol>
 <g id="Ebene_x0020_1">
  <metadata id="CorelCorpID_0Corel-Layer"/>
  <use id="ISO_x0020_7010_x0020_E051_0" transform="scale(0.571429 0.571429)" x="-0" y="-0" width="1750" height="1750" xlink:href="#ISO_x0020_7010_x0020_E051"/>
 </g>
</svg>
