<?xml version="1.0" encoding="UTF-8"?>
<!DOCTYPE svg PUBLIC "-//W3C//DTD SVG 1.1//EN" "http://www.w3.org/Graphics/SVG/1.1/DTD/svg11.dtd">
<!-- Creator: Corel DESIGNER -->
<svg xmlns="http://www.w3.org/2000/svg" xml:space="preserve" width="40mm" height="40mm" version="1.1" style="shape-rendering:geometricPrecision; text-rendering:geometricPrecision; image-rendering:optimizeQuality; fill-rule:evenodd; clip-rule:evenodd"
viewBox="0 0 2000 2000"
 xmlns:xlink="http://www.w3.org/1999/xlink"
 xmlns:xodm="http://www.corel.com/coreldraw/odm/2003">
 <defs>
  <style type="text/css">
   <![CDATA[
    .fil0e {fill:#008E5E}
    .fil1 {fill:white}
   ]]>
  </style>
 </defs>
<symbol id="ISO_x0020_7010_x0020_E058" viewBox="-3750 4425 3500 3500">
 <rect class="fil0e" x="-3750" y="4425" width="3500" height="3500"/>
 <path class="fil1" d="M-1260.72 4742.41l-1857.01 0 0 2282.7 1300.17 577.85 0 -280.73 951.28 0 -394.44 -297.12 0 -2282.7zm-609.03 350.61l-1195.8 -273.57 0 2171.76 1195.8 531.47 0 -2429.65zm-659.97 1819.28l0 -214.19c247.22,-5.45 439.34,-96.64 602.9,-232.24l0 -520.05c-167.37,142.23 -357.56,241.53 -602.89,237.02l0 -237.02 -455.62 483.23 455.62 483.24z"/>
</symbol>
 <g id="Ebene_x0020_1">
  <metadata id="CorelCorpID_0Corel-Layer"/>
  <use id="ISO_x0020_7010_x0020_E058_0" transform="scale(0.571429 0.571429)" x="-0" y="-0" width="3500" height="3500" xlink:href="#ISO_x0020_7010_x0020_E058"/>
 </g>
</svg>
