<?xml version="1.0" encoding="UTF-8"?>
<!DOCTYPE svg PUBLIC "-//W3C//DTD SVG 1.1//EN" "http://www.w3.org/Graphics/SVG/1.1/DTD/svg11.dtd">
<!-- Creator: Corel DESIGNER -->
<svg xmlns="http://www.w3.org/2000/svg" xml:space="preserve" width="40mm" height="40mm" version="1.1" style="shape-rendering:geometricPrecision; text-rendering:geometricPrecision; image-rendering:optimizeQuality; fill-rule:evenodd; clip-rule:evenodd"
viewBox="0 0 4000 4000"
 xmlns:xlink="http://www.w3.org/1999/xlink"
 xmlns:xodm="http://www.corel.com/coreldraw/odm/2003">
 <defs>
  <style type="text/css">
   <![CDATA[
    .fil0e {fill:#008E5E}
    .fil1 {fill:white}
   ]]>
  </style>
 </defs>
<symbol id="ISO_x0020_7010_x0020_E060" viewBox="-1500 2616.66 7000 7000">
 <rect class="fil0e" x="-1500" y="2616.66" width="7000" height="7000"/>
 <polygon class="fil1" points="4640.47,8971.83 3529.85,8971.83 3529.85,8418.1 2841,8418.1 2841,7864.35 2152.14,7864.35 2152.14,7310.62 1463.29,7310.62 1463.29,6756.89 774.44,6756.89 774.44,6203.15 85.58,6203.15 85.58,5649.42 -719.97,5649.42 -719.97,5482.43 252.57,5482.43 252.57,6036.16 941.42,6036.16 941.42,6589.91 1630.27,6589.91 1630.27,7143.64 2319.13,7143.64 2319.13,7697.37 3007.98,7697.37 3007.98,8251.11 3696.84,8251.11 3696.84,8804.84 4640.47,8804.84 "/>
 <path class="fil1" d="M3011.02 5357.22c0,-142.9 -115.86,-258.76 -258.76,-258.76 -142.91,0 -258.77,115.86 -258.77,258.76 0,142.91 115.86,258.77 258.77,258.77 142.9,0 258.76,-115.86 258.76,-258.77zm324.75 1002.83l530.83 -268.95c157.62,-79.86 36.99,-319.35 -120.62,-239.5l-452.24 229.15 -363.69 -318.42c-141.05,-124.26 -323.99,-55.05 -381.19,82.14l585.42 1030.96 409.05 -206 299.21 603.38c82.57,166.52 335.15,39.34 252.4,-127.11l-362.77 -729.57c-35.63,-66.57 -116.96,-98.37 -189.74,-62.64l-498.07 250.81c10.19,-30.05 14.49,-62.57 11.57,-96.06l-26.45 -302.45c34.81,30.47 156.11,143.78 192.68,160.93 43.18,21.32 82.83,14.89 113.61,-6.67zm-754.7 158.2l19.31 220.93c4.93,56.36 58.3,146.56 86.82,203.18 32.38,64.27 107.97,93.2 174.1,69.38l-280.23 -493.49zm-777.66 -2998.41c0,-142.91 -115.86,-258.76 -258.77,-258.76 -142.9,0 -258.76,115.85 -258.76,258.76 0,142.91 115.86,258.76 258.76,258.76 142.91,0 258.77,-115.85 258.77,-258.76zm130.91 1707.96l1033.03 1819.24 -304.38 153.28 -611.12 -505.95c-41.5,-34.35 -103.54,-28.51 -137.9,12.99l0 0.01c-34.36,41.49 -28.51,103.54 12.98,137.9l1533.52 1269.59c4.24,3.51 8.68,6.58 13.28,9.26 42.56,51.91 107.18,85.03 179.53,85.03 128.15,0 232.05,-103.9 232.05,-232.05 0,-128.15 -103.9,-232.05 -232.05,-232.05 -35.29,0 -68.73,7.89 -98.68,21.99l-371.84 -654.82 309.75 -155.98c91.11,-45.88 21.35,-184.4 -69.76,-138.53l-316.68 159.47 -1005.08 -1769.99 62.67 -226.15c119.17,-9.08 159.99,-198.95 22.81,-240.15l-513.61 -154.22 -60.75 -559.63c-7.96,-73.33 -88.59,-182.89 -163.77,-194.79 -121.41,-39.44 -253.02,27.65 -292.45,149.04l-284.67 876.31c-8.48,26.13 0.6,60.12 3.6,74.26l127.33 600.42 -627.1 214.27c-189.04,64.58 -90.85,352.03 98.21,287.43l740.95 -253.19c45.86,-15.67 74.78,-44.46 90.21,-78.15l0 741.34c0,199.77 303.75,199.79 303.75,0l0 -737.29c0,-46.11 5.22,-55.81 -11.25,-92.67l-280.04 -625.77 114.82 -353.48c7.33,67.7 2.83,135.02 91.59,162.74l489.55 147 -78.5 283.29zm1109.72 1954.27l357.63 629.82 -608.27 -503.6 250.64 -126.22z"/>
</symbol>
 <g id="Ebene_x0020_1">
  <metadata id="CorelCorpID_0Corel-Layer"/>
  <use id="ISO_x0020_7010_x0020_E060_0" transform="scale(0.571429 0.571429)" x="-0" y="-0" width="7000" height="7000" xlink:href="#ISO_x0020_7010_x0020_E060"/>
 </g>
</svg>
