<?xml version="1.0" encoding="UTF-8"?>
<!DOCTYPE svg PUBLIC "-//W3C//DTD SVG 1.1//EN" "http://www.w3.org/Graphics/SVG/1.1/DTD/svg11.dtd">
<!-- Creator: Corel DESIGNER -->
<svg xmlns="http://www.w3.org/2000/svg" xml:space="preserve" width="40mm" height="40mm" version="1.1" style="shape-rendering:geometricPrecision; text-rendering:geometricPrecision; image-rendering:optimizeQuality; fill-rule:evenodd; clip-rule:evenodd"
viewBox="0 0 2000 2000"
 xmlns:xlink="http://www.w3.org/1999/xlink"
 xmlns:xodm="http://www.corel.com/coreldraw/odm/2003">
 <defs>
  <style type="text/css">
   <![CDATA[
    .fil0f {fill:#A1262D}
    .fil1 {fill:white}
   ]]>
  </style>
 </defs>
<symbol id="ISO_x0020_7010_x0020_F006" viewBox="-3750 1308.33 3500 3500">
 <rect class="fil0f" x="-3750" y="1308.33" width="3500" height="3500"/>
 <path class="fil1" d="M-2438.41 3680.41c13.24,32.28 55.91,40.41 81.89,17.63 41.27,-36.2 87.79,-64.99 137.53,-89.27l393.65 736.99c-138.94,80.42 -330.29,153.39 -533.4,124.89 -703.17,-691.31 -1057.84,-1555.41 -1043.11,-2541.39 124.53,-162.98 311.95,-245.48 467.33,-285.87l237.64 801.05c-52.45,17.67 -105.79,29.85 -160.6,33.08 -34.5,2.03 -59.13,37.8 -45.89,70.08l464.96 1132.81zm-438.74 -2050.43c70.72,-14.72 131.08,-20.66 170.17,-22.21 12.08,-0.48 22.59,7.05 26.03,18.64l205.98 694.34c3.6,12.14 -1.83,24.84 -13.1,30.62 -50.9,26.12 -101.91,51.41 -153.59,72.44l-235.49 -793.84zm711.95 1954.66c51.57,-21.34 105.62,-39.18 160.19,-56.36 12.06,-3.8 24.88,1.44 30.83,12.59l341.22 638.84c5.68,10.64 3.49,23.43 -5.42,31.56 -28.9,26.35 -76.04,64.52 -136.71,103.74l-390.11 -730.36z"/>
 <path class="fil1" d="M-1482.96 2211.97c200.23,85.34 159.39,408.55 282.49,605.94 123.11,197.39 285.78,413.3 659.45,334.28 -240.52,-131.67 -372.1,-310.07 -432.95,-494.4 -60.85,-184.34 -191.38,-495.89 -508.99,-445.81zm-187.3 1337.06c219.68,3.52 287.14,201.62 466.69,349.54 179.54,147.92 367.98,249.06 662.55,34.49 -276.82,-89.64 -378.99,-137.52 -495.36,-292.89 -116.37,-155.38 -415.17,-273.62 -633.88,-91.13zm294.26 -759.13c203.24,307.88 475.33,506.39 834.97,565.86l0 389.89c-217.37,-56.36 -379.02,-110.26 -600.36,-313.98 -221.34,-203.72 -250.42,-476.59 -234.62,-641.76zm462.34 -769.41c112.52,346.58 237.12,526.34 372.63,555.49l0 389.89c-143.45,-76.73 -333.47,-254.39 -386.43,-441.64 -52.96,-187.25 -27.67,-376.78 13.8,-503.74zm-462.35 1914.92c124.22,185.17 550.33,282.35 834.98,182.86l0 381.26c-253.02,8.06 -456.05,-32.71 -553.78,-86.25 -97.71,-53.55 -259.92,-213.35 -281.2,-477.87z"/>
</symbol>
 <g id="Ebene_x0020_1">
  <metadata id="CorelCorpID_0Corel-Layer"/>
  <use id="ISO_x0020_7010_x0020_F006_0" transform="scale(0.571429 0.571429)" x="-0" y="-0" width="3500" height="3500" xlink:href="#ISO_x0020_7010_x0020_F006"/>
 </g>
</svg>
