<?xml version="1.0" encoding="UTF-8"?>
<!DOCTYPE svg PUBLIC "-//W3C//DTD SVG 1.1//EN" "http://www.w3.org/Graphics/SVG/1.1/DTD/svg11.dtd">
<!-- Creator: Corel DESIGNER -->
<svg xmlns="http://www.w3.org/2000/svg" xml:space="preserve" width="40mm" height="40mm" version="1.1" style="shape-rendering:geometricPrecision; text-rendering:geometricPrecision; image-rendering:optimizeQuality; fill-rule:evenodd; clip-rule:evenodd"
viewBox="0 0 2000 2000"
 xmlns:xlink="http://www.w3.org/1999/xlink"
 xmlns:xodm="http://www.corel.com/coreldraw/odm/2003">
 <defs>
  <style type="text/css">
   <![CDATA[
    .fil0f {fill:#A1262D}
    .fil1 {fill:white}
   ]]>
  </style>
 </defs>
<symbol id="ISO_x0020_7010_x0020_F009" viewBox="-3750 -1808.34 3500 3500">
 <rect class="fil0f" x="-3750" y="-1808.34" width="3500" height="3500"/>
 <path class="fil1" d="M-1482.96 -904.7c200.23,85.35 159.39,408.55 282.49,605.94 123.11,197.38 285.78,413.29 659.45,334.27 -240.52,-131.67 -372.1,-310.06 -432.95,-494.4 -60.85,-184.34 -191.38,-495.9 -508.99,-445.81zm-187.3 1337.07c219.68,3.52 287.14,201.62 466.69,349.54 179.54,147.92 367.98,249.06 662.55,34.49 -276.82,-89.64 -378.99,-137.52 -495.36,-292.89 -116.37,-155.38 -415.17,-273.62 -633.88,-91.13zm294.26 -759.13c203.24,307.88 475.33,506.39 834.97,565.86l0 389.88c-217.37,-56.36 -379.02,-110.26 -600.36,-313.98 -221.34,-203.72 -250.42,-476.59 -234.62,-641.76zm462.34 -769.41c112.52,346.58 237.12,526.34 372.63,555.49l0 389.89c-143.45,-76.72 -333.47,-254.39 -386.43,-441.64 -52.96,-187.25 -27.67,-376.78 13.8,-503.74zm-462.35 1914.92c124.22,185.17 550.33,282.35 834.98,182.86l0 381.26c-253.02,8.06 -456.05,-32.71 -553.78,-86.25 -97.71,-53.55 -259.92,-213.35 -281.2,-477.87z"/>
 <path class="fil1" d="M-2906.47 884.74c0,-34.21 -27.73,-61.94 -61.93,-61.94 -34.21,0 -61.94,27.73 -61.94,61.94 0,34.2 27.73,61.93 61.94,61.93 34.2,0 61.93,-27.73 61.93,-61.93zm53.08 0c0,-63.52 -51.49,-115.01 -115.01,-115.01 -63.53,0 -115.02,51.49 -115.02,115.01 0,63.52 51.49,115.01 115.02,115.01 63.52,0 115.01,-51.49 115.01,-115.01z"/>
 <path class="fil1" d="M-2616.47 884.74c0,-194.38 -157.55,-351.94 -351.93,-351.94 -194.38,0 -351.94,157.56 -351.94,351.94 0,194.37 157.56,351.93 351.94,351.93 194.38,0 351.93,-157.56 351.93,-351.93zm-103.57 0c0,-137.18 -111.19,-248.37 -248.36,-248.37 -137.18,0 -248.37,111.19 -248.37,248.37 0,137.18 111.18,248.36 248.37,248.36 137.17,0 248.36,-111.19 248.36,-248.36z"/>
 <polygon class="fil1" points="-2881.01,-497.7 -2326.65,-497.7 -2326.65,-210.18 -2881.01,-210.18 "/>
 <path class="fil1" d="M-2423.28 883.54l0 -21.81 34.51 0c82.23,0 149.51,-67.3 149.51,-149.51l0 -1380.14c0,-82.23 -67.28,-149.51 -149.51,-149.51l-430.12 0c-82.24,0 -149.51,67.28 -149.51,149.51l0 1176.38c234.91,0 408.22,212.15 371.26,437.69l317.56 0 165.37 207.6c25.52,32.07 74.41,-6.83 48.91,-38.88l-173.66 -218c-5.66,-8.06 -15.03,-13.31 -25.61,-13.31 -52.9,0 -105.8,0 -158.7,0z"/>
 <path class="fil1" d="M-3456.67 -1462.94c-11.27,-13.03 -9.85,-32.73 3.18,-44.01 13.02,-11.27 32.74,-9.85 44.01,3.17l372.63 432.45c5.11,5.9 7.61,13.17 7.61,20.41l0.1 0 0 1564.27c-21.53,3.5 -42.45,8.81 -62.59,15.8l0 -1568.6 -364.93 -423.5z"/>
 <polygon class="fil1" points="-2753.33,-999.16 -2454.32,-999.16 -2454.32,-848.49 -2753.33,-848.49 -2753.33,-876.1 -2882.74,-876.1 -2882.74,-914.38 -2753.33,-914.38 "/>
</symbol>
 <g id="Ebene_x0020_1">
  <metadata id="CorelCorpID_0Corel-Layer"/>
  <use id="ISO_x0020_7010_x0020_F009_0" transform="scale(0.571429 0.571429)" x="-0" y="-0" width="3500" height="3500" xlink:href="#ISO_x0020_7010_x0020_F009"/>
 </g>
</svg>
