<?xml version="1.0" encoding="UTF-8"?>
<!DOCTYPE svg PUBLIC "-//W3C//DTD SVG 1.1//EN" "http://www.w3.org/Graphics/SVG/1.1/DTD/svg11.dtd">
<!-- Creator: Corel DESIGNER -->
<svg xmlns="http://www.w3.org/2000/svg" xml:space="preserve" width="40mm" height="40mm" version="1.1" style="shape-rendering:geometricPrecision; text-rendering:geometricPrecision; image-rendering:optimizeQuality; fill-rule:evenodd; clip-rule:evenodd"
viewBox="0 0 4000 4000"
 xmlns:xlink="http://www.w3.org/1999/xlink"
 xmlns:xodm="http://www.corel.com/coreldraw/odm/2003">
 <defs>
  <style type="text/css">
   <![CDATA[
    .fil0f {fill:#A1262D}
    .fil1 {fill:white}
   ]]>
  </style>
 </defs>
<symbol id="ISO_x0020_7010_x0020_F011" viewBox="-1500 -9850 7000 7000">
 <rect class="fil0f" x="-1500" y="-9850" width="7000" height="7000"/>
 <path class="fil1" d="M3034.08 -8042.73c400.46,170.69 318.77,817.1 564.98,1211.88 246.22,394.77 571.56,826.59 1318.9,668.55 -481.04,-263.34 -744.2,-620.13 -865.9,-988.81 -121.69,-368.68 -382.77,-991.79 -1017.98,-891.62zm-374.59 2674.13c439.36,7.03 574.29,403.24 933.38,699.08 359.08,295.84 735.95,498.12 1325.09,68.97 -553.64,-179.29 -757.99,-275.04 -990.71,-585.79 -232.73,-310.76 -830.35,-547.24 -1267.76,-182.26zm588.52 -1518.27c406.48,615.76 950.66,1012.79 1669.95,1131.71l0 779.77c-434.74,-112.71 -758.03,-220.52 -1200.71,-627.96 -442.68,-407.44 -500.84,-953.17 -469.24,-1283.52zm924.68 -1538.83c225.03,693.16 474.23,1052.68 745.27,1110.99l0 779.77c-286.91,-153.45 -666.95,-508.79 -772.87,-883.28 -105.92,-374.5 -55.34,-753.57 27.6,-1007.48zm-924.69 3829.84c248.43,370.34 1100.66,564.7 1669.96,365.73l0 762.52c-506.04,16.11 -912.11,-65.42 -1107.55,-172.51 -195.43,-107.09 -519.84,-426.69 -562.41,-955.74z"/>
 <path class="fil1" d="M1995.14 -7239.05c-578.73,80.18 -1157.46,81.86 -1736.19,0.2 -35.05,-4.94 -48.42,-48.51 -22.17,-72.26l551.38 -498.78 0 -513.47c0,-134.59 -110.58,-245.16 -245.17,-245.16l-1439.72 0 0 -678.11 1439.72 0c508.96,0 923.28,414.3 923.28,923.27l0 513.45 551.13 498.57c26.29,23.77 12.85,67.42 -22.26,72.29z"/>
 <path class="fil1" d="M-145.03 -4562.93c-41.93,144.64 -261.63,80.82 -219.65,-63.66l58.16 -199.74c42.03,-144.68 261.61,-80.78 219.65,63.66l-58.16 199.74z"/>
 <path class="fil1" d="M538.16 -4431.65c-21.25,149.35 -248.14,116.96 -226.82,-32.28l29.56 -205.92c21.34,-149.41 248.13,-116.91 226.82,32.27l-29.56 205.93z"/>
 <path class="fil1" d="M1241.53 -4397.63c0,150.49 -228.62,150.5 -228.62,0l-0.01 -208.03c0,-150.49 228.62,-150.5 228.62,0l0.01 208.03z"/>
 <path class="fil1" d="M1943.13 -4463.94c21.23,149.26 -205.46,181.64 -226.82,32.28l-29.58 -205.92c-21.32,-149.17 205.47,-181.69 226.83,-32.27l29.57 205.91z"/>
 <path class="fil1" d="M2670.23 -4643.12c43.67,144.56 -175.89,210.97 -219.64,66.36l-60.32 -199.1c-43.71,-144.49 175.88,-210.99 219.64,-66.35l60.32 199.09z"/>
 <path class="fil1" d="M481.65 -6715.07c-41.93,144.64 -261.62,80.82 -219.64,-63.66l58.16 -199.74c42.03,-144.68 261.6,-80.78 219.64,63.66l-58.16 199.74z"/>
 <path class="fil1" d="M856.69 -6650.43c-21.25,149.35 -248.15,116.95 -226.82,-32.28l29.56 -205.93c21.36,-149.41 248.15,-116.9 226.82,32.28l-29.56 205.93z"/>
 <path class="fil1" d="M1241.98 -6639.16c0,151.09 -229.51,151.09 -229.51,0l0 -208.03c0,-151.08 229.51,-151.08 229.51,0l0 208.03z"/>
 <path class="fil1" d="M1624.6 -6682.71c21.23,149.27 -205.48,181.64 -226.82,32.28l-29.57 -205.93c-21.32,-149.18 205.47,-181.69 226.82,-32.28l29.57 205.93z"/>
 <path class="fil1" d="M2020.38 -6788.37c43.68,144.55 -175.9,210.96 -219.64,66.35l-60.32 -199.11c-43.71,-144.48 175.89,-210.99 219.64,-66.35l60.32 199.11z"/>
 <path class="fil1" d="M323.72 -6177.04c-41.93,144.65 -261.63,80.82 -219.65,-63.66l58.16 -199.74c42.03,-144.68 261.61,-80.78 219.65,63.66l-58.16 199.74z"/>
 <path class="fil1" d="M775.81 -6095.56c-21.26,149.35 -248.15,116.95 -226.83,-32.28l29.57 -205.93c21.35,-149.41 248.14,-116.9 226.82,32.28l-29.56 205.93z"/>
 <path class="fil1" d="M1240.31 -6078.42c0,150.5 -228.62,150.49 -228.62,0l0.01 -208.04c0,-150.49 228.62,-150.48 228.62,0l-0.01 208.04z"/>
 <path class="fil1" d="M1703.07 -6127.5c21.23,149.27 -205.48,181.63 -226.82,32.28l-29.56 -205.93c-21.31,-149.18 205.48,-181.68 226.83,-32.27l29.55 205.92z"/>
 <path class="fil1" d="M2181.77 -6251.37c43.68,144.55 -175.9,210.95 -219.64,66.35l-60.3 -199.1c-43.71,-144.5 175.9,-210.99 219.65,-66.36l60.29 199.11z"/>
 <path class="fil1" d="M164.44 -5639c-41.92,144.65 -261.62,80.82 -219.64,-63.66l58.16 -199.74c42.03,-144.67 261.6,-80.77 219.64,63.66l-58.16 199.74z"/>
 <path class="fil1" d="M693.59 -5540.49c-21.25,149.36 -248.16,116.95 -226.82,-32.28l29.57 -205.93c21.36,-149.41 248.15,-116.89 226.82,32.28l-29.57 205.93z"/>
 <path class="fil1" d="M1237.81 -5517.3c0,150.5 -228.62,150.49 -228.62,0l0.01 -208.05c0,-150.5 228.62,-150.48 228.62,0l-0.01 208.05z"/>
 <path class="fil1" d="M1780.33 -5571.72c21.23,149.27 -205.47,181.63 -226.82,32.28l-29.55 -205.93c-21.32,-149.18 205.47,-181.68 226.82,-32.27l29.55 205.92z"/>
 <path class="fil1" d="M2342.06 -5713.62c43.67,144.55 -175.9,210.95 -219.65,66.35l-60.3 -199.1c-43.71,-144.5 175.91,-210.99 219.65,-66.35l60.3 199.1z"/>
 <path class="fil1" d="M13.11 -5100.96c-41.93,144.64 -261.62,80.82 -219.64,-63.66l58.16 -199.74c42.03,-144.68 261.6,-80.78 219.64,63.66l-58.16 199.74z"/>
 <path class="fil1" d="M619.26 -4986.55c-21.25,149.35 -248.15,116.96 -226.83,-32.28l29.56 -205.93c21.34,-149.4 248.13,-116.9 226.82,32.28l-29.55 205.93z"/>
 <path class="fil1" d="M1242.95 -4958.42c0,150.49 -228.62,150.5 -228.62,0l-0.01 -208.04c0,-150.49 228.62,-150.5 228.62,0l0.01 208.04z"/>
 <path class="fil1" d="M1864.85 -5019.23c21.23,149.27 -205.48,181.64 -226.82,32.28l-29.58 -205.93c-21.32,-149.18 205.47,-181.7 226.82,-32.28l29.58 205.93z"/>
 <path class="fil1" d="M2509.02 -5180.22c43.67,144.55 -175.89,210.97 -219.64,66.35l-60.34 -199.11c-43.71,-144.49 175.88,-211 219.65,-66.35l60.33 199.11z"/>
</symbol>
 <g id="Ebene_x0020_1">
  <metadata id="CorelCorpID_0Corel-Layer"/>
  <use id="ISO_x0020_7010_x0020_F011_0" transform="scale(0.571429 0.571429)" x="-0" y="-0" width="7000" height="7000" xlink:href="#ISO_x0020_7010_x0020_F011"/>
 </g>
</svg>
