<?xml version="1.0" encoding="UTF-8"?>
<!DOCTYPE svg PUBLIC "-//W3C//DTD SVG 1.1//EN" "http://www.w3.org/Graphics/SVG/1.1/DTD/svg11.dtd">
<!-- Creator: Corel DESIGNER -->
<svg xmlns="http://www.w3.org/2000/svg" xml:space="preserve" width="40mm" height="40mm" version="1.1" style="shape-rendering:geometricPrecision; text-rendering:geometricPrecision; image-rendering:optimizeQuality; fill-rule:evenodd; clip-rule:evenodd"
viewBox="0 0 4000 4000"
 xmlns:xlink="http://www.w3.org/1999/xlink"
 xmlns:xodm="http://www.corel.com/coreldraw/odm/2003">
 <defs>
  <style type="text/css">
   <![CDATA[
    .fil0f {fill:#A1262D}
    .fil1 {fill:white}
   ]]>
  </style>
 </defs>
<symbol id="ISO_x0020_7010_x0020_F016" viewBox="-1500 2616.66 7000 7000">
 <rect class="fil0f" x="-1500" y="2616.65" width="7000" height="7000"/>
 <path class="fil1" d="M3034.08 4423.92c400.46,170.69 318.77,817.1 564.98,1211.88 246.22,394.77 571.56,826.59 1318.9,668.55 -481.04,-263.34 -744.2,-620.13 -865.9,-988.81 -121.69,-368.68 -382.77,-991.79 -1017.98,-891.62zm-374.59 2674.13c439.36,7.03 574.29,403.24 933.38,699.08 359.08,295.84 735.95,498.12 1325.09,68.97 -553.64,-179.29 -757.99,-275.04 -990.71,-585.79 -232.73,-310.75 -830.35,-547.24 -1267.76,-182.26zm588.52 -1518.26c406.48,615.75 950.66,1012.78 1669.95,1131.7l0 779.77c-434.74,-112.71 -758.03,-220.52 -1200.71,-627.96 -442.68,-407.44 -500.84,-953.17 -469.24,-1283.51zm924.68 -1538.84c225.03,693.16 474.23,1052.68 745.27,1110.99l0 779.77c-286.91,-153.45 -666.95,-508.79 -772.87,-883.28 -105.92,-374.49 -55.34,-753.57 27.6,-1007.48zm-924.69 3829.84c248.43,370.34 1100.66,564.7 1669.96,365.73l0 762.52c-506.04,16.11 -912.11,-65.42 -1107.55,-172.51 -195.43,-107.09 -519.84,-426.68 -562.41,-955.74z"/>
 <circle class="fil1" cx="530.09" cy="4577.79" r="338.4"/>
 <path class="fil1" d="M-176.55 6686.84l586.13 636.22 -92.83 968.36c-24.94,260.22 370.86,291.23 395.71,32.02l93.59 -976.25c8.34,-87.05 8.36,-170.65 -44.23,-227.74l-640.49 -695.23 425.59 -959.26 740.42 374.96c71.32,36.12 135.18,21.23 179.56,-17.97l639.81 -550.73c177.03,-152.28 -60.02,-414.35 -231.78,-262.99l-530.93 467.95c-86.29,-43.69 -596.25,-306.6 -650.41,-341.81l-585.66 -259.83c-66.3,-29.42 -144.6,0.76 -174.02,67.06l-572.84 1291.13c-27.79,62.65 -24.67,137.85 -12.46,205.29l153.96 850.76 -401.09 317.67 0 506.44 715.93 -567.06c89.92,-71.22 101.76,-134.85 83.33,-274.31l-77.29 -584.68z"/>
 <path class="fil1" d="M1175.71 5841.86c-10.23,520.38 -21.61,1036.28 108.25,1615.15l1352.51 641.76c-500.86,-1482.24 125.2,-2406.07 -255.32,-3270.89l-1314.2 -599.34c30.26,138.5 52.84,273.16 69.57,404.82l52.82 -69.78c182.23,-236.83 542.31,32.84 362.7,274.54l-374.77 495.15 158.76 80.4 504.41 -444.57c224.69,-195.32 528.8,141.28 300.3,341.65l-639.31 550.3c-69.72,60.59 -156.15,66.16 -237.66,25.41l-88.06 -44.6z"/>
 <path class="fil1" d="M815.1 5144.42l315.42 164.14 379.93 -501.92c139.79,-184.71 -140.79,-394.86 -279.52,-211.57l-415.83 549.35z"/>
</symbol>
 <g id="Ebene_x0020_1">
  <metadata id="CorelCorpID_0Corel-Layer"/>
  <use id="ISO_x0020_7010_x0020_F016_0" transform="scale(0.571429 0.571429)" x="-0" y="-0" width="7000" height="7000" xlink:href="#ISO_x0020_7010_x0020_F016"/>
 </g>
</svg>
