<?xml version="1.0" encoding="UTF-8"?>
<!DOCTYPE svg PUBLIC "-//W3C//DTD SVG 1.1//EN" "http://www.w3.org/Graphics/SVG/1.1/DTD/svg11.dtd">
<!-- Creator: Corel DESIGNER -->
<svg xmlns="http://www.w3.org/2000/svg" xml:space="preserve" width="40mm" height="40mm" version="1.1" style="shape-rendering:geometricPrecision; text-rendering:geometricPrecision; image-rendering:optimizeQuality; fill-rule:evenodd; clip-rule:evenodd"
viewBox="0 0 2000 2000"
 xmlns:xlink="http://www.w3.org/1999/xlink"
 xmlns:xodm="http://www.corel.com/coreldraw/odm/2003">
 <defs>
  <style type="text/css">
   <![CDATA[
    .fil0f {fill:#A1262D}
    .fil1 {fill:white}
   ]]>
  </style>
 </defs>
<symbol id="ISO_x0020_7010_x0020_F017" viewBox="-3750 1308.33 3500 3500">
 <rect class="fil0f" x="-3750" y="1308.33" width="3500" height="3500"/>
 <path class="fil1" d="M-1484.25 2209.24c200.44,85.43 159.55,408.98 282.78,606.58 123.24,197.59 286.08,413.73 660.15,334.62 -240.78,-131.81 -372.5,-310.39 -433.41,-494.93 -60.91,-184.53 -191.59,-496.41 -509.52,-446.28zm-187.5 1338.47c219.91,3.52 287.45,201.82 467.18,349.9 179.73,148.08 368.37,249.32 663.25,34.52 -277.12,-89.74 -379.39,-137.67 -495.88,-293.21 -116.49,-155.54 -415.61,-273.9 -634.55,-91.22zm294.58 -759.93c203.45,308.2 475.83,506.92 835.86,566.45l0 390.3c-217.6,-56.41 -379.41,-110.38 -600.99,-314.31 -221.57,-203.93 -250.68,-477.09 -234.87,-642.43zm462.83 -770.23c112.63,346.94 237.37,526.89 373.03,556.08l0 390.29c-143.61,-76.8 -333.83,-254.66 -386.85,-442.11 -53.02,-187.44 -27.7,-377.18 13.82,-504.27zm-462.83 1916.93c124.34,185.36 550.9,282.65 835.86,183.06l0 381.66c-253.29,8.06 -456.54,-32.74 -554.36,-86.35 -97.82,-53.6 -260.2,-213.56 -281.5,-478.37z"/>
 <path class="fil1" d="M-3106.51 2960.3l29.85 0c34.88,0 61.64,-56.69 81.21,-126.77l-15.88 -5.15 62.38 -203.33 14.43 4.68c60.38,-100.89 161.84,-150.79 277.32,-144.12 65.61,3.79 123.1,29.14 171.85,75.08 49.45,46.61 89.44,134.32 111.86,194.5 48.46,130.11 100.65,204.23 234.43,205.46 9.59,0.78 17.55,10.67 17.55,24.05l-1006.36 0c0,-14.47 8.57,-24.41 21.35,-24.41zm283.83 -469.28l4.97 -105.61c32.57,0 75.99,-2.43 97.7,0 71.97,8.05 129.2,22.34 188.32,49.62 50.59,23.34 89.87,53.35 133.59,104.7 30.14,35.39 55.13,87.05 73.57,130.11 23.8,55.57 30.99,115.88 56.49,170.65 20.1,43.17 57.68,62.13 90.63,84.72l0 7.32c-90.75,-8.39 -141.61,-107.71 -171.16,-187.09 -40.85,-109.68 -95.36,-214.97 -206.22,-263.4 -85.54,-37.37 -184.89,-31.41 -267.89,8.98zm701.18 521.13l0 58.29 -1006.36 0 0 -58.29 1006.36 0z"/>
 <path class="fil1" d="M-3381.33 2108.45l659.82 0 0 -115.76 48.22 0 0 -351.12 81.04 0 0 351.12 48.23 0 0 115.76 659.81 0 0 1909.96 -659.81 0 0 115.77 -48.23 0 0 351.12 -81.04 0 0 -351.12 -48.22 0 0 -115.77 -659.82 0 0 -1909.96zm1383.36 113.75l-1269.61 0 0 1682.46 1269.61 0 0 -1682.46z"/>
 <circle class="fil1" cx="-2870.56" cy="3155.06" r="41.97"/>
 <path class="fil1" d="M-2990.51 3098.71l-53.59 213.68c-3.53,14.09 6.69,27.22 21.25,27.22l69.01 0 0 118.34c0,55.39 45.24,100.62 100.62,100.62l36.36 0 0 102.37c0,26.58 21.54,48.12 48.12,48.12l321.09 0c26.55,0 48.12,-21.59 48.12,-48.12l0 -169.09c0,-28.53 5.96,-53.85 18.61,-79.42l87.99 -178.1c9.66,-19.59 13.98,-38.28 13.98,-60.11l0 -75.51 43.75 0 0 75.51c0,28.56 -5.97,53.82 -18.6,79.43l-87.99 178.09c-9.66,19.57 -13.99,38.28 -13.99,60.11l0 169.09c0,50.59 -41.29,91.88 -91.88,91.88l-321.09 0c-50.51,0 -91.88,-41.36 -91.88,-91.88l0 -58.8c-76.54,-3.88 -136.99,-67.51 -136.99,-144.2l0 -74.59 -25.26 0c-42.74,0 -74.01,-40.1 -63.63,-81.55l50.93 -203.1 45.03 0z"/>
</symbol>
 <g id="Ebene_x0020_1">
  <metadata id="CorelCorpID_0Corel-Layer"/>
  <use id="ISO_x0020_7010_x0020_F017_0" transform="scale(0.571429 0.571429)" x="-0" y="-0" width="3500" height="3500" xlink:href="#ISO_x0020_7010_x0020_F017"/>
 </g>
</svg>
