<svg id="Ebene_1" data-name="Ebene 1" xmlns="http://www.w3.org/2000/svg" viewBox="0 0 553.1 553.1"><defs><style>.cls-1{fill:#fff;}.cls-1,.cls-2,.cls-3{fill-rule:evenodd;}.cls-2{fill:#da251d;}.cls-4{fill:none;stroke:#000;stroke-linecap:square;stroke-miterlimit:10;stroke-width:0.21px;}</style></defs><polygon class="cls-1" points="0 276.55 276.55 0 553.1 276.55 276.55 553.1 0 276.55 0 276.55"/><path class="cls-2" d="M21,421.44,297.55,144.89,574.1,421.44,297.55,698,21,421.44Zm44.84,0L297.55,189.73,529.27,421.44,297.55,653.16,65.84,421.44Z" transform="translate(-21 -144.89)"/><polygon class="cls-3" points="270.68 457 264.73 450.99 259.2 445.46 254.12 440.31 249.35 435.5 244.85 430.94 240.57 426.62 236.45 422.43 232.44 418.35 228.43 414.27 224.42 410.2 220.31 405.98 216.06 401.59 211.63 396.99 206.9 392.08 201.81 386.83 196.39 381.16 195.97 380.71 195.76 380.47 195.69 380.33 195.66 379.77 195.69 379.22 195.73 378.7 195.76 378.19 195.87 377.7 195.97 377.25 196.11 376.8 196.28 376.39 196.46 376.01 196.66 375.63 196.87 375.28 197.15 374.94 197.39 374.66 197.67 374.38 197.98 374.11 198.29 373.9 198.6 373.69 198.98 373.48 199.32 373.35 199.71 373.24 200.09 373.1 200.5 373.03 200.91 373 201.36 372.96 201.78 372.96 202.26 373.03 202.71 373.1 203.2 373.17 203.68 373.31 204.16 373.45 204.68 373.62 205.2 373.83 205.55 373.35 205.89 372.83 206.24 372.38 206.62 371.96 206.97 371.51 207.34 371.13 207.72 370.79 208.1 370.44 208.49 370.13 208.87 369.85 209.28 369.58 209.66 369.37 210.08 369.13 210.49 368.95 210.91 368.78 211.35 368.64 211.77 368.54 212.22 368.47 212.67 368.4 213.15 368.37 213.6 368.37 214.05 368.4 214.57 368.47 215.05 368.57 215.57 368.64 216.06 368.78 216.57 368.95 217.09 369.16 217.65 369.37 218.2 369.61 218.75 369.92 219.31 370.23 219.58 370.23 219.89 370.27 219.89 369.61 219.96 369.02 220 368.47 220.07 367.99 220.17 367.54 220.27 367.12 220.41 366.74 220.59 366.4 220.79 366.05 221.03 365.7 221.31 365.39 221.66 365.08 222.04 364.74 222.45 364.39 222.94 364.05 223.52 363.67 223.97 363.6 224.42 363.49 224.87 363.42 225.29 363.39 225.74 363.32 226.25 363.32 226.81 363.32 227.46 363.32 228.43 363.74 228.99 363.91 229.16 363.98 229.3 363.98 229.4 363.98 229.54 363.94 229.75 363.53 229.99 363.11 230.19 362.73 230.47 362.39 230.71 362.08 230.99 361.76 231.23 361.45 231.51 361.18 231.78 360.9 232.1 360.69 232.37 360.49 232.72 360.31 233.03 360.11 233.34 359.97 233.65 359.86 234 359.79 234.34 359.69 234.69 359.66 235.03 359.62 235.38 359.62 235.76 359.66 236.11 359.69 236.52 359.76 236.9 359.86 237.25 359.97 237.66 360.11 238.04 360.24 238.46 360.45 238.87 360.66 239.25 360.9 239.67 361.18 240.08 361.45 240.53 360.97 240.98 360.52 241.36 360.11 241.78 359.79 242.16 359.45 242.54 359.17 242.92 358.93 243.3 358.72 243.71 358.55 244.16 358.41 244.61 358.27 245.09 358.13 245.65 358.07 246.24 358 246.86 357.93 247.55 357.93 247.93 358 248.31 358.07 248.52 358.13 248.72 358.13 248.97 358.13 249.24 358.07 248.86 357.55 248.59 357.03 248.34 356.51 248.17 355.99 248.07 355.51 248 355.02 248 354.54 248 354.09 248.1 353.68 248.24 353.26 248.38 352.88 248.59 352.5 248.83 352.15 249.1 351.88 249.38 351.57 249.69 351.32 250.04 351.12 250.42 350.91 250.8 350.81 251.21 350.67 251.59 350.6 252.01 350.56 252.46 350.56 252.87 350.6 253.29 350.74 253.7 350.84 254.12 351.05 254.57 351.29 254.95 351.57 255.33 351.91 255.71 352.33 256.05 352.78 256.71 352.64 257.37 352.5 257.99 352.4 258.58 352.33 259.13 352.29 259.65 352.29 260.17 352.29 260.65 352.36 261.2 352.5 261.69 352.64 262.17 352.85 262.69 353.09 263.21 353.4 263.76 353.78 264.35 354.19 264.94 354.71 265.07 354.71 265.21 354.68 265.35 354.61 265.52 354.57 265.9 354.4 266.32 354.23 266.77 354.06 267.25 353.88 267.5 353.81 267.74 353.78 268.01 353.75 268.25 353.71 268.81 354.02 269.29 354.33 269.5 354.5 269.71 354.68 269.88 354.85 270.05 354.99 270.19 355.2 270.33 355.33 270.43 355.51 270.54 355.71 270.61 355.89 270.68 356.06 270.71 356.23 270.74 356.44 270.78 356.65 270.78 356.82 270.74 357.03 270.71 357.24 270.64 357.41 270.57 357.62 270.47 357.86 270.36 358.07 270.23 358.27 270.05 358.48 269.92 358.72 269.71 358.93 269.29 359.38 268.81 359.86 269.02 360.17 269.19 360.49 269.33 360.76 269.5 361.07 269.64 361.35 269.74 361.63 269.85 361.94 269.92 362.21 269.98 362.52 270.05 362.8 270.09 363.11 270.12 363.39 270.12 363.67 270.12 363.98 270.12 364.25 270.12 364.56 270.02 365.15 269.92 365.7 269.74 366.29 269.53 366.88 269.33 367.5 269.05 368.13 268.81 368.71 268.5 369.33 268.84 369.65 269.15 369.96 269.46 370.3 269.74 370.65 270.02 371 270.26 371.34 270.5 371.69 270.71 372.03 270.88 372.38 271.06 372.76 271.19 373.1 271.33 373.48 271.44 373.86 271.5 374.21 271.57 374.62 271.61 375 271.61 375.35 271.61 375.73 271.61 376.11 271.57 376.53 271.5 376.91 271.4 377.32 271.3 377.7 271.16 378.08 270.99 378.5 270.81 378.88 270.61 379.29 270.36 379.67 270.12 380.09 269.85 380.5 269.53 380.88 269.22 381.3 269.53 381.54 269.81 381.78 270.05 382.06 270.33 382.33 270.57 382.61 270.78 382.92 270.95 383.23 271.13 383.54 271.3 383.85 271.44 384.2 271.54 384.51 271.61 384.86 271.68 385.17 271.75 385.51 271.75 385.82 271.75 386.17 271.71 386.48 271.68 386.79 271.57 387.1 271.5 387.42 271.37 387.69 271.19 387.97 271.02 388.21 270.78 388.45 270.54 388.73 270.26 388.94 269.98 389.11 269.64 389.32 269.26 389.45 268.88 389.59 268.43 389.7 267.98 389.8 268.15 390.63 268.25 391.36 268.36 392.08 268.36 392.81 268.36 393.19 268.36 393.53 268.36 393.91 268.29 394.29 268.22 394.71 268.15 395.12 268.05 395.54 267.94 396.02 268.36 396.06 268.77 396.09 269.15 396.16 269.53 396.26 269.88 396.33 270.19 396.44 270.5 396.54 270.81 396.68 271.06 396.82 271.3 396.99 271.54 397.13 271.75 397.34 271.95 397.51 272.13 397.72 272.26 397.92 272.4 398.17 272.54 398.41 272.65 398.65 272.71 398.93 272.78 399.2 272.85 399.48 272.89 399.79 272.89 400.1 272.89 400.41 272.89 400.76 272.85 401.1 272.82 401.45 272.75 401.83 272.68 402.21 272.58 402.59 272.47 403 272.33 403.42 272.75 403.83 273.06 404.25 273.2 404.46 273.34 404.63 273.44 404.84 273.54 405.05 273.65 405.25 273.72 405.43 273.75 405.63 273.79 405.84 273.86 406.01 273.86 406.22 273.86 406.43 273.86 406.63 273.82 407.05 273.75 407.43 273.61 407.88 273.48 408.33 273.27 408.78 273.06 409.26 272.82 409.75 272.54 410.3 272.96 410.61 273.37 410.92 273.79 411.3 274.13 411.65 274.48 411.99 274.82 412.37 275.1 412.75 275.38 413.13 275.62 413.55 275.86 413.96 276.07 414.38 276.24 414.79 276.38 415.24 276.48 415.66 276.59 416.11 276.66 416.56 276.69 416.97 276.69 417.42 276.69 417.87 276.62 418.32 276.55 418.77 276.41 419.22 276.27 419.63 276.1 420.08 275.89 420.53 275.65 420.95 275.38 421.4 275.07 421.85 274.72 422.26 274.34 422.68 273.93 423.09 273.48 423.5 273.51 423.71 273.54 423.92 273.58 424.13 273.61 424.37 273.75 424.82 273.93 425.27 274.17 425.75 274.37 426.2 274.62 426.72 274.82 427.2 274.93 427.69 275.03 428.14 275.07 428.59 275.13 429.04 275.17 429.49 275.17 429.94 275.2 430.35 275.2 430.8 275.17 431.21 275.13 431.66 275.1 432.08 275.03 432.49 274.96 432.91 274.86 433.32 274.79 433.74 274.65 434.15 274.51 434.53 274.37 434.95 274.2 435.33 274.03 435.71 273.82 436.09 273.61 436.43 273.41 436.81 273.16 437.19 272.89 437.54 272.65 437.88 272.33 438.27 272.06 438.61 271.75 438.92 271.4 439.27 271.06 439.61 270.71 439.93 270.54 440.24 270.36 440.55 270.78 440.69 271.13 440.82 271.44 441.03 271.68 441.24 271.92 441.45 272.09 441.69 272.26 442 272.4 442.28 272.47 442.62 272.54 442.93 272.61 443.28 272.65 443.62 272.68 444.38 272.68 445.18 272.33 445.59 271.99 446.01 271.82 446.29 271.71 446.49 271.68 446.63 271.61 446.77 271.61 446.94 271.61 447.08 271.82 447.22 271.99 447.36 272.16 447.53 272.3 447.74 272.44 447.91 272.54 448.12 272.61 448.36 272.68 448.6 272.75 448.84 272.78 449.12 272.78 449.4 272.75 449.67 272.71 449.95 272.68 450.26 272.58 450.54 272.47 450.88 272.09 451.13 271.75 451.44 271.57 451.61 271.44 451.78 271.4 451.89 271.37 451.99 271.33 452.09 271.33 452.2 271.5 452.27 271.68 452.33 271.99 452.75 272.23 453.13 272.33 453.48 272.47 453.75 272.51 454.03 272.47 454.31 272.47 454.51 272.37 454.96 272.02 455.76 271.37 456.59 270.68 457 270.68 457"/><polygon class="cls-3" points="279.49 456.31 278.9 456 278.56 455.58 278.31 455.2 278.18 454.96 278.07 454.69 278 454.44 277.97 454.2 277.97 453.96 278 453.68 278.07 453.44 278.18 453.17 278.31 452.89 278.45 452.58 278.63 452.27 278.83 451.92 278.94 451.4 279.04 451.02 279.11 450.61 279.25 450.3 279.35 449.99 279.52 449.71 279.73 449.36 280.01 448.98 279.77 448.74 279.56 448.46 279.35 448.22 279.25 447.94 279.14 447.7 279.04 447.43 279.01 447.19 279.01 446.94 279.01 446.67 279.04 446.42 279.11 446.15 279.21 445.91 279.32 445.66 279.42 445.42 279.59 445.14 279.77 444.9 279.73 444.66 279.66 444.31 279.56 443.9 279.39 443.45 279.25 443 279.11 442.52 278.97 442.07 278.9 441.62 278.94 441.07 279.01 440.55 279.08 440.06 279.18 439.55 279.25 439.1 279.39 438.65 279.49 438.2 279.66 437.75 279.52 437.06 279.42 436.4 279.35 435.78 279.32 435.12 279.28 434.53 279.32 433.94 279.35 433.36 279.46 432.77 279.52 432.49 279.59 432.25 279.7 431.97 279.8 431.7 279.9 431.46 280.04 431.18 280.18 430.94 280.36 430.66 280.53 430.45 280.7 430.21 280.91 429.97 281.12 429.76 281.36 429.52 281.6 429.28 281.88 429.11 282.15 428.86 282.15 428.66 282.15 428.45 281.81 428.03 281.53 427.65 281.22 427.24 280.94 426.86 280.74 426.48 280.49 426.06 280.29 425.65 280.08 425.27 279.94 424.85 279.8 424.47 279.66 424.06 279.56 423.68 279.49 423.26 279.42 422.88 279.35 422.47 279.32 422.05 279.32 421.67 279.32 421.29 279.35 420.88 279.42 420.5 279.46 420.08 279.56 419.7 279.66 419.32 279.77 418.91 279.9 418.53 280.08 418.11 280.25 417.73 280.46 417.32 280.67 416.94 280.91 416.52 281.15 416.14 281.43 415.73 281.94 415.28 282.43 414.83 282.91 414.45 283.36 414.07 284.16 413.44 284.61 413 284.23 412.69 283.92 412.34 283.57 411.99 283.26 411.65 282.95 411.3 282.67 410.99 282.43 410.64 282.19 410.3 281.98 409.92 281.81 409.61 281.6 409.23 281.46 408.88 281.32 408.54 281.22 408.16 281.15 407.81 281.05 407.43 280.98 407.08 280.94 406.7 280.91 406.32 280.91 405.94 280.91 405.56 280.91 405.18 280.94 404.8 281.01 404.39 281.08 403.97 281.15 403.59 281.22 403.18 281.32 402.76 281.56 401.93 281.84 401.04 281.01 400.72 280.25 400.41 279.9 400.24 279.59 400.07 279.32 399.89 279.04 399.72 278.76 399.55 278.56 399.34 278.31 399.17 278.14 398.96 277.97 398.75 277.83 398.51 277.69 398.3 277.59 398.1 277.52 397.86 277.45 397.58 277.42 397.34 277.38 397.09 277.38 396.82 277.42 396.54 277.42 396.26 277.49 395.99 277.56 395.68 277.66 395.37 277.76 395.02 277.9 394.71 278.07 394.36 278.25 393.98 278.42 393.64 278.63 393.26 279.04 393.01 279.42 392.81 279.84 392.6 280.25 392.39 279.9 391.49 279.7 390.7 279.56 389.9 279.49 389.21 279.56 388.56 279.66 387.93 279.84 387.42 280.08 386.93 280.36 386.48 280.74 386.1 281.12 385.79 281.53 385.51 281.98 385.31 282.46 385.17 282.95 385.06 283.43 385.03 283.95 385.03 284.43 385.1 284.95 385.24 285.4 385.41 285.85 385.65 286.27 385.93 286.65 386.27 286.99 386.69 287.3 387.14 287.51 387.66 287.72 388.21 287.79 388.83 287.82 389.52 287.79 390.25 287.65 391.01 287.37 391.87 288.38 392.22 288.86 392.39 289.03 392.39 289.13 392.43 289.2 392.39 289.27 392.39 289.27 392.05 289.27 391.67 289.31 391.36 289.34 391.01 289.45 390.35 289.55 389.73 289.69 389.11 289.76 388.56 289.86 387.97 289.86 387.42 289.38 386.69 288.93 386 288.75 385.65 288.55 385.31 288.41 385 288.27 384.65 288.13 384.34 288.03 384.03 287.89 383.72 287.82 383.4 287.75 383.09 287.68 382.82 287.65 382.51 287.58 382.16 287.58 381.88 287.58 381.57 287.58 381.23 287.58 380.92 287.61 380.29 287.72 379.64 287.82 378.94 287.99 378.22 288.2 377.49 288.44 376.7 287.99 376.25 287.65 375.8 287.3 375.38 286.99 375 286.75 374.62 286.51 374.21 286.33 373.86 286.2 373.48 286.06 373.1 285.92 372.72 285.85 372.31 285.78 371.89 285.68 370.96 285.54 369.92 285.82 368.71 286.02 367.92 286.09 367.61 286.13 367.4 286.16 367.19 286.13 367.02 285.71 366.74 285.3 366.4 284.95 366.09 284.61 365.74 284.3 365.43 284.02 365.08 283.81 364.7 283.6 364.36 283.43 363.98 283.29 363.63 283.19 363.25 283.15 362.9 283.12 362.52 283.12 362.21 283.12 361.87 283.19 361.52 283.29 361.18 283.43 360.87 283.57 360.56 283.78 360.28 283.95 360 284.23 359.76 284.5 359.52 284.78 359.31 285.13 359.14 285.47 358.93 285.85 358.79 286.27 358.69 286.71 358.62 287.2 358.58 287.72 358.55 288.24 358.58 288.62 358.72 289.03 358.86 289.45 359.03 289.86 359.21 289.76 358.55 289.69 357.93 289.69 357.34 289.72 356.75 289.79 356.23 289.93 355.71 290.07 355.2 290.28 354.75 290.52 354.3 290.79 353.92 291.07 353.54 291.38 353.19 291.73 352.88 292.11 352.64 292.49 352.36 292.9 352.15 293.28 352.02 293.73 351.91 294.15 351.81 294.6 351.77 295.05 351.77 295.5 351.84 295.94 351.91 296.36 352.05 296.84 352.22 297.22 352.47 297.67 352.74 298.09 353.09 298.47 353.47 298.81 353.88 299.16 354.37 299.51 354.92 299.71 354.95 299.92 354.99 300.13 354.99 300.4 354.95 301.23 354.88 302.69 354.71 302.86 354.33 303.07 353.99 303.31 353.64 303.52 353.36 303.79 353.09 304.03 352.88 304.31 352.67 304.59 352.5 304.9 352.33 305.18 352.22 305.49 352.12 305.8 352.05 306.11 352.02 306.42 351.98 306.73 352.02 307.08 352.05 307.39 352.12 307.7 352.19 308.01 352.29 308.32 352.43 308.6 352.6 308.91 352.78 309.15 352.98 309.43 353.23 309.7 353.47 309.95 353.75 310.19 354.06 310.39 354.37 310.6 354.71 310.77 355.06 310.95 355.44 311.09 355.85 312.05 355.92 312.95 355.99 313.37 356.06 313.78 356.13 314.16 356.2 314.54 356.3 314.92 356.41 315.27 356.51 315.62 356.65 315.93 356.82 316.27 356.96 316.55 357.13 316.86 357.34 317.1 357.55 317.38 357.75 317.62 358 317.86 358.24 318.1 358.51 318.28 358.79 318.48 359.14 318.69 359.45 318.86 359.79 319.07 360.17 319.21 360.56 319.38 360.97 319.52 361.38 319.66 361.83 319.8 362.32 319.94 362.8 320.04 363.32 320.8 363.32 321.49 363.39 321.84 363.42 322.15 363.49 322.46 363.56 322.77 363.63 323.08 363.74 323.39 363.84 323.7 363.98 324.01 364.15 324.36 364.36 324.71 364.56 325.05 364.77 325.43 365.05 325.68 365.39 325.85 365.57 325.99 365.7 326.23 365.81 326.3 365.29 326.37 364.84 326.5 364.39 326.68 363.98 326.88 363.6 327.09 363.25 327.33 362.9 327.61 362.59 327.89 362.35 328.2 362.11 328.54 361.9 328.86 361.73 329.2 361.59 329.55 361.49 329.89 361.42 330.31 361.35 330.65 361.35 331.03 361.38 331.38 361.45 331.76 361.56 332.07 361.66 332.45 361.83 332.76 362.01 333.07 362.28 333.38 362.52 333.69 362.84 333.94 363.18 334.18 363.56 334.42 363.98 334.59 364.43 334.77 364.94 334.9 365.46 335.46 365.36 336.01 365.26 336.53 365.19 337.05 365.15 337.57 365.12 338.05 365.12 338.5 365.15 338.98 365.15 339.43 365.22 339.85 365.32 340.26 365.43 340.68 365.57 341.06 365.7 341.4 365.88 341.78 366.09 342.13 366.29 342.44 366.54 342.75 366.81 343.03 367.12 343.31 367.4 343.55 367.75 343.82 368.13 344.03 368.51 344.27 368.92 344.48 369.33 344.65 369.79 344.79 370.27 344.96 370.75 345.1 371.27 345.21 371.86 345.34 372.41 345.41 373.03 345.79 372.86 346.11 372.72 346.49 372.62 346.83 372.52 347.18 372.41 347.52 372.34 347.87 372.31 348.21 372.24 348.56 372.2 348.87 372.2 349.22 372.2 349.53 372.24 349.84 372.27 350.12 372.31 350.46 372.41 350.74 372.52 351.01 372.62 351.29 372.72 351.57 372.9 351.84 373.03 352.12 373.24 352.4 373.45 352.64 373.66 352.88 373.9 353.12 374.14 353.33 374.42 353.57 374.73 353.78 375.04 353.99 375.38 354.19 375.73 354.37 376.11 354.54 376.53 354.92 376.42 355.23 376.32 355.58 376.25 355.92 376.18 356.27 376.14 356.58 376.11 356.89 376.14 357.2 376.18 357.55 376.21 357.82 376.28 358.1 376.35 358.38 376.46 358.65 376.6 358.93 376.7 359.14 376.87 359.38 377.04 359.59 377.22 359.79 377.42 359.97 377.63 360.17 377.87 360.31 378.15 360.45 378.39 360.56 378.67 360.69 378.98 360.76 379.29 360.83 379.6 360.9 379.95 360.9 380.29 360.9 380.64 360.9 381.02 360.87 381.4 360.8 381.81 355.75 386.45 350.67 391.11 345.62 395.78 340.57 400.41 335.53 405.08 330.48 409.75 325.4 414.41 320.35 419.05 315.3 423.71 310.26 428.38 305.21 433.05 300.16 437.71 295.12 442.38 290.07 447.01 285.02 451.68 279.97 456.35 279.49 456.31 279.49 456.31"/><polygon class="cls-3" points="411.41 305.63 411.41 305.83 411.41 306 411.41 306.18 411.41 306.35 411.41 308.18 411.41 309.98 411.41 311.81 411.37 313.61 411.37 315.44 411.37 317.24 411.37 319.04 411.34 320.87 411.34 322.67 411.3 324.5 411.3 326.3 411.27 328.13 411.27 329.93 411.23 331.76 411.23 333.56 411.2 335.35 408.64 337.7 406.12 340.06 403.56 342.37 401.04 344.72 398.48 347.07 395.95 349.39 393.43 351.74 390.87 354.06 388.35 356.41 385.79 358.76 383.27 361.07 380.71 363.42 378.19 365.77 375.63 368.09 373.1 370.44 370.55 372.79 370.13 373.24 369.68 373.69 369.23 374.04 368.78 374.38 368.33 374.66 367.88 374.87 367.43 375.07 366.98 375.21 366.54 375.28 366.12 375.35 365.67 375.35 365.29 375.32 364.88 375.25 364.5 375.14 364.12 375 363.74 374.8 363.39 374.62 363.08 374.35 362.8 374.11 362.52 373.76 362.25 373.45 362.08 373.07 361.87 372.69 361.69 372.27 361.59 371.86 361.49 371.38 361.42 370.89 361.42 370.41 361.42 369.89 361.49 369.33 361.59 368.78 361.76 368.23 361.14 368.37 360.56 368.51 359.97 368.61 359.41 368.71 358.86 368.75 358.34 368.78 357.82 368.78 357.34 368.75 356.86 368.71 356.41 368.64 355.96 368.54 355.51 368.4 355.09 368.26 354.71 368.09 354.33 367.88 353.99 367.68 353.64 367.43 353.33 367.16 353.02 366.88 352.71 366.54 352.43 366.22 352.19 365.84 351.95 365.46 351.7 365.05 351.5 364.63 351.32 364.18 351.19 363.74 351.01 363.22 350.88 362.7 350.77 362.14 350.67 361.59 350.56 361.04 350.15 361.21 349.74 361.35 349.32 361.49 348.87 361.63 348.49 361.76 348.04 361.87 347.63 361.94 347.21 362.01 346.8 362.04 346.38 362.08 346 362.08 345.59 362.08 345.21 362.04 344.86 362.01 344.48 361.9 344.13 361.83 343.75 361.69 343.44 361.56 343.1 361.42 342.79 361.25 342.51 361.04 342.2 360.83 341.92 360.56 341.68 360.31 341.44 360 341.2 359.69 340.99 359.31 340.82 358.96 340.64 358.58 340.47 358.13 340.33 357.69 340.23 357.24 339.74 357.37 339.23 357.51 338.78 357.62 338.29 357.75 337.81 357.82 337.36 357.89 336.91 357.96 336.46 358 336.05 358.03 335.63 358.03 335.22 358.03 334.8 358 334.39 357.93 334.01 357.89 333.66 357.82 333.25 357.69 332.93 357.58 332.55 357.41 332.21 357.27 331.86 357.1 331.55 356.89 331.24 356.65 330.96 356.37 330.65 356.1 330.38 355.78 330.1 355.47 329.82 355.13 329.58 354.75 329.3 354.33 329.06 353.92 328.86 353.47 328.61 352.98 328.54 353.02 328.48 353.09 328.37 353.23 328.23 353.4 327.82 353.88 327.16 354.64 326.71 354.82 326.3 354.95 325.92 355.02 325.54 355.06 325.19 355.06 324.81 354.99 324.46 354.92 324.19 354.78 323.88 354.61 323.6 354.44 323.36 354.23 323.15 353.99 322.94 353.75 322.74 353.43 322.63 353.16 322.49 352.85 322.43 352.54 322.36 352.22 322.36 351.91 322.39 351.57 322.43 351.26 322.56 350.98 322.7 350.67 322.84 350.39 323.08 350.08 323.36 349.84 323.67 349.6 324.01 349.39 324.39 349.22 324.85 349.04 325.36 348.94 325.92 348.84 325.78 348.11 325.68 347.45 325.61 346.87 325.57 346.31 325.57 345.76 325.57 345.24 325.64 344.69 325.64 344.06 324.98 344.03 324.26 343.93 323.53 343.82 322.81 343.69 322.15 343.58 321.49 343.51 321.21 343.48 320.9 343.44 320.66 343.44 320.45 343.48 320 344.1 319.59 344.65 319.14 345.1 318.69 345.48 318.21 345.73 317.76 345.93 317.31 346.04 316.86 346.07 316.41 346.04 316 345.93 315.58 345.79 315.2 345.59 314.82 345.34 314.47 345.03 314.13 344.72 313.85 344.34 313.57 343.96 313.37 343.55 313.16 343.13 313.02 342.68 312.95 342.23 312.92 341.78 312.92 341.33 312.99 340.92 313.09 340.47 313.26 340.09 313.51 339.71 313.82 339.36 314.2 339.05 314.65 338.78 315.2 338.53 315.79 338.33 315.65 337.7 315.55 337.12 315.44 336.56 315.37 335.98 315.34 335.46 315.27 334.9 315.27 334.39 315.24 333.87 314.58 333.87 313.99 333.87 313.44 333.8 312.95 333.76 312.5 333.73 312.16 333.69 311.85 333.66 311.61 333.66 311.33 334.04 311.02 334.39 310.67 334.66 310.36 334.9 310.01 335.04 309.67 335.18 309.29 335.29 308.98 335.29 308.6 335.32 308.25 335.29 307.91 335.22 307.6 335.11 307.25 334.97 306.97 334.77 306.7 334.59 306.45 334.35 306.21 334.11 306.04 333.83 305.9 333.52 305.76 333.21 305.69 332.9 305.63 332.55 305.63 332.21 305.69 331.86 305.8 331.48 305.94 331.1 306.18 330.72 306.45 330.34 306.8 329.96 307.21 329.58 307.7 329.2 308.25 328.86 307.91 328.34 307.66 327.85 307.39 327.37 307.21 326.88 307.08 326.44 306.94 325.95 306.87 325.5 306.83 325.05 306.8 324.64 306.87 324.22 306.9 323.81 307.01 323.43 307.15 323.01 307.32 322.67 307.49 322.32 307.73 322.01 307.98 321.7 308.25 321.42 308.53 321.15 308.87 320.94 309.22 320.7 309.6 320.52 309.98 320.35 310.43 320.21 310.84 320.11 311.33 320.04 311.78 320 312.26 319.97 312.78 319.97 313.3 320.04 313.85 320.11 314.4 320.21 314.34 319.8 314.34 319.35 314.3 318.97 314.3 318.55 314.3 318.17 314.3 317.83 314.34 317.48 314.37 317.17 314.44 316.86 314.51 316.58 314.61 316.31 314.72 316.06 314.82 315.82 314.96 315.58 315.13 315.34 315.27 315.17 315.48 314.96 315.65 314.79 315.86 314.61 316.06 314.44 316.31 314.3 316.58 314.16 316.86 314.02 317.1 313.92 317.41 313.82 317.72 313.71 318.07 313.61 318.42 313.51 319.14 313.37 319.94 313.23 320.07 312.61 320.18 312.05 320.32 311.47 320.52 310.95 320.7 310.43 320.9 309.95 321.11 309.46 321.39 309.01 321.63 308.6 321.91 308.18 322.22 307.8 322.53 307.46 322.84 307.15 323.19 306.83 323.53 306.56 323.95 306.28 324.33 306.04 324.71 305.83 325.12 305.63 325.57 305.45 326.02 305.31 326.5 305.18 326.95 305.04 327.47 304.97 327.96 304.9 328.48 304.86 328.99 304.8 329.55 304.8 330.1 304.83 330.69 304.86 331.27 304.9 331.86 304.97 332 304.97 332.14 304.9 332.28 304.86 332.42 304.76 332.9 304.38 333.69 303.72 334.18 303.55 334.7 303.41 335.15 303.34 335.67 303.27 336.18 303.27 336.7 303.31 337.25 303.34 337.84 303.45 337.84 302.75 337.91 302.06 337.98 301.41 338.12 300.79 338.22 300.13 338.36 299.54 338.53 298.92 338.74 298.37 338.95 297.78 339.19 297.26 339.47 296.74 339.74 296.26 340.06 295.77 340.4 295.32 340.75 294.91 341.13 294.49 341.51 294.15 341.96 293.8 342.41 293.49 342.89 293.18 343.37 292.9 343.89 292.7 344.44 292.49 345 292.31 345.59 292.18 346.21 292.07 346.83 292 347.52 291.97 348.21 291.97 348.9 291.97 349.67 292.04 350.43 292.18 350.46 291.52 350.56 290.93 350.7 290.38 350.84 289.83 351.01 289.31 351.22 288.82 351.43 288.38 351.67 287.93 351.95 287.51 352.22 287.13 352.54 286.78 352.88 286.44 353.23 286.13 353.61 285.89 353.99 285.61 354.4 285.44 354.78 285.23 355.23 285.06 355.68 284.92 356.16 284.81 356.61 284.75 357.1 284.71 357.62 284.71 358.1 284.71 358.58 284.75 359.1 284.81 359.62 284.88 360.17 285.02 360.69 285.16 361.25 285.37 361.8 285.57 362.32 285.82 362.52 285.02 362.73 284.37 362.94 283.78 363.18 283.26 363.29 283.05 363.39 282.84 363.53 282.64 363.63 282.46 363.77 282.32 363.91 282.19 364.08 282.08 364.22 281.98 364.43 281.88 364.56 281.81 364.77 281.74 364.98 281.67 365.43 281.6 365.91 281.53 366.47 281.5 367.05 281.5 367.75 281.5 368.51 281.5 368.68 281.12 368.89 280.8 369.06 280.49 369.23 280.18 369.44 279.9 369.65 279.66 369.89 279.42 370.1 279.21 370.34 279.04 370.61 278.87 370.89 278.73 371.2 278.63 371.55 278.52 371.93 278.45 372.31 278.42 372.72 278.38 375.83 279.39 378.94 280.36 382.02 281.29 385.03 282.26 386.52 282.81 388 283.33 389.42 283.85 390.84 284.43 392.25 285.02 393.6 285.61 394.95 286.27 396.26 286.99 397.54 287.72 398.79 288.48 400 289.31 401.14 290.14 402.28 291.07 403.35 292.04 404.39 293.11 405.39 294.18 406.32 295.36 407.22 296.57 408.09 297.88 408.85 299.26 409.57 300.75 410.23 302.27 410.85 303.93 411.41 305.63 411.41 305.63"/><polygon class="cls-3" points="147.19 331.48 147.19 329.82 147.19 328.16 147.19 326.5 147.19 324.85 147.19 323.19 147.19 321.53 147.19 319.87 147.19 318.21 147.19 316.55 147.19 314.89 147.19 313.23 147.19 311.57 147.19 309.91 147.19 308.25 147.19 306.59 147.19 304.93 147.54 302.93 148.02 300.92 148.34 299.78 148.75 298.37 149.3 297.29 149.86 296.32 150.38 295.46 150.93 294.6 151.45 293.84 152.03 293.11 152.59 292.38 153.21 291.76 153.83 291.14 154.52 290.52 155.22 289.96 155.97 289.38 156.81 288.82 157.7 288.24 158.64 287.68 159.64 287.1 161.19 286.51 162.75 285.89 164.31 285.3 166.62 284.4 168.97 283.5 171.29 282.6 173.61 281.7 175.92 280.77 178.27 279.87 180.59 278.97 182.91 278.07 184.46 277.49 184.91 277.49 185.32 277.52 185.71 277.56 186.09 277.62 186.43 277.69 186.78 277.8 187.09 277.94 187.36 278.11 187.64 278.31 187.88 278.52 188.12 278.8 188.33 279.11 188.54 279.46 188.75 279.84 188.92 280.25 189.09 280.7 189.51 280.56 189.96 280.39 190.37 280.25 190.82 280.15 191.24 280.08 191.69 280.04 192.06 280.04 192.48 280.08 192.69 280.11 192.9 280.18 193.07 280.25 193.28 280.29 193.45 280.39 193.66 280.49 193.86 280.6 194.04 280.74 194.21 280.87 194.38 281.01 194.55 281.22 194.73 281.39 194.9 281.6 195.04 281.81 195.21 282.05 195.35 282.29 195.87 282.26 196.35 282.26 196.87 282.22 197.32 282.26 197.77 282.26 198.22 282.29 198.63 282.36 199.05 282.43 199.43 282.53 199.84 282.6 200.22 282.74 200.57 282.88 200.91 283.05 201.26 283.19 201.57 283.4 201.88 283.6 202.19 283.85 202.47 284.09 202.75 284.37 202.99 284.64 203.23 284.95 203.47 285.26 203.68 285.61 203.89 285.99 204.09 286.37 204.3 286.78 204.44 287.2 204.61 287.65 204.75 288.1 204.89 288.62 204.99 289.1 205.13 289.65 205.48 289.58 205.86 289.51 206.2 289.48 206.51 289.48 206.83 289.48 207.1 289.48 207.38 289.55 207.66 289.62 207.9 289.69 208.14 289.76 208.35 289.9 208.56 290 208.76 290.14 208.94 290.31 209.11 290.48 209.28 290.66 209.42 290.86 209.56 291.07 209.66 291.31 209.8 291.52 209.9 291.8 210.01 292.04 210.08 292.31 210.15 292.59 210.25 293.18 210.32 293.84 210.39 294.49 210.39 295.15 210.97 295.5 211.53 295.81 212.01 296.12 212.5 296.43 212.94 296.77 213.39 297.19 213.91 297.71 214.47 298.26 215.05 298.12 215.64 298.02 216.19 297.88 216.75 297.81 217.27 297.78 217.82 297.74 218.34 297.74 218.86 297.78 219.34 297.81 219.82 297.92 220.31 298.02 220.76 298.16 221.17 298.3 221.62 298.47 222 298.68 222.42 298.92 222.76 299.16 223.11 299.47 223.45 299.75 223.76 300.09 224.04 300.44 224.32 300.85 224.56 301.23 224.77 301.68 224.97 302.17 225.15 302.65 225.29 303.17 225.42 303.72 225.49 304.31 225.6 304.9 225.63 305.56 225.63 306.21 226.15 306.21 226.7 306.28 227.22 306.35 227.71 306.45 228.22 306.63 228.67 306.76 228.88 306.87 229.09 307.01 229.3 307.11 229.5 307.28 229.68 307.42 229.85 307.56 230.02 307.73 230.16 307.94 230.26 308.11 230.4 308.32 230.47 308.6 230.57 308.81 230.64 309.08 230.68 309.36 230.75 309.63 230.75 309.98 230.75 310.29 230.71 310.64 230.68 310.98 230.61 311.36 231.2 311.16 231.78 311.02 232.37 310.88 232.93 310.74 233.48 310.67 234.03 310.64 234.55 310.57 235.07 310.57 235.55 310.6 236.04 310.67 236.49 310.74 236.94 310.84 237.35 310.98 237.77 311.16 238.18 311.33 238.56 311.54 238.94 311.81 239.25 312.05 239.6 312.37 239.91 312.68 240.22 313.06 240.5 313.4 240.77 313.82 241.01 314.23 241.22 314.72 241.43 315.2 241.64 315.72 241.81 316.27 241.95 316.82 242.09 317.41 242.19 318.04 242.29 318.69 242.6 318.97 242.88 319.28 243.16 319.59 243.4 319.87 243.64 320.18 243.85 320.45 244.06 320.8 244.26 321.11 244.4 321.42 244.58 321.77 244.71 322.15 244.85 322.49 244.99 322.91 245.09 323.36 245.2 323.81 245.3 324.29 245.65 324.33 245.96 324.39 246.27 324.46 246.55 324.57 246.79 324.67 247.03 324.81 247.27 324.91 247.44 325.09 247.62 325.26 247.79 325.43 247.93 325.61 248.03 325.78 248.14 325.99 248.21 326.19 248.24 326.44 248.28 326.64 248.28 326.85 248.28 327.09 248.21 327.3 248.14 327.54 248.07 327.75 247.96 327.99 247.82 328.2 247.69 328.44 247.51 328.65 247.31 328.86 247.1 329.06 246.86 329.27 246.62 329.44 246.3 329.62 245.99 329.79 245.68 329.96 245.68 330.41 245.68 330.89 245.68 331.34 245.65 331.83 245.61 332.28 245.54 332.8 245.47 333.35 245.37 333.87 245.72 334.01 246.06 334.11 246.41 334.21 246.75 334.32 247.13 334.7 247.48 335.04 247.72 335.42 247.93 335.8 248.07 336.15 248.14 336.53 248.17 336.88 248.14 337.25 248.07 337.57 248 337.91 247.82 338.22 247.65 338.5 247.48 338.78 247.2 339.05 246.96 339.26 246.68 339.43 246.37 339.64 246.1 339.78 245.75 339.88 245.44 339.95 245.09 339.99 244.75 339.99 244.4 339.95 244.06 339.85 243.75 339.71 243.44 339.5 243.12 339.3 242.85 338.98 242.57 338.64 242.36 338.26 242.12 337.81 241.95 337.25 241.22 337.32 240.53 337.39 239.81 337.5 239.08 337.57 239.08 338.64 239.01 339.57 238.97 339.95 238.94 340.33 238.87 340.68 238.8 341.02 238.73 341.33 238.59 341.68 238.46 342.03 238.28 342.41 238.08 342.75 237.87 343.17 237.59 343.58 237.28 344.06 237.7 344.34 238.08 344.65 238.42 344.96 238.73 345.27 239.01 345.62 239.22 345.97 239.43 346.31 239.6 346.66 239.74 347 239.84 347.38 239.91 347.69 239.94 348.07 239.94 348.42 239.91 348.77 239.87 349.08 239.81 349.42 239.67 349.74 239.53 350.08 239.36 350.36 239.15 350.67 238.94 350.91 238.66 351.19 238.42 351.43 238.08 351.64 237.77 351.84 237.42 352.02 237.04 352.15 236.63 352.29 236.18 352.4 235.73 352.47 235.28 352.5 234.79 352.54 234.14 352.19 233.55 351.84 233.31 351.64 233.03 351.46 232.82 351.29 232.62 351.12 232.44 350.91 232.24 350.74 232.1 350.53 231.96 350.32 231.85 350.15 231.72 349.94 231.65 349.74 231.54 349.49 231.51 349.29 231.47 349.08 231.41 348.84 231.41 348.59 231.41 348.35 231.41 348.11 231.44 347.87 231.47 347.63 231.58 347.07 231.72 346.52 231.92 345.93 232.16 345.34 231.89 345.27 231.61 345.21 231.34 345.14 231.06 345.03 230.54 344.83 230.09 344.55 229.61 344.31 229.16 344.06 228.95 343.96 228.74 343.89 228.5 343.82 228.29 343.75 228.19 344.06 228.05 344.34 227.91 344.58 227.78 344.83 227.6 345.07 227.46 345.27 227.29 345.48 227.12 345.69 226.74 346.11 226.32 346.45 225.87 346.83 225.35 347.18 225.56 347.63 225.77 348.04 225.94 348.42 226.08 348.84 226.19 349.22 226.29 349.6 226.32 349.94 226.39 350.29 226.39 350.67 226.39 350.98 226.36 351.29 226.32 351.6 226.25 351.91 226.15 352.19 226.01 352.47 225.87 352.71 225.74 352.95 225.56 353.19 225.35 353.4 225.11 353.61 224.87 353.78 224.59 353.95 224.32 354.09 224.01 354.23 223.66 354.33 223.32 354.44 222.94 354.54 222.56 354.61 222.14 354.61 221.73 354.68 221.28 354.68 220.83 354.64 220.38 354.4 220 354.23 219.65 354.13 219.34 354.06 219.1 354.02 218.86 354.06 218.61 354.13 218.41 354.19 218.2 354.33 217.99 354.47 217.75 354.68 217.54 354.85 217.27 355.06 216.96 355.27 216.61 355.51 216.26 355.75 216.3 356.23 216.3 356.68 216.37 357.17 216.37 357.65 216.44 358.13 216.47 358.58 216.51 359.1 216.54 359.59 216.37 360.04 216.19 360.52 215.99 360.97 215.78 361.38 215.54 361.76 215.3 362.14 215.02 362.46 214.71 362.77 214.43 363.08 214.12 363.32 213.81 363.56 213.46 363.77 213.15 363.94 212.81 364.12 212.43 364.25 212.08 364.32 211.7 364.43 211.32 364.5 210.91 364.5 210.53 364.5 210.11 364.5 209.73 364.46 209.35 364.39 208.94 364.32 208.52 364.18 208.1 364.05 207.69 363.87 207.31 363.67 206.9 363.46 206.51 363.22 206.1 362.97 205.72 362.66 205.65 363.15 205.58 363.6 205.55 364.05 205.44 364.5 205.34 364.91 205.2 365.29 205.1 365.7 204.96 366.09 204.82 366.43 204.65 366.81 204.48 367.12 204.3 367.47 204.09 367.75 203.85 368.06 203.65 368.33 203.4 368.57 203.13 368.85 202.85 369.09 202.57 369.3 202.26 369.51 201.95 369.68 201.64 369.89 201.29 370.03 200.95 370.2 200.53 370.34 200.16 370.44 199.74 370.55 199.36 370.61 198.91 370.72 198.46 370.75 197.98 370.82 197.53 370.86 196.42 370.65 195.83 370.55 195.63 370.55 195.49 370.55 195.35 370.55 195.21 370.55 194.9 370.93 194.59 371.31 194.24 371.65 193.86 371.96 193.48 372.24 193.07 372.52 192.65 372.76 192.24 372.96 191.79 373.1 191.34 373.24 190.89 373.38 190.41 373.41 190.16 373.45 189.92 373.45 189.72 373.41 189.44 373.38 189.23 373.38 188.99 373.31 188.75 373.24 188.5 373.17 185.15 369.79 182.11 366.64 179.28 363.77 176.68 361.07 174.23 358.58 171.91 356.2 169.66 353.95 167.49 351.7 165.31 349.53 163.13 347.31 160.85 345.03 158.5 342.68 155.97 340.16 153.28 337.5 150.38 334.63 147.19 331.48 147.19 331.48"/><polygon class="cls-3" points="269.85 349.42 269.71 349.32 269.53 349.22 269.26 349.08 268.95 348.94 268.64 348.84 268.32 348.63 268.01 348.46 267.7 348.25 267.36 347.73 267.08 347.25 266.87 346.73 266.7 346.28 266.63 346.07 266.6 345.83 266.56 345.62 266.53 345.41 266.53 345.17 266.53 344.96 266.56 344.76 266.56 344.55 266.63 344.38 266.7 344.17 266.77 344 266.84 343.79 266.98 343.62 267.08 343.44 267.22 343.24 267.36 343.06 267.53 342.89 267.7 342.72 267.88 342.54 268.08 342.41 268.57 342.06 269.08 341.71 269.64 341.61 270.19 341.54 270.68 341.54 271.16 341.61 271.57 341.71 271.99 341.85 272.33 342.06 272.68 342.27 272.99 342.54 273.27 342.86 273.51 343.17 273.72 343.51 273.89 343.82 273.99 344.24 274.13 344.62 274.17 345 274.2 345.41 274.17 345.79 274.13 346.21 274.03 346.59 273.89 346.97 273.72 347.31 273.54 347.66 273.27 347.97 272.99 348.28 272.68 348.56 272.3 348.8 271.88 349.01 271.44 349.18 270.95 349.29 270.43 349.35 269.85 349.42 269.85 349.42"/><polygon class="cls-3" points="411.2 335.35 411.23 333.56 411.23 331.72 411.23 329.93 411.23 328.09 411.27 326.3 411.27 324.46 411.3 322.67 411.3 320.87 411.3 319.04 411.34 317.24 411.34 315.41 411.37 313.61 411.37 311.81 411.37 309.98 411.41 308.18 411.41 306.35 411.41 308.18 411.41 309.98 411.41 311.81 411.41 313.61 411.41 315.41 411.41 317.24 411.41 319.04 411.41 320.87 411.41 322.67 411.41 324.46 411.41 326.3 411.41 328.09 411.41 329.93 411.41 331.72 411.41 333.56 411.41 335.35 411.3 335.35 411.2 335.35 411.2 335.35"/><polygon class="cls-3" points="308.7 239.04 308.7 241.4 308.7 243.75 308.7 246.1 308.74 248.45 308.77 250.8 308.81 253.15 308.84 255.5 308.87 257.85 309.12 257.92 309.43 258.02 309.81 258.13 312.71 258.96 315.62 259.82 318.52 260.69 321.39 261.62 324.29 262.52 327.2 263.49 330.1 264.42 333 265.39 335.91 266.35 338.81 267.36 341.68 268.32 344.58 269.29 347.45 270.26 350.36 271.23 353.23 272.16 356.1 273.1 357.69 273.61 357.69 274.17 357.65 274.65 357.62 275.1 357.55 275.45 357.41 275.79 357.31 276.07 357.2 276.21 357.13 276.31 357.06 276.41 356.96 276.52 356.75 276.69 356.48 276.83 356.2 276.97 355.89 277.04 355.51 277.14 355.09 277.21 354.64 277.24 354.13 277.31 354.06 277.62 353.99 277.9 353.92 278.21 353.81 278.45 353.71 278.73 353.61 278.97 353.47 279.21 353.33 279.46 353.16 279.7 353.02 279.9 352.85 280.11 352.64 280.36 352.22 280.77 351.77 281.15 351.64 281.67 351.46 282.12 351.29 282.57 351.12 282.98 350.91 283.4 350.67 283.78 350.43 284.16 350.15 284.47 349.87 284.78 349.6 285.09 349.29 285.33 349.01 285.57 348.66 285.78 348.35 285.95 348.01 286.13 347.66 286.23 347.31 286.33 346.93 286.4 346.59 286.44 346.17 286.44 345.83 286.4 345.45 286.33 345.07 286.27 344.69 286.13 344.31 285.95 343.96 285.78 343.55 285.54 343.2 285.3 342.82 284.99 342.48 284.64 342.13 284.26 341.75 283.85 341.64 284.5 341.51 285.09 341.44 285.37 341.37 285.61 341.26 285.85 341.16 286.09 341.06 286.27 340.95 286.47 340.85 286.65 340.71 286.78 340.57 286.96 340.44 287.1 340.26 287.2 340.12 287.34 339.78 287.51 339.43 287.72 339.02 287.86 338.57 287.99 338.08 288.1 337.53 288.17 336.98 288.27 336.39 288.38 336.46 288.82 336.56 289.24 336.63 289.65 336.67 290.03 336.74 290.41 336.74 290.79 336.74 291.14 336.7 291.49 336.67 291.83 336.6 292.14 336.53 292.45 336.46 292.73 336.36 293.01 336.22 293.28 336.08 293.52 335.94 293.77 335.77 294.01 335.6 294.22 335.39 294.42 335.15 294.6 334.94 294.8 334.66 294.98 334.39 295.15 334.11 295.29 333.8 295.46 333.49 295.56 333.18 295.7 332.8 295.81 332.45 295.91 332.07 296.01 331.65 296.08 331.24 296.19 330.38 295.98 329.65 295.81 329.3 295.74 329.06 295.67 328.82 295.63 328.61 295.67 328.09 295.98 327.58 296.29 327.02 296.53 326.5 296.77 326.23 296.84 325.95 296.91 325.71 296.98 325.43 297.05 325.16 297.09 324.91 297.09 324.64 297.09 324.39 297.09 324.12 297.05 323.88 297.02 323.67 296.95 323.43 296.88 323.22 296.77 322.98 296.67 322.77 296.53 322.56 296.39 322.36 296.19 322.18 296.01 322.01 295.81 321.84 295.56 321.7 295.32 321.56 295.05 321.46 294.74 321.32 294.42 321.18 294.46 321.04 294.49 320.9 294.56 320.77 294.67 320.32 294.98 319.56 295.6 319 295.74 318.45 295.84 317.93 295.91 317.45 295.94 316.96 295.91 316.55 295.88 316.13 295.81 315.72 295.67 315.34 295.46 314.99 295.25 314.61 295.01 314.3 294.74 313.99 294.39 313.68 294.01 313.4 293.63 313.09 293.18 312.33 293.04 311.57 292.94 310.81 292.83 310.08 292.7 309.91 293.6 309.77 294.18 309.6 294.74 309.32 295.53 309.81 295.7 310.22 295.94 310.57 296.22 310.88 296.5 311.12 296.84 311.29 297.22 311.43 297.61 311.54 298.02 311.54 298.4 311.54 298.81 311.47 299.26 311.4 299.68 311.26 300.06 311.09 300.47 310.88 300.85 310.64 301.23 310.36 301.58 310.08 301.89 309.77 302.2 309.43 302.44 309.05 302.65 308.67 302.82 308.29 302.93 307.87 303 307.46 303 307.01 302.93 306.59 302.79 306.14 302.58 305.69 302.31 305.24 301.96 304.83 301.51 304.38 300.99 304.1 300.99 303.86 300.99 303.58 300.99 303.34 301.03 302.82 301.17 302.31 301.3 301.82 301.51 301.3 301.68 301.06 301.75 300.82 301.82 300.58 301.86 300.37 301.89 300.13 302.48 299.89 303 299.61 303.52 299.3 303.96 298.95 304.38 298.61 304.73 298.26 305.04 297.88 305.31 297.47 305.56 297.05 305.76 296.64 305.9 296.19 306 295.77 306.07 295.32 306.11 294.91 306.07 294.46 306.04 294.04 305.94 293.63 305.8 293.21 305.63 292.83 305.45 292.45 305.21 292.11 304.93 291.76 304.62 291.45 304.28 291.14 303.9 290.86 303.48 290.66 303.03 290.41 302.55 290.28 302.06 290.14 301.51 290.03 300.92 289.96 300.33 290.1 299.78 290.21 299.26 290.24 298.81 290.21 298.4 290.17 297.99 290.07 297.61 289.96 297.22 289.83 296.91 289.48 296.19 289.07 295.46 288.86 295.08 288.65 294.67 288.44 294.22 288.24 293.77 288.1 292.63 288.03 291.59 287.99 291.07 287.99 290.62 287.99 290.14 288.03 289.65 288.06 289.2 288.13 288.72 288.24 288.27 288.31 287.82 288.44 287.34 288.58 286.85 288.75 286.4 288.96 285.89 288.82 285.06 288.62 284.23 288.44 283.4 288.24 282.6 288.03 281.81 287.86 281.01 287.79 280.63 287.72 280.25 287.65 279.84 287.65 279.46 287.17 279.39 286.75 279.25 286.37 279.14 286.02 278.97 285.71 278.8 285.44 278.63 285.19 278.38 284.99 278.18 284.81 277.94 284.68 277.69 284.54 277.42 284.47 277.17 284.43 276.9 284.4 276.62 284.43 276.38 284.43 276.1 284.5 275.83 284.61 275.58 284.75 275.34 284.88 275.1 285.09 274.89 285.26 274.72 285.5 274.51 285.75 274.37 286.06 274.24 286.33 274.13 286.68 274.06 287.03 273.99 287.41 273.99 287.79 273.99 288.24 274.06 288.65 274.17 288.93 274.34 289.07 274.41 289.24 274.44 289.41 274.44 289.62 274.2 289.76 273.93 289.86 273.68 289.93 273.48 289.96 273.23 289.96 273.03 289.96 272.78 289.93 272.58 289.79 272.13 289.62 271.68 289.41 271.23 289.24 270.71 289.27 270.02 289.31 269.26 289.41 268.5 289.48 267.7 289.58 266.91 289.62 266.25 289.65 265.94 289.69 265.63 289.65 265.39 289.62 265.18 289.17 264.8 288.75 264.45 288.38 264.07 288.06 263.69 287.79 263.35 287.58 262.93 287.37 262.55 287.23 262.14 287.13 261.72 287.1 261.27 287.06 260.86 287.1 260.41 287.17 259.96 287.23 259.51 287.37 259.03 287.58 258.54 287.17 258.23 286.85 257.88 286.51 257.54 286.2 257.19 285.89 256.88 285.64 256.54 285.4 256.19 285.16 255.84 284.95 255.5 284.78 255.15 284.61 254.77 284.5 254.43 284.37 254.08 284.3 253.74 284.23 253.39 284.19 253.04 284.16 252.66 284.19 252.35 284.23 251.97 284.3 251.63 284.4 251.28 284.54 250.94 284.68 250.59 284.88 250.25 285.09 249.93 285.33 249.59 285.57 249.24 285.89 248.93 286.2 248.62 286.58 248.31 286.96 248 287.37 247.69 287.3 247.48 287.1 247.24 286.85 246.89 286.51 246.51 286.16 246.1 285.78 245.58 285.37 245.06 284.99 244.47 284.78 243.95 284.61 243.47 284.43 242.95 284.3 242.5 284.19 242.02 284.09 241.53 284.02 241.08 283.95 240.63 283.92 240.15 283.88 239.7 283.88 239.25 283.88 238.77 283.92 238.32 283.95 237.84 283.98 237.35 284.02 236.87 283.36 236.45 282.77 236.04 282.26 235.62 281.81 235.21 281.6 235 281.43 234.79 281.25 234.55 281.08 234.34 280.94 234.14 280.8 233.89 280.67 233.69 280.56 233.44 280.36 233 280.18 232.48 280.04 231.92 279.94 231.41 279.87 230.82 279.8 230.16 279.77 229.5 279.73 228.78 279.87 228.22 279.94 227.84 279.94 227.74 279.9 227.57 279.9 227.36 279.84 227.15 279.46 226.84 279.11 226.53 278.83 226.25 278.59 225.94 278.42 225.67 278.25 225.35 278.11 225.04 278 224.77 277.94 224.46 277.87 224.11 277.83 223.8 277.8 223.49 277.73 222.8 277.66 222.04 276.97 222.28 276.27 222.49 275.58 222.73 274.89 222.97 274.89 223.25 274.82 223.49 274.79 223.76 274.75 224.04 274.62 224.59 274.48 225.11 274.31 225.67 274.2 226.22 274.13 226.5 274.13 226.74 274.1 227.05 274.06 227.33 274.37 227.64 274.65 227.95 274.93 228.26 275.17 228.57 275.38 228.92 275.55 229.23 275.76 229.54 275.89 229.85 276.03 230.16 276.1 230.47 276.21 230.78 276.24 231.09 276.27 231.41 276.27 231.72 276.27 231.99 276.27 232.3 276.21 232.62 276.14 232.93 276.03 233.2 275.93 233.51 275.79 233.79 275.62 234.07 275.45 234.34 275.24 234.62 275.03 234.93 274.79 235.21 274.51 235.48 274.24 235.73 273.93 236 273.61 236.25 273.27 236.52 272.92 236.76 273.13 237.25 273.37 237.7 273.58 238.18 273.75 238.63 273.93 239.08 274.06 239.49 274.17 239.94 274.27 240.39 274.34 240.77 274.41 241.22 274.44 241.64 274.44 242.02 274.44 242.43 274.37 242.81 274.34 243.19 274.27 243.57 274.17 243.95 274.06 244.33 273.89 244.68 273.72 245.03 273.54 245.37 273.3 245.72 273.06 246.06 272.82 246.41 272.51 246.72 272.23 247.03 271.88 247.34 271.5 247.69 271.09 247.96 270.71 248.28 270.26 248.59 269.81 248.86 269.98 250.14 270.09 251.28 270.12 251.8 270.12 252.32 270.12 252.84 270.05 253.32 270.02 253.81 269.92 254.32 269.81 254.81 269.67 255.33 269.53 255.88 269.33 256.43 269.08 257.02 268.84 257.64 269.4 257.99 269.92 258.3 270.33 258.58 270.71 258.85 271.06 259.1 271.37 259.3 271.61 259.44 271.88 259.58 272.23 259.44 272.54 259.34 272.89 259.27 273.2 259.23 273.48 259.27 273.79 259.3 274.06 259.41 274.31 259.51 274.58 259.65 274.79 259.82 275.03 260.03 275.2 260.2 275.38 260.44 275.51 260.69 275.65 260.93 275.76 261.2 275.83 261.48 275.86 261.76 275.86 262.07 275.86 262.34 275.79 262.62 275.72 262.9 275.58 263.17 275.45 263.45 275.24 263.73 275.03 263.97 274.75 264.21 274.44 264.42 274.06 264.63 273.65 264.76 273.23 264.9 272.75 265.04 272.99 265.45 273.2 265.87 273.44 266.32 273.61 266.73 273.79 267.18 273.96 267.6 274.06 268.01 274.2 268.46 274.27 268.88 274.34 269.33 274.37 269.74 274.41 270.16 274.41 270.57 274.37 270.99 274.34 271.4 274.27 271.82 274.17 272.23 274.06 272.61 273.93 272.99 273.75 273.37 273.54 273.75 273.34 274.1 273.1 274.44 272.82 274.79 272.54 275.13 272.23 275.45 271.88 275.76 271.5 276.1 271.13 276.38 270.71 276.66 270.26 276.9 269.78 277.17 269.71 278 269.6 278.8 269.53 279.18 269.46 279.52 269.4 279.9 269.29 280.25 269.19 280.63 269.05 280.98 268.95 281.36 268.77 281.7 268.6 282.08 268.39 282.46 268.22 282.88 267.98 283.33 268.19 283.47 268.39 283.6 268.57 283.78 268.74 283.92 268.88 284.12 269.02 284.26 269.15 284.43 269.26 284.64 269.33 284.81 269.43 284.99 269.5 285.16 269.53 285.37 269.57 285.54 269.6 285.75 269.6 285.92 269.6 286.09 269.53 286.27 269.53 286.47 269.46 286.68 269.4 286.85 269.29 287.03 269.19 287.2 269.05 287.37 268.95 287.58 268.81 287.72 268.64 287.93 268.46 288.06 268.29 288.24 268.08 288.38 267.84 288.55 267.63 288.69 267.36 288.82 267.56 289.31 267.74 289.76 267.94 290.21 268.08 290.69 268.19 291.14 268.29 291.59 268.36 292.04 268.43 292.49 268.46 292.94 268.46 293.35 268.46 293.8 268.43 294.22 268.39 294.63 268.29 295.05 268.22 295.46 268.08 295.84 267.94 296.26 267.77 296.64 267.56 297.02 267.36 297.4 267.15 297.74 266.91 298.09 266.6 298.47 266.32 298.81 265.97 299.13 265.66 299.44 265.28 299.75 264.9 300.06 264.49 300.33 264.04 300.65 263.59 300.92 263.11 301.17 263.11 301.48 263.11 301.79 263.07 302.1 263.04 302.34 262.97 302.62 262.9 302.89 262.79 303.14 262.69 303.34 262.62 303.55 262.52 303.76 262.38 303.93 262.24 304.1 262.1 304.24 261.93 304.38 261.79 304.52 261.62 304.62 261.44 304.73 261.24 304.8 261.06 304.86 260.86 304.86 260.65 304.9 260.44 304.9 260.2 304.9 259.99 304.86 259.75 304.8 259.51 304.73 259.3 304.66 259.03 304.52 258.78 304.38 258.54 304.24 258.26 304.07 258.02 303.9 257.82 303.55 257.71 303.2 257.61 302.89 257.54 302.55 257.5 301.96 257.44 301.3 257.02 301.1 256.61 300.89 256.19 300.68 255.84 300.47 255.5 300.27 255.15 300.06 254.88 299.82 254.57 299.61 254.29 299.33 254.05 299.09 253.77 298.81 253.56 298.54 253.32 298.26 253.11 297.95 252.87 297.64 252.66 297.26 252.39 297.15 252.11 297.05 251.52 297.15 251.01 297.26 250.49 297.36 250.04 297.4 249.55 297.43 249.1 297.4 248.66 297.36 248.24 297.33 247.79 297.26 247.38 297.15 246.96 297.05 246.51 296.91 246.1 296.77 245.65 296.57 245.16 296.39 244.68 296.19 244.26 296.71 243.85 297.15 243.4 297.61 242.95 298.02 242.47 298.37 241.95 298.71 241.46 299.02 240.95 299.26 240.39 299.47 239.87 299.64 239.32 299.78 238.77 299.85 238.22 299.92 237.7 299.95 237.14 299.92 236.59 299.89 236.07 299.78 235.55 299.68 235.07 299.51 234.55 299.3 234.07 299.06 233.62 298.78 233.17 298.47 232.75 298.12 232.37 297.74 231.99 297.29 231.65 296.84 231.34 296.36 231.06 295.81 230.82 295.25 230.61 294.63 230.44 294.01 229.33 293.84 228.29 293.63 227.81 293.56 227.33 293.42 226.91 293.28 226.46 293.14 226.29 293.04 226.08 292.94 225.87 292.83 225.7 292.7 225.56 292.56 225.35 292.38 225.22 292.25 225.08 292.04 224.91 291.87 224.77 291.62 224.66 291.38 224.56 291.14 224.42 290.86 224.32 290.59 224.25 290.28 224.18 289.93 222.35 289.83 220.69 289.69 219.89 289.65 219.17 289.55 218.82 289.48 218.48 289.41 218.16 289.34 217.82 289.24 217.54 289.13 217.23 289 216.92 288.86 216.64 288.69 216.37 288.51 216.09 288.31 215.85 288.06 215.57 287.82 215.37 287.51 215.12 287.2 214.91 286.85 214.67 286.51 214.47 286.09 214.29 285.68 214.09 285.19 213.91 284.71 213.05 284.57 212.22 284.5 211.49 284.37 210.77 284.19 210.46 284.12 210.15 283.98 209.87 283.92 209.56 283.78 209.28 283.64 209 283.5 208.76 283.4 208.49 283.22 208.28 283.05 208.04 282.91 207.83 282.7 207.59 282.53 207.38 282.29 207.17 282.08 206.97 281.84 206.79 281.6 206.41 281.05 206.07 280.46 205.72 279.8 205.37 279.04 204.41 279.04 203.51 278.97 202.64 278.87 201.88 278.76 201.54 278.66 201.16 278.59 200.85 278.49 200.5 278.38 200.22 278.28 199.91 278.14 199.64 278 199.36 277.87 199.08 277.69 198.84 277.52 198.56 277.31 198.36 277.11 198.12 276.9 197.91 276.66 197.7 276.38 197.49 276.1 197.28 275.83 197.11 275.51 196.91 275.2 196.73 274.86 196.35 274.13 196.01 273.3 196.07 273.1 196.15 272.92 198.91 271.92 201.68 270.92 204.48 269.92 207.24 268.91 210.01 267.91 212.81 266.87 215.57 265.87 218.34 264.87 221.1 263.87 223.9 262.83 226.67 261.83 229.43 260.82 232.2 259.79 235 258.78 237.77 257.78 240.53 256.74 240.88 254.25 241.19 251.87 241.5 249.59 241.81 247.34 242.09 245.09 242.33 242.78 242.57 240.32 242.78 237.73 241.36 235.83 240.01 233.93 238.66 231.96 237.38 229.99 236.11 227.95 234.86 225.91 233.69 223.83 232.51 221.73 231.41 219.62 230.3 217.47 229.26 215.3 228.26 213.08 227.29 210.87 226.36 208.62 225.49 206.38 224.63 204.13 223.83 201.85 223.11 199.53 222.38 197.22 221.73 194.9 221.14 192.58 220.55 190.23 220.07 187.88 219.58 185.53 219.17 183.15 218.82 180.8 218.51 178.44 218.27 176.06 218.06 173.68 217.92 171.32 217.82 168.94 217.82 166.59 217.78 163.34 217.92 160.12 218.23 156.91 218.72 153.73 219.31 150.55 220.07 147.4 220.97 144.33 222 141.25 223.18 138.28 224.46 135.34 225.87 132.47 227.4 129.63 229.05 126.9 230.82 124.28 232.68 121.72 234.65 119.26 236.73 116.91 238.91 114.67 241.15 112.52 243.47 110.52 245.89 108.62 248.38 106.85 250.97 105.26 253.6 103.78 256.3 102.46 259.06 101.29 261.86 100.32 264.73 99.49 267.63 98.83 270.61 98.38 273.61 98.11 276.62 98.04 279.63 98.14 282.6 98.49 285.5 99.01 288.41 99.77 291.21 100.67 294.01 101.77 296.74 103.05 299.4 104.5 302 106.09 304.52 107.86 307.01 109.72 309.39 111.76 311.71 113.87 313.92 116.15 316.06 118.5 318.14 120.96 320.11 123.52 321.98 126.14 323.77 128.87 325.43 131.64 326.99 134.47 328.44 137.34 329.79 140.28 331.03 143.22 332.14 146.19 333.11 149.2 333.94 152.21 334.66 155.22 335.25 158.19 335.7 161.16 336.01 164.13 336.15 167.04 336.08 169.53 335.98 171.98 335.8 174.44 335.56 176.89 335.25 179.34 334.87 181.8 334.45 184.22 334.01 186.67 333.49 189.09 332.9 191.48 332.28 193.86 331.59 196.25 330.86 198.6 330.06 200.95 329.27 203.27 328.37 205.58 327.47 207.83 326.5 210.08 325.5 212.32 324.46 214.5 323.39 216.68 322.29 218.82 321.11 220.93 319.94 223 318.69 225.04 317.45 227.01 316.17 228.99 314.82 230.92 313.47 232.79 312.09 234.62 310.71 236.42 309.25 238.18 308.98 238.53 308.81 238.77 308.74 238.91 308.7 239.04 308.7 239.04"/><polygon class="cls-3" points="308.6 244.02 308.67 244.02 308.77 244.02 308.77 244.61 308.77 245.23 308.77 245.82 308.77 246.44 308.77 247.03 308.77 247.65 308.77 248.28 308.77 248.9 308.74 248.28 308.7 247.65 308.7 247.03 308.67 246.44 308.63 245.82 308.63 245.23 308.6 244.61 308.6 244.02 308.6 244.02"/><polygon class="cls-3" points="308.6 244.02 308.6 243.37 308.63 242.74 308.63 242.16 308.63 241.5 308.63 240.91 308.67 240.25 308.7 239.67 308.7 239.04 308.7 239.67 308.7 240.25 308.7 240.91 308.7 241.5 308.74 242.16 308.74 242.74 308.77 243.37 308.77 244.02 308.67 244.02 308.6 244.02 308.6 244.02"/><polygon class="cls-3" points="277.69 282.08 278.07 282.08 278.45 282.15 278.8 282.22 279.14 282.36 279.49 282.53 279.8 282.7 280.08 282.91 280.36 283.15 280.56 283.43 280.8 283.71 280.98 284.02 281.15 284.37 281.25 284.71 281.36 285.06 281.43 285.44 281.43 285.82 281.43 286.2 281.36 286.58 281.25 286.92 281.15 287.27 280.98 287.58 280.8 287.89 280.56 288.2 280.36 288.44 280.08 288.69 279.8 288.93 279.49 289.1 279.14 289.24 278.8 289.38 278.45 289.48 278.07 289.51 277.69 289.55 277.31 289.51 276.93 289.48 276.59 289.38 276.24 289.24 275.89 289.1 275.62 288.93 275.31 288.69 275.07 288.44 274.82 288.2 274.58 287.89 274.41 287.58 274.24 287.27 274.13 286.92 274.03 286.58 273.96 286.2 273.96 285.82 273.96 285.44 274.03 285.06 274.13 284.71 274.24 284.37 274.41 284.02 274.58 283.71 274.82 283.43 275.07 283.15 275.31 282.91 275.62 282.7 275.89 282.53 276.24 282.36 276.59 282.22 276.93 282.15 277.31 282.08 277.69 282.08 277.69 282.08"/><polygon class="cls-4" points="277.69 282.08 278.07 282.08 278.45 282.15 278.8 282.22 279.14 282.36 279.49 282.53 279.8 282.7 280.08 282.91 280.36 283.15 280.56 283.43 280.8 283.71 280.98 284.02 281.15 284.37 281.25 284.71 281.36 285.06 281.43 285.44 281.43 285.82 281.43 286.2 281.36 286.58 281.25 286.92 281.15 287.27 280.98 287.58 280.8 287.89 280.56 288.2 280.36 288.44 280.08 288.69 279.8 288.93 279.49 289.1 279.14 289.24 278.8 289.38 278.45 289.48 278.07 289.51 277.69 289.55 277.31 289.51 276.93 289.48 276.59 289.38 276.24 289.24 275.89 289.1 275.62 288.93 275.31 288.69 275.07 288.44 274.82 288.2 274.58 287.89 274.41 287.58 274.24 287.27 274.13 286.92 274.03 286.58 273.96 286.2 273.96 285.82 273.96 285.44 274.03 285.06 274.13 284.71 274.24 284.37 274.41 284.02 274.58 283.71 274.82 283.43 275.07 283.15 275.31 282.91 275.62 282.7 275.89 282.53 276.24 282.36 276.59 282.22 276.93 282.15 277.31 282.08 277.69 282.08 277.69 282.08"/><polygon class="cls-3" points="276.9 289.38 277.17 289.41 277.45 289.45 277.73 289.51 277.97 289.58 278.21 289.72 278.42 289.83 278.63 290 278.83 290.17 279.01 290.38 279.14 290.59 279.28 290.79 279.39 291.04 279.49 291.28 279.56 291.52 279.59 291.8 279.59 292.07 279.59 292.35 279.56 292.63 279.49 292.87 279.39 293.14 279.28 293.35 279.14 293.6 279.01 293.8 278.83 293.98 278.63 294.15 278.42 294.32 278.21 294.46 277.97 294.56 277.73 294.67 277.45 294.74 277.17 294.77 276.9 294.77 276.62 294.77 276.38 294.74 276.1 294.67 275.86 294.56 275.62 294.46 275.41 294.32 275.2 294.15 275 293.98 274.82 293.8 274.69 293.6 274.55 293.35 274.44 293.14 274.34 292.87 274.27 292.63 274.24 292.35 274.2 292.07 274.24 291.8 274.27 291.52 274.34 291.28 274.44 291.04 274.55 290.79 274.69 290.59 274.82 290.38 275 290.17 275.2 290 275.41 289.83 275.62 289.72 275.86 289.58 276.1 289.51 276.38 289.45 276.62 289.41 276.9 289.38 276.9 289.38"/><polygon class="cls-4" points="276.9 289.38 277.17 289.41 277.45 289.45 277.73 289.51 277.97 289.58 278.21 289.72 278.42 289.83 278.63 290 278.83 290.17 279.01 290.38 279.14 290.59 279.28 290.79 279.39 291.04 279.49 291.28 279.56 291.52 279.59 291.8 279.59 292.07 279.59 292.35 279.56 292.63 279.49 292.87 279.39 293.14 279.28 293.35 279.14 293.6 279.01 293.8 278.83 293.98 278.63 294.15 278.42 294.32 278.21 294.46 277.97 294.56 277.73 294.67 277.45 294.74 277.17 294.77 276.9 294.77 276.62 294.77 276.38 294.74 276.1 294.67 275.86 294.56 275.62 294.46 275.41 294.32 275.2 294.15 275 293.98 274.82 293.8 274.69 293.6 274.55 293.35 274.44 293.14 274.34 292.87 274.27 292.63 274.24 292.35 274.2 292.07 274.24 291.8 274.27 291.52 274.34 291.28 274.44 291.04 274.55 290.79 274.69 290.59 274.82 290.38 275 290.17 275.2 290 275.41 289.83 275.62 289.72 275.86 289.58 276.1 289.51 276.38 289.45 276.62 289.41 276.9 289.38 276.9 289.38"/><polygon class="cls-3" points="272.58 299.75 272.85 299.75 273.1 299.78 273.37 299.85 273.61 299.95 273.86 300.06 274.06 300.2 274.27 300.37 274.48 300.54 274.65 300.72 274.79 300.92 274.93 301.17 275.03 301.41 275.13 301.65 275.2 301.89 275.24 302.17 275.27 302.44 275.24 302.72 275.2 303 275.13 303.24 275.03 303.48 274.93 303.72 274.79 303.93 274.65 304.14 274.48 304.35 274.27 304.52 274.06 304.69 273.86 304.8 273.61 304.93 273.37 305 273.1 305.07 272.85 305.11 272.58 305.14 272.3 305.11 272.02 305.07 271.75 305 271.5 304.93 271.26 304.8 271.06 304.69 270.85 304.52 270.64 304.35 270.47 304.14 270.33 303.93 270.19 303.72 270.09 303.48 269.98 303.24 269.92 303 269.88 302.72 269.88 302.44 269.88 302.17 269.92 301.89 269.98 301.65 270.09 301.41 270.19 301.17 270.33 300.92 270.47 300.72 270.64 300.54 270.85 300.37 271.06 300.2 271.26 300.06 271.5 299.95 271.75 299.85 272.02 299.78 272.3 299.75 272.58 299.75 272.58 299.75"/><polygon class="cls-4" points="272.58 299.75 272.85 299.75 273.1 299.78 273.37 299.85 273.61 299.95 273.86 300.06 274.06 300.2 274.27 300.37 274.48 300.54 274.65 300.72 274.79 300.92 274.93 301.17 275.03 301.41 275.13 301.65 275.2 301.89 275.24 302.17 275.27 302.44 275.24 302.72 275.2 303 275.13 303.24 275.03 303.48 274.93 303.72 274.79 303.93 274.65 304.14 274.48 304.35 274.27 304.52 274.06 304.69 273.86 304.8 273.61 304.93 273.37 305 273.1 305.07 272.85 305.11 272.58 305.14 272.3 305.11 272.02 305.07 271.75 305 271.5 304.93 271.26 304.8 271.06 304.69 270.85 304.52 270.64 304.35 270.47 304.14 270.33 303.93 270.19 303.72 270.09 303.48 269.98 303.24 269.92 303 269.88 302.72 269.88 302.44 269.88 302.17 269.92 301.89 269.98 301.65 270.09 301.41 270.19 301.17 270.33 300.92 270.47 300.72 270.64 300.54 270.85 300.37 271.06 300.2 271.26 300.06 271.5 299.95 271.75 299.85 272.02 299.78 272.3 299.75 272.58 299.75 272.58 299.75"/><polygon class="cls-3" points="247.62 342.23 247.89 342.23 248.21 342.3 248.48 342.37 248.76 342.48 249 342.58 249.24 342.75 249.48 342.92 249.69 343.1 249.9 343.31 250.07 343.55 250.21 343.79 250.31 344.03 250.42 344.31 250.49 344.58 250.56 344.89 250.56 345.21 250.56 345.48 250.49 345.79 250.42 346.07 250.31 346.35 250.21 346.59 250.07 346.83 249.9 347.07 249.69 347.28 249.48 347.49 249.24 347.66 249 347.8 248.76 347.9 248.48 348.01 248.21 348.07 247.89 348.14 247.62 348.14 247.31 348.14 247 348.07 246.72 348.01 246.44 347.9 246.2 347.8 245.96 347.66 245.72 347.49 245.51 347.28 245.3 347.07 245.16 346.83 244.99 346.59 244.89 346.35 244.78 346.07 244.71 345.79 244.65 345.48 244.65 345.21 244.65 344.89 244.71 344.58 244.78 344.31 244.89 344.03 244.99 343.79 245.16 343.55 245.3 343.31 245.51 343.1 245.72 342.92 245.96 342.75 246.2 342.58 246.44 342.48 246.72 342.37 247 342.3 247.31 342.23 247.62 342.23 247.62 342.23"/><polygon class="cls-4" points="247.62 342.23 247.89 342.23 248.21 342.3 248.48 342.37 248.76 342.48 249 342.58 249.24 342.75 249.48 342.92 249.69 343.1 249.9 343.31 250.07 343.55 250.21 343.79 250.31 344.03 250.42 344.31 250.49 344.58 250.56 344.89 250.56 345.21 250.56 345.48 250.49 345.79 250.42 346.07 250.31 346.35 250.21 346.59 250.07 346.83 249.9 347.07 249.69 347.28 249.48 347.49 249.24 347.66 249 347.8 248.76 347.9 248.48 348.01 248.21 348.07 247.89 348.14 247.62 348.14 247.31 348.14 247 348.07 246.72 348.01 246.44 347.9 246.2 347.8 245.96 347.66 245.72 347.49 245.51 347.28 245.3 347.07 245.16 346.83 244.99 346.59 244.89 346.35 244.78 346.07 244.71 345.79 244.65 345.48 244.65 345.21 244.65 344.89 244.71 344.58 244.78 344.31 244.89 344.03 244.99 343.79 245.16 343.55 245.3 343.31 245.51 343.1 245.72 342.92 245.96 342.75 246.2 342.58 246.44 342.48 246.72 342.37 247 342.3 247.31 342.23 247.62 342.23 247.62 342.23"/><polygon class="cls-3" points="291.97 309.15 292.25 309.15 292.56 309.22 292.83 309.29 293.11 309.39 293.35 309.5 293.6 309.63 293.84 309.81 294.04 310.01 294.25 310.22 294.42 310.46 294.56 310.71 294.7 310.95 294.77 311.23 294.87 311.5 294.91 311.81 294.91 312.09 294.91 312.4 294.87 312.71 294.77 312.99 294.7 313.26 294.56 313.51 294.42 313.75 294.25 313.99 294.04 314.2 293.84 314.4 293.6 314.54 293.35 314.72 293.11 314.82 292.83 314.92 292.56 314.99 292.25 315.06 291.97 315.06 291.66 315.06 291.35 314.99 291.07 314.92 290.79 314.82 290.55 314.72 290.31 314.54 290.07 314.4 289.86 314.2 289.69 313.99 289.51 313.75 289.34 313.51 289.24 313.26 289.13 312.99 289.07 312.71 289 312.4 289 312.09 289 311.81 289.07 311.5 289.13 311.23 289.24 310.95 289.34 310.71 289.51 310.46 289.69 310.22 289.86 310.01 290.07 309.81 290.31 309.63 290.55 309.5 290.79 309.39 291.07 309.29 291.35 309.22 291.66 309.15 291.97 309.15 291.97 309.15"/><polygon class="cls-4" points="291.97 309.15 292.25 309.15 292.56 309.22 292.83 309.29 293.11 309.39 293.35 309.5 293.6 309.63 293.84 309.81 294.04 310.01 294.25 310.22 294.42 310.46 294.56 310.71 294.7 310.95 294.77 311.23 294.87 311.5 294.91 311.81 294.91 312.09 294.91 312.4 294.87 312.71 294.77 312.99 294.7 313.26 294.56 313.51 294.42 313.75 294.25 313.99 294.04 314.2 293.84 314.4 293.6 314.54 293.35 314.72 293.11 314.82 292.83 314.92 292.56 314.99 292.25 315.06 291.97 315.06 291.66 315.06 291.35 314.99 291.07 314.92 290.79 314.82 290.55 314.72 290.31 314.54 290.07 314.4 289.86 314.2 289.69 313.99 289.51 313.75 289.34 313.51 289.24 313.26 289.13 312.99 289.07 312.71 289 312.4 289 312.09 289 311.81 289.07 311.5 289.13 311.23 289.24 310.95 289.34 310.71 289.51 310.46 289.69 310.22 289.86 310.01 290.07 309.81 290.31 309.63 290.55 309.5 290.79 309.39 291.07 309.29 291.35 309.22 291.66 309.15 291.97 309.15 291.97 309.15"/><polygon class="cls-3" points="296.84 310.81 297.26 310.81 297.67 310.88 298.05 310.98 298.47 311.12 298.81 311.29 299.16 311.5 299.47 311.74 299.78 312.02 300.06 312.33 300.3 312.64 300.51 312.99 300.68 313.37 300.82 313.75 300.92 314.13 300.99 314.54 300.99 314.99 300.99 315.41 300.92 315.82 300.82 316.24 300.68 316.62 300.51 316.96 300.3 317.31 300.06 317.62 299.78 317.93 299.47 318.21 299.16 318.45 298.81 318.66 298.47 318.83 298.05 318.97 297.67 319.07 297.26 319.14 296.84 319.14 296.39 319.14 295.98 319.07 295.6 318.97 295.19 318.83 294.84 318.66 294.49 318.45 294.18 318.21 293.87 317.93 293.6 317.62 293.35 317.31 293.14 316.96 292.97 316.62 292.83 316.24 292.73 315.82 292.66 315.41 292.66 314.99 292.66 314.54 292.73 314.13 292.83 313.75 292.97 313.37 293.14 312.99 293.35 312.64 293.6 312.33 293.87 312.02 294.18 311.74 294.49 311.5 294.84 311.29 295.19 311.12 295.6 310.98 295.98 310.88 296.39 310.81 296.84 310.81 296.84 310.81"/><polygon class="cls-4" points="296.84 310.81 297.26 310.81 297.67 310.88 298.05 310.98 298.47 311.12 298.81 311.29 299.16 311.5 299.47 311.74 299.78 312.02 300.06 312.33 300.3 312.64 300.51 312.99 300.68 313.37 300.82 313.75 300.92 314.13 300.99 314.54 300.99 314.99 300.99 315.41 300.92 315.82 300.82 316.24 300.68 316.62 300.51 316.96 300.3 317.31 300.06 317.62 299.78 317.93 299.47 318.21 299.16 318.45 298.81 318.66 298.47 318.83 298.05 318.97 297.67 319.07 297.26 319.14 296.84 319.14 296.39 319.14 295.98 319.07 295.6 318.97 295.19 318.83 294.84 318.66 294.49 318.45 294.18 318.21 293.87 317.93 293.6 317.62 293.35 317.31 293.14 316.96 292.97 316.62 292.83 316.24 292.73 315.82 292.66 315.41 292.66 314.99 292.66 314.54 292.73 314.13 292.83 313.75 292.97 313.37 293.14 312.99 293.35 312.64 293.6 312.33 293.87 312.02 294.18 311.74 294.49 311.5 294.84 311.29 295.19 311.12 295.6 310.98 295.98 310.88 296.39 310.81 296.84 310.81 296.84 310.81"/><polygon class="cls-3" points="246.72 302.17 247.13 302.2 247.51 302.27 247.89 302.34 248.24 302.48 248.59 302.65 248.93 302.86 249.21 303.07 249.52 303.34 249.76 303.62 249.97 303.9 250.18 304.24 250.35 304.59 250.49 304.93 250.56 305.31 250.63 305.69 250.66 306.11 250.63 306.49 250.56 306.9 250.49 307.25 250.35 307.63 250.18 307.98 249.97 308.29 249.76 308.6 249.52 308.87 249.21 309.12 248.93 309.36 248.59 309.53 248.24 309.7 247.89 309.84 247.51 309.95 247.13 309.98 246.72 310.01 246.34 309.98 245.96 309.95 245.58 309.84 245.2 309.7 244.85 309.53 244.54 309.36 244.23 309.12 243.95 308.87 243.71 308.6 243.47 308.29 243.3 307.98 243.12 307.63 242.99 307.25 242.88 306.9 242.85 306.49 242.81 306.11 242.85 305.69 242.88 305.31 242.99 304.93 243.12 304.59 243.3 304.24 243.47 303.9 243.71 303.62 243.95 303.34 244.23 303.07 244.54 302.86 244.85 302.65 245.2 302.48 245.58 302.34 245.96 302.27 246.34 302.2 246.72 302.17 246.72 302.17"/><polygon class="cls-4" points="246.72 302.17 247.13 302.2 247.51 302.27 247.89 302.34 248.24 302.48 248.59 302.65 248.93 302.86 249.21 303.07 249.52 303.34 249.76 303.62 249.97 303.9 250.18 304.24 250.35 304.59 250.49 304.93 250.56 305.31 250.63 305.69 250.66 306.11 250.63 306.49 250.56 306.9 250.49 307.25 250.35 307.63 250.18 307.98 249.97 308.29 249.76 308.6 249.52 308.87 249.21 309.12 248.93 309.36 248.59 309.53 248.24 309.7 247.89 309.84 247.51 309.95 247.13 309.98 246.72 310.01 246.34 309.98 245.96 309.95 245.58 309.84 245.2 309.7 244.85 309.53 244.54 309.36 244.23 309.12 243.95 308.87 243.71 308.6 243.47 308.29 243.3 307.98 243.12 307.63 242.99 307.25 242.88 306.9 242.85 306.49 242.81 306.11 242.85 305.69 242.88 305.31 242.99 304.93 243.12 304.59 243.3 304.24 243.47 303.9 243.71 303.62 243.95 303.34 244.23 303.07 244.54 302.86 244.85 302.65 245.2 302.48 245.58 302.34 245.96 302.27 246.34 302.2 246.72 302.17 246.72 302.17"/><polygon class="cls-3" points="248.38 316.38 248.66 316.38 248.93 316.44 249.17 316.48 249.45 316.58 249.66 316.69 249.9 316.82 250.11 317 250.28 317.17 250.45 317.34 250.63 317.55 250.76 317.79 250.87 318.04 250.97 318.28 251.04 318.52 251.07 318.8 251.07 319.07 251.07 319.35 251.04 319.63 250.97 319.87 250.87 320.11 250.76 320.35 250.63 320.59 250.45 320.8 250.28 320.97 250.11 321.15 249.9 321.32 249.66 321.46 249.45 321.56 249.17 321.63 248.93 321.7 248.66 321.77 248.38 321.77 248.1 321.77 247.82 321.7 247.58 321.63 247.34 321.56 247.1 321.46 246.89 321.32 246.68 321.15 246.48 320.97 246.3 320.8 246.17 320.59 246.03 320.35 245.89 320.11 245.82 319.87 245.75 319.63 245.72 319.35 245.68 319.07 245.72 318.8 245.75 318.52 245.82 318.28 245.89 318.04 246.03 317.79 246.17 317.55 246.3 317.34 246.48 317.17 246.68 317 246.89 316.82 247.1 316.69 247.34 316.58 247.58 316.48 247.82 316.44 248.1 316.38 248.38 316.38 248.38 316.38"/><polygon class="cls-4" points="248.38 316.38 248.66 316.38 248.93 316.44 249.17 316.48 249.45 316.58 249.66 316.69 249.9 316.82 250.11 317 250.28 317.17 250.45 317.34 250.63 317.55 250.76 317.79 250.87 318.04 250.97 318.28 251.04 318.52 251.07 318.8 251.07 319.07 251.07 319.35 251.04 319.63 250.97 319.87 250.87 320.11 250.76 320.35 250.63 320.59 250.45 320.8 250.28 320.97 250.11 321.15 249.9 321.32 249.66 321.46 249.45 321.56 249.17 321.63 248.93 321.7 248.66 321.77 248.38 321.77 248.1 321.77 247.82 321.7 247.58 321.63 247.34 321.56 247.1 321.46 246.89 321.32 246.68 321.15 246.48 320.97 246.3 320.8 246.17 320.59 246.03 320.35 245.89 320.11 245.82 319.87 245.75 319.63 245.72 319.35 245.68 319.07 245.72 318.8 245.75 318.52 245.82 318.28 245.89 318.04 246.03 317.79 246.17 317.55 246.3 317.34 246.48 317.17 246.68 317 246.89 316.82 247.1 316.69 247.34 316.58 247.58 316.48 247.82 316.44 248.1 316.38 248.38 316.38 248.38 316.38"/><polygon class="cls-3" points="254.05 317.41 254.43 317.45 254.84 317.48 255.19 317.58 255.57 317.72 255.91 317.9 256.23 318.07 256.54 318.31 256.81 318.55 257.06 318.83 257.3 319.14 257.47 319.45 257.64 319.8 257.78 320.18 257.88 320.56 257.92 320.94 257.95 321.32 257.92 321.73 257.88 322.11 257.78 322.49 257.64 322.87 257.47 323.19 257.3 323.53 257.06 323.84 256.81 324.12 256.54 324.36 256.23 324.57 255.91 324.78 255.57 324.95 255.19 325.09 254.84 325.16 254.43 325.23 254.05 325.26 253.63 325.23 253.25 325.16 252.87 325.09 252.53 324.95 252.18 324.78 251.84 324.57 251.56 324.36 251.28 324.12 251.01 323.84 250.8 323.53 250.59 323.19 250.42 322.87 250.28 322.49 250.21 322.11 250.14 321.73 250.11 321.32 250.14 320.94 250.21 320.56 250.28 320.18 250.42 319.8 250.59 319.45 250.8 319.14 251.01 318.83 251.28 318.55 251.56 318.31 251.84 318.07 252.18 317.9 252.53 317.72 252.87 317.58 253.25 317.48 253.63 317.45 254.05 317.41 254.05 317.41"/><polygon class="cls-4" points="254.05 317.41 254.43 317.45 254.84 317.48 255.19 317.58 255.57 317.72 255.91 317.9 256.23 318.07 256.54 318.31 256.81 318.55 257.06 318.83 257.3 319.14 257.47 319.45 257.64 319.8 257.78 320.18 257.88 320.56 257.92 320.94 257.95 321.32 257.92 321.73 257.88 322.11 257.78 322.49 257.64 322.87 257.47 323.19 257.3 323.53 257.06 323.84 256.81 324.12 256.54 324.36 256.23 324.57 255.91 324.78 255.57 324.95 255.19 325.09 254.84 325.16 254.43 325.23 254.05 325.26 253.63 325.23 253.25 325.16 252.87 325.09 252.53 324.95 252.18 324.78 251.84 324.57 251.56 324.36 251.28 324.12 251.01 323.84 250.8 323.53 250.59 323.19 250.42 322.87 250.28 322.49 250.21 322.11 250.14 321.73 250.11 321.32 250.14 320.94 250.21 320.56 250.28 320.18 250.42 319.8 250.59 319.45 250.8 319.14 251.01 318.83 251.28 318.55 251.56 318.31 251.84 318.07 252.18 317.9 252.53 317.72 252.87 317.58 253.25 317.48 253.63 317.45 254.05 317.41 254.05 317.41"/><polygon class="cls-3" points="303.17 336.5 303.58 336.5 303.96 336.56 304.35 336.67 304.69 336.81 305.04 336.94 305.38 337.15 305.66 337.39 305.94 337.63 306.21 337.91 306.42 338.22 306.63 338.53 306.8 338.88 306.9 339.23 307.01 339.61 307.08 339.99 307.11 340.4 307.08 340.82 307.01 341.2 306.9 341.58 306.8 341.92 306.63 342.27 306.42 342.58 306.21 342.89 305.94 343.17 305.66 343.44 305.38 343.65 305.04 343.86 304.69 344 304.35 344.13 303.96 344.24 303.58 344.31 303.17 344.31 302.79 344.31 302.38 344.24 302 344.13 301.65 344 301.3 343.86 300.99 343.65 300.68 343.44 300.4 343.17 300.16 342.89 299.92 342.58 299.75 342.27 299.57 341.92 299.44 341.58 299.33 341.2 299.26 340.82 299.26 340.4 299.26 339.99 299.33 339.61 299.44 339.23 299.57 338.88 299.75 338.53 299.92 338.22 300.16 337.91 300.4 337.63 300.68 337.39 300.99 337.15 301.3 336.94 301.65 336.81 302 336.67 302.38 336.56 302.79 336.5 303.17 336.5 303.17 336.5"/><polygon class="cls-4" points="303.17 336.5 303.58 336.5 303.96 336.56 304.35 336.67 304.69 336.81 305.04 336.94 305.38 337.15 305.66 337.39 305.94 337.63 306.21 337.91 306.42 338.22 306.63 338.53 306.8 338.88 306.9 339.23 307.01 339.61 307.08 339.99 307.11 340.4 307.08 340.82 307.01 341.2 306.9 341.58 306.8 341.92 306.63 342.27 306.42 342.58 306.21 342.89 305.94 343.17 305.66 343.44 305.38 343.65 305.04 343.86 304.69 344 304.35 344.13 303.96 344.24 303.58 344.31 303.17 344.31 302.79 344.31 302.38 344.24 302 344.13 301.65 344 301.3 343.86 300.99 343.65 300.68 343.44 300.4 343.17 300.16 342.89 299.92 342.58 299.75 342.27 299.57 341.92 299.44 341.58 299.33 341.2 299.26 340.82 299.26 340.4 299.26 339.99 299.33 339.61 299.44 339.23 299.57 338.88 299.75 338.53 299.92 338.22 300.16 337.91 300.4 337.63 300.68 337.39 300.99 337.15 301.3 336.94 301.65 336.81 302 336.67 302.38 336.56 302.79 336.5 303.17 336.5 303.17 336.5"/><polygon class="cls-3" points="299.61 342.51 299.89 342.51 300.16 342.54 300.4 342.61 300.65 342.72 300.89 342.82 301.13 342.96 301.34 343.1 301.51 343.27 301.68 343.48 301.86 343.69 302 343.89 302.1 344.13 302.2 344.38 302.24 344.65 302.31 344.93 302.31 345.21 302.31 345.48 302.24 345.73 302.2 346 302.1 346.24 302 346.49 301.86 346.69 301.68 346.9 301.51 347.11 301.34 347.28 301.13 347.42 300.89 347.56 300.65 347.66 300.4 347.76 300.16 347.83 299.89 347.87 299.61 347.9 299.33 347.87 299.06 347.83 298.81 347.76 298.57 347.66 298.33 347.56 298.09 347.42 297.88 347.28 297.71 347.11 297.54 346.9 297.36 346.69 297.22 346.49 297.12 346.24 297.05 346 296.98 345.73 296.91 345.48 296.91 345.21 296.91 344.93 296.98 344.65 297.05 344.38 297.12 344.13 297.22 343.89 297.36 343.69 297.54 343.48 297.71 343.27 297.88 343.1 298.09 342.96 298.33 342.82 298.57 342.72 298.81 342.61 299.06 342.54 299.33 342.51 299.61 342.51 299.61 342.51"/><polygon class="cls-4" points="299.61 342.51 299.89 342.51 300.16 342.54 300.4 342.61 300.65 342.72 300.89 342.82 301.13 342.96 301.34 343.1 301.51 343.27 301.68 343.48 301.86 343.69 302 343.89 302.1 344.13 302.2 344.38 302.24 344.65 302.31 344.93 302.31 345.21 302.31 345.48 302.24 345.73 302.2 346 302.1 346.24 302 346.49 301.86 346.69 301.68 346.9 301.51 347.11 301.34 347.28 301.13 347.42 300.89 347.56 300.65 347.66 300.4 347.76 300.16 347.83 299.89 347.87 299.61 347.9 299.33 347.87 299.06 347.83 298.81 347.76 298.57 347.66 298.33 347.56 298.09 347.42 297.88 347.28 297.71 347.11 297.54 346.9 297.36 346.69 297.22 346.49 297.12 346.24 297.05 346 296.98 345.73 296.91 345.48 296.91 345.21 296.91 344.93 296.98 344.65 297.05 344.38 297.12 344.13 297.22 343.89 297.36 343.69 297.54 343.48 297.71 343.27 297.88 343.1 298.09 342.96 298.33 342.82 298.57 342.72 298.81 342.61 299.06 342.54 299.33 342.51 299.61 342.51 299.61 342.51"/><polygon class="cls-3" points="270.47 341.54 270.88 341.54 271.26 341.61 271.64 341.71 271.99 341.85 272.33 341.99 272.68 342.2 272.96 342.44 273.23 342.68 273.51 342.96 273.72 343.27 273.93 343.58 274.1 343.93 274.2 344.27 274.31 344.65 274.37 345.07 274.41 345.45 274.37 345.86 274.31 346.24 274.2 346.62 274.1 346.97 273.93 347.31 273.72 347.66 273.51 347.94 273.23 348.21 272.96 348.49 272.68 348.7 272.33 348.9 271.99 349.08 271.64 349.18 271.26 349.29 270.88 349.35 270.47 349.35 270.09 349.35 269.67 349.29 269.29 349.18 268.95 349.08 268.6 348.9 268.29 348.7 267.98 348.49 267.7 348.21 267.46 347.94 267.22 347.66 267.05 347.31 266.87 346.97 266.73 346.62 266.63 346.24 266.56 345.86 266.56 345.45 266.56 345.07 266.63 344.65 266.73 344.27 266.87 343.93 267.05 343.58 267.22 343.27 267.46 342.96 267.7 342.68 267.98 342.44 268.29 342.2 268.6 341.99 268.95 341.85 269.29 341.71 269.67 341.61 270.09 341.54 270.47 341.54 270.47 341.54"/><polygon class="cls-4" points="270.47 341.54 270.88 341.54 271.26 341.61 271.64 341.71 271.99 341.85 272.33 341.99 272.68 342.2 272.96 342.44 273.23 342.68 273.51 342.96 273.72 343.27 273.93 343.58 274.1 343.93 274.2 344.27 274.31 344.65 274.37 345.07 274.41 345.45 274.37 345.86 274.31 346.24 274.2 346.62 274.1 346.97 273.93 347.31 273.72 347.66 273.51 347.94 273.23 348.21 272.96 348.49 272.68 348.7 272.33 348.9 271.99 349.08 271.64 349.18 271.26 349.29 270.88 349.35 270.47 349.35 270.09 349.35 269.67 349.29 269.29 349.18 268.95 349.08 268.6 348.9 268.29 348.7 267.98 348.49 267.7 348.21 267.46 347.94 267.22 347.66 267.05 347.31 266.87 346.97 266.73 346.62 266.63 346.24 266.56 345.86 266.56 345.45 266.56 345.07 266.63 344.65 266.73 344.27 266.87 343.93 267.05 343.58 267.22 343.27 267.46 342.96 267.7 342.68 267.98 342.44 268.29 342.2 268.6 341.99 268.95 341.85 269.29 341.71 269.67 341.61 270.09 341.54 270.47 341.54 270.47 341.54"/><polygon class="cls-3" points="277.17 369.3 277.45 369.33 277.73 369.37 277.97 369.44 278.21 369.54 278.45 369.65 278.69 369.79 278.9 369.92 279.08 370.1 279.25 370.3 279.42 370.51 279.56 370.72 279.66 370.96 279.73 371.2 279.8 371.48 279.87 371.72 279.87 372 279.87 372.27 279.8 372.55 279.73 372.83 279.66 373.07 279.56 373.31 279.42 373.52 279.25 373.73 279.08 373.93 278.9 374.11 278.69 374.24 278.45 374.38 278.21 374.49 277.97 374.59 277.73 374.66 277.45 374.69 277.17 374.69 276.9 374.69 276.62 374.66 276.38 374.59 276.14 374.49 275.89 374.38 275.65 374.24 275.45 374.11 275.27 373.93 275.1 373.73 274.93 373.52 274.79 373.31 274.69 373.07 274.58 372.83 274.55 372.55 274.48 372.27 274.48 372 274.48 371.72 274.55 371.48 274.58 371.2 274.69 370.96 274.79 370.72 274.93 370.51 275.1 370.3 275.27 370.1 275.45 369.92 275.65 369.79 275.89 369.65 276.14 369.54 276.38 369.44 276.62 369.37 276.9 369.33 277.17 369.3 277.17 369.3"/><polygon class="cls-4" points="277.17 369.3 277.45 369.33 277.73 369.37 277.97 369.44 278.21 369.54 278.45 369.65 278.69 369.79 278.9 369.92 279.08 370.1 279.25 370.3 279.42 370.51 279.56 370.72 279.66 370.96 279.73 371.2 279.8 371.48 279.87 371.72 279.87 372 279.87 372.27 279.8 372.55 279.73 372.83 279.66 373.07 279.56 373.31 279.42 373.52 279.25 373.73 279.08 373.93 278.9 374.11 278.69 374.24 278.45 374.38 278.21 374.49 277.97 374.59 277.73 374.66 277.45 374.69 277.17 374.69 276.9 374.69 276.62 374.66 276.38 374.59 276.14 374.49 275.89 374.38 275.65 374.24 275.45 374.11 275.27 373.93 275.1 373.73 274.93 373.52 274.79 373.31 274.69 373.07 274.58 372.83 274.55 372.55 274.48 372.27 274.48 372 274.48 371.72 274.55 371.48 274.58 371.2 274.69 370.96 274.79 370.72 274.93 370.51 275.1 370.3 275.27 370.1 275.45 369.92 275.65 369.79 275.89 369.65 276.14 369.54 276.38 369.44 276.62 369.37 276.9 369.33 277.17 369.3 277.17 369.3"/><polygon class="cls-3" points="278.31 373.76 278.69 373.76 279.08 373.83 279.46 373.93 279.84 374.07 280.18 374.21 280.49 374.42 280.8 374.66 281.08 374.9 281.32 375.18 281.56 375.49 281.74 375.8 281.91 376.14 282.05 376.49 282.15 376.87 282.19 377.29 282.22 377.67 282.19 378.08 282.15 378.46 282.05 378.84 281.91 379.19 281.74 379.53 281.56 379.84 281.32 380.15 281.08 380.43 280.8 380.71 280.49 380.92 280.18 381.12 279.84 381.3 279.46 381.4 279.08 381.5 278.69 381.57 278.31 381.57 277.9 381.57 277.52 381.5 277.14 381.4 276.79 381.3 276.45 381.12 276.1 380.92 275.83 380.71 275.51 380.43 275.27 380.15 275.07 379.84 274.86 379.53 274.69 379.19 274.55 378.84 274.48 378.46 274.41 378.08 274.37 377.67 274.41 377.29 274.48 376.87 274.55 376.49 274.69 376.14 274.86 375.8 275.07 375.49 275.27 375.18 275.51 374.9 275.83 374.66 276.1 374.42 276.45 374.21 276.79 374.07 277.14 373.93 277.52 373.83 277.9 373.76 278.31 373.76 278.31 373.76"/><polygon class="cls-4" points="278.31 373.76 278.69 373.76 279.08 373.83 279.46 373.93 279.84 374.07 280.18 374.21 280.49 374.42 280.8 374.66 281.08 374.9 281.32 375.18 281.56 375.49 281.74 375.8 281.91 376.14 282.05 376.49 282.15 376.87 282.19 377.29 282.22 377.67 282.19 378.08 282.15 378.46 282.05 378.84 281.91 379.19 281.74 379.53 281.56 379.84 281.32 380.15 281.08 380.43 280.8 380.71 280.49 380.92 280.18 381.12 279.84 381.3 279.46 381.4 279.08 381.5 278.69 381.57 278.31 381.57 277.9 381.57 277.52 381.5 277.14 381.4 276.79 381.3 276.45 381.12 276.1 380.92 275.83 380.71 275.51 380.43 275.27 380.15 275.07 379.84 274.86 379.53 274.69 379.19 274.55 378.84 274.48 378.46 274.41 378.08 274.37 377.67 274.41 377.29 274.48 376.87 274.55 376.49 274.69 376.14 274.86 375.8 275.07 375.49 275.27 375.18 275.51 374.9 275.83 374.66 276.1 374.42 276.45 374.21 276.79 374.07 277.14 373.93 277.52 373.83 277.9 373.76 278.31 373.76 278.31 373.76"/></svg>