<?xml version="1.0" encoding="UTF-8"?>
<!DOCTYPE svg PUBLIC "-//W3C//DTD SVG 1.1//EN" "http://www.w3.org/Graphics/SVG/1.1/DTD/svg11.dtd">
<!-- Creator: Corel DESIGNER -->
<svg xmlns="http://www.w3.org/2000/svg" xml:space="preserve" width="40mm" height="40mm" version="1.1" style="shape-rendering:geometricPrecision; text-rendering:geometricPrecision; image-rendering:optimizeQuality; fill-rule:evenodd; clip-rule:evenodd"
viewBox="0 0 4000 4000"
 xmlns:xlink="http://www.w3.org/1999/xlink"
 xmlns:xodm="http://www.corel.com/coreldraw/odm/2003">
 <defs>
  <style type="text/css">
   <![CDATA[
    .fil0m {fill:#004873}
    .fil1 {fill:white}
   ]]>
  </style>
 </defs>
<symbol id="ISO_x0020_7010_x0020_M002" viewBox="-1500 8850 7000 7000">
 <circle class="fil0m" cx="2000" cy="12350" r="3500"/>
 <path class="fil1" d="M1345.48 10783.97c0,-421.25 -341.48,-762.73 -762.73,-762.73 -421.23,0 -762.71,341.48 -762.71,762.73 0,421.23 341.48,762.71 762.71,762.71 421.25,0 762.73,-341.48 762.73,-762.71zm3549.8 1424.81l-1083.77 867.02 -194.11 -85.95c-57.95,-301.05 -399.43,-449.35 -678.29,-300.39l-384.3 -170.06 1172.47 -798.99 1168 488.37zm-2751.8 1949.36c-190.16,110.01 -430.35,59.04 -559.42,-118.75 -223.2,-307.43 -446.43,-614.83 -669.64,-922.24 -32.05,-44.17 -99.38,4.69 -67.36,48.82l526 724.38 0 1277.41c-682.19,-196.67 -1304.39,-570.15 -1812.02,-1281.33l0 -1718.39c0,-255.68 209.84,-457.49 465.33,-447.54l891.13 34.72c149.38,5.83 275.17,78.88 354.24,205.75 272.63,437.41 545.24,874.84 817.86,1312.27l831.96 -501.19c425.02,-236.15 793.2,174.76 593.76,527.24 -34.68,61.33 -83.78,111.73 -144.18,147.97l0.01 0.02 -1227.67 710.86zm376.86 -1715.93l-446.77 -1000.46c395.44,-242.24 790.5,-484.21 1184.34,-725.52l377.21 966.31 -1114.78 759.67zm-124.06 -73.79l-812.12 -970.6 1386.48 -810.97 95.97 149.02 -1098.58 673.55 428.25 959zm53.42 193.5l-587.36 189.38 -388.18 -622.86 482.64 -155.61 492.9 589.09z"/>
</symbol>
 <g id="Ebene_x0020_1">
  <metadata id="CorelCorpID_0Corel-Layer"/>
  <use id="ISO_x0020_7010_x0020_M002_0" transform="scale(0.571429 0.571429)" x="-0" y="-0" width="7000" height="7000" xlink:href="#ISO_x0020_7010_x0020_M002"/>
 </g>
</svg>
