<?xml version="1.0" encoding="UTF-8"?>
<!DOCTYPE svg PUBLIC "-//W3C//DTD SVG 1.1//EN" "http://www.w3.org/Graphics/SVG/1.1/DTD/svg11.dtd">
<!-- Creator: Corel DESIGNER -->
<svg xmlns="http://www.w3.org/2000/svg" xml:space="preserve" width="40mm" height="40mm" version="1.1" style="shape-rendering:geometricPrecision; text-rendering:geometricPrecision; image-rendering:optimizeQuality; fill-rule:evenodd; clip-rule:evenodd"
viewBox="0 0 2000 2000"
 xmlns:xlink="http://www.w3.org/1999/xlink"
 xmlns:xodm="http://www.corel.com/coreldraw/odm/2003">
 <defs>
  <style type="text/css">
   <![CDATA[
    .fil0m {fill:#004873}
    .fil1 {fill:white}
   ]]>
  </style>
 </defs>
<symbol id="ISO_x0020_7010_x0020_M006" viewBox="-3750 1308.33 3500 3500">
 <circle class="fil0m" cx="-2000" cy="3058.33" r="1750"/>
 <path class="fil1" d="M-1808.18 3871.35l90.04 126.51c20.87,29.32 62.71,47.85 96.88,50.88 40.84,3.62 86.8,-16.65 118.44,-51.16 41.39,-45.13 40.73,-78.7 43.29,-136.74 28.94,37.04 55.24,54.1 93.63,78.97 38.36,24.85 101.27,31.37 143.32,7.4 42.61,-24.29 67.52,-75.23 64.45,-129.76l-8.69 -154.67 -314.32 0c-23.35,0 -31.34,2.5 -44.35,14.7l-193.86 181.03c-7.27,6.77 -16.96,12.86 -26.89,12.86l-61.94 0zm-332.42 -623.1l288.47 0 0 147.84 -288.47 0 0 -147.84zm1031.35 -262.11l428.49 0c23.42,0 39.1,-11.8 46.18,-23.87 28.68,-48.91 -13.11,-161.02 -153.92,-157.39 -18.19,0.46 -50.75,9.02 -69.59,18.52l-109.88 55.45 -78.04 42.58c-14.34,7.82 -24.38,19.7 -54.49,48.94 -4.66,4.42 -8.43,6.57 -8.75,15.76zm-1108.2 -214.63l7.21 179.27 -363.95 0c-52.06,0 -94.65,42.59 -94.65,94.65 0,52.06 42.59,94.66 94.65,94.66l363.95 0 0 363.28 -363.95 0c-52.06,0 -94.65,42.59 -94.65,94.65 0,52.05 42.59,94.65 94.65,94.65l363.95 0 0 178.68 291.98 0 131.09 183.24c35.5,49.62 93.36,85.97 157.35,88.16 94.22,3.23 190.56,-46.69 222.64,-136.14 40.61,33.14 93.98,49.57 156.93,37.93 50.49,-12.2 91.05,-27.07 127.72,-65.57 45.28,-47.41 59.19,-102.42 55.48,-154.22l-11.61 -161.98 420.02 -0.61 38.2 -92.68 -871.93 0c-376.49,0 -356.65,-492.26 -17.95,-492.26l857.34 0c29.94,-1.97 72.33,-26.8 98.16,-69.43 34.74,-57.03 25.09,-133.03 -11.63,-185.89 -31.88,-45.89 -67.27,-71.34 -118.46,-92.92 -74.94,-31.27 -158.56,-17.51 -228.93,19.38l-181.99 95.41c-10.69,5.61 -20.07,13.75 -28.43,22.48 -34.07,35.58 -67.92,71.51 -102.14,106.93 -8.54,8.84 -14.23,12.97 -24.17,12.97l-241.99 0 -252.48 -211.47 303.41 -360.11 574.23 -279.31 -39.05 -72.12 -568.35 274.66c-15.66,7.56 -28.51,20.56 -39.69,33.88l-335.66 399.83 -367.31 0z"/>
 <rect class="fil1" x="-3044.9" y="2075.2" width="165.87" height="1939.9"/>
 <polygon class="fil1" points="-2118.75,1618.01 -1620.62,1937.28 -2118.75,2256.54 -2185.65,2147.41 -1957.65,2001.28 -2660.89,2001.28 -2660.89,1873.27 -1957.66,1873.27 -2185.65,1727.14 "/>
</symbol>
 <g id="Ebene_x0020_1">
  <metadata id="CorelCorpID_0Corel-Layer"/>
  <use id="ISO_x0020_7010_x0020_M006_0" transform="scale(0.571429 0.571429)" x="-0" y="-0" width="3500" height="3500" xlink:href="#ISO_x0020_7010_x0020_M006"/>
 </g>
</svg>
