<?xml version="1.0" encoding="UTF-8"?>
<!DOCTYPE svg PUBLIC "-//W3C//DTD SVG 1.1//EN" "http://www.w3.org/Graphics/SVG/1.1/DTD/svg11.dtd">
<!-- Creator: Corel DESIGNER -->
<svg xmlns="http://www.w3.org/2000/svg" xml:space="preserve" width="40mm" height="40mm" version="1.1" style="shape-rendering:geometricPrecision; text-rendering:geometricPrecision; image-rendering:optimizeQuality; fill-rule:evenodd; clip-rule:evenodd"
viewBox="0 0 1000 1000"
 xmlns:xlink="http://www.w3.org/1999/xlink"
 xmlns:xodm="http://www.corel.com/coreldraw/odm/2003">
 <defs>
  <style type="text/css">
   <![CDATA[
    .fil0m {fill:#004873}
    .fil1 {fill:white}
   ]]>
  </style>
 </defs>
<symbol id="ISO_x0020_7010_x0020_M007" viewBox="1125 -904.17 1750 1750">
 <circle class="fil0m" cx="2000" cy="-29.17" r="875"/>
 <path class="fil1" d="M1484.01 -134.68c-130.61,0.48 -79.21,185.09 -49.76,253.76 21.87,50.98 55.62,115.28 110.17,135.95 14.4,5.46 25.85,0.66 40.09,4.54 23.05,88.42 34.77,136.21 88.55,214.83 46.21,67.55 112.74,139.59 194.83,165.62 34.91,11.07 97.61,18.41 132.8,16.79 40.14,-1.85 95.45,-4.18 133.26,-18.13 150.84,-55.65 245.78,-231.27 281.87,-381.69 31.97,1.03 44.19,-3.96 64.21,-18.11 44.18,-31.22 77.43,-101.45 96.04,-152.49 30.05,-82.41 55.27,-212.94 -65.89,-222.3 -0.43,-13.17 2.18,-16.61 3.07,-28.1 7.88,-101.7 -21.24,-218.22 -73.74,-302.1 -42.51,-67.91 -101.83,-131.03 -170.73,-172.03 -81.15,-48.28 -161.41,-77.37 -268.97,-77.26 -75.09,0.07 -158.31,15.16 -224.96,51.17 -79.63,43.02 -152.53,96.65 -202.43,174.23 -52.67,81.9 -67.51,125.75 -86.74,224.34 -8.54,43.8 -2.7,96.19 -1.65,130.96zm52.53 -31.97c0.37,14.89 4.8,29.47 5.59,44.35 0.97,18.12 13.39,41.96 -7.62,53.23 -35.18,18.86 -41.65,-38.16 -69.2,-13.6 -12.18,10.86 -13.46,36.25 -13.42,51.51 0.14,69.39 38.84,163.86 82.87,216.43 38.26,45.69 44.18,-2.12 74.82,7.45 20.12,6.29 41.96,111.82 50.58,140.42 32.16,92.21 114.31,207.29 201.66,247.01 59.89,27.23 197.96,28.32 250.74,8.72 103.84,-38.55 176.4,-139.56 218.93,-244.97 15.2,-37.66 31.59,-152.95 64.22,-151.68 28.36,1.1 40.53,48.87 100.05,-55.69 24.97,-43.87 36.17,-84.34 47.33,-133.74 10.42,-46.09 -3.93,-106.51 -33.47,-91.73 -10.04,5.03 -11.29,18.08 -26.85,20.31 -56.09,8.02 -22.4,-74.05 -22.24,-97.9 0.9,-132.21 -26.8,-249.23 -124.48,-348.12 -95.97,-97.17 -216.27,-149.57 -347.4,-147.05 -131.13,2.53 -245.03,53.38 -329.04,147.98 -93.63,121.25 -127.04,186.25 -123.07,347.08zm-8.81 197.91l91.77 0c-1.32,-7.16 -2.02,-14.47 -2.02,-21.92 0,-7.45 0.69,-14.77 2.02,-21.92l-91.77 0 0 -42.11 107.85 0c30.18,-50.5 105.31,-85.43 170.01,-85.43 64.71,0 101.46,20.7 137.68,47.63 25.4,18.89 87.34,20.55 115.02,0 36.24,-26.91 72.97,-47.63 137.68,-47.63 64.71,0 139.83,34.92 170.02,85.43l109.57 0 0 42.11 -93.49 0c1.32,7.15 2.02,14.47 2.02,21.92 0,7.45 -0.7,14.76 -2.02,21.92l93.49 0 0 42.11 -109.57 0c-30.18,50.51 -105.3,85.43 -170.02,85.43 -64.71,0 -97.95,-26.22 -137.68,-47.64 -43.53,-23.45 -84.35,-19.82 -115.01,0 -35.13,22.71 -72.98,47.64 -137.69,47.64 -64.71,0 -139.83,-34.92 -170.01,-85.43l-107.85 0 0 -42.11z"/>
</symbol>
 <g id="Ebene_x0020_1">
  <metadata id="CorelCorpID_0Corel-Layer"/>
  <use id="ISO_x0020_7010_x0020_M007_0" transform="scale(0.571429 0.571429)" x="-0" y="-0" width="1750" height="1750" xlink:href="#ISO_x0020_7010_x0020_M007"/>
 </g>
</svg>
