<?xml version="1.0" encoding="UTF-8"?>
<!DOCTYPE svg PUBLIC "-//W3C//DTD SVG 1.1//EN" "http://www.w3.org/Graphics/SVG/1.1/DTD/svg11.dtd">
<!-- Creator: Corel DESIGNER -->
<svg xmlns="http://www.w3.org/2000/svg" xml:space="preserve" width="40mm" height="40mm" version="1.1" style="shape-rendering:geometricPrecision; text-rendering:geometricPrecision; image-rendering:optimizeQuality; fill-rule:evenodd; clip-rule:evenodd"
viewBox="0 0 4000 4000"
 xmlns:xlink="http://www.w3.org/1999/xlink"
 xmlns:xodm="http://www.corel.com/coreldraw/odm/2003">
 <defs>
  <style type="text/css">
   <![CDATA[
    .fil0m {fill:#004873}
    .fil1 {fill:white}
   ]]>
  </style>
 </defs>
<symbol id="ISO_x0020_7010_x0020_M008" viewBox="-1500 -3616.67 7000 7000">
 <circle class="fil0m" cx="2000" cy="-116.67" r="3500"/>
 <path class="fil1" d="M-85.32 -1961.62l1813.4 0 -38.58 1780.32c-2.43,112.51 57.05,237.98 148.81,303.15 126.78,90.01 258.1,174 380.32,270.09 227.07,178.51 378.75,421.76 677.96,490.54l479.53 110.24c142.19,32.68 278.34,166.83 278.34,278.36l0 327.94 46.86 0 0 220.48 -1752.76 0c-260.9,-123.1 -494.24,-304.07 -782.69,-369.29l0 363.78 -1207.09 0 -39.96 -618.7c-53.62,-106.37 -87.46,-196.69 -92.33,-301.78 -21.03,-454.13 214.82,-942.77 198.43,-1190.36l-110.24 -1664.77zm148.8 3164.08l1300.79 0c195.34,0 689.75,352.76 804.73,352.76l1355.91 0 0 104.16 -1355.91 0c-154.8,0 -641.65,-352.76 -804.73,-352.76l-1300.79 0 0 -104.16zm3121.81 -177.2c-97.14,-16.01 -221.53,22.93 -189.36,113.07 46.82,131.17 235.12,-10.52 443.58,252.33 29.69,37.44 149.52,69.78 149.52,-64.57 0,-208.6 -250.91,-275.63 -403.74,-300.83zm-1896.55 -3132.71l151.67 -790.77 1757.97 403.85 -458.28 1661.24c-20.73,75.14 -36.12,188.26 12.52,255.44l694.49 959.05c56.23,77.65 136.93,133.32 223.37,172.91l361.02 165.35c218.99,100.3 325.63,352.16 250.68,567.7l-49.77 143.11 80.46 27.98 -65.81 188.76 -446.77 -155.38 0 -131.93 289.69 100.75 74.54 -214.31c54.2,-155.86 -24.68,-340.07 -184.76,-413.39 -130.09,-59.58 -405.47,-173.91 -509.69,-252.9 -46.84,-35.5 -88.98,-76.99 -124.04,-125.4l-694.49 -959.06c-74.52,-102.92 -63.19,-247.19 -31.56,-361.88l423.62 -1535.63 -1505.02 -345.74 -122.8 640.25 -127.04 0z"/>
</symbol>
 <g id="Ebene_x0020_1">
  <metadata id="CorelCorpID_0Corel-Layer"/>
  <use id="ISO_x0020_7010_x0020_M008_0" transform="scale(0.571429 0.571429)" x="-0" y="-0" width="7000" height="7000" xlink:href="#ISO_x0020_7010_x0020_M008"/>
 </g>
</svg>
