<?xml version="1.0" encoding="UTF-8"?>
<!DOCTYPE svg PUBLIC "-//W3C//DTD SVG 1.1//EN" "http://www.w3.org/Graphics/SVG/1.1/DTD/svg11.dtd">
<!-- Creator: Corel DESIGNER -->
<svg xmlns="http://www.w3.org/2000/svg" xml:space="preserve" width="40mm" height="40mm" version="1.1" style="shape-rendering:geometricPrecision; text-rendering:geometricPrecision; image-rendering:optimizeQuality; fill-rule:evenodd; clip-rule:evenodd"
viewBox="0 0 2000 2000"
 xmlns:xlink="http://www.w3.org/1999/xlink"
 xmlns:xodm="http://www.corel.com/coreldraw/odm/2003">
 <defs>
  <style type="text/css">
   <![CDATA[
    .fil0m {fill:#004873}
    .fil1 {fill:white}
   ]]>
  </style>
 </defs>
<symbol id="ISO_x0020_7010_x0020_M009" viewBox="-3750 -1808.34 3500 3500">
 <circle class="fil0m" cx="-2000" cy="-58.34" r="1750"/>
 <path class="fil1" d="M-2720.42 102.22c13.24,31.44 -34.57,51.58 -47.81,20.15 -52.78,-124.82 -105.1,-250 -158.48,-374.55 -42.14,-95.83 -191.79,-43 -152.65,67.62l520.77 1471.91c263.45,-146.85 570.24,-243.76 861.77,-317.33l-631.6 -1492.85c-42.34,-100.11 -194.34,-38 -154.49,63.22l137.2 324.35c13.25,31.44 -34.55,51.6 -47.81,20.15 -64.43,-152.32 -128.89,-304.65 -193.34,-456.97 -42.98,-101.28 -196.59,-36.25 -153.69,65.2l193.68 457.77c13.25,31.42 -34.55,51.59 -47.81,20.14l-178.81 -422.64c-42.71,-100.98 -196.49,-36 -153.73,65.11 68.93,162.91 137.86,325.82 206.8,488.74zm634 -924.45c0,61.71 -93.74,61.71 -93.74,0l0 -355.5c0,-91.29 -141.38,-99.02 -141.38,-4.81l0 585.95c-26.47,-20.78 -60.14,-31.15 -93.74,-28.69l0 -557.26c0,-120.51 129.27,-200.79 239.25,-142.99 24.85,-107.34 149.09,-161.19 245.97,-100.41 73.62,-158.16 309.76,-103.36 313.82,68.59 109.6,-54.06 235.17,26.16 235.17,144.96 0,375.27 -5.35,601.95 50.5,983.49 31.45,214.9 74.81,419.92 122.83,616.33 6.22,25.57 -9.32,50.88 -36.84,56.91 -182.79,40.07 -375.47,96.43 -551.53,157.88l-36.58 -86.46c169.32,-59.18 345.24,-110.85 523.03,-152.33 -98.76,-413.12 -165.16,-823.32 -165.16,-1261.44l0 -314.37c0,-91.36 -141.37,-89.5 -141.37,4.8l0 212.08c0,61.71 -93.74,61.71 -93.74,0l0 -357.9c0,-94.29 -141.37,-96.18 -141.37,-4.8l0 390.1c0,61.71 -93.74,61.71 -93.74,0l0 -316.4c0,-95.16 -141.37,-95.56 -141.37,-4.81l0 467.09zm-108.19 482.53l-58.38 -137.98c72.24,-134.49 263.84,-145.16 349.11,-15.55 28.58,43.44 40.69,97.71 29.43,152.31l-105.1 509.55 -64.13 -151.58 77.69 -376.65c19.65,-95.29 -86.62,-167.44 -168.21,-113.75 -47.71,31.39 -49.93,82.85 -60.41,133.65z"/>
</symbol>
 <g id="Ebene_x0020_1">
  <metadata id="CorelCorpID_0Corel-Layer"/>
  <use id="ISO_x0020_7010_x0020_M009_0" transform="scale(0.571429 0.571429)" x="-0" y="-0" width="3500" height="3500" xlink:href="#ISO_x0020_7010_x0020_M009"/>
 </g>
</svg>
