<?xml version="1.0" encoding="UTF-8"?>
<!DOCTYPE svg PUBLIC "-//W3C//DTD SVG 1.1//EN" "http://www.w3.org/Graphics/SVG/1.1/DTD/svg11.dtd">
<!-- Creator: Corel DESIGNER -->
<svg xmlns="http://www.w3.org/2000/svg" xml:space="preserve" width="40mm" height="40mm" version="1.1" style="shape-rendering:geometricPrecision; text-rendering:geometricPrecision; image-rendering:optimizeQuality; fill-rule:evenodd; clip-rule:evenodd"
viewBox="0 0 2000 2000"
 xmlns:xlink="http://www.w3.org/1999/xlink"
 xmlns:xodm="http://www.corel.com/coreldraw/odm/2003">
 <defs>
  <style type="text/css">
   <![CDATA[
    .fil0m {fill:#004873}
    .fil1 {fill:white}
   ]]>
  </style>
 </defs>
<symbol id="ISO_x0020_7010_x0020_M014" viewBox="-3750 4425 3500 3500">
 <circle class="fil0m" cx="-2000" cy="6175" r="1750"/>
 <path class="fil1" d="M-3259.51 5796.15l2368.12 4.32c2.64,-632.14 -523.71,-1056.14 -1112.53,-1038.75 -446.82,13.18 -841.23,360.4 -954.6,784.12 -22.36,83.56 -37.99,89.74 -156.98,121.52 -35.88,9.59 -81.73,8.78 -109.29,30.28 -27.56,21.5 -38.75,51.82 -34.73,98.5zm414.66 819.02l0 213.62c0,143.14 164.26,302.56 357.44,307.16l0 182.75c0,98.08 65.72,197.86 210.53,196.17l801.65 0c104.98,-0.19 193.27,-88.96 192.71,-194.23l0 -195.19c-0.33,-225.86 68.31,-460.16 177.44,-648.61 41.7,-72 81.77,-148.55 102.62,-229.1 27.69,-106.94 43.71,-244.99 35.78,-350.5l-93.35 0c1.58,58.15 1.77,102.36 -2.61,147.16 -12.12,124.1 -47.73,238.48 -106.8,348.48 -95.42,177.68 -175.84,352.05 -199.71,554.68 -14.31,121.43 -6.19,249.47 -11.71,371.55 -2.99,66.12 -51.05,98.06 -113.96,99.9l-783.96 0c-58.97,0.08 -111.11,-34.07 -111.43,-97.73l-1.43 -284.85 -48.53 0c-180.08,0 -306.8,-108.1 -306.8,-231.62l0 -293.63 -149.01 0c-74.64,0.23 -83.14,-59.47 -68.77,-121.55l114.08 -492.8 -95.91 0 -107.96 446.55c-32.51,134.46 0.65,271.77 153.46,271.77l56.2 0zm351.56 -482.35c55.06,-24.65 80.03,-89.13 55.77,-144.02 -24.26,-54.89 -88.56,-79.4 -143.63,-54.75 -55.07,24.65 -80.04,89.14 -55.78,144.02 24.26,54.89 88.57,79.4 143.63,54.75z"/>
</symbol>
 <g id="Ebene_x0020_1">
  <metadata id="CorelCorpID_0Corel-Layer"/>
  <use id="ISO_x0020_7010_x0020_M014_0" transform="scale(0.571429 0.571429)" x="-0" y="-0" width="3500" height="3500" xlink:href="#ISO_x0020_7010_x0020_M014"/>
 </g>
</svg>
