<?xml version="1.0" encoding="UTF-8"?>
<!DOCTYPE svg PUBLIC "-//W3C//DTD SVG 1.1//EN" "http://www.w3.org/Graphics/SVG/1.1/DTD/svg11.dtd">
<!-- Creator: Corel DESIGNER -->
<svg xmlns="http://www.w3.org/2000/svg" xml:space="preserve" width="40mm" height="40mm" version="1.1" style="shape-rendering:geometricPrecision; text-rendering:geometricPrecision; image-rendering:optimizeQuality; fill-rule:evenodd; clip-rule:evenodd"
viewBox="0 0 1000 1000"
 xmlns:xlink="http://www.w3.org/1999/xlink"
 xmlns:xodm="http://www.corel.com/coreldraw/odm/2003">
 <defs>
  <style type="text/css">
   <![CDATA[
    .fil0m {fill:#004873}
    .fil1 {fill:white}
   ]]>
  </style>
 </defs>
<symbol id="ISO_x0020_7010_x0020_M015" viewBox="1125 654.16 1750 1750">
 <circle class="fil0m" cx="2000" cy="1529.16" r="875"/>
 <path class="fil1" d="M2202.02 942.9c1.05,-1.4 2.08,-2.82 3.06,-4.25l149.49 39.48c5.14,172.13 25.45,325.93 104.34,408.95l0 678.82 -445.86 0 0 -56.76 420.93 0 0 -89.74 -420.93 0 0 -73.06 420.93 0 0 -89.75 -116.32 0 0 -769.95 -89.75 -23.7 0 793.65 -214.87 0 0 -399.27 188.97 -414.42zm-356.4 41.8c84.69,50.55 224.08,50.55 308.77,0l-154.39 338.58 -154.39 -338.58zm-304.51 1081.2l0 -678.82c78.88,-83.02 99.2,-236.82 104.34,-408.95l149.49 -39.48c0.98,1.44 2.01,2.85 3.06,4.25l188.97 414.43 0 399.27 -214.86 0 0 -793.65 -89.75 23.7 0 769.95 -127.4 0 0 89.75 432 0 0 73.06 -432 0 0 89.74 432 0 0 56.76 -445.86 0z"/>
</symbol>
 <g id="Ebene_x0020_1">
  <metadata id="CorelCorpID_0Corel-Layer"/>
  <use id="ISO_x0020_7010_x0020_M015_0" transform="scale(0.571429 0.571429)" x="-0" y="-0" width="1750" height="1750" xlink:href="#ISO_x0020_7010_x0020_M015"/>
 </g>
</svg>
