<?xml version="1.0" encoding="UTF-8"?>
<!DOCTYPE svg PUBLIC "-//W3C//DTD SVG 1.1//EN" "http://www.w3.org/Graphics/SVG/1.1/DTD/svg11.dtd">
<!-- Creator: Corel DESIGNER -->
<svg xmlns="http://www.w3.org/2000/svg" xml:space="preserve" width="40mm" height="40mm" version="1.1" style="shape-rendering:geometricPrecision; text-rendering:geometricPrecision; image-rendering:optimizeQuality; fill-rule:evenodd; clip-rule:evenodd"
viewBox="0 0 2000 2000"
 xmlns:xlink="http://www.w3.org/1999/xlink"
 xmlns:xodm="http://www.corel.com/coreldraw/odm/2003">
 <defs>
  <style type="text/css">
   <![CDATA[
    .fil0m {fill:#004873}
    .fil1 {fill:white}
   ]]>
  </style>
 </defs>
<symbol id="ISO_x0020_7010_x0020_M017" viewBox="-3750 1308.33 3500 3500">
 <circle class="fil0m" cx="-2000" cy="3058.33" r="1750"/>
 <path class="fil1" d="M-1541.9 4335.09c33.99,-0.51 61.33,-14.94 61.08,-32.23 -0.26,-17.28 -28.02,-30.89 -62.01,-30.38 -33.99,0.51 -61.33,14.94 -61.07,32.23 0.26,17.29 28.02,30.89 62.01,30.38zm-1442.09 -1617.89c-249.06,0.91 -151.05,352.97 -94.89,483.92 41.7,97.22 104.09,225.56 210.09,259.26 29.34,9.32 57.08,8.36 72.59,8.36 61.24,181.84 48.45,237.09 179.99,419.07 30.28,41.91 24.01,56.5 24.07,113.57l0.4 172.49c32.27,-32.84 99.32,-74.26 143.61,-87.48l30.97 24.97c-36.86,16.74 -113.2,42.02 -154.85,114.48 -44.99,78.27 28.49,153.74 82.54,183.34 103,61.82 288.56,94.62 469.78,97.52 -24.9,-4.27 -42.91,-16.66 -42.91,-31.28 0,-18.15 27.76,-32.87 61.99,-32.87 34.24,0 62,14.72 62,32.87 0,14.84 -18.54,27.38 -44,31.46 114.4,-0.76 224.65,-13.59 308.53,-38.73l3.26 -1.27c75.2,-28.06 307.6,-93.53 245.83,-231.7 -32.18,-71.97 -136.39,-103.35 -161.06,-119.02l26.63 -28.89c45.95,16.41 123.58,57.47 148.79,85.4l0.62 -228.64c0.01,-29.34 10.06,-34.9 24.85,-56.22 44.2,-63.78 145.35,-250.88 180.35,-423.58 59.28,1.67 82.5,-7.95 120.2,-34.61 84.25,-59.55 147.65,-193.47 183.14,-290.79 57.31,-157.16 105.4,-406.07 -125.65,-423.91 -0.82,-25.12 4.17,-31.68 5.86,-53.59 15.02,-193.95 -40.52,-416.15 -140.63,-576.09 -81.06,-129.49 -194.18,-249.87 -325.58,-328.05 -154.75,-92.08 -307.8,-147.54 -512.92,-147.34 -143.2,0.13 -301.9,28.91 -429,97.58 -151.87,82.05 -290.87,184.31 -386.03,332.27 -100.45,156.16 -128.75,239.79 -165.41,427.8 -16.3,83.53 -5.14,183.43 -3.16,249.76zm209.38 624.14c-17.04,29.41 -54.14,55.82 -112.62,-14.02 -44.05,-52.59 -79.7,-114.16 -104.56,-181.09 -27.47,-73.91 -53.3,-143.63 -53.47,-231.66 -0.07,-29.09 2.36,-77.53 25.6,-98.22 52.54,-46.83 64.88,61.91 131.97,25.94 40.07,-21.49 18.68,-67.14 14.53,-101.5 -3.79,-31.38 -9.96,-56.18 -10.66,-84.58 -7.57,-306.71 56.14,-430.66 234.69,-661.88 160.19,-180.4 377.41,-277.39 627.47,-282.2 250.06,-4.82 479.47,95.12 662.48,280.42 186.27,188.59 239.11,411.75 237.39,663.87 -0.2,28.7 -10.51,56.47 -14.34,84.92 -0.57,4.26 -14.2,49.67 0.28,78.2 11.9,23.43 31.62,27.13 56.47,23.59 29.66,-4.25 32.06,-29.15 51.2,-38.73 56.34,-28.17 83.69,87.03 63.83,174.93 -21.3,94.22 -42.65,171.39 -90.27,255.05 -20.37,35.76 -42.59,72.32 -70.25,99.94 -53.81,53.72 -76.47,34.88 -103,9.3 -47.88,-46.18 -18.35,-910.47 -26.73,-924.9 -347.53,-148.08 -1160.55,-118.27 -1492.3,-4.55 0,163.57 -3,328.23 -3.13,492.25 0.08,39.78 -18.83,424.97 -24.6,434.92zm780.15 917.6c-33.85,-0.44 -61.48,13.68 -61.71,31.53 -0.23,17.85 27.02,32.68 60.87,33.12 33.85,0.44 61.48,-13.68 61.71,-31.52 0.23,-17.85 -27.02,-32.68 -60.87,-33.12zm292.84 200.36c34.06,-0.94 61.28,-16.08 60.79,-33.82 -0.49,-17.75 -28.5,-31.37 -62.57,-30.43 -34.06,0.93 -61.27,16.08 -60.78,33.82 0.49,17.74 28.49,31.36 62.56,30.43zm-398.66 -41.81c34.24,0 62,-14.72 62,-32.87 0,-18.15 -27.75,-32.87 -62,-32.87 -34.23,0 -61.99,14.72 -61.99,32.87 0,18.15 27.76,32.87 61.99,32.87zm-218.38 -37.03c-33.89,-0.35 -61.53,13.92 -61.7,31.88 -0.19,17.95 27.14,32.8 61.04,33.14 33.89,0.35 61.52,-13.92 61.7,-31.88 0.18,-17.95 -27.14,-32.8 -61.04,-33.14zm-141.7 -59.53c33.81,-1.02 60.77,-16.87 60.21,-35.38 -0.56,-18.52 -28.42,-32.7 -62.24,-31.68 -33.82,1.02 -60.78,16.86 -60.22,35.38 0.57,18.51 28.43,32.69 62.25,31.67zm557.77 101.75c33.96,-0.66 61.21,-15.85 60.87,-33.95 -0.35,-18.1 -28.16,-32.24 -62.12,-31.6 -33.97,0.65 -61.22,15.85 -60.87,33.94 0.35,18.1 28.16,32.24 62.12,31.6zm144.68 -46.67c35.23,0 63.78,-14.89 63.78,-33.26 0,-18.37 -28.55,-33.26 -63.78,-33.26 -35.22,0 -63.77,14.89 -63.77,33.26 0,18.37 28.55,33.26 63.77,33.26zm-486.67 -8.85c33.47,-1 60.16,-16.77 59.61,-35.23 -0.56,-18.47 -28.14,-32.61 -61.62,-31.61 -33.47,1 -60.16,16.77 -59.61,35.23 0.56,18.46 28.14,32.61 61.62,31.61zm-79.65 -179.84c37.22,-0.44 67.24,-15.11 67.03,-32.8 -0.2,-17.68 -30.54,-31.66 -67.78,-31.24 -37.22,0.44 -67.24,15.11 -67.04,32.8 0.2,17.68 30.55,31.67 67.78,31.24zm227.43 -32.49c-37.48,-0.49 -68.06,13.41 -68.29,31.05 -0.23,17.63 29.98,32.32 67.47,32.81 37.49,0.49 68.07,-13.41 68.3,-31.05 0.23,-17.63 -29.97,-32.32 -67.47,-32.81zm118.67 -89.32c-37.03,0 -67.05,14.4 -67.05,32.18 0,17.77 30.02,32.18 67.05,32.18 37.04,0 67.06,-14.4 67.06,-32.18 0,-17.78 -30.02,-32.18 -67.06,-32.18zm246.64 224.64c37.75,0 68.35,-14.7 68.35,-32.85 0,-18.15 -30.6,-32.85 -68.35,-32.85 -37.75,0 -68.35,14.7 -68.35,32.85 0,18.14 30.6,32.85 68.35,32.85zm-516.86 -8.6c37.67,0 68.21,-14.66 68.21,-32.75 0,-18.09 -30.54,-32.75 -68.21,-32.75 -37.67,0 -68.2,14.66 -68.2,32.75 0,18.09 30.53,32.75 68.2,32.75zm368.63 -54.64c37.54,-0.47 67.8,-15.21 67.58,-32.94 -0.22,-17.73 -30.83,-31.73 -68.38,-31.27 -37.54,0.47 -67.8,15.21 -67.58,32.94 0.22,17.73 30.83,31.73 68.38,31.27zm235.66 -26.72c36.57,0 66.21,-15.1 66.21,-33.72 0,-18.62 -29.64,-33.72 -66.21,-33.72 -36.57,0 -66.21,15.1 -66.21,33.72 0,18.62 29.64,33.72 66.21,33.72zm-673 -151.01l32.99 28.51c171.51,-46.05 373.56,-47.29 572.75,-4.18l26.39 -28.95c-177.96,-51.4 -464.25,-50.42 -632.13,4.62zm-264.53 -296.45l19.05 35.98c289.68,-189.34 852.64,-160.41 1123.64,-0.26 6.24,-11.43 11.3,-24.96 17.74,-40.49 -271.24,-165.87 -902.52,-194.41 -1160.43,4.78zm216.65 -708.83c153.12,-1.68 276.09,-110.81 274.63,-243.77 -1.46,-132.95 -126.78,-239.38 -279.9,-237.69 -153.12,1.68 -276.08,110.81 -274.62,243.77 1.46,132.95 126.77,239.37 279.89,237.69zm729.3 -482.43c-153.73,0 -278.35,107.91 -278.35,241.04 0,133.11 124.62,241.03 278.35,241.03 153.74,0 278.36,-107.91 278.36,-241.03 0,-133.12 -124.62,-241.04 -278.36,-241.04z"/>
</symbol>
 <g id="Ebene_x0020_1">
  <metadata id="CorelCorpID_0Corel-Layer"/>
  <use id="ISO_x0020_7010_x0020_M017_0" transform="scale(0.571429 0.571429)" x="-0" y="-0" width="3500" height="3500" xlink:href="#ISO_x0020_7010_x0020_M017"/>
 </g>
</svg>
