<?xml version="1.0" encoding="UTF-8"?>
<!DOCTYPE svg PUBLIC "-//W3C//DTD SVG 1.1//EN" "http://www.w3.org/Graphics/SVG/1.1/DTD/svg11.dtd">
<!-- Creator: Corel DESIGNER -->
<svg xmlns="http://www.w3.org/2000/svg" xml:space="preserve" width="40mm" height="40mm" version="1.1" style="shape-rendering:geometricPrecision; text-rendering:geometricPrecision; image-rendering:optimizeQuality; fill-rule:evenodd; clip-rule:evenodd"
viewBox="0 0 2000 2000"
 xmlns:xlink="http://www.w3.org/1999/xlink"
 xmlns:xodm="http://www.corel.com/coreldraw/odm/2003">
 <defs>
  <style type="text/css">
   <![CDATA[
    .fil0m {fill:#004873}
    .fil1 {fill:white}
   ]]>
  </style>
 </defs>
<symbol id="ISO_x0020_7010_x0020_M025" viewBox="-3750 4425 3500 3500">
 <circle class="fil0m" cx="-2000" cy="6175" r="1750"/>
 <path class="fil1" d="M-2724.82 5661.16c-14.72,2.1 -26.03,14.75 -26.03,30.05 0,16.77 13.59,30.36 30.36,30.36 1.35,0 2.67,-0.09 3.97,-0.26 5.09,46.23 7.64,92.75 12.11,138.83 -14.53,2.27 -25.64,14.84 -25.64,30 0,16.76 13.59,30.36 30.36,30.36 0.89,0 1.76,-0.04 2.63,-0.11 4.94,32.08 11.8,63.79 22.15,94.88 30.38,91.24 84.91,213.04 166.76,268.68 -1.77,1.23 -250.81,65.13 -287.22,76.38 -114.1,32.1 -205.53,92.81 -281.67,179.76 -46.35,52.91 -135.11,236.94 -150.56,363.28 13.71,29.68 27.22,46.92 57.7,70.87 20.75,-143.61 50.19,-243.17 128.62,-364.69 84.03,-112.01 175.75,-153.66 303.84,-192.53 79.59,-24.15 249.59,-66.57 324.81,-86.76 43.56,14.41 132.03,61.1 223.35,136.65 170.38,105.53 272.12,15.66 374.3,-34.79 46.21,-22.82 203.36,-104.6 236.42,-121.16 82.39,9.53 253.16,47.92 356.48,88.14 95.64,37.23 187.77,109.76 246.11,198.77 59.14,90.24 107.96,278.53 128.27,380.49 25.88,-15.05 45.99,-30.97 59.63,-47.5 -11.91,-107.77 -50.73,-235.03 -102.17,-338.55 -61.69,-124.12 -143.02,-185.77 -278.82,-247.31 -113.01,-51.22 -242.12,-85.06 -331.28,-96.38 70.72,-64.61 124.75,-209.95 146.29,-270.48 8.65,-24.32 15.34,-47.98 20.96,-72.4 3.02,1 6.25,1.55 9.6,1.55 16.77,0 30.36,-13.59 30.36,-30.36 0,-16.1 -12.53,-29.27 -28.37,-30.3 6.48,-38.18 12.19,-80.27 19.82,-130.53 0.72,0.06 1.45,0.08 2.18,0.08 16.77,0 30.37,-13.59 30.37,-30.36 0,-14.32 -9.91,-26.33 -23.26,-29.53 25.74,-169.65 25.55,-307.59 -14.68,-465.93 -24.87,-105.85 -105.78,-230.05 -194.73,-290.42 -142.14,-96.47 -370.24,-155.18 -541.72,-155.57 -203.59,-0.46 -369.48,32.96 -521.28,178.26 -93.93,89.9 -154.42,193.05 -174.82,321.76 -21.13,133.31 -5.85,282.91 14.77,416.78zm74.18 -0.21c66.73,-2.01 124.93,-0.01 201.87,5.77 8.62,-16.13 59.92,-54.41 87.19,-65.34 179.79,-72.09 201.34,80.14 345.53,82.52 142.72,2.36 165.44,-148.86 345.47,-86.5 40.43,14.01 60.01,36.28 86.84,66.47 16.5,1.12 215.11,-9.48 218.7,-9.95 46.43,-279.57 15.63,-689.85 -387.78,-791.94 -196.96,-62.6 -480.22,-65.76 -660.36,34.62 -96.4,53.73 -159.61,136.84 -204.56,213.34 -74.09,126.06 -65.85,386.01 -32.9,551.02zm211.55 255.3c-39.61,1.79 -134.78,6.27 -183.35,5.38 3.61,68.81 64.86,225.63 137.8,283.21 113.38,89.51 139.59,53.45 271.05,156.6 54.12,42.47 111.85,87.7 202.72,80.58 55.31,-4.33 100.23,-42.48 146.13,-64.42 18.9,-9.03 30.45,-12.71 47.62,-24.69 85,-59.35 189.33,-81.32 260.43,-162.61 73.41,-83.91 105.99,-183.79 142.68,-285.54 -22.3,0.48 -146.96,-12.81 -150.18,-10.47 -35.14,25.48 -160.7,170.95 -324.59,41.35 -43.14,-34.12 -85.3,-59.15 -129.77,-59.03 -91.21,0.23 -110.42,75.94 -189.81,104.45 -93.13,33.44 -188.33,-3.56 -230.73,-64.8zm224.44 -861.19c-0.59,-5.88 -12.67,-60.87 -44.26,-47.03 -13.32,5.84 -10.04,29.75 -7.39,39.02 9.78,34.16 54.06,56.32 83.96,66.64 54.24,18.72 127.86,15.46 185.58,8.14 61.2,-7.76 102.75,-27.34 145.82,-57.69 41.33,-29.12 49.12,-34.41 81.56,-67.24 7.31,-7.4 39.02,-43.31 27.27,-68.45 -16.54,-31.38 -45.76,24.14 -63.97,40.47 -92.75,83.24 -141.5,112.55 -256.42,118.22 -58.55,2.89 -106.61,-7.56 -152.14,-32.09zm-420.22 804.64c41.53,1.82 112.77,3.07 161.72,1.2 -8.43,-22.35 -13.07,-46.56 -13.07,-71.86 0,-23.55 4.02,-46.15 11.37,-67.19 -55.92,-3.01 -124.09,-1.02 -169.84,-0.38 4.61,41.09 8.27,99.97 9.82,138.23zm561.71 -878.69c1,18.09 -132.77,11.8 -133.01,32.01 -0.41,33.96 95.01,28.61 129.57,23.86 24.72,-3.4 125.17,-22.13 125.47,-36.87 0.34,-16.59 -11.14,-12.29 -30.93,-14.59 -14.18,-1.65 -47.89,8.94 -48.18,-5.09 -0.26,-12.51 45.92,-9.98 40.8,-37.79 -2.39,-12.99 -84.94,-5.84 -140.9,-13.75 -30.43,-4.3 -115.16,-31.32 -119.01,-17.93 -6.61,23.07 33.48,43.21 69.84,50.91 19.32,4.09 106.86,11.05 106.36,19.22zm523.75 859.89c51.06,2.71 119.6,3.9 148.62,5.09 9.18,-46.53 17.03,-78.5 22.98,-127.7l-174.76 8.16c6.37,19.72 9.82,40.75 9.82,62.59 0,17.93 -2.32,35.31 -6.67,51.86zm-296.92 338.24c1.65,-20.9 -35.39,17.31 -68.32,25.25 -62.25,15.01 -117.88,13.45 -173.87,-0.93 -46.75,-12.01 -73.3,-39.96 -72.89,-21.78 1.25,56.31 90.72,84.81 155.03,84.45 61.54,-0.35 154.68,-18.99 160.05,-86.99zm-84.2 -141.98c-0.23,-22.03 -13.74,-39.76 -30.18,-39.59 -16.44,0.17 -29.59,18.18 -29.36,40.21 0.23,22.03 13.74,39.77 30.18,39.59 16.44,-0.17 29.59,-18.18 29.36,-40.21zm-98.01 0c-0.23,-22.03 -13.74,-39.76 -30.18,-39.59 -16.45,0.17 -29.59,18.18 -29.36,40.21 0.23,22.03 13.74,39.77 30.18,39.59 16.44,-0.17 29.59,-18.18 29.36,-40.21z"/>
</symbol>
 <g id="Ebene_x0020_1">
  <metadata id="CorelCorpID_0Corel-Layer"/>
  <use id="ISO_x0020_7010_x0020_M025_0" transform="scale(0.571429 0.571429)" x="-0" y="-0" width="3500" height="3500" xlink:href="#ISO_x0020_7010_x0020_M025"/>
 </g>
</svg>
