<?xml version="1.0" encoding="UTF-8"?>
<!DOCTYPE svg PUBLIC "-//W3C//DTD SVG 1.1//EN" "http://www.w3.org/Graphics/SVG/1.1/DTD/svg11.dtd">
<!-- Creator: Corel DESIGNER -->
<svg xmlns="http://www.w3.org/2000/svg" xml:space="preserve" width="40mm" height="40mm" version="1.1" style="shape-rendering:geometricPrecision; text-rendering:geometricPrecision; image-rendering:optimizeQuality; fill-rule:evenodd; clip-rule:evenodd"
viewBox="0 0 4000 4000"
 xmlns:xlink="http://www.w3.org/1999/xlink"
 xmlns:xodm="http://www.corel.com/coreldraw/odm/2003">
 <defs>
  <style type="text/css">
   <![CDATA[
    .fil0m {fill:#004873}
    .fil1 {fill:white}
   ]]>
  </style>
 </defs>
<symbol id="ISO_x0020_7010_x0020_M027" viewBox="-1500 2616.66 7000 7000">
 <circle class="fil0m" cx="2000" cy="6116.66" r="3500"/>
 <path class="fil1" d="M3216.53 6438.18c0,-305.01 -247.26,-552.27 -552.27,-552.27 -305.01,0 -552.26,247.26 -552.26,552.27 0,305.01 247.25,552.26 552.26,552.26 305.01,0 552.27,-247.25 552.27,-552.26zm154.65 0c0,-390.43 -316.49,-706.91 -706.92,-706.91 -390.42,0 -706.91,316.48 -706.91,706.91 0,390.43 316.49,706.91 706.91,706.91 390.43,0 706.92,-316.48 706.92,-706.91zm84.66 0c0,-218.59 -88.61,-416.5 -231.84,-559.74 -143.24,-143.23 -341.15,-231.84 -559.74,-231.84 -218.6,0 -416.51,88.61 -559.74,231.84 -143.23,143.24 -231.83,341.15 -231.83,559.74 0,218.6 88.6,416.51 231.83,559.74 143.25,143.23 341.15,231.83 559.74,231.83 218.58,0 416.5,-88.6 559.74,-231.83 143.23,-143.23 231.84,-341.14 231.84,-559.74zm-93.01 -491.69l158.36 -281.62 -244.16 -204.87 -249.68 204.79c-45.92,-21.59 -94.08,-39.23 -144.04,-52.44l-59.69 -317.37 -318.71 0 -59.62 317.35c-49.96,13.21 -98.13,30.84 -144.06,52.43l-249.73 -204.75 -244.15 204.86 158.4 281.56c-29.36,41.62 -55.09,86 -76.73,132.64l-322.92 3.67 -55.34 313.87 302.34 113.88c4.35,51.75 13.3,102.19 26.45,150.91l-245.01 210.38 159.36 276.02 304.86 -107.12 1.49 1.51c35.6,35.6 74.34,68.06 115.75,96.95l-52.48 318.81 299.5 109 164.64 -277.96c25.23,2.25 50.79,3.38 76.6,3.38 25.8,0 51.32,-1.14 76.54,-3.38l164.72 277.97 299.5 -109.02 -52.54 -318.76c41.43,-28.9 80.17,-61.38 115.79,-96.99l1.45 -1.47 304.92 107.09 159.35 -276.04 -245.02 -210.3c13.16,-48.71 22.12,-99.16 26.46,-150.92l302.36 -113.93 -55.36 -313.89 -322.89 -3.6c-21.64,-46.65 -47.37,-91.01 -76.71,-132.64z"/>
 <path class="fil1" d="M1458.31 5499.95c0,-232.08 -188.12,-420.21 -420.21,-420.21 -232.07,0 -420.2,188.13 -420.2,420.21 0,232.07 188.13,420.2 420.2,420.2 232.09,0 420.21,-188.13 420.21,-420.2zm117.67 0c0,-297.07 -240.81,-537.88 -537.88,-537.88 -297.06,0 -537.87,240.81 -537.87,537.88 0,297.06 240.81,537.87 537.87,537.87 297.07,0 537.88,-240.81 537.88,-537.87zm64.42 0c0,-166.32 -67.42,-316.91 -176.4,-425.9 -108.99,-108.98 -259.57,-176.4 -425.9,-176.4 -166.32,0 -316.9,67.42 -425.88,176.4 -108.98,108.99 -176.4,259.58 -176.4,425.9 0,166.32 67.42,316.91 176.4,425.89 108.99,108.98 259.57,176.4 425.88,176.4 166.32,0 316.91,-67.42 425.9,-176.4 108.98,-108.98 176.4,-259.57 176.4,-425.89zm-70.77 -374.12l120.49 -214.28 -185.77 -155.88 -189.97 155.83c-34.94,-16.43 -71.59,-29.85 -109.6,-39.91l-45.42 -241.48 -242.5 0 -45.36 241.47c-38.02,10.05 -74.67,23.46 -109.61,39.89l-190.02 -155.79 -185.76 155.87 120.52 214.23c-22.34,31.67 -41.92,65.44 -58.39,100.93l-245.7 2.79 -42.11 238.81 230.05 86.65c3.31,39.38 10.12,77.76 20.12,114.83l-186.42 160.07 121.25 210.02 231.97 -81.51 1.13 1.15c27.09,27.09 56.56,51.79 88.07,73.77l-39.93 242.58 227.88 82.93 125.28 -211.49c19.19,1.71 38.64,2.57 58.27,2.57 19.63,0 39.06,-0.87 58.24,-2.57l125.33 211.5 227.88 -82.95 -39.97 -242.54c31.53,-21.99 61,-46.7 88.1,-73.8l1.11 -1.12 232 81.48 121.25 -210.02 -186.43 -160.01c10.01,-37.07 16.83,-75.46 20.13,-114.84l230.06 -86.69 -42.12 -238.83 -245.68 -2.74c-16.47,-35.49 -36.04,-69.24 -58.37,-100.92z"/>
 <path class="fil1" d="M3370.26 4746.4l554.67 0 0 -554.67 -554.67 0 0 554.67zm554.67 659.04l0 -554.67 -554.67 0 0 554.67 554.67 0zm104.36 -606.85l0 3347.36 -4058.58 0 0 -4058.58c1352.86,0 2705.72,0 4058.58,0l0 711.22zm-104.36 1265.89l0 -554.67 -554.67 0 0 554.67 554.67 0zm0 659.03l0 -554.67 -554.67 0 0 554.67 554.67 0zm0 659.04l0 -554.67 -554.67 0 0 554.67 554.67 0zm-554.67 659.04l554.67 0 0 -554.67 -554.67 0 0 554.67zm-104.37 -3849.86l-554.67 0 0 554.67 554.67 0 0 -554.67zm0 1213.71l0 -554.67 -554.67 0 0 554.67 554.67 0zm0 659.04l0 -554.67 -554.67 0 0 554.67 554.67 0zm0 659.03l0 -554.67 -554.67 0 0 554.67 554.67 0zm0 659.04l0 -554.67 -554.67 0 0 554.67 554.67 0zm-554.67 659.04l554.67 0 0 -554.67 -554.67 0 0 554.67zm-104.37 -3295.19l0 -554.67 -554.67 0 0 554.67 554.67 0zm0 659.04l0 -554.67 -554.67 0 0 554.67 554.67 0zm0 659.04l0 -554.67 -554.67 0 0 554.67 554.67 0zm0 659.03l0 -554.67 -554.67 0 0 554.67 554.67 0zm0 659.04l0 -554.67 -554.67 0 0 554.67 554.67 0zm-554.67 659.04l554.67 0 0 -554.67 -554.67 0 0 554.67zm-104.36 -3295.19l0 -554.67 -554.67 0 0 554.67 554.67 0zm0 659.04l0 -554.67 -554.67 0 0 554.67 554.67 0zm0 659.04l0 -554.67 -554.67 0 0 554.67 554.67 0zm0 659.03l0 -554.67 -554.67 0 0 554.67 554.67 0zm0 659.04l0 -554.67 -554.67 0 0 554.67 554.67 0zm-554.67 659.04l554.67 0 0 -554.67 -554.67 0 0 554.67zm-104.37 -3295.19l0 -554.67 -554.67 0 0 554.67 554.67 0zm0 659.04l0 -554.67 -554.67 0 0 554.67 554.67 0zm0 659.04l0 -554.67 -554.67 0 0 554.67 554.67 0zm0 659.03l0 -554.67 -554.67 0 0 554.67 554.67 0zm0 659.04l0 -554.67 -554.67 0 0 554.67 554.67 0zm-554.67 659.04l554.67 0 0 -554.67 -554.67 0 0 554.67zm-104.37 -3295.19l0 -554.67 -554.67 0 0 554.67 554.67 0zm0 659.04l0 -554.67 -554.67 0 0 554.67 554.67 0zm0 659.04l0 -554.67 -554.67 0 0 554.67 554.67 0zm0 659.03l0 -554.67 -554.67 0 0 554.67 554.67 0zm0 659.04l0 -554.67 -554.67 0 0 554.67 554.67 0zm-554.67 659.04l554.67 0 0 -554.67 -554.67 0 0 554.67z"/>
</symbol>
 <g id="Ebene_x0020_1">
  <metadata id="CorelCorpID_0Corel-Layer"/>
  <use id="ISO_x0020_7010_x0020_M027_0" transform="scale(0.571429 0.571429)" x="-0" y="-0" width="7000" height="7000" xlink:href="#ISO_x0020_7010_x0020_M027"/>
 </g>
</svg>
