<?xml version="1.0" encoding="UTF-8"?>
<!DOCTYPE svg PUBLIC "-//W3C//DTD SVG 1.1//EN" "http://www.w3.org/Graphics/SVG/1.1/DTD/svg11.dtd">
<!-- Creator: Corel DESIGNER -->
<svg xmlns="http://www.w3.org/2000/svg" xml:space="preserve" width="40mm" height="40mm" version="1.1" style="shape-rendering:geometricPrecision; text-rendering:geometricPrecision; image-rendering:optimizeQuality; fill-rule:evenodd; clip-rule:evenodd"
viewBox="0 0 2000 2000"
 xmlns:xlink="http://www.w3.org/1999/xlink"
 xmlns:xodm="http://www.corel.com/coreldraw/odm/2003">
 <defs>
  <style type="text/css">
   <![CDATA[
    .fil0m {fill:#004873}
    .fil1 {fill:white}
   ]]>
  </style>
 </defs>
<symbol id="ISO_x0020_7010_x0020_M028" viewBox="-3750 1308.33 3500 3500">
 <circle class="fil0m" cx="-2000" cy="3058.33" r="1750"/>
 <path class="fil1" d="M-2804.91 2862.22l508.95 203.57c75.97,30.38 121.99,-84.74 46.02,-115.13l-508.95 -203.57c-75.68,-30.25 -121.67,84.9 -46.03,115.13zm-323.01 -49.18l168.32 84.53c35.35,17.75 75.05,19.34 110.51,7.59 6.84,-2.27 13.51,-5.03 19.94,-8.27 2.83,1.45 5.75,2.78 8.75,3.98l134.55 53.82c-33.12,37.11 -75.07,64.08 -120.84,79.24 -62.6,20.74 -132.68,19.46 -197.32,-8.11l-1.24 0 -14.77 -7.42 -168.32 -84.53c-69.09,-34.69 -117.62,-94.24 -140.14,-162.2 -11.76,-35.51 -16.45,-73.44 -13.25,-111.41l142.46 70.31c11.88,34.78 36.58,65 71.35,82.47zm361.57 -110.84c-13.49,-26.48 -35.03,-48.97 -63.17,-63.11l-168.32 -84.53c-34.26,-17.2 -72.61,-19.22 -107.23,-8.63l-143.94 -71.04c28.79,-25.62 62.35,-44.79 98.26,-56.69 67.8,-22.47 144.38,-19.1 213.33,15.53l168.32 84.53c69.09,34.7 117.62,94.23 140.14,162.2 8.46,25.52 13.25,52.28 14.1,79.4l-128.53 -51.41c-7.54,-3.01 -15.24,-5.08 -22.95,-6.24zm1096.15 525.77l0 -130.86 135.56 -54.22c0.07,3.04 0.11,6.09 0.11,9.14l0 175.94 -135.67 0zm-789.75 0l0 -175.94c0,-2.33 0.03,-4.64 0.07,-6.96l135.61 54.24 0 128.66 -135.68 0zm736.79 -332.89c-7.28,-9.59 -15.19,-18.66 -23.68,-27.16 -47.3,-47.29 -112.48,-76.64 -184.12,-76.64l-132.54 0c-71.64,0 -136.82,29.36 -184.12,76.64 -8.99,8.99 -17.34,18.64 -24.95,28.85l-128.82 -51.53c16.39,-26.64 35.84,-51.23 57.86,-73.24 71.82,-71.82 170.95,-116.4 280.04,-116.4l132.54 0c109.1,0 208.22,44.58 280.04,116.4 21.53,21.53 40.61,45.52 56.77,71.49l-129 51.59zm528.11 -32.86l-508.95 203.57c-75.97,30.38 -121.99,-84.74 -46.02,-115.13l508.95 -203.57c76,-30.38 121.99,84.78 46.03,115.13zm323.01 -49.18l-168.32 84.53c-35.35,17.75 -75.05,19.34 -110.51,7.59 -6.84,-2.27 -13.51,-5.03 -19.93,-8.27 -2.83,1.45 -5.75,2.78 -8.76,3.98l-134.55 53.82c33.12,37.11 75.07,64.08 120.85,79.24 62.6,20.74 132.67,19.46 197.31,-8.11l184.33 -91.95c69.08,-34.69 117.63,-94.24 140.14,-162.2 11.76,-35.51 16.44,-73.44 13.25,-111.41l-142.46 70.31c-11.87,34.78 -36.58,65 -71.35,82.47zm-361.56 -110.84c13.49,-26.48 35.03,-48.97 63.17,-63.11l168.31 -84.53c34.26,-17.2 72.61,-19.22 107.23,-8.63l143.94 -71.04c-28.79,-25.62 -62.35,-44.79 -98.26,-56.69 -67.8,-22.47 -144.38,-19.1 -213.33,15.53l-168.32 84.53c-69.09,34.7 -117.62,94.23 -140.14,162.2 -8.46,25.52 -13.25,52.28 -14.1,79.4l128.54 -51.41c7.54,-3.01 15.24,-5.08 22.95,-6.24zm-882.37 993.23c0,-65.58 53.16,-118.74 118.74,-118.74 65.58,0 118.73,53.16 118.73,118.74 0,43.38 -23.26,81.31 -57.98,102.03l0 321.22 -121.5 0 0 -321.22c-34.72,-20.72 -57.99,-58.65 -57.99,-102.03zm742.64 191.29l0 -617 -1247.8 0 0 617c0,339.3 277.68,616.99 616.99,616.99 347.92,0 630.81,-266.09 630.81,-616.99zm-1962.98 -1408.48c-16.49,37.93 -31.47,76.66 -44.74,116.18l207.9 102.59c73.05,36.06 127.91,-75.13 54.86,-111.18l-218.02 -107.6zm2717.4 116.19l-207.88 102.59c-73.38,36.21 -128.22,-74.99 -54.86,-111.18l218.01 -107.59c16.48,37.93 31.46,76.65 44.73,116.18z"/>
</symbol>
 <g id="Ebene_x0020_1">
  <metadata id="CorelCorpID_0Corel-Layer"/>
  <use id="ISO_x0020_7010_x0020_M028_0" transform="scale(0.571429 0.571429)" x="-0" y="-0" width="3500" height="3500" xlink:href="#ISO_x0020_7010_x0020_M028"/>
 </g>
</svg>
