<?xml version="1.0" encoding="UTF-8"?>
<!DOCTYPE svg PUBLIC "-//W3C//DTD SVG 1.1//EN" "http://www.w3.org/Graphics/SVG/1.1/DTD/svg11.dtd">
<!-- Creator: Corel DESIGNER -->
<svg xmlns="http://www.w3.org/2000/svg" xml:space="preserve" width="40mm" height="40mm" version="1.1" style="shape-rendering:geometricPrecision; text-rendering:geometricPrecision; image-rendering:optimizeQuality; fill-rule:evenodd; clip-rule:evenodd"
viewBox="0 0 4000 4000"
 xmlns:xlink="http://www.w3.org/1999/xlink"
 xmlns:xodm="http://www.corel.com/coreldraw/odm/2003">
 <defs>
  <style type="text/css">
   <![CDATA[
    .fil0m {fill:#004873}
    .fil1 {fill:white}
   ]]>
  </style>
 </defs>
<symbol id="ISO_x0020_7010_x0020_M033" viewBox="-1500 -9850 7000 7000">
 <circle class="fil0m" cx="2000" cy="-6350" r="3500"/>
 <path class="fil1" d="M3025.12 -6905.75l-325.23 63.96 739.1 466.92 507.25 -712.02 -295.89 58.19c-96.82,-495.17 -358.21,-931.43 -724.91,-1249.5l-417.25 481.45c261.48,226.81 447.88,537.9 516.93,891z"/>
 <path class="fil1" d="M2052.01 -7892.18l125.79 719.55 -472.81 329.64 -120 0c-157.56,0 -296.07,133.13 -296.07,303.73l0 1111.47 9.68 115.99c0,103.28 84.49,187.76 187.77,187.76 325.83,0 651.68,0 977.52,0l0 858.79c0,246.75 375.54,246.75 375.54,0l0 -1046.56c0,-103.28 -84.48,-187.77 -187.77,-187.77l-755.24 0 -2.78 -1080.54 574.27 -400.38c51.74,-36.07 54.57,-72.32 45.09,-128.33l-142.29 -839.06c-35.64,-210.19 -355.41,-154.27 -318.7,55.71zm-126.58 620.9c0,-186.65 -151.32,-337.97 -337.98,-337.97 -186.65,0 -337.97,151.32 -337.97,337.97 0,186.66 151.32,337.98 337.97,337.98 186.66,0 337.98,-151.32 337.98,-337.98z"/>
 <polygon class="fil1" points="1114.88,-7958.94 1114.88,-9070.19 885.27,-9004.62 885.27,-7872.8 "/>
 <circle class="fil1" cx="1008.48" cy="-5890.5" r="118.18"/>
 <path class="fil1" d="M1096.4 -6094.94c6.32,2.72 12.48,5.72 18.48,9l0 -1539.87 -229.61 86.16 0 902.61 211.13 542.1z"/>
 <path class="fil1" d="M1034.04 -6111.54l-476.85 -1224.37c-25.49,-65.48 5.46,-138.19 71.69,-163.03l1926.42 -722.77 -232.46 -584.43 -193.24 76.65 154.16 387.56 -1727.46 648.12c-173.99,65.27 -260.54,259.88 -193.17,432.92l477.11 1225.02c47.4,-54.6 118.61,-84.28 193.8,-75.67z"/>
 <path class="fil1" d="M788.82 -5854.94l-694.32 525.34 125.57 166.34 694.54 -525.51c-64.86,-29.87 -119.32,-104.73 -125.79,-166.17z"/>
 <path class="fil1" d="M1114.88 -5696.21c-41.2,22.6 -89.23,31.76 -137.32,25.04l-92.29 69.85c0,274.91 -34.53,495.29 168.4,698.24 103.94,103.95 247.48,168.4 405.61,168.4l888.33 0 0 -229.61 -888.33 0c-189.57,0 -344.4,-154.87 -344.4,-344.4l0 -387.52z"/>
</symbol>
 <g id="Ebene_x0020_1">
  <metadata id="CorelCorpID_0Corel-Layer"/>
  <use id="ISO_x0020_7010_x0020_M033_0" transform="scale(0.571429 0.571429)" x="-0" y="-0" width="7000" height="7000" xlink:href="#ISO_x0020_7010_x0020_M033"/>
 </g>
</svg>
