<?xml version="1.0" encoding="UTF-8"?>
<!DOCTYPE svg PUBLIC "-//W3C//DTD SVG 1.1//EN" "http://www.w3.org/Graphics/SVG/1.1/DTD/svg11.dtd">
<!-- Creator: Corel DESIGNER -->
<svg xmlns="http://www.w3.org/2000/svg" xml:space="preserve" width="40mm" height="40mm" version="1.1" style="shape-rendering:geometricPrecision; text-rendering:geometricPrecision; image-rendering:optimizeQuality; fill-rule:evenodd; clip-rule:evenodd"
viewBox="0 0 4000 4000"
 xmlns:xlink="http://www.w3.org/1999/xlink"
 xmlns:xodm="http://www.corel.com/coreldraw/odm/2003">
 <defs>
  <style type="text/css">
   <![CDATA[
    .fil0m {fill:#004873}
    .fil1 {fill:white}
   ]]>
  </style>
 </defs>
<symbol id="ISO_x0020_7010_x0020_M035" viewBox="-1500 8850 7000 7000">
 <circle class="fil0m" cx="2000" cy="12350" r="3500"/>
 <polygon class="fil1" points="3931.9,14348.57 4355.11,13944.68 3931.9,13540.84 3590.56,13540.84 3885.58,13816.97 2989.98,13816.97 2989.98,14072.44 3885.58,14072.44 3590.56,14348.57 "/>
 <path class="fil1" d="M939.22 12520.88l975.16 -1.71 2.04 952.93 -853.04 497.7 -469.36 -187.45 -180.09 -442.73 525.29 -818.74zm1257.4 1238.35c73.81,-35.68 115.68,-112.72 109.34,-191.12l-3.64 -878.04 764.18 -731.74 -0.42 611.37c-0.02,48.14 19.17,91.32 50.41,123.17l546.52 555.13c161.08,165.19 412.88,-80.61 250.36,-245.72l-496.45 -504.26 0.48 -707.62c0.03,-47.11 -18.52,-89.88 -48.72,-121.42l-492.21 -514.02 -44.83 -628.43 570.7 -359.35c81.97,-51.6 106.57,-159.87 54.97,-241.83 -51.61,-82 -159.89,-106.61 -241.86,-55.02l-656.24 413.2c-49.84,30.59 -82.26,82.13 -85.15,140.89l55.69 799.76c3.28,46.04 24.03,86.64 55.34,115.81l-825.11 790.09 -924.95 1.78c-70.83,-0.98 -139.2,36.88 -174.47,102.62l-426.06 664.09 -454.6 -1117.54c-18.4,-45.23 -7.9,-93.86 27.8,-127.23l154.22 -144.16c50.2,-46.82 -20.88,-122.9 -70.93,-76.23l-154.22 144.16c-67.42,63.03 -88.28,157.08 -53.5,242.6l776.38 1908.52 -672.68 -268.65c-63.74,-25.34 -102.3,71.46 -38.52,96.86l765.72 305.8 345.98 850.53c25.82,63.61 122.37,24.45 96.62,-39.14l-308.24 -757.72 2000.45 798.92c85.73,34.24 179.65,12.77 242.24,-55.05l143.18 -155.14c46.35,-50.33 -30.19,-120.92 -76.69,-70.44l-143.17 155.14c-33.15,35.92 -81.71,46.73 -127.04,28.62l-1165.64 -465.52 674.76 -393.67zm1423.3 -2870.47c126.54,132.14 122,341.85 -10.15,468.39 -132.14,126.55 -341.9,122 -468.44,-10.14 -126.54,-132.15 -122,-341.87 10.17,-468.44 132.14,-126.55 341.88,-121.98 468.42,10.19z"/>
 <path class="fil1" d="M1469.69 12057.81l269.65 -0.51 -181.69 -2545.24c-90.06,13.93 -178.74,32.04 -265.83,54.13l177.87 2491.62z"/>
 <path class="fil1" d="M2055.02 9478.73l151.63 2122.8 252.43 -241.71 -133.09 -1863.32c-89.15,-10.07 -179.53,-16.06 -270.97,-17.77z"/>
 <polygon class="fil1" points="2544.73,12558.78 2375.19,12721.12 2377.09,13987.64 2408.59,14428.63 2686.2,14539.5 "/>
 <polygon class="fil1" points="1837.6,13433.77 1777.52,12592.22 1507.88,12592.73 1578.7,13584.83 "/>
 <polygon class="fil1" points="1880.03,14028.25 1687.45,14140.62 1893.94,14223.09 "/>
 <path class="fil1" d="M1913.72 14500.06l-277.6 -110.86 58.29 816.52c89.12,9.44 179.45,14.78 270.82,15.86l-51.51 -721.52z"/>
 <path class="fil1" d="M2428.38 14705.6l34.22 479.13c90.04,-14.58 178.66,-33.34 265.68,-56.09l-22.3 -312.17 -277.6 -110.87z"/>
</symbol>
 <g id="Ebene_x0020_1">
  <metadata id="CorelCorpID_0Corel-Layer"/>
  <use id="ISO_x0020_7010_x0020_M035_0" transform="scale(0.571429 0.571429)" x="-0" y="-0" width="7000" height="7000" xlink:href="#ISO_x0020_7010_x0020_M035"/>
 </g>
</svg>
