<?xml version="1.0" encoding="UTF-8"?>
<!DOCTYPE svg PUBLIC "-//W3C//DTD SVG 1.1//EN" "http://www.w3.org/Graphics/SVG/1.1/DTD/svg11.dtd">
<!-- Creator: Corel DESIGNER -->
<svg xmlns="http://www.w3.org/2000/svg" xml:space="preserve" width="40mm" height="40mm" version="1.1" style="shape-rendering:geometricPrecision; text-rendering:geometricPrecision; image-rendering:optimizeQuality; fill-rule:evenodd; clip-rule:evenodd"
viewBox="0 0 2000 2000"
 xmlns:xlink="http://www.w3.org/1999/xlink"
 xmlns:xodm="http://www.corel.com/coreldraw/odm/2003">
 <defs>
  <style type="text/css">
   <![CDATA[
    .fil0m {fill:#004873}
    .fil1 {fill:white}
   ]]>
  </style>
 </defs>
<symbol id="ISO_x0020_7010_x0020_M039" viewBox="-3750 1308.33 3500 3500">
 <circle class="fil0m" cx="-2000" cy="3058.33" r="1750"/>
 <polygon class="fil1" points="-2033.24,3002.1 -1968.36,3002.1 -1968.36,3522.56 -1899.81,3399.17 -1842.32,3429.24 -2000.8,3714.53 -2159.28,3429.24 -2101.79,3399.17 -2033.24,3522.57 "/>
 <path class="fil1" d="M-2610.2 2549.94l1228.88 0c0,30.18 -2.8,52.7 -26.06,75.96 -40.88,40.88 -108.98,32.31 -138.86,-16.51 -34.72,56.74 -117.55,56.59 -152.05,-0.29 -34.31,58.03 -118.11,58.22 -152.86,0.74 -34.84,56.24 -117.07,55.95 -151.59,-0.45 -34.65,56.61 -117.22,56.62 -151.86,0 -34.65,56.61 -117.22,56.62 -151.87,0 -34.65,56.61 -117.21,56.62 -151.86,0 -46.74,76.37 -164.92,42.93 -164.92,-46.41l0 -13.04 13.05 0zm1201.43 26.09l-123.07 0c13.91,66.01 109.16,66 123.07,0zm-151.87 0l-123.07 0c13.91,66.01 109.16,66 123.07,0zm-304.63 0l-123.07 0c13.91,66.01 109.16,66 123.07,0zm-151.87 0l-123.07 0c13.91,66.01 109.16,66 123.07,0zm-151.87 0l-123.07 0c13.91,66.01 109.16,66 123.07,0zm-151.86 0l-123.07 0c13.91,66.01 109.16,66 123.07,0zm-151.87 0l-123.07 0c13.91,66.01 109.16,66 123.07,0zm697.81 0.9l-61.53 0c13.93,66.01 109.13,66 123.07,0l-61.54 0z"/>
 <path class="fil1" d="M-2658.31 2447.36c171.64,-49.96 299.93,-191.2 485.51,-191.2l341.03 0c185.05,0 302.74,125.66 489.84,189.91 7.9,2.71 14.83,5.95 20.92,9.61l0 -651.49c14.43,7.83 28.65,15.98 42.77,24.28l0 717.34c0.6,17.05 -0.25,34.3 -0.25,50.33 0,68.51 -65.04,146.95 -225.27,197.54 -253.58,80.08 -739,80.22 -993.82,-0.25 -162.6,-51.34 -228.51,-131.01 -228.51,-197.29 0,-12.4 -0.51,-25.84 -0.34,-39.45l0 -725.47c14.11,-8.37 28.35,-16.55 42.77,-24.44l0 651.38c7.19,-4.3 15.57,-7.95 25.34,-10.8zm232.48 -16.18c-64.39,36.04 -130.85,73.24 -209.32,96.08l-7.44 10.15 0 58.72c0,33.89 49.08,79.49 170.13,117.71 238.26,75.24 706.62,75.08 943.6,0.25 118.7,-37.48 166.89,-82.59 166.89,-117.96l-1.75 -67.54c-1.08,-1.51 -2.89,-2.78 -5.28,-3.6 -182.49,-62.68 -307.71,-185.34 -462.77,-185.34l-341.03 0c-89.54,0 -169.39,44.7 -253.03,91.52z"/>
 <path class="fil1" d="M-3045.35 4027.93c6.2,0.62 12.57,1.16 19.15,1.64 79.44,5.82 163.42,-4.66 249.95,-40.43 401.96,-166.18 504.57,39.34 771.44,41.02 266.66,1.68 369.15,-207.18 771.09,-41.02 94.98,39.26 188.69,48.97 280.4,37.36 -30.83,33.32 -63.22,65.15 -97.07,95.4 -71.87,-2.9 -144.67,-18.16 -217.97,-48.47 -364.11,-150.52 -444.21,49.65 -736.8,47.8 -292.5,-1.85 -372.32,-198.33 -736.44,-47.8 -70.08,28.97 -139.72,44.19 -208.51,48 -33.18,-29.68 -64.95,-60.88 -95.23,-93.5zm-173.56 -229.34c25.56,41.98 53.27,82.52 82.91,121.51 128.05,28.81 260.39,23.67 394.38,-31.72 364.12,-150.53 443.94,45.95 736.44,47.81 292.59,1.84 372.69,-198.33 736.8,-47.81 138.25,57.15 274.71,60.82 406.54,28.88 29.72,-39.31 57.46,-80.22 83.06,-122.56 -146.05,58.59 -298.78,73.95 -454.95,9.39 -401.94,-166.16 -504.38,42.69 -771.09,41.01 -266.85,-1.68 -369.48,-207.2 -771.44,-41.01 -86.53,35.77 -170.51,46.26 -249.95,40.43 -91,-6.66 -144.34,-26.29 -192.7,-45.93z"/>
</symbol>
 <g id="Ebene_x0020_1">
  <metadata id="CorelCorpID_0Corel-Layer"/>
  <use id="ISO_x0020_7010_x0020_M039_0" transform="scale(0.571429 0.571429)" x="-0" y="-0" width="3500" height="3500" xlink:href="#ISO_x0020_7010_x0020_M039"/>
 </g>
</svg>
