<?xml version="1.0" encoding="UTF-8"?>
<!DOCTYPE svg PUBLIC "-//W3C//DTD SVG 1.1//EN" "http://www.w3.org/Graphics/SVG/1.1/DTD/svg11.dtd">
<!-- Creator: Corel DESIGNER -->
<svg xmlns="http://www.w3.org/2000/svg" xml:space="preserve" width="40mm" height="40mm" version="1.1" style="shape-rendering:geometricPrecision; text-rendering:geometricPrecision; image-rendering:optimizeQuality; fill-rule:evenodd; clip-rule:evenodd"
viewBox="0 0 2000 2000"
 xmlns:xlink="http://www.w3.org/1999/xlink"
 xmlns:xodm="http://www.corel.com/coreldraw/odm/2003">
 <defs>
  <style type="text/css">
   <![CDATA[
    .fil0m {fill:#004873}
    .fil1 {fill:white}
   ]]>
  </style>
 </defs>
<symbol id="ISO_x0020_7010_x0020_M042" viewBox="-3750 -1808.34 3500 3500">
 <circle class="fil0m" cx="-2000" cy="-58.34" r="1750"/>
 <path class="fil1" d="M-2119.37 -1447.87l0 340.84c0,35.96 14.74,68.67 38.47,92.4 23.74,23.74 56.45,38.48 92.4,38.48 35.95,0 68.67,-14.74 92.4,-38.48 23.74,-23.73 38.48,-56.45 38.48,-92.4l0 -340.84 73.05 0 0 340.84c0,56.12 -22.93,107.12 -59.88,144.06 -36.93,36.94 -87.93,59.88 -144.06,59.88 -56.11,0 -107.12,-22.94 -144.06,-59.88 -36.94,-36.95 -59.88,-87.94 -59.88,-144.06l0 -340.84 73.06 0z"/>
 <path class="fil1" d="M-2369.88 -1100.42c-452.36,168.18 -792.56,582.62 -841.83,1094.53l-140.47 -13.55 116.8 157.76 18.3 24.72 98.5 133.05 136.86 -125.3 7.92 -7.25 144.79 -132.56 -148.93 -14.35c40.37,-419.44 319.12,-759.02 689.77,-896.82l-81.7 -220.24z"/>
 <path class="fil1" d="M-2290.39 279c65.66,6 72.01,35.83 104.17,24 13.96,-5.14 24.42,-17.54 26.8,-32.62 10.76,-94.5 95.16,-163.53 190.36,-154.81 94.29,8.62 164.3,90.33 159.25,184.09 53.35,-126.78 -33.42,-271.14 -170.25,-283.65 -52.91,-4.83 -123,19.3 -178.9,33.73l-275.17 71c-77.39,13.76 -148.86,-50.29 -141.57,-129.96 5.78,-63.21 62.93,-88.76 121.68,-109.8l237.3 -84.98c75.83,-27.14 10.18,-148.65 -58.23,-79.1 -37.91,38.55 -68.7,-6.42 -153.07,-14.14 -165.14,-15.1 -311.28,106.51 -326.39,271.67 -15.12,165.14 106.51,311.28 271.66,326.39 102.51,9.38 118.18,-28.62 192.39,-21.82z"/>
 <path class="fil1" d="M-1983.49 565.3l800.71 550.89 99.78 -74.3 -771.75 -530.98 0 -220.58c0,-71.68 -58.64,-130.31 -130.31,-130.31 -71.66,0 -130.3,58.63 -130.3,130.31l0 220.58 -771.76 530.98 99.78 74.3 800.71 -550.89 3.15 0zm69.74 -268.44c8.59,-93.89 -134.04,-106.94 -142.63,-13.06 -8.59,93.89 134.04,106.94 142.63,13.06z"/>
</symbol>
 <g id="Ebene_x0020_1">
  <metadata id="CorelCorpID_0Corel-Layer"/>
  <use id="ISO_x0020_7010_x0020_M042_0" transform="scale(0.571429 0.571429)" x="-0" y="-0" width="3500" height="3500" xlink:href="#ISO_x0020_7010_x0020_M042"/>
 </g>
</svg>
