<?xml version="1.0" encoding="UTF-8"?>
<!DOCTYPE svg PUBLIC "-//W3C//DTD SVG 1.1//EN" "http://www.w3.org/Graphics/SVG/1.1/DTD/svg11.dtd">
<!-- Creator: Corel DESIGNER -->
<svg xmlns="http://www.w3.org/2000/svg" xml:space="preserve" width="40mm" height="40mm" version="1.1" style="shape-rendering:geometricPrecision; text-rendering:geometricPrecision; image-rendering:optimizeQuality; fill-rule:evenodd; clip-rule:evenodd"
viewBox="0 0 1000 1000"
 xmlns:xlink="http://www.w3.org/1999/xlink"
 xmlns:xodm="http://www.corel.com/coreldraw/odm/2003">
 <defs>
  <style type="text/css">
   <![CDATA[
    .fil0m {fill:#004873}
    .fil1 {fill:white}
   ]]>
  </style>
 </defs>
<symbol id="ISO_x0020_7010_x0020_M043" viewBox="1125 -2462.5 1750 1750">
 <circle class="fil0m" cx="2000" cy="-1587.5" r="875"/>
 <path class="fil1" d="M1512.19 -1265.23c127.62,-37.15 223.01,-142.16 361,-142.16l253.56 0c137.6,0 225.1,93.43 364.22,141.2 5.88,2.02 11.03,4.42 15.56,7.15 18.64,12.28 29.21,34.65 31.8,67.02 0.44,12.67 -0.19,25.5 -0.19,37.42 0,50.94 -48.36,109.26 -167.49,146.88 -188.55,59.54 -549.47,59.64 -738.94,-0.18 -120.9,-38.18 -169.9,-97.41 -169.9,-146.7 0,-9.22 -0.38,-19.21 -0.25,-29.33 1.59,-35.55 13.14,-58.8 31.8,-73.26 5.35,-3.2 11.58,-5.91 18.84,-8.03zm172.86 -12.03c-47.87,26.79 -97.28,54.46 -155.63,71.44l-5.53 7.55 0 43.66c0,25.2 36.48,59.1 126.49,87.52 177.15,55.94 525.4,55.82 701.6,0.19 88.26,-27.87 124.09,-61.41 124.09,-87.71l-1.3 -50.21c-0.8,-1.13 -2.15,-2.07 -3.93,-2.68 -135.69,-46.61 -228.8,-137.81 -344.09,-137.81l-253.56 0c-66.58,0 -125.95,33.24 -188.14,68.05zm-137.08 88.3l913.72 0c0,22.45 -2.08,39.19 -19.38,56.49 -30.39,30.4 -81.03,24.02 -103.24,-12.28 -25.82,42.19 -87.4,42.08 -113.05,-0.22 -25.51,43.15 -87.82,43.3 -113.66,0.55 -25.91,41.81 -87.05,41.61 -112.71,-0.33 -25.76,42.09 -87.15,42.1 -112.92,0 -25.76,42.09 -87.16,42.1 -112.92,0 -25.76,42.09 -87.16,42.1 -112.92,0 -34.75,56.79 -122.62,31.92 -122.62,-34.51l0 -9.7 9.71 0zm893.31 19.4l-91.51 0c10.34,49.08 81.16,49.07 91.51,0zm-112.92 0l-91.51 0c10.34,49.08 81.16,49.07 91.51,0zm-226.51 0l-91.5 0c10.34,49.08 81.16,49.07 91.5,0zm-112.92 0l-91.51 0c10.34,49.08 81.17,49.07 91.51,0zm-112.92 0l-91.5 0c10.34,49.08 81.16,49.07 91.5,0zm-112.92 0l-91.5 0c10.35,49.08 81.16,49.07 91.5,0zm-112.92 0l-91.51 0c10.35,49.08 81.17,49.07 91.51,0zm518.84 0.66l-45.75 0c10.36,49.08 81.14,49.08 91.5,0l-45.75 0z"/>
 <circle class="fil1" cx="1765.88" cy="-1893.75" r="24.85"/>
 <circle class="fil1" cx="1689.85" cy="-1782.35" r="24.85"/>
 <circle class="fil1" cx="1613.44" cy="-1670.4" r="24.85"/>
 <circle class="fil1" cx="1538.58" cy="-1560.72" r="24.85"/>
 <circle class="fil1" cx="1459.08" cy="-1444.22" r="24.85"/>
 <circle class="fil1" cx="1704.46" cy="-1450.8" r="24.85"/>
 <circle class="fil1" cx="1754.28" cy="-1583.3" r="24.85"/>
 <circle class="fil1" cx="1803.03" cy="-1712.93" r="24.85"/>
 <circle class="fil1" cx="1853.19" cy="-1846.34" r="24.85"/>
 <circle class="fil1" cx="1951" cy="-1820.58" r="24.85"/>
 <circle class="fil1" cx="1934.61" cy="-1681.36" r="24.85"/>
 <circle class="fil1" cx="1917.51" cy="-1536.12" r="24.85"/>
 <circle class="fil1" cx="2234.12" cy="-1893.75" r="24.85"/>
 <circle class="fil1" cx="2310.15" cy="-1782.35" r="24.85"/>
 <circle class="fil1" cx="2386.56" cy="-1670.4" r="24.85"/>
 <circle class="fil1" cx="2461.42" cy="-1560.72" r="24.85"/>
 <circle class="fil1" cx="2540.92" cy="-1444.22" r="24.85"/>
 <circle class="fil1" cx="2295.54" cy="-1450.8" r="24.85"/>
 <circle class="fil1" cx="2245.72" cy="-1583.3" r="24.85"/>
 <circle class="fil1" cx="2196.97" cy="-1712.93" r="24.85"/>
 <circle class="fil1" cx="2146.81" cy="-1846.34" r="24.85"/>
 <circle class="fil1" cx="2049" cy="-1820.58" r="24.85"/>
 <circle class="fil1" cx="2065.39" cy="-1681.36" r="24.85"/>
 <circle class="fil1" cx="2082.49" cy="-1536.12" r="24.85"/>
 <path class="fil1" d="M1861.33 -2024.32l72.05 -104.64c5.47,-6.73 8.75,-15.32 8.75,-24.66l0 -142.96c-26.53,2.14 -52.65,5.73 -78.28,10.7l0 120.31 -108.94 158.23c-19.39,28.17 4.05,61.31 32.11,61.31l428.01 0c30.32,0 50.96,-33.9 30.38,-63.8l-107.22 -155.74 0 -119.91c-25.62,-5.05 -51.74,-8.71 -78.28,-10.93l0 142.8c0,4.61 4.87,17.16 7.03,22.17l73.77 107.14 -279.38 0z"/>
</symbol>
 <g id="Ebene_x0020_1">
  <metadata id="CorelCorpID_0Corel-Layer"/>
  <use id="ISO_x0020_7010_x0020_M043_0" transform="scale(0.571429 0.571429)" x="-0" y="-0" width="1750" height="1750" xlink:href="#ISO_x0020_7010_x0020_M043"/>
 </g>
</svg>
