<?xml version="1.0" encoding="UTF-8"?>
<!DOCTYPE svg PUBLIC "-//W3C//DTD SVG 1.1//EN" "http://www.w3.org/Graphics/SVG/1.1/DTD/svg11.dtd">
<!-- Creator: Corel DESIGNER -->
<svg xmlns="http://www.w3.org/2000/svg" xml:space="preserve" width="40mm" height="40mm" version="1.1" style="shape-rendering:geometricPrecision; text-rendering:geometricPrecision; image-rendering:optimizeQuality; fill-rule:evenodd; clip-rule:evenodd"
viewBox="0 0 4000 4000"
 xmlns:xlink="http://www.w3.org/1999/xlink"
 xmlns:xodm="http://www.corel.com/coreldraw/odm/2003">
 <defs>
  <style type="text/css">
   <![CDATA[
    .fil0m {fill:#004873}
    .fil1 {fill:white}
   ]]>
  </style>
 </defs>
<symbol id="ISO_x0020_7010_x0020_M046" viewBox="-1500 8850 7000 7000">
 <circle class="fil0m" cx="2000" cy="12350" r="3500"/>
 <path class="fil1" d="M1507.84 11128.1l1046.43 0c344.41,0 626.2,281.79 626.2,626.19l0 1623.45 -41.58 22.67c-17.54,-21.8 -39.38,-39.33 -63.85,-51.73l0.06 -0.12c-82.56,-41.78 -142.78,-13.9 -219.66,12.52 -78.78,27.1 -133.45,99.02 -141.86,179.73l-158.54 36.93c-12.87,-25.65 -30.94,-48.09 -52.69,-66.07l0.09 -0.1c-72.36,-59.76 -136.32,-47.04 -217.87,-39.26 -89.72,8.57 -162.14,75.24 -180.23,161.3l-146.57 0c-18.08,-86.06 -90.5,-152.73 -180.22,-161.3 -81.56,-7.78 -145.51,-20.5 -217.87,39.26l0.09 0.1c-21.75,17.98 -39.82,40.42 -52.69,66.07l-158.54 -36.93c-8.41,-80.71 -63.08,-152.63 -141.86,-179.73 -76.88,-26.42 -137.12,-54.32 -219.65,-12.52l0.05 0.12c-24.47,12.4 -46.32,29.93 -63.85,51.73l-41.58 -22.67 0 -1623.45c0,-344.4 281.79,-626.19 626.19,-626.19zm1672.63 2428.21l0 1382.44c-739.75,309.59 -1503.87,334.72 -2298.82,0l0 -1382.44c18.95,129.92 112.96,161.6 206.29,193.7 53.33,18.34 108.4,13.14 154.15,-10.02l-0.05 -0.12c39.26,-19.9 71.79,-52.99 90.55,-95.76l153.31 35.71c5.42,99.55 83.47,182.22 184.24,191.84 81.56,7.78 145.51,20.51 217.87,-39.25l-0.09 -0.11c29.42,-24.31 52.12,-56.8 64.28,-94.32l157.72 0c12.16,37.52 34.86,70.01 64.28,94.32l-0.09 0.11c72.36,59.76 136.3,47.03 217.87,39.25 100.77,-9.62 178.82,-92.29 184.24,-191.84l153.32 -35.71c18.76,42.77 51.28,75.86 90.54,95.76l-0.05 0.12c82.55,41.79 142.76,13.91 219.65,-12.52 75.94,-26.11 129.53,-93.92 140.79,-171.16zm-294.81 -96l65.5 -22.53c31.64,-10.89 66.3,-4.58 91.44,15.11 -25.42,13.86 -78.11,37.05 -51,86.92 20.88,38.41 56.14,28.63 85.13,12.81 -15.86,68.67 -74.48,78.09 -132.77,98.15 -39.42,13.57 -82.81,0.51 -107.77,-31.5 93.58,-21.82 51.07,-118.62 -10.46,-104.58 12.27,-25.07 32.03,-44.79 59.93,-54.38zm-438.17 142.48c-102.55,23.88 -52.43,119.15 5.58,105.71l12.22 -2.84c-27.22,67.57 -90.53,63.16 -151.83,69.02 -33.65,3.22 -66.63,-11.48 -87.11,-36.7 85.43,0 73.02,-104.37 8.36,-104.37l-21.41 0c29.26,-63.01 88.73,-58.48 149.79,-64.32 32.32,-3.09 63.78,10.29 84.4,33.5zm-598.67 30.82c-30.41,0 -73.59,3.05 -73.59,52.18 0,33.74 25.15,52.19 60.54,52.19 -41.26,50.8 -96.04,35.84 -155.84,30.13 -37.85,-3.61 -69.41,-28.46 -83.1,-62.45 90.96,21.2 96.78,-84.55 35.64,-98.71l-17.84 -4.16c41.76,-47.01 93.43,-32.62 153.13,-26.92 36.1,3.44 66.38,26.13 81.06,57.74zm-672.36 -173.3l-65.51 -22.53c-31.58,-10.86 -66.33,-4.59 -91.43,15.11 25.42,13.86 78.1,37.05 51,86.92 -20.89,38.44 -56.17,28.6 -85.14,12.81 15.79,68.67 74.77,78.19 132.77,98.15 39.43,13.57 82.82,0.51 107.78,-31.5 -94.25,-21.98 -50.1,-119.19 10.47,-104.57 -12.23,-25.06 -32.08,-44.81 -59.94,-54.39z"/>
 <path class="fil1" d="M1489.14 11003.84l1083.84 0 0 -1004.43c0,-298.06 -243.86,-541.92 -541.92,-541.92 -298.06,0 -541.92,243.86 -541.92,541.92l0 1004.43z"/>
 <path class="fil1" d="M4101.05 12763.04l-130.1 156.81c-18.2,17.75 -42.07,24.1 -65.27,17.64 28.1,-28.22 84.86,-70.69 40.67,-114.63 -41.47,-41.24 -79.9,6.54 -101.46,28.2 -0.93,-24.09 6.08,-48.24 21.29,-66.65l130.09 -156.8c72.97,-71.37 172.01,54.11 104.78,135.43zm-920.58 733.03l118.46 -64.57c63.73,72.78 170.3,80.11 243.91,16.93l148.04 -127.15c63.88,-54.88 85.44,-147.51 57.32,-225.6l80.01 -80.36c74.53,49.09 171.72,33.69 228.83,-35.42l124.33 -150.4c72.36,-87.53 57.46,-212.65 -26.46,-285.63 -73.63,-64.03 -182.85,-51.2 -244.72,23.68l-124.33 150.4c-50.17,60.71 -58.22,147.81 -25.44,217.96l-73.81 74.13c-65.15,-50.19 -154.75,-47.46 -218.36,7.13l-148.03 127.15c-55.14,47.38 -78.87,123.06 -66.02,193.23l-73.73 40.19 0 118.33zm442.74 -253.88l-155.03 132.57c-22.29,15.35 -49.46,16.71 -72.08,3.76 24.99,-13.62 69.79,-36.56 44.38,-83.29 -20.32,-37.4 -54.84,-29.33 -84.28,-13.29 3.71,-22.62 14.5,-43.77 31.69,-58.54l155.03 -132.57c21.13,-14.55 46.84,-16.58 68.77,-5.54 -20.96,21.06 -67.11,59.19 -26.09,99.99 18.62,18.51 47.75,20.04 68.08,4.61 -4.56,20.23 -14.88,38.91 -30.47,52.3z"/>
 <path class="fil1" d="M450.42 13085.29c20.97,21.06 67.12,59.19 26.09,99.99 -18.61,18.51 -47.74,20.04 -68.07,4.61 4.56,20.23 14.88,38.91 30.47,52.3l155.03 132.57c22.29,15.35 49.46,16.71 72.08,3.76 -24.99,-13.62 -69.79,-36.56 -44.39,-83.29 20.32,-37.4 54.85,-29.33 84.29,-13.29 -3.71,-22.62 -14.51,-43.77 -31.7,-58.54l-155.02 -132.57c-21.13,-14.55 -46.84,-16.58 -68.78,-5.54zm-293.98 -147.8c-28.1,-28.22 -84.86,-70.69 -40.67,-114.63 41.47,-41.24 79.9,6.54 101.46,28.2 0.93,-24.09 -6.09,-48.24 -21.29,-66.65l-130.09 -156.8c-72.98,-71.37 -172.01,54.11 -104.79,135.43l130.11 156.81c18.2,17.75 42.07,24.1 65.27,17.64zm725.21 440.25l-73.73 -40.19c12.84,-70.17 -10.88,-145.85 -66.02,-193.23l-163.59 -139.11c-62.91,-43.26 -143.52,-40.84 -202.8,4.83l-73.81 -74.13c32.77,-70.15 24.73,-157.25 -25.44,-217.96l-137.84 -164.94c-64.06,-62.51 -162.19,-66.19 -231.21,-9.14 -83.82,69.86 -96.06,201.45 -26.47,285.63l137.85 164.95c58.85,57.44 147.32,65.65 215.33,20.87l80 80.36c-28.11,78.1 -6.57,170.71 57.32,225.6l163.58 139.11c73.56,50.58 169.79,38.03 228.37,-28.89l118.46 64.57 0 -118.33z"/>
</symbol>
 <g id="Ebene_x0020_1">
  <metadata id="CorelCorpID_0Corel-Layer"/>
  <use id="ISO_x0020_7010_x0020_M046_0" transform="scale(0.571429 0.571429)" x="-0" y="-0" width="7000" height="7000" xlink:href="#ISO_x0020_7010_x0020_M046"/>
 </g>
</svg>
