<?xml version="1.0" encoding="UTF-8"?>
<!DOCTYPE svg PUBLIC "-//W3C//DTD SVG 1.1//EN" "http://www.w3.org/Graphics/SVG/1.1/DTD/svg11.dtd">
<!-- Creator: Corel DESIGNER -->
<svg xmlns="http://www.w3.org/2000/svg" xml:space="preserve" width="40mm" height="40mm" version="1.1" style="shape-rendering:geometricPrecision; text-rendering:geometricPrecision; image-rendering:optimizeQuality; fill-rule:evenodd; clip-rule:evenodd"
viewBox="0 0 1000 1000"
 xmlns:xlink="http://www.w3.org/1999/xlink"
 xmlns:xodm="http://www.corel.com/coreldraw/odm/2003">
 <defs>
  <style type="text/css">
   <![CDATA[
    .fil0m {fill:#004873}
    .fil1 {fill:white}
   ]]>
  </style>
 </defs>
<symbol id="ISO_x0020_7010_x0020_M048" viewBox="1125 654.16 1750 1750">
 <circle class="fil0m" cx="2000" cy="1529.16" r="875"/>
 <path class="fil1" d="M2367.33 1671.23l-29.82 -29.97 -1.19 1.19c-2.43,2.41 -6.04,2.9 -8.96,1.48 -46.03,-17.87 -82.18,-48.68 -96.09,-97.37 -0.82,-2.84 0.05,-5.76 2,-7.7l1.19 -1.19 -166.07 -166.94 -83.24 -3.85 298.93 300.51 83.24 3.85z"/>
 <polygon class="fil1" points="1860.73,2198.3 2369.53,1692.13 2283.66,1688.17 2198.46,1772.93 1774.87,2194.34 "/>
 <path class="fil1" d="M1989.46 1741.64c4.59,-9.69 6.97,-20.28 6.97,-30.99 0,-35.13 -25.02,-64.42 -58.21,-71.02l0.05 -0.4 8.19 -91.15c36.33,4.97 68.88,21.82 93.58,46.51 29.7,29.7 48.07,70.74 48.07,116.06 0,3.38 -0.12,6.94 -0.37,10.68l0.03 0.02c-0.23,3.48 -0.58,7.03 -1.05,10.65l18.05 2.36c0.51,-3.85 0.89,-7.8 1.15,-11.83l0.03 0c0.08,-1.18 0.14,-2.37 0.2,-3.59l24.76 0.07 0.04 -15.65 -24.78 -0.07c-0.34,-8.53 -1.26,-16.9 -2.74,-25.09l24.14 -5.44 -3.42 -15.23 -24.14 5.44c-2.1,-7.78 -4.7,-15.35 -7.77,-22.67l22.39 -10.7 -7.88 -16.41 -22.37 10.69c-3.82,-7.05 -8.09,-13.81 -12.77,-20.26l19.43 -15.4 -9.74 -12.22 -19.41 15.38c-5.51,-6.37 -11.46,-12.34 -17.79,-17.89l15.51 -19.32 -12.17 -9.81 -15.52 19.34c-6.76,-4.98 -13.89,-9.5 -21.32,-13.52l10.82 -22.27 -14.03 -6.83 -10.81 22.26c-7.68,-3.34 -15.63,-6.16 -23.82,-8.43l5.59 -24.12 -15.21 -3.5 -5.59 24.1c-3.12,-0.58 -6.27,-1.08 -9.45,-1.5l0.83 -9.27c0.39,-4.3 -2.77,-8.1 -7.07,-8.49 -4.3,-0.39 -8.1,2.77 -8.49,7.07l-0.84 9.31 -0.21 -0.01 0.06 -24.78 -15.65 -0.04 -0.07 24.77c-5.58,0.21 -11.14,0.71 -16.67,1.45l2.37 18.07c9.4,-1.25 19.05,-1.69 28.53,-1.3l-8.18 91.11 -0.03 0.44c-10.32,0.19 -20.49,2.59 -29.83,7.03l96.61 96.37z"/>
 <path class="fil1" d="M1800.89 1577.63l255.49 256.84 154.23 -153.42 -255.49 -256.83 -154.23 153.41zm207.49 355.07l256.49 -255.16 -305.95 -307.57 -514.02 511.35 305.96 307.57 257.52 -256.19z"/>
 <path class="fil1" d="M2298.45 1496.08l-50.82 50.56c13,40.14 43.14,65.42 81.27,81.11l50.18 -49.91c-39.94,-13.58 -66.44,-42.45 -80.62,-81.75z"/>
 <path class="fil1" d="M2309.69 1498.64c-2.49,-6.57 4.33,-12.79 10.62,-9.82 26.61,-33.89 15.89,-44.58 -25.47,-42.88 -78.95,3.25 -121.02,-69.75 -69.37,-110.02 -50.67,-0.98 -112,-7.57 -149.72,-46.21 -14.96,-15.33 -21.35,-29.03 -7.2,-49.18 -147.35,11.62 -173.68,-109.7 -95.88,-143.51 27.62,-12 60.66,-12.43 91.23,-9.52 -12.91,-28.51 26.24,-47.75 53.25,-57.42 51.82,-18.56 270.82,9.03 419.8,27.71 10.74,1.35 11.95,19.84 -4.61,17.76 -147.47,-18.49 -361.61,-45.34 -409.02,-28.36 -25.75,9.22 -63.46,25.71 -29.75,44.69 8.72,4.91 4.21,18.73 -6.31,16.87 -39.25,-6.95 -111.02,-11.83 -133.73,28 -4.94,8.67 -6.65,19.98 -4.04,30.88 13.9,57.85 98.87,60.84 141.66,51.2 9.2,-2.08 15.06,9.62 7.95,15.78 -25.86,22.37 -23.79,28.58 -10.34,42.36 35.45,36.31 100.35,41.11 147.74,40.81 24.89,-0.16 40.43,-6.65 42.11,5.84 2.03,15.11 -23.73,8.54 -46.22,30.36 -14.22,13.8 -15.93,33.76 -0.97,49.78 41.5,44.42 84.31,8.6 113.14,35.28 20.61,19.07 -1.49,51.83 -14.59,66.63 8.81,16.54 21.27,29.23 38.01,37.53 52.51,-34.95 88.51,-40.59 144.8,-25.27 22.14,6.02 63.61,20.87 73.76,-11.87 4.41,-14.22 -2.25,-30.47 -16,-37.33 -9.48,-4.72 -5.58,-17.51 3.69,-17.49l130.46 0.35c12.02,0.03 11.97,18.29 -0.05,18.26l-106.78 -0.28c21.88,32.57 -1.26,80.74 -48.27,74.97 -57.72,-7.09 -86.89,-38.34 -162.69,8.21 3.11,6.08 -2.62,13.03 -9.23,11.01 -32.98,-10.1 -55.65,-32.73 -67.97,-65.1z"/>
 <path class="fil1" d="M2403.47 1001.32c11.22,4.22 4.8,21.25 -6.4,17.03 -16.26,-6.12 -69.13,-10.28 -65.43,-37.04 0.34,-2.5 1.3,-4.88 2.96,-7.09 -43.45,-20.12 -158.6,-36.28 -198.6,-20.17 -4.38,1.76 -12.22,1.89 8.59,15.22 8.3,5.32 3.26,18.27 -6.45,16.62 -141.07,-23.97 -257.51,26.96 -244.22,36.55 8.4,6.06 30.07,10.51 68.88,11.55 11.81,0.32 11.66,18.22 -0.33,18.21 -72.7,-0.1 -291.28,7.88 -288.14,75.34 2.99,64.43 120.85,59.77 199.27,55.83 11.51,-0.58 13.31,16.73 1.28,18.18 -26.5,3.2 -56.35,25.16 -45.85,39.62 28.09,38.66 150.11,27.9 206.78,24.17 11.93,-0.79 13.15,17.38 1.16,18.16 -60.47,3.99 -188.5,15.4 -222.64,-31.63 -12.12,-16.69 -3.12,-36.13 11.88,-48.72 -72.22,0.79 -168.58,-2.96 -170.13,-77.1 -1.46,-69.65 147.59,-85.03 226.07,-89.67 -23.67,-18.38 4.65,-38.79 27.39,-48.55 42.18,-18.1 122.05,-32.4 204.61,-23.6 -24.3,-54.95 183.39,-37.36 243.46,1.82 6.43,4.2 5.07,14.15 -2.39,16.36 -1.82,0.54 -3.24,1.07 -4.29,1.59 14.98,11.57 30.95,9.16 52.54,17.31z"/>
 <path class="fil1" d="M2409.38 1451.94c12.06,-57.06 7.07,-101.96 -18.07,-157.84 -3.79,-8.53 -7.95,-16.91 -12.17,-25.23l-16.26 8.32c31.39,61.39 42.13,104.92 29.02,169.06l-17.31 -51.41 -17.3 5.83 31.91 94.73 73.46 -67.76 -12.38 -13.42 -40.89 37.72z"/>
 <path class="fil1" d="M2413.65 1206.04c-23.96,-35.06 -51.91,-62.43 -93.95,-77.02 -20.85,-7.2 -42.55,-10.72 -64.38,-13.31l-2.12 18.14c25.22,2.87 51.13,7.39 74.38,17.95 30.16,13.8 51.66,36.63 69.95,63.04l-49.22 -22.94 -7.71 16.55 90.6 42.23 1.6 -99.93 -18.26 -0.29 -0.89 55.57z"/>
 <path class="fil1" d="M2478.66 1324.58c21.04,-32.79 45.93,-58.55 84.58,-72.52 18.31,-6.66 37.77,-10.36 56.98,-13.29l-2.73 -18.06c-73.99,11.16 -114.24,31.86 -155.22,95.65l-2.78 -55.61 -18.24 0.91 5 99.86 89.12 -45.29 -8.27 -16.28 -48.44 24.61z"/>
</symbol>
 <g id="Ebene_x0020_1">
  <metadata id="CorelCorpID_0Corel-Layer"/>
  <use id="ISO_x0020_7010_x0020_M048_0" transform="scale(0.571429 0.571429)" x="-0" y="-0" width="1750" height="1750" xlink:href="#ISO_x0020_7010_x0020_M048"/>
 </g>
</svg>
