<?xml version="1.0" encoding="UTF-8"?>
<!DOCTYPE svg PUBLIC "-//W3C//DTD SVG 1.1//EN" "http://www.w3.org/Graphics/SVG/1.1/DTD/svg11.dtd">
<!-- Creator: Corel DESIGNER -->
<svg xmlns="http://www.w3.org/2000/svg" xml:space="preserve" width="40mm" height="40mm" version="1.1" style="shape-rendering:geometricPrecision; text-rendering:geometricPrecision; image-rendering:optimizeQuality; fill-rule:evenodd; clip-rule:evenodd"
viewBox="0 0 2000 2000"
 xmlns:xlink="http://www.w3.org/1999/xlink"
 xmlns:xodm="http://www.corel.com/coreldraw/odm/2003">
 <defs>
  <style type="text/css">
   <![CDATA[
    .fil0m {fill:#004873}
    .fil1 {fill:white}
   ]]>
  </style>
 </defs>
<symbol id="ISO_x0020_7010_x0020_M050" viewBox="-3750 1308.33 3500 3500">
 <circle class="fil0m" cx="-2000" cy="3058.33" r="1750"/>
 <path id="Thigh" class="fil1" d="M-2578.34 2899.35l382.49 -207.62 -94.53 -473.81 -219.38 251.4c-8.46,9.69 -19.14,17.15 -30.99,21.77l-367.87 143.28c-40.72,15.86 -87.02,-4.36 -102.93,-45.07 -15.91,-40.7 4.34,-87.07 45.07,-102.93l349.84 -136.26 246.58 -282.57c12.02,-13.78 27.82,-22.4 44.56,-25.69l358.02 -71.43c16.52,-3.36 34.22,-1.54 50.48,6.36l355.12 172.46c28.64,13.92 44.8,42.57 44.6,72.76l-5.28 394.75c-0.59,43.7 -36.92,78.93 -80.62,78.28 -43.69,-0.64 -78.86,-36.92 -78.28,-80.62l4.61 -344.34 -255.62 -124.14 107.69 539.77c1.99,9.99 2.25,19.93 0.99,29.53l-16.07 480.39 129.57 471.09c13.2,48 -15.6,98.17 -64,111.48 -48.4,13.32 -98.8,-15.07 -112,-63.07l-133.26 -484.49c-2.4,-8.75 -3.52,-18.19 -3.21,-27.26l12.97 -387.7 -50.26 10.03 -384.88 208.91 -11.73 449.62c-3.22,117.28 -186.05,112.53 -182.47,-4.76l13.11 -502.3c0.84,-32.12 19.46,-62.51 47.69,-77.84zm234.06 -1062.14c-17.39,-87.14 39.16,-171.88 126.31,-189.27 87.14,-17.38 171.88,39.16 189.27,126.31 17.38,87.14 -39.16,171.88 -126.31,189.27 -87.14,17.38 -171.88,-39.16 -189.27,-126.31z"/>
 <path class="fil1" d="M-1381.78 3521.47c0,-25.68 -20.82,-46.5 -46.5,-46.5 -25.69,0 -46.51,20.82 -46.51,46.5l0 251.74c0,32.41 -26.54,58.96 -58.95,58.96l-579.62 0c-32.41,0 -58.95,-26.55 -58.95,-58.96l0 -251.74c0,-25.68 -20.82,-46.5 -46.5,-46.5 -25.68,0 -46.51,20.82 -46.51,46.5l0 251.74c0,83.76 68.21,151.96 151.96,151.96l579.62 0c83.75,0 151.96,-68.2 151.96,-151.96l0 -251.74z"/>
 <path class="fil1" d="M-3128.13 3199.66l141.34 141.34 -139.41 0 -203.99 -204 203.99 -203.99 139.41 0 -141.35 141.35c131.89,0 136.97,0 268.86,0l0 125.3c-131.89,0 -136.96,0 -268.86,0z"/>
 <path class="fil1" d="M-892.29 3970.83l-2214.82 0c32.68,39.76 67.49,77.68 104.18,113.68l2006.45 0c36.7,-36.01 71.51,-73.92 104.19,-113.68z"/>
</symbol>
 <g id="Ebene_x0020_1">
  <metadata id="CorelCorpID_0Corel-Layer"/>
  <use id="ISO_x0020_7010_x0020_M050_0" transform="scale(0.571429 0.571429)" x="-0" y="-0" width="3500" height="3500" xlink:href="#ISO_x0020_7010_x0020_M050"/>
 </g>
</svg>
