<?xml version="1.0" encoding="UTF-8"?>
<!DOCTYPE svg PUBLIC "-//W3C//DTD SVG 1.1//EN" "http://www.w3.org/Graphics/SVG/1.1/DTD/svg11.dtd">
<!-- Creator: Corel DESIGNER -->
<svg xmlns="http://www.w3.org/2000/svg" xml:space="preserve" width="40mm" height="40mm" version="1.1" style="shape-rendering:geometricPrecision; text-rendering:geometricPrecision; image-rendering:optimizeQuality; fill-rule:evenodd; clip-rule:evenodd"
viewBox="0 0 4000 4000"
 xmlns:xlink="http://www.w3.org/1999/xlink"
 xmlns:xodm="http://www.corel.com/coreldraw/odm/2003">
 <defs>
  <style type="text/css">
   <![CDATA[
    .fil0m {fill:#004873}
    .fil1 {fill:white}
   ]]>
  </style>
 </defs>
<symbol id="ISO_x0020_7010_x0020_M052" viewBox="-1500 -3616.67 7000 7000">
 <circle class="fil0m" cx="2000" cy="-116.67" r="3500"/>
 <path id="Body" class="fil1" d="M3732.6 -1910.38c116.56,-43.65 247.64,16.01 291.29,132.57l281.09 750.56c43.65,116.55 -16,247.64 -132.56,291.29 -29.92,11.2 -53.91,14.33 -84.64,14.22l-676.73 12.63 -351.01 598.81c-38.72,66.06 -133.46,84.68 -191.51,49.12 -58.05,-35.56 -96.52,-112.91 -50.7,-191.09l390.81 -666.72c24.36,-41.55 70.36,-68.46 118.49,-69.36l505.59 -9.43 -178.89 -477.66 -199.87 242.45c-17.95,21.76 -42.01,35.68 -67.72,41.33l-574.56 169.02c-64.48,18.97 -132.73,-18.44 -151.61,-82.94 -18.89,-64.51 18.46,-132.65 82.94,-151.62l546.75 -160.84 332.41 -403.2c17.88,-24.48 31.42,-42.9 57.33,-60.64 16,-11.59 33.76,-21.25 53.1,-28.5zm96.63 -352.69c-47.93,-127.99 -190.55,-192.88 -318.54,-144.95 -127.99,47.93 -192.88,190.54 -144.95,318.53 47.93,127.99 190.54,192.89 318.53,144.96 127.99,-47.94 192.89,-190.55 144.96,-318.54z"/>
 <path id="Body_0" class="fil1" d="M864.68 -254.89c116.57,-43.65 247.65,16.01 291.3,132.56l281.09 750.56c43.65,116.56 -16,247.64 -132.56,291.3 -29.92,11.2 -53.92,14.32 -84.64,14.21l-676.73 12.63 -351.02 598.82c-38.72,66.06 -128.07,84.27 -191.5,49.12 -63.43,-35.15 -101.1,-105.11 -50.7,-191.09l390.81 -666.72c24.36,-41.55 70.36,-68.46 118.49,-69.36l505.59 -9.43 -178.89 -477.66 -199.87 242.44c-17.95,21.77 -42.01,35.68 -67.73,41.34l-574.55 169.02c-64.48,18.96 -132.73,-18.44 -151.61,-82.95 -18.89,-64.51 18.46,-132.64 82.94,-151.61l546.75 -160.85 332.4 -403.19c17.89,-24.48 31.43,-42.9 57.34,-60.65 16,-11.59 33.76,-21.25 53.09,-28.49zm96.64 -352.69c-47.94,-127.99 -190.55,-192.89 -318.54,-144.96 -127.99,47.94 -192.89,190.55 -144.95,318.54 47.93,127.99 190.54,192.89 318.53,144.95 127.99,-47.93 192.89,-190.54 144.96,-318.53z"/>
 <path class="fil1" d="M2808.9 174.92l1746.58 -1008.21c17.87,-10.32 27.32,-29.83 25.83,-49.24l-0.09 -1.06c-0.36,-3.73 -1.13,-7.47 -2.36,-11.16l-0.03 -0.12 -0.28 -0.8 -0.28 -0.76 -0.03 -0.1 -213.09 -568.98c-10.04,-26.82 -39.75,-40.99 -66.67,-31.24 -26.93,9.74 -41.29,39.86 -31.24,66.68l197.98 528.65 -258.56 149.25c-0.38,0.22 -0.77,0.44 -1.15,0.66l-1184.24 683.61 -22.96 13.25 -241.47 139.39c-24.8,14.31 -33.38,46.32 -19.06,71.12 14.32,24.8 46.32,33.38 71.12,19.06z"/>
 <path class="fil1" d="M-59.01 1830.41l1746.57 -1008.21c17.88,-10.32 27.33,-29.83 25.84,-49.24l-0.09 -1.06c-0.36,-3.74 -1.13,-7.48 -2.36,-11.17l-0.03 -0.11 -0.28 -0.8 -0.28 -0.77 -0.03 -0.09 -213.09 -568.98c-10.04,-26.83 -39.75,-40.99 -66.67,-31.24 -26.93,9.74 -41.29,39.86 -31.25,66.67l197.99 528.65 -258.56 149.25c-0.38,0.23 -0.77,0.45 -1.16,0.67l-1184.23 683.6 -22.96 13.25 -241.47 139.4c-24.8,14.31 -33.38,46.31 -19.06,71.11 14.32,24.81 46.32,33.39 71.12,19.07z"/>
 <path class="fil1" d="M2334.08 -530.56l-88.04 328.56 205.46 -118.62 127.07 -474.21 -474.21 -127.06 -205.46 118.62 328.57 88.03c-194.38,112.23 -388.75,224.45 -583.12,336.67l88.04 -328.57 -205.46 118.62 -127.06 474.21 474.2 127.06 205.46 -118.62 -328.55 -88.03c194.36,-112.22 388.73,-224.44 583.1,-336.66z"/>
 <path class="fil1" d="M529.09 2350l4362.7 -2511.86c-3.5,-138.72 -17.06,-274.92 -39.62,-408.06l-4655.58 2680.48c104.75,87.43 215.85,167.49 332.5,239.44z"/>
</symbol>
 <g id="Ebene_x0020_1">
  <metadata id="CorelCorpID_0Corel-Layer"/>
  <use id="ISO_x0020_7010_x0020_M051" transform="scale(0.571429 0.571429)" x="-0" y="-0" width="7000" height="7000" xlink:href="#ISO_x0020_7010_x0020_M052"/>
 </g>
</svg>
