<?xml version="1.0" encoding="UTF-8"?>
<!DOCTYPE svg PUBLIC "-//W3C//DTD SVG 1.1//EN" "http://www.w3.org/Graphics/SVG/1.1/DTD/svg11.dtd">
<!-- Creator: Corel DESIGNER -->
<svg xmlns="http://www.w3.org/2000/svg" xml:space="preserve" width="40mm" height="40mm" version="1.1" style="shape-rendering:geometricPrecision; text-rendering:geometricPrecision; image-rendering:optimizeQuality; fill-rule:evenodd; clip-rule:evenodd"
viewBox="0 0 1000 1000"
 xmlns:xlink="http://www.w3.org/1999/xlink"
 xmlns:xodm="http://www.corel.com/coreldraw/odm/2003">
 <defs>
  <style type="text/css">
   <![CDATA[
    .fil1 {fill:none}
    .fil0m {fill:#004873}
    .fil2 {fill:white}
    .fil3 {fill:white;fill-rule:nonzero}
   ]]>
  </style>
 </defs>
<symbol id="ISO_x0020_7010_x0020_M054" viewBox="1125 -2462.5 1750 1750">
 <circle class="fil0m" cx="2000" cy="-1587.5" r="875"/>
 <path class="fil1" d="M1384.47 -1661.78c21.75,-9.45 45.94,-19.97 86.08,-22.75 51.38,-3.56 82.39,9.49 111.65,21.81 21.17,8.9 41.31,17.38 67.63,17.06 31.51,-0.39 58.83,-11.55 84.73,-22.13 25.95,-10.6 50.62,-20.68 79.08,-20.92"/>
 <path class="fil2" d="M1996.89 -1656.57l8.53 -2.05c-1.28,16.2 -3.34,30.51 -14.81,33.41 -43.49,7.24 -73.48,-4.61 -103.99,-16.67 -22.19,-8.77 -44.7,-17.66 -72.73,-17.43 -22.38,0.19 -44.49,9.22 -67.76,18.73 -28.43,11.62 -58.41,23.87 -95.94,24.33 -32.9,0.4 -55.82,-9.24 -79.89,-19.37 -26.01,-10.95 -53.58,-22.55 -97.62,-19.51 -35.02,2.43 -56.56,11.79 -75.93,20.21 -25.83,11.23 -48.35,21.01 -88.55,15.42 -17.62,-2.46 -17.57,-19.77 -19.43,-34.11l8.41 2.19c42.01,9.33 62.86,0.26 87.3,-10.35 21.75,-9.45 45.94,-19.97 86.08,-22.75 51.38,-3.56 82.4,9.5 111.66,21.81 21.17,8.91 41.31,17.39 67.63,17.07 31.51,-0.39 58.83,-11.55 84.73,-22.13 25.95,-10.6 50.63,-20.68 79.08,-20.92 34.09,-0.29 59.31,9.68 84.17,19.5 29.03,11.47 57.51,22.72 99.08,12.63z"/>
 <path class="fil2" d="M1996.89 -1588.96l8.53 -2.04c-1.28,16.2 -3.34,30.51 -14.81,33.4 -43.49,7.24 -73.48,-4.61 -103.99,-16.66 -22.19,-8.77 -44.7,-17.66 -72.73,-17.43 -22.38,0.19 -44.49,9.22 -67.76,18.72 -28.43,11.62 -58.41,23.87 -95.94,24.33 -32.9,0.4 -55.82,-9.24 -79.89,-19.37 -26.01,-10.95 -53.58,-22.56 -97.62,-19.5 -35.02,2.43 -56.56,11.79 -75.93,20.21 -25.83,11.23 -48.35,21.01 -88.55,15.42 -17.62,-2.46 -17.57,-19.77 -19.43,-34.11l8.41 2.19c42.01,9.33 62.86,0.26 87.3,-10.35 21.75,-9.45 45.94,-19.97 86.08,-22.75 51.38,-3.56 82.4,9.49 111.66,21.81 21.17,8.91 41.31,17.39 67.63,17.07 31.51,-0.39 58.83,-11.55 84.73,-22.13 25.95,-10.6 50.63,-20.68 79.08,-20.92 34.09,-0.28 59.31,9.68 84.17,19.51 29.03,11.47 57.51,22.72 99.08,12.63z"/>
 <polygon class="fil3" points="2194.11,-1824.58 1974.9,-1814.96 1977.96,-1745.25 1881.59,-1832.57 1969.93,-1928 1972.99,-1858.29 2192.21,-1867.91 "/>
 <path class="fil2" d="M1536.01 -1710.34c59.78,12.93 86.66,48.18 152.89,27.41l-31.49 -113.47 128.81 33.82c17.49,4.59 33.52,-6.22 38.15,-23.53l38.56 -144.15c4.33,-16.19 -5.33,-32.99 -21.51,-37.34 -16.09,-4.32 -32.99,5.29 -37.33,21.51l-31.3 116.99 -116.97 -30.72c-5.35,-1.38 -10.62,-1.33 -15.97,0.15l-134.89 37.45c-6.32,1.73 -12.13,5.49 -16.35,11.11l-80.76 107.97c27.57,-8.56 56.5,-12.38 85.31,-12.32l30.21 -40.39 12.63 45.5zm74.78 -204.93c0,-34.77 -28.18,-62.96 -62.95,-62.96 -34.77,0 -62.95,28.18 -62.95,62.96 0,34.77 28.18,62.95 62.95,62.95 34.77,0 62.95,-28.19 62.95,-62.95z"/>
 <path class="fil2" d="M2548.9 -1852.65c0,-88.95 -72.12,-161.07 -161.07,-161.07 -88.96,0 -161.07,72.12 -161.07,161.07 0,88.96 72.11,161.08 161.07,161.08 88.96,0 161.07,-72.12 161.07,-161.08zm-357.22 956.17l0 -504.64c0,-14.94 -23.03,-14.94 -23.03,0l0 510.82c-52.56,13.21 -107.39,20.64 -163.81,21.64l0 -541.26c0,-131.15 107.31,-238.46 238.46,-238.46 96.36,0 192.7,0 289.06,0 72.82,0 138.26,33.09 182.1,84.96 -4.96,128.87 -43.63,249.09 -107.45,352.09l0 -189.8c0,-14.94 -23.04,-14.94 -23.04,0l0 224.7c-93.78,133.49 -231.56,233.83 -392.29,279.94z"/>
</symbol>
 <g id="Ebene_x0020_1">
  <metadata id="CorelCorpID_0Corel-Layer"/>
  <use id="ISO_x0020_7010_x0020_M054_0" transform="scale(0.571429 0.571429)" x="-0" y="-0" width="1750" height="1750" xlink:href="#ISO_x0020_7010_x0020_M054"/>
 </g>
</svg>
