<?xml version="1.0" encoding="UTF-8"?>
<!DOCTYPE svg PUBLIC "-//W3C//DTD SVG 1.1//EN" "http://www.w3.org/Graphics/SVG/1.1/DTD/svg11.dtd">
<!-- Creator: Corel DESIGNER -->
<svg xmlns="http://www.w3.org/2000/svg" xml:space="preserve" width="40mm" height="40mm" version="1.1" style="shape-rendering:geometricPrecision; text-rendering:geometricPrecision; image-rendering:optimizeQuality; fill-rule:evenodd; clip-rule:evenodd"
viewBox="0 0 1000 1000"
 xmlns:xlink="http://www.w3.org/1999/xlink"
 xmlns:xodm="http://www.corel.com/coreldraw/odm/2003">
 <defs>
  <style type="text/css">
   <![CDATA[
    .fil1p {fill:#0E1313}
    .fil2p {fill:#A1262D}
    .fil0p {fill:white}
   ]]>
  </style>
 </defs>
<symbol id="ISO_x0020_7010_x0020_P004" viewBox="1125 654.16 1750 1750">
 <circle class="fil0p" cx="2000" cy="1529.16" r="787.5"/>
 <path class="fil1p" d="M2077.16 1016.04c11.2,-48.92 -19.11,-97.59 -67.69,-108.72 -48.59,-11.13 -97.06,19.5 -108.26,68.42 -11.2,48.92 19.11,97.59 67.7,108.72 48.59,11.13 97.06,-19.51 108.26,-68.42zm-327.38 314.51l140.29 -111.64 0 281.17 -169.66 203.91c-7.2,8.66 -12.06,19.66 -14.03,30.75l-50.59 284.06c-11.48,64.48 93.76,83.28 105.44,17.92l48.79 -272.94 180.79 -217.5 62.38 272.17c2.78,12.12 7.57,24.06 14.61,34.31l146.23 213.02c39.39,57.38 127.91,-2.94 91.15,-56.49l-147.65 -215.09 -61.81 -269.69 0 -301.72 116.49 107.04 98.24 202.07c25.17,51.78 108.09,14.78 84.14,-34.65l-102.3 -211.07c-3.43,-7.07 -8.21,-13.65 -13.99,-18.97l-154.45 -141.91c-9.73,-8.95 -24.12,-13.36 -37.34,-13.36l-189.14 0c-10.71,0 -22.31,2.85 -30.69,9.52l-172.94 137.62 -200.16 82.83c-59.39,24.57 -23.87,108.34 36.77,83.2l197.64 -81.91c7.76,-3.22 15.22,-7.42 21.8,-12.65z"/>
 <path class="fil2p" d="M2699.14 1529.16c0,-386.12 -313.01,-699.13 -699.14,-699.13 -168.42,0 -322.92,59.55 -443.61,158.75l986.38 981.02c97.75,-120.25 156.37,-273.59 156.37,-440.64zm-1241.91 -440.64c-97.74,120.25 -156.37,273.59 -156.37,440.64 0,386.12 313.01,699.14 699.13,699.14 168.42,0 322.92,-59.56 443.61,-158.76l-986.38 -981.02zm1417.77 440.64c0,-483.25 -391.75,-875 -875,-875 -483.25,0 -875,391.75 -875,875 0,483.25 391.75,875 875,875 483.25,0 875,-391.75 875,-875z"/>
</symbol>
 <g id="Ebene_x0020_1">
  <metadata id="CorelCorpID_0Corel-Layer"/>
  <use id="ISO_x0020_7010_x0020_P004_0" transform="scale(0.571429 0.571429)" x="-0" y="-0" width="1750" height="1750" xlink:href="#ISO_x0020_7010_x0020_P004"/>
 </g>
</svg>
