<?xml version="1.0" encoding="UTF-8"?>
<!DOCTYPE svg PUBLIC "-//W3C//DTD SVG 1.1//EN" "http://www.w3.org/Graphics/SVG/1.1/DTD/svg11.dtd">
<!-- Creator: Corel DESIGNER -->
<svg xmlns="http://www.w3.org/2000/svg" xml:space="preserve" width="40mm" height="40mm" version="1.1" style="shape-rendering:geometricPrecision; text-rendering:geometricPrecision; image-rendering:optimizeQuality; fill-rule:evenodd; clip-rule:evenodd"
viewBox="0 0 1000 1000"
 xmlns:xlink="http://www.w3.org/1999/xlink"
 xmlns:xodm="http://www.corel.com/coreldraw/odm/2003">
 <defs>
  <style type="text/css">
   <![CDATA[
    .fil1p {fill:#0E1313}
    .fil2p {fill:#A1262D}
    .fil0p {fill:white}
   ]]>
  </style>
 </defs>
<symbol id="ISO_x0020_7010_x0020_P007" viewBox="1125 -904.17 1750 1750">
 <circle class="fil0p" cx="2000" cy="-29.17" r="787.5"/>
 <path class="fil1p" d="M2232.03 311.94c124.45,-77.06 280.58,-219.56 324.09,-321.41 42.08,-98.48 80.58,-238.15 -53.72,-337.52 -134.29,-99.38 -239.04,38.05 -270.38,78.79 -27.15,-35.3 -109.41,-143.14 -218.24,-106.7 -2,-83.61 -70.98,-150.96 -154.65,-150.96 -85.18,0 -154.6,69.55 -154.62,154.7l-0.09 256.07c-0.01,16.64 -16.78,31.96 -33.3,31.96l-52.14 0 0 -62.23 -139.45 0c-37.37,0 -67.87,30.5 -67.87,67.87l0 241.69c0,37.37 30.5,67.87 67.87,67.87l241.69 0c37.37,0 67.87,-30.51 67.87,-67.87l0 -175.25 -170.11 0 0 -34.87 52.14 0c36.76,0 70.37,-32 70.38,-69.18l0.09 -256.07c0.02,-64.53 53.02,-117.48 117.55,-117.48 64.57,0 117.47,52.9 117.47,117.48l0 14.03c-4.94,3.07 -9.93,6.43 -14.96,10.15 -134.29,99.38 -95.8,239.04 -53.71,337.52 43.52,101.85 199.65,244.35 324.1,321.41zm-650.27 -420.09l-102.23 0c-16.82,0 -30.65,13.83 -30.65,30.65l0 241.69c0,16.82 13.83,30.65 30.65,30.65l241.69 0c16.82,0 30.65,-13.83 30.65,-30.65l0 -138.02 -170.11 0 0 -134.31z"/>
 <path class="fil2p" d="M2699.14 -29.17c0,-386.12 -313.01,-699.13 -699.14,-699.13 -168.42,0 -322.92,59.55 -443.61,158.75l986.38 981.02c97.75,-120.25 156.37,-273.59 156.37,-440.64zm-1241.91 -440.64c-97.74,120.25 -156.37,273.59 -156.37,440.64 0,386.12 313.01,699.13 699.13,699.13 168.42,0 322.92,-59.56 443.61,-158.76l-986.38 -981.02zm1417.77 440.64c0,-483.25 -391.75,-875 -875,-875 -483.25,0 -875,391.75 -875,875 0,483.25 391.75,875 875,875 483.25,0 875,-391.75 875,-875z"/>
</symbol>
 <g id="Ebene_x0020_1">
  <metadata id="CorelCorpID_0Corel-Layer"/>
  <use id="ISO_x0020_7010_x0020_P007_0" transform="scale(0.571429 0.571429)" x="-0" y="-0" width="1750" height="1750" xlink:href="#ISO_x0020_7010_x0020_P007"/>
 </g>
</svg>
