<?xml version="1.0" encoding="UTF-8"?>
<!DOCTYPE svg PUBLIC "-//W3C//DTD SVG 1.1//EN" "http://www.w3.org/Graphics/SVG/1.1/DTD/svg11.dtd">
<!-- Creator: Corel DESIGNER -->
<svg xmlns="http://www.w3.org/2000/svg" xml:space="preserve" width="40mm" height="40mm" version="1.1" style="shape-rendering:geometricPrecision; text-rendering:geometricPrecision; image-rendering:optimizeQuality; fill-rule:evenodd; clip-rule:evenodd"
viewBox="0 0 2000 2000"
 xmlns:xlink="http://www.w3.org/1999/xlink"
 xmlns:xodm="http://www.corel.com/coreldraw/odm/2003">
 <defs>
  <style type="text/css">
   <![CDATA[
    .fil1p {fill:#0E1313}
    .fil2p {fill:#A1262D}
    .fil0p {fill:white}
   ]]>
  </style>
 </defs>
<symbol id="ISO_x0020_7010_x0020_P017" viewBox="-3750 1308.33 3500 3500">
 <circle class="fil0p" cx="-2000" cy="3058.33" r="1575"/>
 <path class="fil1p" d="M-1491.07 2397.55l-715.88 0c-77.59,0.01 -116.91,-14.01 -163.05,75.24l-683.37 1246.15c34.54,54.96 73.22,107.05 115.68,155.78l400.44 -727.59 372.27 334.34 -212.37 387.26c-26.62,64.22 19.15,117.16 71.2,124.77l-513.07 0c32.98,28.91 67.48,56.11 103.39,81.45l1431.66 0c77.91,-54.96 149.18,-118.66 212.47,-189.65l0 -1641.82 -419.37 0 0 154.07zm-789.67 1595.95c24.22,-3.66 47.5,-18.2 63.3,-47.01l234.67 -427.93c33.33,-63.48 13.74,-99.83 -31.42,-140.39l-292.97 -263.12 305.85 -557.73 510.25 0 0 1436.18 -789.67 0zm197.57 -1798.54c0,-87.83 -71.2,-159.03 -159.03,-159.03 -87.83,0 -159.03,71.2 -159.03,159.03 0,87.84 71.2,159.04 159.03,159.04 87.83,0 159.03,-71.2 159.03,-159.04z"/>
 <path class="fil2p" d="M-601.73 3058.33c0,-772.24 -626.03,-1398.27 -1398.27,-1398.27 -336.84,0 -645.85,119.11 -887.22,317.51l1972.76 1962.04c195.5,-240.5 312.73,-547.18 312.73,-881.28zm-2483.81 -881.28c-195.49,240.51 -312.73,547.18 -312.73,881.28 0,772.24 626.03,1398.27 1398.27,1398.27 336.84,0 645.84,-119.12 887.22,-317.52l-1972.76 -1962.03zm2835.54 881.28c0,-966.5 -783.5,-1750 -1750,-1750 -966.5,0 -1750,783.5 -1750,1750 0,966.5 783.5,1750 1750,1750 966.5,0 1750,-783.5 1750,-1750z"/>
</symbol>
 <g id="Ebene_x0020_1">
  <metadata id="CorelCorpID_0Corel-Layer"/>
  <use id="ISO_x0020_7010_x0020_P017_0" transform="scale(0.571429 0.571429)" x="-0" y="-0" width="3500" height="3500" xlink:href="#ISO_x0020_7010_x0020_P017"/>
 </g>
</svg>
