<?xml version="1.0" encoding="UTF-8"?>
<!DOCTYPE svg PUBLIC "-//W3C//DTD SVG 1.1//EN" "http://www.w3.org/Graphics/SVG/1.1/DTD/svg11.dtd">
<!-- Creator: Corel DESIGNER -->
<svg xmlns="http://www.w3.org/2000/svg" xml:space="preserve" width="40mm" height="40mm" version="1.1" style="shape-rendering:geometricPrecision; text-rendering:geometricPrecision; image-rendering:optimizeQuality; fill-rule:evenodd; clip-rule:evenodd"
viewBox="0 0 2000 2000"
 xmlns:xlink="http://www.w3.org/1999/xlink"
 xmlns:xodm="http://www.corel.com/coreldraw/odm/2003">
 <defs>
  <style type="text/css">
   <![CDATA[
    .fil1p {fill:#0E1313}
    .fil2p {fill:#A1262D}
    .fil0p {fill:white}
   ]]>
  </style>
 </defs>
<symbol id="ISO_x0020_7010_x0020_P020" viewBox="-3750 -1808.34 3500 3500">
 <circle class="fil0p" cx="-2000" cy="-58.34" r="1575"/>
 <path class="fil1p" d="M-2114.23 -611.22c0,-52.39 -42.46,-94.86 -94.85,-94.86 -52.39,0 -94.85,42.47 -94.85,94.86 0,52.38 42.46,94.85 94.85,94.85 52.39,0 94.85,-42.47 94.85,-94.85zm-229.64 254.8l25.92 0c0,292.21 0,584.42 0,876.63 0,26.24 21.47,47.71 47.71,47.71 26.25,0 47.72,-21.47 47.72,-47.71l0 -523.12c0,-5.43 4.43,-9.86 9.86,-9.86l6.76 0c5.43,0 9.86,4.43 9.86,9.86l0 523.12c0,26.24 21.47,47.71 47.71,47.71 26.24,0 47.72,-21.47 47.72,-47.71l0 -876.63 24.13 0 0 374.03c0,24.03 19.66,43.7 43.7,43.7 24.03,0 43.7,-19.66 43.7,-43.7l0 -391.81c-1.5,-64.52 -58.29,-115.55 -121.67,-115.55l-199.57 0c-61.68,0 -120.93,51.75 -120.93,115.55 0,130.6 0,261.21 0,391.81 0,24.03 19.66,43.7 43.7,43.7 24.04,0 43.7,-19.66 43.7,-43.7l0 -374.03z"/>
 <path class="fil1p" d="M-1643.99 -352.33c0,-40.88 -33.14,-74.02 -74.03,-74.02 -40.88,0 -74.03,33.14 -74.03,74.02 0,40.88 33.14,74.02 74.03,74.02 40.89,0 74.03,-33.14 74.03,-74.02zm-179.22 198.85l20.23 0 0 684.16c0,20.48 16.76,37.24 37.24,37.24 20.48,0 37.24,-16.75 37.24,-37.24l0 -408.26c0,-4.23 3.45,-7.69 7.69,-7.69l5.28 0c4.23,0 7.69,3.46 7.69,7.69l0 408.26c0,20.48 16.76,37.24 37.23,37.24 20.49,0 37.24,-16.75 37.24,-37.24l0 -684.16 18.83 0 0 291.91c0,18.75 15.35,34.1 34.11,34.1 18.76,0 34.11,-15.34 34.11,-34.1l0 -305.79c-2.37,-49.71 -31.23,-90.17 -94.95,-90.17l-155.76 0c-49.47,0 -93.01,40.09 -94.38,90.17l0 305.79c0,18.75 15.35,34.1 34.11,34.1 18.76,0 34.11,-15.34 34.11,-34.1l0 -291.91z"/>
 <path class="fil1p" d="M-1319.56 -674.9c120.66,46.34 96.05,221.84 170.24,329.02 74.19,107.18 163.57,224.42 388.76,181.51 -144.94,-71.5 -215.59,-168.36 -252.26,-268.45 -36.66,-100.1 -115.33,-269.27 -306.73,-242.07zm549.81 400.19c-14.98,-85.69 -38.68,-168.38 -70.17,-247.13 -59.12,-47.77 -119.12,-132.6 -163.95,-257.03 -24.99,68.93 -12.85,171.85 19.08,273.53 29.76,94.82 131.36,185.11 215.04,230.64zm-145.62 836.03c35.7,-62.37 66.16,-128.12 90.82,-196.65 -181.69,46.49 -364.54,-15.09 -430.56,-103.76 12.83,143.63 110.58,230.4 169.47,259.47 35.79,17.67 95.05,32.78 170.27,40.93zm115.74 -273.62c3.72,-12.94 7.23,-25.97 10.54,-39.08 -139.31,-42.07 -196.69,-70.24 -261.35,-148.02 -70.12,-84.37 -250.2,-148.57 -382,-49.48 132.39,1.91 173.05,109.48 281.24,189.8 98.18,72.88 200.77,124.84 351.56,46.79zm30.57 -133.88c11.73,-68.44 17.92,-138.76 18.01,-210.51 -208.9,-35.44 -384.96,-141.84 -504.05,-304.39 -9.53,89.69 8,237.85 141.39,348.47 127.51,105.74 222.14,137.15 344.65,166.44z"/>
 <path class="fil1p" d="M-2639.45 -875.12l563.76 0 0 -94.44 43.26 0 0 -337.33c10.78,-0.28 21.6,-0.42 32.44,-0.42 10.85,0 21.66,0.14 32.44,0.42l0 337.33 43.25 0 0 94.44 563.76 0 0 1633.58 -563.76 0 0 94.44 -43.25 0 0 337.33c-10.78,0.28 -21.6,0.42 -32.44,0.42 -10.85,0 -21.66,-0.14 -32.44,-0.42l0 -337.33 -43.26 0 0 -94.44 -563.76 0 0 -1633.58zm94.44 1539.14l1090.03 0 0 -1444.71 -1090.03 0 0 1444.71z"/>
 <path class="fil2p" d="M-601.73 -58.34c0,-772.25 -626.03,-1398.27 -1398.27,-1398.27 -336.84,0 -645.85,119.11 -887.22,317.51l1972.76 1962.03c195.5,-240.5 312.73,-547.18 312.73,-881.27zm-2483.81 -881.27c-195.49,240.5 -312.73,547.18 -312.73,881.27 0,772.25 626.03,1398.27 1398.27,1398.27 336.84,0 645.84,-119.12 887.22,-317.51l-1972.76 -1962.03zm2835.54 881.27c0,-966.5 -783.5,-1750 -1750,-1750 -966.5,0 -1750,783.5 -1750,1750 0,966.5 783.5,1750 1750,1750 966.5,0 1750,-783.5 1750,-1750z"/>
</symbol>
 <g id="Ebene_x0020_1">
  <metadata id="CorelCorpID_0Corel-Layer"/>
  <use id="ISO_x0020_7010_x0020_P020_0" transform="scale(0.571429 0.571429)" x="-0" y="-0" width="3500" height="3500" xlink:href="#ISO_x0020_7010_x0020_P020"/>
 </g>
</svg>
