<?xml version="1.0" encoding="UTF-8"?>
<!DOCTYPE svg PUBLIC "-//W3C//DTD SVG 1.1//EN" "http://www.w3.org/Graphics/SVG/1.1/DTD/svg11.dtd">
<!-- Creator: Corel DESIGNER -->
<svg xmlns="http://www.w3.org/2000/svg" xml:space="preserve" width="40mm" height="40mm" version="1.1" style="shape-rendering:geometricPrecision; text-rendering:geometricPrecision; image-rendering:optimizeQuality; fill-rule:evenodd; clip-rule:evenodd"
viewBox="0 0 4000 4000"
 xmlns:xlink="http://www.w3.org/1999/xlink"
 xmlns:xodm="http://www.corel.com/coreldraw/odm/2003">
 <defs>
  <style type="text/css">
   <![CDATA[
    .fil1p {fill:#0E1313}
    .fil2p {fill:#A1262D}
    .fil0p {fill:white}
   ]]>
  </style>
 </defs>
<symbol id="ISO_x0020_7010_x0020_P024" viewBox="-1500 8850 7000 7000">
 <circle class="fil0p" cx="2000" cy="12350" r="3150"/>
 <path class="fil1p" d="M2514.71 12306.25c27.06,113.76 -84.11,619.54 -145.99,755.13 -62.79,137.62 -176.95,419.25 -186.92,521.5 -25.22,258.62 38.55,456.18 192.98,600.08 317.19,295.56 803.8,257.2 1017.54,-177.06 82.6,-167.82 171.04,-447.91 198.85,-632.31 22.56,-149.52 45.85,-256.22 68.96,-371.24 43.24,-215.17 117.95,-489.77 195.69,-694.19 60.52,-159.16 81.22,-168.97 134.43,-373.54 116.07,-446.25 5.31,-1093.02 -337.72,-1423.19 -271.18,-261.02 -709.42,-245.39 -982.27,39.1 -232.92,242.85 -373.43,671.42 -372.86,1031.56 0.45,282.06 138.51,392.8 217.31,724.16z"/>
 <path class="fil1p" d="M1485.29 12306.25c-27.06,113.76 84.11,619.54 145.99,755.13 62.79,137.62 176.95,419.25 186.92,521.5 25.22,258.62 -38.55,456.18 -192.98,600.08 -317.19,295.56 -803.8,257.2 -1017.54,-177.06 -82.6,-167.82 -171.04,-447.91 -198.85,-632.31 -22.56,-149.52 -45.85,-256.22 -68.96,-371.24 -43.24,-215.17 -117.95,-489.77 -195.69,-694.19 -60.52,-159.16 -81.22,-168.97 -134.43,-373.54 -116.07,-446.25 -5.31,-1093.02 337.72,-1423.19 271.18,-261.02 709.42,-245.39 982.27,39.1 232.92,242.85 373.43,671.42 372.86,1031.56 -0.45,282.06 -138.51,392.8 -217.31,724.16z"/>
 <path class="fil2p" d="M4796.54 12350c0,-1544.49 -1252.05,-2796.54 -2796.54,-2796.54 -673.67,0 -1291.7,238.22 -1774.43,635.02l3945.51 3924.07c391,-481 625.46,-1094.36 625.46,-1762.55zm-4967.62 -1762.55c-390.98,481.01 -625.46,1094.36 -625.46,1762.55 0,1544.49 1252.05,2796.54 2796.54,2796.54 673.67,0 1291.67,-238.25 1774.43,-635.03l-3945.51 -3924.06zm5671.08 1762.55c0,-1933 -1567,-3500 -3500,-3500 -1933,0 -3500,1567 -3500,3500 0,1933 1567,3500 3500,3500 1933,0 3500,-1567 3500,-3500z"/>
</symbol>
 <g id="Ebene_x0020_1">
  <metadata id="CorelCorpID_0Corel-Layer"/>
  <use id="ISO_x0020_7010_x0020_P024_0" transform="scale(0.571429 0.571429)" x="-0" y="-0" width="7000" height="7000" xlink:href="#ISO_x0020_7010_x0020_P024"/>
 </g>
</svg>
