<?xml version="1.0" encoding="UTF-8"?>
<!DOCTYPE svg PUBLIC "-//W3C//DTD SVG 1.1//EN" "http://www.w3.org/Graphics/SVG/1.1/DTD/svg11.dtd">
<!-- Creator: Corel DESIGNER -->
<svg xmlns="http://www.w3.org/2000/svg" xml:space="preserve" width="40mm" height="40mm" version="1.1" style="shape-rendering:geometricPrecision; text-rendering:geometricPrecision; image-rendering:optimizeQuality; fill-rule:evenodd; clip-rule:evenodd"
viewBox="0 0 1000 1000"
 xmlns:xlink="http://www.w3.org/1999/xlink"
 xmlns:xodm="http://www.corel.com/coreldraw/odm/2003">
 <defs>
  <style type="text/css">
   <![CDATA[
    .fil1p {fill:#0E1313}
    .fil2p {fill:#A1262D}
    .fil0p {fill:white}
   ]]>
  </style>
 </defs>
<symbol id="ISO_x0020_7010_x0020_P029" viewBox="1125 -904.17 1750 1750">
 <circle class="fil0p" cx="2000" cy="-29.17" r="787.5"/>
 <path class="fil1p" d="M2041.56 -456.22l107 0c65.66,0 119.43,53.44 120,118.97l164.15 0c75.14,0 136.63,61.48 136.63,136.63l0 413.39c0,18.79 -15.37,34.16 -34.16,34.16l-1076.9 0c-18.79,0 -34.16,-15.37 -34.16,-34.16l0 -413.39c0,-75.14 61.49,-136.63 136.63,-136.63l360.8 0c0.57,-65.53 54.35,-118.97 120,-118.97zm-210.4 617.61c0,-22.26 -18.04,-40.3 -40.3,-40.3 -22.26,0 -40.3,18.04 -40.3,40.3 0,22.26 18.04,40.3 40.3,40.3 22.26,0 40.3,-18.04 40.3,-40.3zm-296.77 -385.17l131.59 0 0 -33.98c0,-18.69 -15.29,-33.98 -33.98,-33.98l-63.62 0c-18.69,0 -33.98,15.29 -33.98,33.98l0 33.98zm904.81 385.17c0,-22.26 -18.04,-40.3 -40.3,-40.3 -22.25,0 -40.3,18.04 -40.3,40.3 0,22.26 18.04,40.3 40.3,40.3 22.26,0 40.3,-18.04 40.3,-40.3zm0 -107c0,-22.26 -18.04,-40.3 -40.3,-40.3 -22.25,0 -40.3,18.04 -40.3,40.3 0,22.25 18.04,40.3 40.3,40.3 22.26,0 40.3,-18.04 40.3,-40.3zm0 -240.03c0,-22.26 -18.04,-40.3 -40.3,-40.3 -22.25,0 -40.3,18.04 -40.3,40.3 0,22.25 18.04,40.3 40.3,40.3 22.26,0 40.3,-18.04 40.3,-40.3zm-97.95 149.85c0,-134.96 -109.41,-244.37 -244.37,-244.37 -134.96,0 -244.37,109.41 -244.37,244.37 0,134.96 109.41,244.37 244.37,244.37 134.97,0 244.37,-109.41 244.37,-244.37zm-117.32 0c0,-70.17 -56.88,-127.05 -127.05,-127.05 -70.17,0 -127.05,56.88 -127.05,127.05 0,70.17 56.88,127.05 127.05,127.05 70.17,0 127.05,-56.88 127.05,-127.05zm60.93 0c0,-103.82 -84.16,-187.98 -187.98,-187.98 -103.82,0 -187.98,84.16 -187.98,187.98 0,103.82 84.16,187.98 187.98,187.98 103.82,0 187.98,-84.16 187.98,-187.98z"/>
 <path class="fil2p" d="M2699.14 -29.17c0,-386.12 -313.01,-699.13 -699.14,-699.13 -168.42,0 -322.92,59.55 -443.61,158.75l986.38 981.02c97.75,-120.25 156.37,-273.59 156.37,-440.64zm-1241.91 -440.64c-97.74,120.25 -156.37,273.59 -156.37,440.64 0,386.12 313.01,699.13 699.13,699.13 168.42,0 322.92,-59.56 443.61,-158.76l-986.38 -981.02zm1417.77 440.64c0,-483.25 -391.75,-875 -875,-875 -483.25,0 -875,391.75 -875,875 0,483.25 391.75,875 875,875 483.25,0 875,-391.75 875,-875z"/>
</symbol>
 <g id="Ebene_x0020_1">
  <metadata id="CorelCorpID_0Corel-Layer"/>
  <use id="ISO_x0020_7010_x0020_P029_0" transform="scale(0.571429 0.571429)" x="-0" y="-0" width="1750" height="1750" xlink:href="#ISO_x0020_7010_x0020_P029"/>
 </g>
</svg>
