<?xml version="1.0" encoding="UTF-8"?>
<!DOCTYPE svg PUBLIC "-//W3C//DTD SVG 1.1//EN" "http://www.w3.org/Graphics/SVG/1.1/DTD/svg11.dtd">
<!-- Creator: Corel DESIGNER -->
<svg xmlns="http://www.w3.org/2000/svg" xml:space="preserve" width="40mm" height="40mm" version="1.1" style="shape-rendering:geometricPrecision; text-rendering:geometricPrecision; image-rendering:optimizeQuality; fill-rule:evenodd; clip-rule:evenodd"
viewBox="0 0 1000 1000"
 xmlns:xlink="http://www.w3.org/1999/xlink"
 xmlns:xodm="http://www.corel.com/coreldraw/odm/2003">
 <defs>
  <style type="text/css">
   <![CDATA[
    .fil1p {fill:#0E1313}
    .fil2p {fill:#A1262D}
    .fil0p {fill:white}
   ]]>
  </style>
 </defs>
<symbol id="ISO_x0020_7010_x0020_P032" viewBox="1125 -2462.5 1750 1750">
 <circle class="fil0p" cx="2000" cy="-1587.5" r="787.5"/>
 <path id="Seitenschleifer" class="fil1p" d="M2095.3 -1725.29c-25.97,-0.06 -46.4,-17.93 -46.86,-44.83 -0.46,-26.9 19.11,-46.57 46.78,-46.66 27.67,-0.1 45.7,23.89 45.3,47 -0.41,23.11 -19.25,44.56 -45.22,44.5zm-16.82 -46.22c0.02,8.99 8.48,17.05 16.66,16.95 8.18,-0.09 15.33,-7.01 16.07,-15.9 0.74,-8.88 -7.72,-16.67 -15.9,-16.92 -8.18,-0.25 -16.86,6.88 -16.84,15.87zm216.7 -343.14l-185.69 124.58 161.42 219.14 179.33 -120.17 -26.67 -38.67 -146.26 97.23 -107.86 -146.51 150.12 -99.91 -24.4 -35.68zm-447.19 756.87l71.8 -0.31 557.68 -388.92 22.02 -66.97 -224.36 159.91 -30.2 -15.46 245.97 -170.62c8.81,-6.11 28.94,-4.37 35.29,4.24l37.81 51.32c7.19,9.76 3.6,29.05 -6.33,35.99l-308.6 215.86 22.47 31.46 309.61 -216.21c21.13,-14.76 32.86,-64.81 17.58,-85.55l-45.24 -61.42c-15.28,-20.74 -71.06,-19.83 -92.22,-5.15l-257.84 178.85 -27.67 -14.15 57.65 -39.99c-53.33,-73.7 -105.89,-146.96 -159.22,-220.66 -129.63,100.17 -137.73,234.48 -65.2,376.34l114.66 -79.54 7.96 114.25 -283.62 196.75zm222.6 -545.78l108.57 149.51 -153.3 106.35c-37.14,-87.08 -33.91,-196.79 44.73,-255.85zm-667.5 523.11l398.43 0 51.38 63.82 717.87 0c-11.07,23.29 -23.52,45.79 -37.25,67.4l-1067.04 0.01c-25.92,-40.81 -47.29,-84.79 -63.39,-131.23z"/>
 <path class="fil2p" d="M2699.14 -1587.5c0,-386.12 -313.01,-699.14 -699.14,-699.14 -168.42,0 -322.92,59.56 -443.61,158.76l986.38 981.02c97.75,-120.25 156.37,-273.59 156.37,-440.64zm-1241.91 -440.64c-97.74,120.25 -156.37,273.59 -156.37,440.64 0,386.12 313.01,699.13 699.13,699.13 168.42,0 322.92,-59.56 443.61,-158.76l-986.38 -981.02zm1417.77 440.64c0,-483.25 -391.75,-875 -875,-875 -483.25,0 -875,391.75 -875,875 0,483.25 391.75,875 875,875 483.25,0 875,-391.75 875,-875z"/>
</symbol>
 <g id="Ebene_x0020_1">
  <metadata id="CorelCorpID_0Corel-Layer"/>
  <use id="ISO_x0020_7010_x0020_P032_0" transform="scale(0.571429 0.571429)" x="-0" y="-0" width="1750" height="1750" xlink:href="#ISO_x0020_7010_x0020_P032"/>
 </g>
</svg>
