<?xml version="1.0" encoding="UTF-8"?>
<!DOCTYPE svg PUBLIC "-//W3C//DTD SVG 1.1//EN" "http://www.w3.org/Graphics/SVG/1.1/DTD/svg11.dtd">
<!-- Creator: Corel DESIGNER -->
<svg xmlns="http://www.w3.org/2000/svg" xml:space="preserve" width="40mm" height="40mm" version="1.1" style="shape-rendering:geometricPrecision; text-rendering:geometricPrecision; image-rendering:optimizeQuality; fill-rule:evenodd; clip-rule:evenodd"
viewBox="0 0 4000 4000"
 xmlns:xlink="http://www.w3.org/1999/xlink"
 xmlns:xodm="http://www.corel.com/coreldraw/odm/2003">
 <defs>
  <style type="text/css">
   <![CDATA[
    .fil3 {fill:none}
    .fil2p {fill:#2B2A29}
    .fil1p {fill:#0E1313}
    .fil4 {fill:#A1262D}
    .fil0p {fill:white}
   ]]>
  </style>
  <clipPath id="id0">
   <path d="M1534.42 -5273.87c0,-202 163.74,-365.75 365.74,-365.75 202,0 365.75,163.75 365.75,365.75 0,202 -163.75,365.75 -365.75,365.75 -202,0 -365.74,-163.75 -365.74,-365.75zm365.74 -697.11c-385,0 -697.11,312.11 -697.11,697.11 0,385.01 312.11,697.11 697.11,697.11 385.01,0 697.11,-312.1 697.11,-697.11 0,-385 -312.1,-697.11 -697.11,-697.11z"/>
  </clipPath>
 </defs>
<symbol id="ISO_x0020_7010_x0020_P033" viewBox="-1500 -9850 7000 7000">
 <circle class="fil0p" cx="2000" cy="-6350" r="3150"/>
 <path class="fil1p" d="M1766.07 -8583.78l708.64 0 13.83 13.83 0 141.72 -13.83 13.82 -273.08 0 0 266.17 881.46 0 0 165.93c-496.52,0 -993.29,0 -1489.85,0 -141.52,1.79 -252.87,89.27 -262.71,266.39l0 390.39 217.77 0 0 -224.46c0,-132.76 79.09,-186.9 165.92,-186.9l1368.87 0 0 165.93c-449.37,0 -878.25,0 -1327.62,0 -34.02,0 -40.85,0 -41.25,20.97l0 390.38 -549.61 0 0 -556.31c12.78,-349.28 246.44,-432.86 428.63,-432.32l445.92 0 0 -266.17 -273.09 0 -13.82 -13.82 0 -141.73 13.82 -13.82zm-1193.98 3577.47c0,-36.36 -29.48,-65.84 -65.84,-65.84 -36.36,0 -65.85,29.48 -65.85,65.84 0,36.37 29.49,65.85 65.85,65.85 36.36,0 65.84,-29.48 65.84,-65.85zm71.83 -214.47c0,-36.36 -29.49,-65.84 -65.85,-65.84 -36.36,0 -65.84,29.48 -65.84,65.84 0,36.36 29.48,65.85 65.84,65.85 36.36,0 65.85,-29.49 65.85,-65.85zm73.2 -218.59c0,-36.36 -29.48,-65.84 -65.85,-65.84 -36.36,0 -65.84,29.48 -65.84,65.84 0,36.36 29.48,65.84 65.84,65.84 36.37,0 65.85,-29.48 65.85,-65.84zm72.65 -216.95c0,-36.37 -29.49,-65.85 -65.85,-65.85 -36.36,0 -65.84,29.48 -65.84,65.85 0,36.36 29.48,65.84 65.84,65.84 36.36,0 65.85,-29.48 65.85,-65.84zm71.81 -214.45c0,-36.37 -29.48,-65.85 -65.84,-65.85 -36.36,0 -65.85,29.48 -65.85,65.85 0,36.36 29.49,65.84 65.85,65.84 36.36,0 65.84,-29.48 65.84,-65.84zm75.71 -226.05c0,-36.36 -29.48,-65.84 -65.85,-65.84 -36.36,0 -65.84,29.48 -65.84,65.84 0,36.36 29.48,65.84 65.84,65.84 36.37,0 65.85,-29.48 65.85,-65.84zm73.48 -219.44c0,-36.36 -29.48,-65.84 -65.84,-65.84 -36.36,0 -65.85,29.48 -65.85,65.84 0,36.36 29.49,65.85 65.85,65.85 36.36,0 65.84,-29.49 65.84,-65.85zm74.31 -221.9c0,-36.36 -29.48,-65.84 -65.84,-65.84 -36.36,0 -65.85,29.48 -65.85,65.84 0,36.36 29.49,65.84 65.85,65.84 36.36,0 65.84,-29.48 65.84,-65.84zm70.72 -211.15c0,-36.36 -29.48,-65.85 -65.85,-65.85 -36.36,0 -65.84,29.49 -65.84,65.85 0,36.36 29.48,65.84 65.84,65.84 36.37,0 65.85,-29.48 65.85,-65.84zm68.76 -205.35c0,-36.36 -29.48,-65.85 -65.84,-65.85 -36.36,0 -65.84,29.49 -65.84,65.85 0,36.36 29.48,65.84 65.84,65.84 36.36,0 65.84,-29.48 65.84,-65.84zm156.49 494.7c0,-36.36 -29.48,-65.84 -65.84,-65.84 -36.36,0 -65.85,29.48 -65.85,65.84 0,36.36 29.49,65.84 65.85,65.84 36.36,0 65.84,-29.48 65.84,-65.84zm-19.96 223.85c0,-36.36 -29.49,-65.84 -65.85,-65.84 -36.36,0 -65.84,29.48 -65.84,65.84 0,36.36 29.48,65.85 65.84,65.85 36.36,0 65.85,-29.49 65.85,-65.85zm-20.96 234.83c0,-36.36 -29.48,-65.85 -65.85,-65.85 -36.36,0 -65.84,29.49 -65.84,65.85 0,36.36 29.48,65.84 65.84,65.84 36.37,0 65.85,-29.48 65.85,-65.84zm-20.4 228.6c0,-36.36 -29.49,-65.85 -65.85,-65.85 -36.36,0 -65.84,29.49 -65.84,65.85 0,36.36 29.48,65.84 65.84,65.84 36.36,0 65.85,-29.48 65.85,-65.84zm81.74 -916.13c0,-36.36 -29.48,-65.85 -65.84,-65.85 -36.36,0 -65.84,29.49 -65.84,65.85 0,36.36 29.48,65.84 65.84,65.84 36.36,0 65.84,-29.48 65.84,-65.84zm21.73 -243.53c0,-36.36 -29.48,-65.84 -65.84,-65.84 -36.36,0 -65.84,29.48 -65.84,65.84 0,36.36 29.48,65.85 65.84,65.85 36.36,0 65.84,-29.49 65.84,-65.85zm305.47 700.31c0,-36.36 -29.48,-65.84 -65.84,-65.84 -36.36,0 -65.85,29.48 -65.85,65.84 0,36.37 29.49,65.85 65.85,65.85 36.36,0 65.84,-29.48 65.84,-65.85zm-22.53 -220.57c0,-36.36 -29.49,-65.85 -65.85,-65.85 -36.36,0 -65.84,29.49 -65.84,65.85 0,36.36 29.48,65.84 65.84,65.84 36.36,0 65.85,-29.48 65.85,-65.84zm-24.52 -240c0,-36.36 -29.48,-65.84 -65.84,-65.84 -36.36,0 -65.85,29.48 -65.85,65.84 0,36.36 29.49,65.84 65.85,65.84 36.36,0 65.84,-29.48 65.84,-65.84zm-24.26 -237.54c0,-36.36 -29.49,-65.84 -65.85,-65.84 -36.36,0 -65.84,29.48 -65.84,65.84 0,36.36 29.48,65.85 65.84,65.85 36.36,0 65.85,-29.49 65.85,-65.85zm0 0c0,-36.36 -29.49,-65.84 -65.85,-65.84 -36.36,0 -65.84,29.48 -65.84,65.84 0,36.36 29.48,65.85 65.84,65.85 36.36,0 65.85,-29.49 65.85,-65.85z"/>
 <path class="fil1p" d="M2760.28 -5273.87c0,-475.03 -385.09,-860.11 -860.12,-860.11 -475.03,0 -860.11,385.08 -860.11,860.11 0,475.03 385.08,860.12 860.11,860.12 475.03,0 860.12,-385.09 860.12,-860.12zm-163.01 0c0,-385 -312.1,-697.11 -697.11,-697.11 -385,0 -697.11,312.11 -697.11,697.11 0,385.01 312.11,697.11 697.11,697.11 385.01,0 697.11,-312.1 697.11,-697.11z"/>
 <path class="fil1p" d="M2155.37 -5273.87c0,-140.94 -114.26,-255.2 -255.21,-255.2 -140.94,0 -255.2,114.26 -255.2,255.2 0,140.95 114.26,255.21 255.2,255.21 140.95,0 255.21,-114.26 255.21,-255.21zm110.54 0c0,-202 -163.75,-365.75 -365.75,-365.75 -202,0 -365.74,163.75 -365.74,365.75 0,202 163.74,365.75 365.74,365.75 202,0 365.75,-163.75 365.75,-365.75z"/>
 <path class="fil1p" d="M354.32 -4411.51l3291.36 0c-115.25,97.94 -239.32,185.82 -370.89,262.22l-2549.58 0c-131.57,-76.4 -255.64,-164.28 -370.89,-262.22z"/>
 <path class="fil0p" d="M1534.42 -5273.87c0,-202 163.74,-365.75 365.74,-365.75 202,0 365.75,163.75 365.75,365.75 0,202 -163.75,365.75 -365.75,365.75 -202,0 -365.74,-163.75 -365.74,-365.75zm365.74 -697.11c-385,0 -697.11,312.11 -697.11,697.11 0,385.01 312.11,697.11 697.11,697.11 385.01,0 697.11,-312.1 697.11,-697.11 0,-385 -312.1,-697.11 -697.11,-697.11z"/>
 <g style="clip-path:url(#id0)">
  <path id="1" class="fil2p" d="M1884.5 -5640.65c74.76,-68.47 143.83,56.2 35.92,56.2 -62.81,0 -36.73,-55.45 -35.92,-56.2z"/>
  <path class="fil2p" d="M2009.26 -5634.58c-40.7,66.43 -11.73,53.53 11.76,121.54 5.08,0.44 36.23,-71.08 13.74,-99.1 -15.62,-19.46 4.41,-71.25 -25.5,-22.44z"/>
  <path class="fil2p" d="M1943.93 -5555.29c-51.37,78.65 -18.88,67.34 45.97,57.73 0.37,-0.06 22.05,-15.95 -8.06,-26.36 -0.62,-0.21 -19.32,-59.82 -37.91,-31.37z"/>
  <path class="fil2p" d="M1854.55 -5458.36c74.75,-68.46 143.83,56.2 35.92,56.2 -62.81,0 -36.73,-55.45 -35.92,-56.2z"/>
  <path class="fil2p" d="M1979.31 -5452.29c-40.71,66.44 -11.73,53.54 11.76,121.54 5.08,0.44 36.23,-71.07 13.74,-99.1 -15.62,-19.46 4.41,-71.25 -25.5,-22.44z"/>
  <path class="fil2p" d="M1909.91 -5351.56c-51.38,78.64 -18.88,67.33 45.97,57.72 0.37,-0.05 22.05,-15.94 -8.06,-26.36 -0.62,-0.21 -19.32,-59.81 -37.91,-31.36z"/>
  <path class="fil2p" d="M2033.59 -5488.42c74.75,-68.47 143.83,56.2 35.92,56.2 -62.81,0 -36.73,-55.45 -35.92,-56.2z"/>
  <path class="fil2p" d="M2148.82 -5457.89c-40.7,66.44 -11.73,53.53 11.76,121.54 5.08,0.44 36.23,-71.07 13.74,-99.1 -15.62,-19.46 4.41,-71.25 -25.5,-22.44z"/>
  <path class="fil2p" d="M2066.17 -5403.7c-51.38,78.64 -18.88,67.33 45.97,57.72 0.37,-0.05 22.04,-15.94 -8.06,-26.35 -0.62,-0.22 -19.32,-59.82 -37.91,-31.37z"/>
  <path class="fil2p" d="M2155.84 -5652.43c-36.91,94.41 -153.87,12.96 -57.01,-34.61 56.38,-27.69 57.41,33.58 57.01,34.61z"/>
  <path class="fil2p" d="M2209.24 -5622.4c-66.64,40.36 -34.98,42.19 -45.31,113.39 4.31,2.72 64.8,-46.53 57.68,-81.75 -4.95,-24.46 36.6,-61.29 -12.37,-31.64z"/>
  <path class="fil2p" d="M2114.82 -5581.91c-81.73,46.31 -47.67,51.17 14.36,72.37 0.36,0.13 26.91,-4.05 4.93,-27.11 -0.45,-0.47 10.28,-62.02 -19.29,-45.26z"/>
  <path class="fil2p" d="M2175.79 -5983.9c74.75,-68.47 143.83,56.19 35.92,56.19 -62.81,0 -36.73,-55.45 -35.92,-56.19z"/>
  <path class="fil2p" d="M2300.55 -5977.83c-40.71,66.43 -11.73,53.53 11.76,121.54 5.08,0.43 36.23,-71.08 13.74,-99.11 -15.62,-19.46 4.41,-71.24 -25.5,-22.43z"/>
  <path class="fil2p" d="M2235.22 -5898.54c-51.38,78.64 -18.88,67.33 45.97,57.72 0.37,-0.05 22.05,-15.94 -8.06,-26.35 -0.62,-0.22 -19.32,-59.82 -37.91,-31.37z"/>
  <path class="fil2p" d="M2145.84 -5801.61c74.75,-68.47 143.83,56.2 35.92,56.2 -62.81,0 -36.73,-55.46 -35.92,-56.2z"/>
  <path class="fil2p" d="M2270.6 -5795.54c-40.71,66.43 -11.73,53.53 11.76,121.54 5.08,0.43 36.23,-71.08 13.74,-99.1 -15.62,-19.46 4.4,-71.25 -25.5,-22.44z"/>
  <path class="fil2p" d="M2205.27 -5716.25c-51.38,78.65 -18.88,67.34 45.97,57.72 0.37,-0.05 22.04,-15.94 -8.07,-26.35 -0.61,-0.21 -19.31,-59.82 -37.9,-31.37z"/>
  <path class="fil2p" d="M2324.88 -5831.67c74.75,-68.47 143.83,56.2 35.92,56.2 -62.81,0 -36.73,-55.46 -35.92,-56.2z"/>
  <path class="fil2p" d="M2440.11 -5801.14c-40.71,66.43 -11.73,53.53 11.76,121.54 5.08,0.43 36.23,-71.08 13.74,-99.1 -15.62,-19.46 4.41,-71.25 -25.5,-22.44z"/>
  <path class="fil2p" d="M2357.46 -5746.96c-51.38,78.65 -18.88,67.34 45.96,57.73 0.38,-0.06 22.05,-15.95 -8.06,-26.36 -0.61,-0.21 -19.31,-59.82 -37.9,-31.37z"/>
  <path class="fil2p" d="M2447.13 -5995.68c-36.91,94.41 -153.87,12.96 -57.02,-34.61 56.38,-27.69 57.42,33.58 57.02,34.61z"/>
  <path class="fil2p" d="M2500.53 -5965.65c-66.65,40.35 -34.98,42.18 -45.31,113.39 4.31,2.71 64.8,-46.54 57.67,-81.76 -4.95,-24.45 36.61,-61.28 -12.36,-31.63z"/>
  <path class="fil2p" d="M2406.11 -5925.17c-81.74,46.31 -47.67,51.17 14.36,72.38 0.36,0.12 26.9,-4.05 4.93,-27.12 -0.46,-0.47 10.27,-62.01 -19.29,-45.26z"/>
  <path class="fil2p" d="M2583.59 -5536.26c38.88,93.62 -101.87,116.04 -65.08,14.6 21.42,-59.05 64.66,-15.62 65.08,-14.6z"/>
  <path class="fil2p" d="M2535.35 -5421.05c-48.58,-60.92 -46.33,-29.28 -118.27,-30.39 -2.14,4.62 54.46,58.29 88.48,46.71 23.62,-8.05 65.47,28.44 29.79,-16.32z"/>
  <path class="fil2p" d="M2483.08 -5509.5c-56.41,-75.12 -56.86,-40.71 -69.94,23.53 -0.07,0.37 7.47,26.16 27.53,1.4 0.41,-0.5 62.82,2.24 42.41,-24.93z"/>
  <path class="fil2p" d="M2422.44 -5626.58c38.87,93.62 -101.88,116.05 -65.08,14.6 21.42,-59.04 64.65,-15.62 65.08,-14.6z"/>
  <path class="fil2p" d="M2374.19 -5511.37c-48.57,-60.92 -46.32,-29.28 -118.27,-30.39 -2.14,4.63 54.47,58.3 88.48,46.71 23.62,-8.04 65.48,28.44 29.79,-16.32z"/>
  <path class="fil2p" d="M2321.93 -5599.82c-56.42,-75.11 -56.86,-40.71 -69.94,23.53 -0.08,0.37 7.47,26.16 27.52,1.41 0.41,-0.51 62.83,2.24 42.42,-24.94z"/>
  <path class="fil2p" d="M2297.63 -5446.45c81.86,-59.79 136.73,71.75 29.49,59.83 -62.43,-6.94 -30.38,-59.18 -29.49,-59.83z"/>
  <path class="fil2p" d="M2312.5 -5326.3c-14.32,-76.59 -27.17,-47.6 -90.19,-82.33 -4.06,3.08 20.75,77.04 56.22,82.76 24.64,3.98 44.48,55.84 33.97,-0.43z"/>
  <path class="fil2p" d="M2276.97 -5471.7c-56.41,-75.11 -56.86,-40.71 -69.94,23.53 -0.08,0.37 7.47,26.16 27.53,1.41 0.41,-0.51 62.82,2.24 42.41,-24.94z"/>
  <path class="fil2p" d="M2502.14 -5277.17c-76.16,-66.89 40.29,-149.07 51.98,-41.8 6.81,62.44 -51.15,42.53 -51.98,41.8z"/>
  <path class="fil2p" d="M2455.7 -5237.21c-15.21,-76.41 -27.72,-47.27 -91.14,-81.26 -4.02,3.13 21.65,76.78 57.19,82.09 24.68,3.69 45.13,55.31 33.95,-0.83z"/>
  <path class="fil2p" d="M2449.84 -5339.78c-15.66,-92.63 -31.85,-62.26 -72.93,-11.18 -0.24,0.29 -5.37,26.67 23.81,13.88 0.59,-0.26 54.79,30.81 49.12,-2.7z"/>
  <path class="fil2p" d="M2493.21 -5822.03c74.75,-68.47 143.82,56.2 35.91,56.2 -62.81,0 -36.73,-55.45 -35.91,-56.2z"/>
  <path class="fil2p" d="M2617.96 -5815.96c-40.7,66.43 -11.73,53.53 11.76,121.54 5.08,0.44 36.23,-71.08 13.74,-99.1 -15.62,-19.46 4.41,-71.25 -25.5,-22.44z"/>
  <path class="fil2p" d="M2533.42 -5740.57c-51.38,78.65 -18.89,67.34 45.96,57.73 0.38,-0.06 22.05,-15.95 -8.06,-26.36 -0.62,-0.21 -19.32,-59.82 -37.9,-31.37z"/>
  <path class="fil2p" d="M2463.25 -5639.74c74.75,-68.46 143.83,56.2 35.92,56.2 -62.81,0 -36.73,-55.45 -35.92,-56.2z"/>
  <path class="fil2p" d="M2588.98 -5634.15c-20.78,75.09 3.51,54.69 44.87,113.57 5,-0.99 15.19,-78.32 -14.17,-99.05 -20.38,-14.39 -15.44,-69.69 -30.7,-14.52z"/>
  <path class="fil2p" d="M2562.34 -5920.05c-51.38,78.65 -18.89,67.34 45.96,57.73 0.38,-0.06 22.05,-15.95 -8.06,-26.36 -0.62,-0.21 -19.32,-59.82 -37.9,-31.37z"/>
  <path class="fil2p" d="M2642.29 -5669.8c74.75,-68.47 143.83,56.2 35.92,56.2 -62.81,0 -36.73,-55.45 -35.92,-56.2z"/>
  <path class="fil2p" d="M2757.52 -5639.27c-40.7,66.44 -11.73,53.53 11.76,121.54 5.08,0.44 36.23,-71.07 13.74,-99.1 -15.62,-19.46 4.41,-71.25 -25.5,-22.44z"/>
  <path class="fil2p" d="M2683.96 -5571.78c-51.37,78.65 -18.88,67.33 45.97,57.72 0.38,-0.05 22.05,-15.94 -8.06,-26.35 -0.62,-0.22 -19.32,-59.82 -37.91,-31.37z"/>
  <path class="fil2p" d="M2764.54 -5833.81c-36.91,94.41 -153.87,12.96 -57.01,-34.61 56.38,-27.69 57.41,33.58 57.01,34.61z"/>
  <path class="fil2p" d="M2723.52 -5763.29c-81.73,46.31 -47.67,51.17 14.36,72.38 0.36,0.12 26.91,-4.06 4.93,-27.12 -0.45,-0.47 10.28,-62.02 -19.29,-45.26z"/>
  <path class="fil2p" d="M2587.44 -5435.95c-40.71,66.44 -11.73,53.53 11.76,121.54 5.07,0.44 36.23,-71.07 13.74,-99.1 -15.62,-19.46 4.4,-71.25 -25.5,-22.44z"/>
  <path class="fil2p" d="M2558.45 -5254.14c-20.77,75.09 3.51,54.69 44.87,113.57 5,-0.99 15.19,-78.32 -14.16,-99.04 -20.39,-14.39 -15.45,-69.7 -30.71,-14.53z"/>
  <path class="fil2p" d="M2611.77 -5289.78c74.75,-68.47 143.82,56.19 35.92,56.19 -62.82,0 -36.74,-55.45 -35.92,-56.19z"/>
  <path class="fil2p" d="M2727 -5259.25c-40.71,66.43 -11.73,53.53 11.76,121.54 5.07,0.43 36.23,-71.08 13.74,-99.11 -15.62,-19.46 4.4,-71.24 -25.5,-22.43z"/>
  <path class="fil2p" d="M2653.44 -5191.77c-51.38,78.65 -18.88,67.34 45.97,57.73 0.37,-0.06 22.04,-15.95 -8.07,-26.36 -0.61,-0.21 -19.31,-59.82 -37.9,-31.37z"/>
  <path class="fil2p" d="M2734.02 -5453.8c-36.91,94.41 -153.87,12.96 -57.02,-34.61 56.38,-27.69 57.42,33.58 57.02,34.61z"/>
  <path class="fil2p" d="M2692.99 -5383.28c-81.73,46.31 -47.67,51.17 14.36,72.38 0.36,0.12 26.91,-4.05 4.93,-27.12 -0.45,-0.47 10.28,-62.01 -19.29,-45.26z"/>
  <path class="fil2p" d="M1942.01 -6000.94c-40.71,66.43 -11.73,53.53 11.76,121.54 5.08,0.43 36.23,-71.08 13.74,-99.1 -15.62,-19.46 4.41,-71.25 -25.5,-22.44z"/>
  <path class="fil2p" d="M1913.02 -5819.13c-20.77,75.09 3.51,54.69 44.88,113.56 5,-0.98 15.18,-78.31 -14.17,-99.04 -20.39,-14.39 -15.44,-69.69 -30.71,-14.52z"/>
  <path class="fil2p" d="M1966.34 -5854.78c74.75,-68.47 143.83,56.2 35.92,56.2 -62.82,0 -36.74,-55.45 -35.92,-56.2z"/>
  <path class="fil2p" d="M2081.57 -5824.25c-40.71,66.44 -11.73,53.53 11.76,121.54 5.07,0.44 36.23,-71.07 13.74,-99.1 -15.62,-19.46 4.4,-71.25 -25.5,-22.44z"/>
  <path class="fil2p" d="M2008.01 -5756.76c-51.38,78.65 -18.88,67.33 45.97,57.72 0.37,-0.05 22.04,-15.94 -8.06,-26.35 -0.62,-0.22 -19.32,-59.82 -37.91,-31.37z"/>
  <path class="fil2p" d="M2088.59 -6018.79c-36.91,94.41 -153.87,12.96 -57.02,-34.61 56.38,-27.69 57.42,33.58 57.02,34.61z"/>
  <path class="fil2p" d="M2047.57 -5948.27c-81.74,46.31 -47.67,51.17 14.36,72.37 0.35,0.13 26.9,-4.05 4.92,-27.11 -0.45,-0.47 10.28,-62.02 -19.28,-45.26z"/>
  <path class="fil2p" d="M2192.08 -5846.97c28.18,-89.61 -0.04,-69.93 -59.87,-43.13 -0.34,0.15 -16.91,21.32 14.89,23.19 0.66,0.04 34.79,52.36 44.98,19.94z"/>
  <path class="fil2p" d="M2137.06 -6032.93c-62.58,46.4 -30.89,45.26 -34.52,117.12 4.55,2.3 60.17,-52.38 49.79,-86.78 -7.22,-23.89 30.71,-64.44 -15.27,-30.34z"/>
  <path class="fil2p" d="M977.07 -5788.7c74.75,-68.47 143.83,56.2 35.92,56.2 -62.81,0 -36.73,-55.45 -35.92,-56.2z"/>
  <path class="fil2p" d="M1101.83 -5782.63c-40.71,66.43 -11.73,53.53 11.76,121.54 5.08,0.44 36.23,-71.08 13.74,-99.1 -15.62,-19.46 4.41,-71.25 -25.5,-22.44z"/>
  <path class="fil2p" d="M1036.5 -5703.34c-51.38,78.65 -18.88,67.34 45.97,57.73 0.37,-0.06 22.05,-15.95 -8.06,-26.36 -0.62,-0.21 -19.32,-59.82 -37.91,-31.37z"/>
  <path class="fil2p" d="M947.12 -5606.41c74.75,-68.46 143.83,56.2 35.92,56.2 -62.81,0 -36.73,-55.45 -35.92,-56.2z"/>
  <path class="fil2p" d="M1071.88 -5600.34c-40.71,66.44 -11.73,53.54 11.76,121.54 5.07,0.44 36.23,-71.07 13.74,-99.1 -15.62,-19.46 4.4,-71.25 -25.5,-22.44z"/>
  <path class="fil2p" d="M1006.55 -5521.05c-51.38,78.65 -18.88,67.34 45.96,57.73 0.38,-0.06 22.05,-15.94 -8.06,-26.36 -0.61,-0.21 -19.31,-59.82 -37.9,-31.37z"/>
  <path class="fil2p" d="M1126.16 -5636.47c74.75,-68.46 143.83,56.2 35.92,56.2 -62.81,0 -36.74,-55.45 -35.92,-56.2z"/>
  <path class="fil2p" d="M1241.39 -5605.94c-40.71,66.44 -11.73,53.53 11.76,121.54 5.08,0.44 36.23,-71.07 13.74,-99.1 -15.62,-19.46 4.4,-71.25 -25.5,-22.44z"/>
  <path class="fil2p" d="M1158.74 -5551.75c-51.38,78.64 -18.88,67.33 45.96,57.72 0.38,-0.05 22.05,-15.94 -8.06,-26.35 -0.61,-0.22 -19.31,-59.82 -37.9,-31.37z"/>
  <path class="fil2p" d="M1248.41 -5800.48c-36.91,94.41 -153.87,12.96 -57.02,-34.61 56.38,-27.69 57.42,33.58 57.02,34.61z"/>
  <path class="fil2p" d="M1301.81 -5770.45c-66.65,40.36 -34.98,42.19 -45.31,113.39 4.31,2.72 64.8,-46.53 57.67,-81.75 -4.95,-24.46 36.6,-61.29 -12.36,-31.64z"/>
  <path class="fil2p" d="M1207.39 -5729.96c-81.74,46.31 -47.67,51.17 14.36,72.38 0.35,0.12 26.9,-4.06 4.93,-27.12 -0.46,-0.47 10.27,-62.02 -19.29,-45.26z"/>
  <path class="fil2p" d="M1268.36 -6131.95c74.75,-68.47 143.83,56.19 35.92,56.19 -62.81,0 -36.73,-55.45 -35.92,-56.19z"/>
  <path class="fil2p" d="M1393.12 -6125.88c-40.71,66.43 -11.73,53.53 11.76,121.54 5.07,0.43 36.23,-71.08 13.74,-99.1 -15.62,-19.47 4.4,-71.25 -25.5,-22.44z"/>
  <path class="fil2p" d="M1327.79 -6046.59c-51.38,78.64 -18.88,67.33 45.96,57.72 0.38,-0.05 22.05,-15.94 -8.06,-26.35 -0.61,-0.22 -19.31,-59.82 -37.9,-31.37z"/>
  <path class="fil2p" d="M1238.41 -5949.66c74.75,-68.47 143.83,56.2 35.92,56.2 -62.82,0 -36.74,-55.45 -35.92,-56.2z"/>
  <path class="fil2p" d="M1363.17 -5943.59c-40.71,66.43 -11.74,53.53 11.76,121.54 5.07,0.43 36.23,-71.08 13.74,-99.1 -15.62,-19.46 4.4,-71.25 -25.5,-22.44z"/>
  <path class="fil2p" d="M1297.84 -5864.3c-51.38,78.65 -18.88,67.34 45.96,57.72 0.38,-0.05 22.05,-15.94 -8.06,-26.35 -0.62,-0.21 -19.32,-59.82 -37.9,-31.37z"/>
  <path class="fil2p" d="M1417.45 -5979.72c74.75,-68.47 143.82,56.2 35.92,56.2 -62.82,0 -36.74,-55.46 -35.92,-56.2z"/>
  <path class="fil2p" d="M1532.68 -5949.19c-40.71,66.43 -11.73,53.53 11.76,121.54 5.07,0.43 36.23,-71.08 13.74,-99.1 -15.62,-19.46 4.4,-71.25 -25.5,-22.44z"/>
  <path class="fil2p" d="M1450.03 -5895.01c-51.38,78.65 -18.89,67.34 45.96,57.73 0.38,-0.06 22.05,-15.95 -8.06,-26.36 -0.62,-0.21 -19.32,-59.82 -37.9,-31.37z"/>
  <path class="fil2p" d="M1539.7 -6143.73c-36.91,94.41 -153.87,12.96 -57.02,-34.61 56.38,-27.69 57.42,33.58 57.02,34.61z"/>
  <path class="fil2p" d="M1593.1 -6113.7c-66.65,40.35 -34.99,42.18 -45.31,113.39 4.31,2.71 64.8,-46.54 57.67,-81.76 -4.95,-24.45 36.6,-61.28 -12.36,-31.63z"/>
  <path class="fil2p" d="M1498.67 -6073.22c-81.73,46.31 -47.67,51.17 14.36,72.38 0.36,0.12 26.91,-4.05 4.93,-27.12 -0.45,-0.47 10.28,-62.01 -19.29,-45.26z"/>
  <path class="fil2p" d="M1676.16 -5684.31c38.88,93.62 -101.87,116.04 -65.08,14.6 21.42,-59.05 64.66,-15.62 65.08,-14.6z"/>
  <path class="fil2p" d="M1627.91 -5569.1c-48.57,-60.92 -46.32,-29.28 -118.26,-30.39 -2.14,4.62 54.46,58.29 88.47,46.71 23.62,-8.05 65.48,28.44 29.79,-16.32z"/>
  <path class="fil2p" d="M1575.65 -5657.55c-56.41,-75.12 -56.86,-40.71 -69.94,23.53 -0.08,0.37 7.47,26.16 27.53,1.4 0.41,-0.5 62.82,2.24 42.41,-24.93z"/>
  <path class="fil2p" d="M1515 -5774.63c38.88,93.62 -101.87,116.05 -65.07,14.6 21.41,-59.04 64.65,-15.62 65.07,-14.6z"/>
  <path class="fil2p" d="M1466.76 -5659.42c-48.57,-60.92 -46.33,-29.28 -118.27,-30.39 -2.14,4.63 54.46,58.3 88.48,46.71 23.62,-8.04 65.47,28.44 29.79,-16.32z"/>
  <path class="fil2p" d="M1414.5 -5747.87c-56.42,-75.11 -56.87,-40.71 -69.94,23.53 -0.08,0.37 7.47,26.16 27.52,1.41 0.41,-0.51 62.82,2.24 42.42,-24.94z"/>
  <path class="fil2p" d="M1390.2 -5594.5c81.85,-59.79 136.73,71.75 29.48,59.83 -62.42,-6.94 -30.38,-59.18 -29.48,-59.83z"/>
  <path class="fil2p" d="M1405.06 -5474.35c-14.31,-76.59 -27.17,-47.6 -90.18,-82.33 -4.06,3.08 20.75,77.04 56.22,82.76 24.63,3.98 44.48,55.84 33.96,-0.43z"/>
  <path class="fil2p" d="M1369.54 -5619.75c-56.42,-75.11 -56.86,-40.71 -69.94,23.53 -0.08,0.37 7.47,26.16 27.52,1.41 0.41,-0.51 62.83,2.24 42.42,-24.94z"/>
  <path class="fil2p" d="M1594.71 -5425.22c-76.16,-66.89 40.28,-149.07 51.98,-41.8 6.8,62.45 -51.15,42.53 -51.98,41.8z"/>
  <path class="fil2p" d="M1548.27 -5385.26c-15.21,-76.41 -27.73,-47.27 -91.14,-81.26 -4.03,3.13 21.65,76.78 57.18,82.09 24.68,3.69 45.14,55.31 33.96,-0.83z"/>
  <path class="fil2p" d="M1542.41 -5487.83c-15.67,-92.63 -31.85,-62.26 -72.94,-11.18 -0.24,0.29 -5.36,26.68 23.81,13.88 0.6,-0.26 54.8,30.81 49.13,-2.7z"/>
  <path class="fil2p" d="M1585.77 -5970.08c74.75,-68.47 143.83,56.2 35.92,56.2 -62.81,0 -36.73,-55.45 -35.92,-56.2z"/>
  <path class="fil2p" d="M1710.53 -5964.01c-40.71,66.43 -11.73,53.53 11.76,121.54 5.08,0.44 36.23,-71.07 13.74,-99.1 -15.62,-19.46 4.41,-71.25 -25.5,-22.44z"/>
  <path class="fil2p" d="M1625.98 -5888.62c-51.37,78.65 -18.88,67.34 45.97,57.73 0.37,-0.06 22.05,-15.95 -8.06,-26.36 -0.62,-0.21 -19.32,-59.82 -37.91,-31.37z"/>
  <path class="fil2p" d="M1555.82 -5787.79c74.75,-68.46 143.83,56.2 35.92,56.2 -62.81,0 -36.73,-55.45 -35.92,-56.2z"/>
  <path class="fil2p" d="M1681.54 -5782.2c-20.77,75.09 3.52,54.69 44.88,113.57 5,-0.99 15.19,-78.32 -14.17,-99.05 -20.38,-14.39 -15.44,-69.69 -30.71,-14.52z"/>
  <path class="fil2p" d="M1654.9 -6068.1c-51.38,78.65 -18.88,67.34 45.97,57.73 0.37,-0.06 22.05,-15.95 -8.06,-26.36 -0.62,-0.21 -19.32,-59.82 -37.91,-31.37z"/>
  <path class="fil2p" d="M1734.86 -5817.85c74.75,-68.46 143.83,56.2 35.92,56.2 -62.81,0 -36.74,-55.45 -35.92,-56.2z"/>
  <path class="fil2p" d="M1850.09 -5787.32c-40.71,66.44 -11.73,53.53 11.76,121.54 5.08,0.44 36.23,-71.07 13.74,-99.1 -15.62,-19.46 4.41,-71.25 -25.5,-22.44z"/>
  <path class="fil2p" d="M1776.53 -5719.83c-51.38,78.65 -18.88,67.34 45.97,57.72 0.37,-0.05 22.05,-15.94 -8.06,-26.35 -0.62,-0.21 -19.32,-59.82 -37.91,-31.37z"/>
  <path class="fil2p" d="M1847.97 -5972.72c-36.92,94.41 -153.87,12.97 -57.02,-34.61 56.38,-27.69 57.42,33.59 57.02,34.61z"/>
  <path class="fil2p" d="M1816.09 -5911.34c-81.74,46.31 -47.67,51.17 14.36,72.38 0.36,0.12 26.9,-4.06 4.93,-27.12 -0.46,-0.47 10.27,-62.02 -19.29,-45.26z"/>
  <path class="fil2p" d="M1680 -5584c-40.7,66.44 -11.73,53.53 11.76,121.54 5.08,0.44 36.23,-71.07 13.75,-99.1 -15.62,-19.46 4.4,-71.25 -25.51,-22.44z"/>
  <path class="fil2p" d="M1651.02 -5402.19c-20.77,75.1 3.51,54.69 44.87,113.57 5,-0.99 15.19,-78.32 -14.16,-99.04 -20.39,-14.39 -15.45,-69.7 -30.71,-14.53z"/>
  <path class="fil2p" d="M1704.34 -5437.83c74.75,-68.47 143.82,56.19 35.91,56.19 -62.81,0 -36.73,-55.45 -35.91,-56.19z"/>
  <path class="fil2p" d="M1819.56 -5407.3c-40.7,66.43 -11.73,53.53 11.76,121.54 5.08,0.43 36.23,-71.08 13.74,-99.11 -15.61,-19.46 4.41,-71.24 -25.5,-22.43z"/>
  <path class="fil2p" d="M1746.01 -5339.82c-51.38,78.65 -18.89,67.34 45.96,57.73 0.38,-0.06 22.05,-15.95 -8.06,-26.36 -0.62,-0.21 -19.32,-59.82 -37.9,-31.37z"/>
  <path class="fil2p" d="M1826.58 -5601.85c-36.91,94.41 -153.87,12.97 -57.01,-34.61 56.38,-27.69 57.42,33.59 57.01,34.61z"/>
  <path class="fil2p" d="M1785.56 -5531.33c-81.73,46.31 -47.67,51.17 14.36,72.38 0.36,0.12 26.91,-4.05 4.93,-27.12 -0.45,-0.47 10.28,-62.01 -19.29,-45.26z"/>
  <path class="fil2p" d="M1034.58 -6148.99c-40.71,66.43 -11.74,53.53 11.76,121.54 5.07,0.44 36.23,-71.08 13.74,-99.1 -15.62,-19.46 4.4,-71.25 -25.5,-22.44z"/>
  <path class="fil2p" d="M1005.59 -5967.18c-20.77,75.09 3.51,54.69 44.87,113.56 5,-0.98 15.19,-78.31 -14.16,-99.04 -20.39,-14.39 -15.45,-69.69 -30.71,-14.52z"/>
  <path class="fil2p" d="M1058.91 -6002.83c74.75,-68.47 143.82,56.2 35.91,56.2 -62.81,0 -36.73,-55.45 -35.91,-56.2z"/>
  <path class="fil2p" d="M1174.13 -5972.3c-40.7,66.44 -11.73,53.53 11.76,121.54 5.08,0.44 36.23,-71.07 13.75,-99.1 -15.62,-19.46 4.4,-71.25 -25.51,-22.44z"/>
  <path class="fil2p" d="M1100.58 -5904.81c-51.38,78.65 -18.88,67.33 45.96,57.72 0.38,-0.05 22.05,-15.94 -8.06,-26.35 -0.61,-0.22 -19.31,-59.82 -37.9,-31.37z"/>
  <path class="fil2p" d="M1181.16 -6166.84c-36.92,94.41 -153.88,12.96 -57.02,-34.61 56.38,-27.69 57.42,33.58 57.02,34.61z"/>
  <path class="fil2p" d="M1140.13 -6096.32c-81.73,46.31 -47.67,51.17 14.36,72.37 0.36,0.13 26.91,-4.05 4.93,-27.11 -0.45,-0.47 10.28,-62.02 -19.29,-45.26z"/>
  <path class="fil2p" d="M1284.65 -5995.02c28.18,-89.61 -0.04,-69.93 -59.87,-43.13 -0.35,0.15 -16.91,21.32 14.89,23.19 0.65,0.04 34.79,52.36 44.98,19.94z"/>
  <path class="fil2p" d="M1229.63 -6180.98c-62.59,46.4 -30.89,45.26 -34.52,117.12 4.55,2.3 60.17,-52.38 49.78,-86.78 -7.21,-23.89 30.72,-64.44 -15.26,-30.34z"/>
  <path class="fil2p" d="M1823.87 -5559.23c74.75,-68.46 143.83,56.2 35.92,56.2 -62.81,0 -36.73,-55.45 -35.92,-56.2z"/>
  <path class="fil2p" d="M1894.39 -6082.39c-81.73,46.31 -47.67,51.17 14.36,72.38 0.36,0.12 26.91,-4.05 4.93,-27.12 -0.45,-0.47 10.28,-62.01 -19.29,-45.26z"/>
  <path class="fil2p" d="M1881.53 -5931.22c-40.7,66.43 -11.73,53.53 11.76,121.54 5.08,0.43 36.23,-71.08 13.74,-99.1 -15.62,-19.46 4.41,-71.25 -25.5,-22.44z"/>
  <path class="fil2p" d="M1942.75 -4808.83c74.75,-68.47 143.83,56.2 35.92,56.2 -62.81,0 -36.73,-55.45 -35.92,-56.2z"/>
  <path class="fil2p" d="M2067.51 -4802.76c-40.7,66.44 -11.73,53.53 11.76,121.54 5.08,0.44 36.23,-71.07 13.74,-99.1 -15.62,-19.46 4.41,-71.25 -25.5,-22.44z"/>
  <path class="fil2p" d="M2002.18 -4723.47c-51.38,78.65 -18.88,67.34 45.97,57.73 0.37,-0.06 22.05,-15.95 -8.06,-26.36 -0.62,-0.21 -19.32,-59.82 -37.91,-31.37z"/>
  <path class="fil2p" d="M1912.8 -4626.53c74.75,-68.47 143.83,56.19 35.92,56.19 -62.81,0 -36.73,-55.45 -35.92,-56.19z"/>
  <path class="fil2p" d="M2037.56 -4620.46c-40.71,66.43 -11.73,53.53 11.76,121.54 5.08,0.43 36.23,-71.08 13.74,-99.11 -15.62,-19.46 4.41,-71.24 -25.5,-22.43z"/>
  <path class="fil2p" d="M1972.23 -4541.17c-51.38,78.64 -18.88,67.33 45.97,57.72 0.37,-0.05 22.04,-15.94 -8.06,-26.35 -0.62,-0.22 -19.32,-59.82 -37.91,-31.37z"/>
  <path class="fil2p" d="M2091.84 -4656.6c74.75,-68.46 143.83,56.2 35.92,56.2 -62.81,0 -36.73,-55.45 -35.92,-56.2z"/>
  <path class="fil2p" d="M2207.07 -4626.07c-40.71,66.44 -11.73,53.54 11.76,121.55 5.08,0.43 36.23,-71.08 13.74,-99.11 -15.62,-19.46 4.41,-71.25 -25.5,-22.44z"/>
  <path class="fil2p" d="M2124.42 -4571.88c-51.38,78.65 -18.88,67.34 45.96,57.72 0.38,-0.05 22.05,-15.94 -8.06,-26.35 -0.61,-0.21 -19.31,-59.82 -37.9,-31.37z"/>
  <path class="fil2p" d="M2214.09 -4820.61c-36.91,94.41 -153.87,12.96 -57.01,-34.61 56.37,-27.69 57.41,33.58 57.01,34.61z"/>
  <path class="fil2p" d="M2267.49 -4790.58c-66.65,40.36 -34.98,42.19 -45.31,113.39 4.31,2.72 64.8,-46.53 57.67,-81.75 -4.94,-24.46 36.61,-61.29 -12.36,-31.64z"/>
  <path class="fil2p" d="M2173.07 -4750.09c-81.74,46.31 -47.67,51.17 14.36,72.38 0.36,0.12 26.9,-4.05 4.93,-27.12 -0.45,-0.47 10.27,-62.02 -19.29,-45.26z"/>
  <path class="fil2p" d="M2234.04 -5152.08c74.75,-68.47 143.83,56.2 35.92,56.2 -62.81,0 -36.73,-55.46 -35.92,-56.2z"/>
  <path class="fil2p" d="M2370.97 -5196.61c-40.7,66.44 -11.73,53.54 11.76,121.55 5.08,0.43 36.23,-71.08 13.74,-99.11 -15.61,-19.46 4.41,-71.24 -25.5,-22.44z"/>
  <path class="fil2p" d="M2293.47 -5066.72c-51.38,78.65 -18.88,67.33 45.97,57.72 0.37,-0.05 22.05,-15.94 -8.06,-26.35 -0.62,-0.22 -19.32,-59.82 -37.91,-31.37z"/>
  <path class="fil2p" d="M2204.09 -4969.79c74.75,-68.47 143.83,56.2 35.92,56.2 -62.81,0 -36.73,-55.45 -35.92,-56.2z"/>
  <path class="fil2p" d="M2328.85 -4963.72c-40.71,66.43 -11.73,53.53 11.76,121.54 5.07,0.44 36.23,-71.07 13.74,-99.1 -15.62,-19.46 4.4,-71.25 -25.5,-22.44z"/>
  <path class="fil2p" d="M2263.52 -4884.43c-51.38,78.65 -18.88,67.34 45.96,57.73 0.38,-0.06 22.05,-15.95 -8.06,-26.36 -0.61,-0.21 -19.31,-59.82 -37.9,-31.37z"/>
  <path class="fil2p" d="M2383.13 -4999.85c74.75,-68.47 143.83,56.2 35.92,56.2 -62.82,0 -36.74,-55.45 -35.92,-56.2z"/>
  <path class="fil2p" d="M2498.36 -4969.32c-40.71,66.43 -11.73,53.53 11.76,121.54 5.08,0.44 36.23,-71.08 13.74,-99.1 -15.62,-19.46 4.4,-71.25 -25.5,-22.44z"/>
  <path class="fil2p" d="M2415.71 -4915.14c-51.38,78.65 -18.88,67.34 45.96,57.73 0.38,-0.06 22.05,-15.94 -8.06,-26.36 -0.62,-0.21 -19.32,-59.82 -37.9,-31.37z"/>
  <path class="fil2p" d="M2505.38 -5163.86c-36.91,94.41 -153.87,12.96 -57.02,-34.61 56.38,-27.69 57.42,33.58 57.02,34.61z"/>
  <path class="fil2p" d="M2558.78 -5133.83c-66.65,40.36 -34.98,42.18 -45.31,113.39 4.31,2.72 64.8,-46.53 57.67,-81.75 -4.95,-24.46 36.6,-61.29 -12.36,-31.64z"/>
  <path class="fil2p" d="M2464.36 -5093.35c-81.74,46.32 -47.67,51.17 14.36,72.38 0.35,0.13 26.9,-4.05 4.92,-27.11 -0.45,-0.48 10.28,-62.02 -19.28,-45.27z"/>
  <path class="fil2p" d="M2641.84 -4704.44c38.88,93.62 -101.87,116.04 -65.08,14.6 21.42,-59.05 64.66,-15.62 65.08,-14.6z"/>
  <path class="fil2p" d="M2593.59 -4589.23c-48.57,-60.92 -46.32,-29.28 -118.26,-30.39 -2.14,4.63 54.46,58.3 88.47,46.71 23.62,-8.05 65.48,28.44 29.79,-16.32z"/>
  <path class="fil2p" d="M2541.33 -4677.68c-56.41,-75.12 -56.86,-40.71 -69.94,23.53 -0.07,0.37 7.47,26.16 27.53,1.41 0.41,-0.51 62.82,2.23 42.41,-24.94z"/>
  <path class="fil2p" d="M2480.69 -4794.76c38.87,93.62 -101.88,116.05 -65.08,14.61 21.42,-59.05 64.65,-15.63 65.08,-14.61z"/>
  <path class="fil2p" d="M2432.44 -4679.55c-48.57,-60.91 -46.32,-29.28 -118.27,-30.38 -2.14,4.62 54.47,58.29 88.48,46.7 23.62,-8.04 65.48,28.44 29.79,-16.32z"/>
  <path class="fil2p" d="M2380.18 -4768c-56.42,-75.11 -56.87,-40.71 -69.94,23.53 -0.08,0.37 7.47,26.17 27.52,1.41 0.41,-0.51 62.82,2.24 42.42,-24.94z"/>
  <path class="fil2p" d="M2355.88 -4614.63c81.86,-59.78 136.73,71.75 29.48,59.83 -62.42,-6.94 -30.38,-59.17 -29.48,-59.83z"/>
  <path class="fil2p" d="M2370.75 -4494.48c-14.32,-76.59 -27.18,-47.59 -90.19,-82.32 -4.06,3.08 20.75,77.03 56.22,82.76 24.63,3.97 44.48,55.83 33.97,-0.44z"/>
  <path class="fil2p" d="M2335.22 -4639.87c-56.42,-75.12 -56.86,-40.72 -69.94,23.52 -0.08,0.37 7.47,26.17 27.53,1.41 0.41,-0.51 62.82,2.24 42.41,-24.93z"/>
  <path class="fil2p" d="M2560.39 -4445.35c-76.16,-66.89 40.29,-149.07 51.98,-41.8 6.81,62.45 -51.15,42.53 -51.98,41.8z"/>
  <path class="fil2p" d="M2513.95 -4405.39c-15.21,-76.41 -27.72,-47.27 -91.14,-81.26 -4.03,3.13 21.65,76.79 57.19,82.1 24.67,3.68 45.13,55.3 33.95,-0.84z"/>
  <path class="fil2p" d="M2508.09 -4507.96c-15.67,-92.62 -31.85,-62.26 -72.94,-11.18 -0.23,0.3 -5.36,26.68 23.81,13.88 0.6,-0.26 54.8,30.81 49.13,-2.7z"/>
  <path class="fil2p" d="M2551.45 -4990.21c74.76,-68.47 143.83,56.2 35.92,56.2 -62.81,0 -36.73,-55.45 -35.92,-56.2z"/>
  <path class="fil2p" d="M2676.21 -4984.14c-40.7,66.44 -11.73,53.53 11.76,121.54 5.08,0.44 36.23,-71.07 13.74,-99.1 -15.62,-19.46 4.41,-71.25 -25.5,-22.44z"/>
  <path class="fil2p" d="M2591.66 -4908.74c-51.37,78.64 -18.88,67.33 45.97,57.72 0.38,-0.05 22.05,-15.94 -8.06,-26.36 -0.62,-0.21 -19.32,-59.81 -37.91,-31.36z"/>
  <path class="fil2p" d="M2521.5 -4807.91c74.75,-68.47 143.83,56.19 35.92,56.19 -62.81,0 -36.73,-55.45 -35.92,-56.19z"/>
  <path class="fil2p" d="M2647.23 -4802.33c-20.78,75.09 3.51,54.69 44.87,113.57 5,-0.99 15.19,-78.32 -14.17,-99.04 -20.38,-14.39 -15.44,-69.7 -30.7,-14.53z"/>
  <path class="fil2p" d="M2620.58 -5088.23c-51.37,78.65 -18.88,67.34 45.97,57.73 0.37,-0.06 22.05,-15.95 -8.06,-26.36 -0.62,-0.21 -19.32,-59.82 -37.91,-31.37z"/>
  <path class="fil2p" d="M2700.54 -4837.97c74.75,-68.47 143.83,56.19 35.92,56.19 -62.81,0 -36.73,-55.45 -35.92,-56.19z"/>
  <path class="fil2p" d="M2815.77 -4807.45c-40.71,66.44 -11.73,53.54 11.76,121.55 5.08,0.43 36.23,-71.08 13.74,-99.11 -15.62,-19.46 4.41,-71.25 -25.5,-22.44z"/>
  <path class="fil2p" d="M2742.21 -4739.96c-51.37,78.65 -18.88,67.34 45.97,57.73 0.37,-0.06 22.05,-15.95 -8.06,-26.36 -0.62,-0.21 -19.32,-59.82 -37.91,-31.37z"/>
  <path class="fil2p" d="M2822.79 -5001.99c-36.91,94.41 -153.87,12.96 -57.01,-34.61 56.38,-27.69 57.41,33.58 57.01,34.61z"/>
  <path class="fil2p" d="M2781.77 -4931.47c-81.74,46.31 -47.67,51.17 14.36,72.38 0.36,0.12 26.9,-4.05 4.93,-27.12 -0.45,-0.47 10.28,-62.01 -19.29,-45.26z"/>
  <path class="fil2p" d="M2645.69 -4604.13c-40.71,66.44 -11.74,53.54 11.76,121.55 5.07,0.43 36.23,-71.08 13.74,-99.11 -15.62,-19.46 4.4,-71.25 -25.5,-22.44z"/>
  <path class="fil2p" d="M2616.7 -4422.31c-20.77,75.09 3.51,54.68 44.87,113.56 5,-0.99 15.19,-78.32 -14.16,-99.04 -20.39,-14.39 -15.45,-69.7 -30.71,-14.52z"/>
  <path class="fil2p" d="M2670.02 -4457.96c74.75,-68.47 143.82,56.2 35.91,56.2 -62.81,0 -36.73,-55.46 -35.91,-56.2z"/>
  <path class="fil2p" d="M2785.24 -4427.43c-40.7,66.43 -11.73,53.53 11.76,121.54 5.08,0.43 36.23,-71.08 13.75,-99.1 -15.62,-19.46 4.4,-71.25 -25.51,-22.44z"/>
  <path class="fil2p" d="M2711.69 -4359.95c-51.38,78.65 -18.88,67.34 45.96,57.73 0.38,-0.06 22.05,-15.95 -8.06,-26.36 -0.61,-0.21 -19.31,-59.82 -37.9,-31.37z"/>
  <path class="fil2p" d="M2792.27 -4621.97c-36.92,94.4 -153.88,12.96 -57.02,-34.61 56.38,-27.69 57.42,33.58 57.02,34.61z"/>
  <path class="fil2p" d="M2751.24 -4551.46c-81.73,46.31 -47.67,51.17 14.36,72.38 0.36,0.12 26.91,-4.05 4.93,-27.12 -0.45,-0.47 10.28,-62.01 -19.29,-45.26z"/>
  <path class="fil2p" d="M2000.26 -5169.12c-40.71,66.44 -11.73,53.53 11.76,121.54 5.07,0.44 36.23,-71.07 13.74,-99.1 -15.62,-19.46 4.4,-71.25 -25.5,-22.44z"/>
  <path class="fil2p" d="M1971.27 -4987.31c-20.77,75.09 3.51,54.69 44.87,113.57 5,-0.99 15.19,-78.32 -14.16,-99.05 -20.39,-14.39 -15.45,-69.69 -30.71,-14.52z"/>
  <path class="fil2p" d="M2024.59 -5022.96c74.75,-68.46 143.82,56.2 35.92,56.2 -62.82,0 -36.74,-55.45 -35.92,-56.2z"/>
  <path class="fil2p" d="M2139.82 -4992.43c-40.71,66.44 -11.74,53.54 11.76,121.54 5.07,0.44 36.23,-71.07 13.74,-99.1 -15.62,-19.46 4.4,-71.25 -25.5,-22.44z"/>
  <path class="fil2p" d="M2066.26 -4924.94c-51.38,78.65 -18.88,67.34 45.96,57.72 0.38,-0.05 22.05,-15.94 -8.06,-26.35 -0.61,-0.21 -19.31,-59.82 -37.9,-31.37z"/>
  <path class="fil2p" d="M2146.84 -5186.97c-36.91,94.41 -153.87,12.96 -57.02,-34.61 56.38,-27.69 57.42,33.58 57.02,34.61z"/>
  <path class="fil2p" d="M2105.81 -5116.45c-81.73,46.31 -47.67,51.17 14.36,72.38 0.36,0.12 26.91,-4.06 4.93,-27.12 -0.45,-0.47 10.28,-62.02 -19.29,-45.26z"/>
  <path class="fil2p" d="M2250.33 -5015.14c28.18,-89.62 -0.04,-69.94 -59.87,-43.14 -0.35,0.16 -16.91,21.32 14.89,23.19 0.65,0.04 34.79,52.36 44.98,19.95z"/>
  <path class="fil2p" d="M2195.31 -5201.11c-62.59,46.4 -30.89,45.26 -34.52,117.12 4.55,2.31 60.17,-52.38 49.79,-86.78 -7.22,-23.89 30.71,-64.44 -15.27,-30.34z"/>
  <path class="fil2p" d="M1035.32 -4956.88c74.75,-68.47 143.83,56.2 35.92,56.2 -62.81,0 -36.73,-55.45 -35.92,-56.2z"/>
  <path class="fil2p" d="M1160.08 -4950.81c-40.71,66.44 -11.73,53.53 11.76,121.54 5.08,0.44 36.23,-71.07 13.74,-99.1 -15.62,-19.46 4.4,-71.25 -25.5,-22.44z"/>
  <path class="fil2p" d="M1094.75 -4871.52c-51.38,78.65 -18.88,67.34 45.97,57.73 0.37,-0.06 22.04,-15.95 -8.07,-26.36 -0.61,-0.21 -19.31,-59.82 -37.9,-31.37z"/>
  <path class="fil2p" d="M1005.37 -4774.58c74.75,-68.47 143.83,56.19 35.92,56.19 -62.81,0 -36.74,-55.45 -35.92,-56.19z"/>
  <path class="fil2p" d="M1130.13 -4768.51c-40.71,66.43 -11.74,53.53 11.76,121.54 5.07,0.43 36.23,-71.08 13.74,-99.1 -15.62,-19.47 4.4,-71.25 -25.5,-22.44z"/>
  <path class="fil2p" d="M1064.8 -4689.22c-51.38,78.64 -18.88,67.33 45.96,57.72 0.38,-0.05 22.05,-15.94 -8.06,-26.35 -0.61,-0.22 -19.31,-59.82 -37.9,-31.37z"/>
  <path class="fil2p" d="M1184.41 -4804.64c74.75,-68.47 143.82,56.19 35.92,56.19 -62.82,0 -36.74,-55.45 -35.92,-56.19z"/>
  <path class="fil2p" d="M1299.64 -4774.12c-40.71,66.44 -11.73,53.54 11.76,121.55 5.07,0.43 36.23,-71.08 13.74,-99.11 -15.62,-19.46 4.4,-71.24 -25.5,-22.44z"/>
  <path class="fil2p" d="M1216.99 -4719.93c-51.38,78.65 -18.89,67.34 45.96,57.72 0.38,-0.05 22.05,-15.94 -8.06,-26.35 -0.62,-0.21 -19.32,-59.82 -37.9,-31.37z"/>
  <path class="fil2p" d="M1306.66 -4968.66c-36.91,94.41 -153.87,12.96 -57.02,-34.61 56.38,-27.69 57.42,33.58 57.02,34.61z"/>
  <path class="fil2p" d="M1360.06 -4938.63c-66.65,40.36 -34.98,42.19 -45.31,113.39 4.31,2.72 64.8,-46.53 57.67,-81.75 -4.95,-24.46 36.6,-61.29 -12.36,-31.64z"/>
  <path class="fil2p" d="M1265.64 -4898.14c-81.74,46.31 -47.68,51.17 14.36,72.38 0.35,0.12 26.9,-4.05 4.92,-27.12 -0.45,-0.47 10.28,-62.01 -19.28,-45.26z"/>
  <path class="fil2p" d="M1326.61 -5300.13c74.75,-68.47 143.83,56.2 35.92,56.2 -62.81,0 -36.74,-55.46 -35.92,-56.2z"/>
  <path class="fil2p" d="M1451.37 -5294.06c-40.71,66.43 -11.74,53.53 11.76,121.54 5.07,0.43 36.23,-71.08 13.74,-99.1 -15.62,-19.46 4.4,-71.25 -25.5,-22.44z"/>
  <path class="fil2p" d="M1386.04 -5214.77c-51.38,78.65 -18.88,67.34 45.96,57.72 0.38,-0.05 22.05,-15.94 -8.06,-26.35 -0.61,-0.21 -19.31,-59.82 -37.9,-31.37z"/>
  <path class="fil2p" d="M1296.66 -5117.84c74.75,-68.47 143.82,56.2 35.92,56.2 -62.82,0 -36.74,-55.45 -35.92,-56.2z"/>
  <path class="fil2p" d="M1421.41 -5111.77c-40.7,66.43 -11.73,53.53 11.76,121.54 5.08,0.44 36.23,-71.07 13.75,-99.1 -15.62,-19.46 4.4,-71.25 -25.51,-22.44z"/>
  <path class="fil2p" d="M1356.09 -5032.48c-51.38,78.65 -18.89,67.34 45.96,57.73 0.38,-0.06 22.05,-15.95 -8.06,-26.36 -0.62,-0.21 -19.32,-59.82 -37.9,-31.37z"/>
  <path class="fil2p" d="M1475.7 -5147.9c74.75,-68.47 143.82,56.2 35.91,56.2 -62.81,0 -36.73,-55.45 -35.91,-56.2z"/>
  <path class="fil2p" d="M1590.92 -5117.37c-40.7,66.43 -11.73,53.53 11.77,121.54 5.07,0.44 36.22,-71.07 13.74,-99.1 -15.62,-19.46 4.4,-71.25 -25.51,-22.44z"/>
  <path class="fil2p" d="M1508.28 -5063.19c-51.38,78.65 -18.89,67.34 45.96,57.73 0.38,-0.05 22.05,-15.94 -8.06,-26.36 -0.62,-0.21 -19.32,-59.82 -37.9,-31.37z"/>
  <path class="fil2p" d="M1597.95 -5311.91c-36.92,94.41 -153.88,12.96 -57.02,-34.61 56.38,-27.69 57.42,33.58 57.02,34.61z"/>
  <path class="fil2p" d="M1651.35 -5281.88c-66.65,40.36 -34.99,42.18 -45.31,113.39 4.31,2.72 64.8,-46.53 57.67,-81.75 -4.95,-24.46 36.6,-61.29 -12.36,-31.64z"/>
  <path class="fil2p" d="M1556.92 -5241.4c-81.73,46.32 -47.67,51.17 14.36,72.38 0.36,0.13 26.91,-4.05 4.93,-27.11 -0.45,-0.48 10.28,-62.02 -19.29,-45.27z"/>
  <path class="fil2p" d="M1734.41 -4852.49c38.87,93.62 -101.87,116.04 -65.08,14.6 21.42,-59.05 64.66,-15.62 65.08,-14.6z"/>
  <path class="fil2p" d="M1686.16 -4737.28c-48.57,-60.92 -46.32,-29.28 -118.26,-30.39 -2.14,4.63 54.46,58.3 88.47,46.71 23.62,-8.05 65.48,28.44 29.79,-16.32z"/>
  <path class="fil2p" d="M1633.9 -4825.73c-56.42,-75.12 -56.86,-40.71 -69.94,23.53 -0.08,0.37 7.47,26.16 27.53,1.41 0.41,-0.51 62.82,2.23 42.41,-24.94z"/>
  <path class="fil2p" d="M1573.25 -4942.81c38.88,93.62 -101.87,116.05 -65.08,14.61 21.42,-59.05 64.66,-15.63 65.08,-14.61z"/>
  <path class="fil2p" d="M1525.01 -4827.6c-48.58,-60.91 -46.33,-29.28 -118.27,-30.38 -2.14,4.62 54.46,58.29 88.48,46.71 23.62,-8.05 65.47,28.43 29.79,-16.33z"/>
  <path class="fil2p" d="M1472.74 -4916.04c-56.41,-75.12 -56.86,-40.72 -69.93,23.52 -0.08,0.37 7.47,26.17 27.52,1.41 0.41,-0.51 62.82,2.24 42.41,-24.93z"/>
  <path class="fil2p" d="M1448.44 -4762.67c81.86,-59.79 136.74,71.74 29.49,59.82 -62.43,-6.94 -30.38,-59.17 -29.49,-59.82z"/>
  <path class="fil2p" d="M1463.31 -4642.53c-14.31,-76.59 -27.17,-47.59 -90.18,-82.32 -4.06,3.08 20.74,77.03 56.22,82.76 24.63,3.97 44.48,55.83 33.96,-0.44z"/>
  <path class="fil2p" d="M1427.79 -4787.92c-56.42,-75.12 -56.87,-40.72 -69.94,23.52 -0.08,0.37 7.47,26.17 27.52,1.41 0.41,-0.51 62.82,2.24 42.42,-24.93z"/>
  <path class="fil2p" d="M1652.96 -4593.4c-76.16,-66.89 40.28,-149.07 51.98,-41.8 6.8,62.45 -51.15,42.53 -51.98,41.8z"/>
  <path class="fil2p" d="M1606.52 -4553.44c-15.21,-76.41 -27.73,-47.27 -91.14,-81.26 -4.03,3.13 21.65,76.79 57.18,82.1 24.68,3.68 45.14,55.3 33.96,-0.84z"/>
  <path class="fil2p" d="M1600.66 -4656.01c-15.67,-92.62 -31.85,-62.26 -72.94,-11.18 -0.24,0.3 -5.36,26.68 23.81,13.88 0.6,-0.26 54.8,30.81 49.13,-2.7z"/>
  <path class="fil2p" d="M1644.02 -5138.26c74.75,-68.47 143.83,56.2 35.92,56.2 -62.81,0 -36.73,-55.45 -35.92,-56.2z"/>
  <path class="fil2p" d="M1768.78 -5132.19c-40.71,66.44 -11.73,53.53 11.76,121.54 5.08,0.44 36.23,-71.07 13.74,-99.1 -15.62,-19.46 4.41,-71.25 -25.5,-22.44z"/>
  <path class="fil2p" d="M1684.23 -5056.79c-51.38,78.64 -18.88,67.33 45.97,57.72 0.37,-0.05 22.05,-15.94 -8.06,-26.35 -0.62,-0.22 -19.32,-59.82 -37.91,-31.37z"/>
  <path class="fil2p" d="M1614.07 -4955.96c74.75,-68.47 143.83,56.19 35.92,56.19 -62.81,0 -36.73,-55.45 -35.92,-56.19z"/>
  <path class="fil2p" d="M1739.79 -4950.38c-20.77,75.09 3.51,54.69 44.88,113.57 5,-0.99 15.18,-78.32 -14.17,-99.04 -20.39,-14.39 -15.44,-69.7 -30.71,-14.53z"/>
  <path class="fil2p" d="M1713.15 -5236.28c-51.38,78.65 -18.88,67.34 45.97,57.73 0.37,-0.06 22.05,-15.95 -8.06,-26.36 -0.62,-0.21 -19.32,-59.82 -37.91,-31.37z"/>
  <path class="fil2p" d="M1793.11 -4986.02c74.75,-68.47 143.83,56.19 35.92,56.19 -62.82,0 -36.74,-55.45 -35.92,-56.19z"/>
  <path class="fil2p" d="M1908.34 -4955.49c-40.71,66.43 -11.73,53.53 11.76,121.54 5.07,0.43 36.23,-71.08 13.74,-99.11 -15.62,-19.46 4.4,-71.24 -25.5,-22.43z"/>
  <path class="fil2p" d="M1834.78 -4888.01c-51.38,78.65 -18.88,67.34 45.97,57.73 0.37,-0.06 22.04,-15.95 -8.06,-26.36 -0.62,-0.21 -19.32,-59.82 -37.91,-31.37z"/>
  <path class="fil2p" d="M1906.22 -5140.89c-36.92,94.41 -153.88,12.96 -57.02,-34.61 56.38,-27.69 57.42,33.58 57.02,34.61z"/>
  <path class="fil2p" d="M1874.34 -5079.52c-81.74,46.31 -47.67,51.17 14.36,72.38 0.35,0.12 26.9,-4.05 4.92,-27.12 -0.45,-0.47 10.28,-62.01 -19.28,-45.26z"/>
  <path class="fil2p" d="M1738.25 -4752.17c-40.7,66.43 -11.73,53.53 11.76,121.54 5.08,0.43 36.23,-71.08 13.74,-99.11 -15.61,-19.46 4.41,-71.24 -25.5,-22.43z"/>
  <path class="fil2p" d="M1709.27 -4570.36c-20.77,75.09 3.51,54.69 44.87,113.56 5,-0.98 15.19,-78.32 -14.16,-99.04 -20.39,-14.39 -15.45,-69.7 -30.71,-14.52z"/>
  <path class="fil2p" d="M1762.58 -4606.01c74.75,-68.47 143.83,56.2 35.92,56.2 -62.81,0 -36.73,-55.46 -35.92,-56.2z"/>
  <path class="fil2p" d="M1877.81 -4575.48c-40.7,66.43 -11.73,53.53 11.76,121.54 5.08,0.43 36.23,-71.08 13.74,-99.1 -15.61,-19.46 4.41,-71.25 -25.5,-22.44z"/>
  <path class="fil2p" d="M1804.26 -4508c-51.38,78.65 -18.89,67.34 45.96,57.73 0.38,-0.06 22.05,-15.95 -8.06,-26.36 -0.62,-0.21 -19.32,-59.82 -37.9,-31.37z"/>
  <path class="fil2p" d="M1884.83 -4770.02c-36.91,94.41 -153.87,12.96 -57.01,-34.61 56.38,-27.69 57.42,33.58 57.01,34.61z"/>
  <path class="fil2p" d="M1843.81 -4699.51c-81.73,46.31 -47.67,51.17 14.36,72.38 0.36,0.12 26.91,-4.05 4.93,-27.12 -0.45,-0.47 10.28,-62.01 -19.29,-45.26z"/>
  <path class="fil2p" d="M1092.82 -5317.17c-40.7,66.44 -11.73,53.53 11.76,121.54 5.08,0.44 36.23,-71.07 13.75,-99.1 -15.62,-19.46 4.4,-71.25 -25.51,-22.44z"/>
  <path class="fil2p" d="M1063.84 -5135.36c-20.77,75.09 3.51,54.69 44.87,113.57 5,-0.99 15.19,-78.32 -14.16,-99.04 -20.39,-14.39 -15.45,-69.7 -30.71,-14.53z"/>
  <path class="fil2p" d="M1117.16 -5171c74.75,-68.47 143.82,56.19 35.91,56.19 -62.81,0 -36.73,-55.45 -35.91,-56.19z"/>
  <path class="fil2p" d="M1232.38 -5140.48c-40.7,66.44 -11.73,53.54 11.76,121.55 5.08,0.43 36.23,-71.08 13.74,-99.11 -15.61,-19.46 4.41,-71.25 -25.5,-22.44z"/>
  <path class="fil2p" d="M1158.83 -5072.99c-51.38,78.65 -18.89,67.34 45.96,57.73 0.38,-0.06 22.05,-15.95 -8.06,-26.36 -0.62,-0.21 -19.32,-59.82 -37.9,-31.37z"/>
  <path class="fil2p" d="M1239.4 -5335.02c-36.91,94.41 -153.87,12.96 -57.01,-34.61 56.38,-27.69 57.42,33.58 57.01,34.61z"/>
  <path class="fil2p" d="M1198.38 -5264.5c-81.73,46.31 -47.67,51.17 14.36,72.38 0.36,0.12 26.91,-4.05 4.93,-27.12 -0.45,-0.47 10.28,-62.01 -19.29,-45.26z"/>
  <path class="fil2p" d="M1342.9 -5163.19c28.18,-89.62 -0.04,-69.94 -59.87,-43.14 -0.35,0.16 -16.91,21.32 14.89,23.19 0.65,0.04 34.79,52.36 44.98,19.95z"/>
  <path class="fil2p" d="M1287.88 -5349.16c-62.59,46.4 -30.89,45.27 -34.52,117.13 4.54,2.3 60.17,-52.39 49.78,-86.79 -7.21,-23.89 30.72,-64.44 -15.26,-30.34z"/>
  <path class="fil2p" d="M1882.12 -4727.4c74.75,-68.47 143.83,56.19 35.92,56.19 -62.82,0 -36.74,-55.45 -35.92,-56.19z"/>
  <path class="fil2p" d="M1952.64 -5250.57c-81.74,46.31 -47.67,51.17 14.36,72.38 0.36,0.12 26.9,-4.05 4.93,-27.12 -0.45,-0.47 10.27,-62.01 -19.29,-45.26z"/>
  <path class="fil2p" d="M1939.78 -5099.4c-40.7,66.43 -11.73,53.53 11.76,121.54 5.08,0.43 36.23,-71.08 13.74,-99.1 -15.62,-19.46 4.41,-71.25 -25.5,-22.44z"/>
  <path class="fil2p" d="M1792.49 -5249.5c74.75,-68.47 143.82,56.19 35.91,56.19 -62.81,0 -36.73,-55.45 -35.91,-56.19z"/>
  <path class="fil2p" d="M1792.49 -5249.5c74.75,-68.47 143.82,56.19 35.91,56.19 -62.81,0 -36.73,-55.45 -35.91,-56.19z"/>
  <path class="fil2p" d="M1989.82 -5297.86c74.76,-68.47 143.83,56.2 35.92,56.2 -62.81,0 -36.73,-55.45 -35.92,-56.2z"/>
  <path class="fil2p" d="M2190.7 -5351.53c-40.7,66.43 -11.73,53.53 11.77,121.54 5.07,0.43 36.22,-71.08 13.74,-99.1 -15.62,-19.46 4.4,-71.25 -25.51,-22.44z"/>
  <path class="fil2p" d="M2254 -5272.51c81.86,-59.79 136.74,71.75 29.49,59.82 -62.43,-6.94 -30.38,-59.17 -29.49,-59.82z"/>
  <path class="fil2p" d="M2117.7 -5305.83c-51.38,78.65 -18.88,67.34 45.97,57.73 0.37,-0.06 22.05,-15.95 -8.06,-26.36 -0.62,-0.21 -19.32,-59.82 -37.91,-31.37z"/>
  <path class="fil2p" d="M1390.16 -5391.37c81.85,-59.79 136.73,71.74 29.48,59.82 -62.42,-6.94 -30.38,-59.17 -29.48,-59.82z"/>
  <path class="fil2p" d="M1386.83 -5423.38c-56.42,-75.11 -56.87,-40.71 -69.94,23.53 -0.08,0.37 7.47,26.17 27.52,1.41 0.41,-0.51 62.82,2.24 42.42,-24.94z"/>
  <path class="fil2p" d="M1307.52 -5431.21c-36.91,94.41 -153.87,12.96 -57.02,-34.61 56.38,-27.69 57.42,33.58 57.02,34.61z"/>
  <path class="fil2p" d="M1144.08 -5450.9c-51.38,78.65 -18.88,67.34 45.96,57.73 0.38,-0.06 22.05,-15.95 -8.06,-26.36 -0.61,-0.21 -19.31,-59.82 -37.9,-31.37z"/>
  <path class="fil2p" d="M1056.34 -5435.18c-40.71,66.43 -11.73,53.53 11.76,121.54 5.08,0.43 36.23,-71.08 13.74,-99.1 -15.62,-19.46 4.41,-71.25 -25.5,-22.44z"/>
 </g>
 <path class="fil3" d="M1534.42 -5273.87c0,-202 163.74,-365.75 365.74,-365.75 202,0 365.75,163.75 365.75,365.75 0,202 -163.75,365.75 -365.75,365.75 -202,0 -365.74,-163.75 -365.74,-365.75zm365.74 -697.11c-385,0 -697.11,312.11 -697.11,697.11 0,385.01 312.11,697.11 697.11,697.11 385.01,0 697.11,-312.1 697.11,-697.11 0,-385 -312.1,-697.11 -697.11,-697.11z"/>
 <path class="fil4" d="M4796.54 -6350c0,-1544.49 -1252.05,-2796.54 -2796.54,-2796.54 -673.67,0 -1291.7,238.22 -1774.43,635.02l3945.51 3924.07c391,-481 625.46,-1094.36 625.46,-1762.55zm-4967.62 -1762.55c-390.98,481.01 -625.46,1094.36 -625.46,1762.55 0,1544.49 1252.05,2796.54 2796.54,2796.54 673.67,0 1291.67,-238.25 1774.43,-635.03l-3945.51 -3924.06zm5671.08 1762.55c0,-1933 -1567,-3500 -3500,-3500 -1933,0 -3500,1567 -3500,3500 0,1933 1567,3500 3500,3500 1933,0 3500,-1567 3500,-3500z"/>
</symbol>
 <g id="Ebene_x0020_1">
  <metadata id="CorelCorpID_0Corel-Layer"/>
  <use id="ISO_x0020_7010_x0020_P033_0" transform="scale(0.571429 0.571429)" x="-0" y="-0" width="7000" height="7000" xlink:href="#ISO_x0020_7010_x0020_P033"/>
 </g>
</svg>
