<?xml version="1.0" encoding="UTF-8"?>
<!DOCTYPE svg PUBLIC "-//W3C//DTD SVG 1.1//EN" "http://www.w3.org/Graphics/SVG/1.1/DTD/svg11.dtd">
<!-- Creator: Corel DESIGNER -->
<svg xmlns="http://www.w3.org/2000/svg" xml:space="preserve" width="40mm" height="40mm" version="1.1" style="shape-rendering:geometricPrecision; text-rendering:geometricPrecision; image-rendering:optimizeQuality; fill-rule:evenodd; clip-rule:evenodd"
viewBox="0 0 4000 4000"
 xmlns:xlink="http://www.w3.org/1999/xlink"
 xmlns:xodm="http://www.corel.com/coreldraw/odm/2003">
 <defs>
  <style type="text/css">
   <![CDATA[
    .fil1p {fill:#0E1313}
    .fil2p {fill:#A1262D}
    .fil0p {fill:white}
   ]]>
  </style>
 </defs>
<symbol id="ISO_x0020_7010_x0020_P038" viewBox="-1500 2616.66 7000 7000">
 <circle class="fil0p" cx="2000" cy="6116.66" r="3150"/>
 <path class="fil1p" d="M3686.11 6975.78c-399.82,817.99 -1311.15,1220.13 -2161.41,1007.66l56.24 -229.35 -279.15 142.45 -18.06 9.21 -261.09 133.22 136.04 191.37 45.54 64.06 181.58 255.43 56.04 -228.53c1006.26,250.89 2084.55,-225.46 2557.25,-1193.82l212.16 102.83 -80.88 -302.78 -19.42 -72.71 -61.44 -230.07 -266.89 115.09 -20.88 9.01 -287.78 124.11 212.15 102.82z"/>
 <path class="fil1p" d="M791.23 5850.79c44.27,-115.08 -12.16,-244.6 -126.05,-289.29 -113.9,-44.69 -242.12,12.37 -286.39,127.44 -44.27,115.08 12.17,244.6 126.06,289.29 113.89,44.69 242.11,-12.37 286.38,-127.44zm-309.3 182.52c-96.14,-37.72 -212.23,11.19 -252.7,116.37l-140.99 366.47 -55.54 144.36 -67.09 174.39 -21.6 73.82c-24.5,63.67 7.01,135.99 70.03,160.71l596.45 234.05 -203.69 529.45c-58.53,152.12 170.61,242.03 229.13,89.91l248.23 -645.21c24.5,-63.67 -7.01,-135.98 -70.03,-160.71l-460.82 -180.83 165.01 -432.19 102.87 249.1c2.19,5.28 12.93,33.4 28.82,44.05l455.11 305.08c116.28,77.93 233.08,-101.12 116.58,-178.68l-413.49 -273.79 -213.37 -511.15c-20.9,-50.07 -59.15,-84.1 -112.91,-105.2z"/>
 <path class="fil1p" d="M2507.26 5448.19c-73.49,72.56 -75.9,198.51 3.8,278.17l277.72 277.58 109.41 109.35 132.15 132.09 58.71 49.7c48.25,48.23 127.13,48.77 175.3,1.21l455.96 -450.14 401.23 401.02c115.28,115.22 290.44,-57.71 175.16,-172.93l-488.95 -488.71c-48.26,-48.23 -127.13,-48.78 -175.31,-1.21l-352.28 347.78 -328.03 -326.19 269.4 7.06c5.73,0.14 35.78,1.73 51.96,-8.47l463.53 -292.14c118.4,-74.65 2.17,-254.06 -116,-179.05l-418.03 266.79 -553.77 -12.42c-54.24,-1.22 -100.86,19.94 -141.96,60.51zm-41.3 -356.76c-87.21,-87.17 -228.48,-88.14 -315.55,-2.19 -87.06,85.95 -86.95,226.3 0.26,313.46 87.21,87.16 228.48,88.14 315.55,2.19 87.06,-85.96 86.95,-226.3 -0.26,-313.46z"/>
 <path class="fil1p" d="M-37.28 4893.97c-76.25,33.24 -126.93,-83.08 -50.69,-116.28l2502.01 -1088.31c76.28,-33.22 126.91,83.08 50.69,116.28l-896.62 390 50.19 49.72c64.1,63.5 102.15,140.45 113.53,229.97l81.74 643.41c5.44,49.74 34.81,107.02 68.93,141.13 373.72,373.52 748.21,747.33 1122.3,1121.24 88.56,88.52 233.15,89.52 321.56,2.23l414.35 -409.06 107.26 107.22 -414.34 409.06c-147.53,145.65 -388.16,143.98 -535.94,-3.72 -373.77,-373.58 -747.28,-747.39 -1120.9,-1120.79 -65.41,-65.39 -100.1,-137.16 -112.41,-228.63l-81.73 -643.41c-7.24,-57.05 -28.87,-101.19 -69.75,-141.68l-93.05 -92.2 -23.83 10.36 -175.53 462.21c-32.03,84.36 -86.9,150.36 -164.11,197.09l-554.88 335.81c-33.3,17.27 -84.04,76.16 -101.02,120.27 -189.71,493.15 -379.39,987.11 -569.31,1480.76 -44.96,116.86 12.8,249.41 128.46,294.79l542.01 212.69 -54.46 141.54 -542.01 -212.68c-192.99,-75.72 -289.11,-296.33 -214.1,-491.32 189.76,-493.22 379.83,-986.29 569.48,-1479.3 32.29,-83.89 85.71,-149.56 163.33,-195.52l554.87 -335.8c49.22,-29.77 80.79,-67.44 101.2,-121.25l123.66 -325.59 -1240.89 539.76z"/>
 <path class="fil2p" d="M4796.54 6116.66c0,-1544.49 -1252.05,-2796.54 -2796.54,-2796.54 -673.67,0 -1291.7,238.22 -1774.43,635.02l3945.51 3924.07c391,-481 625.46,-1094.36 625.46,-1762.55zm-4967.62 -1762.55c-390.98,481.01 -625.46,1094.36 -625.46,1762.55 0,1544.49 1252.05,2796.54 2796.54,2796.54 673.67,0 1291.67,-238.25 1774.43,-635.03l-3945.51 -3924.06zm5671.08 1762.55c0,-1933 -1567,-3500 -3500,-3500 -1933,0 -3500,1567 -3500,3500 0,1933 1567,3500 3500,3500 1933,0 3500,-1567 3500,-3500z"/>
</symbol>
 <g id="Ebene_x0020_1">
  <metadata id="CorelCorpID_0Corel-Layer"/>
  <use id="ISO_x0020_7010_x0020_P038_0" transform="scale(0.571429 0.571429)" x="-0" y="-0" width="7000" height="7000" xlink:href="#ISO_x0020_7010_x0020_P038"/>
 </g>
</svg>
