<?xml version="1.0" encoding="UTF-8"?>
<!DOCTYPE svg PUBLIC "-//W3C//DTD SVG 1.1//EN" "http://www.w3.org/Graphics/SVG/1.1/DTD/svg11.dtd">
<!-- Creator: Corel DESIGNER -->
<svg xmlns="http://www.w3.org/2000/svg" xml:space="preserve" width="40mm" height="40mm" version="1.1" style="shape-rendering:geometricPrecision; text-rendering:geometricPrecision; image-rendering:optimizeQuality; fill-rule:evenodd; clip-rule:evenodd"
viewBox="0 0 2000 2000"
 xmlns:xlink="http://www.w3.org/1999/xlink"
 xmlns:xodm="http://www.corel.com/coreldraw/odm/2003">
 <defs>
  <style type="text/css">
   <![CDATA[
    .fil1p {fill:#0E1313}
    .fil2p {fill:#A1262D}
    .fil0p {fill:white}
   ]]>
  </style>
 </defs>
<symbol id="ISO_x0020_7010_x0020_P039" viewBox="-3750 1308.33 3500 3500">
 <circle class="fil0p" cx="-2000" cy="3058.33" r="1575"/>
 <path id="heiße_x0020_Oberfläsche" class="fil1p" d="M-2265.1 1865.45l39.88 31.24c-125.83,201.56 168.52,360.19 -2.25,593.69l-43.43 -33.5c148.6,-206.28 -142.61,-370.32 5.8,-591.43zm361.02 0l39.88 31.24c-125.83,201.56 168.52,360.19 -2.25,593.69l-43.43 -33.5c148.6,-206.28 -142.61,-370.32 5.8,-591.43zm-180.51 0l39.88 31.24c-125.83,201.56 168.53,360.19 -2.25,593.69l-43.43 -33.5c148.59,-206.28 -142.61,-370.32 5.8,-591.43z"/>
 <path class="fil1p" d="M-3065.28 2816.89c0,-12.07 -9.78,-21.85 -21.84,-21.85 -12.06,0 -21.84,9.78 -21.84,21.85 0,12.07 9.78,21.84 21.84,21.84 12.06,0 21.84,-9.78 21.84,-21.84zm-5.94 -56.8c0,8.78 -7.12,15.9 -15.9,15.9 -8.78,0 -15.9,-7.12 -15.9,-15.9l0 -65.91c0,-8.78 7.12,-15.9 15.9,-15.9 8.78,0 15.9,7.12 15.9,15.9l0 65.91zm-31.8 113.61c0,-8.78 7.12,-15.9 15.9,-15.9 8.78,0 15.9,7.12 15.9,15.9l0 65.91c0,8.78 -7.12,15.9 -15.9,15.9 -8.78,0 -15.9,-7.12 -15.9,-15.9l0 -65.91zm72.7 -40.9c-8.78,0 -15.91,-7.12 -15.91,-15.9 0,-8.78 7.12,-15.9 15.91,-15.9l65.91 0c8.78,0 15.9,7.12 15.9,15.9 0,8.78 -7.12,15.9 -15.9,15.9l-65.91 0zm-113.61 -31.8c8.78,0 15.9,7.12 15.9,15.9 0,8.78 -7.12,15.9 -15.9,15.9l-65.91 0c-8.78,0 -15.9,-7.12 -15.9,-15.9 0,-8.78 7.12,-15.9 15.9,-15.9l65.91 0zm27.88 -35.51c6.21,6.2 6.21,16.29 0,22.49 -6.2,6.2 -16.28,6.2 -22.49,0l-46.61 -46.61c-6.21,-6.2 -6.21,-16.27 0,-22.48 6.2,-6.21 16.28,-6.21 22.49,0l46.61 46.61zm80.33 22.49c-6.21,6.2 -16.28,6.2 -22.48,0 -6.21,-6.2 -6.21,-16.28 0,-22.49l46.6 -46.61c6.21,-6.21 16.28,-6.21 22.49,0 6.21,6.21 6.21,16.28 0,22.48l-46.61 46.61zm-102.82 57.84c6.21,-6.2 16.28,-6.2 22.49,0 6.21,6.21 6.21,16.28 0,22.48l-46.61 46.61c-6.21,6.2 -16.28,6.2 -22.49,0 -6.21,-6.2 -6.21,-16.28 0,-22.49l46.61 -46.61zm80.34 22.5c-6.21,-6.2 -6.21,-16.28 0,-22.49 6.21,-6.2 16.28,-6.2 22.49,0l350.4 350.4c6.2,6.21 6.2,16.28 0,22.49 -6.21,6.2 -16.28,6.2 -22.48,0l-350.4 -350.4zm49.57 354.15c1.3,-11.99 -7.36,-22.78 -19.34,-24.09 -11.99,-1.3 -22.78,7.36 -24.09,19.35 -1.3,11.99 7.36,22.78 19.35,24.09 11.99,1.3 22.77,-7.36 24.08,-19.35zm0.22 -57.16c-0.92,8.72 -8.74,15.03 -17.45,14.11 -8.72,-0.93 -15.03,-8.74 -14.1,-17.45l7.14 -65.53c0.92,-8.71 8.74,-15.03 17.46,-14.11 8.71,0.93 15.03,8.74 14.11,17.45l-7.14 65.53zm-43.88 109.59c0.92,-8.72 8.74,-15.03 17.46,-14.11 8.71,0.92 15.03,8.74 14.11,17.45l-7.14 65.53c-0.92,8.72 -8.74,15.03 -17.45,14.11 -8.72,-0.92 -15.03,-8.74 -14.1,-17.45l7.14 -65.53zm76.74 -32.86c-8.71,-0.92 -15.03,-8.74 -14.11,-17.45 0.93,-8.72 8.75,-15.03 17.45,-14.11l243.29 26.53c8.71,0.92 15.03,8.74 14.11,17.45 -0.92,8.71 -8.74,15.03 -17.45,14.11l-243.28 -26.53zm-31.59 32.28c-5.49,-6.82 -4.4,-16.81 2.42,-22.3 6.82,-5.49 16.81,-4.4 22.3,2.42l41.28 51.39c5.49,6.82 4.4,16.81 -2.42,22.3 -6.82,5.48 -16.81,4.39 -22.3,-2.43l-41.28 -51.39zm-78.01 -76.16c8.72,0.93 15.03,8.74 14.1,17.45 -0.92,8.72 -8.74,15.03 -17.45,14.11l-65.52 -7.14c-8.72,-0.92 -15.03,-8.74 -14.11,-17.45 0.92,-8.72 8.74,-15.03 17.46,-14.11l65.53 7.14zm31.58 -32.28c5.49,6.82 4.4,16.81 -2.42,22.3 -6.82,5.49 -16.82,4.4 -22.3,-2.42l-41.28 -51.38c-5.49,-6.83 -4.4,-16.82 2.42,-22.3 6.82,-5.48 16.81,-4.4 22.3,2.42l41.28 51.39zm77.43 31.01c-6.83,5.49 -16.82,4.4 -22.3,-2.42 -5.49,-6.82 -4.4,-16.81 2.42,-22.3l51.39 -41.28c6.82,-5.48 16.82,-4.4 22.3,2.43 5.49,6.82 4.4,16.81 -2.42,22.3l-51.38 41.28zm-108.44 46.43c6.82,-5.49 16.81,-4.4 22.3,2.42 5.48,6.82 4.4,16.81 -2.43,22.3l-51.39 41.28c-6.82,5.49 -16.81,4.4 -22.3,-2.42 -5.49,-6.83 -4.4,-16.82 2.42,-22.3l51.39 -41.28zm499.36 -258.33c1.82,-11.92 -6.36,-23.07 -18.29,-24.89 -11.92,-1.83 -23.07,6.36 -24.89,18.28 -1.83,11.92 6.35,23.07 18.28,24.89 11.93,1.83 23.07,-6.36 24.9,-18.28zm2.72 -57.1c-1.3,8.68 -9.39,14.66 -18.07,13.36 -8.68,-1.3 -14.66,-9.4 -13.36,-18.08l9.98 -65.15c1.3,-8.68 9.4,-14.66 18.07,-13.36 8.68,1.3 14.65,9.4 13.36,18.07l-9.99 65.15zm-48.64 107.59c1.3,-8.68 9.4,-14.66 18.08,-13.36 8.67,1.3 14.66,9.4 13.36,18.08l-17.31 112.97c-1.3,8.68 -9.4,14.66 -18.08,13.36 -8.68,-1.3 -14.65,-9.39 -13.36,-18.07l17.31 -112.97zm78.11 -29.47c-8.68,-1.3 -14.65,-9.39 -13.36,-18.08 1.3,-8.67 9.4,-14.65 18.08,-13.36l65.15 9.98c8.68,1.3 14.66,9.4 13.36,18.08 -1.3,8.68 -9.4,14.65 -18.07,13.36l-65.15 -9.99zm-32.97 30.84c-5.18,-7.07 -3.66,-17 3.41,-22.17 7.07,-5.18 16.99,-3.66 22.18,3.41l39.01 53.14c5.17,7.06 3.65,17 -3.41,22.18 -7.07,5.18 -17,3.65 -22.18,-3.41l-39.01 -53.14zm-74.62 -79.48c8.68,1.3 14.66,9.39 13.36,18.08 -1.3,8.67 -9.4,14.65 -18.07,13.36l-65.15 -9.98c-8.68,-1.3 -14.66,-9.4 -13.36,-18.08 1.3,-8.67 9.4,-14.65 18.07,-13.36l65.15 9.98zm32.97 -30.84c5.18,7.07 3.65,17 -3.41,22.17 -7.06,5.18 -17,3.66 -22.18,-3.41l-39.01 -53.13c-5.18,-7.07 -3.66,-17 3.41,-22.18 7.07,-5.17 17,-3.65 22.18,3.41l39.01 53.14zm75.99 34.34c-7.07,5.18 -17,3.65 -22.18,-3.41 -5.18,-7.07 -3.66,-17 3.41,-22.18l53.13 -39.01c7.07,-5.18 17,-3.65 22.18,3.41 5.18,7.07 3.65,17 -3.41,22.18l-53.13 39.01zm-110.33 41.64c7.07,-5.18 17,-3.66 22.18,3.41 5.18,7.07 3.65,17 -3.41,22.18l-53.13 39.02c-7.07,5.17 -17,3.65 -22.18,-3.42 -5.18,-7.06 -3.65,-17 3.41,-22.18l53.13 -39.01zm508.98 378.22c-4.22,-11.3 -16.82,-17.03 -28.11,-12.8 -11.3,4.22 -17.03,16.82 -12.8,28.12 4.22,11.29 16.81,17.02 28.11,12.79 11.3,-4.22 17.03,-16.81 12.8,-28.11zm-25.52 -51.07c3.05,8.2 -1.12,17.33 -9.32,20.38 -8.19,3.05 -17.32,-1.12 -20.38,-9.32l-23.11 -61.74c-3.05,-8.19 1.12,-17.32 9.32,-20.38 8.2,-3.05 17.33,1.12 20.38,9.32l23.11 61.72zm10.12 117.46c-3.05,-8.19 1.12,-17.32 9.32,-20.38 8.19,-3.05 17.32,1.12 20.38,9.32l23.11 61.73c3.06,8.2 -1.12,17.32 -9.31,20.38 -8.2,3.05 -17.33,-1.12 -20.38,-9.32l-23.11 -61.73zm53.66 -63.79c-8.2,3.05 -17.32,-1.12 -20.38,-9.32 -3.05,-8.19 1.12,-17.32 9.32,-20.38l61.73 -23.11c8.19,-3.05 17.32,1.13 20.37,9.32 3.06,8.2 -1.12,17.32 -9.32,20.38l-61.73 23.11zm-13.62 43.01c-7.95,-3.63 -11.46,-13.04 -7.83,-21 3.63,-7.96 13.04,-11.46 21,-7.83l59.99 27.32c7.96,3.63 11.46,13.05 7.83,20.99 -3.63,7.95 -13.04,11.46 -21,7.83l-59.99 -27.31zm-103.83 -32.89c8.19,-3.05 17.32,1.12 20.38,9.32 3.05,8.19 -1.12,17.32 -9.32,20.38l-61.73 23.11c-8.2,3.05 -17.32,-1.12 -20.38,-9.32 -3.05,-8.2 1.12,-17.32 9.32,-20.38l61.74 -23.11zm13.6 -43.01c7.95,3.63 11.46,13.04 7.83,20.99 -3.63,7.95 -13.04,11.46 -21,7.83l-229.89 -104.67c-7.96,-3.63 -11.47,-13.04 -7.83,-21 3.63,-7.95 13.04,-11.46 20.99,-7.83l229.89 104.68zm83.07 -7.16c-3.63,7.95 -13.04,11.46 -21,7.83 -7.95,-3.63 -11.46,-13.04 -7.83,-21l27.32 -59.99c3.63,-7.95 13.04,-11.45 20.99,-7.82 7.96,3.63 11.46,13.04 7.83,21l-27.31 59.99zm-75.89 90.22c3.63,-7.95 13.04,-11.46 20.99,-7.83 7.96,3.63 11.46,13.04 7.83,20.99l-27.32 59.99c-3.63,7.95 -13.04,11.46 -20.99,7.83 -7.95,-3.63 -11.46,-13.04 -7.83,-20.99l27.32 -59.99zm191.62 368.62c0,-12.07 -9.78,-21.85 -21.85,-21.85 -12.07,0 -21.84,9.78 -21.84,21.85 0,12.07 9.78,21.84 21.84,21.84 12.07,0 21.85,-9.78 21.85,-21.84zm-5.94 -56.8c0,8.78 -7.12,15.9 -15.9,15.9 -8.78,0 -15.9,-7.12 -15.9,-15.9l0 -65.91c0,-8.78 7.12,-15.9 15.9,-15.9 8.78,0 15.9,7.12 15.9,15.9l0 65.91zm-31.81 113.6c0,-8.78 7.12,-15.9 15.9,-15.9 8.78,0 15.9,7.12 15.9,15.9l0 65.91c0,8.78 -7.12,15.9 -15.9,15.9 -8.78,0 -15.9,-7.12 -15.9,-15.9l0 -65.91zm72.71 -40.9c-8.78,0 -15.9,-7.12 -15.9,-15.9 0,-8.78 7.12,-15.91 15.9,-15.91l65.91 0c8.78,0 15.9,7.12 15.9,15.91 0,8.78 -7.12,15.9 -15.9,15.9l-65.91 0zm-27.88 35.5c-6.2,-6.2 -6.2,-16.28 0,-22.49 6.21,-6.2 16.28,-6.2 22.48,0l46.61 46.61c6.21,6.2 6.21,16.28 0,22.49 -6.21,6.2 -16.28,6.2 -22.49,0l-46.61 -46.61zm-85.72 -67.31c8.78,0 15.9,7.12 15.9,15.91 0,8.78 -7.12,15.9 -15.9,15.9l-65.91 0c-8.77,0 -15.9,-7.12 -15.9,-15.9 0,-8.78 7.12,-15.91 15.9,-15.91l65.91 0zm27.86 -35.53c6.21,6.21 6.21,16.28 0,22.49 -6.2,6.21 -16.28,6.21 -22.48,0l-446.47 -446.47c-6.2,-6.21 -6.2,-16.28 0,-22.49 6.21,-6.21 16.28,-6.21 22.49,0l446.47 446.47zm80.35 22.51c-6.2,6.2 -16.27,6.2 -22.48,0 -6.2,-6.21 -6.2,-16.28 0,-22.49l46.61 -46.61c6.21,-6.2 16.28,-6.2 22.49,0 6.21,6.21 6.21,16.28 0,22.49l-46.61 46.61zm-102.81 57.84c6.21,-6.2 16.28,-6.2 22.48,0 6.21,6.21 6.21,16.28 0,22.49l-46.61 46.61c-6.21,6.2 -16.28,6.2 -22.49,0 -6.2,-6.21 -6.2,-16.28 0,-22.49l46.61 -46.61z"/>
 <path class="fil1p" d="M-1131.12 3267.34l-152.89 224.41c-19.84,28.62 -31.37,64.79 -31.46,99.61l-1.34 512.7c17.95,-11.75 35.58,-23.95 52.86,-36.58l1.01 -481.03c0.04,-20.53 6.66,-41.95 18.36,-58.82l148.33 -213.99c45.74,-65.99 34.11,-190.72 -36.18,-239.43l-58.34 -26.55c2.81,-27.84 -7.25,-56.7 -34.9,-75.31l25.34 -37.74 441.52 -16.6c-1.97,-17.64 -4.31,-35.18 -7.01,-52.61l-449.88 16.92c-8.8,0.32 -16.45,4.9 -21.01,11.7 -86.29,128.51 -89.66,133.53 -128.15,190.86l-108.33 58.7c-6.15,3.33 -23.63,-3.16 -29.38,-13.63l68.94 -37.36c30.71,-16.59 5.53,-63.1 -25.05,-46.59l-125.52 68.02c-9.92,5.38 -28.54,-6.72 -31.3,-18.25l75.81 -41.08c30.71,-16.57 5.52,-63.1 -25.05,-46.59l-125.52 68.02c-9.92,5.38 -28.54,-6.72 -31.3,-18.25l99.02 -53.67c30.71,-16.58 5.53,-63.1 -25.05,-46.59l-104.43 56.59c-24.1,-0.27 -38.98,-8.26 -45.75,-23.09 -7.23,-15.88 -8.26,-39.31 -3.75,-69.48 27.85,11.24 68.77,33.56 85.81,26.05 111.16,-49.04 92.97,-138.13 64.65,-149.24l-83.74 -33.76 87.85 -54.57 271.62 0 0 -0.12 527.73 -134.11c-6.9,-16.47 -14.16,-32.78 -21.74,-48.89l-508.87 130.1 -276.22 0c-20.14,0 -133.88,83.22 -148.21,87.42 -26.23,3.96 -42.27,7.1 -61.7,31.33 -67.36,-26.33 -154.62,-41.15 -215.58,8.62l-216.62 176.86c-12.56,-8.03 -25.46,-10.51 -33.93,-1.89l-184.32 187.29c-12.58,-6.32 -27.3,-7.59 -38.67,2.22 -63.93,55.19 -108.71,129.73 -156.22,202.04 76.9,-35.18 158.87,-69.64 222.86,-124.88 10.76,-9.28 11.97,-23.49 8.81,-36.57l212.14 -155.28c9.47,-6.93 9.21,-19.5 3.59,-32.68l215.71 -176.11c43.57,-35.57 113.93,-19.45 162.48,-0.57 -2.55,27.53 7.56,55.8 32.86,73.87 -14.18,76.32 -4.37,154.51 77.17,166.69 7.39,44.49 62.8,82.17 111.7,55.71l18.4 24.79c29.03,26.77 60.37,27.91 94.88,9.2 18.72,34.26 66.88,53.49 100.95,35.03l114.06 -61.84 12.44 -13.04c44.76,18.06 80.86,19.81 111.09,-18.61l36.45 14.72c50.69,20.43 62.77,106.92 42.99,155.95zm-1405.06 -98.41l24.75 11.09 7.31 26.1c-39.58,34.16 -85.32,59.28 -132.4,81.95 29.78,-44.02 59.91,-84.24 100.34,-119.14z"/>
 <path class="fil2p" d="M-601.73 3058.33c0,-772.24 -626.03,-1398.27 -1398.27,-1398.27 -336.84,0 -645.85,119.11 -887.22,317.51l1972.76 1962.04c195.5,-240.5 312.73,-547.18 312.73,-881.28zm-2483.81 -881.28c-195.49,240.51 -312.73,547.18 -312.73,881.28 0,772.24 626.03,1398.27 1398.27,1398.27 336.84,0 645.84,-119.12 887.22,-317.52l-1972.76 -1962.03zm2835.54 881.28c0,-966.5 -783.5,-1750 -1750,-1750 -966.5,0 -1750,783.5 -1750,1750 0,966.5 783.5,1750 1750,1750 966.5,0 1750,-783.5 1750,-1750z"/>
</symbol>
 <g id="Ebene_x0020_1">
  <metadata id="CorelCorpID_0Corel-Layer"/>
  <use id="ISO_x0020_7010_x0020_P039_0" transform="scale(0.571429 0.571429)" x="-0" y="-0" width="3500" height="3500" xlink:href="#ISO_x0020_7010_x0020_P039"/>
 </g>
</svg>
