<?xml version="1.0" encoding="UTF-8"?>
<!DOCTYPE svg PUBLIC "-//W3C//DTD SVG 1.1//EN" "http://www.w3.org/Graphics/SVG/1.1/DTD/svg11.dtd">
<!-- Creator: Corel DESIGNER -->
<svg xmlns="http://www.w3.org/2000/svg" xml:space="preserve" width="40mm" height="40mm" version="1.1" style="shape-rendering:geometricPrecision; text-rendering:geometricPrecision; image-rendering:optimizeQuality; fill-rule:evenodd; clip-rule:evenodd"
viewBox="0 0 4000 4000"
 xmlns:xlink="http://www.w3.org/1999/xlink"
 xmlns:xodm="http://www.corel.com/coreldraw/odm/2003">
 <defs>
  <style type="text/css">
   <![CDATA[
    .fil1p {fill:#0E1313}
    .fil2p {fill:#A1262D}
    .fil0p {fill:white}
   ]]>
  </style>
 </defs>
<symbol id="ISO_x0020_7010_x0020_P041" viewBox="-1500 -3616.67 7000 7000">
 <circle class="fil0p" cx="2000" cy="-116.67" r="3150"/>
 <rect class="fil1p" x="2710.69" y="-2451.89" width="183.3" height="4671.97"/>
 <path class="fil1p" d="M2006.52 -1624.41c100.79,23.82 153.15,78.3 208.01,160.78l464.24 697.97c57.05,84.61 28.63,199.71 -62.21,246.37l-641.23 389.62 -30.66 129.7c-0.74,3.61 -1.59,7.22 -2.55,10.82l-326.85 1223.04 141.52 164.25c69.23,80.34 59.58,203.18 -21.42,272.99 -60.63,60.62 -172.07,59.93 -239.95,11.22l-106.01 396.69c-27.38,102.45 -154.37,163.97 -237.62,136.09 -83.25,-27.88 -168.71,-121.78 -138.05,-236.49l172.81 -646.61 -423.04 -490.96c-56.05,-65.06 -62.15,-163.06 -14.61,-234.56l592.63 -891.35 46.22 -84.19 241.64 -1022.43c39.66,-167.77 209.36,-272.6 377.13,-232.95zm-852.16 2323.39l153.7 178.37 183 -684.77 -336.7 506.4zm1146.04 -1422.27l-136.33 -204.98 -79.43 336.07 215.76 -131.09zm-62.58 -1367.7c0,-189.3 -153.45,-342.75 -342.75,-342.75 -189.29,0 -342.74,153.45 -342.74,342.75 0,189.29 153.45,342.74 342.74,342.74 189.3,0 342.75,-153.45 342.75,-342.74z"/>
 <path class="fil2p" d="M4796.54 -116.67c0,-1544.49 -1252.05,-2796.54 -2796.54,-2796.54 -673.67,0 -1291.7,238.22 -1774.43,635.02l3945.51 3924.07c391,-481 625.46,-1094.36 625.46,-1762.55zm-4967.62 -1762.55c-390.98,481.01 -625.46,1094.36 -625.46,1762.55 0,1544.49 1252.05,2796.54 2796.54,2796.54 673.67,0 1291.66,-238.25 1774.43,-635.03l-3945.51 -3924.06zm5671.08 1762.55c0,-1933 -1567,-3500 -3500,-3500 -1933,0 -3500,1567 -3500,3500 0,1933 1567,3500 3500,3500 1933,0 3500,-1567 3500,-3500z"/>
</symbol>
 <g id="Ebene_x0020_1">
  <metadata id="CorelCorpID_0Corel-Layer"/>
  <use id="ISO_x0020_7010_x0020_P041_0" transform="scale(0.571429 0.571429)" x="-0" y="-0" width="7000" height="7000" xlink:href="#ISO_x0020_7010_x0020_P041"/>
 </g>
</svg>
