<?xml version="1.0" encoding="UTF-8"?>
<!DOCTYPE svg PUBLIC "-//W3C//DTD SVG 1.1//EN" "http://www.w3.org/Graphics/SVG/1.1/DTD/svg11.dtd">
<!-- Creator: Corel DESIGNER -->
<svg xmlns="http://www.w3.org/2000/svg" xml:space="preserve" width="40mm" height="40mm" version="1.1" style="shape-rendering:geometricPrecision; text-rendering:geometricPrecision; image-rendering:optimizeQuality; fill-rule:evenodd; clip-rule:evenodd"
viewBox="0 0 999.72 999.72"
 xmlns:xlink="http://www.w3.org/1999/xlink"
 xmlns:xodm="http://www.corel.com/coreldraw/odm/2003">
 <defs>
  <style type="text/css">
   <![CDATA[
    .fil1p {fill:#0E1313}
    .fil2p {fill:#A1262D}
    .fil0p {fill:white}
   ]]>
  </style>
 </defs>
<symbol id="ISO_x0020_7010_x0020_P045" viewBox="1125.25 2211.88 1749.51 1749.51">
 <circle class="fil0p" cx="2000" cy="3086.63" r="787.28"/>
 <polygon class="fil1p" points="2125.94,3508.37 2378.26,3580.73 2402.67,3495.62 2140.22,3420.34 1866.98,3420.34 1599.63,3497.08 1623.4,3579.89 1879.2,3506.46 1773.96,3618.54 1836.68,3677.44 2003.66,3499.61 2166.12,3675.98 2227.9,3619.06 "/>
 <path class="fil1p" d="M1899.83 3023.02c19.23,12.41 46.72,42.25 59.25,78.96 -1.32,-25.5 7.27,-120.8 84.13,-183.69 2.39,116.81 73.41,128.35 66.41,270.62 25.59,-11.62 69.53,-90.69 74.6,-117.01 24.11,53.06 19.57,112.31 -17.24,169.12 23.72,-6.62 57.71,-23.93 81.37,-44.48 -3.83,87.9 -65.95,153.46 -128.79,182.83 155.02,-30.75 275.66,-138.55 268.93,-352.48 -26.47,42.95 -61.54,77.96 -103.62,90.91 66.17,-99.75 78.15,-245.08 31.9,-344.19 -2.94,43.88 -43.19,110.28 -88.6,133.04 -25.75,-277.63 -169.96,-210.25 -174.2,-439 -147.64,105.92 -181.09,309.76 -178.75,359.69 -22.22,-71.87 -49.32,-130.3 -83.44,-154.6 42.16,159.06 -36.86,300.99 -45.53,367.83 -35.51,-55.44 -81.13,-76.87 -130.99,-84.07 124.54,141.46 8.35,381.04 342.95,425.66 -112.29,-37.14 -83.53,-136.62 -145.64,-200.55 28.1,3.68 53.81,0.93 73.82,29.25 4.89,-34.14 37.21,-106.62 13.44,-187.85z"/>
 <path class="fil2p" d="M2698.94 3086.63c0,-386.01 -312.92,-698.94 -698.94,-698.94 -168.37,0 -322.83,59.54 -443.48,158.71l986.1 980.74c97.72,-120.22 156.32,-273.51 156.32,-440.51zm-1241.56 -440.52c-97.72,120.22 -156.32,273.52 -156.32,440.52 0,386.01 312.92,698.94 698.94,698.94 168.37,0 322.83,-59.55 443.48,-158.71l-986.1 -980.74zm1417.37 440.52c0,-483.11 -391.64,-874.75 -874.75,-874.75 -483.11,0 -874.75,391.64 -874.75,874.75 0,483.11 391.64,874.75 874.75,874.75 483.11,0 874.75,-391.64 874.75,-874.75z"/>
</symbol>
 <g id="Ebene_x0020_1">
  <metadata id="CorelCorpID_0Corel-Layer"/>
  <use id="ISO_x0020_7010_x0020_P045_0" transform="scale(0.571429 0.571429)" x="-0" y="-0" width="1749.51" height="1749.51" xlink:href="#ISO_x0020_7010_x0020_P045"/>
 </g>
</svg>
