<?xml version="1.0" encoding="UTF-8"?>
<!DOCTYPE svg PUBLIC "-//W3C//DTD SVG 1.1//EN" "http://www.w3.org/Graphics/SVG/1.1/DTD/svg11.dtd">
<!-- Creator: Corel DESIGNER -->
<svg xmlns="http://www.w3.org/2000/svg" xml:space="preserve" width="40mm" height="40mm" version="1.1" style="shape-rendering:geometricPrecision; text-rendering:geometricPrecision; image-rendering:optimizeQuality; fill-rule:evenodd; clip-rule:evenodd"
viewBox="0 0 2000 2000"
 xmlns:xlink="http://www.w3.org/1999/xlink"
 xmlns:xodm="http://www.corel.com/coreldraw/odm/2003">
 <defs>
  <style type="text/css">
   <![CDATA[
    .fil1p {fill:#0E1313}
    .fil2p {fill:#A1262D}
    .fil0p {fill:white}
   ]]>
  </style>
 </defs>
<symbol id="ISO_x0020_7010_x0020_P047" viewBox="-3750 4425 3500 3500">
 <circle class="fil0p" cx="-2000" cy="6175" r="1575"/>
 <path id="Body" class="fil1p" d="M-2885.38 6331.84c14.58,-49.38 66.91,-77.84 116.28,-63.26l317.92 93.9c70.16,20.72 94.51,115.43 28.19,165.6l-220.54 175.48 17.9 288.85c2.01,32.36 -24.36,60.13 -54.39,61.06 -31.87,1.98 -59.55,-22.27 -61.51,-53.88l-19.78 -319.04c-1.15,-18.64 7.2,-37.4 21.8,-49.02l145.73 -115.95 -192.18 -56.76 3.47 151.21c0.28,12.39 -3.99,23.86 -11.27,32.84l-142.72 202.57c-16.01,22.72 -47.74,28.15 -70.44,12.11 -22.71,-16.05 -28.13,-47.72 -12.12,-70.45l135.09 -191.75 -5.37 -234.23c-0.21,-9.18 1.26,-20.27 3.92,-29.27zm-98.41 -91.72c-54.22,-16.01 -111.14,14.95 -127.15,69.17 -16.01,54.22 14.96,111.15 69.17,127.15 54.21,16.02 111.14,-14.95 127.16,-69.17 16.01,-54.22 -14.96,-111.15 -69.18,-127.16z"/>
 <path class="fil1p" d="M-2138.32 5482.35l157.46 -15.18 2.84 437.27 -160.3 -422.09zm264.64 -136.59l150.81 26.55 -168.84 564.38 18.03 -590.93zm122.36 485.64l57.86 57.86 -148.92 143.23 91.06 -201.09zm-351.43 813.36l117.61 0 -31.3 -244.72 -86.31 244.72zm-646.9 -864.11l-36.05 138.49 334.83 94.85 -298.78 -233.34zm153.66 263.69l0 73.04 298.79 5.69 -298.79 -78.73z"/>
 <path id="Fore_x0020_arm" class="fil1p" d="M-1283.74 5843.26l110.9 -67.76 5.37 210.9 -198.91 -64.65c-18.93,-6.15 -40.56,-1.85 -55.7,11.1l-242.89 207.8c-30.86,26.39 -22.24,65.9 -6.02,81.55 16.22,15.65 51.91,31.99 81.5,6.69l218.16 -186.64 266.26 86.54c66.41,23.24 127.79,-27.04 126.19,-90.07l-8.42 -331.4c-1.31,-51.46 -44.49,-92.5 -95.96,-91.19 -20.3,0.52 -36.21,8.31 -55.21,19.91l-184.44 112.68 -235.47 -11.03c-27.77,-1.3 -51.58,20.29 -52.92,48.06 -1.33,27.77 20.29,51.62 48.06,52.92l247.46 11.6c10.82,1.26 22.1,-0.93 32.05,-7.01zm295.14 -348.98c-1.43,-56.51 -48.41,-101.16 -104.93,-99.72 -56.51,1.44 -101.15,48.41 -99.72,104.92 1.43,56.52 48.41,101.16 104.92,99.73 56.51,-1.44 101.15,-48.41 99.72,-104.93z"/>
 <path class="fil1p" d="M-889.73 6126.65l-3.91 -250.69c-0.19,-11.85 -9.79,-21.49 -21.64,-21.44 -11.8,0.05 -21.62,9.76 -21.44,21.63l3.65 233.37 -835.77 161.26c-11.63,2.24 -19.31,13.6 -17.07,25.23 2.24,11.62 13.6,19.3 25.22,17.06l851.63 -164.32c11.45,-1.18 19.49,-10.7 19.32,-22.11z"/>
 <path class="fil1p" d="M-2187.88 6405.55l-468.51 714.65c-6.49,9.9 -3.7,23.32 6.2,29.82 9.89,6.48 23.33,3.68 29.82,-6.2l472.99 -721.47c6.07,-9.26 6.16,-21.52 -0.74,-33.93l-117.95 -212.03c-5.75,-10.35 -18.78,-14.32 -29.19,-8.68 -10.38,5.62 -14.45,18.81 -8.68,29.19l116.06 208.65z"/>
 <path class="fil1p" d="M-732.2 6168.94l-1868.78 1081.09c68.31,39.45 140.72,72.57 216.43,98.65l1630.01 -942.96c14.97,-78.22 22.35,-157.15 22.35,-236.77z"/>
 <path class="fil2p" d="M-601.73 6175c0,-772.24 -626.03,-1398.27 -1398.27,-1398.27 -336.84,0 -645.85,119.11 -887.22,317.52l1972.76 1962.03c195.5,-240.5 312.73,-547.18 312.73,-881.27zm-2483.81 -881.27c-195.49,240.5 -312.73,547.18 -312.73,881.27 0,772.24 626.03,1398.27 1398.27,1398.27 336.84,0 645.83,-119.12 887.22,-317.51l-1972.76 -1962.03zm2835.54 881.27c0,-966.5 -783.5,-1750 -1750,-1750 -966.5,0 -1750,783.5 -1750,1750 0,966.5 783.5,1750 1750,1750 966.5,0 1750,-783.5 1750,-1750z"/>
</symbol>
 <g id="Ebene_x0020_1">
  <metadata id="CorelCorpID_0Corel-Layer"/>
  <use id="ISO_x0020_7010_x0020_P047_0" transform="scale(0.571429 0.571429)" x="-0" y="-0" width="3500" height="3500" xlink:href="#ISO_x0020_7010_x0020_P047"/>
 </g>
</svg>
