<?xml version="1.0" encoding="UTF-8"?>
<!DOCTYPE svg PUBLIC "-//W3C//DTD SVG 1.1//EN" "http://www.w3.org/Graphics/SVG/1.1/DTD/svg11.dtd">
<!-- Creator: Corel DESIGNER -->
<svg xmlns="http://www.w3.org/2000/svg" xml:space="preserve" width="40mm" height="40mm" version="1.1" style="shape-rendering:geometricPrecision; text-rendering:geometricPrecision; image-rendering:optimizeQuality; fill-rule:evenodd; clip-rule:evenodd"
viewBox="0 0 1000 1000"
 xmlns:xlink="http://www.w3.org/1999/xlink"
 xmlns:xodm="http://www.corel.com/coreldraw/odm/2003">
 <defs>
  <style type="text/css">
   <![CDATA[
    .fil1p {fill:#0E1313}
    .fil2p {fill:#A1262D}
    .fil0p {fill:white}
   ]]>
  </style>
 </defs>
<symbol id="ISO_x0020_7010_x0020_P048" viewBox="1125 654.16 1750 1750">
 <circle class="fil0p" cx="2000" cy="1529.16" r="787.5"/>
 <path id="Head" class="fil1p" d="M2044.86 986.33c-8.29,-53.72 -58.56,-90.55 -112.28,-82.26 -53.72,8.29 -90.55,58.56 -82.26,112.28 8.29,53.72 58.56,90.55 112.28,82.26 53.72,-8.29 90.55,-58.56 82.27,-112.28zm282.51 210.97l-225.34 -86.82c-8.05,-3.01 -16.51,-4.02 -25.03,-2.64l-220.7 34.09c-15.97,2.49 -30.39,12.84 -37.28,28.68l-86.75 199.53 -211 54.12c-25.89,6.64 -41.6,33.32 -34.92,59.2 6.68,25.89 33.31,41.57 59.2,34.93l232.62 -59.66c14.88,-3.45 27.52,-13.65 33.75,-28l65.64 -150.97 42.91 278.12 -184.61 211.81c-13.65,16.07 -17.17,37.18 -10.08,56.54l109.35 287.26c13.85,36.38 44.4,43.57 71.88,31.89 28.85,-12.26 44.47,-40.11 32.48,-71.61l-97.43 -255.96 166.91 -191.5 51.19 -7.9 132.68 234.24c12.55,21.61 38.19,32.87 62.67,26.51l297.4 -77.64c29.47,-7.7 47.23,-38.3 39.47,-68.01 -7.76,-29.71 -38.21,-47.72 -67.68,-40.03l-255.87 66.8 -125.3 -221.2 -50.59 -327.91 173.46 66.83 34.87 210.87c4.36,26.37 29.45,44.43 55.83,40.1 26.38,-4.33 44.46,-29.45 40.1,-55.83l-39.4 -238.26c-2.87,-17.24 -14.24,-31.08 -30.42,-37.55z"/>
 <path class="fil2p" d="M2699.14 1529.16c0,-386.12 -313.01,-699.13 -699.14,-699.13 -168.42,0 -322.92,59.55 -443.61,158.75l986.38 981.02c97.75,-120.25 156.37,-273.59 156.37,-440.64zm-1241.91 -440.64c-97.74,120.25 -156.37,273.59 -156.37,440.64 0,386.12 313.01,699.14 699.13,699.14 168.42,0 322.92,-59.56 443.61,-158.76l-986.38 -981.02zm1417.77 440.64c0,-483.25 -391.75,-875 -875,-875 -483.25,0 -875,391.75 -875,875 0,483.25 391.75,875 875,875 483.25,0 875,-391.75 875,-875z"/>
</symbol>
 <g id="Ebene_x0020_1">
  <metadata id="CorelCorpID_0Corel-Layer"/>
  <use id="ISO_x0020_7010_x0020_P048_0" transform="scale(0.571429 0.571429)" x="-0" y="-0" width="1750" height="1750" xlink:href="#ISO_x0020_7010_x0020_P048"/>
 </g>
</svg>
