<?xml version="1.0" encoding="UTF-8"?>
<!DOCTYPE svg PUBLIC "-//W3C//DTD SVG 1.1//EN" "http://www.w3.org/Graphics/SVG/1.1/DTD/svg11.dtd">
<!-- Creator: Corel DESIGNER -->
<svg xmlns="http://www.w3.org/2000/svg" xml:space="preserve" width="40mm" height="40mm" version="1.1" style="shape-rendering:geometricPrecision; text-rendering:geometricPrecision; image-rendering:optimizeQuality; fill-rule:evenodd; clip-rule:evenodd"
viewBox="0 0 4000 4000"
 xmlns:xlink="http://www.w3.org/1999/xlink"
 xmlns:xodm="http://www.corel.com/coreldraw/odm/2003">
 <defs>
  <style type="text/css">
   <![CDATA[
    .fil1p {fill:#0E1313}
    .fil2p {fill:#A1262D}
    .fil0p {fill:white}
   ]]>
  </style>
 </defs>
<symbol id="ISO_x0020_7010_x0020_P049" viewBox="-1500 2616.66 7000 7000">
 <circle class="fil0p" cx="2000" cy="6116.66" r="3150"/>
 <path class="fil1p" d="M4181.17 7019.67l53.37 -12.82c-8.03,101.46 -20.91,191.03 -92.79,209.19 -272.27,45.31 -460.07,-28.88 -651.15,-104.36 -138.93,-54.9 -279.9,-110.58 -455.39,-109.13 -140.12,1.16 -278.59,57.75 -424.27,117.26 -177.99,72.73 -365.79,149.46 -600.72,152.32 -206.05,2.51 -349.48,-57.85 -500.25,-121.29 -162.87,-68.56 -335.52,-141.21 -611.26,-122.11 -219.24,15.18 -354.14,73.83 -475.45,126.54 -161.76,70.3 -302.74,131.55 -554.39,96.52 -110.32,-15.37 -110.04,-123.79 -121.68,-213.58l52.63 13.69c263.08,58.43 393.66,1.67 546.63,-64.81 136.17,-59.18 287.65,-125.02 538.97,-142.44 321.69,-22.28 515.92,59.44 699.13,136.56 132.55,55.77 258.68,108.85 423.46,106.85 197.29,-2.42 368.39,-72.33 530.56,-138.59 162.5,-66.4 316.98,-129.52 495.15,-130.99 213.47,-1.77 371.38,60.62 527.05,122.12 181.78,71.82 360.13,142.28 620.4,79.07zm0 -423.34l53.37 -12.82c-8.03,101.46 -20.91,191.03 -92.79,209.19 -272.27,45.31 -460.07,-28.88 -651.15,-104.36 -138.93,-54.9 -279.9,-110.58 -455.39,-109.13 -140.12,1.16 -278.59,57.75 -424.27,117.26 -177.99,72.73 -365.79,149.46 -600.72,152.32 -206.05,2.51 -349.48,-57.85 -500.25,-121.29 -162.87,-68.56 -335.52,-141.21 -611.26,-122.11 -219.24,15.18 -354.14,73.83 -475.45,126.54 -161.76,70.3 -302.74,131.55 -554.39,96.52 -110.32,-15.37 -110.04,-123.79 -121.68,-213.58l52.63 13.69c263.08,58.43 393.66,1.67 546.63,-64.81 136.17,-59.18 287.65,-125.02 538.97,-142.44 321.69,-22.28 515.92,59.44 699.13,136.56 132.55,55.77 258.68,108.85 423.46,106.85 197.29,-2.42 368.39,-72.33 530.56,-138.59 162.5,-66.4 316.98,-129.52 495.15,-130.99 213.47,-1.77 371.38,60.62 527.05,122.12 181.78,71.82 360.13,142.28 620.4,79.07z"/>
 <path class="fil1p" d="M788.21 5520.75c0,-257.81 -208.99,-466.8 -466.8,-466.8 -257.8,0 -466.79,208.99 -466.79,466.8 0,257.8 208.99,466.79 466.79,466.79 257.81,0 466.8,-208.99 466.8,-466.79zm-129.33 678.16c85.53,-25.03 172.53,-37.06 226.53,-41.19 321.51,-24.64 515.93,59.44 699.14,136.56 132.56,55.77 258.68,108.85 423.47,106.85 197.27,-2.42 368.38,-72.33 530.55,-138.59 132.4,-54.1 259.48,-106.03 398.39,-124.2l-1377.22 -667.43 645.02 -645.65 1032.21 -0.68c320.27,-0.21 320.2,-484.39 0,-484.19l-1127.28 0.75c-73.51,0.04 -130.48,25.47 -169.99,65l-821.79 819.48 -459.03 973.29z"/>
 <path class="fil2p" d="M4796.54 6116.66c0,-1544.49 -1252.05,-2796.54 -2796.54,-2796.54 -673.67,0 -1291.7,238.22 -1774.43,635.02l3945.51 3924.07c391,-481 625.46,-1094.36 625.46,-1762.55zm-4967.62 -1762.55c-390.98,481.01 -625.46,1094.36 -625.46,1762.55 0,1544.49 1252.05,2796.54 2796.54,2796.54 673.67,0 1291.67,-238.25 1774.43,-635.03l-3945.51 -3924.06zm5671.08 1762.55c0,-1933 -1567,-3500 -3500,-3500 -1933,0 -3500,1567 -3500,3500 0,1933 1567,3500 3500,3500 1933,0 3500,-1567 3500,-3500z"/>
</symbol>
 <g id="Ebene_x0020_1">
  <metadata id="CorelCorpID_0Corel-Layer"/>
  <use id="ISO_x0020_7010_x0020_P049_0" transform="scale(0.571429 0.571429)" x="-0" y="-0" width="7000" height="7000" xlink:href="#ISO_x0020_7010_x0020_P049"/>
 </g>
</svg>
