<?xml version="1.0" encoding="UTF-8"?>
<!DOCTYPE svg PUBLIC "-//W3C//DTD SVG 1.1//EN" "http://www.w3.org/Graphics/SVG/1.1/DTD/svg11.dtd">
<!-- Creator: Corel DESIGNER -->
<svg xmlns="http://www.w3.org/2000/svg" xml:space="preserve" width="40mm" height="40mm" version="1.1" style="shape-rendering:geometricPrecision; text-rendering:geometricPrecision; image-rendering:optimizeQuality; fill-rule:evenodd; clip-rule:evenodd"
viewBox="0 0 2000 2000"
 xmlns:xlink="http://www.w3.org/1999/xlink"
 xmlns:xodm="http://www.corel.com/coreldraw/odm/2003">
 <defs>
  <style type="text/css">
   <![CDATA[
    .fil1p {fill:#0E1313}
    .fil2p {fill:#A1262D}
    .fil0p {fill:white}
   ]]>
  </style>
 </defs>
<symbol id="ISO_x0020_7010_x0020_P050" viewBox="-3750 1308.33 3500 3500">
 <circle class="fil0p" cx="-2000" cy="3058.33" r="1575"/>
 <path class="fil1p" d="M-1723.08 2527.59c-76.68,31.33 -157.6,64.39 -250.88,65.53 -77.92,0.95 -137.56,-24.15 -200.25,-50.53 -86.63,-36.46 -178.48,-75.11 -330.61,-64.57 -118.84,8.24 -190.47,39.38 -254.86,67.36 -72.34,31.43 -134.09,58.28 -258.48,30.64l-24.89 -6.47c5.51,42.45 5.37,93.72 57.54,101 119,16.56 185.67,-12.41 262.16,-45.65 57.36,-24.92 121.15,-52.66 224.82,-59.84 130.39,-9.03 212.02,25.32 289.05,57.74 71.3,30.01 139.12,58.54 236.56,57.36 111.09,-1.36 199.91,-37.64 284.06,-72.03 20.36,-8.32 40.43,-16.51 60.3,-23.95l0 -92.84c-31.57,10.51 -62.71,23.24 -94.51,36.23zm238.17 25.08c81.44,0.03 147.19,26.01 212.02,51.62 90.36,35.69 179.17,70.78 307.91,49.35 34,-8.6 40.09,-50.95 43.88,-98.92l-25.23 6.05c-123.08,29.89 -207.42,-3.42 -293.37,-37.39 -72.63,-28.68 -146.3,-57.8 -245.21,-57.76l0 87.05z"/>
 <path class="fil1p" d="M-1807.68 3000.01l-554.98 76.55c-47.96,6.62 -77.35,24.85 -105.39,59.19l-309.72 341.77 -391.78 -52.89c22.65,73.01 51.97,143.1 87.25,209.52 151.82,20.98 334.61,45.57 352.32,44.2 27.06,-2.1 46.26,-13.94 63.59,-33.06l247.67 -273.3c26.76,14.79 59.94,21.63 98.99,16.24l554.97 -76.56c72.5,-10 114.16,-55.05 128.77,-107.99l665.01 190.07c104.11,29.75 149.01,-127.66 44.92,-157.41l-817.76 -233.74 -63.87 -2.59zm411.41 -196.4c-14.48,-59.85 -62.52,-106.58 -123.07,-119.17l0 -373.53 -71.43 0 0 374.85c-69.94,17.28 -121.79,80.43 -121.79,155.71 0,72.72 48.38,134.12 114.71,153.79 0,0.01 166.52,46.92 181.71,51.2l64.82 -230.18 -44.94 -12.66z"/>
 <path class="fil2p" d="M-601.73 3058.33c0,-772.24 -626.03,-1398.27 -1398.27,-1398.27 -336.84,0 -645.85,119.11 -887.22,317.51l1972.76 1962.04c195.5,-240.5 312.73,-547.18 312.73,-881.28zm-2483.81 -881.28c-195.49,240.51 -312.73,547.18 -312.73,881.28 0,772.24 626.03,1398.27 1398.27,1398.27 336.84,0 645.84,-119.12 887.22,-317.52l-1972.76 -1962.03zm2835.54 881.28c0,-966.5 -783.5,-1750 -1750,-1750 -966.5,0 -1750,783.5 -1750,1750 0,966.5 783.5,1750 1750,1750 966.5,0 1750,-783.5 1750,-1750z"/>
</symbol>
 <g id="Ebene_x0020_1">
  <metadata id="CorelCorpID_0Corel-Layer"/>
  <use id="ISO_x0020_7010_x0020_P050_0" transform="scale(0.571429 0.571429)" x="-0" y="-0" width="3500" height="3500" xlink:href="#ISO_x0020_7010_x0020_P050"/>
 </g>
</svg>
