<?xml version="1.0" encoding="UTF-8"?>
<!DOCTYPE svg PUBLIC "-//W3C//DTD SVG 1.1//EN" "http://www.w3.org/Graphics/SVG/1.1/DTD/svg11.dtd">
<!-- Creator: Corel DESIGNER -->
<svg xmlns="http://www.w3.org/2000/svg" xml:space="preserve" width="40mm" height="40mm" version="1.1" style="shape-rendering:geometricPrecision; text-rendering:geometricPrecision; image-rendering:optimizeQuality; fill-rule:evenodd; clip-rule:evenodd"
viewBox="0 0 2000 2000"
 xmlns:xlink="http://www.w3.org/1999/xlink"
 xmlns:xodm="http://www.corel.com/coreldraw/odm/2003">
 <defs>
  <style type="text/css">
   <![CDATA[
    .fil1p {fill:#0E1313}
    .fil2p {fill:#A1262D}
    .fil0p {fill:white}
   ]]>
  </style>
 </defs>
<symbol id="ISO_x0020_7010_x0020_P061" viewBox="-3750 1308.33 3500 3500">
 <circle class="fil0p" cx="-2000" cy="3058.33" r="1575"/>
 <path class="fil1p" d="M-1411.7 3655.99c-45.05,-16.28 -92.55,-29.21 -148.14,-28.75 -59.99,0.49 -119.28,24.72 -181.65,50.2 -76.19,31.14 -156.62,63.99 -257.19,65.22 -88.21,1.07 -149.63,-24.76 -214.17,-51.93 -69.74,-29.35 -143.66,-60.45 -261.72,-52.28 -93.87,6.5 -151.63,31.61 -203.56,54.18 -69.26,30.09 -129.62,56.32 -237.36,41.32 -47.23,-6.57 -47.11,-53 -52.09,-91.44l22.53 5.86c112.63,25.02 168.54,0.72 234.05,-27.74 58.29,-25.33 123.15,-53.53 230.76,-60.97 137.74,-9.55 220.89,25.44 299.32,58.46 56.76,23.88 110.75,46.61 181.31,45.75 84.48,-1.04 157.72,-30.97 227.16,-59.34 69.58,-28.43 135.71,-55.45 212,-56.09 56.99,-0.47 104.74,9.74 148.78,23.88l0 -280.83 648.44 0c-71.57,381.99 -315.74,703.11 -648.44,879.42l0 -333.66c-45.05,-16.28 -92.55,-29.22 -148.14,-28.76 -59.99,0.5 -119.28,24.72 -181.65,50.21 -76.19,31.14 -156.62,63.99 -257.19,65.22 -88.21,1.08 -149.63,-24.78 -214.17,-51.93 -69.74,-29.35 -143.66,-60.46 -261.72,-52.28 -93.87,6.49 -151.63,31.61 -203.56,54.18 -69.26,30.09 -129.62,56.32 -237.36,41.33 -47.23,-6.59 -47.11,-53.01 -52.09,-91.45l22.53 5.87c112.63,25 168.54,0.71 234.05,-27.75 58.29,-25.35 123.15,-53.53 230.76,-60.99 137.74,-9.54 220.89,25.45 299.32,58.46 56.76,23.89 110.75,46.61 181.31,45.75 84.48,-1.03 157.72,-30.97 227.16,-59.34 69.58,-28.42 135.71,-55.45 212,-56.09 56.99,-0.47 104.74,9.74 148.78,23.88l0 -97.57z"/>
 <path class="fil1p" d="M-1577.18 2068.79c-16,-56.96 -75.13,-90.16 -132.09,-74.16 -56.97,15.99 -90.17,75.13 -74.18,132.09 16,56.96 75.13,90.17 132.09,74.17 56.97,-15.99 90.17,-75.13 74.18,-132.09zm352.76 66.97l-184.07 -182.73c-20.64,-20.5 -54.28,-20.45 -74.81,0.16 -20.53,20.62 -20.48,54.31 0.17,74.82l122.15 121.27 -165.58 46.49 -234 65.74c-3.05,0.84 -6.08,1.98 -9.02,3.41l-189.74 92.45 -97.44 -187.57c-13.41,-25.82 -45.56,-35.91 -71.35,-22.46 -25.81,13.44 -35.88,45.54 -22.47,71.35l119.37 229.78c12.11,28.02 44.79,39.27 71.83,26.62l227.66 -110.93 91.44 325.62 -233.26 176.88c-15.3,11.89 -24.25,29.58 -24.03,49.86l7.88 334.44c0.79,33.14 28.76,59.61 62.17,58.82 33.41,-0.8 60.11,-28.54 59.33,-61.68l-7.15 -303.38 196.35 -148.88 -77.99 156.87c-12.77,26.18 -5.11,57.43 17.24,75.13l264.7 204.57c26.23,20.26 64.41,15.21 84.84,-11.24 20.44,-26.44 15.7,-64.66 -10.53,-84.93l-225.25 -174.07 126.75 -254.91c6.72,-13.79 8.03,-29.09 4,-43.85l-102.71 -365.79 253.06 -71.07c38.77,-11.63 53.26,-62.18 20.47,-90.8z"/>
 <path class="fil2p" d="M-601.73 3058.33c0,-772.24 -626.03,-1398.27 -1398.27,-1398.27 -336.84,0 -645.85,119.11 -887.22,317.51l1972.76 1962.04c195.5,-240.5 312.73,-547.18 312.73,-881.28zm-2483.81 -881.28c-195.49,240.51 -312.73,547.18 -312.73,881.28 0,772.24 626.03,1398.27 1398.27,1398.27 336.84,0 645.84,-119.12 887.22,-317.52l-1972.76 -1962.03zm2835.54 881.28c0,-966.5 -783.5,-1750 -1750,-1750 -966.5,0 -1750,783.5 -1750,1750 0,966.5 783.5,1750 1750,1750 966.5,0 1750,-783.5 1750,-1750z"/>
</symbol>
 <g id="Ebene_x0020_1">
  <metadata id="CorelCorpID_0Corel-Layer"/>
  <use id="ISO_x0020_7010_x0020_P061_0" transform="scale(0.571429 0.571429)" x="-0" y="-0" width="3500" height="3500" xlink:href="#ISO_x0020_7010_x0020_P061"/>
 </g>
</svg>
