<?xml version="1.0" encoding="UTF-8"?>
<!DOCTYPE svg PUBLIC "-//W3C//DTD SVG 1.1//EN" "http://www.w3.org/Graphics/SVG/1.1/DTD/svg11.dtd">
<!-- Creator: Corel DESIGNER -->
<svg xmlns="http://www.w3.org/2000/svg" xml:space="preserve" width="40mm" height="40mm" version="1.1" style="shape-rendering:geometricPrecision; text-rendering:geometricPrecision; image-rendering:optimizeQuality; fill-rule:evenodd; clip-rule:evenodd"
viewBox="0 0 1000 1000"
 xmlns:xlink="http://www.w3.org/1999/xlink"
 xmlns:xodm="http://www.corel.com/coreldraw/odm/2003">
 <defs>
  <style type="text/css">
   <![CDATA[
    .fil1p {fill:#0E1313}
    .fil2p {fill:#A1262D}
    .fil0p {fill:white}
   ]]>
  </style>
 </defs>
<symbol id="ISO_x0020_7010_x0020_P062" viewBox="1125 -904.17 1750 1750">
 <circle class="fil0p" cx="2000" cy="-29.17" r="787.5"/>
 <path class="fil1p" d="M1409.37 131.48l353.89 0 0 403.84c-172.17,-72.31 -304.3,-221.09 -353.89,-403.84z"/>
 <path class="fil1p" d="M2394.07 381.32l6.86 -2.47c-1.03,19.52 -2.69,36.75 -11.92,40.25 -34.97,8.72 -59.08,-5.56 -83.62,-20.08 -17.84,-10.56 -35.94,-21.28 -58.48,-21 -17.99,0.23 -35.78,11.11 -54.48,22.56 -22.86,13.99 -46.97,28.75 -77.14,29.31 -26.46,0.49 -44.88,-11.13 -64.24,-23.33 -20.92,-13.19 -43.09,-27.17 -78.5,-23.49 -28.15,2.92 -45.48,14.2 -61.06,24.34 -20.77,13.52 -38.88,25.31 -71.19,18.57 -14.17,-2.96 -14.13,-23.81 -15.62,-41.09l6.76 2.63c33.79,11.24 50.55,0.32 70.2,-12.47 17.49,-11.39 36.94,-24.06 69.22,-27.41 41.31,-4.28 66.25,11.44 89.78,26.27 17.03,10.73 33.22,20.94 54.38,20.56 25.34,-0.46 47.31,-13.92 68.13,-26.67 20.87,-12.77 40.71,-24.92 63.59,-25.2 27.41,-0.34 47.69,11.66 67.68,23.5 23.34,13.82 46.25,27.38 79.67,15.21zm0 -81.45l6.86 -2.47c-1.03,19.52 -2.69,36.75 -11.92,40.24 -34.97,8.72 -59.08,-5.55 -83.62,-20.07 -17.84,-10.56 -35.94,-21.27 -58.48,-21 -17.99,0.22 -35.78,11.11 -54.48,22.56 -22.86,13.99 -46.97,28.75 -77.14,29.3 -26.46,0.49 -44.88,-11.13 -64.24,-23.33 -20.92,-13.19 -43.09,-27.17 -78.5,-23.49 -28.15,2.92 -45.48,14.21 -61.06,24.35 -20.77,13.52 -38.88,25.31 -71.19,18.57 -14.17,-2.95 -14.13,-23.81 -15.62,-41.09l6.76 2.63c33.79,11.24 50.55,0.32 70.2,-12.47 17.49,-11.38 36.94,-24.05 69.22,-27.4 41.31,-4.29 66.25,11.43 89.78,26.27 17.03,10.73 33.22,20.94 54.38,20.56 25.34,-0.46 47.31,-13.91 68.13,-26.66 20.87,-12.78 40.71,-24.92 63.59,-25.2 27.41,-0.34 47.69,11.66 67.68,23.5 23.34,13.82 46.25,27.37 79.67,15.21z"/>
 <path id="Head" class="fil1p" d="M2436.83 -259.16c22.54,-18.64 25.7,-52.02 7.05,-74.56 -18.64,-22.54 -52.02,-25.69 -74.56,-7.06 -22.54,18.64 -25.69,52.02 -7.05,74.56 18.64,22.54 52.02,25.7 74.56,7.06zm-232.28 201.36c-0.92,0.73 -1.86,1.42 -2.82,2.09l-130.42 85.56 -58.33 144.65c-6.13,15.2 -23.68,22.58 -39,16.4 -15.32,-6.18 -22.84,-23.67 -16.72,-38.86l61.85 -153.38c2.26,-5.65 6.34,-10.5 11.38,-13.88l110.38 -72.42 -6.19 -7.49 -139.38 17.6 -121.61 98.96c-12.71,10.34 -31.64,8.32 -42.07,-4.49 -10.43,-12.81 -8.56,-31.76 4.14,-42.11l128.27 -104.39c4.4,-3.52 9.54,-5.76 15.2,-6.5l155.06 -19.57 133.75 -110.62 -107.33 -28.27c-18.75,-4.83 -26.59,-28.42 -12.66,-43.22l80.76 -99.41c9.07,-11.16 25.61,-12.91 36.78,-3.86 11.18,9.06 12.93,25.62 3.86,36.78l-56.39 69.41 86.34 22.74c5.51,1.45 10.16,4.58 13.53,8.69l76.63 92.55c-0.01,0.01 0.91,1.17 1.17,1.53l75.49 105.75c5.05,7.3 6.15,16.12 3.15,24.39l-45.49 121.72c-5.03,13.47 -20.2,20.35 -33.67,15.3 -13.47,-5.05 -20.33,-20.2 -15.3,-33.67l40.62 -108.7 -66.34 -92.93 -144.68 119.66z"/>
 <path id="Head_0" class="fil1p" d="M1689.23 -533.89c7.91,-28.16 37.14,-44.57 65.3,-36.67 28.16,7.91 44.57,37.14 36.66,65.3 -7.9,28.16 -37.14,44.58 -65.3,36.67 -28.16,-7.91 -44.57,-37.14 -36.67,-65.3zm-91.07 303.8l7.83 152.81 -102.06 113.98c-10.93,12.2 -9.8,31.21 2.5,42.23 12.31,11.02 31.32,10.05 42.25,-2.16l110.32 -123.2c5.27,-5.99 7.94,-13.61 7.62,-21.58l-6.33 -123.6 5.22 1.47 66.35 119.39 -71.26 130.68c-7.99,14.64 -1.71,33.49 12.11,40.54 13.82,7.05 34.11,0.2 40.64,-11.77l79.18 -145.19c4.8,-9.07 4.88,-19.73 -0.12,-28.98l-74.19 -133.51 28.54 -101.64 2.91 -10.37 138.64 38.15c13.87,3.81 28.33,-4.45 32.13,-18.32 3.8,-13.88 -4.45,-28.32 -18.32,-32.13l-138.31 -38.06 1.94 -6.93 34.68 9.74c4.77,1.34 9.45,1.28 14.22,-0.03l124.96 -35.61c13.83,-3.94 21.95,-18.46 18.02,-32.3 -3.92,-13.84 -18.46,-21.97 -32.29,-18.03l-117.9 33.61 -118.15 -33.18c-13.8,-3.87 -28.25,4.24 -32.12,18.04l-57.88 206.1c-0.88,3.19 -1.28,6.53 -1.13,9.84z"/>
 <path class="fil2p" d="M2699.14 -29.17c0,-386.12 -313.01,-699.13 -699.14,-699.13 -168.42,0 -322.92,59.55 -443.61,158.75l986.38 981.02c97.75,-120.25 156.37,-273.59 156.37,-440.64zm-1241.91 -440.64c-97.74,120.25 -156.37,273.59 -156.37,440.64 0,386.12 313.01,699.13 699.13,699.13 168.42,0 322.92,-59.56 443.61,-158.76l-986.38 -981.02zm1417.77 440.64c0,-483.25 -391.75,-875 -875,-875 -483.25,0 -875,391.75 -875,875 0,483.25 391.75,875 875,875 483.25,0 875,-391.75 875,-875z"/>
</symbol>
 <g id="Ebene_x0020_1">
  <metadata id="CorelCorpID_0Corel-Layer"/>
  <use id="ISO_x0020_7010_x0020_P062_1" transform="scale(0.571429 0.571429)" x="-0" y="-0" width="1750" height="1750" xlink:href="#ISO_x0020_7010_x0020_P062"/>
 </g>
</svg>
