<?xml version="1.0" encoding="UTF-8"?>
<!DOCTYPE svg PUBLIC "-//W3C//DTD SVG 1.1//EN" "http://www.w3.org/Graphics/SVG/1.1/DTD/svg11.dtd">
<!-- Creator: Corel DESIGNER -->
<svg xmlns="http://www.w3.org/2000/svg" xml:space="preserve" width="40mm" height="40mm" version="1.1" style="shape-rendering:geometricPrecision; text-rendering:geometricPrecision; image-rendering:optimizeQuality; fill-rule:evenodd; clip-rule:evenodd"
viewBox="0 0 4000 4000"
 xmlns:xlink="http://www.w3.org/1999/xlink"
 xmlns:xodm="http://www.corel.com/coreldraw/odm/2003">
 <defs>
  <style type="text/css">
   <![CDATA[
    .fil1p {fill:#0E1313}
    .fil2p {fill:#A1262D}
    .fil0p {fill:white}
   ]]>
  </style>
 </defs>
<symbol id="ISO_x0020_7010_x0020_P068" viewBox="-1500 8850 7000 7000">
 <circle class="fil0p" cx="2000" cy="12350" r="3150"/>
 <path class="fil1p" d="M3312.19 11248.1c0,-124.64 -50.53,-237.5 -132.2,-319.17 -81.67,-81.67 -194.53,-132.2 -319.17,-132.2 -124.65,0 -237.51,50.53 -319.17,132.2 -81.67,81.67 -132.2,194.53 -132.2,319.17 0,124.64 50.53,237.5 132.2,319.17 81.67,81.67 194.53,132.2 319.17,132.2 124.64,0 237.5,-50.53 319.17,-132.2 81.67,-81.67 132.2,-194.53 132.2,-319.17zm-61.5 -389.87c99.77,99.77 161.5,237.62 161.5,389.87 0,152.25 -61.73,290.1 -161.5,389.87 -99.77,99.77 -237.62,161.5 -389.87,161.5 -152.25,0 -290.1,-61.73 -389.87,-161.5 -99.77,-99.77 -161.5,-237.62 -161.5,-389.87 0,-152.25 61.73,-290.1 161.5,-389.87 99.76,-99.77 237.64,-161.5 389.87,-161.5 152.25,0 290.1,61.73 389.87,161.5zm303.86 339.87l453.36 0 0 100 -453.36 0 0 -100zm-161.78 -398.21l366.76 -266.46 58.6 80.86 -366.76 266.46 -58.6 -80.86zm-365.04 -227l140.1 -431.18 94.92 30.86 -140.1 431.18 -94.92 -30.86zm-428.75 30.86l-140.1 -431.18 94.92 -30.86 140.1 431.18 -94.92 30.86zm-328.72 277l-366.76 -266.46 58.6 -80.86 366.76 266.46 -58.6 80.86zm-103.19 417.35l-453.35 0 0 -100 453.35 0 0 100zm161.79 398.2l-366.76 266.47 -58.6 -80.86 366.76 -266.47 58.6 80.86zm365.04 227.01l-140.1 431.17 -94.92 -30.86 140.1 -431.17 94.92 30.86zm428.75 -30.86l140.1 431.17 -94.92 30.86 -140.1 -431.17 94.92 -30.86zm328.72 -277.01l366.76 266.47 -58.6 80.86 -366.76 -266.47 58.6 -80.86z"/>
 <path class="fil1p" d="M341.72 14124.71l1717.42 0 0 163.8 -1717.42 0 0 -163.8zm451.39 -1448.75c-50.36,100.17 -93.27,196.11 -101.85,295.3 -8.36,96.53 15.92,199.65 98.34,319.28 96.63,140.26 135.42,265.04 130.58,383.64 -4.84,118.78 -53.16,228.24 -130.78,338.76l-81.64 -57.42c67.15,-95.61 108.87,-188.23 112.82,-285.24 3.97,-97.17 -29.62,-202.05 -113.02,-323.1 -97.6,-141.65 -126.15,-266.24 -115.9,-384.52 10.01,-115.62 57.15,-221.74 112.39,-331.62l89.06 44.92zm857.25 0c-50.36,100.17 -93.27,196.11 -101.85,295.3 -8.35,96.53 15.92,199.66 98.34,319.28 96.63,140.26 135.42,265.04 130.58,383.64 -4.84,118.78 -53.16,228.24 -130.78,338.76l-81.64 -57.42c67.15,-95.61 108.87,-188.23 112.82,-285.24 3.97,-97.17 -29.62,-202.05 -113.02,-323.1 -97.61,-141.66 -126.14,-266.24 -115.9,-384.52 10.01,-115.62 57.15,-221.74 112.39,-331.62l89.06 44.92zm-428.62 0c-50.36,100.17 -93.27,196.11 -101.85,295.3 -8.35,96.53 15.92,199.65 98.34,319.28 96.63,140.27 135.42,265.04 130.58,383.65 -4.84,118.79 -53.17,228.24 -130.78,338.75l-81.64 -57.42c67.14,-95.6 108.87,-188.21 112.82,-285.23 3.97,-97.18 -29.62,-202.05 -113.02,-323.11 -97.6,-141.67 -126.14,-266.24 -115.9,-384.52 10.01,-115.62 57.15,-221.74 112.39,-331.62l89.06 44.92z"/>
 <path class="fil2p" d="M4796.54 12350c0,-1544.49 -1252.05,-2796.54 -2796.54,-2796.54 -673.67,0 -1291.7,238.22 -1774.43,635.02l3945.51 3924.07c391,-481 625.46,-1094.36 625.46,-1762.55zm-4967.62 -1762.56c-390.98,481.02 -625.46,1094.37 -625.46,1762.56 0,1544.49 1252.05,2796.54 2796.54,2796.54 673.67,0 1291.67,-238.25 1774.43,-635.03l-3945.51 -3924.07zm5671.08 1762.56c0,-1933 -1567,-3500 -3500,-3500 -1933,0 -3500,1567 -3500,3500 0,1933 1567,3500 3500,3500 1933,0 3500,-1567 3500,-3500z"/>
</symbol>
 <g id="Ebene_x0020_1">
  <metadata id="CorelCorpID_0Corel-Layer"/>
  <use id="ISO_x0020_7010_x0020_P068_0" transform="scale(0.571429 0.571429)" x="-0" y="-0" width="7000" height="7000" xlink:href="#ISO_x0020_7010_x0020_P068"/>
 </g>
</svg>
