<?xml version="1.0" encoding="UTF-8"?>
<!DOCTYPE svg PUBLIC "-//W3C//DTD SVG 1.1//EN" "http://www.w3.org/Graphics/SVG/1.1/DTD/svg11.dtd">
<!-- Creator: Corel DESIGNER -->
<svg xmlns="http://www.w3.org/2000/svg" xml:space="preserve" width="40mm" height="40mm" version="1.1" style="shape-rendering:geometricPrecision; text-rendering:geometricPrecision; image-rendering:optimizeQuality; fill-rule:evenodd; clip-rule:evenodd"
viewBox="0 0 1000 1000"
 xmlns:xlink="http://www.w3.org/1999/xlink"
 xmlns:xodm="http://www.corel.com/coreldraw/odm/2003">
 <defs>
  <style type="text/css">
   <![CDATA[
    .fil1p {fill:#0E1313}
    .fil2p {fill:#A1262D}
    .fil0p {fill:white}
   ]]>
  </style>
 </defs>
<symbol id="ISO_x0020_7010_x0020_P070" viewBox="1125 654.16 1750 1750">
 <circle class="fil0p" cx="2000" cy="1529.16" r="787.5"/>
 <path class="fil1p" d="M2233.6 1984.88c0,-3.53 -1.43,-6.73 -3.74,-9.04 -2.31,-2.31 -5.51,-3.75 -9.04,-3.75 -3.53,0 -6.73,1.43 -9.04,3.75 -2.31,2.31 -3.75,5.51 -3.75,9.04 0,3.53 1.43,6.73 3.75,9.04 2.31,2.31 5.51,3.74 9.04,3.74 3.53,0 6.73,-1.43 9.04,-3.74 2.31,-2.31 3.74,-5.51 3.74,-9.04zm8.63 -21.41c5.48,5.48 8.87,13.05 8.87,21.41 0,8.36 -3.39,15.93 -8.87,21.41 -5.48,5.48 -13.06,8.87 -21.41,8.87 -8.36,0 -15.93,-3.39 -21.41,-8.87 -5.48,-5.48 -8.87,-13.06 -8.87,-21.41 0,-8.36 3.39,-15.93 8.87,-21.41 5.48,-5.48 13.05,-8.87 21.41,-8.87 8.36,0 15.93,3.39 21.41,8.87zm-74.78 91.53c0,-3.53 -1.43,-6.73 -3.74,-9.04 -2.31,-2.31 -5.51,-3.74 -9.04,-3.74 -3.53,0 -6.73,1.43 -9.04,3.74 -2.31,2.31 -3.75,5.51 -3.75,9.04 0,3.53 1.43,6.73 3.75,9.04 2.31,2.31 5.51,3.74 9.04,3.74 3.53,0 6.73,-1.43 9.04,-3.74 2.31,-2.31 3.74,-5.51 3.74,-9.04zm8.63 -21.41c5.48,5.48 8.87,13.06 8.87,21.41 0,8.36 -3.39,15.93 -8.87,21.42 -5.48,5.48 -13.06,8.87 -21.41,8.87 -8.36,0 -15.93,-3.39 -21.41,-8.87 -5.48,-5.48 -8.87,-13.06 -8.87,-21.42 0,-8.36 3.39,-15.93 8.87,-21.41 5.48,-5.48 13.05,-8.87 21.41,-8.87 8.36,0 15.93,3.39 21.41,8.87zm-289.6 -1135.38c40.33,81.23 89.34,151.81 147.82,210.85 58.38,58.94 126.32,106.49 204.6,141.78l-10.26 22.76c-81.09,-36.55 -151.48,-85.83 -212.02,-146.95 -60.44,-61.02 -111,-133.77 -152.51,-217.39l22.37 -11.03zm-155.77 133.97c58.77,54.72 117.64,99.01 176.59,133.01 58.73,33.86 117.67,57.59 176.8,71.29l-5.57 24.32c-61.45,-14.24 -122.67,-38.88 -183.63,-74.03 -60.75,-35.03 -121.15,-80.43 -181.18,-136.33l16.99 -18.26zm-233.19 128.35c104.74,66.23 202.5,107.39 304.77,135.35 102.54,28.04 210.07,42.91 333.81,56.5l-2.64 24.8c-124.77,-13.69 -233.37,-28.75 -337.72,-57.28 -104.63,-28.61 -204.57,-70.66 -311.5,-138.28l13.28 -21.1zm594.52 -136.07c0,-3.53 -1.43,-6.73 -3.74,-9.04 -2.31,-2.31 -5.51,-3.75 -9.04,-3.75 -3.53,0 -6.73,1.43 -9.04,3.75 -2.31,2.31 -3.74,5.51 -3.74,9.04 0,3.53 1.43,6.73 3.74,9.04 2.31,2.31 5.51,3.74 9.04,3.74 3.53,0 6.73,-1.43 9.04,-3.74 2.31,-2.31 3.74,-5.51 3.74,-9.04zm8.63 -21.42c5.48,5.48 8.87,13.06 8.87,21.42 0,8.36 -3.39,15.93 -8.87,21.41 -5.48,5.48 -13.05,8.87 -21.41,8.87 -8.36,0 -15.93,-3.39 -21.41,-8.87 -5.48,-5.48 -8.87,-13.06 -8.87,-21.41 0,-8.36 3.39,-15.94 8.87,-21.42 5.48,-5.48 13.05,-8.87 21.41,-8.87 8.36,0 15.93,3.39 21.41,8.87zm68.1 127.25c0,-3.53 -1.43,-6.73 -3.75,-9.04 -2.31,-2.31 -5.51,-3.75 -9.04,-3.75 -3.53,0 -6.73,1.43 -9.04,3.75 -2.31,2.31 -3.74,5.51 -3.74,9.04 0,3.53 1.43,6.73 3.74,9.04 2.31,2.31 5.51,3.74 9.04,3.74 3.53,0 6.73,-1.43 9.04,-3.74 2.31,-2.31 3.75,-5.51 3.75,-9.04zm8.63 -21.41c5.48,5.48 8.87,13.05 8.87,21.41 0,8.36 -3.39,15.93 -8.87,21.41 -5.48,5.48 -13.05,8.87 -21.41,8.87 -8.36,0 -15.93,-3.39 -21.41,-8.87 -5.48,-5.48 -8.87,-13.06 -8.87,-21.41 0,-8.36 3.39,-15.93 8.87,-21.41 5.48,-5.48 13.06,-8.87 21.41,-8.87 8.36,0 15.93,3.39 21.41,8.87zm85.3 -1.08c0,-3.53 -1.43,-6.73 -3.74,-9.04 -2.31,-2.31 -5.51,-3.74 -9.04,-3.74 -3.53,0 -6.73,1.43 -9.04,3.74 -2.31,2.31 -3.75,5.51 -3.75,9.04 0,3.53 1.43,6.73 3.75,9.04 2.31,2.31 5.51,3.74 9.04,3.74 3.53,0 6.73,-1.43 9.04,-3.74 2.31,-2.31 3.74,-5.51 3.74,-9.04zm8.63 -21.42c5.48,5.48 8.87,13.06 8.87,21.42 0,8.36 -3.39,15.93 -8.87,21.41 -5.48,5.48 -13.05,8.87 -21.41,8.87 -8.36,0 -15.93,-3.39 -21.41,-8.87 -5.48,-5.48 -8.87,-13.06 -8.87,-21.41 0,-8.36 3.39,-15.94 8.87,-21.42 5.48,-5.48 13.05,-8.87 21.41,-8.87 8.36,0 15.93,3.39 21.41,8.87zm-331.42 5.54c0,-3.53 -1.43,-6.73 -3.74,-9.04 -2.31,-2.31 -5.51,-3.74 -9.04,-3.74 -3.53,0 -6.73,1.43 -9.04,3.74 -2.31,2.31 -3.74,5.51 -3.74,9.04 0,3.53 1.43,6.73 3.74,9.04 2.31,2.31 5.51,3.74 9.04,3.74 3.53,0 6.73,-1.43 9.04,-3.74 2.31,-2.31 3.74,-5.51 3.74,-9.04zm8.63 -21.42c5.48,5.48 8.87,13.06 8.87,21.42 0,8.36 -3.39,15.93 -8.87,21.41 -5.48,5.48 -13.06,8.87 -21.41,8.87 -8.36,0 -15.94,-3.39 -21.42,-8.87 -5.48,-5.48 -8.87,-13.06 -8.87,-21.41 0,-8.36 3.39,-15.94 8.87,-21.42 5.48,-5.48 13.06,-8.87 21.42,-8.87 8.36,0 15.93,3.39 21.41,8.87zm-117.11 -20.92c0,-3.53 -1.43,-6.73 -3.74,-9.04 -2.31,-2.31 -5.51,-3.74 -9.04,-3.74 -3.53,0 -6.73,1.43 -9.04,3.74 -2.31,2.31 -3.74,5.51 -3.74,9.04 0,3.53 1.43,6.73 3.74,9.04 2.31,2.31 5.51,3.74 9.04,3.74 3.53,0 6.73,-1.43 9.04,-3.74 2.31,-2.31 3.74,-5.51 3.74,-9.04zm8.63 -21.41c5.48,5.48 8.87,13.06 8.87,21.41 0,8.36 -3.39,15.94 -8.87,21.42 -5.48,5.48 -13.06,8.87 -21.41,8.87 -8.36,0 -15.94,-3.39 -21.42,-8.87 -5.48,-5.48 -8.87,-13.06 -8.87,-21.42 0,-8.36 3.39,-15.93 8.87,-21.41 5.48,-5.48 13.06,-8.87 21.42,-8.87 8.36,0 15.93,3.39 21.41,8.87zm-241.46 292.61c0,-3.53 -1.43,-6.73 -3.74,-9.04 -2.31,-2.31 -5.51,-3.75 -9.04,-3.75 -3.53,0 -6.73,1.43 -9.04,3.75 -2.31,2.31 -3.74,5.51 -3.74,9.04 0,3.53 1.43,6.73 3.74,9.04 2.31,2.31 5.51,3.74 9.04,3.74 3.53,0 6.73,-1.43 9.04,-3.74 2.31,-2.31 3.74,-5.51 3.74,-9.04zm8.63 -21.41c5.48,5.48 8.87,13.05 8.87,21.41 0,8.36 -3.39,15.93 -8.87,21.41 -5.48,5.48 -13.06,8.87 -21.41,8.87 -8.36,0 -15.94,-3.39 -21.42,-8.87 -5.48,-5.48 -8.87,-13.06 -8.87,-21.41 0,-8.36 3.39,-15.94 8.87,-21.41 5.48,-5.48 13.06,-8.87 21.42,-8.87 8.36,0 15.93,3.39 21.41,8.87zm-89.33 90.21c0,-3.53 -1.43,-6.73 -3.75,-9.04 -2.31,-2.31 -5.51,-3.74 -9.04,-3.74 -3.53,0 -6.73,1.43 -9.04,3.74 -2.31,2.31 -3.74,5.51 -3.74,9.04 0,3.53 1.43,6.73 3.74,9.04 2.31,2.31 5.51,3.74 9.04,3.74 3.53,0 6.73,-1.43 9.04,-3.74 2.31,-2.31 3.75,-5.51 3.75,-9.04zm8.63 -21.42c5.48,5.48 8.87,13.06 8.87,21.42 0,8.36 -3.39,15.93 -8.87,21.41 -5.48,5.48 -13.05,8.87 -21.41,8.87 -8.36,0 -15.93,-3.39 -21.41,-8.87 -5.48,-5.48 -8.87,-13.06 -8.87,-21.41 0,-8.36 3.39,-15.94 8.87,-21.42 5.48,-5.48 13.06,-8.87 21.41,-8.87 8.36,0 15.94,3.39 21.41,8.87zm504.66 -69.87c0,-3.53 -1.43,-6.73 -3.74,-9.04 -2.31,-2.31 -5.51,-3.74 -9.04,-3.74 -3.53,0 -6.73,1.43 -9.04,3.74 -2.31,2.31 -3.74,5.51 -3.74,9.04 0,3.53 1.43,6.73 3.74,9.04 2.31,2.31 5.51,3.74 9.04,3.74 3.53,0 6.73,-1.43 9.04,-3.74 2.31,-2.31 3.74,-5.51 3.74,-9.04zm8.63 -21.42c5.48,5.48 8.87,13.06 8.87,21.42 0,8.36 -3.39,15.93 -8.87,21.41 -5.48,5.48 -13.06,8.87 -21.42,8.87 -8.36,0 -15.93,-3.39 -21.41,-8.87 -5.48,-5.48 -8.87,-13.06 -8.87,-21.41 0,-8.36 3.39,-15.94 8.87,-21.42 5.48,-5.48 13.06,-8.87 21.41,-8.87 8.36,0 15.94,3.39 21.42,8.87zm107.79 -6.37c0,-3.53 -1.43,-6.73 -3.74,-9.04 -2.31,-2.31 -5.51,-3.75 -9.04,-3.75 -3.53,0 -6.73,1.43 -9.04,3.75 -2.31,2.31 -3.74,5.51 -3.74,9.04 0,3.53 1.43,6.73 3.74,9.04 2.31,2.31 5.51,3.74 9.04,3.74 3.53,0 6.73,-1.43 9.04,-3.74 2.31,-2.31 3.74,-5.51 3.74,-9.04zm8.63 -21.41c5.48,5.48 8.87,13.05 8.87,21.41 0,8.36 -3.39,15.93 -8.87,21.41 -5.48,5.48 -13.05,8.87 -21.41,8.87 -8.36,0 -15.93,-3.39 -21.41,-8.87 -5.48,-5.48 -8.87,-13.06 -8.87,-21.41 0,-8.36 3.39,-15.93 8.87,-21.41 5.48,-5.48 13.05,-8.87 21.41,-8.87 8.36,0 15.93,3.39 21.41,8.87zm58.84 141.8c0,-3.53 -1.43,-6.73 -3.74,-9.04 -2.31,-2.31 -5.51,-3.74 -9.04,-3.74 -3.53,0 -6.73,1.43 -9.04,3.74 -2.31,2.31 -3.75,5.51 -3.75,9.04 0,3.53 1.43,6.73 3.75,9.04 2.31,2.31 5.51,3.74 9.04,3.74 3.53,0 6.73,-1.43 9.04,-3.74 2.31,-2.31 3.74,-5.51 3.74,-9.04zm8.63 -21.42c5.48,5.48 8.87,13.06 8.87,21.42 0,8.36 -3.39,15.93 -8.87,21.41 -5.48,5.48 -13.06,8.87 -21.41,8.87 -8.36,0 -15.93,-3.39 -21.41,-8.87 -5.48,-5.48 -8.87,-13.06 -8.87,-21.41 0,-8.36 3.39,-15.94 8.87,-21.42 5.48,-5.48 13.05,-8.87 21.41,-8.87 8.36,0 15.93,3.39 21.41,8.87z"/>
 <path class="fil1p" d="M1915.77 1776.65c4.05,-55.26 42.12,-102.83 96.6,-118.06l-55.02 1.66c-60.17,1.81 -108.13,50.97 -109.12,110.55 -0.03,2.13 0.72,3.98 2.24,5.48 1.52,1.5 3.38,2.23 5.51,2.17l59.8 -1.8zm229.65 -179.11l-179.82 10.06 62.69 32.01 -1.64 36.13c-58.79,11.29 -98.33,66.97 -90.25,125.77 0.29,2.11 1.32,3.82 3.05,5.07 1.73,1.25 3.68,1.69 5.78,1.3l161 -29.86c18.52,-3.43 31.83,-18.72 32.69,-37.54l6.5 -142.96zm113.43 33.79c14.76,58.21 39.48,106.17 70.1,139.45 29.67,32.27 64.84,50.55 101.53,50.55 50.24,0 96.18,-33.73 129.85,-88.26 34.77,-56.3 56.27,-134.39 56.27,-220.91 0,-86.52 -21.51,-164.61 -56.27,-220.91 -33.67,-54.53 -79.61,-88.26 -129.85,-88.26 -34.42,0 -67.61,16.11 -96.17,44.92 -29.34,29.6 -53.77,72.42 -69.87,125.01l-22.83 -10.45c17.32,-55.11 43.51,-100.35 75.02,-132.13 33.28,-33.57 72.54,-52.34 113.84,-52.34 59.46,0 112.83,38.28 151.04,100.17 37.12,60.11 60.08,142.87 60.08,234 0,91.13 -22.96,173.88 -60.08,234 -38.21,61.89 -91.58,100.17 -151.04,100.17 -43.96,0 -85.45,-21.21 -119.89,-58.65 -32.78,-35.64 -59.22,-86.18 -75.12,-147.05l23.38 -9.3zm134.14 4.08l86.84 44.55c2.03,-3.26 4,-6.66 5.91,-10.18 22.18,-40.83 35.89,-97.56 35.89,-160.52 0,-62.96 -13.72,-119.7 -35.89,-160.52 -3.73,-6.87 -7.69,-13.26 -11.85,-19.14l-82.33 46.67c10.73,7.55 20.07,19.91 27.4,35.8 11.25,24.36 18.2,57.72 18.2,94.29 0,36.57 -6.96,69.93 -18.2,94.29 -7.01,15.18 -15.84,27.14 -25.98,34.77zm72.02 64.93l-115.53 -59.27c-7.76,-3.51 -14.93,-9.4 -21.33,-17.29 -11.51,-14.18 -20,-34.68 -24.24,-52.34l-398.56 22.6c-91.45,71.6 -112.67,146.07 -77.51,222.84l124.01 29.07 79.38 -23.14c105.83,-30.85 150.88,33.64 172.53,89.03l-243.45 66.57c-49.79,13.62 -93.7,20.02 -145.31,21.18l-234.61 5.3c-107.48,-94.89 -182.57,-225.62 -206.53,-373.51l263.9 -207.8c24.71,-19.46 52.56,-27.88 83.91,-25.33l581.16 47.35c3.43,-17.7 12.98,-40.76 24.07,-55.09 6.11,-7.9 12.95,-13.95 20.36,-17.79l110.28 -62.52c-15.57,-15.25 -33.03,-23.88 -51.3,-23.88 -19.12,0 -37.86,9.67 -54.5,27.19 -17.63,18.58 -32.77,45.68 -43.64,79.42l-22.78 -10.43c12.01,-36.13 28.75,-65.52 48.36,-86.17 21.42,-22.56 46.34,-35.01 72.56,-35.01 40.24,0 76.03,28.86 101.37,75.5 24.11,44.38 39.02,105.37 39.02,172.44 0,67.06 -14.91,128.05 -39.02,172.44 -25.34,46.64 -61.13,75.5 -101.37,75.5 -28.01,0 -54.46,-14.19 -76.74,-39.6 -20.22,-23.07 -37.09,-55.6 -48.4,-95.12l23.32 -9.28c10.31,37.08 25.6,67.2 43.83,87.99 17.44,19.89 37.45,31.01 57.99,31.01 21.25,0 41.4,-11.66 58.76,-31.85zm-135.74 -130.34c4.63,15.93 10.9,29.04 18.22,38.05 6.07,7.48 12.6,11.75 19.04,11.75 10.74,0 21.34,-11.32 29.79,-29.62 3.34,-7.24 6.25,-15.47 8.63,-24.48l-75.67 4.29zm77.4 -115.94c-2.64,-11.8 -6.15,-22.44 -10.36,-31.55 -8.45,-18.3 -19.04,-29.62 -29.79,-29.62 -6.75,0 -13.6,4.69 -19.9,12.85 -7.68,9.92 -14.14,24.4 -18.7,41.89l78.74 6.42z"/>
 <path class="fil2p" d="M2699.14 1529.16c0,-386.12 -313.01,-699.13 -699.14,-699.13 -168.42,0 -322.92,59.55 -443.61,158.75l986.38 981.02c97.75,-120.25 156.37,-273.59 156.37,-440.64zm-1241.91 -440.64c-97.74,120.25 -156.37,273.59 -156.37,440.64 0,386.12 313.01,699.14 699.13,699.14 168.42,0 322.92,-59.56 443.61,-158.76l-986.38 -981.02zm1417.77 440.64c0,-483.25 -391.75,-875 -875,-875 -483.25,0 -875,391.75 -875,875 0,483.25 391.75,875 875,875 483.25,0 875,-391.75 875,-875z"/>
</symbol>
 <g id="Ebene_x0020_1">
  <metadata id="CorelCorpID_0Corel-Layer"/>
  <use id="ISO_x0020_7010_x0020_P070_0" transform="scale(0.571429 0.571429)" x="-0" y="-0" width="1750" height="1750" xlink:href="#ISO_x0020_7010_x0020_P070"/>
 </g>
</svg>
