<?xml version="1.0" encoding="UTF-8"?>
<!DOCTYPE svg PUBLIC "-//W3C//DTD SVG 1.1//EN" "http://www.w3.org/Graphics/SVG/1.1/DTD/svg11.dtd">
<!-- Creator: Corel DESIGNER -->
<svg xmlns="http://www.w3.org/2000/svg" xml:space="preserve" width="40mm" height="40mm" version="1.1" style="shape-rendering:geometricPrecision; text-rendering:geometricPrecision; image-rendering:optimizeQuality; fill-rule:evenodd; clip-rule:evenodd"
viewBox="0 0 4000 4000"
 xmlns:xlink="http://www.w3.org/1999/xlink"
 xmlns:xodm="http://www.corel.com/coreldraw/odm/2003">
 <defs>
  <style type="text/css">
   <![CDATA[
    .fil1p {fill:#0E1313}
    .fil2p {fill:#A1262D}
    .fil0p {fill:white}
   ]]>
  </style>
 </defs>
<symbol id="ISO_x0020_7010_x0020_P071" viewBox="-1500 2616.66 7000 7000">
 <circle class="fil0p" cx="2000" cy="6116.66" r="3150"/>
 <path id="Fore_x0020_arm" class="fil1p" d="M2738.8 5316.91l46.57 -391.94c10.23,-70.29 -32.27,-140.02 -102.18,-161.29l-696.61 -211.88c-38.25,-11.64 -77.78,-6.74 -110.78,10.54l-597.22 311.21c-3.61,1.87 -7.04,3.89 -10.54,6.09 -410.69,258.75 -821.38,517.51 -1232.08,776.26 -68.19,42.97 -88.65,134.02 -45.6,202.16 42.9,67.88 134.27,88.37 202.16,45.6 407.34,-256.64 814.66,-513.28 1222,-769.92l476.2 912.49c98.32,599.66 196.65,1199.31 294.98,1798.97 14.85,90.61 97.95,159.57 193.12,137.51 95.17,-22.06 152.6,-109.62 139.1,-191.98 -93.46,-570 -186.93,-1139.99 -280.39,-1710l173.61 -90.6c14.67,-5.68 28.73,-13.54 41.72,-23.66l639.57 -498.3 693.45 420.06c78.53,47.58 182.04,21.71 230,-57.47 47.47,-78.35 23.14,-182.79 -55.58,-230.47l-792.63 -480.14c-58.81,-35.62 -136.45,-31.08 -190.69,11.19l-238.18 185.57zm-325.26 253.42l-8.32 6.48 -366.83 -702.92 441.93 134.42 -66.78 562.02zm-747.53 -1323.74c-75.82,-145.29 -255.07,-201.61 -400.36,-125.78 -145.3,75.82 -201.61,255.07 -125.79,400.36 75.83,145.3 255.07,201.61 400.37,125.79 145.29,-75.82 201.61,-255.07 125.78,-400.37z"/>
 <path class="fil1p" d="M-184.45 7280.97l0 -1341.37 564.31 0 0 1993.95 -60.34 0c62.2,57.56 127.36,111.96 195.22,162.95l2970.52 0c67.86,-50.99 133.02,-105.39 195.22,-162.95l-228.65 0 0 -1993.95 564.3 0 0 1612.75c59.51,-83.42 113.98,-170.7 162.95,-261.38l0 -1351.37 298.99 0 0 -162.95 -4968.89 0 0 162.95 143.42 0 0 963.24c43.95,131.29 98.62,257.69 162.95,378.13zm727.26 652.58l0 -1993.95 564.3 0 0 1993.95 -564.3 0zm727.25 0l0 -1993.95 564.3 0 0 1993.95 -564.3 0zm727.26 0l0 -1993.95 564.3 0 0 1993.95 -564.3 0zm727.25 0l0 -1993.95 564.31 0 0 1993.95 -564.31 0z"/>
 <path class="fil2p" d="M4796.54 6116.66c0,-1544.49 -1252.05,-2796.54 -2796.54,-2796.54 -673.67,0 -1291.7,238.22 -1774.43,635.02l3945.51 3924.07c391,-481 625.46,-1094.36 625.46,-1762.55zm-4967.62 -1762.56c-390.98,481.02 -625.46,1094.37 -625.46,1762.56 0,1544.49 1252.05,2796.54 2796.54,2796.54 673.67,0 1291.67,-238.25 1774.43,-635.03l-3945.51 -3924.07zm5671.08 1762.56c0,-1933 -1567,-3500 -3500,-3500 -1933,0 -3500,1567 -3500,3500 0,1933 1567,3500 3500,3500 1933,0 3500,-1567 3500,-3500z"/>
</symbol>
 <g id="Ebene_x0020_1">
  <metadata id="CorelCorpID_0Corel-Layer"/>
  <use id="ISO_x0020_7010_x0020_P071_0" transform="scale(0.571429 0.571429)" x="-0" y="-0" width="7000" height="7000" xlink:href="#ISO_x0020_7010_x0020_P071"/>
 </g>
</svg>
