<?xml version="1.0" encoding="UTF-8"?>
<!DOCTYPE svg PUBLIC "-//W3C//DTD SVG 1.1//EN" "http://www.w3.org/Graphics/SVG/1.1/DTD/svg11.dtd">
<!-- Creator: Corel DESIGNER -->
<svg xmlns="http://www.w3.org/2000/svg" xml:space="preserve" width="40mm" height="34.9578mm" version="1.1" style="shape-rendering:geometricPrecision; text-rendering:geometricPrecision; image-rendering:optimizeQuality; fill-rule:evenodd; clip-rule:evenodd"
viewBox="0 0 4000 3495.78"
 xmlns:xlink="http://www.w3.org/1999/xlink"
 xmlns:xodm="http://www.corel.com/coreldraw/odm/2003">
 <defs>
  <style type="text/css">
   <![CDATA[
    .fil0w {fill:#F5CA2B}
    .fil1w {fill:#21251E}
   ]]>
  </style>
 </defs>
<symbol id="ISO_x0020_7010_x0020_W011" viewBox="-1500 -9660.91 7000 6117.6">
 <polygon class="fil0w" points="5290.4,-3754.75 -1288.06,-3754.75 2001.17,-9451.87 "/>
 <path class="fil1w" d="M-922.41 -3964.73l2922.41 -5061.73 2922.4 5061.73 -5844.81 0zm6213.22 421.41l-6581.62 0.01c-161.14,0 -261.32,-173.49 -180.75,-313.05l3290.81 -5699.88c80.57,-139.55 280.93,-139.55 361.5,0l3290.81 5699.87c80.57,139.56 -19.61,313.05 -180.75,313.05z"/>
 <path class="fil1w" d="M2277.54 -6034.6l419.88 -125.8 156.59 -409.14c49.23,-128.63 245.09,-53.76 195.66,75.32l-178.83 467.01c-9.2,24.03 -33.41,43.71 -58.05,51.08l-454 135.9c-27.94,8.36 -57.29,13.38 -86.47,13.75l-46.73 0.62 -273.23 660.23c-11.58,28 -45.72,55.56 -68.54,64.21l-580.98 220.6 -475.36 358.89c-99.02,74.76 -258.97,-95.94 -120.73,-199.13l490.43 -366.05 352.01 -120 -540.82 -59.49 -510.44 224.81c-151.21,66.59 -240.06,-148.66 -95.96,-211.97l537.95 -236.37c25.04,-11.01 50.88,-13.27 76.37,-10.47l546.22 60.31 248.43 -590.11 -387.7 -257.69c-14.45,-9.62 -45.84,-41.67 -58.12,-71.77l-190.09 -465.85c-51.53,-126.26 134.81,-219.64 189.04,-90.61l197.44 469.76 356.32 235.52 359.71 176.44zm11.26 -499.74c100.79,42.41 148.1,158.51 105.67,259.31 -42.43,100.78 -158.53,148.07 -259.33,105.65 -100.76,-42.41 -148.07,-158.53 -105.65,-259.31 42.42,-100.77 158.53,-148.08 259.31,-105.65z"/>
 <polygon class="fil1w" points="-172.55,-4449.68 4172.54,-4449.68 4172.54,-4236.04 -172.55,-4236.04 "/>
</symbol>
 <g id="Ebene_x0020_1">
  <metadata id="CorelCorpID_0Corel-Layer"/>
  <use id="ISO_x0020_7010_x0020_W011_0" transform="scale(0.571429 0.57143)" x="-0" y="0" width="7000" height="6117.6" xlink:href="#ISO_x0020_7010_x0020_W011"/>
 </g>
</svg>
