<?xml version="1.0" encoding="UTF-8"?>
<!DOCTYPE svg PUBLIC "-//W3C//DTD SVG 1.1//EN" "http://www.w3.org/Graphics/SVG/1.1/DTD/svg11.dtd">
<!-- Creator: Corel DESIGNER -->
<svg xmlns="http://www.w3.org/2000/svg" xml:space="preserve" width="40mm" height="34.9578mm" version="1.1" style="shape-rendering:geometricPrecision; text-rendering:geometricPrecision; image-rendering:optimizeQuality; fill-rule:evenodd; clip-rule:evenodd"
viewBox="0 0 1000 873.95"
 xmlns:xlink="http://www.w3.org/1999/xlink"
 xmlns:xodm="http://www.corel.com/coreldraw/odm/2003">
 <defs>
  <style type="text/css">
   <![CDATA[
    .fil0w {fill:#F5CA2B}
    .fil1w {fill:#21251E}
   ]]>
  </style>
 </defs>
<symbol id="ISO_x0020_7010_x0020_W015" viewBox="1125 701.44 1750 1529.4">
 <polygon class="fil0w" points="2822.6,2177.98 1177.99,2177.98 2000.29,753.7 "/>
 <path class="fil1w" d="M1269.4 2125.48l730.6 -1265.43 730.6 1265.43 -1461.2 0zm1553.3 105.35l-1645.4 0c-40.29,0 -65.33,-43.37 -45.19,-78.26l822.7 -1424.97c20.14,-34.89 70.23,-34.89 90.38,0l822.7 1424.97c20.14,34.89 -4.9,78.26 -45.19,78.26z"/>
 <path class="fil1w" d="M2017.44 1786.61l-192.37 68.78 146.21 102.42 192.47 -68.68 0 -160.75 24.05 16.84 0 160.85 -192.46 68.68 75.57 52.84 192.47 -68.68 0 -160.75 -75.58 -52.94 -138.32 -394.29c24.48,-16.51 29.5,-47.19 16.71,-70.8 -7.66,-14.14 -32.71,-33.31 -32.71,-45.36l0 -31.1c11.73,-5.59 19.83,-17.55 19.83,-31.41 0,-13.86 -8.1,-25.81 -19.83,-31.4l0 -29.01c6.81,-4.73 11.28,-12.62 11.28,-21.54 0,-14.48 -11.74,-26.21 -26.22,-26.21 -14.48,0 -26.21,11.73 -26.21,26.21 0,8.92 4.46,16.81 11.28,21.54l0 29.01c-11.72,5.59 -19.83,17.55 -19.83,31.4 0,13.86 8.11,25.82 19.83,31.41l0 31.1c0,13.94 23.74,44.19 31.86,58.38 6.68,15.11 -10.31,32.29 -28.37,27.01 -10.39,-3.03 -18.29,-23.14 -20.85,-32.98 -1.33,-5.11 -0.47,-7.75 -3.55,-12.2 -9.35,12.45 -11.16,20.57 -9.14,38.79 2.48,19.53 12.07,28.09 16.32,32.15l-165.87 271.45 -105.1 40.24 0 123.4 82.01 57.45 192.47 -68.68 0 -160.75 24.05 16.85 0 160.72zm0 -160.72l0 -267.62c2.28,0.36 5.96,0.35 8.71,0.21l137.6 369.91 -146.3 -102.49zm-154.18 -26.63l80.37 -25.09 49.77 34.87 0 -221.81 -130.14 212.03z"/>
</symbol>
 <g id="Ebene_x0020_1">
  <metadata id="CorelCorpID_0Corel-Layer"/>
  <use id="ISO_x0020_7010_x0020_W015_0" transform="scale(0.571429 0.57143)" x="-0" width="1750" height="1529.4" xlink:href="#ISO_x0020_7010_x0020_W015"/>
 </g>
</svg>
