<?xml version="1.0" encoding="UTF-8"?>
<!DOCTYPE svg PUBLIC "-//W3C//DTD SVG 1.1//EN" "http://www.w3.org/Graphics/SVG/1.1/DTD/svg11.dtd">
<!-- Creator: Corel DESIGNER -->
<svg xmlns="http://www.w3.org/2000/svg" xml:space="preserve" width="40mm" height="34.9578mm" version="1.1" style="shape-rendering:geometricPrecision; text-rendering:geometricPrecision; image-rendering:optimizeQuality; fill-rule:evenodd; clip-rule:evenodd"
viewBox="0 0 4000 3495.78"
 xmlns:xlink="http://www.w3.org/1999/xlink"
 xmlns:xodm="http://www.corel.com/coreldraw/odm/2003">
 <defs>
  <style type="text/css">
   <![CDATA[
    .fil0w {fill:#F5CA2B}
    .fil1w {fill:#21251E}
   ]]>
  </style>
 </defs>
<symbol id="ISO_x0020_7010_x0020_W019" viewBox="-1500 -3427.58 7000 6117.6">
 <polygon class="fil0w" points="5290.4,2478.58 -1288.06,2478.58 2001.17,-3218.54 "/>
 <path class="fil1w" d="M-922.41 2268.6l2922.41 -5061.73 2922.4 5061.73 -5844.81 0zm6213.22 421.41l-6581.62 0.01c-161.14,0 -261.32,-173.49 -180.75,-313.05l3290.81 -5699.88c80.57,-139.55 280.93,-139.55 361.5,0l3290.81 5699.87c80.57,139.56 -19.61,313.05 -180.75,313.05z"/>
 <path class="fil1w" d="M2219.79 -775.27c0,-120 -97.28,-217.27 -217.27,-217.27 -120,0 -217.27,97.27 -217.27,217.27 0,119.99 97.27,217.26 217.27,217.26 119.99,0 217.27,-97.27 217.27,-217.26zm-526.02 583.63l59.38 0 0 2008.04c0,60.1 49.17,109.28 109.28,109.28 60.13,0 109.3,-49.16 109.3,-109.28l0 -1198.26c0,-12.44 10.14,-22.57 22.57,-22.57l15.5 0c12.44,0 22.57,10.13 22.57,22.57l0 1198.26c0,60.1 49.18,109.28 109.29,109.28 60.12,0 109.29,-49.16 109.29,-109.28l0 -2008.04 55.28 0 0 856.78c0,55.05 45.04,100.09 100.1,100.09 55.06,0 100.1,-45.03 100.1,-100.09l0 -897.5c-4.05,-148.93 -131.82,-264.67 -278.7,-264.67l-457.15 0c-153.34,0 -277.01,124.25 -277.01,277.01l0 885.16c0,55.05 45.04,100.09 100.09,100.09 55.07,0 100.11,-45.03 100.11,-100.09l0 -856.78z"/>
 <polygon class="fil1w" points="3944.7,1061 3483.07,1061 3483.07,919.58 3244.21,1145.87 3483.07,1372.67 3483.07,1231.24 3944.7,1231.24 "/>
 <polygon class="fil1w" points="55.31,1061 516.93,1061 516.93,919.58 755.8,1145.87 516.93,1372.67 516.93,1231.24 55.31,1231.24 "/>
 <path class="fil1w" d="M859.89 1145.87l420.4 -384.7 0 296.7 -420.4 384.7 0 -296.7zm-1300.11 773.92l35.72 -61.86 1171.86 0 0 -1481.95 -316.25 0 35.42 -61.36 893.83 0 0 1605.17 -1820.58 0zm1300.11 -245.3l420.4 -384.7 0 296.7 -296.64 271.44 -123.76 0 0 -183.44zm0 -1057.24l263.67 -241.27 156.73 0 0 153.27 -420.4 384.7 0 -296.7z"/>
 <path class="fil1w" d="M3140.11 1145.87l-420.39 -384.7 0 296.7 420.39 384.7 0 -296.7zm373.36 -831.25l35.42 61.36 -316.25 0 0 1481.95 1171.87 0 35.71 61.86 -1820.58 0 0 -1605.17 893.83 0zm-373.36 1359.87l-420.39 -384.7 0 296.7 296.63 271.44 123.76 0 0 -183.44zm0 -1057.24l-263.66 -241.27 -156.73 0 0 153.27 420.39 384.7 0 -296.7z"/>
</symbol>
 <g id="Ebene_x0020_1">
  <metadata id="CorelCorpID_0Corel-Layer"/>
  <use id="ISO_x0020_7010_x0020_W019_0" transform="scale(0.571429 0.57143)" x="-0" y="0" width="7000" height="6117.6" xlink:href="#ISO_x0020_7010_x0020_W019"/>
 </g>
</svg>
