<?xml version="1.0" encoding="UTF-8"?>
<!DOCTYPE svg PUBLIC "-//W3C//DTD SVG 1.1//EN" "http://www.w3.org/Graphics/SVG/1.1/DTD/svg11.dtd">
<!-- Creator: Corel DESIGNER -->
<svg xmlns="http://www.w3.org/2000/svg" xml:space="preserve" width="40mm" height="34.9578mm" version="1.1" style="shape-rendering:geometricPrecision; text-rendering:geometricPrecision; image-rendering:optimizeQuality; fill-rule:evenodd; clip-rule:evenodd"
viewBox="0 0 1000 873.94"
 xmlns:xlink="http://www.w3.org/1999/xlink"
 xmlns:xodm="http://www.corel.com/coreldraw/odm/2003">
 <defs>
  <style type="text/css">
   <![CDATA[
    .fil0w {fill:#F5CA2B}
    .fil1w {fill:#21251E}
   ]]>
  </style>
 </defs>
<symbol id="ISO_x0020_7010_x0020_W023" viewBox="1125 2259.77 1750 1529.4">
 <polygon class="fil0w" points="2822.6,3736.31 1177.99,3736.31 2000.29,2312.03 "/>
 <path class="fil1w" d="M1269.4 3683.82l730.6 -1265.43 730.6 1265.43 -1461.2 0zm1553.3 105.35l-1645.4 0c-40.29,0 -65.33,-43.37 -45.19,-78.26l822.7 -1424.97c20.14,-34.89 70.23,-34.89 90.38,0l822.7 1424.97c20.14,34.89 -4.9,78.26 -45.19,78.26z"/>
 <path class="fil1w" d="M1451.09 3509.3l195.74 0c10.28,18.29 26.29,49.01 40.87,48.76 20.45,-0.36 17.38,-18.35 41.99,-21.68 12.49,-1.69 19.13,-19.55 21.82,-27.08l126.92 0 0 96.08 -427.34 0 0 -96.08z"/>
 <path class="fil1w" d="M1726.88 3454.51l-19.37 -78.54c-1.03,-4.24 -4.85,-7.39 -9.41,-7.39 -4.55,0 -8.36,3.13 -9.4,7.36l-19.38 78.58c-0.56,2.28 -0.86,4.66 -0.86,7.12 0,16.37 13.27,29.63 29.63,29.63 16.37,0 29.63,-13.27 29.63,-29.63 0,-2.45 -0.3,-4.84 -0.86,-7.12zm5.55 -335.28l231.97 26.42c16.41,1.87 28.31,16.82 26.44,33.23l-265.21 0.02 6.8 -59.67zm-8.78 77.1l232.71 26.5c26,2.96 49.69,-15.89 52.65,-41.88 2.96,-26 -15.89,-49.69 -41.88,-52.65l-232.72 -26.51c0.65,-6.81 -4.32,-12.96 -11.15,-13.74l-0 0c-6.9,-0.79 -13.2,4.22 -13.98,11.12l-10.71 94.05c-0.79,6.9 4.22,13.2 11.12,13.98l0 0c6.83,0.78 13.05,-4.11 13.96,-10.88zm3.23 112.98l-19.37 -78.54c-1.03,-4.24 -4.85,-7.39 -9.41,-7.39 -4.55,0 -8.36,3.13 -9.4,7.36l-19.38 78.58c-0.56,2.28 -0.86,4.66 -0.86,7.12 0,16.37 13.27,29.64 29.63,29.64 16.37,0 29.63,-13.27 29.63,-29.64 0,-2.45 -0.3,-4.84 -0.86,-7.12z"/>
 <path class="fil1w" d="M1810.7 3371.55l193.71 0 136.75 95.85c17.66,12.38 19.43,39.07 -10.39,40.96 -43.3,2.75 -85.36,8.19 -105.08,51.49 -3.62,7.95 -4.86,23.78 -2.09,34.42 1.78,6.86 5.25,11.61 10.81,10.61l143.58 -25.96 314.69 -144.68 -88 -159.19 -96.08 50.82c-13,6.88 -27.78,10.34 -48.78,9.61 -0.99,0.43 -1.99,0.85 -2.99,1.24 5.55,6.52 8.9,14.97 8.9,24.2 0,20.62 -16.72,37.34 -37.34,37.34 -20.62,0 -37.34,-16.72 -37.34,-37.34 0,-1.22 0.06,-2.44 0.18,-3.63 -8.6,5.26 -18.7,8.29 -29.52,8.29 -30.89,0 -56.01,-24.73 -56.63,-55.47l-86.69 -14.34 -205.55 0c-49.17,-0.29 -44.9,75.06 -2.14,75.79zm58.95 13c-15.59,0 -25.3,22.43 -20.96,36.02 4.13,12.91 17.13,22.99 32.55,19.08l86.7 -21.97 58.26 -14.99 -25.89 -18.14 -130.66 0zm75.75 51.04c-43.5,11.77 -17.31,79.42 24.2,51.59l86.04 -63.85 -16.65 -11.67 -1.08 0.29 -92.5 23.64z"/>
 <path class="fil1w" d="M2190.68 3301.09l-19.36 -78.54c-1.03,-4.24 -4.85,-7.39 -9.41,-7.39 -4.55,0 -8.36,3.13 -9.4,7.36l-19.38 78.58c-0.56,2.28 -0.86,4.67 -0.86,7.12 0,16.37 13.27,29.63 29.63,29.63 16.37,0 29.64,-13.27 29.64,-29.63 0,-2.45 -0.3,-4.84 -0.86,-7.12zm0 -191.72l-19.36 -78.54c-1.03,-4.24 -4.85,-7.39 -9.41,-7.39 -4.55,0 -8.36,3.13 -9.4,7.36l-19.38 78.58c-0.56,2.28 -0.86,4.66 -0.86,7.12 0,16.37 13.27,29.64 29.63,29.64 16.37,0 29.64,-13.27 29.64,-29.64 0,-2.45 -0.3,-4.84 -0.86,-7.12zm-60.94 -124.71l-229.79 45.32c-25.67,5.06 -50.81,-11.8 -55.88,-37.47 -5.06,-25.67 11.8,-50.81 37.47,-55.88l229.79 -45.32c-1.2,-6.73 3.26,-13.27 10,-14.61l0 0c6.82,-1.34 13.5,3.14 14.84,9.95l18.32 92.86c1.35,6.82 -3.13,13.5 -9.95,14.84l0 0c-6.74,1.33 -13.34,-3.03 -14.8,-9.72zm-15.02 -76.13l-229.06 45.18c-13.51,2.66 -23.15,14.13 -24.13,27.26l196.29 0 68.53 -13.52 -11.62 -58.92z"/>
</symbol>
 <g id="Ebene_x0020_1">
  <metadata id="CorelCorpID_0Corel-Layer"/>
  <use id="ISO_x0020_7010_x0020_W023_0" transform="scale(0.571429 0.571428)" x="-0" y="0" width="1750" height="1529.4" xlink:href="#ISO_x0020_7010_x0020_W023"/>
 </g>
</svg>
