<?xml version="1.0" encoding="UTF-8"?>
<!DOCTYPE svg PUBLIC "-//W3C//DTD SVG 1.1//EN" "http://www.w3.org/Graphics/SVG/1.1/DTD/svg11.dtd">
<!-- Creator: Corel DESIGNER -->
<svg xmlns="http://www.w3.org/2000/svg" xml:space="preserve" width="40mm" height="34.9578mm" version="1.1" style="shape-rendering:geometricPrecision; text-rendering:geometricPrecision; image-rendering:optimizeQuality; fill-rule:evenodd; clip-rule:evenodd"
viewBox="0 0 1000 873.94"
 xmlns:xlink="http://www.w3.org/1999/xlink"
 xmlns:xodm="http://www.corel.com/coreldraw/odm/2003">
 <defs>
  <style type="text/css">
   <![CDATA[
    .fil0w {fill:#F5CA2B}
    .fil1w {fill:#21251E}
   ]]>
  </style>
 </defs>
<symbol id="ISO_x0020_7010_x0020_W029" viewBox="1125 -856.9 1750 1529.4">
 <polygon class="fil0w" points="2822.6,619.64 1177.99,619.64 2000.29,-804.64 "/>
 <path class="fil1w" d="M1269.4 567.15l730.6 -1265.43 730.6 1265.43 -1461.2 0zm1553.3 105.35l-1645.4 0c-40.29,0 -65.33,-43.37 -45.19,-78.26l822.7 -1424.97c20.14,-34.89 70.23,-34.89 90.38,0l822.7 1424.97c20.14,34.89 -4.9,78.26 -45.19,78.26z"/>
 <path class="fil1w" d="M1542.58 485.09l641.96 -398.77c25.6,-15.9 37.64,-45.67 32.48,-73.73l82.36 -51.16c14.67,-9.11 -12.67,-53.12 -27.34,-44.01l-82.36 51.16c-22.87,-17.06 -54.88,-19.45 -80.48,-3.55l-641.96 398.76c-33.36,20.72 -43.69,64.96 -22.98,98.31l0 0c20.72,33.35 64.96,43.69 98.31,22.97z"/>
 <path class="fil1w" d="M2066.32 -173.6c-1.64,2.35 -5.15,12.06 -5.63,15.66 -1.02,7.64 -8.07,7.77 0.43,14.54 2.92,2.32 9.41,-2.09 10.33,-7.32 2.38,-13.52 2.46,-17.26 8.93,-29.09 5.55,-10.14 -3.17,-15.42 -4.93,-13.21 -5.66,3.62 -4.4,12.64 -9.13,19.42zm-34.29 0.56c-7.98,5.27 -12.06,18.16 -7.89,27.26 2.04,4.44 7.29,7.17 12.18,3.5 3.04,-2.28 7.12,-27.94 3.1,-29.91 -2.28,-1.11 -7.3,-0.92 -7.38,-0.86zm-77.97 202.82c-1.21,2.55 -0.1,5.81 3.4,6.57 4.49,0.97 -3.48,6.24 3.67,10.85 2.53,1.63 7.24,-2.59 1.9,-7.02 -1.89,-1.57 0.24,-6.41 -1.93,-8.56 -1.66,-1.64 -5.99,-4.06 -7.05,-1.84zm21.77 18.1c-15.06,-15.5 -12.39,-35.6 5.98,-23.81 4.4,2.83 14.41,-2.63 15.96,-10.21 0.55,-2.73 2.16,-26.76 10.66,-17.75 11.94,12.66 1.98,-8.62 27.41,-8.62 3.81,0 3.44,9.99 13.49,14.73l-73.49 45.65zm111.91 -115.43c-11.33,-0.85 -2.21,16.74 -8.34,21.25 -3.69,2.73 -10.08,2.23 -6.71,9.01 1.17,2.37 12.2,2.66 12.57,-6.69 0.3,-7.63 24.02,-11.98 12.33,-20.66 -3.81,-2.83 -9.8,-2.91 -9.85,-2.91zm-106.75 53.7c-7.03,4.75 -5.34,11.47 -7.56,16.19 -1.7,3.62 10.75,18.68 13.16,-3.4 0.57,-5.22 1.86,-12.34 -4.26,-12.34l-1.34 -0.45zm17.9 -24.95c-3,3.43 -5.6,-5.15 -10.44,8.9 -3.05,8.86 -4.56,11.93 7.53,15.89 16.2,5.31 17.19,0.55 16.8,-14.42 -0.15,-5.69 -10.97,-17.74 -14.04,-11.07 -0.43,0.09 0.23,0.62 0.15,0.71zm17.67 -50.07c-0.7,1.42 -9.6,8.8 0.69,13.35 4.89,2.17 12.39,-5.29 4.6,-12.33 -1.62,-1.47 -5.49,-0.62 -5.29,-1.02zm-34.9 -3.51c0,11.94 -17.58,8.08 -17.02,18.85 0.1,2.06 15.6,13.58 15.01,-0.28 -0.42,-9.91 15.47,-9.54 8.88,-18.96 -2.94,-4.19 -6.86,0.47 -6.86,0.39zm-105.61 -8.05c-4.03,2.65 -3.79,14.69 0.89,16.63 4.57,1.9 4.37,2.53 10.59,1.27 5.65,-1.14 2.79,-10.8 -0.75,-13.99 -2.46,-2.22 -6.92,-6.42 -10.74,-3.91zm26.86 60.61c-6.22,0 -6.32,14.21 5.59,13.22 3.83,-0.32 5.15,-8.25 -2.93,-13.14 -0.28,-0.17 -2.13,-0.12 -2.66,-0.08zm-21.59 -9.06c-3.65,-3.29 -14.88,-4.31 -14.88,5.26 0,7.9 27.59,22.25 22.86,0.9 -1.49,-6.7 -7.45,-5.68 -7.98,-6.15zm-102.48 -50.23c-4.87,6.91 0.94,21.07 4.49,27.74 2.64,4.96 10.27,7.38 15.84,7.38 12.05,0 10.75,-21.47 4.25,-24.31 -2.54,-1.11 -20.72,-11.9 -21.35,-11.65 -0.91,0.35 -3.36,1.03 -3.23,0.84zm-73.61 -28.19c-6.45,0.26 -19.55,11.42 -19.82,17.94 -0.61,14.8 10.17,11.58 3.88,26.81 -0.79,1.9 -1.42,19.02 5.53,19.02 14.41,0 17.84,-5.99 22.88,-19.52 6.49,-17.42 -13.78,-16.79 -4.37,-33.3 3.71,-6.51 -0.21,-9.71 -6.43,-10.48 -0.08,-0.01 -1.64,-0.47 -1.68,-0.47zm-70.6 98l-16.33 24.16 151.47 0 -135.14 -24.16zm144.98 -109.63l-7.61 11.86 81.44 43.18 -73.83 -55.04zm49.44 176.53l125.74 -21.48 -93.08 44.75 -32.66 -23.27zm206.02 -163.42c-16.39,-6.63 -16.26,16.13 0.51,15.23 0.78,-0.04 1.53,-0.88 2.12,-2.15l-7.84 60.39 112.06 -459.18 -42.8 -74.14 -60.41 465.14c-0.38,-2.34 -1.47,-4.42 -3.64,-5.29zm-35.62 -632.46l58.57 101.45 -52.12 567.67 -6.45 -669.12zm-98.4 162.6l15.3 -26.49 34.26 164.73 -9.6 -207.45 18.43 -31.93 36.37 542.44 -94.76 -441.3zm-54.29 94.04l12.34 -21.37 57.15 180.52 -36.2 -216.8 16.92 -29.31 77.28 474.24 -18.98 -57.67c-1.86,3.42 -4.18,6.07 -6.06,6.66 -16.87,5.35 -19.85,-17.68 -11.86,-21.28 5.97,-2.69 7.28,-5.83 10.15,-8.98l-100.74 -306.02zm-59.34 102.78l53.08 -91.95 44.93 208.01 71.59 184.36 -169.6 -300.43zm-81.26 140.75l23.46 -40.64 188.47 221.8 -211.94 -181.16zm201.28 108.28c2.67,-3.52 7.5,-7.79 9.83,0.24 0.79,2.72 2.99,12.33 -0.09,15.24l46.12 73.39 -221.99 -258.03 28.64 -49.6 137.5 218.76zm-246.96 -29.17l23.59 -40.87 111.03 80.74c3.48,-4.73 6.95,-7.37 -0.45,-16.11 -2.93,-3.46 -6.19,-10.11 0.61,-10.94 8.11,-1 15.66,5.63 20.67,11.39 9.79,11.23 3.27,17.16 -4.49,26.25 -0.25,0.29 -0.58,0.48 -0.99,0.59l122.26 88.91c-0.16,-0.32 -0.28,-0.64 -0.33,-0.96l-0.47 0.38c0.61,-0.78 2.87,-1.09 5.43,-3.63 7.37,-7.3 -0.83,-23.02 8.06,-22.28 2.28,0.19 6.23,25.26 13.12,25.34 9.37,0.11 18.91,3.28 10.98,14.26 -3.43,4.76 -9.93,4.27 -16.04,1.98l2.96 2.16 -295.95 -157.2zm-111.71 193.5l37.22 -64.46 270.36 35.88c1.8,29.44 51.41,25.62 51.25,6.8l21.24 2.82 0 18.57 -380.07 0.39zm431.77 -29.31c-1.86,-2.13 -15.63,23.24 -3.08,28.47 9.27,3.86 13.76,-16.52 3.08,-28.47zm78.77 -81.36c-3.85,-2.09 -10.72,-1.69 -11.25,1.8 -0.88,5.71 -2.12,9.17 4.53,13.2 0.11,0.07 0.22,0.12 0.33,0.17l-11.79 27.99c-6.97,-4.17 -4.55,-5.3 -7.9,-7.69 -1.69,-1.21 -9.79,4.6 -9.79,10.96 0,9.82 2.39,9.78 6.77,18.59 0.29,0.58 0.62,1.13 1.01,1.67l-4.03 9.58 5.28 -8.07c8.24,8.74 28.35,9.78 22.36,-4.76 -2.3,-5.58 -9.23,-7.6 -11.01,-12.61l195.01 -298.32 -43.53 -75.39 -135.99 322.89z"/>
 <path class="fil1w" d="M2310.61 223.69c-3.73,1.19 -6.62,-20.33 -23.69,-28.2 4.89,10.89 6.91,26.56 7.15,33.48 0.49,14.51 -1.74,35.47 -10.25,46.72 -4.9,-2.05 -16.21,-23.06 -24.63,-24.71 0.23,12.2 2.77,25.18 -1.9,37.36 -4.99,13.03 -6.26,19.37 -5.63,35.88 -7.27,-1.78 -12.26,-11.03 -20.32,-11.84 0.7,7.82 4.87,8.56 4.35,20.84 -1.12,26.48 -1.74,51.35 3.42,69.91 8.54,30.73 42.61,49.69 72.39,43.66 -18.27,-9.74 -49.25,-58.76 -41.08,-74.51 4.72,1.51 3.54,6.1 9.37,6.84 0.42,-9.61 0.06,-30.69 6.48,-34.99 2.8,20.12 7.3,34.89 18.12,50.95 1.9,2.82 5.08,4.01 6.87,2.9 0.4,-3.27 -8.49,-40.26 1.69,-50.69 1.65,7.58 10.51,23.12 14.87,27.9 2.86,-3.2 6.62,-31.22 7.83,-37.97 1.37,-14.77 0.43,-32.16 0.4,-47.45 4.08,1.03 5.34,4.32 7.62,7.57 6.19,8.81 9.73,17.14 12.25,27.96 6.11,26.29 -2.38,34.72 -2.27,46.22 4.91,-2.97 9.04,-7.93 12.68,-13.13 3.69,-5.25 5.87,-12.03 9.32,-16.41 5.44,10.61 -0.59,26.39 -1.27,37.66 4.84,-1 5.49,-2.71 9.38,-4.8 2.84,-1.53 -0.38,-0.58 3.45,-1.42 0.07,16.31 -11.35,35.27 -19.41,44.83 -5.2,6.16 -11.07,11.31 -16.84,15.7l-19.99 12.22c15.55,4.09 40.44,0.98 48.29,-1.23 20.79,-5.84 36.93,-19.66 46.19,-37.63 7.76,-15.06 12.27,-39.61 5.72,-55.94 -1.7,-4.24 -2.85,-4.69 -2.89,-3.46 -0.12,3.77 -0.99,8.32 -4.03,11.96 -1.67,2 -2.63,2.69 -5.39,2.91 -3.88,-23.44 10.65,-55.53 2.7,-80.19 -1.78,-5.53 -6.66,-16.85 -12.17,-17.03 -0.84,6.33 -1.01,18.57 -8.67,20.75 -3.75,-23.56 -8.46,-62.54 -30.14,-76.05 -2.13,-1.33 -3.72,-2.11 -3.38,-1.08 2.97,9.08 0.68,26.3 -1.4,25.64 -2.56,-0.8 -2.32,-10.69 -4.58,-18.09 -6.22,-20.38 -23.82,-21.49 -32.07,-50.88 -1.22,-4.34 -1.07,-10.57 -3.23,-14.13 -6.39,3.64 -12.21,18.29 -10.95,30.69 1.85,18.27 -2.07,40.59 -4.36,41.31z"/>
 <rect class="fil1w" x="2194.42" y="466.38" width="276.83" height="29.93"/>
</symbol>
 <g id="Ebene_x0020_1">
  <metadata id="CorelCorpID_0Corel-Layer"/>
  <use id="ISO_x0020_7010_x0020_W029_0" transform="scale(0.571429 0.57143)" x="-0" width="1750" height="1529.4" xlink:href="#ISO_x0020_7010_x0020_W029"/>
 </g>
</svg>
