<?xml version="1.0" encoding="UTF-8"?>
<!DOCTYPE svg PUBLIC "-//W3C//DTD SVG 1.1//EN" "http://www.w3.org/Graphics/SVG/1.1/DTD/svg11.dtd">
<!-- Creator: Corel DESIGNER -->
<svg xmlns="http://www.w3.org/2000/svg" xml:space="preserve" width="40mm" height="34.9578mm" version="1.1" style="shape-rendering:geometricPrecision; text-rendering:geometricPrecision; image-rendering:optimizeQuality; fill-rule:evenodd; clip-rule:evenodd"
viewBox="0 0 4000 3495.78"
 xmlns:xlink="http://www.w3.org/1999/xlink"
 xmlns:xodm="http://www.corel.com/coreldraw/odm/2003">
 <defs>
  <style type="text/css">
   <![CDATA[
    .fil0w {fill:#F5CA2B}
    .fil1w {fill:#21251E}
   ]]>
  </style>
 </defs>
<symbol id="ISO_x0020_7010_x0020_W030" viewBox="-1500 -3427.58 7000 6117.6">
 <polygon class="fil0w" points="5290.4,2478.58 -1288.06,2478.58 2001.17,-3218.54 "/>
 <path class="fil1w" d="M-922.41 2268.6l2922.41 -5061.73 2922.4 5061.73 -5844.81 0zm6213.22 421.41l-6581.62 0.01c-161.14,0 -261.32,-173.49 -180.75,-313.05l3290.81 -5699.88c80.57,-139.55 280.93,-139.55 361.5,0l3290.81 5699.87c80.57,139.56 -19.61,313.05 -180.75,313.05z"/>
 <polygon class="fil1w" points="1968.19,-1300.77 1968.19,-596.23 1769.46,-596.23 2112.71,-228.9 2455.94,-596.23 2257.22,-596.23 2257.22,-1300.77 "/>
 <path class="fil1w" d="M1627.25 -682.86l-275.61 0 0 322.26c234.08,219.02 248.63,518.73 16.98,746.42l120.83 120.83 137.8 -137.81 0 -1051.7zm79.66 -79.66l0 1164.31 -217.46 217.47 -234.73 -234.72c250.83,-236.49 281.03,-467.9 17.26,-710.5l0 -436.56 434.93 0z"/>
 <path class="fil1w" d="M1074.64 1875.01l829.63 0 0 -679.08 -57.37 0 -357.45 357.46 -357.46 -357.46 -57.35 0 0 679.08zm869.46 79.66l-949.12 0 0 -838.39 169.97 0 324.5 324.5 324.5 -324.5 169.98 0 0 838.39 -39.83 0z"/>
 <path class="fil1w" d="M3176.22 -25.27l-401.18 -680.84 -628.7 1053.53 -37.15 62.23 -339.11 7.02 -234.04 229.13 -433.8 50.16c-128.47,14.85 -149.2,133.58 -264.63,157.17l-176.75 36.14c-34.76,7.11 -47.66,52.86 -20.11,77.94l127.71 116.34c55.31,50.4 138.3,51.85 195.36,3.42 166,-140.91 127.15,-134.04 296.81,-142.11 107.99,-5.14 200.98,127.68 319.25,84.24 281.28,-103.34 193.56,-99.52 481.91,-13.26 44.01,13.17 71.07,56.28 63.79,101.64l-74.52 464.11c-19.86,123.72 44.48,182.22 115.81,253.52 24.12,24.11 65.03,14.23 75.5,-18.22l323.24 -1002.6c6.39,-19.82 14.63,-35.85 27.04,-52.58l583.57 -786.98zm-1921.65 341.37c-22.2,-2.04 -41.27,-7.34 -65.49,-23.24l-337.5 -221.66c-105.79,-69.47 -82.23,-235.19 -2.2,-194.19l405.4 207.75 -0.21 231.34zm149.67 296.89l-315.31 -301.41 -301.72 119.24c-48.76,19.27 -79.17,63.99 -79.17,116.42 0,268.76 -23.58,237.05 82.59,237.05 104.5,0 115.66,-207.77 210.79,-224.68l99.55 -17.7 75.83 94.5 227.44 -23.42z"/>
</symbol>
 <g id="Ebene_x0020_1">
  <metadata id="CorelCorpID_0Corel-Layer"/>
  <use id="ISO_x0020_7010_x0020_W030_0" transform="scale(0.571429 0.57143)" x="-0" y="0" width="7000" height="6117.6" xlink:href="#ISO_x0020_7010_x0020_W030"/>
 </g>
</svg>
