<?xml version="1.0" encoding="UTF-8"?>
<!DOCTYPE svg PUBLIC "-//W3C//DTD SVG 1.1//EN" "http://www.w3.org/Graphics/SVG/1.1/DTD/svg11.dtd">
<!-- Creator: Corel DESIGNER -->
<svg xmlns="http://www.w3.org/2000/svg" xml:space="preserve" width="40mm" height="34.9578mm" version="1.1" style="shape-rendering:geometricPrecision; text-rendering:geometricPrecision; image-rendering:optimizeQuality; fill-rule:evenodd; clip-rule:evenodd"
viewBox="0 0 1000 873.94"
 xmlns:xlink="http://www.w3.org/1999/xlink"
 xmlns:xodm="http://www.corel.com/coreldraw/odm/2003">
 <defs>
  <style type="text/css">
   <![CDATA[
    .fil0w {fill:#F5CA2B}
    .fil1w {fill:#21251E}
   ]]>
  </style>
 </defs>
<symbol id="ISO_x0020_7010_x0020_W032" viewBox="1125 -2415.23 1750 1529.4">
 <polygon class="fil0w" points="2822.6,-938.69 1177.99,-938.69 2000.29,-2362.97 "/>
 <path class="fil1w" d="M1269.4 -991.18l730.6 -1265.43 730.6 1265.43 -1461.2 0zm1553.3 105.35l-1645.4 0c-40.29,0 -65.33,-43.37 -45.19,-78.26l822.7 -1424.97c20.14,-34.89 70.23,-34.89 90.38,0l822.7 1424.97c20.14,34.89 -4.9,78.26 -45.19,78.26z"/>
 <path class="fil1w" d="M1552.86 -1066.3l0 -95.68 27.35 0 95.68 95.68 3.72 0 95.68 -95.68 27.35 0 0 95.68 19.91 0 0 -115.6 -55.51 0 -89.3 89.3 -89.31 -89.3 -55.51 0 0 115.6 19.92 0zm553.97 -471.11l-19.02 -19.02 -410.06 410.05 -109.13 -109.13 -19.02 19.02 128.15 128.15 429.08 -429.07zm-374.71 320.92l0 -362.24 -47.95 0 -11.5 19.91 39.53 0 0 334.08 -34.45 34.45 -30.21 -30.21c57.91,-56.92 54.27,-131.85 -4.25,-186.61l0 -100.85 -19.91 34.49 0 75.02c65.94,60.65 58.39,118.5 -4.32,177.62l58.68 58.68 54.37 -54.37z"/>
 <path class="fil1w" d="M2262.61 -1587.69c0,-54.91 -47.24,-105.5 -105.5,-105.5 -64.45,0 -113.42,57.07 -104.44,120.46l9.67 -2.05c1.88,-5.48 1.1,-8.11 5.98,-14.53 0.48,-0.84 0.6,-1.92 1.24,-3.02 4.2,-9.97 19.15,-7.61 19.97,3.25 4.29,14.95 34.9,-3.38 28.72,22.19 0,5.78 2.27,14.96 3.41,21.56l12.26 0 4.13 -2.96c10.01,-9.85 25.91,-7.58 20.93,20.85 0,0.53 7.8,4.02 4.18,16.63 0.97,1.28 1.54,2.76 1.97,4.3 9.43,-5.98 9.38,12.88 11.02,17.71 0.68,0.88 1.94,3.32 2.18,4.48 47.57,-9.77 84.25,-48.45 84.25,-103.35zm-115.3 99.5l-0.5 2.59c-0.3,1.55 0.81,3 2.39,3.12 5.12,0.38 10.18,0.39 15.16,0.05 1.69,-0.12 2.83,-1.76 2.34,-3.38l-1.18 -3.89c-0.5,-1.66 -2.42,-2.38 -3.89,-1.47 -3.23,1.99 -7.48,2.21 -10.84,1.01 -1.53,-0.55 -3.16,0.39 -3.47,1.98zm-80.4 -71.66c-1.21,-0.73 -2.26,-1.7 -3.09,-2.85 -0.63,-0.88 -1.67,-1.27 -2.72,-1.02l-3.76 0.87c-1.46,0.33 -2.34,1.81 -1.94,3.26 1.61,5.86 3.72,11.52 6.28,16.92 0.63,1.32 2.18,1.88 3.51,1.25l5.67 -2.71c1.64,-0.78 2.01,-2.91 0.74,-4.21 -2.38,-2.44 -3.27,-5.85 -3.41,-9.36 -0.03,-0.91 -0.49,-1.68 -1.27,-2.15zm12.59 23.31c-2.9,1.93 -7.94,4.87 -11.36,5.57 3.76,5.89 8.1,11.39 12.92,16.41 0.99,1.03 2.63,1.08 3.68,0.11l5.84 -5.27 3.06 -7.08c-6.33,0.1 -8.9,-3.78 -10.17,-8.26 -0.49,-1.72 -2.49,-2.47 -3.98,-1.48zm21.69 19.28c-4.32,7.48 -9.07,10.49 -8.98,10.5l-1.26 1.25c3.54,2.85 7.26,5.48 11.14,7.86 1.35,0.82 3.09,0.3 3.76,-1.13l4.81 -10.29c0.39,-0.84 0.34,-1.75 -0.16,-2.53 -0.76,-1.19 -1.42,-2.64 -1.8,-4 -0.27,-0.95 -0.98,-1.64 -1.94,-1.86 -0.35,-0.08 -1.02,0.17 -1.18,-0.04 -0.54,-0.74 -1.35,-1.12 -2.26,-1.07 -0.91,0.05 -1.67,0.52 -2.13,1.31zm19.88 11.7l-5.86 11.68c-0.68,1.38 -0.08,3.02 1.34,3.61 5.32,2.22 10.86,4.02 16.58,5.35 1.48,0.34 2.92,-0.62 3.18,-2.11l0.91 -5.13c0.28,-1.6 -0.92,-3.06 -2.55,-3.08 -5.49,-0.09 -10.59,-5.21 -12.12,-10.28l-1.47 -0.03zm55.31 111.38c-1.32,5.77 11.56,3.31 11.4,-0.56 -0.56,-13.35 0.71,-12.62 -4.82,-14.73 -4.33,-1.65 -4.8,7.56 -6.57,15.29zm-48.68 212.28l-232.47 0c-28.56,0 -51.93,23.37 -51.93,51.93 0,28.56 23.37,51.93 51.93,51.93l273.72 0c24.16,0 45.39,-16.96 50.78,-40.47l25.03 -109.16 90.5 161.36 223.31 0 -201.3 -358.89c-26.2,-46.72 -84.85,-61.6 -132.58,-37.3 -12.45,6.35 -43.24,34.07 -35.64,38.33 15.14,8.5 1.61,-11.57 19.2,-11.57 14.42,0 11.33,19.95 4.49,26.95 -3.9,3.99 -6.3,4.57 -4.21,12.26 19.58,3.79 13.86,24.64 -0.86,24.64 -1.86,0 -5.36,-0.24 -7,0.21 -0.53,2.74 0.33,28.73 1.2,34.17 14.83,5.52 9.01,20.71 -2.42,20.71l-14.34 -1.26c-5.93,1.04 2.14,5.85 -25.46,5.85 -1.24,0 -2.28,0.83 -2.56,2.04l-29.41 128.25zm45.05 -196.44l-3.99 17.4c0,0 10.72,-1.74 10.91,-4.37 0.99,-13.92 2.1,-12.81 -3.43,-14.9l-3.49 1.87zm-7.13 31.09c-4.55,19.86 -4.9,19.2 13.6,9.32 7.85,-4.19 -12.22,-15.37 -13.6,-9.32z"/>
 <path class="fil1w" d="M1922.62 -1423.72l32.76 -32.76c-32.2,-31.07 -68.15,-54.42 -108.82,-68.08l11.59 -29.88 -75.25 30.2 35.22 73.03 11.59 -29.88c41.89,12.89 70.55,33.35 92.8,57.48l0.11 -0.1z"/>
 <path class="fil1w" d="M1970.27 -1368.37l32.76 -32.76c31.07,32.2 54.42,68.15 68.08,108.82l29.88 -11.59 -30.2 75.25 -73.03 -35.22 29.88 -11.59c-12.89,-41.89 -33.35,-70.55 -57.48,-92.8l0.1 -0.11z"/>
</symbol>
 <g id="Ebene_x0020_1">
  <metadata id="CorelCorpID_0Corel-Layer"/>
  <use id="ISO_x0020_7010_x0020_W032_0" transform="scale(0.571429 0.57143)" x="-0" width="1750" height="1529.4" xlink:href="#ISO_x0020_7010_x0020_W032"/>
 </g>
</svg>
