<?xml version="1.0" encoding="UTF-8"?>
<!DOCTYPE svg PUBLIC "-//W3C//DTD SVG 1.1//EN" "http://www.w3.org/Graphics/SVG/1.1/DTD/svg11.dtd">
<!-- Creator: Corel DESIGNER -->
<svg xmlns="http://www.w3.org/2000/svg" xml:space="preserve" width="40mm" height="34.9578mm" version="1.1" style="shape-rendering:geometricPrecision; text-rendering:geometricPrecision; image-rendering:optimizeQuality; fill-rule:evenodd; clip-rule:evenodd"
viewBox="0 0 2000 1747.89"
 xmlns:xlink="http://www.w3.org/1999/xlink"
 xmlns:xodm="http://www.corel.com/coreldraw/odm/2003">
 <defs>
  <style type="text/css">
   <![CDATA[
    .fil0w {fill:#F5CA2B}
    .fil1w {fill:#21251E}
   ]]>
  </style>
 </defs>
<symbol id="ISO_x0020_7010_x0020_W036" viewBox="-3750 4519.55 3500 3058.8">
 <polygon class="fil0w" points="-354.8,7472.62 -3644.03,7472.62 -1999.41,4624.06 "/>
 <path class="fil1w" d="M-3461.2 7367.64l1461.2 -2530.87 1461.2 2530.87 -2922.4 0zm3106.61 210.7l-3290.81 0c-80.57,0 -130.66,-86.74 -90.38,-156.52l1645.4 -2849.94c40.28,-69.77 140.46,-69.77 180.75,0l1645.4 2849.94c40.29,69.78 -9.8,156.53 -90.38,156.53z"/>
 <path class="fil1w" d="M-2044.47 6945.53l-201.49 77.38 194.42 -10.02 -72.72 92.89 167.86 -83.47 34.16 88.8 48.75 -91.63 177.1 76.31 -114.92 -113.05 175.22 10.36 -225.13 -80.45 -225.59 -502.85 252.9 -146.29 362.69 301.56c48.12,40 108.95,-33.15 60.84,-73.16l-363.23 -301.99 -77.91 -134.69c-6.64,-11.49 -14.94,-19.82 -26.4,-26.5l-186.7 -108.8 -33.11 -7.8 -241.55 0c-62.57,0 -62.59,95.14 0,95.14l235.7 0 144.97 83.4 -270.9 156.69c-4.43,2.57 -7.83,5.43 -11.11,9.36l-164.41 196.81 -227.66 -114.98c-55.86,-28.21 -98.76,56.72 -42.89,84.93 35.29,17.82 259.11,134.41 277.17,137.22 14.28,2.26 29.68,-2.22 41.98,-16.94l139.8 -167.35 47.03 81.3 211.27 470.93 -4.64 25.85 -136.6 -103.62 55.11 94.67zm429.82 -872.62c0,-122.59 -186.22,-122.59 -186.22,0 0,122.58 186.22,122.58 186.22,0z"/>
 <path class="fil1w" d="M-3111.97 7214.91l23.56 -40.81c54.13,10 54.51,-50.92 113.88,-14.74 81.9,49.91 81.74,-37.5 141.6,-3.67 40.92,23.13 51.87,28.6 97.16,1.02 21.51,-13.1 27.74,-15.12 56.89,2.66 36.66,22.36 53.09,20.38 90.93,-2.66 21.52,-13.11 27.77,-15.1 56.89,2.66 36.66,22.36 53.09,20.38 90.93,-2.66 21.47,-13.08 27.77,-15.12 56.87,2.65 81.8,49.97 81.77,-37.48 141.62,-3.65 40.93,23.12 51.87,28.59 97.15,1 21.54,-13.12 27.75,-15.09 56.89,2.66 36.67,22.35 53.09,20.39 90.93,-2.66 21.55,-13.12 27.76,-15.09 56.88,2.66 36.68,22.36 53.09,20.4 90.94,-2.66 21.51,-13.1 27.76,-15.1 56.89,2.66 36.64,22.35 53.1,20.38 90.93,-2.66 21.51,-13.1 27.75,-15.12 56.9,2.66 36.67,22.38 53.1,20.38 90.92,-2.66 21.51,-13.1 27.77,-15.1 56.88,2.65 65.09,39.7 83.09,-9.72 112.17,-12.25l15.02 -40.76c-88.99,51.71 -108.13,-24.07 -140.07,-4.63 -99.04,60.29 -114.49,-20.28 -147.83,0.01 -99.02,60.29 -114.52,-20.29 -147.81,-0.01 -32.53,19.82 -58.33,30.9 -95.13,16.05l13.56 -25.5c32.9,11.33 51.93,-7.34 76.55,-20.56l104.17 44.88c21.75,9.37 41.5,-16.7 27.05,-35.05 25.85,-15.01 29.53,-22.27 63.71,-1.42 36.67,22.37 53.1,20.37 90.92,-2.66 21.52,-13.11 27.77,-15.11 56.89,2.65 65.09,39.69 83.09,-9.72 112.17,-12.25l15.02 -40.76c-88.86,51.73 -108.16,-24.06 -140.07,-4.63 -99.05,60.28 -114.5,-20.29 -147.83,0.01 -24.49,14.91 -67.77,33.37 -93.73,16.6l-30.51 -30.01 38.19 2.26c11.73,4.82 25.97,7.69 41.18,2.44 7.09,-0.97 66.75,13.62 58.57,-25.52 39.7,6.08 47.54,53.69 119.33,9.97 21.51,-13.1 27.77,-15.1 56.88,2.66 65.09,39.69 83.1,-9.71 112.17,-12.24l15.02 -40.76c-88.84,51.72 -108.15,-24.07 -140.07,-4.64 -99.04,60.29 -114.49,-20.28 -147.83,0.01l-48.75 21.65 -119.3 -42.63c24.94,-14.72 29.13,-20.86 62.33,-0.61 36.65,22.36 53.1,20.39 90.93,-2.66 21.51,-13.1 27.75,-15.12 56.9,2.66 36.67,22.37 53.1,20.38 90.92,-2.66 21.52,-13.1 27.77,-15.1 56.89,2.66 65.08,39.69 83.09,-9.72 112.17,-12.25l15.02 -40.76c-88.84,51.72 -108.15,-24.06 -140.06,-4.64 -99.05,60.29 -114.5,-20.28 -147.83,0.01 -99.01,60.28 -114.52,-20.29 -147.81,-0.01 -93.61,57.03 -119.1,-14.15 -142.29,-3.15l-11.76 -26.2c38.45,-21.45 63.27,41.81 113.92,18.75 42.68,-19.43 40.45,-36.47 82.21,-10.99 36.64,22.36 53.1,20.38 90.92,-2.66 21.51,-13.11 27.76,-15.12 56.9,2.66 36.67,22.37 53.1,20.37 90.92,-2.66 21.51,-13.1 27.76,-15.1 56.88,2.65 65.09,39.7 83.09,-9.72 112.17,-12.25l15.02 -40.76c-88.85,51.72 -108.15,-24.06 -140.07,-4.63 -99.04,60.28 -114.49,-20.29 -147.83,0.01 -99.02,60.28 -114.52,-20.3 -147.81,-0.01 -98.97,60.3 -114.53,-20.29 -147.82,0l-48.15 21.53 -12.31 -27.44c47.1,-0.98 47.14,-49.45 102.54,-15.69 36.68,22.36 53.09,20.39 90.94,-2.66 21.51,-13.1 27.76,-15.1 56.88,2.66 36.65,22.35 53.1,20.39 90.93,-2.66 21.51,-13.1 27.75,-15.11 56.9,2.66 36.67,22.38 53.1,20.38 90.92,-2.66 21.51,-13.1 27.77,-15.1 56.89,2.65 65.09,39.69 83.09,-9.71 112.17,-12.24l15.02 -40.76c-88.92,51.71 -108.14,-24.07 -140.06,-4.64 -99.05,60.29 -114.5,-20.29 -147.83,0 -99.01,60.28 -114.52,-20.29 -147.81,-0 -98.97,60.3 -114.53,-20.29 -147.82,0 -51.16,31.17 -76.87,29.17 -120.53,2.66l-17.52 -37.19c39.6,-0.14 47.3,56.55 123.25,10.27 21.55,-13.12 27.76,-15.09 56.88,2.66 36.68,22.36 53.09,20.39 90.95,-2.66 21.51,-13.11 27.76,-15.11 56.89,2.66 36.64,22.35 53.1,20.38 90.93,-2.66 21.51,-13.1 27.75,-15.12 56.9,2.66 36.67,22.37 53.1,20.37 90.92,-2.66 21.51,-13.11 27.77,-15.11 56.88,2.65 65.09,39.69 83.09,-9.71 112.17,-12.25l5.16 -14 -746.9 0 -17.75 -39.57 779.24 0 16.44 -44.61 168.64 641.43 -23.57 0 -141.12 -536.98 -197.92 536.98 -1745.26 0zm1161.24 -114.36c-48.91,29.64 -74.46,33.08 -121.16,4.64l31.13 -15.48c34,14.97 53.04,-0.52 79.68,-16.08l10.35 26.92zm-189.9 20.8c-61.45,17.98 -80.2,-36.36 -107.68,-19.62 -98.96,60.3 -114.52,-20.28 -147.82,0 -98.99,60.3 -114.51,-20.28 -147.82,0 -99.04,60.3 -114.47,-20.28 -147.82,0.01 -99.04,60.26 -114.56,-20.26 -147.83,-0.01 -98.99,60.27 -114.57,-20.25 -147.81,0 -21.68,13.2 -44.13,25.72 -72.04,22.21l16.43 -28.46c44.84,-5.23 44.26,-47.92 97.69,-15.35 81.89,49.91 81.74,-37.51 141.61,-3.67 40.92,23.13 51.87,28.59 97.15,1.01 21.51,-13.1 27.74,-15.12 56.89,2.66 36.66,22.37 53.1,20.37 90.93,-2.66 21.53,-13.12 27.78,-15.1 56.89,2.66 36.66,22.37 53.09,20.37 90.92,-2.66 21.47,-13.08 27.77,-15.12 56.87,2.65 81.8,49.97 81.76,-37.48 141.63,-3.66 16.06,9.07 40.74,27.62 70.14,15.38 -6.82,9.01 -6.14,21.14 1.66,29.5zm-117.74 -79.5c-61.88,18.84 -80.91,-36.2 -108.56,-19.36 -98.99,60.3 -114.51,-20.28 -147.82,0 -99.04,60.3 -114.48,-20.28 -147.82,0.01 -99.04,60.26 -114.55,-20.26 -147.82,-0.01 -99,60.27 -114.57,-20.26 -147.82,0 -14.99,9.14 -34.76,20.78 -55.69,22.55 25.58,-44.3 12.41,-29.45 40.89,-46.81 21.87,-13.33 28.13,-14.85 56.88,2.66 81.9,49.91 81.74,-37.5 141.6,-3.66 40.92,23.12 51.87,28.59 97.16,1.01 21.51,-13.1 27.74,-15.12 56.89,2.66 36.66,22.37 53.1,20.37 90.93,-2.67 21.52,-13.11 27.77,-15.09 56.89,2.67 36.66,22.37 53.09,20.37 90.92,-2.67 21.48,-13.08 27.77,-15.12 56.88,2.66 12.27,7.48 33.71,20.56 57.85,13.84 -3.74,9.89 -0.14,21.23 8.63,27.12zm118 -83.89c-56.97,-24.99 -15.29,-27.98 -77.85,0.51 -45.4,20.67 -78.14,-5.33 -97.88,-15.91 -32.02,-17.15 -51.67,58.53 -142.14,3.36 -23.34,-14.23 -16.55,-5.24 -55.63,12.55 -45.3,20.62 -78,-5.21 -97.87,-15.91 -32.17,-17.32 -50.44,58.39 -142.14,3.35 -23.57,-14.14 -16.16,-5.41 -55.63,12.56 -44.36,20.2 -77.27,-4.29 -97.87,-15.91 -19.31,-10.88 -21.3,6.76 -58.47,19.28 22.58,-39.11 27.74,-71.4 78.95,-40.19 81.89,49.91 81.75,-37.5 141.61,-3.67 40.92,23.13 51.87,28.6 97.15,1.02 21.51,-13.1 27.74,-15.12 56.89,2.66 36.66,22.37 53.1,20.38 90.93,-2.66 21.53,-13.11 27.78,-15.09 56.89,2.66 36.66,22.37 53.09,20.38 90.92,-2.66 21.47,-13.08 27.77,-15.12 56.87,2.66 81.8,49.96 81.77,-37.49 141.63,-3.66 19.83,11.2 41.71,28.61 74.84,13.26l1.53 2.62 -62.73 24.09zm127.93 -94.21l-18.56 10.55 -25.59 -19.41 32.43 -17.27 11.72 26.12zm-96.84 15.78c-59.93,-25.05 -14.41,-30.06 -79.73,-0.31 -45.41,20.68 -78.14,-5.32 -97.89,-15.91 -32.02,-17.15 -51.67,58.53 -142.14,3.36 -23.34,-14.23 -16.55,-5.24 -55.62,12.55 -45.31,20.63 -78,-5.2 -97.88,-15.91 -32.16,-17.32 -50.43,58.39 -142.14,3.35 -23.57,-14.14 -16.16,-5.41 -55.62,12.56 -44.36,20.2 -77.28,-4.29 -97.87,-15.91 -14.39,-8.11 -16.28,-1.55 -36.02,9.03l24.75 -42.87c39.56,0.86 47.18,56.24 122.67,10.27 21.93,-13.36 28.13,-14.84 56.89,2.66 36.61,22.27 53.12,20.37 90.93,-2.65 21.51,-13.11 27.74,-15.12 56.89,2.66 36.66,22.36 53.1,20.37 90.93,-2.66 21.52,-13.11 27.77,-15.1 56.89,2.66 36.66,22.36 53.09,20.37 90.92,-2.66 21.48,-13.08 27.77,-15.12 56.88,2.65 36.63,22.38 53.14,20.38 90.95,-2.65 41.34,-25.18 42.93,-0.22 66.2,39.78zm71.45 -72.36c-55.38,5.82 -67.72,-38.2 -93.65,-22.4 -98.96,60.3 -114.53,-20.28 -147.82,0 -98.99,60.29 -114.51,-20.28 -147.82,0 -99.04,60.29 -114.47,-20.28 -147.82,0.01 -99.04,60.25 -114.55,-20.26 -147.82,-0.01 -89.37,54.4 -114.56,-7.38 -138.32,-4.4l15.24 -26.4c40.34,17.25 48.16,43.15 108.27,6.54 21.94,-13.36 28.13,-14.84 56.9,2.66 36.6,22.27 53.12,20.38 90.93,-2.65 21.51,-13.1 27.74,-15.12 56.89,2.66 36.66,22.37 53.1,20.38 90.93,-2.66 21.53,-13.11 27.78,-15.1 56.89,2.66 36.66,22.37 53.09,20.38 90.92,-2.66 21.47,-13.08 27.77,-15.12 56.87,2.65 81.8,49.97 81.76,-37.48 141.62,-3.65 12.23,6.9 26.11,17.21 44.96,19.09l12.82 28.57zm-46.8 -104.31c-24.98,-11.13 -51.5,58.2 -138.2,5.32 -23.31,-14.22 -16.53,-5.23 -55.61,12.56 -45.3,20.63 -78,-5.2 -97.87,-15.9 -31.93,-17.19 -51.66,58.53 -142.14,3.35 -23.32,-14.22 -16.54,-5.24 -55.62,12.55 -44.38,20.22 -77.28,-4.3 -97.88,-15.9 -32.81,-18.49 -46.09,60 -146.12,1.01l14.23 -24.64c39.86,23.08 52.26,26.39 95.48,0.07 21.93,-13.36 28.13,-14.84 56.89,2.66 36.61,22.27 53.12,20.37 90.93,-2.65 21.51,-13.1 27.74,-15.12 56.89,2.66 36.66,22.36 53.1,20.37 90.93,-2.66 21.52,-13.12 27.77,-15.1 56.89,2.66 36.66,22.36 53.09,20.37 90.92,-2.66 21.48,-13.08 27.77,-15.12 56.88,2.65 61.29,37.44 79.62,-4.03 109.47,-12.1l13.93 31.04zm-20.28 -45.19l-685.35 0 22.84 -39.57 644.76 0 17.75 39.57z"/>
</symbol>
 <g id="Ebene_x0020_1">
  <metadata id="CorelCorpID_0Corel-Layer"/>
  <use id="ISO_x0020_7010_x0020_W036_0" transform="scale(0.571429 0.57143)" x="-0" y="0" width="3500" height="3058.8" xlink:href="#ISO_x0020_7010_x0020_W036"/>
 </g>
</svg>
