<?xml version="1.0" encoding="UTF-8"?>
<!DOCTYPE svg PUBLIC "-//W3C//DTD SVG 1.1//EN" "http://www.w3.org/Graphics/SVG/1.1/DTD/svg11.dtd">
<!-- Creator: Corel DESIGNER -->
<svg xmlns="http://www.w3.org/2000/svg" xml:space="preserve" width="40mm" height="34.9578mm" version="1.1" style="shape-rendering:geometricPrecision; text-rendering:geometricPrecision; image-rendering:optimizeQuality; fill-rule:evenodd; clip-rule:evenodd"
viewBox="0 0 1000 873.94"
 xmlns:xlink="http://www.w3.org/1999/xlink"
 xmlns:xodm="http://www.corel.com/coreldraw/odm/2003">
 <defs>
  <style type="text/css">
   <![CDATA[
    .fil0w {fill:#F5CA2B}
    .fil1w {fill:#21251E}
   ]]>
  </style>
 </defs>
<symbol id="ISO_x0020_7010_x0020_W045" viewBox="1125 2259.77 1750 1529.4">
 <polygon class="fil0w" points="2822.6,3736.31 1177.99,3736.31 2000.29,2312.03 "/>
 <path class="fil1w" d="M1269.4 3683.82l730.6 -1265.43 730.6 1265.43 -1461.2 0zm1553.3 105.35l-1645.4 0c-40.29,0 -65.33,-43.37 -45.19,-78.26l822.7 -1424.97c20.14,-34.89 70.23,-34.89 90.38,0l822.7 1424.97c20.14,34.89 -4.9,78.26 -45.19,78.26z"/>
 <path class="fil1w" d="M2345.43 3576.58l8.02 -1.93c-1.21,15.24 -3.14,28.7 -13.94,31.43 -40.91,6.81 -69.13,-4.34 -97.84,-15.68 -20.88,-8.25 -42.06,-16.61 -68.43,-16.4 -21.05,0.18 -41.86,8.68 -63.75,17.62 -26.74,10.93 -54.96,22.46 -90.26,22.89 -30.96,0.38 -52.51,-8.69 -75.16,-18.22 -24.47,-10.3 -50.41,-21.22 -91.84,-18.35 -32.94,2.28 -53.21,11.09 -71.44,19.01 -24.31,10.56 -45.49,19.77 -83.3,14.5 -16.58,-2.31 -16.54,-18.6 -18.29,-32.09l7.91 2.05c39.53,8.78 59.15,0.25 82.13,-9.74 20.46,-8.89 43.22,-18.79 80.98,-21.4 48.34,-3.35 77.52,8.93 105.05,20.52 19.92,8.38 38.87,16.36 63.63,16.05 29.64,-0.36 55.35,-10.87 79.72,-20.82 24.42,-9.97 47.63,-19.46 74.4,-19.68 32.07,-0.26 55.8,9.11 79.19,18.35 27.31,10.79 54.11,21.38 93.22,11.88zm0 -63.61l8.02 -1.93c-1.21,15.24 -3.14,28.7 -13.94,31.43 -40.91,6.81 -69.13,-4.34 -97.84,-15.68 -20.88,-8.25 -42.06,-16.61 -68.43,-16.4 -21.05,0.17 -41.86,8.68 -63.75,17.62 -26.74,10.93 -54.96,22.46 -90.26,22.89 -30.96,0.38 -52.51,-8.69 -75.16,-18.22 -24.47,-10.3 -50.41,-21.22 -91.84,-18.35 -32.94,2.28 -53.21,11.09 -71.44,19.01 -24.31,10.56 -45.49,19.76 -83.3,14.5 -16.58,-2.31 -16.54,-18.6 -18.29,-32.09l7.91 2.06c39.53,8.78 59.15,0.25 82.13,-9.74 20.46,-8.89 43.22,-18.78 80.98,-21.4 48.34,-3.35 77.52,8.93 105.05,20.52 19.92,8.38 38.87,16.35 63.63,16.05 29.64,-0.36 55.35,-10.87 79.72,-20.82 24.42,-9.98 47.63,-19.46 74.4,-19.68 32.07,-0.27 55.8,9.11 79.19,18.35 27.31,10.79 54.11,21.38 93.22,11.88z"/>
 <path class="fil1w" d="M2261.12 3318.75l0 -181.55c0,-35.26 -28.24,-51.84 -54.8,-49.75l-252.89 20.44c1.28,-26.27 -31.47,-25.8 -32.48,-5.3l-1.15 23.46 -424.61 0 0 23.22 423.47 0 -1.05 21.44c-1.06,21.62 31.53,24.56 32.59,2.94l0.56 -11.41 209.72 -16.98 0 147.19 -114.69 -29.39c-16.71,-4.28 -33.89,5.89 -38.17,22.61l-42.3 165.11 -215.71 -40.12c-23.72,-4.41 -35.94,-20.45 -52.2,-36.27 -15.48,-15.07 -38.38,8.46 -22.88,23.53 22.75,22.16 36.19,38.89 69.17,45.02l556.7 103.54c21.2,3.91 27.19,-28.35 5.91,-32.27l-279.16 -51.92 33.47 -130.65 142.59 36.53c26.8,6.86 57.93,-12.77 57.93,-49.41zm2.18 -305.15c0,-29.19 -23.66,-52.86 -52.86,-52.86 -29.19,0 -52.86,23.67 -52.86,52.86 0,29.19 23.67,52.86 52.86,52.86 29.2,0 52.86,-23.66 52.86,-52.86z"/>
</symbol>
 <g id="Ebene_x0020_1">
  <metadata id="CorelCorpID_0Corel-Layer"/>
  <use id="ISO_x0020_7010_x0020_W045_0" transform="scale(0.571429 0.571428)" x="-0" y="0" width="1750" height="1529.4" xlink:href="#ISO_x0020_7010_x0020_W045"/>
 </g>
</svg>
