<?xml version="1.0" encoding="UTF-8"?>
<!DOCTYPE svg PUBLIC "-//W3C//DTD SVG 1.1//EN" "http://www.w3.org/Graphics/SVG/1.1/DTD/svg11.dtd">
<!-- Creator: Corel DESIGNER -->
<svg xmlns="http://www.w3.org/2000/svg" xml:space="preserve" width="40mm" height="34.9578mm" version="1.1" style="shape-rendering:geometricPrecision; text-rendering:geometricPrecision; image-rendering:optimizeQuality; fill-rule:evenodd; clip-rule:evenodd"
viewBox="0 0 1000 873.95"
 xmlns:xlink="http://www.w3.org/1999/xlink"
 xmlns:xodm="http://www.corel.com/coreldraw/odm/2003">
 <defs>
  <style type="text/css">
   <![CDATA[
    .fil0w {fill:#F5CA2B}
    .fil1w {fill:#21251E}
   ]]>
  </style>
 </defs>
<symbol id="ISO_x0020_7010_x0020_W048" viewBox="1125 701.44 1750 1529.4">
 <polygon class="fil0w" points="2822.6,2177.98 1177.99,2177.98 2000.29,753.7 "/>
 <path class="fil1w" d="M1269.4 2125.48l730.6 -1265.43 730.6 1265.43 -1461.2 0zm1553.3 105.35l-1645.4 0c-40.29,0 -65.33,-43.37 -45.19,-78.26l822.7 -1424.97c20.14,-34.89 70.23,-34.89 90.38,0l822.7 1424.97c20.14,34.89 -4.9,78.26 -45.19,78.26z"/>
 <path class="fil1w" d="M1601.83 1891.65l165.2 59.37 -11.08 8.76 -154.12 -68.13zm69.79 -56.22l98.89 104.84 -7.11 1.58 -91.78 -106.42zm206.04 120.39l183.22 -19.85 -185.21 5.95 1.99 13.89zm0.17 -19.02l70.28 -44.81 -70.45 36.71 0.17 8.1z"/>
 <path class="fil1w" d="M1871.68 1916.13c0,-26.7 -21.64,-48.34 -48.34,-48.34 -26.7,0 -48.34,21.64 -48.34,48.34 0,26.7 21.64,48.34 48.34,48.34 26.7,0 48.34,-21.64 48.34,-48.34zm61.72 -100.89l70.89 -125.96c8.03,-14.26 8.26,-27.88 3.7,-39.25l98.29 -90.02c4.21,-3.86 7.39,-8.8 9.53,-14.08l57.99 -143.03c14.73,-36.33 -40.2,-58.59 -54.92,-22.27l-56.42 139.14 -109.63 100.4c-12.15,2.28 -23.69,9.71 -31.67,23.89l-83.12 147.68c-19.22,34.15 6.93,69.03 41.85,69.88l249.43 23.77c33.75,3.21 38.18,-47.85 4.44,-51.06l-200.37 -19.1z"/>
 <path class="fil1w" d="M2002.28 1533.46c-50.84,0.62 -74.12,-37.86 -150.27,-32.58 -78.49,5.44 -80.75,44.54 -152.37,25.91 1.56,12.02 1.52,26.53 16.29,28.59 33.68,4.69 52.56,-3.51 74.21,-12.91 54.78,-23.81 92.3,-22.97 145.47,-0.6 23.59,9.93 42.42,15.13 60.37,16.23l29.7 -27.2c-7.5,1.52 -15.26,2.47 -23.39,2.57zm141.25 -11.58c16.2,0.15 32.69,5.05 57.21,14.74 25.58,10.11 50.72,20.04 87.17,13.97 9.62,-2.43 11.34,-14.42 12.42,-28l-7.14 1.71c-57.63,14 -86.15,-21.38 -139.95,-26.37l-9.71 23.94z"/>
 <polygon class="fil1w" points="2559.8,1966.12 1435.21,1966.12 1382.89,2056.74 2612.12,2056.74 "/>
</symbol>
 <g id="Ebene_x0020_1">
  <metadata id="CorelCorpID_0Corel-Layer"/>
  <use id="ISO_x0020_7010_x0020_W048_0" transform="scale(0.571429 0.571428)" x="-0" y="0" width="1750" height="1529.4" xlink:href="#ISO_x0020_7010_x0020_W048"/>
 </g>
</svg>
