<?xml version="1.0" encoding="UTF-8"?>
<!DOCTYPE svg PUBLIC "-//W3C//DTD SVG 1.1//EN" "http://www.w3.org/Graphics/SVG/1.1/DTD/svg11.dtd">
<!-- Creator: Corel DESIGNER -->
<svg xmlns="http://www.w3.org/2000/svg" xml:space="preserve" width="40mm" height="34.9578mm" version="1.1" style="shape-rendering:geometricPrecision; text-rendering:geometricPrecision; image-rendering:optimizeQuality; fill-rule:evenodd; clip-rule:evenodd"
viewBox="0 0 1000 873.94"
 xmlns:xlink="http://www.w3.org/1999/xlink"
 xmlns:xodm="http://www.corel.com/coreldraw/odm/2003">
 <defs>
  <style type="text/css">
   <![CDATA[
    .fil0w {fill:#F5CA2B}
    .fil1w {fill:#21251E}
   ]]>
  </style>
 </defs>
<symbol id="ISO_x0020_7010_x0020_W054" viewBox="1125 -2415.23 1750 1529.4">
 <polygon class="fil0w" points="2822.6,-938.69 1177.99,-938.69 2000.29,-2362.97 "/>
 <path class="fil1w" d="M1269.4 -991.18l730.6 -1265.44 730.6 1265.44 -1461.2 0zm1553.3 105.35l-1645.4 0c-40.29,0 -65.33,-43.37 -45.19,-78.26l822.7 -1424.97c20.14,-34.89 70.23,-34.89 90.38,0l822.7 1424.97c20.14,34.89 -4.9,78.26 -45.19,78.26z"/>
 <path class="fil1w" d="M1605.65 -1403.63c67.38,28.84 103.02,73.78 120.78,79.71 62.42,20.86 118.54,-20.89 251.43,-44.24 33.91,-5.96 61.74,-52.13 64.58,-81.79 1.97,-20.54 -6.54,-43.08 -13.72,-63.6 -2.02,-5.79 2.28,-11.77 8.41,-11.69 18.08,0.22 31.09,6.29 43.61,17.61 33.49,30.31 53.32,82.13 99.87,106.65 24.01,12.64 82.66,7.63 123.88,21.87 54.34,18.77 113.77,48.26 160.15,74.51 3.81,2.16 5.45,6.7 3.89,10.79 -3.02,7.91 -5.85,15.68 -8.9,23.61 -1.34,3.5 -4.57,5.69 -8.32,5.64 -20.24,-0.26 -43.08,-1.66 -62.73,-1.66 19.72,4.2 41.51,12.55 61.23,16.75 -65.13,35.49 -146.51,45.39 -236.23,55 -27.22,52.67 -72.86,85.88 -122.75,109.82 -14.23,6.82 -27.42,-2.44 -20.08,-16.41 15.24,-29.02 32.15,-59.45 42.96,-93.4 -100.67,3.26 -189.27,-10.03 -266.03,-36.49 -4.69,4.69 -11.29,13.5 -17.8,12.36 -12.17,-2.12 -31.01,-13.21 -40.89,-24.75 -15.71,-18.36 -42.34,-28.97 -48.82,-13.91 -4.96,11.52 -44.52,54.36 -91.68,79.14 -10.33,5.43 -19.68,-5.15 -11.77,-13.71 19.44,-21.04 37.53,-44.25 31.48,-75.03 -10.4,-52.94 -42.43,-86.59 -73.86,-123.27 -6.1,-7.13 2.72,-17.19 11.32,-13.51zm784.15 101.8c0,-5.49 -4.45,-9.94 -9.94,-9.94 -5.49,0 -9.94,4.45 -9.94,9.94 0,5.49 4.45,9.94 9.94,9.94 5.49,0 9.94,-4.45 9.94,-9.94z"/>
 <path class="fil1w" d="M2255.71 -1649.56l6.23 -1.68c-0.94,13.27 -2.44,24.98 -10.83,27.36 -31.78,5.93 -53.71,-3.78 -76.02,-13.64 -16.22,-7.18 -32.68,-14.46 -53.16,-14.27 -16.36,0.15 -32.53,7.55 -49.53,15.34 -20.78,9.51 -42.7,19.54 -70.13,19.92 -24.06,0.33 -40.8,-7.57 -58.4,-15.86 -19.02,-8.96 -39.17,-18.46 -71.36,-15.97 -25.59,1.98 -41.34,9.65 -55.5,16.55 -18.88,9.19 -35.35,17.2 -64.72,12.62 -12.88,-2.01 -12.85,-16.19 -14.21,-27.93l6.14 1.79c30.71,7.64 45.96,0.22 63.82,-8.47 15.9,-7.74 33.58,-16.35 62.92,-18.63 37.56,-2.91 60.23,7.77 81.62,17.86 15.47,7.29 30.2,14.23 49.44,13.97 23.03,-0.32 43.01,-9.46 61.94,-18.12 18.97,-8.68 37.01,-16.94 57.81,-17.13 24.92,-0.23 43.36,7.93 61.53,15.97 21.22,9.39 42.05,18.61 72.43,10.34z"/>
</symbol>
 <g id="Ebene_x0020_1">
  <metadata id="CorelCorpID_0Corel-Layer"/>
  <use id="ISO_x0020_7010_x0020_W054_0" transform="scale(0.571429 0.571428)" x="-0" y="0" width="1750" height="1529.4" xlink:href="#ISO_x0020_7010_x0020_W054"/>
 </g>
</svg>
