<?xml version="1.0" encoding="UTF-8"?>
<!DOCTYPE svg PUBLIC "-//W3C//DTD SVG 1.1//EN" "http://www.w3.org/Graphics/SVG/1.1/DTD/svg11.dtd">
<!-- Creator: Corel DESIGNER -->
<svg xmlns="http://www.w3.org/2000/svg" xml:space="preserve" width="40mm" height="34.9578mm" version="1.1" style="shape-rendering:geometricPrecision; text-rendering:geometricPrecision; image-rendering:optimizeQuality; fill-rule:evenodd; clip-rule:evenodd"
viewBox="0 0 2000 1747.89"
 xmlns:xlink="http://www.w3.org/1999/xlink"
 xmlns:xodm="http://www.corel.com/coreldraw/odm/2003">
 <defs>
  <style type="text/css">
   <![CDATA[
    .fil0w {fill:#F5CA2B}
    .fil1w {fill:#21251E}
   ]]>
  </style>
 </defs>
<symbol id="ISO_x0020_7010_x0020_W058" viewBox="-3750 4519.55 3500 3058.8">
 <polygon class="fil0w" points="-354.8,7472.62 -3644.03,7472.63 -1999.41,4624.06 "/>
 <path class="fil1w" d="M-3461.2 7367.64l1461.2 -2530.87 1461.2 2530.87 -2922.4 0zm3106.61 210.7l-3290.81 0c-80.57,0 -130.66,-86.74 -90.38,-156.52l1645.4 -2849.94c40.28,-69.77 140.46,-69.77 180.75,0l1645.4 2849.94c40.29,69.78 -9.8,156.53 -90.38,156.53z"/>
 <path class="fil1w" d="M-2099.14 6335.97c158.4,164.53 349.48,338.87 522.36,489.11 92.9,-37.82 183.3,-77.02 286.51,-77.88 95.82,-0.8 172.03,22.73 243.05,49.48l-355.5 -615.76 -195.68 -338.94 -807.03 0c-2.53,141.6 131.45,312.37 306.3,493.98zm321.41 -150.26l-55.61 63.25 -121.21 26.43 -76.89 -34.35 -21.09 -95.41 49.79 77.19 39.24 11.53 48.65 -10.61 -33.83 -155.11 -63.82 13.92c-11.91,2.6 -23.78,-5.02 -26.38,-16.93 -2.6,-11.91 5.02,-23.78 16.93,-26.38l63.83 -13.92 -8.38 -38.4c-13.34,-2.1 -24.65,-12.15 -27.71,-26.15 -3.97,-18.22 7.56,-36.18 25.78,-40.15 18.21,-3.97 36.17,7.56 40.14,25.77 3.06,13.99 -3.05,27.84 -14.3,35.31l8.38 38.41 63.82 -13.91c11.91,-2.6 23.78,5.02 26.37,16.93 2.6,11.91 -5.02,23.77 -16.92,26.38l-63.82 13.92 33.83 155.11 48.64 -10.61 30.88 -26.82 13.13 -90.91 20.55 95.52z"/>
 <path class="fil1w" d="M-2126.26 7163.22c240.41,101.19 360.04,82.66 604.04,-17.02 207.56,-84.81 274.48,-86.69 482.61,-4.46 72.38,28.6 143.9,56.85 230.41,63.41l-65.92 -114.18c-131.32,-32.45 -240.79,-111.55 -415.14,-110.1 -198.65,1.65 -349.84,145.31 -562.76,147.9 -208.36,2.55 -303.82,-155.16 -615.9,-133.55 -316.75,21.95 -330.59,177.65 -611.17,109.56 -4.37,-1.06 -45.19,-12.93 -49.69,-14.1 -1.29,49.26 -2.66,79.62 55.85,109.12 79.57,40.12 273.93,-0.47 351.46,-34.16 224.5,-97.56 378.3,-94.15 596.22,-2.44zm0 -168.67c240.41,101.19 360.04,82.66 604.04,-17.02 207.56,-84.81 274.48,-86.69 482.61,-4.46 39.86,15.74 79.46,31.39 121.45,43.36l-77.92 -134.96c-86.22,-33.65 -175.05,-70.26 -294.19,-69.27 -198.65,1.65 -349.84,145.31 -562.76,147.9 -208.36,2.55 -303.82,-155.16 -615.9,-133.55 -280.72,19.45 -323.52,143.97 -524.96,124.63 -3.41,33.23 18.85,88.38 67.05,103.72 75.81,-3.94 135.53,-28.02 204.36,-57.92 224.51,-97.56 378.3,-94.15 596.22,-2.44z"/>
 <path class="fil1w" d="M-2340.4 6803.39l0 -129.1c7.7,0.01 15.41,-2.91 21.25,-8.76l211.45 -211.44c11.7,-11.7 11.75,-30.84 0.05,-42.56 -11.68,-11.72 -30.85,-11.76 -42.55,-0.06 -67.56,67.57 -135.12,135.12 -202.68,202.68l-113.3 0c-67.56,-67.56 -135.12,-135.11 -202.68,-202.68 -11.71,-11.7 -30.87,-11.65 -42.55,0.06 -11.69,11.72 -11.64,30.85 0.06,42.56l211.44 211.44c5.84,5.85 13.55,8.76 21.25,8.76l0 127.97c46.55,-3.85 92.61,-3.32 138.26,1.14zm-8.2 -266.57c0,-33.65 -27.28,-60.93 -60.93,-60.93 -33.65,0 -60.93,27.28 -60.93,60.93 0,33.65 27.28,60.94 60.93,60.94 33.66,0 60.93,-27.28 60.93,-60.94z"/>
</symbol>
 <g id="Ebene_x0020_1">
  <metadata id="CorelCorpID_0Corel-Layer"/>
  <use id="ISO_x0020_7010_x0020_W058_0" transform="scale(0.571429 0.571428)" x="-0" y="0" width="3500" height="3058.8" xlink:href="#ISO_x0020_7010_x0020_W058"/>
 </g>
</svg>
