<?xml version="1.0" encoding="UTF-8"?>
<!DOCTYPE svg PUBLIC "-//W3C//DTD SVG 1.1//EN" "http://www.w3.org/Graphics/SVG/1.1/DTD/svg11.dtd">
<!-- Creator: Corel DESIGNER -->
<svg xmlns="http://www.w3.org/2000/svg" xml:space="preserve" width="40mm" height="34.9578mm" version="1.1" style="shape-rendering:geometricPrecision; text-rendering:geometricPrecision; image-rendering:optimizeQuality; fill-rule:evenodd; clip-rule:evenodd"
viewBox="0 0 1000 873.94"
 xmlns:xlink="http://www.w3.org/1999/xlink"
 xmlns:xodm="http://www.corel.com/coreldraw/odm/2003">
 <defs>
  <style type="text/css">
   <![CDATA[
    .fil0w {fill:#F5CA2B}
    .fil1w {fill:#21251E}
   ]]>
  </style>
 </defs>
<symbol id="ISO_x0020_7010_x0020_W062" viewBox="1125 -856.9 1750 1529.4">
 <polygon class="fil0w" points="2822.6,619.64 1177.99,619.65 2000.29,-804.64 "/>
 <path class="fil1w" d="M1269.4 567.15l730.6 -1265.43 730.6 1265.43 -1461.2 0zm1553.3 105.35l-1645.4 0c-40.29,0 -65.33,-43.37 -45.19,-78.26l822.7 -1424.97c20.14,-34.89 70.23,-34.89 90.38,0l822.7 1424.97c20.14,34.89 -4.9,78.26 -45.19,78.26z"/>
 <path class="fil1w" d="M2223.83 -145.84c-72.08,-77.85 -210.37,-101.74 -260.71,-36.34l-191.48 247.23c-7.45,-0.66 -13.31,10.02 -5.68,15.53l25.71 18.53 -124.19 -15.58c-8.14,-1.02 -13.48,3.6 -15.49,9.45l-41.7 117.48c-2.01,7.42 0.55,16.1 10.02,19.8l39.58 15.48 -32.36 63.34c-20.7,-3.23 -42.81,-6.52 -66.5,-9.98 -19.76,2.54 -44.32,7.36 -53.2,9.44 87.01,57.94 180.89,79.63 280.8,85.62 38.59,2.31 71.81,1.3 89.4,-12.59 -36.6,-24.66 -82.05,-40.38 -146.26,-53.98l31.73 -63.04c2.61,-10.41 -5.84,-18.66 -15,-19.66l-67.38 -26.34 5.9 -16.63 114.04 -72.08 29.86 3.75c2.84,0.36 5.33,0.02 7.47,-0.81l37.77 27.22c5.23,3.77 10.77,0.76 12.77,-3.72l376.41 -60.88c3.45,-0.36 13.03,-2.64 16.3,-10.25 14.53,-33.79 28.49,-133.28 -57.8,-230.98zm-439.26 218.79l262.38 -247.81c38.42,-5.3 76.7,19.33 105.73,65.59l-330.82 209.11 -37.3 -26.88zm-5.75 54.1l-84.1 53.16 21.65 -60.99 62.44 7.84zm60.35 -21.31l324.6 -205.18c40.67,18.37 85.66,67.74 87.61,115.07l-370.86 126.48 -33.26 -23.98c-0.21,-5.09 -2.8,-10.05 -8.09,-12.4zm-148.34 152.09l32.92 12.88 -25.7 50.22c-11.53,-2.13 -23.61,-4.24 -36.27,-6.35l29.05 -56.75zm41.85 -208.37c0,-37 -56.2,-37 -56.2,0 0,37 56.2,37 56.2,0zm249.61 -233.14c21.94,-3.63 39.87,-3.54 48,4.97l-193.1 182.37 145.1 -187.34zm274.09 212.67c11.73,12.78 12.78,33.29 10.99,51.55l-308.91 50.05 297.92 -101.6z"/>
 <path class="fil1w" d="M1462.72 383.43c10.24,7.8 21.21,15.5 32.89,22.43 2.86,1.69 5.78,2.81 9.06,2.32 9.37,-1.39 10.89,-2.88 22.29,-7.3 -19.74,-11.7 -37.51,-23.19 -54.01,-35.18l-10.24 17.74zm23.54 -40.78c43.41,31.25 100.22,53.63 154.51,71.16 2.68,0.86 5.1,1.34 7.89,1.03 13.27,-1.48 32.07,-6.73 49.7,-10.99 -69.48,-11.42 -144.96,-39 -202.34,-78.13l-9.77 16.92z"/>
 <path class="fil1w" d="M2406.34 458.12l0 0zm-77.23 -3.8l0 0zm103.42 37.28c45.41,12.47 50.15,-0.55 100.92,-13.73 29.58,-7.68 39.12,0.39 42.86,-5.38 2.72,-4.21 -7.68,-21.55 -12.13,-21.65 -75.46,-1.56 -67.91,42.65 -155.2,8.1 -24.18,-9.57 -56.2,-10.98 -85.78,-3.07 -61.08,16.33 -45.34,25.44 -111.08,4.07 -84.74,-27.54 -118.73,16.81 -153.61,12.38 -50.01,-6.35 -75.62,-34.58 -139.83,-15.53 -56.79,16.85 -48.69,22.37 -107.5,3.23 -84.25,-27.43 -121.31,17.12 -153.85,12.3 -34.79,-5.17 -47.61,-15.18 -77.85,-20.09 -54.76,-8.89 -78.48,16.49 -113.91,19.39 -13.81,1.14 -22.11,-4.47 -14.39,12.73 5.4,12.02 16.63,12.32 26.24,10.37 36.28,-7.36 55.54,-35.37 139.13,-7.62 40.63,13.49 51.62,12.98 93.85,-3.1 33.87,-12.89 61.84,-12.57 104.62,2.42 44.3,15.53 55.08,12.22 90.97,-0.72 36.16,-13.03 62.02,-14.38 101.62,-1.78 52.93,16.84 53.08,17.75 105.44,-0.47 80.28,-27.93 108.47,21.67 163.34,11.66 42.3,-7.71 61.19,-31.26 122.5,-14.29l33.65 10.78zm0 -41.5c55.42,15.22 64.74,-10.53 116.32,-16.68 10.21,-1.22 -0.72,-15.18 -3.53,-20.06 -6.04,-10.47 -59.62,17.79 -81.07,17.76 -42.39,-0.06 -71.65,-35.31 -141.05,-16.75 -61.08,16.33 -45.34,25.44 -111.08,4.07 -84.73,-27.54 -118.73,16.81 -153.61,12.38 -50.06,-6.36 -75.62,-34.59 -139.89,-15.51 -57.44,17.06 -49.14,22.19 -107.44,3.21 -84.25,-27.43 -121.31,17.12 -153.85,12.3 -34.79,-5.16 -47.61,-15.17 -77.85,-20.09 -63.59,-10.33 -80.95,24.19 -131.73,18.87 -10.35,-1.09 -10.36,2.65 -6.35,12.8 4.61,11.67 15.56,12.73 24.52,12.31 44.58,-2.7 58.66,-39.66 150.63,-9.13 40.63,13.49 51.62,12.99 93.85,-3.1 75.33,-28.69 109.38,18.42 160.26,11.94 41.93,-5.35 63.74,-35.29 136.9,-12.03 52.97,16.85 53.07,17.79 105.45,-0.44 80.35,-27.96 108.49,21.63 163.35,11.66 24.52,-4.46 48.45,-18.5 77.51,-20.33 27.91,-1.76 50.96,8.67 78.68,16.82z"/>
</symbol>
 <g id="Ebene_x0020_1">
  <metadata id="CorelCorpID_0Corel-Layer"/>
  <use id="ISO_x0020_7010_x0020_W062_0" transform="scale(0.571429 0.571428)" x="-0" y="0" width="1750" height="1529.4" xlink:href="#ISO_x0020_7010_x0020_W062"/>
 </g>
</svg>
