<?xml version="1.0" encoding="UTF-8"?>
<!DOCTYPE svg PUBLIC "-//W3C//DTD SVG 1.1//EN" "http://www.w3.org/Graphics/SVG/1.1/DTD/svg11.dtd">
<!-- Creator: Corel DESIGNER -->
<svg xmlns="http://www.w3.org/2000/svg" xml:space="preserve" width="40mm" height="34.9578mm" version="1.1" style="shape-rendering:geometricPrecision; text-rendering:geometricPrecision; image-rendering:optimizeQuality; fill-rule:evenodd; clip-rule:evenodd"
viewBox="0 0 2000 1747.89"
 xmlns:xlink="http://www.w3.org/1999/xlink"
 xmlns:xodm="http://www.corel.com/coreldraw/odm/2003">
 <defs>
  <style type="text/css">
   <![CDATA[
    .fil0w {fill:#F5CA2B}
    .fil1w {fill:#21251E}
   ]]>
  </style>
 </defs>
<symbol id="ISO_x0020_7010_x0020_W069" viewBox="-3750 4519.55 3500 3058.8">
 <polygon class="fil0w" points="-354.8,7472.62 -3644.03,7472.63 -1999.41,4624.06 "/>
 <path class="fil1w" d="M-3461.2 7367.64l1461.2 -2530.87 1461.2 2530.87 -2922.4 0zm3106.61 210.7l-3290.81 0c-80.57,0 -130.66,-86.74 -90.38,-156.52l1645.4 -2849.94c40.28,-69.77 140.46,-69.77 180.75,0l1645.4 2849.94c40.29,69.78 -9.8,156.53 -90.38,156.53z"/>
 <path class="fil1w" d="M-2290 6207.63c40.19,-3.23 156.32,-12.14 189.61,-30.83 46.57,-26.14 67.65,-37.36 115.25,-61.56 54.39,-27.66 117.23,-12.15 164.28,27.69 69.57,58.91 80.72,105.18 158.18,153.26 22.57,14.01 63.02,44.78 109.87,71.05 36.55,20.49 55.35,88.84 37.15,122.28 -16.14,29.69 -41.62,55.82 -79.09,59.12 -42.09,48.46 -27.24,77.18 -57.8,152.25 -16.63,40.87 -17.66,35.95 -48.15,69.37 14.45,-30.9 21.78,-43.01 30.73,-75.11 21.39,-76.7 10.95,-106.35 38.54,-150.14 -3.77,-1.01 -7.52,-2.07 -11.31,-3.06 -76.9,66.87 -52.96,99.31 -98.88,198.13 -21.52,46.32 -23.61,42.31 -59.42,80.56 24.02,-37.77 31.4,-44.95 46.94,-85.65 39.1,-102.4 18.98,-134.59 82.97,-199.48 -38.16,-7.53 -76.87,-10.91 -114.25,-12.64 -151.34,121.65 23.9,238.97 -137.77,368.72 0,0 -107.51,80.24 -107.51,80.24 77.36,-91.88 14.38,-22.11 92.76,-97.32 126.36,-121.24 -14.99,-226.68 89.94,-353.46 -18.45,-0.35 -36.25,-0.64 -53.13,-1.23 -23.79,35.35 -56.08,53.35 -90.26,70.34 20.48,61.56 12.97,124.16 -47.87,179.73 -127.9,116.83 -116.01,58.88 -152.56,243.9 -20.46,103.54 -106.31,179.72 -199.77,219.7 83.84,-44.61 163.3,-123.24 174.33,-222.53 20.02,-180.16 15.54,-157.69 146,-276.61 40.19,-36.64 47.78,-79.03 36.52,-122.24 -24.52,13.47 -48.62,29.86 -69.9,55.02 -66.62,78.74 -32.91,72.36 -136.32,109.15 -123.85,44.08 -27.06,161.18 -219.01,304.91 0,0 58.57,-69.91 58.57,-69.91 79.88,-103.67 27.35,-215.11 149.56,-264.21 93.73,-37.66 55.43,-24.26 117.47,-102.43 27.01,-34.02 56.73,-54.09 85.42,-70.17 -24.36,-50.1 -68.69,-99.37 -111.68,-140.12 -93.1,81.31 -47.57,208.11 -190.42,265.56l19.99 -18.89c97.82,-94.19 65.07,-189.46 136.63,-266.15 -3.8,-1.69 -7.51,-3.28 -11.13,-4.73 -31.67,-12.66 -76.13,-28.22 -99.33,-35.95 -7.98,76.43 -39.07,80.73 -86.3,160.9 -16.91,28.72 -20.56,42.39 -32.8,74.23 2.92,-45.14 -1.33,-42.47 16.58,-82.8 36.26,-81.69 70.23,-84.5 70.53,-168.79 -14.64,-12.37 -24.09,-29.94 -26.38,-50.28 -5.25,-46.93 6.07,-94.45 73.2,-99.85zm334.07 308.31c-32.43,-4.04 -61.87,-13.87 -91.77,-26.88 15.54,20.48 29.35,41.67 40.3,63.19 19.07,-10.4 36.68,-21.3 51.47,-36.31z"/>
 <path class="fil1w" d="M-1485.59 6039.31c-60.98,11.96 -114.58,-2.82 -204.37,-46.43 -65.65,-31.88 -86.62,-32.38 -163.9,5.45 -123.57,60.46 -176.21,61.2 -313.45,-5.45 -65.64,-31.88 -86.64,-32.38 -163.91,5.45 -41.05,20.11 -94.86,46.43 -160.2,44.24 -19.55,-11.57 -34.99,-49.71 -32.01,-79.81 0.61,-6.2 14.58,4.03 24.15,5.13 72.66,5.73 124.25,-28.98 176.61,-51.93 114.45,-50.17 138.33,-0.84 249.06,40.28 94.94,35.25 165.66,-12.82 228.29,-40.28 114.44,-50.16 138.32,-0.84 249.07,40.28 46.59,17.3 87.34,14.53 124.17,3.98 4.07,29 0.21,55.55 -13.5,79.08z"/>
</symbol>
 <g id="Ebene_x0020_1">
  <metadata id="CorelCorpID_0Corel-Layer"/>
  <use id="ISO_x0020_7010_x0020_W069_0" transform="scale(0.571429 0.571428)" x="-0" y="0" width="3500" height="3058.8" xlink:href="#ISO_x0020_7010_x0020_W069"/>
 </g>
</svg>
