<?xml version="1.0" encoding="UTF-8"?>
<!DOCTYPE svg PUBLIC "-//W3C//DTD SVG 1.1//EN" "http://www.w3.org/Graphics/SVG/1.1/DTD/svg11.dtd">
<!-- Creator: Corel DESIGNER -->
<svg xmlns="http://www.w3.org/2000/svg" xml:space="preserve" width="40mm" height="34.9578mm" version="1.1" style="shape-rendering:geometricPrecision; text-rendering:geometricPrecision; image-rendering:optimizeQuality; fill-rule:evenodd; clip-rule:evenodd"
viewBox="0 0 4000 3495.78"
 xmlns:xlink="http://www.w3.org/1999/xlink"
 xmlns:xodm="http://www.corel.com/coreldraw/odm/2003">
 <defs>
  <style type="text/css">
   <![CDATA[
    .fil0w {fill:#F5CA2B}
    .fil1w {fill:#21251E}
   ]]>
  </style>
 </defs>
<symbol id="ISO_x0020_7010_x0020_W071" viewBox="-1500 2805.75 7000 6117.6">
 <polygon class="fil0w" points="5290.4,8711.91 -1288.06,8711.92 2001.17,3014.79 "/>
 <path class="fil1w" d="M-922.41 8501.93l2922.41 -5061.74 2922.4 5061.74 -5844.81 0zm6213.22 421.41l-6581.62 0.01c-161.14,0 -261.32,-173.49 -180.75,-313.05l3290.81 -5699.88c80.57,-139.55 280.93,-139.55 361.5,0l3290.81 5699.87c80.57,139.56 -19.61,313.05 -180.75,313.05z"/>
 <path id="Person_x0020_front_x0020_view" class="fil1w" d="M2607.56 5274.43c0,-335.56 -272.01,-607.58 -607.57,-607.58 -335.55,0 -607.57,272.02 -607.57,607.58 0,335.56 272.02,607.57 607.57,607.57 335.56,0 607.57,-272.01 607.57,-607.57zm-845.81 1938.73c26.86,0 48.64,21.78 48.64,48.64 0,26.86 -21.78,48.64 -48.64,48.64 -26.86,0 -48.64,-21.78 -48.64,-48.64 0,-26.86 21.78,-48.64 48.64,-48.64zm179.92 60.86c26.86,0 48.64,21.78 48.64,48.64 0,26.86 -21.78,48.64 -48.64,48.64 -26.86,0 -48.64,-21.78 -48.64,-48.64 0,-26.86 21.78,-48.64 48.64,-48.64zm-280.46 -521.23c26.86,0 48.64,21.78 48.64,48.64 0,26.86 -21.78,48.64 -48.64,48.64 -26.86,0 -48.64,-21.78 -48.64,-48.64 0,-26.86 21.78,-48.64 48.64,-48.64zm154.47 128.01c0,26.86 -21.78,48.64 -48.64,48.64 -26.86,0 -48.64,-21.78 -48.64,-48.64 0,-26.86 21.78,-48.64 48.64,-48.64 26.86,0 48.64,21.78 48.64,48.64zm369.39 304.27c0,-33.61 27.26,-60.87 60.87,-60.87 33.61,0 60.87,27.26 60.87,60.87 0,33.61 -27.26,60.87 -60.87,60.87 -33.61,0 -60.87,-27.26 -60.87,-60.87zm-157.72 -492.12c0,26.86 -21.78,48.64 -48.64,48.64 -26.86,0 -48.64,-21.78 -48.64,-48.64 0,-26.86 21.78,-48.64 48.64,-48.64 26.86,0 48.64,21.78 48.64,48.64zm237.45 218.61c-17.59,-1.81 -31.3,-16.66 -31.3,-34.73 0,-19.29 15.63,-34.92 34.92,-34.92 11.31,0 21.36,5.37 27.74,13.7 7.95,-4.08 16.96,-6.39 26.51,-6.39 32.05,0 58.03,25.98 58.03,58.03 0,32.05 -25.98,58.03 -58.03,58.03 -30.6,0 -55.66,-23.68 -57.87,-53.72zm-1091.56 585.08l0 -519.04c0,-56.36 86.9,-56.36 86.9,0l0 449.26c38.65,42.34 106.48,-6.72 78.35,-56.6 15.09,-6.25 26.35,-19.87 29.29,-36.37 27.69,64.5 124.14,11.63 85.08,-46.33l13.33 -38.53c15.98,13.21 38.66,14.86 56.39,3.98 -16.25,31.96 6.81,70.66 43.38,70.66 47.66,0 66.59,-61.75 27.63,-88.67 11.93,-17.67 5.29,-42 -14.13,-51.13 1.93,-2.04 3.61,-4.32 5.01,-6.79 25.46,45.1 91.33,-3.81 55.73,-41.21 31.3,21.35 69.66,-16.23 48.91,-47.96 15.48,-8.14 26.03,-24.37 26.03,-43.07 0,-53.56 -74.52,-67.33 -93.95,-17.72 -16.76,-13.79 -41.94,-9.06 -52.6,9.83 -7.94,-14.06 -24.7,-21.07 -40.57,-16.28 13.11,-10.33 17.13,-28.58 9.41,-43.49l8.74 -29.24c61.84,1.47 67.39,-90.38 6.57,-96.97 7.88,-38.1 -30.05,-69.36 -65.76,-55.01 6.56,-40.45 -36.83,-69.93 -71.85,-50.18 -14.05,-33.89 -59.26,-40.63 -82.57,-12.25 -4.22,-16.15 -16.54,-29.03 -32.36,-34.04 10.48,-33.74 -17.51,-67.39 -52.89,-62.7 31.35,-49.75 -37.92,-102.17 -77.33,-58.42 -2.34,-33.34 -36.86,-54.13 -67.2,-41.47 10.45,-46.56 -45.77,-78.39 -80.44,-46.4 -4.87,-15.5 -17.29,-27.66 -32.96,-32.16 5.96,-32.18 -21.31,-61.29 -53.99,-57.06 -22.62,-56.24 -93.25,-74.56 -140.32,-36.74 -4.83,-4.64 -10.17,-8.74 -15.94,-12.22 -139.15,158.5 -223.77,365.89 -223.77,592.08l0 1214.38 617.88 0 0 -578.97c-3.87,-0.99 -7.92,-1.52 -12.1,-1.52 -20.94,0 -38.79,13.23 -45.64,31.79 -0.66,-0.03 -1.32,-0.04 -1.98,-0.04 -17.81,0 -33.39,9.58 -41.86,23.86 -22.69,0.99 -41.35,17.54 -45.57,39.24 -11.2,5.46 -19.99,15.09 -24.35,26.86 -19.18,0.25 -35.68,11.61 -43.37,27.93 -7.26,-4.3 -15.73,-6.77 -24.77,-6.77 -11.14,0 -21.41,3.75 -29.61,10.05 -3.66,-14.25 -13.63,-25.99 -26.74,-32.05 43.99,-6.05 77.86,-43.79 77.86,-89.44 0,-5.68 -0.52,-11.24 -1.53,-16.63 9.12,-1.27 17.42,-5.06 24.19,-10.65 8.72,13.07 23.61,21.69 40.5,21.69 26.86,0 48.64,-21.78 48.64,-48.64 0,-1.21 -0.04,-2.41 -0.13,-3.6 7.43,4.6 16.19,7.26 25.57,7.26 26.86,0 48.64,-21.78 48.64,-48.64 0,-3.96 -0.47,-7.81 -1.37,-11.49 4.32,1.25 8.87,1.92 13.59,1.92 7.14,0 13.92,-1.54 20.03,-4.3zm159.7 -944.78c-4.82,85.13 101.72,128.43 157.99,64.4 1.03,18.88 12.83,34.89 29.35,42 -5.47,47.69 54.24,73.25 85.18,37.31 24.68,14.05 56.25,3.91 68.19,-21.96 17.44,18.27 45.94,20.16 65.62,4.36 -10.06,31.25 13.12,63.62 46.29,63.62 35.25,0 58.3,-36.16 44.73,-67.78l6.75 -43.8c10.36,-3.88 19.04,-11.2 24.66,-20.56 30.63,15.34 67.67,-5.21 70.26,-39.82 46.98,-23.92 27.23,-96.32 -26.4,-91.82 -3.34,-6.79 -8.82,-12.35 -15.56,-15.78l-0.04 -30.44c20.31,-2.71 36.66,-17.97 41,-37.72 10.42,-8.92 17.02,-22.16 17.02,-36.95 0,-24.12 -17.56,-44.14 -40.6,-47.98l11.49 -31.74c28.71,60.51 119.92,11.95 85.84,-45.59 33.42,-15.76 37.68,-61.59 7.97,-83.3 31.79,-31.05 8.33,-85.39 -35.99,-83.41 4.67,-5.71 8.07,-12.51 9.76,-19.96 -177.21,0 -354.41,0 -531.62,0 -223.7,0 -429,82.76 -586.81,219.18 17.33,44.32 66.54,67.94 112.27,52.92 -1.44,27.09 18.98,49.68 45.4,51.38 -6.58,45.65 48.01,73.51 81.21,42.68 15.9,17.19 41.87,20.68 61.69,8.12 2.03,5.32 4.97,10.19 8.62,14.43 -36.7,42.54 17.43,103.58 64.06,72.07 14.52,16.27 38.2,20.98 57.89,11.21 4.21,16.82 17.18,30.17 33.78,34.93zm800.68 -113.48c-64.46,41.53 -50.87,139.6 22.04,162.21 2.17,12.81 9.35,23.92 19.46,31.24 -18,7.13 -30.74,24.7 -30.74,45.24 0,55.42 78.54,67.14 95.05,14.6l44.64 14.69c-15.25,31.76 7.74,69.62 43.89,69.62 43.47,0 64.81,-52.79 34.29,-83.14 20.09,-17.22 22.75,-47.33 5.98,-67.78 15.5,-1.01 29.02,-9.29 37.19,-21.46 14.58,16.35 38.4,21.03 58.11,11.13 -2.75,6.1 -4.29,12.88 -4.29,20.01 0,65.89 101.01,62.78 97.21,-2.6 2.43,0.49 4.93,0.8 7.47,0.91 4.83,30.38 31.14,53.6 62.88,53.6 55.15,0 83.77,-65.39 47.52,-106.04 18.31,-1.47 34.44,-10.7 45.09,-24.39 35.77,63.66 134.49,25.71 117.51,-45.85 43.76,41.61 116.74,3.94 106.67,-56.69 4.88,-2.73 9.36,-6.08 13.34,-9.95 21.65,5.76 44.27,-0.23 60.13,-15.17 42.55,45.08 119.34,8.28 109.11,-54.22 9.76,-7.57 17.26,-17.93 21.31,-29.88 19.61,22.67 52.48,28.7 78.87,14.17 -165.28,-191.78 -409.68,-313.69 -681.18,-313.69 -147.34,0 -294.67,0 -442.01,0 3.08,7.38 7.94,13.85 14.04,18.85 -43,11.23 -49.51,70.04 -9.85,90.37 0.27,13.96 6.43,26.48 16.09,35.18 -37.58,2.63 -57.79,45.26 -36.68,76.03 -12.62,32.72 12.92,68.08 48,66.04 -3.95,19.55 4.42,38.98 20.24,49.81 -19.39,11.51 -28.67,35.23 -21.38,57.16zm554.36 332.79l-50.59 5.64c-52.56,-30.3 -114.4,24.27 -90.26,80.34 -8.86,5.11 -15.96,12.93 -20.17,22.32 -62.17,0 -86.85,77.3 -39.77,113.94 -19.04,10.69 -32.03,30.89 -32.53,54.16 -40.85,8.74 -62.18,53.95 -43.44,91 -48.07,66.15 50.04,141.15 101.27,77.15 4.61,8.73 11.81,15.88 20.56,20.45 -8.3,25.55 5.73,52.9 31,61.24 -6.82,39.44 24.12,75.68 64.8,74.48 26.98,41.72 89.58,37.83 111.02,-7.19l0 -387.1c0,-56.36 86.89,-56.36 86.89,0l0 480.38c11.38,10.62 26.66,17.13 43.46,17.13 2.91,0 5.77,-0.2 8.58,-0.57 8.6,24.97 32.31,42.91 60.21,42.91 4.33,0 8.55,-0.43 12.64,-1.25 13.93,31.88 45.75,54.16 82.77,54.16 15.24,0 29.6,-3.77 42.19,-10.44 5.07,16.4 16.59,29.97 31.59,37.74 -0.01,0.55 -0.02,1.09 -0.02,1.64 0,27.9 17.93,51.6 42.9,60.21 -0.37,2.8 -0.57,5.67 -0.57,8.58 0,1.03 0.02,2.05 0.07,3.07 -8.18,4.74 -15.21,11.24 -20.57,18.99 -10.96,-8.93 -24.94,-14.28 -40.18,-14.28 -2.02,0 -4.02,0.09 -6,0.28 -4.98,-30.18 -31.2,-53.2 -62.8,-53.2 -5.51,0 -10.85,0.7 -15.95,2.01 -8.83,-12.24 -23.22,-20.21 -39.47,-20.21 -11.42,0 -21.92,3.94 -30.22,10.52 -8.7,-8.17 -20.41,-13.17 -33.28,-13.17 -2.74,0 -5.43,0.23 -8.05,0.66 -8.39,-14.62 -24.16,-24.47 -42.22,-24.47 -9.17,0 -17.76,2.54 -25.08,6.96l0 573.53 617.88 0 0 -1214.38c0,-193.39 -61.86,-373.04 -166.77,-520.13 -25.24,-12.25 -55.64,-0.57 -66.26,25.4 -40.86,-35.15 -100.63,13.72 -74.07,60.77l-13.51 42.49c-8.53,1.96 -16.2,6.16 -22.37,11.95 -26.82,-33.87 -81.48,-18.36 -86.46,24.5 -16.34,-13.59 -39.69,-14.99 -57.55,-3.39 -47.1,-47.31 -127.3,1.79 -105.31,65.69 -0.96,0.52 -1.88,1.08 -2.78,1.69 -44.72,-59.02 -138.28,-5.56 -109.51,63.03 -27.32,4.8 -48.63,27.02 -52.07,54.77zm-121.95 672.02c-15.79,-10.22 -36.2,-10.4 -52.16,-0.4l-42.52 -17.73c26.41,-49.03 -38.31,-96.76 -77.43,-57.24 15.33,-67.15 -90.87,-83.06 -95.95,-14.4l-31.11 9.82c-2.96,-32.41 -30.21,-57.79 -63.39,-57.79 -41.14,0 -71.14,38.28 -62.07,77.92 -55.13,-10.69 -81.02,65.99 -31.12,91.21l-6.87 49.99c-17.78,-0.95 -33.24,11.9 -36.12,29.06 -23.02,-14.34 -53.4,2.06 -53.4,29.64 0,42.56 62.36,47.54 69.36,5.82l33.67 1.82c8.23,13.45 24.64,19.89 40.1,15.15 -17.06,35.82 14.17,76.53 53.58,68.55 1.6,29.07 28.29,50.32 57.25,45.17l12.07 46.94c-20.54,-3.19 -40.12,6.88 -49.88,24.15 -7.15,-17.23 -23.92,-29.47 -43.61,-30 14.58,-45.28 -38.33,-82.15 -75.8,-53.57 -59.2,-28.09 -100.08,63.91 -39.31,88.97 -17.09,17.07 -19.06,44.13 -4.58,63.5 -24.81,33.15 0.95,81.3 43.45,77.54l16.15 40.85c-31.81,3.8 -51.19,36.91 -39.3,66.47 -50.41,8.43 -54.91,79.8 -5.97,94.55 0.62,7.07 2.74,13.72 6.06,19.6l652.74 0 0 -677.55c-16.87,-22.35 -49.04,-25.9 -70.33,-7.79 -12.76,-45.09 -68.51,-61.3 -103.51,-30.25zm-613.26 399.91c12.92,-23.96 3.52,-53.97 -20.75,-66.37 19.49,-17.7 21.39,-47.67 4.28,-67.65 37.37,-20.92 31.25,-76.64 -9.63,-89.02 2.87,-39.22 -38.89,-64.83 -72.25,-46.18l-8.73 -50.75c34.23,-9.08 47.51,-50.72 25.03,-77.96 39.76,-26.51 21.11,-89.13 -26.95,-89.13 -41.27,0 -63.45,48.17 -37.53,79.58 -0.52,0.34 -1.03,0.7 -1.53,1.06l-46.01 4.18c-6.68,-11.33 -17.82,-19.71 -31.01,-22.74 10.93,-64.36 -87.87,-79.06 -96.2,-14.42 -24.75,-1.11 -46.04,16.75 -50.01,40.56 -38.56,-32.64 -95.89,8.92 -76.31,55.83l-11.54 34.98c-17.54,-8.04 -38.09,-4.9 -52.42,7.74 -23.23,-82.34 -138.36,-88.79 -170.61,-9.37l-10.46 0.35 0 624.99 716.87 0 -15.42 -38.27 -2.62 -35.94c80.62,-26.15 83.66,-139.83 4.49,-170.23 18.15,-22.17 13.23,-55.27 -10.69,-71.24z"/>
</symbol>
 <g id="Ebene_x0020_1">
  <metadata id="CorelCorpID_0Corel-Layer"/>
  <use id="ISO_x0020_7010_x0020_W071_0" transform="scale(0.571429 0.571428)" x="-0" y="0.01" width="7000" height="6117.6" xlink:href="#ISO_x0020_7010_x0020_W071"/>
 </g>
</svg>
