<?xml version="1.0" encoding="UTF-8" standalone="no"?>
<!DOCTYPE svg PUBLIC "-//W3C//DTD SVG 1.1//EN" "http://www.w3.org/Graphics/SVG/1.1/DTD/svg11.dtd">
<svg width="100%" height="100%" viewBox="0 0 1920 1080" version="1.1" xmlns="http://www.w3.org/2000/svg" xmlns:xlink="http://www.w3.org/1999/xlink" xml:space="preserve" xmlns:serif="http://www.serif.com/" style="fill-rule:evenodd;clip-rule:evenodd;stroke-linejoin:round;stroke-miterlimit:2;">
    <g transform="matrix(0.355887,0,0,0.355887,-11148,-4866.12)">
        <path d="M36786.4,13827.5L36704.1,14085.5L36432.2,14067.5L36614.7,13943.8L36537.4,13833.4L36367.2,13833.4L36315.5,13666.3L36459.2,13564.4L36598.9,13667.8L36683.8,13643.2L36728,13630.5L36744.3,13685.5L36786.4,13827.5Z" style="fill:rgb(244,208,106);"/>
    </g>
    <g transform="matrix(0.513351,0,0,0.513351,-18253.1,-6294.92)">
        <path d="M37039.3,14241.3L37159.9,14122.6L37224.9,14390.4L36999.8,14326.2L36915.3,14472.2L36653.5,14396.3L37039.3,14241.3Z" style="fill:rgb(170,210,119);"/>
    </g>
    <g transform="matrix(0.294158,0,0,0.294158,-10848.5,-3252.62)">
        <path d="M37766,13733.1L37650.3,13979.2L37803.9,14009.7C37816.2,14038.7 37819.8,14071.5 37812.4,14104.5C37793.3,14187.7 37710.3,14239.9 37627.2,14220.9C37577.9,14209.7 37539.7,14171.5 37513.3,14130.9C37476.1,14073.8 37382.7,13926.5 37382.7,13926.5L37528.3,13853.1L37357.6,13639.4L37598.1,13517.7L37766,13733.1Z" style="fill:rgb(252,250,207);"/>
    </g>
    <g transform="matrix(0.342614,0,0,0.342614,-11705.7,-4329.26)">
        <path d="M38341.1,14478.4L38068.9,14432.5L38149.5,14249L38149.6,14249L38164.3,13971.2L38436.5,14017.5L38355.6,14201L38355.6,14201.1L38627.2,14247.2L38546.6,14430.7L38341.3,14478.4L38341.1,14478.4Z" style="fill:rgb(247,164,168);"/>
    </g>
    <g transform="matrix(0.455965,0,0,0.455965,-17024.7,-6229.44)">
        <path d="M38894.5,13672.4L39034.8,13509L39022.5,13781.4L38915.1,13802.9L38937.6,13946.3L38661.6,13957.1L38703.1,13760.9L38894.5,13672L38894.5,13672.4Z" style="fill:rgb(108,27,64);"/>
    </g>
    <g transform="matrix(0.221901,0,0,0.221901,-8243.3,-2736.66)">
        <path d="M39360.9,14409.4C39339.7,14432.7 39311.4,14449.9 39278.3,14456.6C39194.7,14474.2 39112.6,14420.6 39095.1,14337C39084.7,14287.5 39102.7,14236.6 39129.1,14196.1C39162.7,14144.7 39259.9,13989.7 39259.9,13989.7L39537.4,14001.4L39493.6,14273.9L39309.3,14194.6L39360.9,14409.4Z" style="fill:rgb(171,137,187);"/>
    </g>
    <g transform="matrix(0.504189,0,0,0.504189,-18543.3,-6178.53)">
        <path d="M40277.6,14380.8L40219.4,14338.7L40073.4,14230.2L40156.4,13989.2L40330.6,14046.4L40354.3,14122.8L40662.6,14117.8L40602,14443.1L40264.7,14448.5L40277.6,14380.8Z" style="fill:rgb(33,154,214);"/>
    </g>
    <g transform="matrix(0.52383,0,0,0.52383,-20368.1,-6266.05)">
        <path d="M40965.4,13668.3L40898.6,13618.7L40966.1,13422.7L41107.7,13469.2L41117.5,13500.9L41270,13498.5L41220.7,13763L40946.4,13767.5L40965.4,13668.3Z" style="fill:rgb(244,208,106);"/>
    </g>
</svg>
