<?xml version="1.0" encoding="UTF-8" standalone="no"?>
<!DOCTYPE svg PUBLIC "-//W3C//DTD SVG 1.1//EN" "http://www.w3.org/Graphics/SVG/1.1/DTD/svg11.dtd">
<svg width="100%" height="100%" viewBox="0 0 661 279" version="1.1" xmlns="http://www.w3.org/2000/svg" xmlns:xlink="http://www.w3.org/1999/xlink" xml:space="preserve" xmlns:serif="http://www.serif.com/" style="fill-rule:evenodd;clip-rule:evenodd;stroke-linejoin:round;stroke-miterlimit:2;">
    <g id="ArtBoard1" transform="matrix(1.01957,0,0,1,-118.206,-156.081)">
        <rect x="115.938" y="156.081" width="647.863" height="278.606" style="fill:none;"/>
        <g transform="matrix(0.980809,0,0,1,15.5776,0.0806283)">
            <path d="M124.9,189.2L124.9,163.4L135.1,163.4C137.6,163.4 139.7,164.1 141.4,165.5C143.1,166.9 143.9,168.9 143.9,171.5C143.9,173.1 143.5,174.7 142.6,176C141.7,177.4 140.5,178.4 138.8,179L145.2,189.2L139.9,189.2L133.8,179.5L129.6,179.5L129.6,189.2L124.9,189.2ZM129.7,175.4L134.5,175.4C135.9,175.4 137.1,175.1 137.9,174.4C138.7,173.7 139.2,172.7 139.2,171.4C139.2,168.7 137.6,167.4 134.5,167.4L129.8,167.4L129.8,175.4L129.7,175.4Z" style="fill:white;fill-rule:nonzero;"/>
        </g>
        <g transform="matrix(0.980809,0,0,1,15.5776,0.0806283)">
            <path d="M159.7,189.6C156.6,189.6 154.1,188.8 152.3,187.2C150.5,185.6 149.6,183.3 149.6,180.3L149.6,163.4L154.4,163.4L154.4,179.8C154.4,181.5 154.8,182.8 155.7,183.8C156.6,184.8 157.9,185.3 159.7,185.3C163.2,185.3 165,183.5 165,179.8L165,163.4L169.8,163.4L169.8,180C169.8,183 168.9,185.4 167,187.1C165.2,188.7 162.8,189.6 159.7,189.6Z" style="fill:white;fill-rule:nonzero;"/>
        </g>
        <g transform="matrix(0.980809,0,0,1,15.5776,0.0806283)">
            <path d="M176.2,189.2L176.2,163.4L181,163.4L181,173.9L191.3,173.9L191.3,163.4L196.1,163.4L196.1,189.2L191.3,189.2L191.3,178.1L181,178.1L181,189.2L176.2,189.2Z" style="fill:white;fill-rule:nonzero;"/>
        </g>
        <g transform="matrix(0.980809,0,0,1,15.5776,0.0806283)">
            <path d="M202.7,189.2L202.7,163.4L212.9,163.4C215.4,163.4 217.5,164.1 219.2,165.5C220.9,166.9 221.7,168.9 221.7,171.5C221.7,173.1 221.3,174.7 220.4,176C219.5,177.4 218.3,178.4 216.6,179L223,189.2L217.7,189.2L211.6,179.5L207.4,179.5L207.4,189.2L202.7,189.2ZM207.5,175.4L212.3,175.4C213.7,175.4 214.9,175.1 215.7,174.4C216.5,173.7 217,172.7 217,171.4C217,168.7 215.4,167.4 212.3,167.4L207.6,167.4L207.6,175.4L207.5,175.4Z" style="fill:white;fill-rule:nonzero;"/>
        </g>
        <g transform="matrix(0.980809,0,0,1,15.5776,0.0806283)">
            <path d="M134.8,233C131.7,233 129.2,232.2 127.4,230.6C125.6,229 124.7,226.7 124.7,223.7L124.7,206.8L129.5,206.8L129.5,223.2C129.5,224.9 129.9,226.2 130.8,227.2C131.7,228.2 133,228.7 134.8,228.7C138.3,228.7 140.1,226.9 140.1,223.2L140.1,206.8L144.9,206.8L144.9,223.4C144.9,226.4 144,228.8 142.1,230.5C140.3,232.2 137.9,233 134.8,233Z" style="fill:white;fill-rule:nonzero;"/>
        </g>
        <g transform="matrix(0.980809,0,0,1,15.5776,0.0806283)">
            <path d="M151.3,232.7L151.3,206.8L156,206.8L167.2,224.4L167.3,224.4L167.3,206.8L171.9,206.8L171.9,232.6L167.2,232.6L156,215L155.9,215L155.9,232.7L151.3,232.7Z" style="fill:white;fill-rule:nonzero;"/>
        </g>
        <g transform="matrix(0.980809,0,0,1,15.5776,0.0806283)">
            <rect x="178.4" y="206.8" width="4.8" height="25.8" style="fill:white;fill-rule:nonzero;"/>
        </g>
        <g transform="matrix(0.980809,0,0,1,15.5776,0.0806283)">
            <path d="M195.6,232.7L187.1,206.7L192.3,206.7L198.1,225.7L198.2,225.7L204,206.7L208.8,206.7L200.2,232.7L195.6,232.7Z" style="fill:white;fill-rule:nonzero;"/>
        </g>
        <g transform="matrix(0.980809,0,0,1,15.5776,0.0806283)">
            <path d="M212.8,232.6L212.8,206.8L230.7,206.8L230.7,211L217.6,211L217.6,217.3L229.2,217.3L229.2,221.5L217.6,221.5L217.6,228.3L230.9,228.3L230.9,232.5L212.8,232.5L212.8,232.6Z" style="fill:white;fill-rule:nonzero;"/>
        </g>
        <g transform="matrix(0.980809,0,0,1,15.5776,0.0806283)">
            <path d="M236.8,232.6L236.8,206.8L247,206.8C249.5,206.8 251.6,207.5 253.3,208.9C255,210.3 255.8,212.3 255.8,214.9C255.8,216.5 255.4,218.1 254.5,219.4C253.6,220.8 252.4,221.8 250.7,222.4L257.1,232.6L251.8,232.6L245.7,222.9L241.5,222.9L241.5,232.6L236.8,232.6ZM241.6,218.9L246.4,218.9C247.8,218.9 249,218.6 249.8,217.9C250.6,217.2 251.1,216.2 251.1,214.9C251.1,212.2 249.5,210.9 246.4,210.9L241.7,210.9L241.7,218.9L241.6,218.9Z" style="fill:white;fill-rule:nonzero;"/>
        </g>
        <g transform="matrix(0.980809,0,0,1,15.5776,0.0806283)">
            <path d="M270.3,233C267.8,233 265.6,232.5 263.7,231.4C261.8,230.3 260.5,228.7 259.9,226.6L264.3,224.9C264.8,226.1 265.6,227.1 266.7,227.8C267.8,228.5 269.1,228.8 270.6,228.8C272,228.8 273.2,228.5 274.2,227.9C275.2,227.3 275.7,226.5 275.7,225.3C275.7,224.4 275.4,223.7 274.8,223.2C274.2,222.7 273.3,222.3 272.2,221.9L267.8,220.8C265.8,220.3 264.3,219.5 263.2,218.5C262.1,217.5 261.6,215.9 261.6,213.8C261.6,211.5 262.5,209.6 264.3,208.2C266.1,206.8 268.3,206.1 270.9,206.1C275.4,206.1 278.5,207.9 280,211.4L276,213.1C275,211.1 273.1,210.1 270.5,210.1C269.3,210.1 268.4,210.4 267.6,210.9C266.8,211.4 266.4,212.3 266.4,213.3C266.4,214.8 267.7,215.8 270.2,216.5L274.6,217.6C278.5,218.5 280.5,220.9 280.5,224.8C280.5,227.1 279.6,229 277.7,230.5C275.6,232.3 273.2,233 270.3,233Z" style="fill:white;fill-rule:nonzero;"/>
        </g>
        <g transform="matrix(0.980809,0,0,1,15.5776,0.0806283)">
            <rect x="285.7" y="206.8" width="4.8" height="25.8" style="fill:white;fill-rule:nonzero;"/>
        </g>
        <g transform="matrix(0.980809,0,0,1,15.5776,0.0806283)">
            <path d="M302.8,232.6L302.8,210.9L295.4,210.9L295.4,206.8L315,206.8L315,210.9L307.6,210.9L307.6,232.6L302.8,232.6Z" style="fill:white;fill-rule:nonzero;"/>
        </g>
        <g transform="matrix(0.980809,0,0,1,15.5776,0.0806283)">
            <path d="M314.5,232.6L324.1,206.7L328.5,206.7L338,232.6L333,232.6L331.1,227.1L321.2,227.1L319.2,232.6L314.5,232.6ZM320.5,204.4L320.5,199.7L324.8,199.7L324.8,204.4L320.5,204.4ZM322.6,223L329.7,223L326.2,212.6L326.1,212.6L322.6,223ZM327.8,204.4L327.8,199.7L332.1,199.7L332.1,204.4L327.8,204.4Z" style="fill:white;fill-rule:nonzero;"/>
        </g>
        <g transform="matrix(0.980809,0,0,1,15.5776,0.0806283)">
            <path d="M345.3,232.6L345.3,210.9L337.9,210.9L337.9,206.8L357.5,206.8L357.5,210.9L350.1,210.9L350.1,232.6L345.3,232.6Z" style="fill:white;fill-rule:nonzero;"/>
        </g>
        <g transform="matrix(0.980809,0,0,1,15.5776,0.0806283)">
            <path d="M125.1,276.1L125.1,250.2L135,250.2C137.3,250.2 139.1,250.7 140.4,251.8C141.7,252.9 142.4,254.5 142.4,256.6C142.4,258 142,259.2 141.2,260.3C140.4,261.4 139.3,262.1 137.9,262.5C139.6,262.8 140.9,263.5 141.8,264.7C142.7,265.9 143.2,267.2 143.2,268.8C143.2,271.1 142.4,272.9 140.9,274.1C139.4,275.4 137.5,276 135.3,276L125.1,276L125.1,276.1ZM128,261.6L134.3,261.6C135.8,261.6 137.1,261.2 138.1,260.4C139.1,259.6 139.6,258.5 139.6,257C139.6,255.5 139.1,254.4 138.2,253.7C137.3,253 136,252.6 134.4,252.6L128,252.6L128,261.6ZM128.1,273.6L134.8,273.6C136.4,273.6 137.8,273.2 138.8,272.4C139.8,271.6 140.3,270.4 140.3,268.8C140.3,267.2 139.8,266.1 138.8,265.3C137.8,264.5 136.4,264.1 134.7,264.1L128.1,264.1L128.1,273.6Z" style="fill:white;fill-rule:nonzero;"/>
        </g>
        <g transform="matrix(0.980809,0,0,1,15.5776,0.0806283)">
            <path d="M158.4,276.5C155.6,276.5 153.2,275.7 151.3,274.2C149.4,272.7 148.5,270.6 148.5,267.8L148.5,259C148.5,256.1 149.4,253.9 151.3,252.2C153.2,250.5 155.5,249.7 158.3,249.7C161.2,249.7 163.5,250.5 165.4,252.1C167.3,253.7 168.2,255.9 168.2,258.6L168.2,267.1C168.2,269.9 167.3,272.2 165.4,273.9C163.5,275.7 161.2,276.5 158.4,276.5ZM158.4,273.9C160.4,273.9 162,273.3 163.3,272.2C164.6,271 165.3,269.4 165.3,267.4L165.3,258.6C165.3,256.7 164.7,255.1 163.4,254C162.1,252.9 160.4,252.3 158.3,252.3C156.3,252.3 154.7,252.9 153.4,254.1C152.1,255.3 151.5,256.9 151.5,259L151.5,267.5C151.5,269.5 152.2,271 153.5,272.2C154.7,273.4 156.4,273.9 158.4,273.9Z" style="fill:white;fill-rule:nonzero;"/>
        </g>
        <g transform="matrix(0.980809,0,0,1,15.5776,0.0806283)">
            <path d="M183.9,276.5C181,276.5 178.7,275.7 176.8,274.2C174.9,272.7 174,270.6 174,267.8L174,258.8C174,256.1 174.9,253.9 176.8,252.2C178.6,250.5 181,249.7 183.9,249.7C186.5,249.7 188.7,250.4 190.5,251.8C192.3,253.2 193.1,255.1 193.1,257.4L193.1,258.7L190.3,258.7L190.3,257.8C190.3,256.1 189.7,254.7 188.5,253.8C187.3,252.8 185.7,252.3 183.8,252.3C181.8,252.3 180.2,252.9 178.9,254.1C177.6,255.3 177,256.8 177,258.8L177,267.5C177,269.4 177.7,271 179,272.1C180.3,273.3 182,273.8 184,273.8C185.9,273.8 187.4,273.3 188.6,272.3C189.8,271.3 190.3,270 190.3,268.2L190.3,267.7L193.1,267.7L193.1,268.6C193.1,271 192.2,272.9 190.5,274.3C188.7,275.8 186.6,276.5 183.9,276.5Z" style="fill:white;fill-rule:nonzero;"/>
        </g>
        <g transform="matrix(0.980809,0,0,1,15.5776,0.0806283)">
            <path d="M199.1,276.1L199.1,250.3L202,250.3L202,261.5L215.1,261.5L215.1,250.3L218,250.3L218,276.1L215.1,276.1L215.1,264L202,264L202,276.1L199.1,276.1Z" style="fill:white;fill-rule:nonzero;"/>
        </g>
        <g transform="matrix(0.980809,0,0,1,15.5776,0.0806283)">
            <path d="M234.4,276.5C231.7,276.5 229.4,275.8 227.6,274.3C225.8,272.8 224.9,270.6 224.9,267.6L224.9,250.2L227.8,250.2L227.8,267.1C227.8,269.3 228.4,271 229.6,272.1C230.8,273.2 232.4,273.8 234.5,273.8C236.6,273.8 238.3,273.2 239.4,272.1C240.6,270.9 241.1,269.3 241.1,267.2L241.1,250.2L244,250.2L244,267.4C244,270.2 243.2,272.4 241.4,274C239.6,275.7 237.3,276.5 234.4,276.5Z" style="fill:white;fill-rule:nonzero;"/>
        </g>
        <g transform="matrix(0.980809,0,0,1,15.5776,0.0806283)">
            <path d="M250.8,276.2L250.8,250.3L254.4,250.3L262.5,266.1L270.4,250.3L274,250.3L274,276.1L271.2,276.1L271.2,255.4L271.1,255.4L263.5,270.2L261.2,270.2L253.6,255.5L253.5,255.5L253.5,276.2L250.8,276.2Z" style="fill:white;fill-rule:nonzero;"/>
        </g>
        <g transform="matrix(0.980809,0,0,1,15.5776,0.0806283)">
            <path d="M474.1,222L490.7,222C496.9,222 501.5,219.4 505.2,216.3C508.9,213.3 510.7,208.1 510.7,202.3C510.7,190.6 503.1,183.1 489.3,183.1L470.4,183.2L470.2,231.4L470.2,275.7L446,275.7L446,163.3L492.8,163.3C503.9,163.3 513.3,165.5 520.5,171.7C527.7,177.9 534.3,189.5 534.3,200.7C534.3,207.9 533.3,215.8 529.4,221.9C525.6,228 521.5,233.1 512.7,237.8L539.5,275.4L512.2,275.5L474.1,222Z" style="fill:white;fill-rule:nonzero;"/>
        </g>
        <g transform="matrix(0.980809,0,0,1,15.5776,0.0806283)">
            <path d="M597.1,277.6C583.6,277.6 574,275.6 566,268.6C558,261.6 552.2,250.6 552.2,237.4L552.2,163.3L577,163.3L577,234.9C577,242.3 578.9,246.8 582.8,251.2C588.1,257.2 602.9,257.6 608.6,254.2C617.5,248.9 618.4,241.3 618.5,235L618.5,163.4L642.8,163.4L642.8,235.9C642.8,249.2 637.7,259.7 629.7,267.1C621.5,274.5 610.5,277.6 597.1,277.6Z" style="fill:white;fill-rule:nonzero;"/>
        </g>
        <g transform="matrix(0.980809,0,0,1,15.5776,0.0806283)">
            <path d="M663,276L663,163.3L706.2,163.3C716.2,163.3 721.4,165.4 727.1,170.2C732.8,175 735.8,182.1 735.8,191.1C735.8,197.2 733.8,202.6 730.4,207.3C727,211.9 721.4,215.4 715.2,217.2L719.2,217.9C725.3,219.7 729.4,222.7 733.4,227.8C737.4,232.9 738.8,237.5 738.8,244.3C738.8,254.3 735.2,262.6 728.5,268.1C721.8,273.6 714.8,276 705.4,276L663,276ZM673.1,213.7L702.7,213.7C709.4,213.7 715,211.2 719.4,207.8C723.8,204.4 725.9,199.5 725.9,193.1C725.9,186.7 723.2,180.1 719.1,177C715,173.9 710.2,171.9 703.3,171.9L673.1,171.9L673.1,213.7ZM673.1,267L705.6,267C712.8,267 717.1,264.8 721.6,261.2C726.1,257.6 729,251 729,244C729,237.2 725.4,231.1 721,227.7C716.6,224.3 711.2,222.6 703.9,222.6L673.1,222.6L673.1,267Z" style="fill:white;fill-rule:nonzero;"/>
        </g>
        <g transform="matrix(0.980809,0,0,1,15.5776,0.0806283)">
            <path d="M758.6,323.9L105.5,323.9L105.5,432L758.6,432L758.6,323.9ZM657.5,413.7C649.8,413.7 643.5,411.7 638.5,407.6C633.5,403.5 631,397.9 631,390.6L631,366.7C631,359.4 633.5,353.5 638.4,349C643.3,344.5 649.6,342.3 657.2,342.3C664.2,342.3 670.1,344.2 674.8,348C679.5,351.8 681.8,356.8 681.8,363.1L681.8,366.5L674.3,366.5L674.3,364C674.3,359.4 672.7,355.8 669.5,353.2C666.3,350.6 662.1,349.3 656.9,349.3C651.7,349.3 647.3,350.9 643.9,354C640.4,357.1 638.7,361.3 638.7,366.6L638.7,389.7C638.7,394.9 640.4,399 643.9,402.1C647.4,405.2 651.9,406.7 657.4,406.7C662.5,406.7 666.6,405.4 669.7,402.7C672.8,400.1 674.3,396.4 674.3,391.9L674.3,390.4L681.8,390.4L681.8,392.9C681.8,399.3 679.5,404.3 674.9,408C670.4,411.9 664.6,413.7 657.5,413.7ZM482.8,413.6C476.3,413.6 470.8,412.2 466.2,409.3C461.6,406.4 458.5,402.3 457,397.1L464.2,394.5C465.6,398.4 467.9,401.4 471.2,403.5C474.5,405.7 478.5,406.7 483.3,406.7C488,406.7 491.9,405.6 495.1,403.4C498.2,401.2 499.8,398.2 499.8,394.3C499.8,390.9 498.9,388.2 497,386.4C495.2,384.6 492.5,383.1 489.1,382L476,378.3C471,376.9 467.2,374.8 464.6,372C462,369.2 460.7,365.5 460.7,360.7C460.7,355.1 462.8,350.6 467,347.2C471.2,343.8 476.5,342.1 482.9,342.1C488.4,342.1 493.3,343.2 497.3,345.3C501.4,347.5 504.3,350.7 506,355.1L499.2,357.8C496.1,351.7 490.6,348.6 482.7,348.6C478.8,348.6 475.5,349.6 472.6,351.6C469.8,353.6 468.3,356.4 468.3,360C468.3,365.5 472.1,369.4 479.7,371.6L492.9,375.3C502.5,377.9 507.2,384 507.2,393.5C507.2,399.4 504.9,404.3 500.4,408C495.9,411.8 490,413.6 482.8,413.6ZM519,412.6L519,343.5L543.8,343.5C550.5,343.5 555.9,345.4 560,349.2C564.1,353 566.1,358 566.1,364.3C566.1,370.3 564.1,375.3 560,379.3C555.9,383.3 550.2,385.3 543,385.3L526.9,385.3L526.9,412.6L519,412.6ZM694.5,412.6L694.5,343.4L738.8,343.4L738.8,350.4L702.3,350.4L702.3,373.4L733,373.4L733,380.3L702.3,380.3L702.3,405.6L739,405.6L739,412.6L694.5,412.6ZM397.6,412.5L397.6,343.5L424.9,343.5C431.7,343.5 437.3,345.4 441.7,349.2C446.1,353 448.3,358.3 448.3,365.2C448.3,369.6 447.1,373.6 444.8,377.3C442.5,381 439.1,383.6 434.6,385.2L451.7,412.5L437.7,412.5L421.5,386.7L410.4,386.7L410.4,412.5L397.6,412.5ZM270.7,343.5L283.6,343.5L283.6,375.5L311.4,343.5L327,343.5L302.4,370.7L329.4,412.5L314.4,412.5L293.9,380L283.5,390.7L283.5,412.4L270.7,412.4L270.7,343.5ZM199.7,412.5L225.4,343.4L237.2,343.4L262.7,412.5L249,412.5L244,397.8L217.7,397.8L212.5,412.5L199.7,412.5ZM125,412.5L125,343.5L140.7,343.5L158.5,386.7L158.7,386.7L176,343.5L191.7,343.5L191.7,412.5L179.3,412.5L179.3,366.5L179.1,366.5L163.4,404.5L153.2,404.5L137.5,366.7L137.3,366.7L137.3,412.5L125,412.5ZM565.9,412.5L591.7,343.3L599,343.3L624.5,412.5L616.3,412.5L609.2,392.5L581,392.5L573.7,412.5L565.9,412.5ZM337.1,343.5L385,343.5L385,354.8L350,354.8L350,371.6L381,371.6L381,382.9L350,382.9L350,401.1L385.4,401.1L385.4,412.4L337.1,412.4L337.1,343.5ZM221.2,386.7L240.3,386.7L230.9,359L230.7,359L221.2,386.7ZM583.2,385.8L606.9,385.8L595.2,352.6L595.1,352.6L583.2,385.8ZM526.7,378.5L541.1,378.5C546.5,378.5 550.7,377.3 553.7,374.9C556.7,372.5 558.2,368.9 558.2,364.2C558.2,359.8 556.8,356.4 553.9,353.8C551,351.3 547.3,350 542.7,350L526.7,350L526.7,378.5ZM410.3,375.8L423.3,375.8C427.1,375.8 430.1,374.9 432.3,373C434.5,371.2 435.6,368.5 435.6,365C435.6,357.8 431.4,354.3 423,354.3L410.3,354.3L410.3,375.8Z" style="fill:white;"/>
        </g>
    </g>
</svg>
