<?xml version="1.0" encoding="UTF-8"?>
<!DOCTYPE svg PUBLIC "-//W3C//DTD SVG 1.1//EN" "http://www.w3.org/Graphics/SVG/1.1/DTD/svg11.dtd">
<!-- Creator: Corel DESIGNER -->
<svg xmlns="http://www.w3.org/2000/svg" xml:space="preserve" width="40mm" height="40mm" version="1.1" style="shape-rendering:geometricPrecision; text-rendering:geometricPrecision; image-rendering:optimizeQuality; fill-rule:evenodd; clip-rule:evenodd"
viewBox="0 0 4000 4000"
 xmlns:xlink="http://www.w3.org/1999/xlink"
 xmlns:xodm="http://www.corel.com/coreldraw/odm/2003">
 <defs>
  <style type="text/css">
   <![CDATA[
    .fil0e {fill:#008E5E}
    .fil1 {fill:white}
   ]]>
  </style>
 </defs>
<symbol id="ISO_x0020_7010_x0020_E002" viewBox="-1500 8850 7000 7000">
 <polygon class="fil0e" points="5500,8850 -1500,8850 -1500,15850 5500,15850 "/>
 <path class="fil1" d="M4102.94 9292.44l-4202.72 0 0 4299.96c-239.91,43.68 -386.18,86.15 -560.1,274.51 -59.46,70.85 -183.69,204.66 -172.51,527.01l732.61 0.47 0 915.72 -428.04 427.29 2765.85 0 400.71 -395.08c118.17,-80.9 186.24,-109.93 341.24,-109.22l440.09 2.66 -502.52 501.64 741.89 0 443.5 -442.72 0 -2899.51 -797.18 0c-123.06,-3 -166.31,-27.9 -245.22,-123.19l-375.28 -453.22 -359.46 833.02 1192.97 2443.4 -479.96 0.86c-148.19,-4.6 -232.66,-70.81 -298.92,-194.53 -338.62,-632.21 -647.05,-1302.86 -998.02,-1921.05l-120.19 995.86c-12.88,119.46 -159.29,297.8 -361.11,292.83l-1964.68 0c2.78,-137.59 98.57,-292.66 197.46,-380.66 139.52,-124.16 357.83,-182.6 590.71,-182.6l903.07 0c20.72,0 39.64,-25.28 41.96,-45.87l124.89 -1110.13c10.04,-89.27 38.89,-176.94 77.09,-258.26l392.42 -835.48 -496.31 0c-44.16,0 -52.57,19.26 -63.88,37.45l-412.13 662.5c-165.66,266.32 -591.57,72.45 -398.09,-256.81l372.62 -634.18c114.11,-194.2 194.66,-262.42 479.11,-263.07l1328.59 0c249.3,18.8 349.15,84.43 458.93,223.83l543.98 690.79 666.63 0 0 -2624.22zm-1568.4 1591.48c-276.12,-23.99 -480.61,-265.88 -456.78,-540.28 23.85,-274.39 267,-477.39 543.11,-453.4 276.12,23.99 480.61,265.88 456.78,540.28 -23.85,274.4 -267,477.39 -543.11,453.4z"/>
</symbol>
 <g id="Ebene_x0020_1">
  <metadata id="CorelCorpID_0Corel-Layer"/>
  <use id="ISO_x0020_7010_x0020_E002_0" transform="scale(0.571429 0.571429)" x="-0" y="-0" width="7000" height="7000" xlink:href="#ISO_x0020_7010_x0020_E002"/>
 </g>
</svg>
