<?xml version="1.0" encoding="UTF-8"?>
<!DOCTYPE svg PUBLIC "-//W3C//DTD SVG 1.1//EN" "http://www.w3.org/Graphics/SVG/1.1/DTD/svg11.dtd">
<!-- Creator: Corel DESIGNER -->
<svg xmlns="http://www.w3.org/2000/svg" xml:space="preserve" width="40mm" height="40mm" version="1.1" style="shape-rendering:geometricPrecision; text-rendering:geometricPrecision; image-rendering:optimizeQuality; fill-rule:evenodd; clip-rule:evenodd"
viewBox="0 0 1000 1000"
 xmlns:xlink="http://www.w3.org/1999/xlink"
 xmlns:xodm="http://www.corel.com/coreldraw/odm/2003">
 <defs>
  <style type="text/css">
   <![CDATA[
    .fil0e {fill:#008E5E}
    .fil1 {fill:white}
   ]]>
  </style>
 </defs>
<symbol id="ISO_x0020_7010_x0020_E007" viewBox="1125 -904.17 1750 1750">
 <polygon class="fil0e" points="1125,-904.17 2875,-904.17 2875,845.83 1125,845.83 "/>
 <polygon class="fil1" points="1350.68,-746.23 1555.7,-541.21 1555.7,-746.84 1650.28,-652.26 1650.27,-374.63 1372.64,-374.63 1278.07,-469.21 1483.69,-469.21 1278.68,-674.23 "/>
 <polygon class="fil1" points="1282.94,620.16 1487.96,415.14 1282.33,415.14 1376.9,320.56 1654.53,320.56 1654.53,598.19 1559.96,692.77 1559.96,487.14 1354.94,692.16 "/>
 <polygon class="fil1" points="2649.33,687.9 2444.31,482.88 2444.31,688.51 2349.73,593.93 2349.73,316.3 2627.36,316.3 2721.94,410.88 2516.31,410.88 2721.33,615.9 "/>
 <polygon class="fil1" points="2717.07,-678.49 2512.05,-473.47 2717.68,-473.47 2623.1,-378.89 2345.47,-378.9 2345.47,-656.52 2440.05,-751.1 2440.05,-545.47 2645.07,-750.49 "/>
 <path class="fil1" d="M2055.26 -393.62c0,-30.52 -24.74,-55.25 -55.26,-55.25 -30.52,0 -55.26,24.73 -55.26,55.25 0,30.52 24.74,55.25 55.26,55.25 30.52,0 55.26,-24.74 55.26,-55.25zm-161.54 98.37c0,-30.52 -24.74,-55.25 -55.25,-55.25 -30.52,0 -55.25,24.74 -55.25,55.25 0,30.52 24.74,55.25 55.25,55.25 30.52,0 55.25,-24.74 55.25,-55.25zm-133.77 148.43l15.1 0 0 510.67c0,36.63 55.59,36.63 55.59,0l0 -304.73c0,-7.92 15.42,-7.92 15.42,0l0 304.73c0,36.63 55.59,36.63 55.59,0l0 -510.67 14.06 0 0 217.89c0,33.55 50.91,33.55 50.91,0l0 -228.25 -0.5 0c-1.65,-37.36 -32.62,-67.31 -70.38,-67.31l-116.26 0c-37.75,0 -68.72,29.95 -70.37,67.31l-0.08 0 0 228.25c0,33.55 50.91,33.55 50.91,0l0 -217.89zm458.14 -148.43c0,-30.52 -24.74,-55.25 -55.26,-55.25 -30.51,0 -55.25,24.74 -55.25,55.25 0,30.52 24.74,55.25 55.25,55.25 30.52,0 55.26,-24.74 55.26,-55.25zm-133.77 148.43l15.1 0 0 510.67c0,36.63 55.59,36.63 55.59,0l0 -304.73c0,-7.92 15.42,-7.92 15.42,0l0 304.73c0,36.63 55.59,36.63 55.59,0l0 -510.67 14.06 0 0 217.89c0,33.55 50.91,33.55 50.91,0l0 -228.25 -0.51 0c-1.65,-37.36 -32.62,-67.31 -70.37,-67.31l-116.26 0c-37.75,0 -68.72,29.95 -70.37,67.31l-0.07 0 0 228.25c0,33.55 50.91,33.55 50.91,0l0 -217.89z"/>
</symbol>
 <g id="Ebene_x0020_1">
  <metadata id="CorelCorpID_0Corel-Layer"/>
  <use id="ISO_x0020_7010_x0020_E007_0" transform="scale(0.571429 0.571429)" x="-0" y="-0" width="1750" height="1750" xlink:href="#ISO_x0020_7010_x0020_E007"/>
 </g>
</svg>
