<?xml version="1.0" encoding="UTF-8"?>
<!DOCTYPE svg PUBLIC "-//W3C//DTD SVG 1.1//EN" "http://www.w3.org/Graphics/SVG/1.1/DTD/svg11.dtd">
<!-- Creator: Corel DESIGNER -->
<svg xmlns="http://www.w3.org/2000/svg" xml:space="preserve" width="40mm" height="40mm" version="1.1" style="shape-rendering:geometricPrecision; text-rendering:geometricPrecision; image-rendering:optimizeQuality; fill-rule:evenodd; clip-rule:evenodd"
viewBox="0 0 2000 2000"
 xmlns:xlink="http://www.w3.org/1999/xlink"
 xmlns:xodm="http://www.corel.com/coreldraw/odm/2003">
 <defs>
  <style type="text/css">
   <![CDATA[
    .fil0e {fill:#008E5E}
    .fil1 {fill:white}
   ]]>
  </style>
 </defs>
<symbol id="ISO_x0020_7010_x0020_E009" viewBox="-3750 -1808.34 3500 3500">
 <rect class="fil0e" x="-3750" y="-1808.33" width="3500" height="3500"/>
 <polygon class="fil1" points="-1149.58,-1498.64 -854.63,-1498.64 -854.63,-1203.71 -559.69,-1203.71 -559.69,-908.76 -854.63,-908.76 -854.63,-613.82 -1149.58,-613.82 -1149.58,-908.76 -1444.53,-908.76 -1444.53,-1203.71 -1149.58,-1203.71 "/>
 <ellipse class="fil1" cx="-2289.2" cy="-642.33" rx="460.08" ry="521.2"/>
 <circle class="fil1" cx="-2886.77" cy="636.78" r="50.56"/>
 <path class="fil1" d="M-3435.39 1381.97l1798.92 0 0 -671.65 78.14 0 0 671.65 433.32 0 0 -721.95c0,-366.53 -276.82,-671.52 -631.72,-716.27l-504.78 1142.59c8.53,-29.42 13.39,-63.33 13.39,-102.49l0 -723.52c150.14,-12.6 284.55,-102.47 383.19,-241.38 104.04,-146.53 168.4,-348.25 168.4,-570.41 0,-20.14 -16.34,-36.49 -36.49,-36.49 -20.14,0 -36.48,16.34 -36.48,36.49 0,206.88 -59.13,393.6 -154.71,528.22 -93.07,131.07 -220.56,212.14 -360.4,212.14 -139.84,0 -267.34,-81.07 -360.4,-212.14 -95.59,-134.62 -154.72,-321.33 -154.72,-528.22 0,-20.14 -16.34,-36.49 -36.48,-36.49 -20.14,0 -36.49,16.34 -36.49,36.49 0,222.16 64.37,423.88 168.41,570.41 98.64,138.91 233.05,228.78 383.19,241.38l0 723.52c0,16.45 -1.01,31.62 -2.91,45.62l-479.65 -1085.71c-354.91,44.74 -631.74,349.75 -631.74,716.27l0 721.95zm1156.43 -250.57c-11.03,22.2 -24.51,41.13 -39.59,57.36 -69.7,75.02 -182.43,105.25 -281.12,82.69 -111.34,-25.46 -185.24,-113.95 -234.34,-212.59 -36.22,-72.74 -59.16,-159.18 -70.41,-239.88 -92.81,-8.88 -165.4,-87.07 -165.4,-182.21 0,-101.1 81.95,-183.06 183.06,-183.06 101.1,0 183.06,81.96 183.06,183.06 0,82.03 -53.96,151.46 -128.32,174.74 10.39,72.22 30.84,149.72 63.28,214.86 38.8,77.96 96.72,153.85 185.32,174.12 73.23,16.73 159.72,-5.5 211.59,-61.32 23.15,-24.91 41.09,-59.88 47.84,-109.71l45.04 101.94z"/>
</symbol>
 <g id="Ebene_x0020_1">
  <metadata id="CorelCorpID_0Corel-Layer"/>
  <use id="ISO_x0020_7010_x0020_E009_0" transform="scale(0.571429 0.571429)" x="-0" y="-0" width="3500" height="3500" xlink:href="#ISO_x0020_7010_x0020_E009"/>
 </g>
</svg>
