<?xml version="1.0" encoding="UTF-8"?>
<!DOCTYPE svg PUBLIC "-//W3C//DTD SVG 1.1//EN" "http://www.w3.org/Graphics/SVG/1.1/DTD/svg11.dtd">
<!-- Creator: Corel DESIGNER -->
<svg xmlns="http://www.w3.org/2000/svg" xml:space="preserve" width="40mm" height="40mm" version="1.1" style="shape-rendering:geometricPrecision; text-rendering:geometricPrecision; image-rendering:optimizeQuality; fill-rule:evenodd; clip-rule:evenodd"
viewBox="0 0 1000 1000"
 xmlns:xlink="http://www.w3.org/1999/xlink"
 xmlns:xodm="http://www.corel.com/coreldraw/odm/2003">
 <defs>
  <style type="text/css">
   <![CDATA[
    .fil0e {fill:#008E5E}
    .fil1 {fill:white}
   ]]>
  </style>
 </defs>
<symbol id="ISO_x0020_7010_x0020_E023" viewBox="1125 2212.5 1750 1750">
 <rect class="fil0e" x="1125" y="2212.5" width="1750" height="1750"/>
 <path class="fil1" d="M1584.08 2478.27l636.83 0 0 952.66 -636.83 191.57 0 -1144.23zm878.45 -48.32l-928.5 0 0 1201.18 132.89 100.1 928.5 0 -132.89 -100.1 0 -1201.18zm-434.91 365.01l148.42 121.68 -148.42 351.2 0 -124.26c-110.43,91.95 -248.54,113.16 -400.4,99.24l0 -270.96c172.71,14.46 315.14,0.22 400.4,-68.17l0 -108.73z"/>
</symbol>
 <g id="Ebene_x0020_1">
  <metadata id="CorelCorpID_0Corel-Layer"/>
  <use id="ISO_x0020_7010_x0020_E023_0" transform="scale(0.571429 0.571429)" x="-0" y="-0" width="1750" height="1750" xlink:href="#ISO_x0020_7010_x0020_E023"/>
 </g>
</svg>
