<?xml version="1.0" encoding="UTF-8"?>
<!DOCTYPE svg PUBLIC "-//W3C//DTD SVG 1.1//EN" "http://www.w3.org/Graphics/SVG/1.1/DTD/svg11.dtd">
<!-- Creator: Corel DESIGNER -->
<svg xmlns="http://www.w3.org/2000/svg" xml:space="preserve" width="40mm" height="40mm" version="1.1" style="shape-rendering:geometricPrecision; text-rendering:geometricPrecision; image-rendering:optimizeQuality; fill-rule:evenodd; clip-rule:evenodd"
viewBox="0 0 1000 1000"
 xmlns:xlink="http://www.w3.org/1999/xlink"
 xmlns:xodm="http://www.corel.com/coreldraw/odm/2003">
 <defs>
  <style type="text/css">
   <![CDATA[
    .fil0e {fill:#008E5E}
    .fil1 {fill:white}
   ]]>
  </style>
 </defs>
<symbol id="ISO_x0020_7010_x0020_E026" viewBox="1125 654.16 1750 1750">
 <polygon class="fil0e" points="2875,654.16 1125,654.16 1125,2404.16 2875,2404.16 "/>
 <polygon class="fil1" points="1477.58,2266.3 1588.57,2377.1 2636.51,2377.1 2529.39,2270.16 2529.39,764.13 1477.58,764.13 "/>
 <path class="fil0e" d="M2055.01 1418.99l-231.69 0c-25.43,0 -46.23,20.8 -46.23,46.22 0,25.43 20.8,46.23 46.23,46.23l221.19 0 -12.88 113.47 -273.03 0c-8.88,0 -17.28,2.18 -24.69,6.04 -15.11,6.84 -27.74,19.2 -34.49,35.66l-149.42 359.69c-17.06,35.31 -7.46,74.85 29.3,92.93 39.69,19.51 78.69,-2.28 94.64,-40.74l132.3 -319.1 315.04 0c49.57,0 92.31,-35.54 97.99,-85.52l42.04 -370.29c5.95,-52.45 -32.09,-100.23 -84.54,-106.19 -54.38,0 -99.58,26.29 -106.19,84.54l-15.56 137.06zm208.59 159.43c63.62,59.79 103.36,144.69 103.36,238.88 0,181.03 -146.75,327.79 -327.79,327.79 -123.39,0 -230.84,-68.19 -286.77,-168.94l-41.46 100.01c76.55,96.95 195.11,159.18 328.23,159.18 230.88,0 418.05,-187.16 418.05,-418.04 0,-143.12 -71.93,-269.4 -181.59,-344.75l-12.02 105.87zm-203.45 -526.72c0,-63.13 51.18,-114.31 114.31,-114.31 63.13,0 114.31,51.18 114.31,114.31 0,63.13 -51.18,114.31 -114.31,114.31 -63.13,0 -114.31,-51.18 -114.31,-114.31z"/>
</symbol>
 <g id="Ebene_x0020_1">
  <metadata id="CorelCorpID_0Corel-Layer"/>
  <use id="ISO_x0020_7010_x0020_E026_0" transform="scale(0.571429 0.571429)" x="-0" y="-0" width="1750" height="1750" xlink:href="#ISO_x0020_7010_x0020_E026"/>
 </g>
</svg>
