<?xml version="1.0" encoding="UTF-8"?>
<!DOCTYPE svg PUBLIC "-//W3C//DTD SVG 1.1//EN" "http://www.w3.org/Graphics/SVG/1.1/DTD/svg11.dtd">
<!-- Creator: Corel DESIGNER -->
<svg xmlns="http://www.w3.org/2000/svg" xml:space="preserve" width="40mm" height="40mm" version="1.1" style="shape-rendering:geometricPrecision; text-rendering:geometricPrecision; image-rendering:optimizeQuality; fill-rule:evenodd; clip-rule:evenodd"
viewBox="0 0 2000 2000"
 xmlns:xlink="http://www.w3.org/1999/xlink"
 xmlns:xodm="http://www.corel.com/coreldraw/odm/2003">
 <defs>
  <style type="text/css">
   <![CDATA[
    .fil0e {fill:#008E5E}
    .fil1 {fill:white}
   ]]>
  </style>
 </defs>
<symbol id="ISO_x0020_7010_x0020_E028" viewBox="-3750 1308.33 3500 3499.99">
 <rect class="fil0e" x="-3750" y="1308.33" width="3500" height="3500"/>
 <path class="fil1" d="M-3314.16 2559.62l517.72 0 0 190.22 -517.72 0 0 -190.22zm1650.77 428.43c-145.83,108.18 -157.76,147.13 -336.53,218.99 -39.27,15.79 -100.08,45.62 -136.97,55.99 2.36,52.74 77.89,197.03 101.7,229.26 68.93,-6.88 97.68,-78.48 169.36,-62.75 -4.56,44.66 -28.92,59.37 -50.6,86.16 -28.58,35.33 -29.39,39.96 -32.83,66.82 -7.54,56.29 -1.97,83.12 -24.19,126.35 -36.58,71.16 -41.73,145.34 -15.42,215.81 25.44,68.16 79.25,131.37 158.2,181.4 150.84,95.62 305.69,96.6 471.7,141.78 170.82,46.5 351.66,77.98 513.6,110.11 26.19,5.19 43.18,12.05 51.91,19.22 -9.42,6.74 -26.97,12.31 -52.66,15.13 -143.94,15.77 -338.26,25.28 -501.03,15.26 -254.55,-15.66 -814.88,24.92 -1043.18,-23.66 -70.85,-15.07 -157.74,-51.91 -171.64,-126.47 -4.84,-25.99 0.93,-51.19 18.63,-70.82 67.62,-74.98 183.36,-281.88 229.27,-384.2 32.67,-72.81 52.68,-205.78 52.86,-349.64 0.16,-127.39 -14.99,-264.58 -50.39,-377.2 -18.39,-58.53 -36.77,-121.02 -56.74,-188.96 -59.16,-201.2 -132.11,-449.32 -242.84,-728.62 35.51,-13.34 65.42,-38.1 85.27,-69.81l94.2 0 0 -181.94 -94.2 0c-67.28,-107.49 -223.98,-107.49 -291.26,0l-195.25 0 34.59 -96.76 123.51 0 0 -89.32 -91.58 0 13.01 -36.39 -92.62 0 0 -28.95 -59.54 0 0 28.95 -92.62 0 13.01 36.39 -91.58 0 0 89.32 123.51 0 34.59 96.76 -221.78 0 0 38.87 -52.93 0 0 104.2 52.93 0 0 38.87 136.46 0 0 48.01c-105.67,48.84 -179.47,155.96 -179.47,279.49l0 1748.36c0,169.21 138.44,307.65 307.66,307.65 169.21,0 307.66,-138.44 307.66,-307.65l0 -1748.36c0,-123.53 -73.8,-230.64 -179.47,-279.49l0 -48.01 109.92 0c27.63,44.15 74.79,74.84 129.38,79.97 113.75,284.13 187.83,536.07 247.66,739.57 20.55,69.9 39.45,134.2 57.04,190.13 33.13,105.43 47.32,234.59 47.17,354.93 -0.16,133.87 -17.74,255.26 -46.41,319.17 -42.82,95.45 -153.3,294.32 -216.66,364.57 -72.45,80.33 -38.04,200.05 45.86,258.8 39.78,27.86 81.78,47.92 147.29,61.86 240.57,51.19 790.99,8.92 1054.32,25.13 165.62,10.19 367.31,0.45 513.34,-15.56 60.57,-6.64 120.18,-33.28 122.96,-85.87 0.86,-16.16 -4.57,-33.32 -16.5,-47.39l0.07 -0.06c-34.69,-42.45 -109.34,-51.03 -175.29,-63.74 -123.23,-23.74 -295.23,-56.88 -432.38,-94.21 -156.88,-42.7 -315.8,-46.89 -451.18,-132.7 -64.98,-41.2 -108.59,-91.38 -128.3,-144.19 -18.77,-50.28 -15.78,-103.82 11.31,-154.57 34.85,-65.26 83.74,-53.07 110.26,-161.51 24.29,-99.33 72.08,-254.86 186.32,-149.09 123.64,114.49 169.65,170.4 339.16,215.36 50.14,13.3 63.76,56.71 123.33,62.99 74.7,7.87 70.81,-44.96 70.82,-110.92 0.01,-60.41 -2.79,-119.56 -5,-178.41 -9.07,-242.21 86.27,-396.19 178.83,-561.36 27.38,-48.87 67.67,-29.19 81.62,-102.52 11.7,-61.48 -5.75,-114.34 -69.2,-110.62 -47.78,2.79 -83.48,41.59 -130.3,53.99 -253.15,67.01 -431.15,129.9 -641.7,286.11zm189.22 493.83c-58.43,-51.49 -108.86,-129.66 -157.23,-213.42 -63.58,-110.09 -32.89,-187.91 51.77,-256.17 107.89,-86.98 376.97,-231.42 509.7,-238.25 152.5,-7.85 -34.24,173.43 -51.65,200.01 -45.4,69.32 -79.05,189.32 -94.76,284.3 -22.25,134.53 -7.82,211.56 -2.83,340.27 -90.51,4.63 -208.58,-75.85 -255,-116.74z"/>
 <polygon class="fil1" points="-557.19,1908.23 -557.19,2200.93 -851.28,2200.93 -851.28,2495.01 -1143.99,2495.01 -1143.99,2200.93 -1438.07,2200.93 -1438.07,1908.23 -1143.99,1908.23 -1143.99,1614.14 -851.28,1614.14 -851.28,1908.23 "/>
</symbol>
 <g id="Ebene_x0020_1">
  <metadata id="CorelCorpID_0Corel-Layer"/>
  <use id="ISO_x0020_7010_x0020_E028_0" transform="scale(0.571429 0.571429)" x="-0" y="0" width="3500" height="3499.99" xlink:href="#ISO_x0020_7010_x0020_E028"/>
 </g>
</svg>
