<?xml version="1.0" encoding="UTF-8"?>
<!DOCTYPE svg PUBLIC "-//W3C//DTD SVG 1.1//EN" "http://www.w3.org/Graphics/SVG/1.1/DTD/svg11.dtd">
<!-- Creator: Corel DESIGNER -->
<svg xmlns="http://www.w3.org/2000/svg" xml:space="preserve" width="40mm" height="40mm" version="1.1" style="shape-rendering:geometricPrecision; text-rendering:geometricPrecision; image-rendering:optimizeQuality; fill-rule:evenodd; clip-rule:evenodd"
viewBox="0 0 4000 4000"
 xmlns:xlink="http://www.w3.org/1999/xlink"
 xmlns:xodm="http://www.corel.com/coreldraw/odm/2003">
 <defs>
  <style type="text/css">
   <![CDATA[
    .fil0e {fill:#008E5E}
    .fil1 {fill:white}
   ]]>
  </style>
 </defs>
<symbol id="ISO_x0020_7010_x0020_E038" viewBox="-1500 2616.66 7000 7000">
 <rect class="fil0e" x="-1500" y="2616.66" width="7000" height="7000"/>
 <path class="fil1" d="M-864.35 7449.97c90.43,-2.2 159.7,2.16 222.46,13.8 65.13,12.08 120.64,31.01 182.42,57.61 139.58,60.16 291.72,105.34 451.87,117.06 158.89,11.64 326.86,-9.32 499.9,-80.87 518.83,-214.5 785.91,-120.13 1064.29,-21.79 143.55,50.72 290.51,102.64 478.6,103.83 190.35,1.2 338.26,-51.23 483.27,-102.61 276.38,-97.95 543.36,-192.57 1058.9,20.57 173.07,71.55 341.01,92.51 499.9,80.87 160.15,-11.72 312.28,-56.9 451.87,-117.06 62.02,-26.71 112.45,-44.36 170.63,-55.63 55.72,-10.78 116.44,-14.75 200.31,-14.39l-0.71 182.16c-70.38,-0.3 -120.58,2.88 -165.31,11.53 -42.3,8.19 -82.01,22.34 -132.78,44.21 -156.13,67.27 -327.76,117.91 -511.14,131.34 -184.65,13.52 -380.11,-10.97 -582.06,-94.45 -450.89,-186.41 -685.77,-103.17 -928.9,-17.01 -159.28,56.45 -321.76,114.04 -544.69,112.63 -220.35,-1.39 -381.34,-58.28 -538.6,-113.84 -244.99,-86.55 -480.03,-169.6 -934.29,18.22 -201.93,83.48 -397.41,107.97 -582.05,94.45 -183.37,-13.43 -355.02,-64.06 -511.15,-131.34 -51.01,-21.97 -95.06,-37.27 -143.15,-46.19 -50.47,-9.36 -108.16,-12.81 -185.29,-10.94l-4.3 -182.16zm0 370.13c90.43,-2.21 159.7,2.16 222.46,13.79 65.13,12.08 120.64,31.01 182.42,57.62 139.58,60.15 291.72,105.33 451.87,117.05 158.89,11.64 326.86,-9.32 499.9,-80.87 518.83,-214.5 785.91,-120.13 1064.29,-21.78 143.55,50.71 290.51,102.63 478.6,103.82 190.35,1.2 338.26,-51.23 483.27,-102.61 276.38,-97.95 543.36,-192.57 1058.9,20.57 173.07,71.55 341.01,92.51 499.9,80.87 160.15,-11.72 312.28,-56.9 451.87,-117.05 62.02,-26.71 112.45,-44.37 170.63,-55.64 55.72,-10.78 116.44,-14.74 200.31,-14.39l-0.71 182.16c-70.38,-0.3 -120.58,2.88 -165.31,11.53 -42.3,8.19 -82.01,22.34 -132.78,44.21 -156.13,67.27 -327.76,117.91 -511.14,131.34 -184.65,13.52 -380.11,-10.97 -582.06,-94.45 -450.89,-186.41 -685.77,-103.17 -928.9,-17.01 -159.28,56.45 -321.76,114.04 -544.69,112.63 -220.35,-1.39 -381.34,-58.28 -538.6,-113.84 -244.99,-86.55 -480.03,-169.59 -934.29,18.22 -201.93,83.48 -397.41,107.97 -582.05,94.45 -183.37,-13.43 -355.02,-64.06 -511.15,-131.34 -51.01,-21.97 -95.06,-37.27 -143.15,-46.19 -50.47,-9.36 -108.16,-12.81 -185.29,-10.94l-4.3 -182.15z"/>
 <path class="fil1" d="M-445.8 5475.33c272.99,195.24 563.55,357.6 864.17,487.39 81.02,34.97 170.61,17.25 232.21,-45.94 274.95,-282.13 738.32,-849.97 853.42,-997.57 115.89,45.27 380.44,92.01 543.82,98.21 10.16,131.98 32.48,765.78 73.36,1149.32 11.43,107.13 101.37,187.39 209.09,186.6 839.4,-6.17 1640.59,-244.99 2256.3,-709.86l3.16 -2.39c-57.36,-78.11 -167.31,-165.99 -331.13,-285.96 -346.5,-253.82 -692.74,-597.58 -1041.91,-935.5 -277.13,-268.21 -726.38,-368.84 -1191.19,-371.94 -532.57,-3.55 -856.78,150.06 -1015.53,246.64 -472.1,287.21 -1072.93,760.7 -1396.68,1024.15 -52.58,42.79 -76.75,92.9 -84.48,138.8l25.39 18.05zm2589.01 969.2c-909.23,-29.91 -1849.15,-324.94 -2643.31,-892.88l-38.15 -27.15 2.65 -3.73c-165.24,25.01 -278.73,95.58 -257.25,307.38 103.13,133.99 221.96,232.04 351.18,298.96 141.1,73.06 295.03,109.43 454.84,115.31 15.22,0.53 28.5,8.29 36.64,19.85 83.28,118.54 184.52,192.98 306.82,230.35 125.2,38.26 274.17,38.81 449.73,8.91 20.17,-3.36 39.48,6.7 48.79,23.66 67.7,123 164.82,202.59 295.16,235.97 135.27,34.65 307.75,21.14 521.63,-43.35 12.69,-3.78 25.71,-1.94 36.41,4.09 151.78,72.1 293.22,101.19 419.84,96.05 136.81,-5.55 256.65,-51.26 353.54,-125.74 14.43,-11.15 33.32,-12.55 48.75,-5.21 165.36,74.1 305.53,86.47 430.49,60.23 126.19,-26.51 239.36,-92.92 348.28,-175.23 11.07,-8.35 24.63,-11.05 37.24,-8.59 176.11,22.28 312.22,4.95 427.1,-43.75 115.53,-48.98 211.92,-130.93 307.36,-236.94 11.02,-12.25 27.02,-17.33 42.17,-14.95 127.58,11.28 273.99,-0.67 405.72,-53.82 105.21,-42.46 201.12,-111.64 269.95,-217l3.44 -5.26c34.88,-189.09 -35.08,-250.96 -134.97,-291.62l-24.18 18.26c-677.93,511.85 -1573.28,756.68 -2499.87,726.2zm-1813.74 137.61c-136.31,-41.65 -249.54,-121.71 -342.74,-247.22 -165.17,-8.94 -324.44,-48.48 -471.32,-124.53 -110.42,-57.18 -213.65,-134.86 -306.88,-235.47 -118,118.31 -64.77,405.65 51.01,563.72 302.73,413.27 655.11,628.17 1295.26,774.74 478.22,-181.95 734.81,-91.29 1001.79,3.02 143.55,50.71 290.5,102.65 478.59,103.83 190.35,1.2 338.27,-51.23 483.28,-102.61 276.38,-97.95 543.36,-192.57 1058.9,20.58 52.41,21.66 104.34,38.68 155.7,51.57 424.32,-153.3 734.92,-429.47 1059.53,-771.73 93.06,-98.13 79.52,-339.79 16.9,-483.08 -70.49,75.6 -155.22,129.4 -245.79,165.95 -139.55,56.31 -292.98,71.12 -428.65,61.66 -98.89,107.06 -201.11,190.7 -325.14,243.29 -126.28,53.55 -273.12,73.8 -459.27,52.29 -114.03,84.36 -234.07,152.12 -370.6,180.79 -137.02,28.79 -288.47,17.71 -463.62,-56 -107.72,76.19 -237.79,122.61 -384.55,128.57 -137.2,5.57 -288.87,-24.4 -450.14,-98.78 -222.53,65.02 -406.04,77.08 -554.53,39.04 -146.6,-37.54 -257.82,-122.65 -337.46,-252.63 -175.74,26.79 -328.15,23.38 -460.27,-17z"/>
</symbol>
 <g id="Ebene_x0020_1">
  <metadata id="CorelCorpID_0Corel-Layer"/>
  <use id="ISO_x0020_7010_x0020_E038_0" transform="scale(0.571429 0.571429)" x="-0" y="-0" width="7000" height="7000" xlink:href="#ISO_x0020_7010_x0020_E038"/>
 </g>
</svg>
