<?xml version="1.0" encoding="UTF-8"?>
<!DOCTYPE svg PUBLIC "-//W3C//DTD SVG 1.1//EN" "http://www.w3.org/Graphics/SVG/1.1/DTD/svg11.dtd">
<!-- Creator: Corel DESIGNER -->
<svg xmlns="http://www.w3.org/2000/svg" xml:space="preserve" width="40mm" height="40mm" version="1.1" style="shape-rendering:geometricPrecision; text-rendering:geometricPrecision; image-rendering:optimizeQuality; fill-rule:evenodd; clip-rule:evenodd"
viewBox="0 0 4000 4000"
 xmlns:xlink="http://www.w3.org/1999/xlink"
 xmlns:xodm="http://www.corel.com/coreldraw/odm/2003">
 <defs>
  <style type="text/css">
   <![CDATA[
    .fil0e {fill:#008E5E}
    .fil1 {fill:white}
   ]]>
  </style>
 </defs>
<symbol id="ISO_x0020_7010_x0020_E041" viewBox="-1500 -3616.67 7000 7000">
 <rect class="fil0e" x="-1500" y="-3616.67" width="7000" height="7000"/>
 <path class="fil1" d="M3039.79 -619.75c0,-582.71 -472.37,-1055.09 -1055.08,-1055.09 -582.72,0 -1055.09,472.38 -1055.09,1055.09 0,582.71 472.37,1055.09 1055.09,1055.09 582.71,0 1055.08,-472.38 1055.08,-1055.09zm-2742.71 3351.08c-90.84,-26.31 -73.35,-118.93 9.75,-164.18 108.75,-59.49 169.3,-91.73 227.18,-122.45 114.7,90.91 238.55,148.34 379.25,187.11 -69.36,37.6 -56.48,30.72 -125.48,67.35 -62.34,34.46 -208.09,114.06 -490.7,32.17zm314.66 -327.92c104.62,-55.67 209.8,-112.24 311.79,-170.45 111.23,87.44 229.71,144.86 365.6,182.05 -88.29,55.39 -179.7,108.44 -272.28,159.96 -148.47,-32.38 -282.17,-81.38 -405.11,-171.56zm386.81 -213.95c102.67,-60.56 201.01,-123.02 290.93,-188.24 120.32,72.11 244.02,114.35 382.29,134.19 -91.29,80.08 -188.98,152.44 -289.99,219.74 -142.07,-30.38 -265.78,-79.34 -383.23,-165.69zm360.41 -240.55c89.93,-71.04 173.96,-147.01 248.76,-234.08 108.66,61.2 221.12,98.54 343.98,117.49 -58.08,80.44 -126.02,157.76 -202.28,231.6 -140.78,-12.79 -266.46,-46.1 -390.46,-115.01zm299.77 -297.35c16.98,-22.51 32.87,-45.22 47.62,-68.13 -171.54,69.72 -359.13,108.14 -555.7,108.14 -815.86,0 -1477.27,-661.4 -1477.27,-1477.27 0,-323.68 104.13,-623.02 280.71,-866.41 -176.56,-243.38 -280.71,-542.67 -280.71,-866.34 0,-815.86 661.41,-1477.27 1477.27,-1477.27 323.68,0 623.02,104.13 866.4,280.71 243.37,-176.57 542.68,-280.71 866.35,-280.71 815.87,0 1477.27,661.41 1477.27,1477.27 0,323.67 -104.14,623.02 -280.7,866.39 176.56,243.38 280.7,542.69 280.7,866.36 0,815.87 -661.4,1477.27 -1477.27,1477.27 -274.96,0 -532.35,-75.16 -752.8,-206.03 -30.63,96.24 -75.05,187.61 -128.93,272.92 -122.75,-14.98 -234.03,-47.53 -342.94,-106.9zm-117.26 -303.12c-122.51,42.21 -253.98,65.14 -390.82,65.14 -662.34,0 -1199.28,-536.94 -1199.28,-1199.28 0,-136.81 22.97,-268.28 65.16,-390.76 170.03,758.11 766.8,1354.89 1524.94,1524.9zm2432.51 -1633.68c69.79,152.08 108.7,321.28 108.7,499.54 0,662.34 -536.94,1199.28 -1199.28,1199.28 -146.42,0 -286.72,-26.25 -416.45,-74.29 775.13,-190.18 1374.13,-828.44 1507.03,-1624.53zm-3948.29 -816.81c-48.04,-129.72 -74.32,-269.99 -74.32,-416.4 0,-662.34 536.94,-1199.28 1199.28,-1199.28 178.26,0 347.45,38.93 499.53,108.72 -796.06,132.89 -1434.3,731.84 -1624.49,1506.96zm2340.46 -1498.69c156.61,-74.99 332.03,-116.99 517.25,-116.99 662.34,0 1199.28,536.94 1199.28,1199.28 0,185.22 -42.01,360.62 -116.99,517.23 -154.71,-808.05 -791.45,-1444.84 -1599.54,-1599.52z"/>
</symbol>
 <g id="Ebene_x0020_1">
  <metadata id="CorelCorpID_0Corel-Layer"/>
  <use id="ISO_x0020_7010_x0020_E041_0" transform="scale(0.571429 0.571429)" x="-0" y="-0" width="7000" height="7000" xlink:href="#ISO_x0020_7010_x0020_E041"/>
 </g>
</svg>
