<?xml version="1.0" encoding="UTF-8"?>
<!DOCTYPE svg PUBLIC "-//W3C//DTD SVG 1.1//EN" "http://www.w3.org/Graphics/SVG/1.1/DTD/svg11.dtd">
<!-- Creator: Corel DESIGNER -->
<svg xmlns="http://www.w3.org/2000/svg" xml:space="preserve" width="40mm" height="40mm" version="1.1" style="shape-rendering:geometricPrecision; text-rendering:geometricPrecision; image-rendering:optimizeQuality; fill-rule:evenodd; clip-rule:evenodd"
viewBox="0 0 1000 1000"
 xmlns:xlink="http://www.w3.org/1999/xlink"
 xmlns:xodm="http://www.corel.com/coreldraw/odm/2003">
 <defs>
  <style type="text/css">
   <![CDATA[
    .fil0e {fill:#008E5E}
    .fil1 {fill:white}
   ]]>
  </style>
 </defs>
<symbol id="ISO_x0020_7010_x0020_E043" viewBox="1125 -2462.5 1750 1750">
 <rect class="fil0e" x="1125" y="-2462.5" width="1750" height="1750"/>
 <path class="fil1" d="M1975.74 -1692.63c0,-118.98 -96.45,-215.42 -215.42,-215.42 -118.98,0 -215.43,96.44 -215.43,215.42 0,118.98 96.45,215.42 215.43,215.42 118.97,0 215.42,-96.44 215.42,-215.42zm316.66 -310.09c-5.07,-6.06 -4.27,-15.09 1.79,-20.15 6.06,-5.07 15.09,-4.27 20.15,1.79l88.94 106.01c5.07,6.06 4.27,15.09 -1.79,20.15 -6.06,5.07 -15.09,4.27 -20.15,-1.79l-88.94 -106.02zm49.75 -66.48c-3.49,-7.08 -0.59,-15.66 6.49,-19.15 7.08,-3.49 15.66,-0.59 19.15,6.5l61.34 124.04c3.49,7.08 0.59,15.66 -6.5,19.15 -7.08,3.49 -15.65,0.58 -19.14,-6.5l-61.34 -124.04zm71.42 -40.71c-1.73,-7.7 3.1,-15.34 10.8,-17.08 7.7,-1.73 15.35,3.11 17.08,10.8l30.8 134.91c1.73,7.7 -3.11,15.34 -10.8,17.07 -7.7,1.73 -15.34,-3.11 -17.08,-10.8l-30.8 -134.91zm77.8 -11.94c0,-7.88 6.39,-14.28 14.28,-14.28 7.88,0 14.28,6.39 14.28,14.28l0 138.38c0,7.88 -6.39,14.27 -14.28,14.27 -7.88,0 -14.28,-6.39 -14.28,-14.27l-0 -138.38zm205.58 100.77c5.07,-6.06 14.09,-6.86 20.15,-1.79 6.06,5.07 6.86,14.09 1.79,20.15l-88.94 106.02c-5.07,6.06 -14.09,6.86 -20.15,1.79 -6.06,-5.07 -6.86,-14.09 -1.79,-20.15l88.94 -106.01zm-53.45 -60.77c3.49,-7.08 12.07,-9.99 19.15,-6.5 7.08,3.49 9.99,12.07 6.49,19.15l-61.33 124.04c-3.49,7.08 -12.07,9.99 -19.15,6.5 -7.08,-3.49 -9.98,-12.07 -6.49,-19.15l61.34 -124.04zm-73.66 -34.33c1.73,-7.7 9.38,-12.53 17.07,-10.8 7.7,1.73 12.53,9.38 10.81,17.08l-30.8 134.91c-1.73,7.69 -9.38,12.53 -17.07,10.8 -7.7,-1.73 -12.54,-9.38 -10.81,-17.07l30.8 -134.91zm14.34 248.76c0,-43.38 -35.16,-78.55 -78.54,-78.55 -43.38,0 -78.54,35.17 -78.54,78.55 0,33.21 20.61,61.61 49.74,73.09l0 57.88 57.61 0 0 -57.88c29.13,-11.49 49.74,-39.88 49.74,-73.09zm-124.8 182.49l92.5 0 0 -27.96 -92.5 0 0 27.96zm23.41 43.67c-0.7,-30.08 44.97,-31.15 45.68,-1.08 1.18,49.68 -6.71,116.38 -66.22,133.88 -102.88,30.27 -154.44,-102.17 -191.61,-132.15 -18.18,-14.66 -38.57,-20.08 -59.94,-22.32 22.17,41.98 34.72,89.82 34.72,140.59 0,166.58 -135.04,301.62 -301.62,301.62 -56.14,0 -108.69,-15.35 -153.7,-42.07 -5.16,16.2 -12.3,31.98 -21.21,47.28 -1.64,2.83 -3.35,5.65 -5.12,8.44 -12.24,-1.5 -23.66,-3.79 -34.6,-7.04 -12.21,-3.63 -23.86,-8.48 -35.42,-14.79 3.47,-4.6 6.71,-9.23 9.72,-13.91 -35.02,14.24 -73.32,22.08 -113.46,22.08 -166.58,0 -301.62,-135.05 -301.62,-301.62 0,-66.09 21.26,-127.2 57.32,-176.9 -36.05,-49.69 -57.32,-110.8 -57.32,-176.89 0,-166.58 135.04,-301.62 301.62,-301.62 66.09,0 127.21,21.26 176.9,57.31 49.69,-36.05 110.8,-57.31 176.89,-57.31 166.58,0 301.62,135.04 301.62,301.62 0,61.5 -18.41,118.69 -50.01,166.38 35.99,1.51 69.55,5.78 103.9,33.49 44.09,35.56 83.81,143.4 150.05,123.91 32.89,-9.68 34.08,-62.3 33.43,-88.92zm-1067.05 632.85c-18.55,-5.38 -14.97,-24.29 1.99,-33.52 22.2,-12.15 34.56,-18.73 46.38,-25 10.97,8.69 22.36,15.94 34.57,22.06 13.19,6.6 27.29,11.85 42.86,16.14 -14.16,7.68 -11.53,6.27 -25.62,13.75 -12.73,7.03 -42.48,23.29 -100.19,6.57zm64.25 -66.96c21.36,-11.37 42.84,-22.91 63.66,-34.8 13.55,10.65 27.47,19.08 42.54,25.81 10.14,4.53 20.76,8.26 32.11,11.37 -18.03,11.31 -36.69,22.14 -55.6,32.66 -21.52,-4.7 -40,-10.76 -56.71,-19.12 -9.08,-4.55 -17.67,-9.8 -26,-15.91zm78.98 -43.68c20.96,-12.37 41.04,-25.12 59.4,-38.43 15.11,9.05 30.28,15.76 46.41,20.56 10.12,3.01 20.6,5.25 31.64,6.84 -5.56,4.88 -11.31,9.67 -17.21,14.38 -13.29,10.61 -27.38,20.74 -42,30.49 -16.28,-3.49 -30.85,-8.02 -44.36,-14.05 -11.89,-5.31 -23.03,-11.8 -33.88,-19.78zm73.59 -49.12l3.04 -2.4c18.12,-14.46 34.22,-29.64 47.75,-45.39 13.4,7.55 26.94,13.3 41.23,17.55 9.32,2.77 18.92,4.89 29,6.44 -11.86,16.42 -25.73,32.21 -41.3,47.29 -15.42,-1.4 -29.52,-3.95 -42.89,-7.92 -12.71,-3.77 -24.81,-8.88 -36.83,-15.56zm37.26 -122.6c-25.02,8.62 -51.86,13.3 -79.8,13.3 -135.23,0 -244.86,-109.63 -244.86,-244.86 0,-27.93 4.69,-54.77 13.31,-79.78 34.72,154.78 156.56,276.63 311.36,311.34zm496.65 -333.55c14.25,31.05 22.2,65.59 22.2,101.99 0,135.23 -109.63,244.86 -244.87,244.86 -29.89,0 -58.54,-5.36 -85.03,-15.17 158.26,-38.83 280.56,-169.15 307.69,-331.68zm-806.14 -166.78c-9.81,-26.48 -15.17,-55.12 -15.17,-85.02 0,-135.23 109.63,-244.86 244.86,-244.86 36.4,0 70.94,7.95 101.99,22.2 -162.53,27.13 -292.85,149.43 -331.68,307.68zm477.87 -305.99c31.97,-15.32 67.79,-23.89 105.61,-23.89 135.23,0 244.87,109.63 244.87,244.86 0,37.82 -8.58,73.63 -23.89,105.61 -31.59,-164.99 -161.6,-295 -326.59,-326.58z"/>
</symbol>
 <g id="Ebene_x0020_1">
  <metadata id="CorelCorpID_0Corel-Layer"/>
  <use id="ISO_x0020_7010_x0020_E043_0" transform="scale(0.571429 0.571429)" x="-0" y="-0" width="1750" height="1750" xlink:href="#ISO_x0020_7010_x0020_E043"/>
 </g>
</svg>
