<?xml version="1.0" encoding="UTF-8"?>
<!DOCTYPE svg PUBLIC "-//W3C//DTD SVG 1.1//EN" "http://www.w3.org/Graphics/SVG/1.1/DTD/svg11.dtd">
<!-- Creator: Corel DESIGNER -->
<svg xmlns="http://www.w3.org/2000/svg" xml:space="preserve" width="40mm" height="40mm" version="1.1" style="shape-rendering:geometricPrecision; text-rendering:geometricPrecision; image-rendering:optimizeQuality; fill-rule:evenodd; clip-rule:evenodd"
viewBox="0 0 1000 1000"
 xmlns:xlink="http://www.w3.org/1999/xlink"
 xmlns:xodm="http://www.corel.com/coreldraw/odm/2003">
 <defs>
  <style type="text/css">
   <![CDATA[
    .fil0e {fill:#008E5E}
    .fil1 {fill:white}
   ]]>
  </style>
 </defs>
<symbol id="ISO_x0020_7010_x0020_E045" viewBox="1125 2212.5 1750 1750">
 <rect class="fil0e" x="1125" y="2212.5" width="1750" height="1750"/>
 <path class="fil1" d="M1774.19 3806.05c117.19,0 213.07,-95.88 213.07,-213.07l0 -593.72c0,-85.03 -151.44,-143.96 -151.44,-263.6 0,-90.96 73.74,-164.7 164.7,-164.7 90.96,0 164.7,73.74 164.7,164.7 0,126.27 -151.44,178.57 -151.44,263.6l0 593.72c0,117.18 95.88,213.07 213.06,213.07 117.19,0 213.07,-95.88 213.07,-213.07l0 -776.75c0,-241.67 -197.72,-439.39 -439.39,-439.39 -241.67,0 -439.39,197.72 -439.39,439.39l0 776.75c0,117.19 95.88,213.07 213.07,213.07zm149.4 -321.76l-80.55 -68.81c-27.16,-23.21 -62.43,18.09 -35.27,41.28l68.64 58.65c-13.15,15.39 -36.36,34.8 -17.65,50.79 8.18,6.99 20.6,6.02 27.59,-2.17l39.84 -46.63c8.4,-9.83 7.23,-24.71 -2.6,-33.11zm-234.71 50.86l69.6 -79.87c23.47,-26.93 -17.48,-62.61 -40.94,-35.68l-59.31 68.06c-15.26,-13.3 -34.45,-36.7 -50.62,-18.15 -7.07,8.11 -6.22,20.54 1.9,27.61l46.24 40.3c9.75,8.49 24.63,7.47 33.13,-2.28zm136.22 -364.12c0,-53.6 -81.42,-53.6 -81.42,0 0,53.6 81.42,53.6 81.42,0zm21.73 90.84l73.04 35.22c24.66,11.88 42.7,-25.53 18.04,-37.41l-73.04 -35.22c-24.65,-11.88 -42.69,25.53 -18.04,37.41zm-217.7 17.37l80.34 -10.95c27.07,-3.69 21.46,-44.85 -5.61,-41.16l-80.34 10.95c-27.07,3.69 -21.46,44.85 5.61,41.16zm238.26 114.13l-166 0c-10.27,0 -16.51,-11.25 -11.07,-19.96l83 -132.89c5.12,-8.21 17.01,-8.21 22.13,0l83 132.89c5.44,8.71 -0.79,19.96 -11.07,19.96z"/>
</symbol>
 <g id="Ebene_x0020_1">
  <metadata id="CorelCorpID_0Corel-Layer"/>
  <use id="ISO_x0020_7010_x0020_E045_0" transform="scale(0.571429 0.571429)" x="-0" y="-0" width="1750" height="1750" xlink:href="#ISO_x0020_7010_x0020_E045"/>
 </g>
</svg>
