<?xml version="1.0" encoding="UTF-8"?>
<!DOCTYPE svg PUBLIC "-//W3C//DTD SVG 1.1//EN" "http://www.w3.org/Graphics/SVG/1.1/DTD/svg11.dtd">
<!-- Creator: Corel DESIGNER -->
<svg xmlns="http://www.w3.org/2000/svg" xml:space="preserve" width="40mm" height="40mm" version="1.1" style="shape-rendering:geometricPrecision; text-rendering:geometricPrecision; image-rendering:optimizeQuality; fill-rule:evenodd; clip-rule:evenodd"
viewBox="0 0 4000 4000"
 xmlns:xlink="http://www.w3.org/1999/xlink"
 xmlns:xodm="http://www.corel.com/coreldraw/odm/2003">
 <defs>
  <style type="text/css">
   <![CDATA[
    .fil0e {fill:#008E5E}
    .fil1 {fill:white}
   ]]>
  </style>
 </defs>
<symbol id="ISO_x0020_7010_x0020_E046" viewBox="-1500 8850 7000 7000">
 <rect class="fil0e" x="-1500" y="8850" width="7000" height="7000"/>
 <path class="fil1" d="M1312.97 13014.12c0,-107.31 -86.98,-194.29 -194.28,-194.29 -107.31,0 -194.29,86.98 -194.29,194.29 0,107.31 86.98,194.29 194.29,194.29 107.3,0 194.28,-86.98 194.28,-194.29zm270.66 639.66l-168.86 -160.07 0 207.29 -592.17 0 0 -207.29 -168.86 160.07c-65.91,62.46 -160.37,-37.17 -94.45,-99.64l263.31 -249.6 592.17 0 263.31 249.6c65.92,62.47 -28.54,162.1 -94.45,99.64zm-759.12 468.07l98.81 -93.65c13.73,-13.03 14.31,-34.84 1.3,-48.58l-104.13 -109.83c-13.02,-13.73 -34.83,-14.32 -48.57,-1.29l-219.67 208.23c-13.73,13.02 -14.32,34.83 -1.29,48.57l279.16 294.51c75.78,79.96 196.64,-34.64 120.88,-114.6l-127.78 -134.78c-13.03,-13.74 -12.44,-35.56 1.29,-48.58zm588.36 0l-98.8 -93.65c-13.74,-13.03 -14.32,-34.84 -1.3,-48.58l104.12 -109.83c13.02,-13.73 34.84,-14.32 48.57,-1.29l219.67 208.23c13.73,13.02 14.32,34.83 1.29,48.57l-279.15 294.51c-75.78,79.96 -196.65,-34.64 -120.89,-114.6l127.79 -134.78c13.02,-13.74 12.44,-35.56 -1.3,-48.58zm-318.19 1086.56c468.77,0 852.27,-383.51 852.27,-852.26l0 -2374.89c0,-340.11 -605.75,-575.83 -605.75,-1054.4 0,-363.84 294.96,-658.8 658.81,-658.8 363.84,0 658.8,294.96 658.8,658.8 0,505.07 -605.76,714.29 -605.76,1054.4l0 2374.89c0,468.73 383.5,852.26 852.27,852.26 468.75,0 852.26,-383.51 852.26,-852.26l0 -3106.99c0,-966.66 -790.91,-1757.56 -1757.58,-1757.56 -966.67,0 -1757.58,790.9 -1757.58,1757.56l0 3106.99c0,468.75 383.51,852.26 852.26,852.26z"/>
</symbol>
 <g id="Ebene_x0020_1">
  <metadata id="CorelCorpID_0Corel-Layer"/>
  <use id="ISO_x0020_7010_x0020_E046_0" transform="scale(0.571429 0.571429)" x="-0" y="-0" width="7000" height="7000" xlink:href="#ISO_x0020_7010_x0020_E046"/>
 </g>
</svg>
