<?xml version="1.0" encoding="UTF-8"?>
<!DOCTYPE svg PUBLIC "-//W3C//DTD SVG 1.1//EN" "http://www.w3.org/Graphics/SVG/1.1/DTD/svg11.dtd">
<!-- Creator: Corel DESIGNER -->
<svg xmlns="http://www.w3.org/2000/svg" xml:space="preserve" width="40mm" height="40mm" version="1.1" style="shape-rendering:geometricPrecision; text-rendering:geometricPrecision; image-rendering:optimizeQuality; fill-rule:evenodd; clip-rule:evenodd"
viewBox="0 0 4000 4000"
 xmlns:xlink="http://www.w3.org/1999/xlink"
 xmlns:xodm="http://www.corel.com/coreldraw/odm/2003">
 <defs>
  <style type="text/css">
   <![CDATA[
    .fil0e {fill:#008E5E}
    .fil1 {fill:white}
   ]]>
  </style>
 </defs>
<symbol id="ISO_x0020_7010_x0020_E052" viewBox="-1500 -3616.67 7000 7000">
 <rect class="fil0e" x="-1500.01" y="-3616.68" width="7000" height="7000"/>
 <path class="fil1" d="M2589.9 -1217.85c-76.84,-210.35 -238.01,-376.42 -445.59,-459.8l96.62 -207.85c262.96,109.53 466.21,321.23 564.06,589.08 94.63,259.05 77.14,531.74 -27.77,764.82l-207.67 -96.53c80.2,-179.92 93.29,-390.04 20.35,-589.72zm-1204.01 1171.68c-218.44,-112.69 -396.83,-304.56 -487.82,-553.63 -96.17,-263.28 -76.52,-540.63 32.99,-776.21l5.35 -11.31 207.65 96.53c-1.82,3.76 -3.62,7.51 -5.38,11.3 -84.79,182.41 -100,397.2 -25.51,601.11 69.29,189.7 204.03,336.55 369.34,424.37l-96.62 207.84zm1885.78 -1420.74c-143.09,-391.68 -438.45,-704.28 -821.15,-869.44l96.55 -207.71c438.08,191.25 775.58,549.33 939.69,998.57 163.41,447.33 131.86,918.33 -51.33,1319.87l-207.64 -96.52c158.48,-348.39 185.6,-756.82 43.88,-1144.77zm-2191.92 2079.3c-386.85,-191.25 -703.68,-525.78 -863.45,-963.13 -160.31,-438.84 -137.3,-920.32 61.89,-1342.57l207.63 96.52c-173.56,367.24 -193.93,785.62 -54.43,1167.47 138.08,377.97 411.22,667.51 744.92,834l-96.56 207.71zm2917.52 -2344.37c-213.61,-584.72 -651.93,-1053.15 -1221.03,-1305.04l96.53 -207.65c623.94,276.87 1105.37,792.95 1339.59,1434.11 236.61,647.7 190.1,1329.74 -76.43,1910.58l-207.63 -96.52c241.82,-527.67 283.89,-1147.15 68.97,-1735.48zm-3243.21 3044.99c-566.12,-274.7 -1030.4,-760.97 -1263.36,-1398.68 -230.21,-630.17 -199.78,-1326.51 86.99,-1933.28l207.62 96.52c-260.75,551.23 -288.7,1185.59 -79.52,1758.18 211.28,578.35 631.84,1019.65 1144.8,1269.6l-96.53 207.66zm1313.69 -3786.02c23.54,-102.43 179.18,-66.82 155.72,35.78l-312.67 1374.11 406.53 306.84c84.13,63.36 -12.09,190.92 -95.98,127.73l-231.61 -174.81 252.21 690.39c22.61,-99.38 28.7,-233.93 130.03,-210.64 43,9.88 69.85,52.75 59.97,95.75l-89.04 391.27 39.81 108.98 652.88 355.21c40.76,22.17 68.6,54.48 84.52,98.05l215.9 591c-218.52,430.21 -714.1,609.65 -1159.87,422.67l-215.57 -590.07c-15.91,-43.58 -15.45,-86.23 1.41,-129.45l270.17 -692.41 -39.81 -108.98 -320.28 -241.74c-84.14,-63.36 12.08,-190.92 95.98,-127.73l123.33 93.09 -252.2 -690.39 -64.39 282.95c-23.41,102.38 -179.19,66.88 -155.71,-35.79l113 -496.63 -1124.79 -848.99c-84.13,-63.36 12.09,-190.92 95.99,-127.73l949.86 716.95 -431.69 -1181.71c-36.21,-99.11 114.35,-154.11 150.56,-55l431.7 1181.71 264.04 -1160.41zm1324.58 3943.8l92.56 253.38c141.19,386.49 -1018.34,810.1 -1159.53,423.6l-93.05 -254.71c442.19,134.18 909.85,-35.38 1160.02,-422.27z"/>
</symbol>
 <g id="Ebene_x0020_1">
  <metadata id="CorelCorpID_0Corel-Layer"/>
  <use id="ISO_x0020_7010_x0020_E052_0" transform="scale(0.571429 0.571429)" x="-0" y="-0" width="7000" height="7000" xlink:href="#ISO_x0020_7010_x0020_E052"/>
 </g>
</svg>
