<?xml version="1.0" encoding="UTF-8"?>
<!DOCTYPE svg PUBLIC "-//W3C//DTD SVG 1.1//EN" "http://www.w3.org/Graphics/SVG/1.1/DTD/svg11.dtd">
<!-- Creator: Corel DESIGNER -->
<svg xmlns="http://www.w3.org/2000/svg" xml:space="preserve" width="40mm" height="40mm" version="1.1" style="shape-rendering:geometricPrecision; text-rendering:geometricPrecision; image-rendering:optimizeQuality; fill-rule:evenodd; clip-rule:evenodd"
viewBox="0 0 2000 2000"
 xmlns:xlink="http://www.w3.org/1999/xlink"
 xmlns:xodm="http://www.corel.com/coreldraw/odm/2003">
 <defs>
  <style type="text/css">
   <![CDATA[
    .fil0e {fill:#008E5E}
    .fil1 {fill:white}
   ]]>
  </style>
 </defs>
<symbol id="ISO_x0020_7010_x0020_E053" viewBox="-3750 -1808.34 3500 3500">
 <rect class="fil0e" x="-3750" y="-1808.33" width="3500" height="3500"/>
 <path class="fil1" d="M-1599.61 -1294.07l-823.8 0 0 301.91 823.8 0 0 -301.91zm0 1992.77l-823.8 0 0 103.55 -96.65 0 0 -2310.32 96.65 0 0 117.36 823.8 0 0 -117.36 96.65 0 0 2310.32 -96.65 0 0 -103.55zm-823.8 -96.64l823.8 0 0 -301.91 -823.8 0 0 301.91zm0 -1497.57l0 301.91 823.8 0 0 -301.91 -823.8 0zm0 398.56l0 301.9 823.8 0 0 -301.9 -823.8 0zm0 398.55l0 301.9 823.8 0 0 -301.9 -823.8 0z"/>
 <path class="fil1" d="M-3449.7 1105.83c95.06,-0.35 202.7,-30.95 313.37,-62.42 123.39,-35.09 250.41,-71.21 376.97,-71.21 132.3,0 259.09,34.1 385.85,68.2 121.31,32.63 242.64,65.27 364.32,65.27 128.47,0 255.85,-32.63 383.22,-65.27 133.08,-34.1 266.18,-68.2 403.77,-68.2 134.77,0 300.82,46.79 438.17,85.48 92.54,26.06 171.41,48.28 210.74,48.15l0 83.17c-51.27,0.18 -135,-23.41 -233.24,-51.08 -132.12,-37.23 -291.84,-82.22 -415.67,-82.22 -128.48,0 -255.86,32.63 -383.21,65.26 -133.1,34.1 -266.18,68.2 -403.77,68.2 -132.3,0 -259.08,-34.1 -385.85,-68.2 -121.32,-32.63 -242.65,-65.26 -364.32,-65.26 -115.16,0 -236.38,34.46 -354.13,67.94 -115.81,32.93 -228.45,64.96 -336.2,65.36l0 -83.17zm0 179.86c95.06,-0.35 202.7,-30.95 313.37,-62.42 123.39,-35.08 250.41,-71.2 376.97,-71.2 132.3,0 259.09,34.1 385.85,68.19 121.31,32.63 242.64,65.27 364.32,65.27 128.47,0 255.85,-32.63 383.22,-65.27 133.08,-34.09 266.18,-68.19 403.77,-68.19 134.77,0 300.82,46.78 438.17,85.48 92.54,26.06 171.41,48.28 210.74,48.15l0 83.16c-51.27,0.19 -135,-23.4 -233.24,-51.08 -132.12,-37.22 -291.84,-82.22 -415.67,-82.22 -128.48,0 -255.86,32.63 -383.21,65.27 -133.1,34.1 -266.18,68.2 -403.77,68.2 -132.3,0 -259.08,-34.1 -385.85,-68.2 -121.32,-32.63 -242.65,-65.27 -364.32,-65.27 -115.16,0 -236.38,34.47 -354.13,67.95 -115.81,32.92 -228.45,64.96 -336.2,65.35l0 -83.16z"/>
</symbol>
 <g id="Ebene_x0020_1">
  <metadata id="CorelCorpID_0Corel-Layer"/>
  <use id="ISO_x0020_7010_x0020_E053_0" transform="scale(0.571429 0.571429)" x="-0" y="-0" width="3500" height="3500" xlink:href="#ISO_x0020_7010_x0020_E053"/>
 </g>
</svg>
