<?xml version="1.0" encoding="UTF-8"?>
<!DOCTYPE svg PUBLIC "-//W3C//DTD SVG 1.1//EN" "http://www.w3.org/Graphics/SVG/1.1/DTD/svg11.dtd">
<!-- Creator: Corel DESIGNER -->
<svg xmlns="http://www.w3.org/2000/svg" xml:space="preserve" width="40mm" height="40mm" version="1.1" style="shape-rendering:geometricPrecision; text-rendering:geometricPrecision; image-rendering:optimizeQuality; fill-rule:evenodd; clip-rule:evenodd"
viewBox="0 0 4000 4000"
 xmlns:xlink="http://www.w3.org/1999/xlink"
 xmlns:xodm="http://www.corel.com/coreldraw/odm/2003">
 <defs>
  <style type="text/css">
   <![CDATA[
    .fil0e {fill:#008E5E}
    .fil1 {fill:white}
   ]]>
  </style>
 </defs>
<symbol id="ISO_x0020_7010_x0020_E055" viewBox="-1500 -9850 7000 7000">
 <rect class="fil0e" x="-1500" y="-9850" width="7000" height="7000"/>
 <path class="fil1" d="M-945.11 -4365.09c417.98,-10.18 437.86,157.79 856.76,188.47 158.88,11.64 326.85,-9.33 499.9,-80.87 803.91,-332.37 1009.15,78.67 1542.87,82.04 533.32,3.37 738.31,-414.37 1542.18,-82.04 327.3,135.31 647.04,95.1 951.77,-36.19 134.19,-57.82 215.35,-70.68 370.94,-70.03l-0.71 182.16c-128.76,-0.55 -187.23,8 -298.08,55.74 -348.24,150.01 -717.43,192.25 -1093.21,36.9 -728.22,-301.04 -888.42,99.3 -1473.6,95.61 -585,-3.7 -744.62,-396.67 -1472.87,-95.61 -375.75,155.34 -745.01,113.12 -1093.21,-36.9 -115.74,-49.86 -191.63,-60.43 -328.44,-57.12l-4.3 -182.16zm0 -370.13c417.98,-10.17 437.86,157.79 856.76,188.48 158.88,11.63 326.85,-9.33 499.9,-80.88 803.91,-332.37 1009.19,78.68 1542.87,82.04 533.42,3.35 738.3,-414.37 1542.18,-82.04 327.3,135.31 647.04,95.11 951.77,-36.18 134.19,-57.82 215.35,-70.69 370.94,-70.03l-0.71 182.16c-128.76,-0.55 -187.23,8 -298.08,55.74 -348.24,150.01 -717.43,192.24 -1093.21,36.9 -728.22,-301.05 -888.42,99.3 -1473.6,95.61 -585,-3.7 -744.62,-396.68 -1472.87,-95.61 -375.75,155.33 -745.01,113.12 -1093.21,-36.9 -115.75,-49.86 -191.61,-60.45 -328.44,-57.13l-4.3 -182.16zm1161.75 -828.24l453.98 0c-58.3,61.93 -127.32,109.75 -212.95,134.45 -96.82,27.93 -216.26,27.06 -367.32,-15.07 23.73,-70.76 71.52,-119.38 126.29,-119.38zm558.84 0l729.65 0c-115.07,101.55 -232.54,155.29 -352.5,156.91 -120.78,1.64 -246.36,-49.24 -377.15,-156.91zm838.11 0l698.27 0c-120.94,108.34 -239.04,157.74 -354.55,155.11 -114.72,-2.61 -229.31,-56.59 -343.72,-155.11zm805.72 0l731.59 0c-130.97,105.77 -256.9,156.37 -378.03,155.12 -120.41,-1.26 -238.23,-54.06 -353.56,-155.12zm844.57 0l393.68 0c54.22,0 101.59,47.64 125.57,117.23 -1.07,0.17 -2.13,0.39 -3.2,0.65 -9.47,2.4 -25.19,6.7 -41.01,11.02 -124.95,34.09 -239.08,65.19 -475.04,-128.9zm534.5 189.79c0.91,10 1.39,20.19 1.39,30.56 0,121.18 -64,220.33 -142.21,220.33l-3440.92 0c-78.21,0 -142.2,-99.14 -142.2,-220.34 0,-9.96 0.42,-19.75 1.27,-29.36 162.58,44.62 293.6,44.64 401.93,13.38 99.45,-28.69 178.77,-83.2 245.17,-153.5 146.9,122.76 290.38,180.73 430.67,178.82 140.57,-1.9 275.7,-63.7 405.81,-180.34 129.42,113.28 261.5,175.46 396.61,178.53 135.86,3.09 272.38,-53.61 409.62,-178.18 130.42,116.03 265.91,176.72 406.78,178.19 141.71,1.47 286.71,-57.24 435.15,-180.08 271.37,227.43 404.56,191.13 550.59,151.3 9.78,-2.67 19.87,-5.43 35.07,-9.31l5.27 0zm-140.82 303.08l-3440.92 0c-78.22,0 -142.2,99.14 -142.2,220.33 0,38.25 6.37,74.31 17.55,105.75 96.34,-10.95 195.17,-35.45 295.73,-77.02 803.92,-332.37 1009.19,78.67 1542.88,82.04 533.41,3.35 738.29,-414.37 1542.17,-82.04 103.82,42.92 206.87,68.19 308.92,78.48 11.51,-31.78 18.08,-68.35 18.08,-107.2 0,-121.19 -63.98,-220.34 -142.21,-220.34zm-2163.46 -1117.37l886.34 0c86.49,0 -145.16,192.83 18.66,543.55 6.32,13.52 -3.74,28.77 -18.98,28.77l-885.89 0c-87.46,0 149.36,-188.87 -19.06,-543.44 -6.43,-13.53 3.63,-28.88 18.93,-28.88zm0 -623.15l886.34 0c86.49,0 -145.16,192.84 18.66,543.56 6.32,13.5 -3.74,28.75 -18.98,28.75l-885.89 0c-87.46,0 149.36,-188.87 -19.06,-543.44 -6.43,-13.52 3.63,-28.87 18.93,-28.87zm0 -623.15l886.34 0c86.49,0 -145.16,192.83 18.66,543.55 6.32,13.52 -3.74,28.77 -18.98,28.77l-885.89 0c-87.46,0 149.36,-188.87 -19.06,-543.45 -6.43,-13.52 3.63,-28.87 18.93,-28.87zm0 -623.15l886.34 0c86.49,0 -145.16,192.84 18.66,543.55 6.32,13.51 -3.74,28.76 -18.98,28.76l-885.89 0c-87.46,0 149.36,-188.87 -19.06,-543.44 -6.43,-13.52 3.63,-28.87 18.93,-28.87zm0 -623.15l886.34 0c86.49,0 -145.16,192.83 18.66,543.55 6.32,13.51 -3.74,28.77 -18.98,28.77l-885.89 0c-87.46,0 149.36,-188.88 -19.06,-543.45 -6.43,-13.52 3.63,-28.87 18.93,-28.87z"/>
</symbol>
 <g id="Ebene_x0020_1">
  <metadata id="CorelCorpID_0Corel-Layer"/>
  <use id="ISO_x0020_7010_x0020_E055_0" transform="scale(0.571429 0.571429)" x="-0" y="-0" width="7000" height="7000" xlink:href="#ISO_x0020_7010_x0020_E055"/>
 </g>
</svg>
