<?xml version="1.0" encoding="UTF-8"?>
<!DOCTYPE svg PUBLIC "-//W3C//DTD SVG 1.1//EN" "http://www.w3.org/Graphics/SVG/1.1/DTD/svg11.dtd">
<!-- Creator: Corel DESIGNER -->
<svg xmlns="http://www.w3.org/2000/svg" xml:space="preserve" width="40mm" height="40mm" version="1.1" style="shape-rendering:geometricPrecision; text-rendering:geometricPrecision; image-rendering:optimizeQuality; fill-rule:evenodd; clip-rule:evenodd"
viewBox="0 0 1000 1000"
 xmlns:xlink="http://www.w3.org/1999/xlink"
 xmlns:xodm="http://www.corel.com/coreldraw/odm/2003">
 <defs>
  <style type="text/css">
   <![CDATA[
    .fil0e {fill:#008E5E}
    .fil1 {fill:white}
   ]]>
  </style>
 </defs>
<symbol id="ISO_x0020_7010_x0020_E056" viewBox="1125 2212.5 1750 1750">
 <rect class="fil0e" x="1125" y="2212.5" width="1750" height="1750"/>
 <path class="fil1" d="M2000 2578.28c-39.9,0 -72.24,-32.34 -72.24,-72.24 0,-39.89 32.34,-72.24 72.24,-72.24 39.9,0 72.24,32.34 72.24,72.24 0,39.9 -32.34,72.24 -72.24,72.24zm0 -206.86c-74.35,0 -134.62,60.27 -134.62,134.62 0,44.24 21.34,83.49 54.29,108.04l-42.06 -0.61c-50.04,-0.72 -131.27,48.29 -148.85,136.77l-53.29 268.15c-2.85,14.35 -29.92,12.79 -31.71,30.42 -2.24,22.01 24.18,1.26 25.02,20.71 2.22,51.11 -9.72,82.92 49.19,93.2 50.37,8.79 61.02,-43.32 68.6,-76.8l52.21 -230.39 0 274.41 -44.87 559.17c-1.44,17.92 -30.25,16.49 -33.48,58.68 -1.55,20.2 22.88,50.05 50.74,50.05l136.14 0c15.49,0 28.2,-12.31 28.69,-27.79l17.82 -562.3c0.13,-4.12 12.23,-4.12 12.36,0l17.82 562.3c0.49,15.48 13.19,27.79 28.69,27.79l136.14 0c27.86,0 52.29,-29.85 50.74,-50.05 -3.23,-42.19 -32.05,-40.76 -33.48,-58.68l-44.87 -559.17 0 -274.41 52.2 230.39c7.59,33.48 18.23,85.59 68.6,76.8 58.91,-10.27 46.97,-42.08 49.19,-93.2 0.84,-19.45 27.26,1.3 25.02,-20.71 -1.79,-17.63 -28.86,-16.07 -31.71,-30.42l-53.29 -268.15c-17.58,-88.48 -98.81,-137.5 -148.85,-136.77l-42.06 0.61c32.95,-24.54 54.28,-63.79 54.28,-108.04 0,-74.35 -60.27,-134.62 -134.62,-134.62z"/>
</symbol>
 <g id="Ebene_x0020_1">
  <metadata id="CorelCorpID_0Corel-Layer"/>
  <use id="ISO_x0020_7010_x0020_E056_0" transform="scale(0.571429 0.571429)" x="-0" y="-0" width="1750" height="1750" xlink:href="#ISO_x0020_7010_x0020_E056"/>
 </g>
</svg>
