<?xml version="1.0" encoding="UTF-8"?>
<!DOCTYPE svg PUBLIC "-//W3C//DTD SVG 1.1//EN" "http://www.w3.org/Graphics/SVG/1.1/DTD/svg11.dtd">
<!-- Creator: Corel DESIGNER -->
<svg xmlns="http://www.w3.org/2000/svg" xml:space="preserve" width="40mm" height="40mm" version="1.1" style="shape-rendering:geometricPrecision; text-rendering:geometricPrecision; image-rendering:optimizeQuality; fill-rule:evenodd; clip-rule:evenodd"
viewBox="0 0 2000 2000"
 xmlns:xlink="http://www.w3.org/1999/xlink"
 xmlns:xodm="http://www.corel.com/coreldraw/odm/2003">
 <defs>
  <style type="text/css">
   <![CDATA[
    .fil0e {fill:#008E5E}
    .fil1 {fill:white}
   ]]>
  </style>
 </defs>
<symbol id="ISO_x0020_7010_x0020_E061" viewBox="-3750 1308.33 3500 3500">
 <polygon class="fil0e" points="-3750,1308.33 -250,1308.33 -250,4808.33 -3750,4808.33 "/>
 <path class="fil1" d="M-1221.14 3074.09c0,-422.04 -342.12,-764.16 -764.16,-764.16 -422.04,0 -764.16,342.12 -764.16,764.16 0,422.04 342.12,764.16 764.16,764.16 422.04,0 764.16,-342.13 764.16,-764.16zm-1002.67 1257.92c-164.92,69.94 -440.75,90.55 -593.59,-20.87 -102.37,-74.62 -180.48,-189.83 -284.44,-331.02 -177.47,-241.02 -225.86,-392.03 -144.44,-684.37 -12.57,-72 -19.15,-146.06 -19.15,-221.66 0,-94.49 10.25,-186.59 29.68,-275.24 -321.7,-193.79 -5.89,-452.51 79.75,-648.51 69.65,-159.42 190.79,-230.46 284.38,-292.46 50.56,-33.51 197.66,-93.9 363.43,-97.38 90.12,-1.89 186.13,12.83 276.01,57.28 79.89,-15.62 162.43,-23.81 246.88,-23.81 95.97,0 189.46,10.59 279.4,30.61 11.18,-6.97 22.19,-14.38 33.29,-21.86 99.06,-66.68 204.71,-137.81 508.92,-11.31 245.03,101.89 277.55,281.88 395.7,463.67 91.86,141.33 255.83,420.14 34.77,551.44 18.36,86.3 28.03,175.8 28.03,267.57 0,103.46 -12.29,204.05 -35.46,300.39 61.89,198.03 67.51,349.61 -42.61,533.71 -153.74,257.1 -240.12,401.53 -543.19,477.69 -114.97,28.91 -312.34,-15.99 -425.51,-52.93 -75.67,13.94 -153.65,21.24 -233.35,21.24 -81.51,0 -161.23,-7.64 -238.51,-22.2zm-996.45 -919.74c-44.38,291.18 40.05,371.11 203.01,599.22 92.86,130 162.77,211.03 229.16,259.41 119.99,87.48 336.95,80.18 473.78,40.59 -439.43,-116.54 -786.18,-460.88 -905.94,-899.23zm1568.79 897.96c98.54,25.23 237,46.3 312.91,27.22 290.26,-72.96 370.66,-217.69 521.39,-469.65 79.79,-133.39 83.73,-260.83 50.51,-400.74 -132.43,411.03 -466.65,730.52 -884.81,843.16zm905.96 -1556.11c162.02,-117.88 8.27,-360.31 -64.28,-471.89 -115.15,-177.09 -147.05,-350.75 -373.05,-444.73 -274.68,-114.21 -370.4,-54.97 -457.44,3.54 438.25,122.37 781.23,471.87 894.77,913.08zm-1570.67 -916.95c-178.78,-58.98 -420.2,-8.52 -527.91,62.31 -87.26,57.38 -202.83,125.69 -266.22,270.79 -67.38,154.22 -362.36,410.09 -113.08,577.31 116.56,-443.13 464.59,-792.3 907.2,-910.4zm312.87 447.95c49.56,-138.66 51.38,-326.89 5.34,-466.08 -33.16,0.34 -66.01,1.98 -98.49,4.89 43.17,139 40.69,328.98 -9.75,469.92 33.67,-5.01 68.02,-7.97 102.9,-8.72zm88.31 -231.42c-0.98,68.86 -12.82,162.85 -35.77,231.95 32.7,1.37 64.9,4.66 96.5,9.77 50.6,-140.39 53.6,-329.83 11.29,-468.3 -33.75,-3.89 -67.93,-6.41 -102.46,-7.51 21.21,69.35 31.45,164.06 30.45,234.09zm1179.86 909.24c-139,43.18 -328.97,40.7 -469.91,-9.74 5.01,33.67 7.96,68.01 8.72,102.89 138.69,49.56 326.86,51.38 466.09,5.34 -0.34,-33.16 -1.98,-66.01 -4.89,-98.49zm-229.77 181.46c-68.86,-0.98 -162.85,-12.83 -231.95,-35.78 -1.37,32.7 -4.65,64.9 -9.77,96.49 140.39,50.6 329.84,53.61 468.3,11.3 3.89,-33.76 6.41,-67.93 7.51,-102.46 -69.35,21.2 -164.05,31.44 -234.09,30.45zm-909.25 1179.86c-43.17,-139 -40.69,-328.97 9.75,-469.91 -33.67,5.01 -68.01,7.97 -102.89,8.72 -49.55,138.68 -51.38,326.87 -5.33,466.08 33.16,-0.33 66,-1.98 98.48,-4.89zm-151 4.32c-42.4,-138.67 -40.57,-327.86 5.33,-466.04 -32.7,-1.36 -64.9,-4.65 -96.49,-9.77 -50.6,140.39 -53.6,329.84 -11.29,468.3 33.76,3.89 67.92,6.41 102.45,7.51zm-1210.31 -1143.33c139,-43.17 328.98,-40.69 469.92,9.75 -5.01,-33.67 -7.97,-68.02 -8.72,-102.9 -138.71,-49.54 -326.85,-51.39 -466.09,-5.33 0.34,33.16 1.98,66 4.89,98.48zm229.77 -181.46c68.85,0.98 162.85,12.84 231.95,35.78 1.37,-32.7 4.66,-64.91 9.77,-96.5 -140.39,-50.59 -329.83,-53.6 -468.3,-11.29 -3.89,33.76 -6.41,67.93 -7.51,102.47 69.35,-21.21 164.06,-31.45 234.09,-30.46z"/>
</symbol>
 <g id="Ebene_x0020_1">
  <metadata id="CorelCorpID_0Corel-Layer"/>
  <use id="ISO_x0020_7010_x0020_E061_0" transform="scale(0.571429 0.571429)" x="-0" y="-0" width="3500" height="3500" xlink:href="#ISO_x0020_7010_x0020_E061"/>
 </g>
</svg>
