<?xml version="1.0" encoding="UTF-8"?>
<!DOCTYPE svg PUBLIC "-//W3C//DTD SVG 1.1//EN" "http://www.w3.org/Graphics/SVG/1.1/DTD/svg11.dtd">
<!-- Creator: Corel DESIGNER -->
<svg xmlns="http://www.w3.org/2000/svg" xml:space="preserve" width="40mm" height="38.8058mm" version="1.1" style="shape-rendering:geometricPrecision; text-rendering:geometricPrecision; image-rendering:optimizeQuality; fill-rule:evenodd; clip-rule:evenodd"
viewBox="0 0 2000 1940.29"
 xmlns:xlink="http://www.w3.org/1999/xlink"
 xmlns:xodm="http://www.corel.com/coreldraw/odm/2003">
 <defs>
  <style type="text/css">
   <![CDATA[
    .fil0f {fill:#A1262D}
    .fil1 {fill:white}
   ]]>
  </style>
 </defs>
<symbol id="ISO_x0020_7010_x0020_F003" viewBox="-3750 4395.15 3500 3500">
 <rect class="fil0f" x="-3750" y="4395.15" width="3500" height="3500"/>
 <path class="fil1" d="M-2077.91 7588.69l-27.09 -328.65 -1038.58 0 -27.09 328.65 -124.93 0 237.32 -2879.83 124.92 0 -19.22 233.26 656.55 0 -19.22 -233.26 124.92 0 237.32 2879.83 -124.92 0zm-1055.43 -452.91l1018.1 0 -25.91 -314.47 -966.27 0 -25.91 314.47zm36.15 -438.73l945.79 0 -25.91 -314.47 -893.96 0 -25.92 314.47zm36.16 -438.73l873.48 0 -25.91 -314.48 -821.64 0 -25.92 314.48zm36.15 -438.73l801.17 0 -25.91 -314.47 -749.34 0 -25.92 314.47zm36.16 -438.73l728.86 0 -25.92 -314.48 -677.03 0 -25.91 314.48z"/>
 <path class="fil1" d="M-1553.86 5297.76c200.7,85.38 159.76,408.71 283.16,606.18 123.4,197.47 286.45,413.46 661.01,334.41 -241.09,-131.72 -372.98,-310.18 -433.98,-494.6 -60.99,-184.41 -191.84,-496.09 -510.2,-445.99zm-187.74 1337.59c220.2,3.52 287.83,201.7 467.8,349.68 179.97,147.98 368.85,249.16 664.12,34.5 -277.47,-89.68 -379.89,-137.57 -496.54,-293.01 -116.64,-155.44 -416.16,-273.72 -635.38,-91.16zm294.96 -759.43c203.72,307.99 476.45,506.59 836.95,566.07l0 390.04c-217.88,-56.38 -379.91,-110.31 -601.78,-314.1 -221.86,-203.8 -251.01,-476.77 -235.17,-642.01zm463.44 -769.73c112.78,346.72 237.68,526.55 373.52,555.72l0 390.04c-143.79,-76.76 -334.27,-254.49 -387.35,-441.82 -53.08,-187.32 -27.74,-376.93 13.84,-503.94zm-463.44 1915.68c124.5,185.24 551.63,282.46 836.96,182.94l0 381.41c-253.62,8.06 -457.14,-32.72 -555.09,-86.29 -97.95,-53.56 -260.54,-213.43 -281.87,-478.06z"/>
</symbol>
 <g id="Ebene_x0020_1">
  <metadata id="CorelCorpID_0Corel-Layer"/>
  <use id="ISO_x0020_7010_x0020_F003_0" transform="scale(0.571429 0.554368)" x="-0" y="0" width="3500" height="3500" xlink:href="#ISO_x0020_7010_x0020_F003"/>
 </g>
</svg>
