<?xml version="1.0" encoding="UTF-8"?>
<!DOCTYPE svg PUBLIC "-//W3C//DTD SVG 1.1//EN" "http://www.w3.org/Graphics/SVG/1.1/DTD/svg11.dtd">
<!-- Creator: Corel DESIGNER -->
<svg xmlns="http://www.w3.org/2000/svg" xml:space="preserve" width="40mm" height="40mm" version="1.1" style="shape-rendering:geometricPrecision; text-rendering:geometricPrecision; image-rendering:optimizeQuality; fill-rule:evenodd; clip-rule:evenodd"
viewBox="0 0 4000 4000"
 xmlns:xlink="http://www.w3.org/1999/xlink"
 xmlns:xodm="http://www.corel.com/coreldraw/odm/2003">
 <defs>
  <style type="text/css">
   <![CDATA[
    .fil0f {fill:#A1262D}
    .fil1 {fill:white}
   ]]>
  </style>
 </defs>
<symbol id="ISO_x0020_7010_x0020_F005" viewBox="-1500 2616.66 7000 7000">
 <rect class="fil0f" x="-1500" y="2616.66" width="7000" height="7000"/>
 <path class="fil1" d="M3031.5 4418.48c400.88,170.86 319.09,817.96 565.57,1213.15 246.47,395.18 572.15,827.46 1320.29,669.25 -481.55,-263.61 -744.99,-620.78 -866.82,-989.85 -121.82,-369.07 -383.17,-992.83 -1019.04,-892.55zm-375 2676.94c439.83,7.03 574.9,403.65 934.37,699.81 359.46,296.15 736.73,498.64 1326.49,69.04 -554.23,-179.48 -758.79,-275.33 -991.76,-586.41 -232.97,-311.08 -831.22,-547.81 -1269.1,-182.44zm589.15 -1519.86c406.9,616.4 951.65,1013.84 1671.71,1132.89l0 780.59c-435.2,-112.83 -758.83,-220.75 -1201.98,-628.62 -443.14,-407.87 -501.37,-954.17 -469.73,-1284.86zm925.65 -1540.46c225.26,693.89 474.73,1053.79 746.06,1112.16l0 780.59c-287.22,-153.61 -667.66,-509.32 -773.69,-884.21 -106.04,-374.89 -55.4,-754.36 27.63,-1008.54zm-925.66 3833.87c248.69,370.72 1101.81,565.29 1671.72,366.11l0 763.32c-506.58,16.13 -913.08,-65.49 -1108.72,-172.69 -195.63,-107.2 -520.39,-427.13 -563,-956.74z"/>
 <circle class="fil1" cx="112.73" cy="3999.93" r="456.39"/>
 <polygon class="fil1" points="-650.39,3206.75 921.55,3206.75 921.55,4778.69 445.9,4778.69 445.9,4548.21 691.06,4548.21 691.06,3437.24 -419.91,3437.24 -419.91,4548.21 -220.45,4548.21 -220.45,4778.69 -650.39,4778.69 "/>
 <path class="fil1" d="M115.27 4524.89c140.12,0 254.75,114.64 254.75,254.75l-0.03 1065.88c0,61.6 81.96,88.01 102.61,29.18 36.89,-105.14 138.68,-180.11 256.11,-180.11 149.74,0 272.3,122.53 272.3,272.28l0 133.51c2.42,56.09 42.99,41.94 52.19,1.24 32.38,-103.55 129.4,-179.24 243.27,-179.24 140.13,0 254.78,114.66 254.78,254.78l0 170.13c-1.26,39.44 36.31,47.05 41.96,17.56 4.84,-117.3 102.26,-211.74 220.69,-211.74 121.51,0 220.91,99.39 220.91,220.9 0,571.23 -0.79,1142.17 -0.79,1714.07 0,272.92 -159.03,420.65 -253.44,480.92l0 403.42 -1989.83 0c-53.52,-452.26 -439,-998.25 -629.5,-1424.77l0 -1370.79c46.06,-46 85.45,-75.01 162.71,-88.27 253.6,-43.54 380.18,183.65 380.18,384.03l0 798.04 155.87 0 0.5 -2491.02c0,-140.12 114.64,-254.75 254.76,-254.75z"/>
</symbol>
 <g id="Ebene_x0020_1">
  <metadata id="CorelCorpID_0Corel-Layer"/>
  <use id="ISO_x0020_7010_x0020_F005_0" transform="scale(0.571429 0.571429)" x="-0" y="-0" width="7000" height="7000" xlink:href="#ISO_x0020_7010_x0020_F005"/>
 </g>
</svg>
