<?xml version="1.0" encoding="UTF-8"?>
<!DOCTYPE svg PUBLIC "-//W3C//DTD SVG 1.1//EN" "http://www.w3.org/Graphics/SVG/1.1/DTD/svg11.dtd">
<!-- Creator: Corel DESIGNER -->
<svg xmlns="http://www.w3.org/2000/svg" xml:space="preserve" width="40mm" height="40mm" version="1.1" style="shape-rendering:geometricPrecision; text-rendering:geometricPrecision; image-rendering:optimizeQuality; fill-rule:evenodd; clip-rule:evenodd"
viewBox="0 0 1000 1000"
 xmlns:xlink="http://www.w3.org/1999/xlink"
 xmlns:xodm="http://www.corel.com/coreldraw/odm/2003">
 <defs>
  <style type="text/css">
   <![CDATA[
    .fil0f {fill:#A1262D}
    .fil1 {fill:white}
   ]]>
  </style>
 </defs>
<symbol id="ISO_x0020_7010_x0020_F007" viewBox="1125 -904.17 1750 1750">
 <rect class="fil0f" x="1125" y="-904.17" width="1750" height="1750"/>
 <path class="fil1" d="M2257.87 -453.72c100.22,42.72 79.78,204.49 141.39,303.29 61.62,98.8 143.04,206.87 330.07,167.31 -120.39,-65.9 -186.25,-155.19 -216.7,-247.46 -30.46,-92.27 -95.79,-248.21 -254.76,-223.14zm-93.75 669.24c109.95,1.76 143.72,100.91 233.59,174.95 89.86,74.04 184.18,124.66 331.62,17.26 -138.55,-44.87 -189.7,-68.83 -247.94,-146.6 -58.24,-77.77 -207.8,-136.95 -317.27,-45.61zm147.28 -379.97c101.73,154.1 237.91,253.46 417.93,283.22l0 195.15c-108.8,-28.21 -189.71,-55.19 -300.49,-157.16 -110.79,-101.97 -125.34,-238.54 -117.44,-321.22zm231.41 -385.12c56.32,173.47 118.68,263.45 186.51,278.04l0 195.15c-71.8,-38.4 -166.91,-127.33 -193.42,-221.05 -26.51,-93.72 -13.85,-188.59 6.91,-252.14zm-231.42 958.47c62.17,92.68 275.45,141.32 417.93,91.53l0 190.83c-126.64,4.03 -228.27,-16.37 -277.18,-43.17 -48.91,-26.8 -130.1,-106.78 -140.75,-239.19z"/>
 <path class="fil1" d="M1939.47 -170.51l0 99.99c-34.24,6.04 -68.87,8.73 -103.96,8.98l0 123.38c37.46,-0.12 72.22,-2.94 103.96,-8.77l0 91.35 97.59 -188.65 -97.59 -126.27z"/>
 <path class="fil1" d="M2077.78 -744.92l-794.9 0 0 1163.52 554.33 194.01 0 -145.01 318.28 0 -77.71 -73.8 0 -1138.72zm-279.01 202.19l-479.94 -163.76 0 1093.29 479.94 170.87 0 -1100.4z"/>
</symbol>
 <g id="Ebene_x0020_1">
  <metadata id="CorelCorpID_0Corel-Layer"/>
  <use id="ISO_x0020_7010_x0020_F007_0" transform="scale(0.571429 0.571429)" x="-0" y="-0" width="1750" height="1750" xlink:href="#ISO_x0020_7010_x0020_F007"/>
 </g>
</svg>
