<?xml version="1.0" encoding="UTF-8"?>
<!DOCTYPE svg PUBLIC "-//W3C//DTD SVG 1.1//EN" "http://www.w3.org/Graphics/SVG/1.1/DTD/svg11.dtd">
<!-- Creator: Corel DESIGNER -->
<svg xmlns="http://www.w3.org/2000/svg" xml:space="preserve" width="40mm" height="40mm" version="1.1" style="shape-rendering:geometricPrecision; text-rendering:geometricPrecision; image-rendering:optimizeQuality; fill-rule:evenodd; clip-rule:evenodd"
viewBox="0 0 2000 2000"
 xmlns:xlink="http://www.w3.org/1999/xlink"
 xmlns:xodm="http://www.corel.com/coreldraw/odm/2003">
 <defs>
  <style type="text/css">
   <![CDATA[
    .fil0f {fill:#A1262D}
    .fil1 {fill:white}
   ]]>
  </style>
 </defs>
<symbol id="ISO_x0020_7010_x0020_F014" viewBox="-3750 4425 3500 3500">
 <rect class="fil0f" x="-3750" y="4424.99" width="3500" height="3500"/>
 <path class="fil1" d="M-1482.96 5328.63c200.23,85.35 159.39,408.55 282.49,605.94 123.11,197.39 285.78,413.3 659.45,334.28 -240.52,-131.67 -372.1,-310.07 -432.95,-494.41 -60.85,-184.34 -191.38,-495.89 -508.99,-445.81zm-187.3 1337.06c219.68,3.52 287.14,201.62 466.69,349.54 179.54,147.92 367.98,249.06 662.55,34.49 -276.82,-89.65 -378.99,-137.52 -495.36,-292.9 -116.37,-155.38 -415.17,-273.62 -633.88,-91.13zm294.26 -759.13c203.24,307.88 475.33,506.39 834.97,565.85l0 389.89c-217.37,-56.36 -379.02,-110.26 -600.36,-313.98 -221.34,-203.72 -250.42,-476.59 -234.62,-641.76zm462.34 -769.42c112.52,346.58 237.12,526.34 372.63,555.49l0 389.88c-143.45,-76.72 -333.47,-254.39 -386.43,-441.64 -52.96,-187.24 -27.67,-376.78 13.8,-503.74zm-462.35 1914.92c124.22,185.17 550.33,282.35 834.98,182.86l0 381.26c-253.02,8.05 -456.05,-32.71 -553.78,-86.26 -97.71,-53.54 -259.92,-213.34 -281.2,-477.87z"/>
 <path class="fil1" d="M-3207.61 7203.18l947.68 0 0 -1320.32c0,-237.19 -176.62,-435.1 -404.84,-468.77l0 -225.87c51.61,-26.68 86.88,-80.54 86.88,-142.65 0,-88.63 -71.85,-160.48 -160.48,-160.48 -88.64,0 -160.49,71.86 -160.49,160.48 0,69.24 43.84,128.24 105.28,150.74l0 216.49c-232.65,29.64 -414.04,229.69 -414.04,470.06l0 1320.32z"/>
</symbol>
 <g id="Ebene_x0020_1">
  <metadata id="CorelCorpID_0Corel-Layer"/>
  <use id="ISO_x0020_7010_x0020_F014_0" transform="scale(0.571429 0.571429)" x="-0" y="-0" width="3500" height="3500" xlink:href="#ISO_x0020_7010_x0020_F014"/>
 </g>
</svg>
