<svg id="Ebene_1" data-name="Ebene 1" xmlns="http://www.w3.org/2000/svg" viewBox="0 0 553.1 553.1"><defs><style>.cls-1{fill:#fff;}.cls-1,.cls-2,.cls-3{fill-rule:evenodd;}.cls-2{fill:#da251d;}</style></defs><polygon class="cls-1" points="0 276.55 276.55 0 553.1 276.55 276.55 553.1 0 276.55 0 276.55"/><path class="cls-2" d="M21,421.44,297.55,144.89,574.1,421.44,297.55,698,21,421.44Zm44.84,0L297.55,189.73,529.27,421.44,297.55,653.16,65.84,421.44Z" transform="translate(-21 -144.89)"/><polygon class="cls-3" points="333 254.67 333.49 254.67 334.01 254.67 334.52 254.67 335.01 254.67 335.63 254.63 336.39 254.57 337.25 254.5 338.26 254.39 340.54 254.12 343.17 253.77 346.14 253.46 349.39 253.18 351.08 253.08 352.85 253.01 354.64 252.94 356.48 252.91 356.65 253.01 357.03 253.22 357.62 253.56 358.31 254.01 360.07 255.12 362.21 256.36 363.36 257.02 364.53 257.64 365.74 258.23 366.92 258.75 367.47 258.96 368.06 259.16 368.61 259.37 369.13 259.51 369.65 259.65 370.17 259.75 370.65 259.79 371.1 259.82 371.58 259.79 372.07 259.75 372.58 259.65 373.14 259.51 373.66 259.37 374.21 259.16 374.76 258.96 375.32 258.71 376.42 258.2 377.53 257.61 378.6 256.99 379.64 256.33 381.54 255.05 383.13 253.98 383.72 253.53 384.2 253.18 384.55 252.98 384.72 252.94 387.76 254.25 391.18 255.78 394.81 257.37 398.41 258.96 401.73 260.41 404.56 261.62 405.74 262.07 406.67 262.45 407.4 262.69 407.88 262.79 408.81 262.97 409.92 263.07 411.2 263.17 412.58 263.21 414.07 263.24 415.62 263.28 417.14 263.28 418.67 263.28 418.7 264 418.7 264.69 418.7 265.39 418.73 266.11 417.25 266.15 415.62 266.18 413.93 266.18 412.24 266.18 410.64 266.18 409.19 266.15 407.98 266.04 407.05 265.94 406.77 265.9 406.43 265.8 406.01 265.66 405.53 265.49 404.42 265.01 403.11 264.42 400.03 263 396.61 261.38 394.85 260.58 393.12 259.79 391.43 259.06 389.8 258.4 389.04 258.13 388.31 257.85 387.62 257.61 386.96 257.44 386.38 257.26 385.82 257.16 385.31 257.09 384.89 257.06 384.65 257.12 384.23 257.3 383.72 257.61 383.02 257.99 381.37 258.92 379.39 259.99 378.32 260.55 377.25 261.06 376.14 261.58 375.04 262 374.49 262.21 373.97 262.38 373.41 262.55 372.9 262.69 372.41 262.79 371.93 262.86 371.44 262.9 371 262.93 370.55 262.9 370.06 262.86 369.58 262.76 369.06 262.65 368.51 262.48 367.95 262.31 367.4 262.1 366.81 261.89 365.67 261.38 364.5 260.82 363.32 260.24 362.21 259.61 360.11 258.4 358.38 257.33 357.65 256.92 357.13 256.57 356.72 256.36 356.55 256.3 355.2 256.33 353.85 256.36 352.5 256.47 351.15 256.57 348.46 256.85 345.79 257.12 343.1 257.44 340.44 257.68 339.09 257.78 337.77 257.85 336.43 257.92 335.08 257.92 334.73 257.92 334.35 257.92 333.9 257.92 333.52 257.99 333.31 258.06 333.14 258.13 332.97 258.23 332.83 258.33 332.73 258.51 332.62 258.68 332.59 258.89 332.55 259.13 332.59 259.3 332.73 259.54 332.93 259.79 333.21 260.06 333.56 260.37 333.97 260.72 334.42 261.03 334.97 261.34 335.53 261.65 336.18 261.96 336.84 262.24 337.53 262.48 338.29 262.65 339.05 262.83 339.85 262.93 340.64 262.97 372.96 263 388.24 262.86 372.9 267.94 372.96 268.57 373.03 269.19 373.14 269.74 373.24 270.33 373.41 270.88 373.59 271.4 373.8 271.92 374.04 272.44 374.31 272.92 374.62 273.41 374.97 273.86 375.35 274.31 375.73 274.75 376.18 275.17 376.63 275.58 377.15 275.96 377.7 276.35 378.25 276.73 378.88 277.11 379.53 277.45 380.19 277.8 380.92 278.14 381.68 278.45 382.47 278.76 383.34 279.08 384.2 279.39 385.13 279.7 386.1 279.97 388.14 280.53 390.35 281.05 390.11 282.64 390.01 283.22 390.01 283.09 390.08 282.67 390.11 282.32 390.11 282.39 390.01 283.29 389.76 285.37 387.97 285.13 386.14 284.85 385.2 284.68 384.3 284.5 383.37 284.3 382.47 284.09 381.57 283.85 380.67 283.6 379.77 283.33 378.91 283.02 378.05 282.67 377.22 282.29 376.39 281.91 375.59 281.46 374.8 280.98 374.04 280.46 373.31 279.9 372.58 279.32 371.89 278.66 371.24 277.97 370.61 277.24 370.03 276.45 369.47 275.62 368.95 274.72 368.47 273.75 368.02 272.75 367.61 271.68 367.26 270.54 366.92 269.33 366.67 268.08 316.62 267.98 316.31 267.98 316.03 268.01 315.75 268.08 315.51 268.19 315.27 268.25 315.03 268.39 314.85 268.53 314.65 268.7 314.47 268.88 314.34 269.05 314.23 269.29 314.13 269.5 314.06 269.78 313.99 270.05 313.96 270.33 313.96 270.64 313.96 270.99 313.99 271.33 314.06 271.64 314.13 271.92 314.23 272.16 314.34 272.4 314.47 272.65 314.65 272.82 314.82 272.99 315.03 273.13 315.27 273.27 315.51 273.37 315.79 273.44 316.06 273.51 316.38 273.54 316.69 273.58 356.44 273.54 356.48 278.45 353.81 278.45 351.19 278.49 348.56 278.49 345.93 278.52 343.31 278.52 340.68 278.52 338.05 278.52 335.42 278.52 332.76 278.52 330.13 278.52 327.47 278.49 324.85 278.49 322.18 278.49 319.49 278.49 316.82 278.49 314.09 278.49 313.47 278.52 312.81 278.59 312.47 278.66 312.16 278.73 311.88 278.83 311.61 278.94 311.33 279.11 311.12 279.25 310.91 279.46 310.71 279.66 310.57 279.9 310.46 280.18 310.39 280.49 310.36 280.84 310.39 281.22 310.46 281.6 310.57 281.91 310.71 282.19 310.88 282.46 311.09 282.67 311.29 282.88 311.57 283.05 311.81 283.19 312.12 283.29 312.44 283.4 312.75 283.47 313.4 283.57 314.09 283.6 356.44 283.6 356.44 288.79 354.09 288.79 351.74 288.79 349.39 288.79 347.04 288.79 344.65 288.79 342.3 288.79 339.95 288.79 337.6 288.79 335.25 288.79 332.87 288.79 330.51 288.79 328.16 288.79 325.81 288.79 323.46 288.79 321.11 288.79 318.73 288.79 318.45 288.79 318.17 288.82 317.9 288.86 317.62 288.93 317.34 289.03 317.07 289.1 316.82 289.24 316.62 289.38 316.41 289.55 316.2 289.76 316.03 289.96 315.89 290.21 315.79 290.48 315.68 290.76 315.65 291.11 315.62 291.45 315.65 291.83 315.72 292.14 315.79 292.45 315.93 292.7 316.1 292.94 316.27 293.14 316.48 293.32 316.69 293.46 316.93 293.6 317.17 293.7 317.41 293.77 317.69 293.84 318.24 293.91 318.76 293.94 360.24 293.91 365.77 299.75 363.84 299.82 361.76 299.89 359.52 299.95 357.13 299.99 354.68 300.02 352.12 300.06 349.56 300.09 346.93 300.09 344.34 300.13 341.78 300.13 339.26 300.16 336.84 300.16 334.52 300.16 332.31 300.16 330.27 300.16 328.44 300.16 327.78 300.16 327.2 300.16 326.68 300.2 326.26 300.27 326.09 300.33 325.92 300.44 325.78 300.54 325.64 300.72 325.54 300.89 325.47 301.13 325.43 301.41 325.4 301.72 325.43 302.03 325.47 302.27 325.54 302.51 325.64 302.72 325.78 302.89 325.95 303.03 326.12 303.17 326.33 303.27 326.54 303.34 326.78 303.41 327.02 303.45 327.3 303.52 327.92 303.55 328.58 303.55 332.1 303.55 335.6 303.55 339.12 303.55 342.61 303.52 346.14 303.52 349.63 303.52 353.12 303.48 356.65 303.48 360.14 303.48 363.63 303.45 367.16 303.45 370.65 303.41 374.18 303.41 377.67 303.41 381.19 303.41 384.68 303.41 385.38 303.38 386.1 303.34 386.83 303.27 387.59 303.2 389.18 302.96 390.8 302.69 392.5 302.34 394.16 301.96 395.81 301.55 397.47 301.1 400.55 300.27 403.25 299.54 404.39 299.23 405.36 298.99 406.15 298.81 406.7 298.71 408.09 298.61 409.85 298.5 411.82 298.43 413.83 298.4 415.69 298.37 417.25 298.4 417.83 298.4 418.32 298.43 418.6 298.47 418.7 298.54 418.73 301.72 417.32 301.65 415.93 301.62 414.59 301.62 413.27 301.68 411.89 301.75 410.44 301.89 408.92 302.1 407.22 302.31 406.7 302.41 405.98 302.58 405.11 302.86 404.11 303.2 401.66 304 398.75 304.93 397.16 305.42 395.5 305.9 393.77 306.32 392.01 306.73 390.18 307.08 388.35 307.39 387.42 307.49 386.52 307.6 385.58 307.66 384.65 307.7 328.37 307.77 327.61 307.73 326.92 307.63 326.26 307.49 325.68 307.32 325.16 307.08 324.71 306.8 324.26 306.49 323.91 306.14 323.57 305.8 323.29 305.38 323.08 304.97 322.87 304.52 322.74 304.03 322.63 303.55 322.6 303.07 322.56 302.58 322.56 302.06 322.6 301.62 322.63 301.13 322.7 300.68 322.81 300.23 322.91 299.82 323.05 299.44 323.22 299.09 323.43 298.75 323.63 298.47 323.91 298.19 324.22 297.99 324.57 297.78 324.95 297.64 325.36 297.57 325.85 297.54 318.69 297.54 318.38 297.5 318.07 297.47 317.76 297.43 317.45 297.36 316.86 297.19 316.27 296.95 315.72 296.67 315.2 296.32 314.72 295.94 314.27 295.53 313.85 295.08 313.47 294.63 313.16 294.15 312.88 293.63 312.64 293.14 312.47 292.63 312.37 292.14 312.33 291.66 312.37 291.28 312.4 290.9 312.5 290.52 312.61 290.1 312.75 289.72 312.92 289.38 313.13 289 313.37 288.69 313.64 288.38 313.96 288.06 314.3 287.82 314.65 287.61 315.06 287.44 315.51 287.3 316 287.2 316.51 287.17 314.06 287.2 313.64 287.2 313.26 287.17 312.88 287.13 312.5 287.06 311.78 286.85 311.09 286.65 310.43 286.33 309.84 285.99 309.29 285.61 308.81 285.16 308.36 284.71 307.94 284.19 307.6 283.67 307.32 283.12 307.08 282.53 306.94 281.94 306.83 281.36 306.76 280.74 306.8 280.39 306.8 280.01 306.87 279.7 306.94 279.35 307.01 279.04 307.11 278.76 307.21 278.49 307.35 278.21 307.49 277.94 307.63 277.69 307.8 277.45 308.01 277.24 308.22 277.04 308.43 276.83 308.67 276.66 308.91 276.48 309.43 276.17 309.98 275.89 310.6 275.69 311.23 275.51 311.92 275.38 312.64 275.27 313.37 275.24 314.13 275.24 313.82 275.2 313.51 275.1 313.19 274.96 312.92 274.79 312.64 274.55 312.37 274.27 312.12 273.99 311.88 273.65 311.67 273.3 311.5 272.92 311.33 272.51 311.19 272.09 311.09 271.64 311.02 271.19 310.98 270.71 310.95 270.26 311.02 269.74 311.09 269.22 311.23 268.74 311.43 268.25 311.67 267.81 311.95 267.36 312.26 266.98 312.64 266.6 313.06 266.25 313.47 265.94 313.96 265.66 314.44 265.42 314.96 265.25 315.51 265.07 316.1 265.01 316.69 264.97 319.21 264.97 321.67 264.97 324.15 265.01 326.64 265.01 329.1 265.01 331.59 265.01 334.07 265.01 336.56 265.04 335.98 264.9 335.32 264.73 334.66 264.49 334.01 264.21 333.31 263.87 332.62 263.49 331.97 263.04 331.34 262.59 330.76 262.07 330.2 261.55 329.72 261 329.27 260.44 329.1 260.13 328.92 259.86 328.79 259.54 328.68 259.27 328.58 258.96 328.51 258.64 328.48 258.37 328.44 258.06 328.48 257.68 328.54 257.33 328.61 256.99 328.72 256.68 328.86 256.36 328.99 256.09 329.2 255.84 329.44 255.6 329.72 255.4 330.03 255.22 330.41 255.05 330.82 254.95 331.27 254.81 331.79 254.74 332.38 254.67 333 254.67 333 254.67"/><polygon class="cls-3" points="101.98 272.92 101.98 300.27 250.38 300.27 250.38 272.92 247 272.92 243.64 272.92 240.25 272.92 236.87 272.92 233.48 272.92 230.09 272.92 226.7 272.92 223.32 272.92 219.96 272.92 216.57 272.92 213.19 272.92 209.8 272.92 206.41 272.92 203.02 272.92 199.67 272.92 196.28 272.92 196.18 273.37 196.07 273.82 195.87 274.24 195.63 274.69 195.35 275.1 195 275.51 194.62 275.89 194.21 276.31 193.76 276.69 193.28 277.04 192.76 277.42 192.2 277.76 191.62 278.07 190.99 278.42 190.37 278.73 189.72 279.01 189.02 279.28 188.33 279.56 187.64 279.84 186.91 280.04 186.19 280.29 185.46 280.49 184.7 280.67 183.98 280.84 183.25 280.98 182.52 281.12 181.8 281.22 181.07 281.32 180.35 281.39 179.66 281.43 179 281.46 178.34 281.46 177.58 281.46 176.82 281.43 176.09 281.39 175.33 281.32 174.57 281.25 173.85 281.15 173.09 281.01 172.36 280.87 171.63 280.7 170.94 280.53 170.25 280.36 169.56 280.15 168.87 279.9 168.21 279.66 167.59 279.39 167 279.11 166.41 278.83 165.83 278.52 165.31 278.21 164.79 277.87 164.31 277.52 163.86 277.17 163.44 276.79 163.06 276.41 162.72 276.03 162.44 275.62 162.16 275.2 161.96 274.75 161.78 274.31 161.65 273.86 161.54 273.41 161.51 272.92 101.98 272.92 101.98 272.92"/><polygon class="cls-3" points="145.4 231.54 146.23 232.62 147.06 233.65 147.92 234.65 148.78 235.66 149.2 236.18 149.62 236.73 150 237.25 150.38 237.8 150.69 238.35 151 238.91 151.31 239.49 151.55 240.12 151.72 240.7 151.83 241.29 151.9 241.91 151.9 242.54 151.83 243.81 151.69 245.09 151.65 245.72 151.59 246.37 151.55 247 151.55 247.62 151.62 248.21 151.72 248.83 151.79 249.1 151.86 249.38 151.97 249.69 152.1 249.97 152.24 250.21 152.38 250.42 152.55 250.66 152.73 250.87 153.11 251.25 153.52 251.59 154 251.9 154.49 252.22 155.01 252.49 155.53 252.77 156.56 253.36 157.53 253.94 157.98 254.29 158.4 254.67 158.6 254.84 158.78 255.05 158.95 255.29 159.09 255.53 159.33 255.95 159.47 256.43 159.57 256.92 159.64 257.44 159.67 257.92 159.67 258.47 159.67 258.99 159.64 259.51 159.6 260.06 159.6 260.58 159.6 261.1 159.64 261.62 159.71 262.14 159.81 262.62 159.99 263.07 160.23 263.52 160.54 263.97 160.88 264.38 161.26 264.76 161.68 265.11 162.09 265.45 162.54 265.77 162.99 266.08 163.48 266.35 164.48 266.91 165.45 267.46 166.41 268.01 167.35 268.64 166.69 268.95 166.03 269.29 165.38 269.6 164.72 269.92 164.06 270.26 163.41 270.57 162.75 270.88 162.09 271.19 161.09 270.47 160.05 269.78 159.02 269.12 157.98 268.43 157.46 268.08 156.98 267.7 156.49 267.32 156.04 266.94 155.63 266.49 155.22 266.04 154.87 265.59 154.52 265.07 154.42 264.87 154.35 264.66 154.28 264.45 154.21 264.25 154.14 263.8 154.14 263.35 154.18 262.86 154.25 262.41 154.32 261.93 154.42 261.41 154.49 260.93 154.56 260.44 154.63 259.99 154.66 259.51 154.63 259.06 154.56 258.61 154.52 258.4 154.45 258.2 154.35 257.99 154.25 257.82 154.07 257.54 153.9 257.33 153.69 257.09 153.49 256.88 153.04 256.5 152.55 256.16 152 255.84 151.45 255.57 150.89 255.26 150.31 255.02 149.72 254.74 149.16 254.43 148.65 254.15 148.13 253.81 147.64 253.46 147.23 253.04 147.02 252.84 146.85 252.6 146.71 252.35 146.54 252.11 146.43 251.84 146.33 251.59 146.26 251.32 146.23 251.04 146.16 250.49 146.16 249.93 146.19 249.35 146.3 248.79 146.4 248.21 146.54 247.58 146.78 246.41 146.99 245.23 147.02 244.65 147.02 244.09 147.02 243.81 146.95 243.5 146.92 243.23 146.85 242.95 146.64 242.43 146.4 241.88 146.12 241.4 145.85 240.88 145.5 240.39 145.16 239.94 144.78 239.46 144.4 239.01 143.6 238.11 142.81 237.25 142.01 236.35 141.28 235.41 142.32 234.45 143.36 233.48 144.4 232.51 145.4 231.54 145.4 231.54"/><polygon class="cls-3" points="156.32 240.74 156.04 242.09 155.73 243.44 155.42 244.78 155.15 246.1 155.04 246.79 154.94 247.44 154.87 248.1 154.84 248.79 154.84 249.45 154.9 250.11 154.97 250.8 155.11 251.46 155.18 251.7 155.28 251.97 155.39 252.18 155.53 252.42 155.8 252.84 156.11 253.25 156.49 253.63 156.87 253.98 157.29 254.32 157.7 254.63 158.57 255.33 159.36 256.05 159.71 256.43 160.02 256.85 160.3 257.3 160.54 257.78 160.71 258.37 160.85 258.92 160.92 259.51 160.95 260.1 160.92 261.24 160.81 262.38 160.71 263.55 160.68 264.69 160.71 265.28 160.78 265.84 160.92 266.42 161.09 267.01 161.33 267.56 161.61 268.08 161.89 268.6 162.23 269.08 162.58 269.57 162.96 270.02 163.37 270.47 163.79 270.92 164.65 271.78 165.55 272.61 166.45 273.48 167.28 274.34 168.11 273.41 168.84 272.58 169.6 271.71 170.43 270.81 169.77 270.02 169.11 269.26 168.39 268.53 167.69 267.77 167.35 267.39 167.04 267.01 166.73 266.6 166.45 266.22 166.17 265.77 165.93 265.35 165.72 264.9 165.55 264.42 165.41 263.87 165.31 263.31 165.27 262.76 165.27 262.17 165.34 261.03 165.52 259.86 165.59 259.27 165.66 258.68 165.69 258.09 165.72 257.5 165.69 256.95 165.62 256.36 165.52 255.81 165.34 255.29 165.27 255.05 165.17 254.84 165.03 254.63 164.89 254.46 164.58 254.08 164.24 253.74 163.44 253.11 162.58 252.53 162.16 252.25 161.75 251.94 161.33 251.63 160.99 251.32 160.64 250.97 160.37 250.59 160.26 250.38 160.16 250.18 160.05 249.97 159.99 249.73 159.88 249.17 159.85 248.59 159.81 248.03 159.85 247.44 159.92 246.89 160.05 246.3 160.16 245.72 160.33 245.16 160.68 243.99 161.02 242.85 161.19 242.26 161.37 241.67 161.51 241.12 161.65 240.53 160.95 240.57 160.3 240.6 159.64 240.6 158.98 240.63 158.33 240.67 157.63 240.67 156.98 240.7 156.32 240.74 156.32 240.74"/><polygon class="cls-3" points="209 230.47 208.21 231.51 207.34 232.55 206.48 233.55 205.62 234.59 205.2 235.07 204.82 235.62 204.41 236.14 204.06 236.69 203.72 237.25 203.4 237.8 203.13 238.42 202.88 239.01 202.71 239.6 202.61 240.22 202.54 240.81 202.5 241.43 202.57 242.71 202.71 243.99 202.78 244.61 202.82 245.27 202.85 245.89 202.85 246.51 202.82 247.1 202.71 247.72 202.64 248 202.54 248.31 202.44 248.59 202.3 248.86 202.19 249.1 202.02 249.35 201.88 249.55 201.71 249.76 201.29 250.14 200.88 250.49 200.43 250.8 199.91 251.11 199.43 251.39 198.91 251.7 197.87 252.25 196.87 252.84 196.42 253.18 196.01 253.56 195.83 253.77 195.66 253.98 195.49 254.19 195.31 254.43 195.11 254.88 194.94 255.33 194.83 255.81 194.76 256.33 194.73 256.85 194.73 257.37 194.76 257.88 194.76 258.44 194.8 258.96 194.83 259.48 194.8 259.99 194.76 260.51 194.69 261.03 194.59 261.51 194.42 261.96 194.17 262.41 193.69 263.17 193.34 263.69 193.07 264 192.83 264.21 192.55 264.35 192.17 264.56 191.62 264.9 190.85 265.42 190.93 267.36 190.96 268.39 190.96 268.77 190.96 268.77 190.96 268.64 190.96 268.6 190.99 268.95 190.99 269.88 191.48 269.5 192.03 269.15 192.62 268.81 193.21 268.5 194.49 267.84 195.76 267.22 196.42 266.87 197.01 266.53 197.6 266.18 198.15 265.8 198.67 265.39 199.15 264.94 199.36 264.73 199.53 264.49 199.74 264.25 199.88 263.97 199.98 263.76 200.09 263.55 200.16 263.35 200.19 263.14 200.26 262.69 200.26 262.24 200.22 261.79 200.19 261.31 200.09 260.82 200.02 260.34 199.91 259.86 199.84 259.37 199.77 258.89 199.77 258.4 199.77 257.95 199.84 257.5 199.91 257.3 199.98 257.09 200.05 256.88 200.19 256.71 200.33 256.47 200.53 256.23 200.71 255.98 200.91 255.78 201.4 255.4 201.88 255.05 202.4 254.74 202.96 254.46 203.54 254.19 204.09 253.91 204.68 253.63 205.24 253.32 205.79 253.04 206.31 252.7 206.76 252.35 207.21 251.94 207.38 251.73 207.55 251.49 207.72 251.25 207.86 251 207.97 250.73 208.07 250.49 208.14 250.21 208.21 249.93 208.28 249.38 208.28 248.83 208.21 248.24 208.14 247.69 208 247.1 207.9 246.51 207.62 245.3 207.41 244.13 207.38 243.54 207.38 242.99 207.41 242.71 207.45 242.43 207.52 242.16 207.59 241.88 207.79 241.33 208 240.77 208.28 240.29 208.59 239.77 208.9 239.29 209.28 238.84 209.63 238.35 210.01 237.9 210.8 237 211.63 236.14 212.39 235.24 213.15 234.31 212.12 233.34 211.08 232.37 210.04 231.41 209 230.47 209 230.47"/><polygon class="cls-3" points="197.63 237.32 197.91 238.7 198.18 240.05 198.5 241.36 198.77 242.71 198.91 243.37 198.98 244.06 199.05 244.71 199.08 245.37 199.08 246.06 199.05 246.72 198.94 247.38 198.81 248.07 198.74 248.31 198.67 248.55 198.53 248.79 198.43 249.03 198.15 249.45 197.8 249.83 197.46 250.21 197.08 250.56 196.66 250.9 196.21 251.25 195.38 251.94 194.59 252.63 194.21 253.01 193.9 253.43 193.62 253.88 193.41 254.36 193.24 254.95 193.1 255.53 193.03 256.12 193 256.71 193.03 257.85 193.14 258.99 193.21 260.13 193.24 261.31 193.21 261.86 193.14 262.45 193.03 263.04 192.83 263.62 192.62 264.18 192.34 264.69 192.03 265.21 191.72 265.7 191.34 266.18 190.96 266.63 190.58 267.08 190.13 267.53 189.26 268.39 188.37 269.22 187.5 270.09 186.67 270.95 185.84 270.02 185.08 269.15 184.36 268.32 183.53 267.39 184.15 266.63 184.84 265.87 185.57 265.11 186.26 264.38 186.57 264 186.91 263.59 187.23 263.21 187.5 262.79 187.78 262.38 188.02 261.96 188.23 261.51 188.4 261.03 188.54 260.48 188.61 259.92 188.68 259.37 188.68 258.78 188.57 257.61 188.44 256.43 188.37 255.84 188.3 255.26 188.26 254.67 188.23 254.12 188.23 253.53 188.3 252.98 188.4 252.42 188.57 251.87 188.68 251.66 188.78 251.46 188.92 251.25 189.06 251.07 189.37 250.69 189.72 250.35 190.51 249.73 191.37 249.14 191.79 248.86 192.2 248.55 192.58 248.24 192.96 247.93 193.28 247.55 193.55 247.2 193.69 247 193.79 246.79 193.86 246.55 193.93 246.34 194.04 245.75 194.1 245.2 194.1 244.61 194.07 244.06 194 243.47 193.9 242.92 193.76 242.33 193.62 241.74 193.28 240.6 192.9 239.46 192.72 238.87 192.58 238.28 192.41 237.7 192.31 237.14 192.96 237.18 193.66 237.18 194.31 237.21 194.97 237.25 195.63 237.25 196.28 237.28 196.94 237.32 197.63 237.32 197.63 237.32"/><polygon class="cls-3" points="337.39 207.83 338.22 208.9 339.05 209.9 339.92 210.94 340.78 211.94 341.2 212.46 341.61 212.98 341.99 213.53 342.37 214.09 342.68 214.64 342.99 215.19 343.31 215.78 343.55 216.4 343.72 216.99 343.82 217.58 343.89 218.2 343.89 218.82 343.82 220.1 343.69 221.38 343.62 222 343.58 222.66 343.55 223.28 343.55 223.9 343.62 224.49 343.72 225.11 343.79 225.39 343.86 225.67 343.96 225.98 344.1 226.25 344.24 226.5 344.38 226.7 344.55 226.94 344.72 227.15 345.1 227.53 345.52 227.88 346 228.19 346.49 228.5 347 228.78 347.52 229.05 348.56 229.64 349.53 230.23 349.98 230.57 350.39 230.96 350.6 231.13 350.77 231.34 350.94 231.58 351.08 231.82 351.29 232.24 351.46 232.72 351.57 233.2 351.64 233.72 351.67 234.21 351.67 234.76 351.67 235.28 351.64 235.79 351.6 236.35 351.6 236.87 351.6 237.38 351.64 237.9 351.7 238.42 351.81 238.87 351.98 239.36 352.22 239.81 352.71 240.57 353.09 241.05 353.36 241.4 353.64 241.57 353.95 241.74 354.33 241.95 354.88 242.29 355.65 242.81 354.99 244.61 354.64 245.44 354.54 245.61 354.5 245.65 354.5 245.58 354.54 245.47 354.57 245.37 354.57 245.3 354.61 245.27 354.61 245.37 354.47 245.99 354.09 247.48 353.09 246.75 352.05 246.06 351.01 245.41 349.98 244.71 349.46 244.37 348.97 243.99 348.49 243.61 348.04 243.19 347.63 242.78 347.21 242.33 346.87 241.88 346.52 241.36 346.42 241.15 346.35 240.95 346.28 240.74 346.21 240.53 346.14 240.08 346.14 239.63 346.17 239.15 346.24 238.66 346.31 238.22 346.38 237.7 346.49 237.21 346.55 236.73 346.62 236.28 346.66 235.79 346.62 235.35 346.55 234.9 346.52 234.69 346.45 234.48 346.35 234.27 346.24 234.1 346.07 233.82 345.9 233.62 345.69 233.38 345.48 233.17 345.03 232.79 344.51 232.44 344 232.13 343.44 231.85 342.89 231.54 342.3 231.27 341.71 231.03 341.16 230.71 340.61 230.44 340.12 230.09 339.64 229.75 339.23 229.33 339.02 229.12 338.85 228.88 338.67 228.64 338.53 228.36 338.43 228.12 338.33 227.84 338.26 227.6 338.19 227.33 338.15 226.77 338.15 226.22 338.19 225.63 338.29 225.04 338.4 224.49 338.53 223.87 338.78 222.69 338.98 221.52 339.02 220.93 339.02 220.38 339.02 220.07 338.95 219.79 338.91 219.51 338.85 219.24 338.64 218.72 338.4 218.16 338.12 217.65 337.84 217.16 337.5 216.68 337.15 216.23 336.77 215.75 336.39 215.3 335.6 214.4 334.8 213.53 334.01 212.63 333.28 211.7 334.32 210.73 335.35 209.76 336.36 208.8 337.39 207.83 337.39 207.83"/><polygon class="cls-3" points="349.84 212.67 349.56 213.98 349.25 215.23 348.94 216.4 348.66 217.54 348.56 218.13 348.46 218.68 348.42 219.27 348.39 219.86 348.39 220.48 348.42 221.1 348.52 221.73 348.66 222.38 348.73 222.66 348.8 222.9 348.9 223.14 349.04 223.35 349.32 223.76 349.63 224.18 350.01 224.56 350.39 224.91 350.81 225.25 351.22 225.6 352.08 226.25 352.88 226.98 353.23 227.36 353.57 227.78 353.85 228.22 354.06 228.71 354.23 229.3 354.37 229.88 354.44 230.44 354.47 231.03 354.44 232.16 354.33 233.34 354.23 234.48 354.23 235.62 354.23 236.21 354.33 236.8 354.44 237.35 354.61 237.94 354.85 238.49 355.13 239.01 355.44 239.53 355.75 240.01 356.13 240.5 356.51 240.95 356.89 241.4 357.31 241.84 358.2 242.71 359.07 243.54 359.97 244.4 360.8 245.27 361.63 244.33 362.39 243.5 363.11 242.67 363.94 241.74 363.32 240.95 362.63 240.19 361.9 239.46 361.21 238.7 360.87 238.32 360.56 237.94 360.24 237.52 359.97 237.14 359.69 236.73 359.45 236.28 359.24 235.83 359.07 235.35 358.93 234.83 358.83 234.24 358.79 233.69 358.79 233.1 358.89 231.96 359.03 230.78 359.1 230.19 359.17 229.61 359.21 229.02 359.24 228.43 359.21 227.88 359.17 227.33 359.07 226.77 358.89 226.22 358.79 226.01 358.69 225.77 358.55 225.6 358.41 225.39 358.1 225.01 357.75 224.7 356.96 224.08 356.1 223.49 355.68 223.18 355.27 222.87 354.85 222.56 354.5 222.24 354.16 221.9 353.88 221.52 353.78 221.31 353.68 221.1 353.61 220.9 353.54 220.65 353.4 220.1 353.36 219.51 353.33 218.96 353.36 218.37 353.47 217.82 353.57 217.23 353.71 216.64 353.85 216.09 354.19 214.91 354.57 213.78 354.75 213.19 354.88 212.63 355.02 212.05 355.16 211.46 354.82 211.49 354.5 211.53 354.16 211.6 353.81 211.67 353.16 211.87 352.5 212.08 351.84 212.29 351.19 212.46 350.84 212.53 350.5 212.6 350.18 212.63 349.84 212.67 349.84 212.67"/><polygon class="cls-3" points="414.31 203.3 413.51 204.34 412.65 205.37 411.79 206.38 410.92 207.41 410.51 207.93 410.13 208.45 409.71 209 409.37 209.52 409.02 210.08 408.71 210.66 408.43 211.25 408.19 211.87 408.02 212.46 407.91 213.05 407.85 213.67 407.85 214.29 407.88 215.54 408.02 216.82 408.09 217.47 408.12 218.1 408.16 218.72 408.16 219.34 408.12 219.96 408.02 220.55 407.95 220.86 407.85 221.14 407.74 221.41 407.6 221.69 407.5 221.93 407.33 222.18 407.19 222.38 407.01 222.59 406.63 222.97 406.19 223.35 405.74 223.66 405.25 223.97 404.73 224.25 404.21 224.53 403.18 225.08 402.18 225.7 401.73 226.01 401.31 226.39 401.14 226.6 400.97 226.81 400.79 227.01 400.62 227.26 400.41 227.71 400.24 228.19 400.14 228.67 400.07 229.16 400.03 229.68 400.03 230.19 400.07 230.75 400.1 231.27 400.1 231.78 400.14 232.34 400.1 232.86 400.1 233.38 400.03 233.86 399.89 234.34 399.72 234.79 399.51 235.24 399 236.04 398.58 236.59 398.24 236.94 397.92 237.21 397.09 237.7 395.71 238.59 396.37 240.05 396.75 240.91 396.92 241.33 396.99 241.5 396.99 241.6 397.06 241.74 397.23 242.09 397.65 242.85 398.13 242.47 398.62 242.12 399.13 241.78 399.65 241.43 400.72 240.77 401.76 240.12 402.25 239.77 402.76 239.43 403.21 239.04 403.7 238.66 404.11 238.25 404.49 237.8 404.87 237.32 405.18 236.83 405.29 236.63 405.39 236.42 405.46 236.21 405.49 236 405.56 235.55 405.56 235.1 405.56 234.62 405.49 234.14 405.43 233.65 405.32 233.17 405.22 232.68 405.15 232.2 405.11 231.72 405.08 231.27 405.08 230.82 405.15 230.37 405.22 230.16 405.29 229.95 405.36 229.75 405.49 229.54 405.63 229.3 405.84 229.05 406.01 228.85 406.22 228.64 406.7 228.26 407.19 227.91 407.71 227.6 408.26 227.29 408.85 227.01 409.44 226.74 409.99 226.46 410.54 226.19 411.1 225.87 411.61 225.56 412.06 225.18 412.51 224.8 412.69 224.56 412.86 224.35 413.03 224.11 413.17 223.83 413.31 223.59 413.38 223.32 413.44 223.04 413.51 222.8 413.58 222.24 413.58 221.66 413.51 221.1 413.44 220.52 413.34 219.93 413.2 219.34 412.93 218.16 412.75 216.99 412.69 216.4 412.69 215.81 412.72 215.54 412.75 215.26 412.82 214.99 412.89 214.71 413.1 214.16 413.31 213.64 413.58 213.12 413.89 212.63 414.21 212.15 414.59 211.67 414.93 211.22 415.31 210.77 416.11 209.87 416.94 208.97 417.7 208.07 418.46 207.14 417.42 206.2 416.38 205.24 415.35 204.27 414.31 203.3 414.31 203.3"/><polygon class="cls-3" points="399.38 207.86 399.62 209.25 399.93 210.59 400.24 211.94 400.52 213.26 400.65 213.91 400.72 214.6 400.79 215.26 400.83 215.92 400.83 216.61 400.79 217.27 400.69 217.92 400.55 218.61 400.48 218.86 400.38 219.1 400.27 219.34 400.17 219.58 399.89 220 399.55 220.38 399.2 220.76 398.82 221.14 398.41 221.45 397.96 221.79 397.13 222.49 396.33 223.18 395.95 223.59 395.64 224.01 395.37 224.42 395.16 224.94 394.99 225.49 394.85 226.08 394.78 226.67 394.74 227.26 394.78 228.4 394.88 229.54 394.95 230.68 394.99 231.85 394.95 232.41 394.88 233 394.78 233.58 394.57 234.17 394.36 234.72 394.09 235.24 393.77 235.76 393.46 236.25 393.08 236.73 392.7 237.18 392.29 237.63 391.87 238.08 391.01 238.94 390.11 239.77 389.25 240.63 388.42 241.5 387.59 240.57 386.83 239.74 386.07 238.87 385.24 237.94 385.89 237.18 386.58 236.42 387.28 235.66 388 234.93 388.31 234.55 388.66 234.14 388.97 233.76 389.25 233.34 389.52 232.93 389.76 232.51 389.97 232.06 390.15 231.58 390.28 231.03 390.35 230.47 390.42 229.92 390.42 229.33 390.32 228.16 390.18 226.98 390.11 226.39 390.04 225.81 390.01 225.25 389.97 224.66 389.97 224.08 390.04 223.52 390.15 222.97 390.32 222.45 390.42 222.21 390.53 222 390.66 221.79 390.8 221.62 391.11 221.24 391.46 220.9 392.25 220.27 393.12 219.69 393.53 219.41 393.95 219.1 394.33 218.79 394.71 218.48 395.02 218.13 395.3 217.75 395.44 217.54 395.54 217.34 395.61 217.09 395.68 216.89 395.78 216.3 395.85 215.75 395.85 215.19 395.81 214.6 395.75 214.02 395.64 213.46 395.5 212.88 395.37 212.29 395.02 211.15 394.64 210.01 394.47 209.42 394.29 208.83 394.16 208.28 394.05 207.69 394.71 207.72 395.37 207.72 396.06 207.76 396.71 207.79 397.37 207.79 398.03 207.83 398.68 207.86 399.38 207.86 399.38 207.86"/><path class="cls-3" d="M397.59,356l0-.34-.1-1-.07-.62-.14-.73-.14-.76-.14-.79-.2-.83-.25-.8-.27-.73-.35-.69-.17-.27-.17-.31-.21-.25-.21-.2-.24-.21-.24-.14-.25-.1-.27-.07-3.91-.59-4.8-.76-5.57-.83-6.15-.93-6.57-1-6.88-1-6.95-1.07-6.91-1-6.71-1-6.36-1-5.81-.9-5.11-.76-4.25-.66-3.25-.52-2.08-.31-.72-.1-.73-.14-.69-.17-.69-.21-.66-.24-.66-.28-.62-.31-.62-.34-.62-.35-.56-.38-.55-.42-.55-.44-.49-.49-.52-.48-.44-.49-.45-.55-.42-.52-.38-.59-.34-.58-.35-.59-.31-.62-.28-.63-.24-.65-.21-.66-.21-.66-.13-.69-.11-.69-.1-.69,0-.73,0-.69,0-.72,0-.73.1-.73.14-.72.14-.73.21-.69.24-.66.24-.65.31-.66.31-.62.35-.62.38-.56.41-.58.42-.52.45-.56.48-.48.49-.48.51-.45.56-.42.55-.41.59-.35.59-.34.62-.32.62-.31.62-.24.66-.24.69-.21.66-.14.69-.13.69-.11.73-.07.69,0H315l.73,0,.73.07.72.14,2.08.31,3.25.48,4.25.66,5.11.8,5.81.9,6.33,1,6.74,1,6.91,1.07,6.95,1.07,6.88,1,6.57,1,6.15,1,5.57.83,4.8.76,3.91.58h.55l.28-.06.27-.14.25-.14.27-.17.28-.21.24-.24.52-.56.48-.62.49-.69.41-.69.42-.73.34-.69.31-.66.28-.58.38-.87.14-.34L397.59,356Zm-5-20.88-79.82-4.35-.56-.07-.48-.07-.52-.1-.48-.14-.49-.18-.48-.2-.45-.21-.41-.24-.42-.28-.41-.31-.38-.31-.38-.35L307,328l-.35-.38-.31-.42-.31-.41-.28-.42-.27-.45-.24-.45L305,325l-.21-.48-.17-.49-.14-.48-.14-.52-.1-.52-.11-.52,0-.52,0-.51,0-.56,0-.52,0-.55.07-.52.1-.52.11-.51.13-.52.18-.49.21-.48.2-.49.21-.44.28-.45.27-.42.28-.41.31-.42.35-.38.34-.34.35-.35.38-.35.41-.31.38-.31.45-.24.42-.28.45-.2.45-.25.48-.17.45-.17.48-.14.52-.1.49-.11.51-.07.52,0,.52,0,.52,0,.52,0,.52.07L394.93,322l-2.31,13.1Z" transform="translate(-21 -144.89)"/><path class="cls-3" d="M197.89,356.31l0-.38.11-1,.07-.63.1-.72.14-.76.17-.8.21-.83.24-.76.28-.76.31-.66.17-.31.21-.27.21-.28.2-.21.21-.17.24-.17.28-.11.28-.07,3.87-.58,4.8-.73,5.57-.86,6.15-.94,6.6-1,6.85-1.07,7-1,6.92-1.07,6.7-1,6.33-1,5.81-.87,5.11-.79,4.25-.66,3.25-.48,2.08-.35.76-.1.69-.14.73-.18.65-.2.69-.24.66-.28.62-.31.63-.35.58-.34.59-.38.55-.42.52-.45.52-.45.49-.48.48-.52.41-.52.42-.55.38-.59.38-.55.34-.62.28-.63.28-.62.27-.66.21-.65.17-.66.18-.69.1-.69.07-.69.07-.73v-1.42l-.07-.72-.07-.73-.14-.72-.17-.73-.21-.69-.2-.66-.28-.66-.28-.65-.31-.63-.38-.58-.34-.59-.42-.59-.45-.52-.45-.52-.45-.51-.52-.45-.51-.45-.52-.45-.59-.38-.55-.38-.63-.35-.58-.31-.63-.31-.65-.24-.66-.24-.66-.18-.69-.17-.66-.14-.72-.1-.69-.07-.73,0h-.69l-.73,0-.72.1-.76.11-2.08.31-3.21.52-4.29.62-5.11.79-5.81.9-6.33,1-6.7,1-6.92,1-7,1.08-6.85,1-6.6,1-6.15.93-5.53.87-4.84.72-3.87.59-.28,0-.28,0-.27-.07-.28-.1-.28-.17-.27-.18-.25-.2-.27-.25-.52-.55-.48-.62-.45-.66-.45-.72-.38-.73-.38-.69-.31-.66-.28-.59-.38-.86-.14-.35,6.88,44.87Zm5-20.91L282.69,331l.52-.07.51-.06.52-.11.49-.14.48-.17.45-.21.45-.2.45-.25.41-.27.42-.31.38-.31.38-.35.34-.35.35-.38.31-.38.28-.41.31-.45.24-.45.24-.45.21-.48.21-.45.17-.52.17-.49.14-.51.11-.52.07-.52.06-.52,0-.52v-1.07l0-.52-.06-.55-.11-.52-.1-.52-.18-.52-.13-.48-.21-.48-.21-.45-.24-.49-.24-.45-.28-.41-.31-.42-.31-.38-.31-.41-.35-.35-.38-.34-.38-.35-.38-.31-.41-.28-.42-.27-.45-.28-.41-.21-.49-.21-.45-.2-.48-.18-.48-.13-.49-.11-.52-.1-.48-.07-.52,0h-1l-.51,0-.52.07-79,12.13,2.35,13.07Z" transform="translate(-21 -144.89)"/><polygon class="cls-3" points="178.03 224.15 177.69 225.67 177.44 227.05 177.27 228.33 177.13 229.61 176.99 230.89 176.82 232.2 176.61 233.65 176.3 235.24 176.16 235.83 175.99 236.42 175.75 237.04 175.51 237.66 174.95 238.94 174.37 240.29 174.09 240.98 173.81 241.71 173.57 242.43 173.33 243.19 173.16 243.95 173.02 244.75 172.91 245.54 172.88 246.37 172.91 247.24 172.95 248.14 173.05 249.07 173.16 250 173.33 250.9 173.54 251.84 173.78 252.7 174.09 253.53 174.26 253.94 174.44 254.32 174.61 254.7 174.81 255.05 175.02 255.4 175.23 255.71 175.47 255.98 175.71 256.26 175.99 256.5 176.27 256.71 176.54 256.92 176.82 257.06 177.13 257.19 177.48 257.26 177.82 257.33 178.17 257.37 178.51 257.37 178.86 257.3 179.21 257.23 179.55 257.12 179.86 256.99 180.17 256.81 180.49 256.61 180.76 256.36 181.04 256.12 181.31 255.84 181.56 255.57 181.8 255.26 182.04 254.91 182.25 254.53 182.46 254.19 182.66 253.77 183.04 252.94 183.35 252.08 183.63 251.18 183.87 250.21 184.04 249.28 184.18 248.31 184.25 247.34 184.29 246.37 184.25 245.68 184.18 245.03 184.08 244.33 183.91 243.68 183.73 243.06 183.49 242.4 183.25 241.78 183.01 241.12 182.46 239.87 181.9 238.59 181.66 237.94 181.42 237.28 181.21 236.63 181 235.97 180.62 234.48 180.24 233 179.9 231.54 179.52 230.06 179.14 228.57 178.76 227.08 178.38 225.6 178.03 224.15 178.03 224.15"/><polygon class="cls-3" points="179.17 193.31 178.82 194.83 178.58 196.25 178.41 197.53 178.27 198.81 178.13 200.05 177.96 201.4 177.75 202.85 177.44 204.44 177.3 205.03 177.13 205.62 176.89 206.24 176.65 206.86 176.09 208.14 175.51 209.49 175.23 210.18 174.95 210.91 174.71 211.63 174.47 212.39 174.3 213.15 174.16 213.95 174.06 214.74 174.02 215.57 174.06 216.44 174.09 217.34 174.19 218.27 174.3 219.2 174.47 220.1 174.68 221 174.92 221.9 175.23 222.73 175.4 223.14 175.58 223.52 175.75 223.9 175.96 224.25 176.16 224.59 176.37 224.91 176.61 225.18 176.85 225.46 177.13 225.7 177.41 225.91 177.69 226.08 177.96 226.25 178.27 226.39 178.62 226.46 178.93 226.53 179.31 226.56 179.66 226.53 180 226.5 180.35 226.43 180.69 226.32 181 226.15 181.31 226.01 181.59 225.81 181.9 225.56 182.18 225.32 182.46 225.04 182.7 224.77 182.94 224.42 183.18 224.11 183.39 223.73 183.6 223.35 183.8 222.97 184.18 222.14 184.5 221.28 184.77 220.38 185.01 219.41 185.19 218.48 185.32 217.51 185.39 216.54 185.43 215.57 185.39 214.88 185.32 214.22 185.22 213.53 185.05 212.88 184.88 212.25 184.63 211.6 184.39 210.97 184.15 210.32 183.6 209.07 183.04 207.79 182.8 207.14 182.56 206.48 182.32 205.82 182.14 205.17 181.76 203.68 181.38 202.19 181.04 200.71 180.66 199.26 180.28 197.77 179.9 196.28 179.52 194.8 179.17 193.31 179.17 193.31"/><polygon class="cls-3" points="376.04 189.89 375.7 191.41 375.49 192.79 375.32 194.1 375.14 195.38 375 196.63 374.83 197.98 374.62 199.43 374.31 201.02 374.18 201.61 374 202.19 373.76 202.82 373.52 203.44 372.96 204.72 372.38 206.07 372.1 206.76 371.82 207.48 371.58 208.21 371.38 208.97 371.17 209.73 371.03 210.53 370.93 211.32 370.89 212.15 370.93 213.01 370.96 213.91 371.06 214.85 371.17 215.75 371.34 216.68 371.55 217.58 371.79 218.48 372.1 219.31 372.27 219.72 372.45 220.1 372.62 220.48 372.83 220.83 373.03 221.14 373.24 221.48 373.48 221.76 373.73 222.04 374 222.28 374.28 222.49 374.56 222.66 374.87 222.83 375.18 222.97 375.49 223.04 375.83 223.11 376.18 223.14 376.53 223.11 376.87 223.07 377.22 223 377.56 222.9 377.87 222.73 378.19 222.59 378.5 222.38 378.77 222.14 379.05 221.9 379.33 221.62 379.57 221.34 379.81 221 380.05 220.69 380.26 220.31 380.5 219.93 380.67 219.55 381.05 218.72 381.37 217.85 381.64 216.96 381.88 215.99 382.06 215.05 382.19 214.09 382.26 213.12 382.3 212.15 382.26 211.46 382.19 210.8 382.09 210.11 381.92 209.45 381.75 208.83 381.5 208.17 381.26 207.55 381.02 206.9 380.47 205.65 379.91 204.37 379.67 203.72 379.43 203.06 379.22 202.4 379.01 201.75 378.63 200.26 378.29 198.77 377.91 197.28 377.53 195.83 377.15 194.35 376.77 192.86 376.42 191.37 376.04 189.89 376.04 189.89"/><polygon class="cls-3" points="376.04 216.71 375.7 218.23 375.49 219.62 375.32 220.93 375.14 222.18 375 223.45 374.83 224.8 374.62 226.22 374.31 227.84 374.18 228.43 374 229.02 373.76 229.61 373.52 230.23 372.96 231.51 372.38 232.86 372.1 233.58 371.82 234.27 371.58 235.03 371.38 235.76 371.17 236.56 371.03 237.32 370.93 238.15 370.89 238.97 370.93 239.84 370.96 240.74 371.06 241.64 371.17 242.57 371.34 243.5 371.55 244.4 371.79 245.3 372.1 246.13 372.27 246.51 372.45 246.93 372.62 247.27 372.83 247.62 373.03 247.96 373.24 248.28 373.48 248.59 373.73 248.83 374 249.07 374.28 249.31 374.56 249.48 374.87 249.66 375.18 249.76 375.49 249.87 375.83 249.93 376.18 249.93 376.53 249.93 376.87 249.9 377.22 249.8 377.56 249.69 377.87 249.55 378.19 249.38 378.5 249.17 378.77 248.97 379.05 248.72 379.33 248.45 379.57 248.14 379.81 247.82 380.05 247.48 380.26 247.13 380.5 246.75 380.67 246.37 381.05 245.54 381.37 244.68 381.64 243.75 381.88 242.81 382.06 241.84 382.19 240.88 382.26 239.91 382.3 238.97 382.26 238.28 382.19 237.59 382.09 236.94 381.92 236.28 381.75 235.62 381.5 235 381.26 234.34 381.02 233.72 380.47 232.44 379.91 231.16 379.67 230.54 379.43 229.88 379.22 229.23 379.01 228.57 378.63 227.08 378.29 225.6 377.91 224.11 377.53 222.62 377.15 221.14 376.77 219.69 376.42 218.2 376.04 216.71 376.04 216.71"/></svg>