<svg id="Ebene_1" data-name="Ebene 1" xmlns="http://www.w3.org/2000/svg" viewBox="0 0 553.1 553.1"><defs><style>.cls-1{fill:#fff;}.cls-1,.cls-2,.cls-3{fill-rule:evenodd;}.cls-2{fill:#da251d;}.cls-4{fill:none;stroke:#000;stroke-linecap:square;stroke-miterlimit:10;stroke-width:0.21px;}</style></defs><polygon class="cls-1" points="0 276.55 276.55 0 553.1 276.55 276.55 553.1 0 276.55 0 276.55"/><path class="cls-2" d="M21,421.44,297.55,144.89,574.1,421.44,297.55,698,21,421.44Zm44.84,0L297.55,189.73,529.27,421.44,297.55,653.16,65.84,421.44Z" transform="translate(-21 -144.89)"/><polygon class="cls-3" points="170.15 359.66 168.59 359.28 167.49 358.96 166.41 358.58 165.38 358.2 164.44 357.75 163.58 357.34 162.75 356.89 161.99 356.37 161.3 355.89 160.64 355.33 160.02 354.78 159.47 354.19 158.95 353.57 158.46 352.92 158.01 352.22 157.6 351.57 157.22 350.81 156.87 350.05 156.53 349.29 156.22 348.46 155.94 347.63 155.66 346.76 155.42 345.86 155.18 344.93 154.94 343.96 154.7 342.96 154.45 341.92 154 339.78 153.52 337.5 151.65 336.43 149.79 335.35 147.92 334.32 146.12 333.25 145.22 332.73 144.4 332.17 143.56 331.62 142.74 331.07 141.97 330.48 141.25 329.86 140.56 329.27 139.87 328.61 139.28 327.96 138.72 327.26 138.17 326.57 137.76 325.85 137.34 325.09 137 324.29 136.72 323.46 136.51 322.6 136.38 321.7 136.31 320.77 136.34 319.8 136.44 318.8 136.62 317.72 136.89 316.62 137.24 315.44 137.83 314.23 138.69 313.16 139.69 312.16 140.7 311.23 141.7 310.36 142.74 309.56 143.81 308.87 144.88 308.22 145.95 307.66 147.02 307.18 148.13 306.76 149.23 306.38 150.38 306.07 151.52 305.83 152.69 305.63 153.83 305.49 155.01 305.42 156.18 305.38 157.39 305.38 158.6 305.45 159.81 305.56 161.02 305.69 162.27 305.87 163.51 306.11 164.76 306.35 166.03 306.63 167.31 306.97 168.59 307.32 169.87 307.7 171.15 308.08 172.47 308.49 173.78 308.94 175.09 309.39 176.09 309.39 177.06 309.39 178.06 309.39 179.07 309.39 180.07 309.39 181.07 309.39 182.07 309.39 183.08 309.39 185.74 308.15 188.4 306.87 191.06 305.59 193.69 304.35 196.39 303.1 199.05 301.86 201.68 300.58 204.37 299.33 207 298.09 209.66 296.81 212.32 295.56 215.02 294.32 217.65 293.08 220.31 291.83 223 290.59 225.67 289.31 225.35 288.62 225.01 287.93 224.7 287.27 224.39 286.58 224.08 285.89 223.76 285.23 223.45 284.54 223.14 283.85 214.99 279.7 207.83 276.07 201.64 272.96 196.32 270.23 191.79 267.98 187.99 266.04 184.84 264.49 182.28 263.21 180.28 262.21 178.69 261.44 177.48 260.89 176.58 260.48 175.89 260.2 175.37 259.99 174.92 259.89 174.54 259.79 173.12 259.79 171.84 259.82 170.67 259.86 169.6 259.96 168.59 260.06 167.66 260.2 167.18 260.27 166.76 260.37 166.31 260.48 165.86 260.58 165.03 260.82 164.13 261.1 163.27 261.41 162.34 261.79 161.37 262.21 160.33 262.65 159.19 263.21 157.98 263.76 156.08 264.21 154.32 264.59 152.59 264.83 151 264.97 149.48 265.01 148.02 264.94 146.68 264.8 145.4 264.52 144.22 264.21 143.08 263.76 142.08 263.24 141.15 262.65 140.28 261.96 139.52 261.2 138.83 260.37 138.21 259.44 137.65 258.47 137.2 257.44 136.86 256.33 136.55 255.15 136.31 253.91 136.17 252.63 136.1 251.28 136.1 249.9 136.2 248.48 136.38 247 136.58 245.44 136.89 243.88 137.27 242.29 137.72 240.63 138.24 238.97 138.83 237.28 139.42 236.49 139.94 235.79 140.45 235.14 140.94 234.59 141.84 233.55 142.6 232.68 143.32 231.92 143.98 231.23 144.29 230.89 144.57 230.57 144.84 230.19 145.12 229.85 145.53 227.88 146.02 226.05 146.57 224.35 147.16 222.83 147.82 221.41 148.51 220.13 149.23 218.96 150.06 217.92 150.89 216.99 151.76 216.19 152.69 215.54 153.63 214.95 154.63 214.5 155.66 214.16 156.74 213.91 157.81 213.81 158.95 213.74 160.09 213.81 161.3 213.98 162.47 214.22 163.72 214.57 164.96 214.99 166.24 215.54 167.52 216.13 168.84 216.78 170.11 217.54 171.46 218.37 172.78 219.27 174.16 220.24 175.51 221.28 176.85 222.35 178.48 224.11 180.28 226.56 181.87 228.92 183.15 230.68 184.11 232.06 184.56 232.68 185.01 233.24 185.43 233.76 185.84 234.31 186.84 235.45 188.02 236.83 188.71 237.21 189.65 237.7 190.72 238.32 192 239.01 193.34 239.77 194.83 240.57 196.39 241.4 197.94 242.19 199.5 242.99 201.05 243.71 201.78 244.06 202.5 244.37 203.2 244.68 203.89 244.96 204.54 245.2 205.17 245.37 205.72 245.54 206.27 245.68 206.76 245.79 207.17 245.82 207.55 245.82 207.86 245.75 206.86 244.47 205.82 243.23 204.86 241.98 203.92 240.74 203.47 240.15 203.02 239.53 202.64 238.91 202.26 238.25 201.92 237.59 201.78 237.28 201.57 236.76 201.47 236.42 201.4 236.07 201.33 235.69 201.29 235.28 201.23 234.55 201.19 233.76 201.16 233.03 201.16 232.3 201.23 230.71 201.29 229.09 201.36 227.5 201.43 225.87 201.5 224.28 201.57 222.66 201.64 221.07 201.71 219.48 201.78 217.85 201.85 216.26 201.95 214.67 202.02 213.08 202.09 211.46 202.16 209.87 201.54 208.73 200.91 207.59 200.29 206.45 199.64 205.31 199.01 204.16 198.39 203.02 197.77 201.88 197.15 200.74 196.53 199.6 195.9 198.46 195.28 197.35 194.66 196.18 194.04 195.07 193.41 193.93 192.83 192.79 192.24 191.75 191.65 190.79 191.1 189.75 190.61 188.68 190.23 187.78 189.89 186.84 189.54 185.98 189.23 185.08 188.99 184.18 188.71 183.32 188.5 182.46 188.3 181.63 188.12 180.8 187.99 179.97 187.92 179.1 187.81 178.31 187.78 177.44 187.74 176.65 187.74 175.82 187.78 174.99 187.85 174.19 187.99 173.36 188.12 172.53 188.26 171.74 188.47 170.91 188.71 170.08 188.99 169.25 189.3 168.39 189.65 167.52 189.99 166.66 190.44 165.79 190.89 164.93 191.34 164.03 191.51 163.75 191.75 163.41 192.03 163.06 192.24 162.82 194.14 160.95 196.42 158.81 198.7 156.67 200.98 154.52 203.27 152.38 205.55 150.27 207.83 148.13 210.11 145.99 212.39 143.84 214.71 141.7 216.99 139.56 219.24 137.41 221.52 135.27 223.83 133.13 226.12 130.98 228.4 128.84 229.88 127.97 231.34 127.11 232.79 126.28 234.27 125.48 235.73 124.69 237.18 123.96 238.63 123.24 240.08 122.55 241.53 121.89 242.99 121.27 244.44 120.65 245.92 120.06 247.38 119.5 248.86 118.99 250.31 118.47 251.8 118.02 253.32 117.57 254.84 117.15 256.33 116.77 257.88 116.39 259.44 116.05 261 115.77 262.59 115.5 264.18 115.25 265.8 115.05 267.43 114.84 269.08 114.67 270.78 114.56 272.47 114.46 274.2 114.39 275.96 114.32 277.76 114.32 279.8 114.67 281.81 115.01 283.81 115.39 285.82 115.74 287.79 116.15 289.76 116.6 291.66 117.08 293.63 117.57 294.56 117.85 295.53 118.12 296.5 118.43 297.47 118.71 298.43 119.02 299.4 119.37 300.37 119.68 301.34 120.02 302.31 120.4 303.24 120.78 304.24 121.2 305.21 121.61 306.21 122.03 307.18 122.48 308.15 122.93 309.15 123.41 310.57 124.52 312.02 125.66 313.47 126.8 314.89 127.91 317.76 130.26 320.63 132.61 323.46 134.99 326.33 137.45 329.17 139.9 332 142.39 334.83 144.91 337.67 147.4 340.47 149.93 343.31 152.45 346.11 154.97 348.9 157.5 351.67 160.02 354.47 162.51 355.47 164.03 356.37 165.55 357.13 167.11 357.75 168.63 358.24 170.15 358.62 171.67 358.89 173.16 359.03 174.68 359.1 176.16 359.07 177.69 358.93 179.17 358.72 180.66 358.45 182.14 358.1 183.66 357.65 185.12 357.17 186.6 356.58 188.09 355.99 189.54 355.33 191.03 354.61 192.48 353.88 193.97 353.09 195.42 352.29 196.87 351.5 198.32 349.8 201.23 348.07 204.13 347.21 205.55 346.38 207 345.55 208.45 344.76 209.87 344.83 210.97 344.89 212.15 345 213.36 345.1 214.6 345.34 217.2 345.55 219.89 345.69 221.28 345.79 222.66 345.86 224.08 345.93 225.49 345.97 226.91 345.97 228.33 345.97 229.75 345.9 231.13 345.79 232.51 345.65 233.89 345.48 235.24 345.21 236.59 344.93 237.87 344.58 239.15 344.13 240.36 343.65 241.57 343.1 242.71 342.44 243.81 341.75 244.89 340.92 245.85 340.02 246.79 339.05 247.65 337.95 248.48 336.77 249.21 337.15 249.28 337.63 249.28 338.22 249.21 338.85 249.07 339.61 248.86 340.4 248.62 341.3 248.31 342.23 247.93 343.2 247.51 344.27 247.06 345.34 246.58 346.45 246.03 347.63 245.47 348.77 244.89 349.98 244.23 351.19 243.61 352.4 242.95 353.61 242.29 354.78 241.6 355.99 240.91 357.17 240.22 358.27 239.53 359.38 238.84 360.45 238.15 361.49 237.45 362.46 236.83 363.36 236.18 364.22 235.55 365.01 234.97 365.7 234.41 366.33 233.89 366.95 233.17 367.61 232.2 368.33 231.06 369.06 229.92 369.75 228.85 370.48 227.81 371.17 226.81 371.86 225.84 372.58 224.91 373.31 224.04 374.04 223.18 374.76 222.35 375.52 221.59 376.28 220.86 377.04 220.17 377.84 219.51 378.67 218.89 379.5 218.34 380.4 217.78 381.3 217.27 382.19 216.82 383.16 216.37 384.13 215.99 385.17 215.64 386.24 215.33 387.35 215.05 388.49 214.81 389.7 214.6 390.91 214.47 392.22 214.33 393.53 214.22 394.95 214.16 396.19 214.29 397.2 214.64 397.96 215.12 398.65 215.61 399.31 216.09 399.86 216.57 400.41 217.02 400.9 217.51 401.35 217.99 401.76 218.44 402.11 218.93 402.45 219.38 402.76 219.86 403.04 220.34 403.32 220.83 403.52 221.34 403.77 221.83 403.97 222.35 404.15 222.83 404.35 223.38 404.56 223.9 404.91 225.04 405.32 226.22 405.53 226.84 405.77 227.46 406.01 228.12 406.29 228.78 406.57 229.47 406.88 230.19 407.22 230.92 407.64 231.68 408.4 232.16 409.12 232.75 409.81 233.31 410.44 233.96 410.99 234.62 411.51 235.35 412.03 236.07 412.44 236.87 412.86 237.66 413.24 238.49 413.55 239.36 413.83 240.22 414.1 241.12 414.31 242.02 414.52 242.95 414.65 243.88 414.76 244.85 414.86 245.82 414.93 246.79 414.97 247.76 414.97 248.72 414.97 249.69 414.93 250.66 414.86 251.66 414.79 252.6 414.69 253.56 414.59 254.5 414.45 255.43 414.31 256.33 414.14 257.23 413.96 258.13 413.58 258.99 413 259.92 412.2 260.82 411.41 261.62 410.58 262.34 409.75 262.97 408.92 263.52 408.09 264 407.22 264.38 406.39 264.73 405.53 264.97 404.63 265.18 403.77 265.32 402.9 265.39 402 265.42 401.1 265.39 400.17 265.32 399.27 265.21 398.37 265.04 397.44 264.8 396.51 264.59 395.57 264.28 394.64 263.97 393.71 263.66 392.74 263.28 391.81 262.9 390.84 262.48 389.87 262.03 388.9 261.62 386.96 260.69 385 259.99 383.34 259.79 381.78 259.79 381.02 259.82 380.26 259.82 379.53 259.86 378.81 259.89 378.12 259.96 377.39 260.03 376.7 260.13 375.97 260.24 375.25 260.37 374.52 260.51 373.8 260.69 373.03 260.89 369.89 262.48 366.74 264.07 363.63 265.66 360.45 267.25 357.34 268.84 354.19 270.43 351.05 272.02 347.94 273.58 344.76 275.2 341.64 276.76 338.5 278.35 335.35 279.97 332.24 281.53 329.06 283.12 325.95 284.75 322.91 286.4 321.7 287.2 323.22 288.13 326.06 289.45 328.89 290.79 331.69 292.11 334.52 293.42 337.36 294.77 340.19 296.12 343.03 297.43 345.83 298.75 348.66 300.06 351.5 301.41 354.33 302.75 357.17 304.07 359.97 305.38 362.84 306.73 365.64 308.04 367.61 308.91 369.4 309.25 370.55 309.36 373.69 309.43 375.45 309.32 376.87 309.15 378.84 308.6 381.16 307.84 382.26 307.49 383.37 307.15 384.44 306.87 385.51 306.59 386.58 306.35 387.62 306.11 388.63 305.9 389.66 305.73 390.66 305.59 391.67 305.52 392.67 305.42 393.67 305.38 394.67 305.38 395.68 305.42 396.68 305.45 397.68 305.56 398.68 305.73 399.69 305.9 400.72 306.14 401.76 306.42 402.83 306.73 403.9 307.08 404.94 307.46 406.08 307.94 407.19 308.43 408.33 308.98 409.47 309.6 410.58 310.33 411.51 311.16 412.24 312.09 413 313.16 413.44 313.92 413.83 314.47 414.17 315.1 414.45 315.68 414.69 316.34 414.9 316.96 415.04 317.65 415.14 318.31 415.21 318.97 415.21 319.66 415.21 320.35 415.14 321.08 415.04 321.73 414.9 322.46 414.72 323.15 414.52 323.84 414.24 324.53 413.96 325.19 413.65 325.85 413.31 326.5 412.93 327.16 412.51 327.78 412.1 328.37 411.61 328.96 411.13 329.55 410.61 330.06 410.09 330.58 409.37 331.07 408.09 331.86 406.67 332.66 405.18 333.45 403.77 334.28 402.31 335.08 400.86 335.87 399.41 336.67 397.96 337.5 397.68 338.85 397.37 340.19 397.09 341.51 396.78 342.79 396.44 344.03 396.13 345.21 395.78 346.38 395.37 347.49 394.99 348.56 394.57 349.6 394.12 350.6 393.64 351.53 393.08 352.43 392.57 353.26 391.98 354.06 391.36 354.78 390.7 355.47 389.97 356.1 389.21 356.68 388.42 357.2 387.55 357.65 386.65 358.03 385.69 358.38 384.68 358.65 383.58 358.89 382.44 359 381.23 359.1 379.95 359.1 378.6 359.07 377.22 358.93 375.7 358.72 374.28 358.38 373 357.82 371.93 357.24 370.96 356.65 370.06 356.1 369.2 355.54 368.44 354.95 367.71 354.44 367.09 353.85 366.5 353.3 365.98 352.74 365.5 352.19 365.05 351.64 364.63 351.05 364.29 350.46 363.94 349.87 363.63 349.25 363.36 348.63 363.08 348.01 362.84 347.35 362.59 346.66 362.11 345.21 361.63 343.62 361.14 341.92 360.56 340.12 360.21 339.12 359.83 338.12 359.45 337.05 358.07 334.8 357.37 333.94 356.99 333.45 356.61 332.93 356.2 332.42 355.65 331.79 352.92 329.96 349.98 328.54 347 327.13 344.06 325.71 341.09 324.33 338.12 322.91 335.18 321.49 332.24 320.07 329.27 318.66 326.3 317.27 323.36 315.86 320.38 314.47 317.45 313.06 314.47 311.64 311.54 310.22 308.6 308.81 307.25 308.15 305.97 309.08 304.24 310.15 302.51 311.19 300.79 312.16 299.06 313.13 297.36 314.02 295.63 314.92 293.91 315.75 292.14 316.58 290.41 317.38 288.65 318.17 286.89 318.93 285.09 319.69 283.29 320.42 281.46 321.11 279.7 321.7 277.66 322.18 275.55 322.43 273.2 322.22 272.06 322.05 270.88 321.84 269.74 321.6 268.57 321.35 267.39 321.08 266.25 320.73 265.07 320.42 263.87 320.04 262.72 319.66 261.55 319.21 260.41 318.8 259.23 318.35 258.09 317.86 256.95 317.38 255.81 316.89 254.7 316.38 253.6 315.86 252.49 315.37 251.39 314.82 250.31 314.3 248.24 313.19 246.2 312.12 244.26 311.02 242.4 309.95 241.5 309.46 240.67 309.95 237.84 311.29 235.03 312.61 232.2 313.96 229.4 315.3 226.56 316.62 223.76 317.97 220.93 319.31 218.13 320.66 215.3 321.98 212.5 323.32 209.66 324.67 206.86 326.02 204.06 327.37 201.23 328.68 198.43 330.03 196.49 331 195.25 331.97 194.21 333.38 193.66 334.49 193.31 335.08 192.96 335.7 192.62 336.32 192.31 336.91 192 337.53 191.69 338.19 191.41 338.85 190.79 340.19 190.23 341.54 189.96 342.75 189.75 343.82 189.51 344.83 189.23 345.76 188.92 346.69 188.61 347.56 188.3 348.39 187.95 349.15 187.54 349.91 187.16 350.63 186.74 351.29 186.26 351.95 185.81 352.54 185.29 353.12 184.77 353.68 184.22 354.19 183.63 354.68 183.01 355.16 182.39 355.61 181.69 356.03 181 356.44 180.28 356.82 179.52 357.2 178.72 357.51 177.86 357.86 177.03 358.17 176.13 358.48 175.2 358.79 174.23 359.07 172.84 359.52 171.5 359.73 170.15 359.66 170.15 359.66"/><polygon class="cls-1" points="168.84 350.94 167.07 349.84 166.69 349.56 166.38 349.32 166.03 349.04 165.76 348.77 165.48 348.49 165.21 348.18 164.93 347.83 164.69 347.49 164.44 347.11 164.2 346.66 163.96 346.21 163.65 344.62 163.34 342.99 163.06 341.37 162.75 339.78 162.44 338.15 162.13 336.56 161.85 334.97 161.54 333.35 161.23 331.76 160.92 330.17 160.64 328.54 160.37 326.95 160.02 325.36 159.74 323.74 159.43 322.15 159.02 320.77 158.26 320.07 157.88 319.87 157.5 319.73 157.15 319.59 156.77 319.52 156.43 319.45 156.11 319.38 155.77 319.38 155.42 319.35 155.08 319.35 154.59 319.31 153.59 319.35 152.73 319.76 152.38 320.14 152.1 320.52 151.83 320.87 151.62 321.25 151.45 321.6 151.27 321.98 151.17 322.36 151.07 322.74 151 323.15 150.96 323.57 150.96 324.05 150.96 324.53 151 325.09 151.03 325.64 151.14 326.26 150.06 325.68 149.1 325.09 148.27 324.5 147.51 323.98 146.81 323.43 146.23 322.91 145.71 322.43 145.33 321.91 144.98 321.46 144.71 320.97 144.53 320.52 144.43 320.07 144.43 319.69 144.46 319.25 144.6 318.86 144.78 318.48 145.02 318.07 145.36 317.72 145.74 317.38 146.19 317 146.71 316.65 147.26 316.34 147.89 316 148.54 315.68 149.3 315.37 150.06 315.1 150.89 314.79 151.79 314.47 152.69 314.2 153.66 313.92 155.11 313.51 156.81 313.4 157.88 313.44 158.91 313.54 159.95 313.68 160.95 313.82 161.92 313.99 162.89 314.16 163.82 314.37 164.76 314.61 165.66 314.82 166.55 315.1 167.45 315.34 169.22 315.86 171.01 316.34 171.88 316.58 172.78 316.79 173.68 317 174.57 317.17 175.51 317.34 176.44 317.45 177.41 317.58 178.38 317.65 179.38 317.72 180.38 317.72 181.42 317.69 182.49 317.58 183.6 317.48 184.7 317.31 185.88 317.1 187.05 316.79 189.75 315.58 192.41 314.34 195.07 313.13 197.74 311.88 200.4 310.67 203.09 309.43 205.75 308.22 208.42 306.97 211.08 305.76 213.78 304.52 216.44 303.31 219.1 302.06 221.79 300.85 224.46 299.61 227.15 298.37 229.81 297.15 230.26 297.99 230.75 298.78 231.2 299.61 231.68 300.44 232.13 301.23 232.62 302.06 233.06 302.89 233.55 303.72 232.37 304.62 231.09 305.49 229.81 306.32 228.54 307.11 227.19 307.91 225.81 308.63 224.42 309.36 223 310.05 221.55 310.71 220.1 311.36 218.61 311.99 217.16 312.61 214.16 313.85 211.15 315.06 209.63 315.68 208.1 316.31 206.58 316.93 205.1 317.58 203.61 318.24 202.13 318.93 200.67 319.59 199.22 320.32 197.77 321.08 196.35 321.87 194.97 322.67 193.62 323.53 192.27 324.43 190.96 325.36 189.68 326.33 188.75 327.13 188.02 327.99 187.61 328.61 187.19 329.2 186.84 329.82 186.47 330.41 186.12 331 185.81 331.62 185.46 332.21 185.19 332.8 184.88 333.38 184.6 333.97 184.32 334.52 183.84 335.7 183.35 336.88 182.94 338.08 182.52 339.3 182.14 340.5 181.76 341.82 181.38 343.1 181 344.48 180.62 345.86 180.17 346.8 179.52 347.59 178.69 348.14 178.06 348.59 177.41 349.04 176.68 349.53 176.3 349.77 175.92 350.01 175.51 350.22 175.09 350.46 174.4 350.67 172.88 350.91 171.67 351.05 170.01 351.19 168.84 350.94 168.84 350.94"/><polygon class="cls-1" points="376.98 350.46 376.21 350.01 375.49 349.53 374.83 349.08 374.21 348.59 373.62 348.07 373.07 347.56 372.58 347.04 372.13 346.49 371.75 345.97 371.34 345.38 371 344.79 370.68 344.2 370.37 343.62 370.1 342.99 369.82 342.37 369.54 341.71 369.3 341.09 369.06 340.4 368.61 339.05 368.16 337.6 367.68 336.15 367.16 334.59 366.88 333.83 366.57 333.04 366.22 332.21 364.32 329.58 363.46 328.61 362.56 327.68 362.11 327.2 361.69 326.75 361 326.02 360.52 325.5 360.14 325.12 359.79 324.81 359.41 324.5 358.89 324.12 358.17 323.63 357.17 322.98 354.33 321.6 351.5 320.21 348.63 318.83 345.79 317.45 342.92 316.06 340.09 314.68 337.25 313.3 334.42 311.92 331.55 310.53 328.72 309.15 325.88 307.77 323.05 306.38 320.21 305 317.34 303.62 314.54 302.24 315.37 300.82 316.03 299.75 316.58 298.88 317.03 298.19 317.48 297.61 317.93 297.02 318.52 296.36 319.21 295.56 322.05 296.88 324.88 298.19 327.68 299.54 330.55 300.85 333.35 302.17 336.18 303.52 339.02 304.83 341.85 306.18 344.69 307.49 347.49 308.81 350.32 310.15 353.16 311.5 355.99 312.81 358.83 314.13 361.66 315.48 364.05 316.48 365.98 317.14 367.43 317.41 368.85 317.55 370.23 317.65 371.55 317.69 372.86 317.65 374.14 317.55 375.42 317.38 376.63 317.2 377.84 316.96 379.05 316.72 380.22 316.44 382.57 315.86 384.89 315.27 386.07 314.99 387.24 314.75 388.42 314.51 389.63 314.3 390.84 314.16 392.05 314.02 393.29 313.99 394.57 313.99 395.88 314.06 397.23 314.2 398.62 314.44 400 314.79 401.48 315.2 402.97 315.72 404.53 316.34 405.67 317.1 406.08 318.04 406.43 319.28 406.5 319.73 406.53 320.14 406.57 320.52 406.57 320.87 406.57 321.21 406.53 321.53 406.46 321.8 406.43 322.05 406.32 322.32 406.25 322.53 406.12 322.77 405.98 322.98 405.84 323.15 405.63 323.36 405.46 323.53 405.22 323.7 404.94 323.88 404.67 324.05 404.39 324.22 404.04 324.43 402.45 325.23 400.38 326.26 400.27 325.05 400.17 323.98 400.07 323.05 399.96 322.22 399.89 321.87 399.82 321.56 399.76 321.25 399.65 320.97 399.55 320.73 399.44 320.49 399.31 320.32 399.13 320.11 399 319.97 398.82 319.83 398.58 319.69 398.37 319.59 398.13 319.52 397.86 319.45 397.54 319.42 397.23 319.38 396.89 319.35 396.51 319.31 396.09 319.31 395.68 319.31 394.67 319.35 393.53 319.42 392.67 319.56 392.43 320.52 391.67 324.53 391.01 328.06 390.42 331.14 389.9 333.76 389.49 336.05 389.11 337.98 388.8 339.61 388.52 340.99 388.28 342.16 388.07 343.13 387.86 343.96 387.69 344.65 387.55 345.34 387.38 345.97 387.21 346.62 387 347.35 386.76 347.66 386.52 347.97 386.27 348.25 386.07 348.49 385.82 348.73 385.62 348.97 385.38 349.18 385.17 349.35 384.93 349.53 384.72 349.7 384.48 349.84 384.27 349.98 384.06 350.12 383.82 350.22 383.58 350.32 383.34 350.43 382.89 350.56 382.44 350.81 381.68 350.94 380.47 351.08 378.84 350.98 376.98 350.46 376.98 350.46"/><polygon class="cls-1" points="269.81 312.92 266.08 311.61 264.28 310.98 262.55 310.36 260.89 309.77 259.23 309.15 257.68 308.49 256.12 307.87 254.63 307.21 253.22 306.52 251.8 305.83 250.45 305.11 249.14 304.35 247.86 303.55 246.65 302.69 245.44 301.82 244.26 300.89 243.16 299.89 242.05 298.85 241.01 297.74 239.98 296.53 238.94 295.29 237.97 294.01 237.04 292.59 236.11 291.11 235.21 289.55 234.31 287.89 233.48 286.13 232.62 284.3 231.82 282.32 231.82 281.08 231.78 279.84 231.78 278.59 231.75 277.35 231.75 276.07 231.72 274.82 231.72 273.58 231.68 272.33 231.68 271.09 231.65 269.85 231.65 268.6 231.61 267.36 231.61 266.11 231.61 264.87 231.58 263.62 231.54 262.38 233.48 263.42 235.14 264.31 235.83 264.73 236.52 265.11 237.14 265.45 237.7 265.84 238.25 266.18 238.7 266.53 239.11 266.87 239.49 267.22 239.84 267.56 240.15 267.91 240.39 268.29 240.63 268.67 240.84 269.08 241.01 269.53 241.15 269.98 241.26 270.47 241.33 270.99 241.4 271.54 241.46 272.16 241.5 272.78 241.53 274.24 241.53 275.89 241.53 277.83 241.53 280.04 242.19 281.08 242.88 282.05 243.64 283.05 244.44 283.98 245.23 284.88 246.13 285.75 247.03 286.61 247.96 287.41 248.93 288.17 249.97 288.93 251.01 289.62 252.08 290.31 253.15 290.93 254.29 291.56 255.43 292.11 256.57 292.66 257.78 293.14 258.99 293.66 260.17 294.08 261.44 294.49 262.65 294.87 263.93 295.22 265.18 295.53 266.46 295.81 267.7 296.05 269.02 296.26 270.26 296.46 271.54 296.53 272.82 296.64 274.1 296.74 275.38 296.84 276.31 296.77 277.24 296.71 277.69 296.64 278.18 296.6 278.69 296.53 279.25 296.39 280.18 296.22 281.05 296.01 281.88 295.84 282.67 295.63 283.43 295.46 284.19 295.22 284.88 294.94 285.61 294.63 288.58 293.46 289.65 293.11 290.69 292.73 291.73 292.35 292.73 291.97 293.77 291.52 294.74 291.07 295.7 290.62 296.67 290.1 297.57 289.58 298.47 289 299.37 288.41 300.23 287.75 301.03 287.1 301.86 286.37 302.62 285.61 303.34 284.81 304.07 283.98 304.73 283.05 305.38 282.12 305.97 281.08 306.56 280.04 306.52 278.07 306.52 276.35 306.45 274.82 306.45 273.48 306.45 272.89 306.49 272.3 306.52 271.78 306.59 271.26 306.66 270.81 306.76 270.36 306.87 269.92 307.04 269.53 307.21 269.12 307.39 268.74 307.66 268.36 307.94 268.01 308.25 267.67 308.6 267.29 309.01 266.94 309.46 266.56 309.95 266.18 310.5 265.8 311.09 265.42 311.74 264.97 313.23 264.07 314.96 263.07 314.96 264.38 314.99 265.7 314.99 267.01 314.99 268.32 314.99 269.6 314.99 270.92 315.03 272.23 315.03 273.54 315.03 274.86 315.03 276.17 315.06 277.45 315.06 278.8 315.06 280.11 315.06 281.39 315.06 282.7 315.1 284.02 314.37 285.61 313.57 287.17 312.75 288.65 311.92 290.14 310.98 291.56 310.05 292.9 309.05 294.22 308.01 295.53 306.97 296.74 305.87 297.95 304.73 299.09 303.55 300.2 302.31 301.27 301.06 302.31 299.82 303.27 298.47 304.24 297.15 305.14 295.77 306 294.36 306.83 292.94 307.63 291.45 308.39 289.96 309.08 288.44 309.77 286.92 310.43 285.47 311.12 284.64 311.54 283.81 311.92 282.95 312.23 282.08 312.54 281.32 312.85 280.53 313.13 279.73 313.4 278.9 313.68 278.11 313.89 277.24 314.06 276.83 314.13 276.41 314.2 275.96 314.2 275.55 314.23 274.75 314.2 274.03 314.09 273.3 313.99 272.61 313.82 271.92 313.61 271.23 313.4 270.5 313.16 269.81 312.92 269.81 312.92"/><polygon class="cls-1" points="270.71 288.2 265.97 286.85 264.28 286.33 262.55 285.82 261.69 285.5 260.82 285.23 259.96 284.88 259.13 284.57 258.3 284.23 257.5 283.88 256.71 283.5 255.91 283.12 255.19 282.7 254.46 282.29 253.77 281.84 253.11 281.39 252.49 280.91 251.94 280.39 251.39 279.87 250.9 279.35 250.49 278.76 250.11 278.18 249.8 277.56 249.52 276.9 249.52 275.79 249.52 274.69 249.52 273.58 249.52 272.47 249.52 271.37 249.52 270.3 249.52 269.15 249.52 268.05 249.31 267.53 249.03 267.01 248.79 266.49 248.55 265.97 248 265.01 247.44 264.07 246.93 263.24 246.48 262.48 246.27 262.14 246.1 261.79 245.96 261.48 245.82 261.2 243.99 260.06 242.19 258.96 240.36 257.85 238.56 256.74 236.73 255.6 234.9 254.46 233.06 253.36 231.27 252.22 229.43 251.11 227.64 250 225.81 248.86 223.97 247.72 222.18 246.62 220.38 245.51 218.54 244.37 216.71 243.26 216.09 242.54 215.47 241.84 214.91 241.08 214.4 240.32 213.91 239.53 213.5 238.7 213.12 237.87 212.77 237.04 212.46 236.14 212.22 235.28 211.98 234.38 211.77 233.44 211.63 232.55 211.49 231.61 211.35 230.68 211.29 229.75 211.25 228.78 211.22 227.84 211.22 226.91 211.22 225.94 211.25 224.97 211.32 224.04 211.39 223.11 211.46 222.18 211.56 221.24 211.67 220.31 211.77 219.38 211.91 218.48 212.15 216.75 212.43 215.02 213.01 213.53 213.39 212.36 213.71 211.46 213.91 210.77 213.98 210.49 214.02 210.21 214.09 209.94 214.09 209.7 214.12 209.11 214.12 208.45 213.71 206.62 213.22 204.41 212.63 201.92 212.08 199.22 211.8 197.77 211.53 196.32 211.25 194.8 211.04 193.28 210.84 191.75 210.66 190.2 210.53 188.64 210.46 187.12 210.42 185.6 210.42 184.12 210.49 182.63 210.59 181.18 210.84 179.79 211.08 178.44 211.46 177.17 211.87 175.92 212.39 174.78 213.01 173.71 213.74 172.74 214.57 171.84 215.5 171.08 216.57 170.39 217.75 169.84 219.03 169.39 219.2 168.73 219.34 168.18 219.44 167.69 219.48 167.21 219.51 166.62 219.55 165.97 219.55 165.07 219.55 163.93 218.68 163.24 217.99 162.68 217.68 162.47 217.44 162.3 217.2 162.13 216.96 162.03 216.71 161.92 216.44 161.89 216.16 161.85 215.85 161.85 215.09 161.85 214.12 161.92 213.05 162.89 212.05 163.79 211.08 164.65 210.21 165.55 209.38 166.38 208.59 167.21 207.86 168.04 207.21 168.84 206.58 169.66 206 170.46 205.48 171.25 204.99 172.05 204.54 172.84 204.13 173.68 203.78 174.5 203.47 175.3 203.16 176.16 202.88 177.03 202.68 177.89 202.47 178.79 202.3 179.72 202.13 180.66 201.99 181.66 201.92 182.66 201.81 183.7 201.75 184.81 201.68 185.91 201.64 187.09 201.61 189.54 201.61 192.2 200.81 190.65 200.09 189.2 199.36 187.74 198.7 186.36 198.39 185.71 198.08 185.01 197.8 184.36 197.53 183.7 197.28 183.04 197.04 182.35 196.87 181.69 196.66 181.04 196.53 180.38 196.39 179.72 196.25 179.07 196.18 178.38 196.11 177.69 196.07 176.99 196.07 176.3 196.11 175.61 196.18 174.88 196.28 174.16 196.42 173.4 196.56 172.64 196.77 171.84 197.01 171.05 197.28 170.22 197.6 169.39 197.91 169.08 198.22 168.73 198.6 168.32 199.08 167.8 199.77 167.11 200.6 166.28 201.78 165.14 203.23 163.72 205.03 161.96 207.28 159.81 210.01 157.22 213.22 154.18 217.02 150.62 221.45 146.47 226.56 141.7 232.37 136.27 233.86 135.34 235.35 134.44 236.83 133.54 238.32 132.71 239.84 131.91 241.33 131.12 242.85 130.36 244.33 129.67 245.85 128.98 247.38 128.32 248.9 127.73 250.42 127.14 251.94 126.59 253.49 126.07 255.05 125.62 256.61 125.17 258.2 124.79 259.79 124.41 261.38 124.07 263 123.79 264.63 123.55 266.25 123.31 267.91 123.14 269.57 123.03 271.23 122.93 272.96 122.89 274.65 122.86 276.38 122.89 278.14 122.96 279.9 123.07 281.67 123.24 283.47 123.41 284.68 123.72 285.89 124 287.1 124.28 288.31 124.55 289.51 124.83 290.73 125.14 291.94 125.42 293.14 125.73 295.19 126.59 297.22 127.53 299.19 128.46 301.13 129.46 303 130.5 304.86 131.57 306.7 132.68 308.46 133.82 310.22 134.96 311.95 136.17 313.68 137.41 315.37 138.66 317.03 139.94 318.69 141.25 320.32 142.56 321.94 143.91 323.57 145.29 325.16 146.68 326.75 148.09 328.37 149.54 331.55 152.45 334.73 155.39 337.98 158.36 341.26 161.4 342.92 162.92 344.62 164.44 346.31 165.97 348.04 167.49 348.46 168.25 348.84 168.97 349.18 169.7 349.49 170.36 349.77 171.05 350.01 171.74 350.22 172.36 350.43 173.02 350.56 173.68 350.7 174.3 350.77 174.88 350.88 175.51 350.91 176.13 350.91 176.68 350.91 177.3 350.88 177.89 350.81 178.51 350.74 179.1 350.6 179.72 350.46 180.31 350.32 180.93 350.15 181.56 349.94 182.18 349.74 182.84 349.49 183.46 349.22 184.15 348.94 184.81 348.66 185.53 348.01 186.95 347.31 188.47 347.07 186.74 346.83 184.94 346.69 184.04 346.52 183.15 346.38 182.21 346.21 181.35 346 180.45 345.79 179.52 345.59 178.65 345.34 177.75 345.1 176.89 344.83 175.99 344.55 175.13 344.24 174.3 343.89 173.43 343.55 172.64 343.17 171.81 342.75 171.01 342.3 170.25 341.85 169.49 341.33 168.77 340.82 168.04 340.26 167.38 339.68 166.69 339.05 166.07 338.4 165.48 337.7 164.89 336.98 164.34 336.22 163.86 335.39 163.37 335.11 163.41 334.83 163.51 334.59 163.58 334.32 163.68 334.07 163.75 333.8 163.89 333.56 164 333.31 164.13 333.07 164.31 332.87 164.44 332.62 164.62 332.42 164.79 332.21 164.96 332 165.14 331.83 165.34 331.62 165.55 331.45 165.76 331.27 166 331.14 166.21 330.96 166.45 330.82 166.66 330.69 166.9 330.55 167.14 330.44 167.38 330.34 167.63 330.24 167.87 330.13 168.14 330.1 168.39 330.03 168.63 329.96 168.9 329.93 169.15 329.93 169.39 331.03 170.56 332.1 171.74 333.04 172.84 333.87 173.99 334.63 175.09 335.29 176.2 335.91 177.27 336.39 178.38 336.84 179.45 337.19 180.52 337.5 181.59 337.7 182.7 337.91 183.77 337.98 184.88 338.05 185.98 338.05 187.12 338.02 188.23 337.95 189.4 337.81 190.58 337.63 191.75 337.43 192.96 337.19 194.17 336.94 195.45 336.63 196.77 336.01 199.43 335.35 202.26 334.97 203.75 334.63 205.27 334.28 206.83 333.9 208.45 334.52 210.84 335.15 213.22 335.39 214.43 335.67 215.57 335.91 216.75 336.11 217.85 336.32 219 336.5 220.13 336.63 221.24 336.77 222.35 336.88 223.45 336.94 224.56 336.98 225.67 336.98 226.74 336.91 227.81 336.84 228.92 336.74 229.95 336.56 231.03 336.36 232.06 336.08 233.13 335.8 234.21 335.46 235.24 335.04 236.28 334.56 237.35 334.04 238.35 333.45 239.43 332.83 240.46 332.14 241.5 331.34 242.5 330.55 243.57 328.75 244.68 326.99 245.82 325.19 246.93 323.39 248.03 321.63 249.17 319.87 250.31 318.07 251.42 316.31 252.56 314.54 253.7 312.75 254.81 310.98 255.95 309.22 257.09 307.46 258.2 305.66 259.34 303.9 260.48 302.13 261.58 301.44 262.76 300.82 263.76 300.54 264.28 300.3 264.73 300.09 265.18 299.89 265.59 299.68 266.04 299.54 266.46 299.37 266.84 299.23 267.22 299.13 267.6 299.02 268.01 298.92 268.39 298.85 268.77 298.78 269.15 298.71 269.57 298.68 269.98 298.64 270.4 298.57 271.26 298.57 272.2 298.54 273.2 298.57 274.31 298.57 275.55 298.57 276.9 298.12 277.66 297.64 278.38 297.09 279.08 296.53 279.73 295.91 280.36 295.22 280.98 294.53 281.53 293.77 282.08 293.01 282.6 292.18 283.09 291.35 283.54 290.45 283.98 289.58 284.37 288.69 284.78 287.75 285.13 286.82 285.47 285.85 285.78 284.71 286.16 283.57 286.61 282.98 286.82 282.39 286.99 281.84 287.17 281.25 287.34 280.56 287.51 279.9 287.72 279.25 287.89 278.56 288.06 277.87 288.24 277.14 288.38 276.38 288.48 275.58 288.55 274.82 288.58 274.13 288.58 273.51 288.55 272.92 288.48 271.85 288.31 270.71 288.2 270.71 288.2"/><polygon class="cls-1" points="323.98 276.62 323.98 275.1 323.98 273.61 323.98 272.13 323.98 270.61 323.98 269.12 323.98 267.63 323.98 266.15 323.98 264.63 326.71 263.38 329.51 262.17 332.31 260.96 335.18 259.72 338.02 258.51 340.88 257.26 343.75 256.02 346.62 254.74 349.46 253.43 352.29 252.11 353.71 251.46 355.09 250.76 356.48 250.07 357.86 249.35 359.24 248.66 360.59 247.89 361.94 247.17 363.29 246.41 364.6 245.65 365.91 244.89 367.19 244.06 368.3 243.26 368.99 242.67 369.58 241.98 370.23 241.15 371 240.22 372.62 238.15 374.52 235.83 375.52 234.62 376.6 233.41 377.67 232.16 378.77 230.92 379.91 229.71 381.05 228.54 382.19 227.43 383.34 226.39 384.51 225.39 385.65 224.53 386.79 223.73 387.9 223.07 389 222.52 390.08 222.14 391.08 221.93 392.08 221.86 393.01 222 393.91 222.35 394.74 222.9 395.5 223.66 396.19 224.66 396.82 225.94 397.37 227.46 397.82 229.3 397.82 231.99 397.82 234.38 397.82 236.45 397.86 238.22 397.86 239.74 397.86 241.05 397.86 242.12 397.92 243.06 397.92 243.81 397.96 244.44 397.99 244.96 398.06 245.41 398.13 245.79 398.2 246.17 398.3 246.55 398.41 246.93 398.75 247.31 399.06 247.65 399.44 247.89 399.76 248.14 400.1 248.34 400.41 248.48 400.72 248.59 401.04 248.66 401.35 248.72 401.62 248.72 401.93 248.69 402.21 248.66 402.52 248.59 402.76 248.45 403.04 248.31 403.32 248.17 403.56 248 403.8 247.76 404.01 247.55 404.25 247.31 404.49 247.06 404.7 246.79 404.91 246.48 405.11 246.2 405.29 245.89 405.49 245.58 405.63 245.23 405.81 244.92 406.12 244.23 406.39 243.57 406.39 244.37 406.43 245.2 406.43 245.96 406.5 246.68 406.6 248.1 406.74 249.41 406.84 250.63 406.88 251.7 406.88 252.22 406.88 252.7 406.84 253.15 406.77 253.6 406.67 253.98 406.53 254.36 406.39 254.74 406.19 255.05 405.94 255.36 405.67 255.6 405.36 255.88 404.94 256.09 404.53 256.3 404.08 256.47 403.52 256.61 402.9 256.71 402.25 256.81 401.52 256.88 400.55 256.81 399.27 256.57 397.61 255.91 395.54 255.05 394.57 254.6 393.6 254.22 392.67 253.84 391.77 253.46 390.87 253.15 389.97 252.84 389.14 252.56 388.28 252.32 387.45 252.08 386.62 251.87 385.79 251.7 384.96 251.56 384.13 251.42 383.3 251.35 382.44 251.28 381.61 251.25 380.74 251.25 379.84 251.28 378.98 251.35 378.01 251.42 377.08 251.56 376.11 251.73 375.14 251.94 374.11 252.18 373.03 252.46 371.93 252.77 370.79 253.11 369.61 253.49 366.74 254.95 363.91 256.36 361.04 257.82 358.17 259.27 355.33 260.69 352.47 262.14 349.63 263.59 346.76 265.04 343.93 266.49 341.06 267.91 338.22 269.36 335.35 270.81 332.52 272.26 329.69 273.72 326.81 275.13 323.98 276.62 323.98 276.62"/><polygon class="cls-1" points="222.45 274.34 219.93 273.06 217.37 271.75 214.85 270.43 212.32 269.12 209.8 267.81 207.24 266.49 204.72 265.21 202.16 263.9 199.67 262.59 197.15 261.31 194.59 259.99 192.06 258.68 189.54 257.4 187.02 256.09 184.46 254.77 181.94 253.49 180.62 253.08 179.38 252.7 178.17 252.39 177.06 252.08 175.96 251.87 174.92 251.66 173.95 251.49 172.98 251.39 172.05 251.28 171.19 251.25 170.32 251.25 169.46 251.25 168.63 251.32 167.83 251.39 167.07 251.52 166.28 251.66 165.52 251.84 164.72 252.04 163.96 252.25 163.17 252.49 162.37 252.77 161.54 253.08 160.71 253.39 159.85 253.7 158.08 254.43 156.11 255.22 154 256.05 151.72 256.92 150.86 256.92 150.06 256.88 149.34 256.81 148.72 256.78 148.09 256.68 147.57 256.57 147.09 256.47 146.68 256.3 146.3 256.16 145.99 255.95 145.71 255.74 145.47 255.5 145.29 255.26 145.12 254.95 144.98 254.67 144.88 254.32 144.84 253.98 144.78 253.6 144.78 253.22 144.78 252.77 144.84 251.84 144.95 250.8 145.09 249.66 145.19 248.38 145.26 247.72 145.33 247 145.36 246.27 145.4 245.51 145.81 246.06 146.23 246.58 146.43 246.82 146.61 247.03 146.85 247.24 147.02 247.41 147.23 247.58 147.44 247.76 147.64 247.89 147.85 248 148.06 248.14 148.27 248.21 148.47 248.31 148.72 248.34 148.92 248.38 149.16 248.45 149.37 248.45 149.62 248.45 149.86 248.41 150.1 248.38 150.38 248.34 150.62 248.28 150.89 248.17 151.17 248.07 151.45 247.96 151.76 247.82 152.03 247.65 152.35 247.48 152.86 246.96 153.21 246.34 153.42 245.58 153.56 244.85 153.69 244.09 153.8 243.33 153.87 242.54 153.9 241.81 153.94 241.01 153.94 240.22 153.9 239.46 153.87 238.66 153.83 237.9 153.76 236.31 153.66 234.76 153.66 233.96 153.63 233.2 153.63 232.41 153.63 231.65 153.63 230.89 153.69 230.13 153.76 229.37 153.87 228.6 154 227.84 154.14 227.08 154.38 226.36 154.63 225.63 154.9 224.94 155.25 224.22 155.66 223.52 156.11 222.83 156.7 222.56 157.25 222.31 157.81 222.18 158.4 222.04 158.95 222 159.5 222 160.02 222.04 160.57 222.11 161.13 222.21 161.65 222.38 162.16 222.59 162.72 222.8 163.24 223.07 163.75 223.35 164.27 223.66 164.76 223.97 165.79 224.63 166.79 225.39 167.8 226.12 168.8 226.84 169.28 227.22 169.8 227.57 170.29 227.91 170.77 228.22 173.47 230.92 174.75 232.82 175.78 234.48 176.92 236.04 178.1 237.56 179.31 238.97 180.59 240.32 181.9 241.6 183.25 242.85 184.7 244.02 186.15 245.13 187.64 246.2 189.16 247.24 190.75 248.21 192.34 249.14 193.97 250.04 195.66 250.94 197.32 251.77 199.05 252.6 200.78 253.39 202.54 254.19 204.3 254.95 206.1 255.71 207.93 256.47 211.56 257.99 215.23 259.51 217.06 260.31 218.89 261.1 220.76 261.93 222.59 262.76 222.56 264.21 222.56 265.66 222.56 267.12 222.52 268.57 222.52 270.02 222.49 271.44 222.45 272.92 222.45 274.34 222.45 274.34"/><polygon class="cls-3" points="275.55 241.29 276.35 241.33 277.11 241.43 277.8 241.64 278.45 241.88 279.08 242.19 279.66 242.6 280.22 243.02 280.77 243.54 281.25 244.09 281.74 244.71 282.19 245.37 282.6 246.06 283.02 246.79 283.4 247.58 283.81 248.38 284.16 249.24 285.64 252.87 287.17 256.81 287.58 257.78 287.99 258.78 288.44 259.79 288.93 260.79 289.41 261.76 289.93 262.72 290.52 263.69 291.11 264.63 291.38 265.11 291.66 265.59 291.87 266.08 292 266.49 292.11 266.91 292.18 267.32 292.21 267.7 292.21 268.08 292.14 268.43 292.07 268.74 291.97 269.05 291.83 269.33 291.66 269.6 291.45 269.88 291.24 270.12 291 270.33 290.76 270.54 290.48 270.74 290.21 270.92 289.9 271.06 289.31 271.37 288.69 271.57 288.1 271.75 287.51 271.85 286.96 271.92 286.47 271.95 286.13 271.95 285.75 271.92 285.37 271.85 285.02 271.82 284.33 271.64 283.64 271.4 282.98 271.13 282.32 270.81 281.67 270.5 281.01 270.19 280.39 269.85 279.73 269.53 279.08 269.22 278.38 268.95 277.73 268.74 277 268.57 276.66 268.5 276.31 268.43 275.93 268.43 275.55 268.39 275.13 268.43 274.75 268.43 274.37 268.5 273.99 268.57 273.23 268.74 272.51 268.95 271.82 269.22 271.09 269.53 270.4 269.85 269.71 270.19 269.02 270.5 268.29 270.81 267.6 271.13 266.87 271.4 266.15 271.64 265.42 271.82 265.04 271.85 264.63 271.92 264.25 271.95 263.87 271.95 263.38 271.92 262.86 271.82 262.31 271.68 261.72 271.44 261.13 271.16 260.55 270.81 260.27 270.64 260.03 270.43 259.75 270.23 259.51 269.98 259.3 269.74 259.1 269.5 258.92 269.22 258.75 268.95 258.61 268.64 258.51 268.32 258.44 268.01 258.37 267.67 258.37 267.32 258.37 266.98 258.44 266.63 258.54 266.25 258.68 265.84 258.89 265.45 259.13 265.04 259.41 264.63 260.1 263.62 260.79 262.62 261.41 261.62 262 260.58 262.55 259.58 263.07 258.54 263.59 257.54 264.07 256.54 265.8 252.6 267.36 249 267.74 248.17 268.12 247.38 268.53 246.62 268.95 245.89 269.36 245.2 269.78 244.58 270.23 243.99 270.71 243.44 271.19 242.95 271.71 242.54 272.26 242.16 272.85 241.84 273.48 241.6 274.13 241.43 274.82 241.33 275.55 241.29 275.55 241.29"/><polygon class="cls-4" points="275.55 241.29 276.35 241.33 277.11 241.43 277.8 241.64 278.45 241.88 279.08 242.19 279.66 242.6 280.22 243.02 280.77 243.54 281.25 244.09 281.74 244.71 282.19 245.37 282.6 246.06 283.02 246.79 283.4 247.58 283.81 248.38 284.16 249.24 285.64 252.87 287.17 256.81 287.58 257.78 287.99 258.78 288.44 259.79 288.93 260.79 289.41 261.76 289.93 262.72 290.52 263.69 291.11 264.63 291.38 265.11 291.66 265.59 291.87 266.08 292 266.49 292.11 266.91 292.18 267.32 292.21 267.7 292.21 268.08 292.14 268.43 292.07 268.74 291.97 269.05 291.83 269.33 291.66 269.6 291.45 269.88 291.24 270.12 291 270.33 290.76 270.54 290.48 270.74 290.21 270.92 289.9 271.06 289.31 271.37 288.69 271.57 288.1 271.75 287.51 271.85 286.96 271.92 286.47 271.95 286.13 271.95 285.75 271.92 285.37 271.85 285.02 271.82 284.33 271.64 283.64 271.4 282.98 271.13 282.32 270.81 281.67 270.5 281.01 270.19 280.39 269.85 279.73 269.53 279.08 269.22 278.38 268.95 277.73 268.74 277 268.57 276.66 268.5 276.31 268.43 275.93 268.43 275.55 268.39 275.13 268.43 274.75 268.43 274.37 268.5 273.99 268.57 273.23 268.74 272.51 268.95 271.82 269.22 271.09 269.53 270.4 269.85 269.71 270.19 269.02 270.5 268.29 270.81 267.6 271.13 266.87 271.4 266.15 271.64 265.42 271.82 265.04 271.85 264.63 271.92 264.25 271.95 263.87 271.95 263.38 271.92 262.86 271.82 262.31 271.68 261.72 271.44 261.13 271.16 260.55 270.81 260.27 270.64 260.03 270.43 259.75 270.23 259.51 269.98 259.3 269.74 259.1 269.5 258.92 269.22 258.75 268.95 258.61 268.64 258.51 268.32 258.44 268.01 258.37 267.67 258.37 267.32 258.37 266.98 258.44 266.63 258.54 266.25 258.68 265.84 258.89 265.45 259.13 265.04 259.41 264.63 260.1 263.62 260.79 262.62 261.41 261.62 262 260.58 262.55 259.58 263.07 258.54 263.59 257.54 264.07 256.54 265.8 252.6 267.36 249 267.74 248.17 268.12 247.38 268.53 246.62 268.95 245.89 269.36 245.2 269.78 244.58 270.23 243.99 270.71 243.44 271.19 242.95 271.71 242.54 272.26 242.16 272.85 241.84 273.48 241.6 274.13 241.43 274.82 241.33 275.55 241.29 275.55 241.29"/><polygon class="cls-3" points="220.1 211.74 220.27 211.67 220.69 211.56 221.28 211.49 222 211.39 223.97 211.25 226.5 211.15 229.43 211.04 232.68 210.97 236.18 210.91 239.74 210.91 243.33 210.91 246.79 210.94 250.04 211.01 252.98 211.08 255.5 211.22 257.47 211.35 258.23 211.46 258.82 211.53 259.2 211.63 259.41 211.74 259.96 212.53 260.37 213.32 260.69 214.16 260.89 215.02 261 215.92 261 216.82 260.93 217.75 260.72 218.68 260.48 219.62 260.13 220.55 259.72 221.52 259.23 222.49 258.68 223.45 258.06 224.39 257.4 225.35 256.68 226.29 255.91 227.22 255.12 228.12 254.29 229.02 253.39 229.88 252.49 230.75 251.59 231.58 250.66 232.37 249.73 233.13 248.76 233.86 247.82 234.55 246.86 235.21 245.92 235.79 244.99 236.38 244.09 236.87 243.19 237.32 242.36 237.73 242.02 237.87 241.71 237.97 241.36 238.04 241.01 238.15 240.32 238.22 239.63 238.25 238.91 238.18 238.18 238.08 237.49 237.94 236.83 237.73 235.9 237.38 234.97 236.97 234 236.45 233.03 235.93 232.06 235.31 231.09 234.69 230.13 233.96 229.16 233.24 228.22 232.44 227.29 231.65 226.39 230.78 225.49 229.92 224.66 228.99 223.83 228.09 223.07 227.12 222.35 226.15 221.66 225.18 221.03 224.22 220.48 223.25 219.96 222.24 219.51 221.28 219.13 220.31 218.82 219.34 218.61 218.37 218.44 217.44 218.41 216.54 218.44 215.68 218.54 214.81 218.79 213.98 219.1 213.19 219.55 212.46 220.1 211.74 220.1 211.74"/><polygon class="cls-4" points="220.1 211.74 220.27 211.67 220.69 211.56 221.28 211.49 222 211.39 223.97 211.25 226.5 211.15 229.43 211.04 232.68 210.97 236.18 210.91 239.74 210.91 243.33 210.91 246.79 210.94 250.04 211.01 252.98 211.08 255.5 211.22 257.47 211.35 258.23 211.46 258.82 211.53 259.2 211.63 259.41 211.74 259.96 212.53 260.37 213.32 260.69 214.16 260.89 215.02 261 215.92 261 216.82 260.93 217.75 260.72 218.68 260.48 219.62 260.13 220.55 259.72 221.52 259.23 222.49 258.68 223.45 258.06 224.39 257.4 225.35 256.68 226.29 255.91 227.22 255.12 228.12 254.29 229.02 253.39 229.88 252.49 230.75 251.59 231.58 250.66 232.37 249.73 233.13 248.76 233.86 247.82 234.55 246.86 235.21 245.92 235.79 244.99 236.38 244.09 236.87 243.19 237.32 242.36 237.73 242.02 237.87 241.71 237.97 241.36 238.04 241.01 238.15 240.32 238.22 239.63 238.25 238.91 238.18 238.18 238.08 237.49 237.94 236.83 237.73 235.9 237.38 234.97 236.97 234 236.45 233.03 235.93 232.06 235.31 231.09 234.69 230.13 233.96 229.16 233.24 228.22 232.44 227.29 231.65 226.39 230.78 225.49 229.92 224.66 228.99 223.83 228.09 223.07 227.12 222.35 226.15 221.66 225.18 221.03 224.22 220.48 223.25 219.96 222.24 219.51 221.28 219.13 220.31 218.82 219.34 218.61 218.37 218.44 217.44 218.41 216.54 218.44 215.68 218.54 214.81 218.79 213.98 219.1 213.19 219.55 212.46 220.1 211.74 220.1 211.74"/><polygon class="cls-3" points="327.58 211.53 327.4 211.42 326.99 211.32 326.44 211.25 325.68 211.18 323.7 211.01 321.18 210.91 318.24 210.8 314.99 210.73 311.54 210.7 307.94 210.66 304.38 210.7 300.89 210.7 297.64 210.77 294.7 210.87 292.18 210.97 290.21 211.15 289.45 211.22 288.86 211.32 288.48 211.42 288.27 211.53 287.72 212.29 287.3 213.12 286.99 213.95 286.78 214.81 286.68 215.68 286.68 216.57 286.78 217.51 286.96 218.44 287.2 219.38 287.55 220.34 287.96 221.31 288.44 222.24 289 223.21 289.62 224.18 290.28 225.11 291 226.05 291.76 226.98 292.56 227.91 293.42 228.81 294.29 229.68 295.19 230.54 296.08 231.34 297.02 232.13 297.95 232.89 298.92 233.65 299.85 234.34 300.82 234.97 301.75 235.59 302.69 236.14 303.58 236.66 304.48 237.11 305.35 237.52 305.66 237.63 305.97 237.73 306.32 237.84 306.66 237.9 307.35 237.97 308.08 238.01 308.77 237.97 309.5 237.87 310.19 237.7 310.84 237.52 311.78 237.14 312.71 236.73 313.68 236.25 314.65 235.69 315.62 235.1 316.62 234.45 317.55 233.76 318.52 233 319.45 232.24 320.38 231.41 321.28 230.57 322.18 229.68 323.01 228.78 323.84 227.84 324.6 226.91 325.33 225.94 326.02 224.97 326.64 223.97 327.23 223 327.71 222.04 328.16 221.03 328.54 220.07 328.86 219.1 329.1 218.16 329.24 217.23 329.3 216.33 329.27 215.43 329.13 214.57 328.89 213.78 328.58 212.98 328.13 212.22 327.58 211.53 327.58 211.53"/><polygon class="cls-4" points="327.58 211.53 327.4 211.42 326.99 211.32 326.44 211.25 325.68 211.18 323.7 211.01 321.18 210.91 318.24 210.8 314.99 210.73 311.54 210.7 307.94 210.66 304.38 210.7 300.89 210.7 297.64 210.77 294.7 210.87 292.18 210.97 290.21 211.15 289.45 211.22 288.86 211.32 288.48 211.42 288.27 211.53 287.72 212.29 287.3 213.12 286.99 213.95 286.78 214.81 286.68 215.68 286.68 216.57 286.78 217.51 286.96 218.44 287.2 219.38 287.55 220.34 287.96 221.31 288.44 222.24 289 223.21 289.62 224.18 290.28 225.11 291 226.05 291.76 226.98 292.56 227.91 293.42 228.81 294.29 229.68 295.19 230.54 296.08 231.34 297.02 232.13 297.95 232.89 298.92 233.65 299.85 234.34 300.82 234.97 301.75 235.59 302.69 236.14 303.58 236.66 304.48 237.11 305.35 237.52 305.66 237.63 305.97 237.73 306.32 237.84 306.66 237.9 307.35 237.97 308.08 238.01 308.77 237.97 309.5 237.87 310.19 237.7 310.84 237.52 311.78 237.14 312.71 236.73 313.68 236.25 314.65 235.69 315.62 235.1 316.62 234.45 317.55 233.76 318.52 233 319.45 232.24 320.38 231.41 321.28 230.57 322.18 229.68 323.01 228.78 323.84 227.84 324.6 226.91 325.33 225.94 326.02 224.97 326.64 223.97 327.23 223 327.71 222.04 328.16 221.03 328.54 220.07 328.86 219.1 329.1 218.16 329.24 217.23 329.3 216.33 329.27 215.43 329.13 214.57 328.89 213.78 328.58 212.98 328.13 212.22 327.58 211.53 327.58 211.53"/></svg>