<svg id="Ebene_1" data-name="Ebene 1" xmlns="http://www.w3.org/2000/svg" viewBox="0 0 553.1 553.1"><defs><style>.cls-1{fill:#fff;}.cls-1,.cls-2,.cls-3{fill-rule:evenodd;}.cls-2{fill:#da251d;}.cls-4{fill:none;stroke:#000;stroke-linecap:square;stroke-miterlimit:10;stroke-width:0.21px;}</style></defs><polygon class="cls-1" points="0 276.55 276.55 0 553.1 276.55 276.55 553.1 0 276.55 0 276.55"/><path class="cls-2" d="M21,421.44,297.55,144.89,574.1,421.44,297.55,698,21,421.44Zm44.84,0L297.55,189.73,529.27,421.44,297.55,653.16,65.84,421.44Z" transform="translate(-21 -144.89)"/><path class="cls-3" d="M191.91,510.32v-.73l0-.2.07-.14,0-.18v-.48l0-.41,3-1.08L198,506l2.94-1.07,2.87-1.08,1.45-.48,1.45-.48,1.49-.49,1.45-.45,1.48-.45,1.49-.41,1.52-.38,1.52-.35,1.73-.34.87-.18.86-.13.86-.14.87-.14.86-.14.87-.14.86-.07.87-.1.86-.07.86,0,.87,0h1.73l.86,0,.87.07.86.06.86.14.87.14.83.17.86.21L279.09,481l-6.43-3.15.52-3.56,4.39-.38,1.76-.2,4.39-.7,2.22-.51,2.49-.83,1.17-.52,1.14-.52,1.18-.48,1.14-.52,1.14-.52,1.17-.52,1.18-.48,1.11-.66,1.1-.66,1.07-.65,1-.63,1-.65,1-.63,1-.65.93-.69.94-.7,1.17-.89,1.14-1,1.14-1,1.14-1,.94-.9,2.55-3.11,2-2.94,1.79-2.56,1.8-2.49,1.76-2.52,1.8-2.46.93-1.24.9-1.21.94-1.21.9-1.21.93-1.21.93-1.21,1-1.18,1-1.17.93-1.18,1-1.21,1-1.14,1-1.17,1-1.14,1-1.14,1-1.14,1.07-1.15,1.07-1.1,1.11-1.14,1.11-1.11,1.14-1.17,4.53-3.84.76-.55.76-.56.76-.52.72-.55.76-.52.76-.55.76-.52.73-.55,1.11-.66,1.07-.62,1.1-.62,1.08-.56,1.07-.58,1-.52,1.07-.56,1.07-.48,1-.48,1-.45,1.07-.45,1-.38,1.07-.38,1.07-.38,1.08-.31,1-.32,1.11-.31,1.07-.24,1.07-.24,1.11-.17,1.11-.18,1.1-.17,1.14-.1,1.14-.11,1.18-.07,1.17,0h1.18l1.21,0,1.21,0,1.24.07,1.25.14,1.31.13-.83,1.66-.83,1.66-.86,1.66-.9,1.63-.86,1.66-.83,1.66-.83,1.65-.76,1.7,2.93-.83,2.94-.83,2.94-.9,2.94-.9,2.94-.9,2.94-.9,2.93-.86,2.94-.83-.07,1.31-.14,1.32-.13,1.31-.18,1.28-.17,1.28-.24,1.28-.28,1.28-.27,1.24-.32,1.21-.34,1.25-.38,1.21-.38,1.21-.45,1.17-.45,1.18-.45,1.17-.52,1.18-.52,1.14-.55,1.14-.59,1.11-.59,1.1-.62,1.11-.65,1.1-.7,1.08-.69,1.07-.69,1.07-.76,1-.76,1-.76,1-.83,1-.79,1-.87,1-.86,1-1.28,1.38-1.32,1.35-1.34,1.31-1.39,1.28-1.41,1.28-1.46,1.24-1.48,1.25-1.49,1.17-1.52,1.18-1.56,1.14,19.92,15.11L393,472.92l-2.49,1.17L388,475.3l-2.48,1.18L383,477.69l-2.49,1.17L378,480.07l-2.52,1.18.1.07L403.47,484l-1,1.35-1,1.35-1,1.35-1,1.38-1,1.35-1,1.35-1,1.34-1,1.39h0l0,0,0,0,15.35.17-.07,15.38-219-.17Zm121.37-18.5-.76-.34-1.35-.62-1.8-.83-2.21-1L304.67,488l-2.73-1.24-2.83-1.25-2.91-1.31-2.9-1.28-2.77-1.24L288,480.49l-2.32-1-1.94-.87-1.48-.65-.94-.45-.34-.17,1.07-.18,1-.2,1.07-.25,1-.24,1.07-.24,1-.31,1-.31,1-.35,1-.34,1-.42,1-.38,1-.41,1-.45,1-.45,1-.49,1-.48,1-.52.94-.52,1-.55,1-.55.93-.56.94-.59.93-.58.93-.62.9-.63,1.11-.79,1.11-.8,1.07-.83,1.07-.83.86-.69,1.45-1.38.7-.8.65-.83.69-.79.66-.83.66-.8.65-.83.66-.82.62-.87,1.14-1.49,1.11-1.52,1.11-1.52,1.07-1.55,1.11-1.56,1.07-1.52,1.07-1.56,1.07-1.52,1.07-1.55,1.07-1.52L329.8,438l.87-1.08.86-1,.87-1.07.86-1,.87-1,.86-1,.86-1,.87-1,.9-1,.86-.93.9-1,.9-.93.9-.94.9-.9.93-.89.93-.9.94-.9,1-.87.94-.86,1-.83,1-.83,1-.83,1-.8,1-.79,1-.76,1.07-.8,1.11-.76,1.11-.72,1.1-.76,1.18-.69,2.35-1.42.79-.42.83-.38.8-.38.79-.41.8-.38.79-.35.83-.38.83-.31,1.25-.41,1.21-.38,1.24-.35,1.25-.35,1.24-.27,1.25-.24,1.27-.21,1.28-.14,1.11-.07,1-.07,1,0,.93,0,.8,0,.69,0h.55l-9.3,16.6,1.77-.49,1.72-.48,1.77-.52,1.73-.52,1.72-.52,1.73-.52,1.73-.55,1.73-.55,1.73-.52,1.73-.55,1.73-.56,1.72-.55,1.73-.55,1.7-.56,1.72-.55,1.73-.52,0,.87,0,.9-.1.89-.14.9-.17.9-.17.9-.25.9-.24.9-.27.9-.28.9-.31.9-.35.89-.38.9-.38.87-.41.9-.42.86-.45.86-.45.87-.48.86-.48.83-1,1.66-1.07,1.63-1.11,1.55-1.14,1.52-1.18,1.49-1.17,1.38-.69.8-.73.79-.72.76-.73.76-.73.76-.76.76-.72.7-.76.72-.73.73-.76.69-.76.69-.8.66-.76.69-.79.66-.8.62-.79.65-.8.66-.83.62-.83.63-.83.62-.82.62-.87.59-.86.59-.87.62-.9.59-.86.58-.9.59-.93.59-.94.59-.72.38-.73.41-.72.38-.73.38-.73.38-.72.38-.73.38-.72.38-.73.35-.73.38-.72.38-.73.34-.72.35-.69.35-.73.38-.73.34-.83.28-.86.28-.86.27-.83.31-.83.28-.87.28-.83.27-.86.28-.83.28-.83.31-.87.27-.83.28-.86.28-.83.31-.86.27-.83.28-.14.07-.28.1-.41.14-.56.17-1.31.45-1.49.49-1.52.48-1.31.45-.52.17-.45.18-.28.1-.1,0-.45.1-.41.1-.42.07-.38.11-.41.1-.35.14-.38.1-.34.14-.35.14-.31.14-.35.13-.31.14-.31.18-.28.17-.31.17-.27.17-.28.18-.28.2-.27.21-.28.21-.24.21-.28.24-.24.24-.28.24-.48.52-.52.55-.48.59-.56.62-1.59,2.42-1.38,2.11-1.21,1.83-1,1.56-.9,1.35-.72,1.1-.62.94-.49.72-.41.59-.28.45-.24.31-.17.24-.14.18-.07.1-.07.07-.07,0Z" transform="translate(-21 -144.89)"/><polygon class="cls-3" points="251.35 301.96 281.81 317.65 244.89 323.15 243.4 325.05 241.95 327.02 240.53 328.96 239.22 330.79 238.04 332.45 237.07 333.87 236.28 335.01 235.76 335.73 224.01 325.88 193.66 328.37 193.45 327.75 193.24 327.13 193.07 326.47 192.86 325.85 195.45 324.22 198.12 322.63 200.78 321.08 203.44 319.52 206.13 318 208.83 316.48 211.49 314.96 214.16 313.44 218.34 311.05 218.44 307.11 218.51 303.17 218.61 299.19 218.72 295.25 218.86 291.31 218.96 287.37 219.06 283.43 219.17 279.49 219.27 275.55 219.38 271.61 219.44 267.67 219.48 263.73 219.51 259.75 219.51 255.81 219.48 251.87 219.41 247.93 183.91 229.37 182.42 229.02 181.04 228.95 180.28 228.95 179.55 229.02 178.9 229.12 178.24 229.26 177.62 229.47 176.96 229.68 176.27 229.88 175.51 230.09 171.77 231.23 171.74 231.27 171.7 231.3 170.08 228.67 172.26 226.81 174.54 224.91 175.71 223.97 176.92 223 178.13 222.07 179.34 221.17 180.59 220.27 181.87 219.38 183.18 218.54 184.46 217.75 185.81 216.99 187.16 216.3 188.5 215.64 189.89 215.02 191.06 214.78 192.51 214.85 193.79 215.37 196.53 216.68 199.29 217.99 202.06 219.27 204.82 220.55 207.59 221.86 210.35 223.14 213.12 224.46 215.88 225.77 215.78 223.87 215.54 222.73 215.26 221.55 214.99 220.41 214.64 219.2 214.33 218.03 214.12 217.47 213.95 216.89 213.74 216.3 213.53 215.75 213.32 215.16 213.08 214.6 212.84 214.05 212.6 213.5 212.36 212.94 212.08 212.43 211.8 211.91 211.53 211.39 211.22 210.91 210.91 210.42 210.59 209.94 210.25 209.49 209.9 209.04 209.56 208.59 209.18 208.17 208.8 207.79 206.86 206.24 204.96 204.72 203.06 203.2 201.16 201.68 199.26 200.16 197.35 198.63 195.42 197.08 193.52 195.56 191.62 194.04 189.72 192.51 187.81 190.99 185.88 189.47 183.98 187.95 182.07 186.43 180.14 184.91 178.24 183.39 178.24 182.39 178.2 181.38 178.2 180.38 178.2 179.38 178.2 178.38 178.17 177.34 178.17 176.34 178.17 175.33 180.21 176.58 182.25 177.79 184.25 179.03 186.29 180.28 188.3 181.49 190.34 182.73 192.38 183.94 194.38 185.19 196.42 186.43 198.46 187.64 200.47 188.88 202.5 190.09 204.54 191.34 206.55 192.55 208.59 193.79 210.59 195.04 210.53 193.34 210.46 191.69 210.35 190.06 210.25 188.4 210.11 186.81 209.97 185.22 209.87 184.43 209.8 183.66 209.7 182.87 209.56 182.07 209.45 181.31 209.31 180.52 209.18 179.76 209 178.96 208.83 178.2 208.66 177.44 208.49 176.68 208.24 175.92 208.04 175.16 207.79 174.4 207.55 173.64 207.28 172.88 207 172.08 206.69 171.32 206.38 170.56 206.03 169.8 204.44 166.9 202.82 164.03 201.23 161.13 199.6 158.22 198.01 155.32 196.46 152.41 194.87 149.51 193.34 146.57 194.38 145.67 195.42 144.81 196.46 143.91 197.49 143.05 197.6 143.05 197.77 143.22 198.18 143.84 198.84 144.74 199.64 145.99 201.68 149.1 204.09 152.79 206.65 156.74 209.11 160.57 211.22 163.86 212.81 166.24 213.36 164.44 213.91 162.61 214.5 160.81 215.09 159.02 215.68 157.22 216.3 155.42 216.89 153.63 217.44 151.79 223.45 150.27 223.25 152.28 223 154.28 222.76 156.22 222.52 158.15 222.31 160.09 222.07 162.03 221.83 163.93 221.62 165.9 221.55 166.83 221.45 167.8 221.38 168.73 221.31 169.66 221.28 170.63 221.21 171.6 221.21 172.53 221.17 173.5 221.17 174.44 221.17 175.37 221.21 176.34 221.24 177.27 221.31 178.2 221.38 179.17 221.48 180.1 221.59 181.04 222.45 183.91 223.32 186.78 224.18 189.65 225.04 192.55 225.91 195.42 226.74 198.32 227.6 201.19 228.43 204.09 229.26 206.97 230.06 209.87 230.89 212.74 231.68 215.64 232.48 218.54 233.31 221.45 234.1 224.35 234.86 227.22 236.59 224.8 238.32 222.38 240.05 219.93 241.74 217.47 243.47 215.02 245.16 212.6 246.86 210.15 248.59 207.69 248.66 206 248.69 204.3 248.72 202.61 248.72 200.91 248.69 197.53 248.62 194.17 248.48 190.79 248.31 187.4 248.14 184.04 247.89 180.66 247.65 177.27 247.41 173.92 247.17 170.53 246.93 167.18 246.72 163.79 246.51 160.4 246.34 157.05 246.2 153.66 246.93 153.66 247.62 153.66 248.34 153.66 249.03 153.66 249.76 153.69 250.45 153.69 251.18 153.69 251.87 153.69 252.15 155.63 252.39 157.56 252.66 159.5 252.91 161.44 253.18 163.37 253.46 165.31 253.7 167.25 253.98 169.18 254.25 171.12 254.53 173.05 254.81 174.99 255.09 176.92 255.33 178.86 255.6 180.8 255.88 182.73 256.16 184.67 257.85 182.77 259.48 180.9 261.1 179.1 262.69 177.3 264.25 175.54 265.77 173.78 267.32 172.01 268.84 170.25 270.43 168.46 271.99 166.62 273.61 164.76 275.27 162.82 276.97 160.85 278.73 158.78 280.56 156.67 282.46 154.42 282.46 155.42 282.46 156.39 282.46 157.39 282.46 158.36 282.46 159.36 282.46 160.33 282.46 161.33 282.46 162.34 280.7 164.65 278.9 166.97 277.11 169.25 275.34 171.57 273.58 173.92 271.82 176.23 270.09 178.58 268.39 180.97 267.6 182.14 266.8 183.28 266.04 184.46 265.28 185.64 264.56 186.81 263.83 187.99 263.14 189.2 262.48 190.37 261.83 191.58 261.2 192.79 260.58 194 260.03 195.21 259.48 196.42 258.96 197.67 258.47 198.88 258.47 199.64 258.47 200.4 258.51 201.16 258.54 201.92 258.61 202.68 258.68 203.47 258.75 204.23 258.85 205.03 258.92 205.82 259.03 206.62 259.13 207.41 259.2 208.21 259.27 209.04 259.34 209.83 259.37 210.63 259.37 211.46 259.2 212.46 259.03 213.39 258.82 214.33 258.61 215.26 258.37 216.16 258.09 217.06 257.85 217.99 257.54 218.96 256.68 220.9 255.91 222.56 255.29 224.01 254.74 225.25 254.25 226.29 253.88 227.19 253.53 227.91 253.29 228.5 253.08 228.99 252.94 229.37 252.84 229.61 252.77 229.81 252.73 229.95 252.7 230.06 252.7 230.13 252.7 230.19 253.53 229.43 254.32 228.64 255.15 227.88 255.95 227.12 256.74 226.39 257.57 225.63 258.37 224.94 259.2 224.22 259.65 223.87 260.06 223.56 260.48 223.25 260.93 222.9 261.34 222.59 261.79 222.28 262.24 222 262.72 221.69 263.17 221.41 263.66 221.14 264.14 220.86 264.63 220.62 265.14 220.38 265.66 220.13 266.18 219.89 266.73 219.69 267.98 219.65 269.26 219.58 270.5 219.58 271.75 219.51 272.99 219.48 274.24 219.38 274.82 219.34 275.45 219.27 276.03 219.24 276.62 219.13 277.24 219.06 277.83 218.96 278.42 218.86 279.01 218.72 279.59 218.58 280.18 218.44 280.74 218.27 281.32 218.1 281.91 217.85 282.46 217.65 283.05 217.4 283.6 217.13 284.16 216.82 284.75 216.51 285.3 216.16 285.85 215.78 288.38 213.29 290.86 210.77 293.35 208.21 295.81 205.69 298.26 203.09 300.72 200.53 303.14 197.94 305.56 195.35 308.04 197.04 306.66 199.19 305.28 201.33 303.93 203.44 302.55 205.58 301.17 207.69 299.82 209.83 298.43 211.94 297.05 214.09 295.67 216.19 294.32 218.34 292.94 220.45 291.56 222.59 290.17 224.7 288.79 226.84 287.41 228.95 286.02 231.09 284.16 231.3 282.39 231.58 280.74 231.89 279.14 232.27 277.66 232.65 276.24 233.1 274.93 233.58 273.65 234.1 272.47 234.69 271.33 235.28 270.23 235.93 269.22 236.63 268.22 237.38 267.29 238.15 266.39 238.97 265.49 239.81 264.66 240.7 263.8 241.64 263 242.6 262.17 243.61 261.38 244.65 260.58 245.75 259.79 246.86 258.96 248 257.26 250.42 255.47 252.98 253.53 255.67 251.42 258.51 251.35 301.96 251.35 301.96"/><polygon class="cls-3" points="167.28 269.19 327.3 269.19 327.3 272.89 167.28 272.89 167.28 269.19 167.28 269.19"/><polygon class="cls-3" points="362.8 281.05 363.18 281.05 363.56 281.12 363.94 281.22 364.29 281.36 364.63 281.5 364.94 281.7 365.26 281.91 365.53 282.15 365.77 282.43 365.98 282.74 366.19 283.05 366.36 283.4 366.47 283.74 366.57 284.12 366.64 284.5 366.64 284.88 366.64 285.3 366.57 285.68 366.47 286.06 366.36 286.4 366.19 286.75 365.98 287.06 365.77 287.34 365.53 287.61 365.26 287.86 364.94 288.1 364.63 288.27 364.29 288.44 363.94 288.58 363.56 288.69 363.18 288.72 362.8 288.75 362.39 288.72 362.01 288.69 361.66 288.58 361.28 288.44 360.97 288.27 360.62 288.1 360.35 287.86 360.07 287.61 359.83 287.34 359.59 287.06 359.41 286.75 359.24 286.4 359.1 286.06 359.03 285.68 358.96 285.3 358.93 284.88 358.96 284.5 359.03 284.12 359.1 283.74 359.24 283.4 359.41 283.05 359.59 282.74 359.83 282.43 360.07 282.15 360.35 281.91 360.62 281.7 360.97 281.5 361.28 281.36 361.66 281.22 362.01 281.12 362.39 281.05 362.8 281.05 362.8 281.05"/><polygon class="cls-4" points="362.8 281.05 363.18 281.05 363.56 281.12 363.94 281.22 364.29 281.36 364.63 281.5 364.94 281.7 365.26 281.91 365.53 282.15 365.77 282.43 365.98 282.74 366.19 283.05 366.36 283.4 366.47 283.74 366.57 284.12 366.64 284.5 366.64 284.88 366.64 285.3 366.57 285.68 366.47 286.06 366.36 286.4 366.19 286.75 365.98 287.06 365.77 287.34 365.53 287.61 365.26 287.86 364.94 288.1 364.63 288.27 364.29 288.44 363.94 288.58 363.56 288.69 363.18 288.72 362.8 288.75 362.39 288.72 362.01 288.69 361.66 288.58 361.28 288.44 360.97 288.27 360.62 288.1 360.35 287.86 360.07 287.61 359.83 287.34 359.59 287.06 359.41 286.75 359.24 286.4 359.1 286.06 359.03 285.68 358.96 285.3 358.93 284.88 358.96 284.5 359.03 284.12 359.1 283.74 359.24 283.4 359.41 283.05 359.59 282.74 359.83 282.43 360.07 282.15 360.35 281.91 360.62 281.7 360.97 281.5 361.28 281.36 361.66 281.22 362.01 281.12 362.39 281.05 362.8 281.05 362.8 281.05"/></svg>