<?xml version="1.0" encoding="UTF-8"?>
<!DOCTYPE svg PUBLIC "-//W3C//DTD SVG 1.1//EN" "http://www.w3.org/Graphics/SVG/1.1/DTD/svg11.dtd">
<!-- Creator: Corel DESIGNER -->
<svg xmlns="http://www.w3.org/2000/svg" xml:space="preserve" width="40mm" height="40mm" version="1.1" style="shape-rendering:geometricPrecision; text-rendering:geometricPrecision; image-rendering:optimizeQuality; fill-rule:evenodd; clip-rule:evenodd"
viewBox="0 0 4000 4000"
 xmlns:xlink="http://www.w3.org/1999/xlink"
 xmlns:xodm="http://www.corel.com/coreldraw/odm/2003">
 <defs>
  <style type="text/css">
   <![CDATA[
    .fil0m {fill:#004873}
    .fil1 {fill:white}
   ]]>
  </style>
 </defs>
<symbol id="ISO_x0020_7010_x0020_M011" viewBox="-1500 -9850 7000 7000">
 <circle class="fil0m" cx="2000" cy="-6350" r="3500"/>
 <path class="fil1" d="M-261.66 -5828.58l-0.96 1248.46c172.44,2.17 397.7,2.02 588.14,49.56 83.2,18.64 152.83,48.92 235.86,69.54l266.46 72.97c20.08,10.82 479.01,818.65 485.36,826.94 41.3,-24.49 92.94,-58.45 247.39,-136.66 287.02,-145.36 467.89,-114.68 730.6,-212.76 252.89,-94.42 385.87,-147.32 622.54,-318.97 67.89,-49.24 135.38,-114.91 216.84,-158.63 72.59,-38.95 168.95,-99.18 241.2,-143.4l744.21 -446.6c207.52,-138.47 28.73,-346.65 -149.73,-252.21l-737.52 390.28c-51.4,27.2 -82.14,-24.72 -41.63,-51.16 82.91,-54.13 178.29,-105.71 264.23,-157.42l865.06 -521.46c147.93,-88.72 -1.07,-322.59 -166.93,-225.38l-999.66 518.73c-18.14,9.42 -36.64,9.78 -50.31,9.35 -1.34,-27.33 10.66,-56.82 38.75,-73.46l1085.65 -642.37c138.22,-81.79 14.31,-344.77 -165.18,-239.89l-1108.03 590.57c-69,35.88 -71.05,-35.2 -40.26,-54.24l834.86 -516.23c173.49,-107.28 39.01,-350.71 -175.39,-236.34l-829.36 442.4 -727.68 -11.64c25.31,-90.06 29.81,-186.89 13.28,-314.33 -9.27,-91.12 -99.3,-155.44 -183.46,-92.99 -62.27,46.21 -180.68,282.55 -252.65,396.15l-429.42 -0.18c-72.66,-0.04 -59.61,-100.48 -13.21,-125.26 167.1,-89.28 395.2,-186.31 532,-416 27.42,-49.81 75.45,-137.87 26.46,-197.5 -74.19,-90.28 -185.98,-16.34 -232.69,7.73 -289.51,149.16 -557.67,281.77 -834.28,447.41 -242.77,145.37 -252.55,358.72 -643.62,453.76 -91.06,22.14 -155.5,17.08 -256.92,21.23zm2760.82 -63.9l-534.74 -5.45 -172.13 259.01c-17.3,24.68 -48.99,68.85 -20.1,110.79 41,59.49 160.21,-26.52 199.2,-48.17l527.77 -316.18zm-2658.86 166.54l0.41 1041.74c160.87,0.2 326.32,5.59 487.25,50.04 140.88,29.75 277.78,83.82 431.8,123.13 -29.94,-51.53 -39.74,-71.98 -68.24,-135.43 66.82,-50.9 209.39,-100.67 304.49,-231.36 215.38,-295.93 73.72,-326.37 311.18,-708.67l216.02 -326.76 -352.13 0.96c-163.49,0.44 -228.91,-217.03 -72.71,-311.19 95.11,-52.95 263.32,-146.44 327.23,-195.89 79.9,-61.82 213.35,-239.17 196.09,-278.82 -14.03,-32.22 -730.19,369.31 -852.33,439.09 -228.04,130.29 -270.4,236.76 -416.95,353.47 -138.88,110.6 -307.45,174.63 -512.11,179.69zm4066.02 -2511.2l-429.85 0 0 -268.29 429.85 0 0 268.29zm-429.85 185.25l-907.75 -17.15c-191.78,-3.62 -347.16,148.86 -347.16,340.67l0 273.02 409.65 0 0 -96.76c0,-50.64 41.02,-90.9 91.65,-89.94l753.61 14.24 0 137.84 429.85 0 0 -651.97 -429.85 0 0 90.05zm-989.95 771.79c0,-33.21 -26.92,-60.13 -60.13,-60.13 -33.22,0 -60.14,26.92 -60.14,60.13 0,33.22 26.92,60.14 60.14,60.14 33.21,0 60.13,-26.92 60.13,-60.14zm0 516.87c0,-33.21 -26.92,-60.14 -60.13,-60.14 -33.22,0 -60.14,26.93 -60.14,60.14 0,33.22 26.92,60.14 60.14,60.14 33.21,0 60.13,-26.92 60.13,-60.14zm0 -258.43c0,-33.22 -26.92,-60.14 -60.13,-60.14 -33.22,0 -60.14,26.92 -60.14,60.14 0,33.21 26.92,60.14 60.14,60.14 33.21,0 60.13,-26.93 60.13,-60.14zm0 516.86c0,-33.21 -26.92,-60.13 -60.13,-60.13 -33.22,0 -60.14,26.92 -60.14,60.13 0,33.22 26.92,60.14 60.14,60.14 33.21,0 60.13,-26.92 60.13,-60.14zm239.45 -851.54c-13.28,-30.45 -48.72,-44.36 -79.16,-31.09 -30.45,13.28 -44.36,48.72 -31.09,79.16 13.28,30.45 48.72,44.37 79.16,31.09 30.45,-13.27 44.37,-48.71 31.09,-79.16zm206.59 473.78c-13.27,-30.44 -48.71,-44.36 -79.16,-31.09 -30.44,13.28 -44.36,48.72 -31.09,79.17 13.28,30.44 48.72,44.36 79.17,31.08 30.44,-13.27 44.36,-48.71 31.08,-79.16zm-103.29 -236.89c-13.28,-30.44 -48.72,-44.36 -79.16,-31.09 -30.45,13.28 -44.37,48.72 -31.09,79.17 13.27,30.44 48.71,44.36 79.16,31.08 30.45,-13.27 44.36,-48.71 31.09,-79.16zm206.59 473.78c-13.27,-30.44 -48.71,-44.36 -79.16,-31.08 -30.45,13.27 -44.36,48.71 -31.09,79.16 13.28,30.44 48.72,44.36 79.16,31.09 30.45,-13.28 44.37,-48.72 31.09,-79.17zm-907.68 -710.67c13.28,-30.45 48.72,-44.36 79.16,-31.09 30.45,13.28 44.37,48.72 31.09,79.16 -13.28,30.45 -48.72,44.37 -79.16,31.09 -30.45,-13.27 -44.37,-48.71 -31.09,-79.16zm-206.59 473.78c13.27,-30.44 48.71,-44.36 79.16,-31.09 30.44,13.28 44.36,48.72 31.09,79.17 -13.28,30.44 -48.72,44.36 -79.17,31.08 -30.44,-13.27 -44.36,-48.71 -31.08,-79.16zm103.29 -236.89c13.28,-30.44 48.72,-44.36 79.16,-31.09 30.45,13.28 44.37,48.72 31.09,79.17 -13.27,30.44 -48.71,44.36 -79.16,31.08 -30.45,-13.27 -44.36,-48.71 -31.09,-79.16zm-206.59 473.78c13.27,-30.44 48.72,-44.36 79.16,-31.08 30.45,13.27 44.36,48.71 31.09,79.16 -13.28,30.44 -48.72,44.36 -79.16,31.09 -30.45,-13.28 -44.37,-48.72 -31.09,-79.17z"/>
</symbol>
 <g id="Ebene_x0020_1">
  <metadata id="CorelCorpID_0Corel-Layer"/>
  <use id="ISO_x0020_7010_x0020_M011_0" transform="scale(0.571429 0.571429)" x="-0" y="-0" width="7000" height="7000" xlink:href="#ISO_x0020_7010_x0020_M011"/>
 </g>
</svg>
