<?xml version="1.0" encoding="UTF-8"?>
<!DOCTYPE svg PUBLIC "-//W3C//DTD SVG 1.1//EN" "http://www.w3.org/Graphics/SVG/1.1/DTD/svg11.dtd">
<!-- Creator: Corel DESIGNER -->
<svg xmlns="http://www.w3.org/2000/svg" xml:space="preserve" width="40mm" height="40mm" version="1.1" style="shape-rendering:geometricPrecision; text-rendering:geometricPrecision; image-rendering:optimizeQuality; fill-rule:evenodd; clip-rule:evenodd"
viewBox="0 0 4000 4000"
 xmlns:xlink="http://www.w3.org/1999/xlink"
 xmlns:xodm="http://www.corel.com/coreldraw/odm/2003">
 <defs>
  <style type="text/css">
   <![CDATA[
    .fil0m {fill:#004873}
    .fil1 {fill:white}
   ]]>
  </style>
 </defs>
<symbol id="ISO_x0020_7010_x0020_M013" viewBox="-1500 8850 7000 7000">
 <circle class="fil0m" cx="2000" cy="12350" r="3500"/>
 <path class="fil1" d="M483.57 10753.77l-385.08 0c-190.13,0 -345.21,155.07 -345.21,345.2l0 2773.47c0,204.21 172.99,362.23 376.36,343.8l1050.7 -95.2 0 278.62c0,180.75 202.69,383.44 383.44,383.44l1664.42 0c218.71,0 423.13,-154.24 423.13,-404.42l0 -529.32c0,-235.66 20.87,-305.59 139.02,-696.16 118.16,-390.58 513.98,-709.59 512.06,-1616.71 0.12,-1191.73 -1132.83,-1923.64 -2030.96,-1910.14 -898.13,13.49 -1438.79,535.85 -1787.88,1127.42zm241.27 0.52l943.39 0 0 -808.1c-340.97,82.92 -777.11,466.21 -943.39,808.1zm1575.31 8.72c65.22,21.61 136.72,43.31 196.16,195.11 51.85,132.41 -26.71,244.29 -17.33,360.56l1590.25 0c-150.77,-932.37 -1014.05,-1515.12 -1769.08,-1491l0 935.33zm-885.51 3336.8l0 285.34c0,115.77 93.4,193.76 199.29,193.75l1628.34 -0.09c99.52,-0.01 206.92,-70.57 206.92,-212.48l0 -451.54c0,-670.74 247.32,-1066.18 490.13,-1548.48 53.19,-103.82 141.83,-355.57 149.28,-592.83l-1695.45 0 -369.98 1991.98c-37.99,204.6 -130.38,291.02 -412.31,316.57l-196.22 17.78zm-1080.41 -1360.05l347.89 0 2.37 602.66c10.25,239.01 237.72,433.62 467.24,457.25l251.62 0 0 99.64 268.93 -21.8c91.59,-7.42 139.31,-56.83 154.85,-146.33l482.8 -2640.53c15.24,-82.33 -29.47,-140.64 -117.48,-140.64l-1573.03 0 -402.35 1608.36c-20.57,82.25 29.78,181.39 117.16,181.39zm809.1 -754.34c123.68,-24.47 204.49,-142.6 180.5,-263.85 -23.99,-121.26 -143.7,-199.71 -267.38,-175.24 -123.68,24.47 -204.5,142.6 -180.51,263.85 23.99,121.25 143.7,199.71 267.39,175.24z"/>
</symbol>
 <g id="Ebene_x0020_1">
  <metadata id="CorelCorpID_0Corel-Layer"/>
  <use id="ISO_x0020_7010_x0020_M013_0" transform="scale(0.571429 0.571429)" x="-0" y="-0" width="7000" height="7000" xlink:href="#ISO_x0020_7010_x0020_M013"/>
 </g>
</svg>
