<?xml version="1.0" encoding="UTF-8"?>
<!DOCTYPE svg PUBLIC "-//W3C//DTD SVG 1.1//EN" "http://www.w3.org/Graphics/SVG/1.1/DTD/svg11.dtd">
<!-- Creator: Corel DESIGNER -->
<svg xmlns="http://www.w3.org/2000/svg" xml:space="preserve" width="40mm" height="40mm" version="1.1" style="shape-rendering:geometricPrecision; text-rendering:geometricPrecision; image-rendering:optimizeQuality; fill-rule:evenodd; clip-rule:evenodd"
viewBox="0 0 4000 4000"
 xmlns:xlink="http://www.w3.org/1999/xlink"
 xmlns:xodm="http://www.corel.com/coreldraw/odm/2003">
 <defs>
  <style type="text/css">
   <![CDATA[
    .fil0m {fill:#004873}
    .fil1 {fill:white}
   ]]>
  </style>
 </defs>
<symbol id="ISO_x0020_7010_x0020_M016" viewBox="-1500 2616.66 7000 7000">
 <circle class="fil0m" cx="2000" cy="6116.66" r="3500"/>
 <path class="fil1" d="M1080.15 5592.12c107.44,-65.38 141.84,-205.46 76.83,-312.89 -65.02,-107.42 -204.81,-141.51 -312.25,-76.14 -107.45,65.38 -141.84,205.46 -76.83,312.89 65.01,107.42 204.81,141.51 312.25,76.14zm515.6 1799.32c11.42,96.33 12.83,173.28 -87.09,308.29 -59.52,80.42 -149.63,124.01 -249.23,154.08l0 409.13c0,132.75 100.51,206.66 226.6,206.9l1606.63 3.03c129.47,0.24 229.54,-114.76 229.54,-259.2l0 -415.65c0,-142.55 30.44,-284.17 46.1,-420.96 -117.57,-15.43 -1598.97,13.19 -1772.55,14.38zm-161.94 -980.36l119.19 752.37 1855.19 -19.3c76.56,-470.41 505.13,-857.2 559.38,-1482.44l-2533.76 749.37zm-1211.73 -559.39l696.7 23.28c236.68,7.9 327.97,109 451.39,282.2l2593.11 -762.97c1.86,-135.33 -31.17,-327.61 -56.62,-413.21 -338.77,-1139.65 -1720.49,-1683.1 -2709.47,-1022.31 -424.66,283.73 -672.27,614.96 -797.02,1121.78 -37.61,152.79 -166.6,700.63 -178.09,771.23zm-203.54 -9.95c-90.6,0.78 -156.52,-5.65 -185.98,63.92 -203.57,692.52 14.32,1626.47 330.8,2031.2 19.98,25.55 40.04,44.31 58.64,50.23 18.5,5.89 49.36,12.77 87.74,7.01 189.89,-28.46 529.19,-83.84 752.84,-108.01l0 373.36c0,250.72 198.59,404.22 435.48,404.22l1686.39 0c195.76,-43.31 334.91,-214.41 340.41,-419.84 11.06,-413.32 -23.09,-700.71 107.85,-1114.31 116.29,-443.27 305.15,-595.04 446.05,-1015.51 28.69,-85.53 83.48,-308.36 93.1,-393.56 35.37,-313.25 -1.39,-576.42 -86.45,-875.9 -100.81,-354.89 -426.3,-762.34 -728.73,-977.11 -402.6,-270.59 -829.4,-428.01 -1323.83,-387.52 -385.42,31.57 -755.08,161.38 -1067.93,392.16 -377.51,278.47 -666.84,711.87 -768.79,1184.1 -58.36,241.8 -123.34,538.49 -177.59,785.56z"/>
</symbol>
 <g id="Ebene_x0020_1">
  <metadata id="CorelCorpID_0Corel-Layer"/>
  <use id="ISO_x0020_7010_x0020_M016_0" transform="scale(0.571429 0.571429)" x="-0" y="-0" width="7000" height="7000" xlink:href="#ISO_x0020_7010_x0020_M016"/>
 </g>
</svg>
