<?xml version="1.0" encoding="UTF-8"?>
<!DOCTYPE svg PUBLIC "-//W3C//DTD SVG 1.1//EN" "http://www.w3.org/Graphics/SVG/1.1/DTD/svg11.dtd">
<!-- Creator: Corel DESIGNER -->
<svg xmlns="http://www.w3.org/2000/svg" xml:space="preserve" width="40mm" height="40mm" version="1.1" style="shape-rendering:geometricPrecision; text-rendering:geometricPrecision; image-rendering:optimizeQuality; fill-rule:evenodd; clip-rule:evenodd"
viewBox="0 0 4000 4000"
 xmlns:xlink="http://www.w3.org/1999/xlink"
 xmlns:xodm="http://www.corel.com/coreldraw/odm/2003">
 <defs>
  <style type="text/css">
   <![CDATA[
    .fil0m {fill:#004873}
    .fil1 {fill:white}
   ]]>
  </style>
 </defs>
<symbol id="ISO_x0020_7010_x0020_M019" viewBox="-1500 -3616.66 7000 6999.98">
 <ellipse class="fil0m" cx="2000" cy="-116.67" rx="3500" ry="3499.99"/>
 <path class="fil1" d="M228.31 -1941.29l0 398.94 850.75 0c66.06,0 114.24,49.08 114.24,113.62l0 856.61c0,65.82 -51.75,110 -121.69,110.01l-843.3 0.09 0 1782.88c0,392.22 258.11,559.58 642.43,559.58l580.08 0c10.04,230.08 154.78,382.37 392.2,376.24l1558.47 0c223.28,-59.92 294.03,-194.06 295.6,-381.09l3.81 -452.88c4.57,-543.27 233.68,-883.73 434.48,-1268.38 116.6,-223.37 180.35,-689.75 151.03,-929.12 -56.94,-464.92 -238.18,-878.67 -594.15,-1193.69 -391.65,-346.61 -764.34,-463.53 -1276.05,-474.67 -89.31,-54.32 -121.8,-78.83 -294.36,-82.19l-1251.11 1.72c-456.88,0.62 -642.43,161.7 -642.43,582.33zm2447.63 3254.94c-0.05,319.06 -239.41,565.43 -592.55,566.79l-443.28 0c7.14,113.55 64.21,195.42 183.71,200.27l1495.6 0c101.7,0.2 179.42,-45.92 190.19,-160.59l12.14 -523.2c17.15,-739.92 331.46,-947.88 519.28,-1516.63 55.69,-168.65 61.67,-227.31 65.59,-434.68l-1430.68 0.48 0 1867.56zm0 -3308.47l0 986.27 1376.84 -0.01c-221.35,-848.56 -1023.82,-1247.99 -1443.42,-1247.28 24.19,55.79 72.19,192.07 66.58,261.02zm-1721.38 645.45l0 648.6 -726.25 0 0 150.28 847.15 0c16.38,0 29.38,-8.55 29.38,-27.05l0 -857.44c0,-11.88 -6.66,-18.9 -20.05,-18.9l-856.48 0 0 104.51 726.25 0zm-433.36 2428.62c0,-54.64 -44.3,-98.93 -98.93,-98.93 -54.64,0 -98.93,44.29 -98.93,98.93 0,54.63 44.29,98.92 98.93,98.92 54.63,0 98.93,-44.29 98.93,-98.92zm293.47 0c0,-54.64 -44.3,-98.93 -98.93,-98.93 -54.64,0 -98.93,44.29 -98.93,98.93 0,54.63 44.29,98.92 98.93,98.92 54.63,0 98.93,-44.29 98.93,-98.92zm293.47 0c0,-54.64 -44.3,-98.93 -98.93,-98.93 -54.64,0 -98.93,44.29 -98.93,98.93 0,54.63 44.29,98.92 98.93,98.92 54.63,0 98.93,-44.29 98.93,-98.92z"/>
</symbol>
 <g id="Ebene_x0020_1">
  <metadata id="CorelCorpID_0Corel-Layer"/>
  <use id="ISO_x0020_7010_x0020_M019_0" transform="scale(0.571429 0.57143)" x="-0" y="-0" width="7000" height="6999.98" xlink:href="#ISO_x0020_7010_x0020_M019"/>
 </g>
</svg>
