<?xml version="1.0" encoding="UTF-8"?>
<!DOCTYPE svg PUBLIC "-//W3C//DTD SVG 1.1//EN" "http://www.w3.org/Graphics/SVG/1.1/DTD/svg11.dtd">
<!-- Creator: Corel DESIGNER -->
<svg xmlns="http://www.w3.org/2000/svg" xml:space="preserve" width="40mm" height="40mm" version="1.1" style="shape-rendering:geometricPrecision; text-rendering:geometricPrecision; image-rendering:optimizeQuality; fill-rule:evenodd; clip-rule:evenodd"
viewBox="0 0 2000 2000"
 xmlns:xlink="http://www.w3.org/1999/xlink"
 xmlns:xodm="http://www.corel.com/coreldraw/odm/2003">
 <defs>
  <style type="text/css">
   <![CDATA[
    .fil0m {fill:#004873}
    .fil1 {fill:white}
   ]]>
  </style>
 </defs>
<symbol id="ISO_x0020_7010_x0020_M020" viewBox="-3750 -1808.33 3500 3499.99">
 <ellipse class="fil0m" cx="-2000" cy="-58.34" rx="1750" ry="1749.99"/>
 <path class="fil1" d="M-1024.76 -473.94l419.09 0c39.2,131.7 60.35,271.17 60.35,415.61 0,76.73 -5.99,152.06 -17.43,225.59l-462.01 0 0 -641.19zm-2374.68 17.19c-35.98,126.62 -55.24,260.26 -55.24,398.41 0,70.77 5.16,140.33 14.93,208.39l520.1 0 0 114.39 359.58 0 106.83 -114.39 314.34 0c25.34,0 46.08,-20.74 46.08,-46.08l0 -514.64c0,-25.34 -20.74,-46.08 -46.08,-46.08l-314.34 0 -106.83 -114.39 -359.58 0 0 114.39 -479.79 0zm1544.1 -119.27l712.53 0c36.52,0 66.41,29.88 66.41,66.41l0 712.52c0,36.54 -29.89,66.42 -66.41,66.42l-712.53 0c-36.52,0 -66.41,-29.88 -66.41,-66.42l0 -712.52c0,-36.52 29.89,-66.41 66.41,-66.41zm555.91 223.03l0 399.3 -399.3 0 0 -399.3 399.3 0zm-40.66 40.66l-317.97 0 0 317.97 317.97 0 0 -317.97zm-1512.6 -188.52l80.79 0 0 695.01 -80.79 0 0 -695.01zm453.59 172.51l202.86 0 0 343.06 -202.86 0 0 -343.06z"/>
 <polygon class="fil1" points="-2681.49,399.58 -2098.09,761.57 -2677.44,1121.23 -2730.62,1034.49 -2366,812.44 -3169.14,812.44 -3169.14,710.69 -2366,710.69 -2734.68,486.31 "/>
 <polygon class="fil1" points="-1319.52,399.58 -1902.92,761.57 -1323.57,1121.23 -1270.38,1034.49 -1635.01,812.44 -831.88,812.44 -831.88,710.69 -1635.01,710.69 -1266.34,486.31 "/>
</symbol>
 <g id="Ebene_x0020_1">
  <metadata id="CorelCorpID_0Corel-Layer"/>
  <use id="ISO_x0020_7010_x0020_M020_0" transform="scale(0.571429 0.57143)" x="-0" width="3500" height="3499.99" xlink:href="#ISO_x0020_7010_x0020_M020"/>
 </g>
</svg>
