<?xml version="1.0" encoding="UTF-8"?>
<!DOCTYPE svg PUBLIC "-//W3C//DTD SVG 1.1//EN" "http://www.w3.org/Graphics/SVG/1.1/DTD/svg11.dtd">
<!-- Creator: Corel DESIGNER -->
<svg xmlns="http://www.w3.org/2000/svg" xml:space="preserve" width="40mm" height="40mm" version="1.1" style="shape-rendering:geometricPrecision; text-rendering:geometricPrecision; image-rendering:optimizeQuality; fill-rule:evenodd; clip-rule:evenodd"
viewBox="0 0 4000 4000"
 xmlns:xlink="http://www.w3.org/1999/xlink"
 xmlns:xodm="http://www.corel.com/coreldraw/odm/2003">
 <defs>
  <style type="text/css">
   <![CDATA[
    .fil0m {fill:#004873}
    .fil1 {fill:white}
   ]]>
  </style>
 </defs>
<symbol id="ISO_x0020_7010_x0020_M030" viewBox="-1500 -3616.67 7000 7000">
 <circle class="fil0m" cx="2000" cy="-116.67" r="3500"/>
 <polygon class="fil1" points="3034.28,-483.92 3286.64,-325.3 3034.28,-166.68 2781.94,-325.3 "/>
 <polygon class="fil1" points="3187.36,-68.18 3439.71,90.44 3187.36,249.06 2935.01,90.44 "/>
 <polygon class="fil1" points="3035.48,740.9 3287.84,899.53 3035.48,1058.14 2783.14,899.53 "/>
 <polygon class="fil1" points="3027.2,1362.2 3279.55,1520.82 3027.2,1679.44 2774.85,1520.82 "/>
 <polygon class="fil1" points="2454.66,-170.66 2605.8,1759.46 3559.04,1759.46 3710.18,-170.66 3940.23,-170.66 3771.09,1989.06 2393.74,1989.06 2224.62,-170.66 "/>
 <path class="fil1" d="M1641.02 -1963.19l85.14 42.59 681.47 588.07 837.25 252.26c100.05,30.13 156.34,136.16 125.91,236.11 -30.56,100.38 -137.24,156.74 -236.86,125.68 -112.1,-34.97 -867.99,-254.89 -913,-280.02l-635.21 -542.9 -265.79 1154.32 506.05 1014.67c24.39,41.11 34.91,90.58 26.71,140.88 -24.08,194.79 -68.33,969.57 -86.93,1054.68 -55.65,254.68 -447.41,200.72 -412.93,-78.49l77.92 -968.87 -519.55 -1041.74 -22.98 -81.39 -114.4 1115.37c-0.27,10.87 -1.37,21.54 -3.23,31.95l-101.56 990.14c-17.97,280.64 -412.88,260.95 -420.3,0.44l107.39 -1064.81c27.57,-196.35 108.56,-1162.21 131.68,-1246.51l213.74 -928.27 -773.76 989.88c-175.61,198.43 -444.26,-47.29 -297.71,-233.57l1074.17 -1374.11c47.84,-61.2 125.37,-83.05 196.54,-66.68l740.24 170.32zm-145.83 -847.73c192.34,44.29 312.37,236.12 268.08,428.47 -44.28,192.34 -236.12,312.37 -428.46,268.08 -192.35,-44.28 -312.38,-236.13 -268.09,-428.47 44.28,-192.34 236.13,-312.37 428.47,-268.08z"/>
</symbol>
 <g id="Ebene_x0020_1">
  <metadata id="CorelCorpID_0Corel-Layer"/>
  <use id="ISO_x0020_7010_x0020_M030_0" transform="scale(0.571429 0.571429)" x="-0" y="-0" width="7000" height="7000" xlink:href="#ISO_x0020_7010_x0020_M030"/>
 </g>
</svg>
