<?xml version="1.0" encoding="UTF-8"?>
<!DOCTYPE svg PUBLIC "-//W3C//DTD SVG 1.1//EN" "http://www.w3.org/Graphics/SVG/1.1/DTD/svg11.dtd">
<!-- Creator: Corel DESIGNER -->
<svg xmlns="http://www.w3.org/2000/svg" xml:space="preserve" width="40mm" height="40mm" version="1.1" style="shape-rendering:geometricPrecision; text-rendering:geometricPrecision; image-rendering:optimizeQuality; fill-rule:evenodd; clip-rule:evenodd"
viewBox="0 0 1000 1000"
 xmlns:xlink="http://www.w3.org/1999/xlink"
 xmlns:xodm="http://www.corel.com/coreldraw/odm/2003">
 <defs>
  <style type="text/css">
   <![CDATA[
    .fil0m {fill:#004873}
    .fil1 {fill:white}
   ]]>
  </style>
 </defs>
<symbol id="ISO_x0020_7010_x0020_M032" viewBox="1125 -2462.5 1750 1750">
 <circle class="fil0m" cx="2000" cy="-1587.5" r="875"/>
 <path class="fil1" d="M2387.59 -1890.67c-32.72,-62.59 -190.45,-151.12 -299,-97.17 -68.07,33.83 -165.85,166.88 -217.46,235.43 -56.52,75.07 -75.55,102.16 -96.8,130.52 1,46.31 6.79,77.11 -8.4,218.38 -6.91,64.27 -18.19,124.59 -33.98,185.8 -31.77,123.19 -49.91,66.16 -95.92,136.12 -23.69,36.03 -26.09,368.22 294.01,-380.78 79.14,-185.19 212.31,-486.25 457.55,-428.31zm-717.48 935.07c72.69,17.01 499.84,-17.55 538.46,-93.35 6.21,-62.28 -4.08,-121 2.33,-183.08 6.21,-60.09 27.71,-91.03 40.95,-141.22 -101.98,-36.67 -127.25,-48.42 -252.08,-42.45l-43.45 -55.54c-75.96,200.94 -219.22,487.27 -286.21,515.64zm252.57 -198.17l88 -12.3 -53.72 110.94 -14.93 -11.01 -7.14 58.89 53.95 -34.91 -20.37 -7.02 113.28 -154.75 -102.19 9.71 143.23 -172.3 -53.55 -26.29 -146.56 239.03zm100.86 -286.4c186.12,-5.29 196.83,38.55 296.92,75.5 103.73,-106.8 295.57,-410.7 80.51,-443.84 -117.64,-18.12 -196.96,63.28 -238.72,125.95 -32.11,48.19 -120.61,190.28 -138.72,242.38zm-196.57 -596.75c-3.13,-74.55 -31.67,-153.03 -47.59,-230.91l-37.22 0c6.87,36.08 15.69,81.93 24,110.82 30.62,106.51 30.48,139.37 13.81,248.63 -13.84,90.72 -14.26,111.57 -9.73,208.25l94.26 -115.42c111.02,-139.79 219.33,-276.15 336.84,-225.99l31.51 13.45 -6.47 -33.64c-10.7,-55.66 -10.81,-143.69 -3.77,-206.11l-36.65 0c-6.06,55.5 -6.51,130.64 -0.06,182.96 -129.73,-30.57 -238.57,106.42 -349.93,246.64 -10.51,13.23 -21.04,26.49 -31.63,39.65 3.66,-86.42 26.23,-152.69 22.63,-238.35z"/>
</symbol>
 <g id="Ebene_x0020_1">
  <metadata id="CorelCorpID_0Corel-Layer"/>
  <use id="ISO_x0020_7010_x0020_M032_0" transform="scale(0.571429 0.571429)" x="-0" y="-0" width="1750" height="1750" xlink:href="#ISO_x0020_7010_x0020_M032"/>
 </g>
</svg>
