<?xml version="1.0" encoding="UTF-8"?>
<!DOCTYPE svg PUBLIC "-//W3C//DTD SVG 1.1//EN" "http://www.w3.org/Graphics/SVG/1.1/DTD/svg11.dtd">
<!-- Creator: Corel DESIGNER -->
<svg xmlns="http://www.w3.org/2000/svg" xml:space="preserve" width="40mm" height="40mm" version="1.1" style="shape-rendering:geometricPrecision; text-rendering:geometricPrecision; image-rendering:optimizeQuality; fill-rule:evenodd; clip-rule:evenodd"
viewBox="0 0 1000 1000"
 xmlns:xlink="http://www.w3.org/1999/xlink"
 xmlns:xodm="http://www.corel.com/coreldraw/odm/2003">
 <defs>
  <style type="text/css">
   <![CDATA[
    .fil0m {fill:#004873}
    .fil1 {fill:white}
   ]]>
  </style>
 </defs>
<symbol id="ISO_x0020_7010_x0020_M034" viewBox="1125 2212.5 1750 1750">
 <circle class="fil0m" cx="2000" cy="3087.5" r="875"/>
 <path class="fil1" d="M1916.94 2827.2c0,-46.67 -37.83,-84.5 -84.49,-84.5 -46.66,0 -84.49,37.83 -84.49,84.5 0,46.66 37.83,84.49 84.49,84.49 46.66,0 84.49,-37.83 84.49,-84.49z"/>
 <circle class="fil1" cx="1687.7" cy="3172.39" r="31.87"/>
 <path class="fil1" d="M1714.3 3208.46c-19.03,11.57 -40.43,10.09 -57.4,-2.52l0 99.4c0,39.53 16.12,75.42 42.1,101.4 25.99,25.99 61.87,42.1 101.4,42.1l222.08 0 0 -57.4 -222.08 0c-23.69,0 -45.22,-9.68 -60.82,-25.28 -15.6,-15.61 -25.28,-37.13 -25.28,-60.82l0 -96.88z"/>
 <path class="fil1" d="M2249.44 2907.45l62.4 -48.68c53.2,68.25 83.92,153.55 83.82,243.5l159.3 0c0.14,-126.14 -42.94,-245.76 -117.54,-341.48l62.39 -48.68 -217.57 -20.75 -32.8 216.08z"/>
 <path class="fil1" d="M1741.09 3156.76l235.55 -228.96c12.61,-12.25 32.36,-12.19 44.52,0.64l353.91 373.28 111.96 -110.4 -36.46 -37.04 -74.25 73.22 -317.36 -334.73c-31.97,-33.72 -85.19,-34.71 -118.49,-2.36l-235.67 229.08c17.59,5.74 31.08,19.54 36.29,37.26z"/>
 <path class="fil1" d="M1658.13 3125.26l-188.54 -108.76 -26.09 45.1 188.61 108.8c0.69,-18.33 10.35,-35.33 26.02,-45.14z"/>
 <path class="fil1" d="M1757.81 3050.29l110.36 -107.64c-9.02,-4.57 -21.1,-8.38 -36.34,-8.38 -39.39,0 -74.02,33.28 -74.02,75.93l0 40.09z"/>
 <path class="fil1" d="M1925.33 2995.85l-167.52 162.96 0 129.26 2.42 28.99c0,25.82 21.12,46.94 46.94,46.94l244.38 0 0 214.7c0,61.69 93.88,61.69 93.88,0l0 -261.64c0,-25.82 -21.12,-46.94 -46.94,-46.94l-188.81 0 -0.45 -175.08 70.74 73.54c1.5,1.56 9.18,9.98 16.29,11.53l203.8 44.57c52.07,11.38 69.12,-67.85 17.03,-79.07l-184.69 -39.3 -107.07 -110.46z"/>
 <polygon class="fil1" points="1714.3,3092.72 1714.3,2436.54 1656.9,2458.08 1656.9,3109.53 1682.14,3124.09 "/>
</symbol>
 <g id="Ebene_x0020_1">
  <metadata id="CorelCorpID_0Corel-Layer"/>
  <use id="ISO_x0020_7010_x0020_M034_0" transform="scale(0.571429 0.571429)" x="-0" y="-0" width="1750" height="1750" xlink:href="#ISO_x0020_7010_x0020_M034"/>
 </g>
</svg>
