<?xml version="1.0" encoding="UTF-8"?>
<!DOCTYPE svg PUBLIC "-//W3C//DTD SVG 1.1//EN" "http://www.w3.org/Graphics/SVG/1.1/DTD/svg11.dtd">
<!-- Creator: Corel DESIGNER -->
<svg xmlns="http://www.w3.org/2000/svg" xml:space="preserve" width="40mm" height="40mm" version="1.1" style="shape-rendering:geometricPrecision; text-rendering:geometricPrecision; image-rendering:optimizeQuality; fill-rule:evenodd; clip-rule:evenodd"
viewBox="0 0 1000 1000"
 xmlns:xlink="http://www.w3.org/1999/xlink"
 xmlns:xodm="http://www.corel.com/coreldraw/odm/2003">
 <defs>
  <style type="text/css">
   <![CDATA[
    .fil0m {fill:#004873}
    .fil1 {fill:white}
   ]]>
  </style>
 </defs>
<symbol id="ISO_x0020_7010_x0020_M037" viewBox="1125 654.16 1750 1750">
 <circle class="fil0m" cx="2000" cy="1529.16" r="875"/>
 <path class="fil1" d="M2074.2 1408.19c41.83,-2.8 72.04,3.11 92.72,16.17 12.96,-6.72 26.16,-14.07 39.56,-21.84 12.93,-7.5 33.43,-9.94 45.16,1.07 13.85,13.01 27.17,26.11 39.97,39.27l0 -345.29c0,-33.38 -20.62,-61.72 -52.37,-71.99l-495.29 -160.24 -80.54 41.42 285.34 98.95 0 343.68 81.1 0c24.44,0 44.36,19.91 44.36,44.36l0 14.45zm97.18 -156.84l-163.38 -48.32 0 -120.81 162.23 48.32 0 -39.69 80.83 125.7 -79.68 79.68 0 -44.87z"/>
 <path class="fil1" d="M2675.72 1756.04c-70.74,-26.85 -141.23,-54.37 -211.93,-81.35 3.38,6.38 6.62,12.72 9.73,19l-14.01 6.91c-25.34,-51.23 -57.7,-101.35 -92.19,-146.45 -35.5,-46.41 -77.59,-93.37 -126.37,-139.18 -6.23,-5.84 -20.08,-2.73 -26.63,1.07 -25.91,15.03 -51.2,28.52 -75.63,39.22 -24.66,10.8 -48.42,18.72 -71.03,22.48 -7.34,1.22 -18.9,9.3 -18.82,17.56 0.34,30.08 -1.67,57.91 -5.13,83.6 -3.48,25.82 -8.39,49.38 -13.85,70.83 -2.87,11.33 13.48,21.35 24.93,19.36 26.11,-4.52 38.81,-24.62 53.07,-47.19 3.86,-6.12 7.84,-12.41 11.9,-18.26 8.35,-12.02 9.18,-28.36 10.01,-44.69 0.45,-8.99 0.91,-18 2.54,-26.8l15.35 2.81c-0.86,4.66 -1.36,9.58 -1.72,14.61 9.81,1.06 18.87,1.3 27.3,0.87 10.22,-0.53 19.53,-2.03 28.16,-4.25l3.85 15.11c-3.25,0.84 -6.58,1.58 -9.99,2.22 0.75,16.02 5.29,31.11 8.27,46.73 12.37,19.72 18.23,41.81 22.97,64.44l-15.29 3.18c-2.26,-10.76 -4.76,-21.37 -8.14,-31.52 -2.42,6.92 -6.7,13.59 -13.67,20.04 7.72,24.45 14.81,49.5 -17.2,64.94 10.72,27.74 -20.83,64.22 -50.22,63.86 -15.86,-0.2 -31.97,-1.31 -47.77,-0.52l0 84.63c0,4.75 -0.76,9.33 -2.15,13.63 51.62,18.41 118.39,21.33 173.24,21.51 34.51,1.04 67.64,-10.11 99.53,-23.38 9.39,-3.72 15.23,10.37 5.99,14.39 -8.55,3.75 -17.79,7.11 -26.61,10.26 47.59,6.7 85.69,16.85 117.82,28.88 38.44,14.39 68.12,31.37 95.26,48.31 30.22,-33.81 56.38,-70.41 79.22,-109.9 22.78,-39.38 42.28,-81.67 59.22,-126.95z"/>
 <path class="fil1" d="M2240.22 2021.8c31.26,-10.59 51.39,-38.65 51.39,-71.66l0 -25.06c-44.37,10.23 -99.6,4.23 -128.91,1.46 -27.66,-2.61 -55.1,-7.05 -81.72,-14.39 -5.56,-1.53 -11.02,-3.3 -16.41,-5.32 -8.47,10.62 -21.07,16.82 -34.72,16.82l-46.5 0c-11.46,0 -20.87,-9.4 -20.87,-20.87l0 -29.7c0,-5.73 2.35,-10.94 6.12,-14.75 0.64,-0.65 1.33,-1.25 2.06,-1.81 -7.77,-5.07 -15.11,-11.05 -21.91,-18.24l0 214.44 -308.35 98.95 87.44 43.72 512.39 -173.58z"/>
 <path class="fil1" d="M1866.48 1873.8c-129.59,1.96 -206.1,-47.71 -233.5,-154.1l44.81 -15.03 -102.4 -70.19 -37.97 117.36 41.42 -13.81c38.1,145.18 139.47,195.61 287.64,192.72l0 -56.95z"/>
 <path class="fil1" d="M2074.2 1460.58c18.57,-3.99 38.05,-10.8 58.25,-19.64 5.76,-2.52 11.58,-5.21 17.45,-8.05 -17.76,-8.06 -42.57,-11.36 -75.7,-9.02l0 36.7z"/>
 <path class="fil1" d="M2174.03 1566.02c-6.77,0.35 -13.87,0.3 -21.36,-0.2 11.69,5.67 21.43,12.18 29.59,19.36 -1.18,-6.29 -2.14,-12.79 -2.53,-19.55l-5.7 0.39z"/>
 <path class="fil1" d="M2160.84 1719.17c26.04,-10.97 18.94,-31.02 12.36,-52.18 -18.92,-12.74 -39.21,-19.62 -61.91,-21.68 -14.87,21.81 -41.09,45.95 -69.86,38.65 -15.78,-4.01 -30.96,-21.2 -26.73,-38.08 0.14,-0.55 0.28,-1.1 0.42,-1.65 -41.85,3.29 -83.42,12.09 -123.86,23.12 -10.71,32.12 -7.78,55.51 22.68,73.47 30.51,-20.29 82.47,-27.72 119.32,-35.29 42.78,-8.94 89.16,-10.25 127.58,13.64z"/>
 <path class="fil1" d="M2018.93 1628.28c4.92,-21.77 8.66,-43.75 11.08,-65.94 -42.47,-4.69 -87.47,2.69 -128.67,12.85 -29.03,24.76 -35.5,45.51 -11.91,76.48 42.2,-11.41 85.82,-20.41 129.5,-23.39z"/>
 <path class="fil1" d="M2180.53 1653.14c9.9,-10.66 10.39,-23.15 8.13,-37.15 -9.67,-14.46 -23.61,-27.17 -44.69,-37.03 -2.75,23.42 -11.01,32.8 -23.19,51.71 21.77,3.05 41.38,10.37 59.75,22.47z"/>
 <path class="fil1" d="M2031.48 1546.79c1.32,-16.35 1.98,-33.46 1.77,-51.38 -0.11,-9.77 5.86,-18.53 13.26,-24.44 -23.12,-1.58 -102.57,-0.19 -118.38,8.93 -40.09,23.11 -47.92,37.65 -20.51,77.74 22.09,-5.09 43.25,-8.77 63.48,-10.72 21.21,-2.05 41.34,-2.2 60.37,-0.13z"/>
 <path class="fil1" d="M2001.44 1813.81l0 46.2c0,4.32 -3.51,7.83 -7.83,7.83l-10.26 0.02c-2.87,0 -5.22,2.34 -5.22,5.22l0 29.7c0,2.9 2.32,5.22 5.22,5.22l46.5 0c7.9,0 15.08,-3.22 20.28,-8.42 5.2,-5.18 8.43,-12.37 8.43,-20.28l0 -83.12c-15.55,2.3 -33.03,7.29 -57.11,17.63z"/>
 <path class="fil1" d="M2158.4 1742.02c0.04,-3.51 -0.77,-6.3 -2.6,-7.53 -17.06,-11.49 -36.35,-17.06 -56.47,-18.72 -20.55,-1.69 -41.99,0.67 -62.89,5.04l-20.67 4.22c-39.1,7.93 -69.52,14.1 -90.86,27.31 4.95,23.71 12.18,42.2 21.11,56.74 10.64,17.33 22.48,28.13 39.76,38.17l0 -37.65c0,-3.25 2.56,-7.14 5.54,-8.45 53.88,-23.71 77.32,-23.03 112.94,-22 5.68,0.16 11.68,0.34 17.89,0.41 12.23,0.15 22.53,-7.72 29.01,-17.36 3.78,-5.27 7.15,-13.57 7.23,-20.21z"/>
 <path class="fil1" d="M2058.55 1456.41l0 -62.67c0,-15.8 -12.9,-28.7 -28.7,-28.7l-175.69 0c-6.5,17.6 -7.54,40.36 -0.26,57.98l146.66 0 0 31.95c20.65,-0.76 41.65,-0.45 57.99,1.43z"/>
 <path class="fil1" d="M1873.37 1352.18c-3.51,-8.92 -11.34,-23.78 -23.25,-23.78 -17.6,0 -28.2,36.64 -27.51,65.6 0.69,28.96 9.63,64.63 28.32,64.63 13.64,0 17.94,-11.37 22.44,-22.81l-11.68 0c-8.22,4.02 -16.76,-2.03 -21.07,-14.17 -7.66,-21.57 -5.34,-70.92 15.87,-70.64 1.65,0.02 3.67,0.49 5.15,1.17l11.74 0z"/>
 <path class="fil1" d="M1841.05 1328.4l-23.31 0c-36.74,0.13 -37.28,128.38 0,130.23 33.66,0 -10.35,0 23.31,0 -40.34,-9.46 -34.92,-126.05 0,-130.23z"/>
</symbol>
 <g id="Ebene_x0020_1">
  <metadata id="CorelCorpID_0Corel-Layer"/>
  <use id="ISO_x0020_7010_x0020_M037_0" transform="scale(0.571429 0.571429)" x="-0" y="-0" width="1750" height="1750" xlink:href="#ISO_x0020_7010_x0020_M037"/>
 </g>
</svg>
