<?xml version="1.0" encoding="UTF-8"?>
<!DOCTYPE svg PUBLIC "-//W3C//DTD SVG 1.1//EN" "http://www.w3.org/Graphics/SVG/1.1/DTD/svg11.dtd">
<!-- Creator: Corel DESIGNER -->
<svg xmlns="http://www.w3.org/2000/svg" xml:space="preserve" width="40mm" height="40mm" version="1.1" style="shape-rendering:geometricPrecision; text-rendering:geometricPrecision; image-rendering:optimizeQuality; fill-rule:evenodd; clip-rule:evenodd"
viewBox="0 0 1000 1000"
 xmlns:xlink="http://www.w3.org/1999/xlink"
 xmlns:xodm="http://www.corel.com/coreldraw/odm/2003">
 <defs>
  <style type="text/css">
   <![CDATA[
    .fil0m {fill:#004873}
    .fil1 {fill:white}
   ]]>
  </style>
 </defs>
<symbol id="ISO_x0020_7010_x0020_M040" viewBox="1125 -904.17 1750 1750">
 <circle class="fil0m" cx="2000" cy="-29.17" r="875"/>
 <polygon class="fil1" points="1983.38,-57.28 2015.82,-57.28 2015.82,202.95 2050.09,141.25 2078.84,156.29 1999.6,298.93 1920.36,156.29 1949.11,141.25 1983.38,202.95 "/>
 <path class="fil1" d="M1477.33 455.63c3.1,0.31 6.29,0.58 9.57,0.82 39.72,2.91 81.71,-2.33 124.97,-20.22 200.98,-83.09 252.29,19.67 385.72,20.51 133.33,0.84 184.58,-103.59 385.54,-20.51 47.49,19.63 94.35,24.48 140.2,18.68 -15.41,16.66 -31.61,32.57 -48.54,47.7 -35.93,-1.45 -72.33,-9.08 -108.98,-24.23 -182.06,-75.26 -222.11,24.82 -368.4,23.9 -146.25,-0.92 -186.16,-99.17 -368.22,-23.9 -35.04,14.48 -69.86,22.09 -104.26,24 -16.59,-14.84 -32.48,-30.44 -47.61,-46.75zm-86.78 -114.67c12.78,20.99 26.64,41.26 41.46,60.75 64.02,14.41 130.19,11.84 197.19,-15.86 182.06,-75.26 221.97,22.98 368.22,23.9 146.29,0.92 186.34,-99.16 368.4,-23.9 69.12,28.58 137.36,30.41 203.27,14.44 14.86,-19.66 28.73,-40.11 41.53,-61.28 -73.02,29.3 -149.39,36.98 -227.48,4.69 -200.97,-83.08 -252.19,21.35 -385.54,20.51 -133.42,-0.84 -184.74,-103.6 -385.72,-20.51 -43.26,17.88 -85.25,23.13 -124.97,20.22 -45.5,-3.33 -72.17,-13.15 -96.35,-22.97z"/>
 <path class="fil1" d="M2010.7 -255.06c-134.86,-4.44 -274.27,-48.2 -392.07,-132.44l-5.66 -4.03 0.39 -0.55c-24.51,3.71 -41.34,14.18 -38.16,45.59 15.3,19.87 32.92,34.42 52.09,44.34 20.93,10.84 43.76,16.23 67.46,17.11 2.26,0.08 4.23,1.23 5.43,2.94 12.35,17.58 27.37,28.63 45.51,34.17 18.57,5.68 40.67,5.76 66.71,1.32 2.99,-0.5 5.86,1 7.24,3.51 10.04,18.24 24.44,30.05 43.78,35 20.06,5.14 45.65,3.13 77.37,-6.43 1.88,-0.56 3.81,-0.29 5.4,0.61 22.52,10.69 43.49,15.01 62.27,14.25 20.29,-0.83 38.07,-7.61 52.44,-18.65 2.14,-1.66 4.95,-1.86 7.23,-0.78 24.53,10.99 45.32,12.83 63.86,8.94 18.72,-3.94 35.5,-13.78 51.66,-25.99 1.64,-1.24 3.65,-1.64 5.52,-1.28 26.12,3.31 46.31,0.74 63.35,-6.49 17.14,-7.26 31.43,-19.42 45.59,-35.14 1.63,-1.81 4.01,-2.57 6.26,-2.22 18.92,1.68 40.64,-0.1 60.18,-7.99 15.61,-6.29 29.83,-16.56 40.04,-32.18l0.51 -0.78c5.18,-28.05 -5.2,-37.23 -20.02,-43.25l-3.59 2.7c-100.55,75.93 -233.36,112.24 -370.79,107.72zm-269.02 20.41c-20.22,-6.18 -37.01,-18.05 -50.84,-36.67 -24.5,-1.32 -48.12,-7.19 -69.91,-18.47 -16.38,-8.48 -31.69,-20 -45.52,-34.93 -17.5,17.55 -1.27,68.15 17.57,90.28 50.73,59.62 94.37,87.05 187.95,114.08 116.04,33.52 248.23,52.61 422.28,4.19 64.47,-17.93 152.31,-62.39 200.45,-113.16 13.8,-14.55 11.79,-50.4 2.51,-71.65 -10.46,11.21 -23.02,19.19 -36.46,24.62 -20.7,8.35 -43.45,10.55 -63.58,9.14 -14.66,15.88 -29.83,28.29 -48.23,36.09 -18.73,7.94 -40.51,10.95 -68.12,7.75 -16.91,12.52 -34.72,22.56 -54.97,26.81 -20.32,4.27 -42.79,2.63 -68.77,-8.31 -15.97,11.3 -35.27,18.19 -57.04,19.07 -20.35,0.83 -42.85,-3.62 -66.77,-14.65 -33.01,9.64 -60.23,11.44 -82.25,5.79 -21.75,-5.57 -38.24,-18.19 -50.06,-37.47 -26.07,3.97 -48.67,3.47 -68.27,-2.52zm-114.99 -164.17c40.49,28.96 83.59,53.04 128.18,72.3 12.02,5.18 25.3,2.56 34.44,-6.81 40.79,-41.85 109.51,-126.07 126.59,-147.97 17.18,6.71 56.42,13.64 80.66,14.57 1.51,19.57 4.81,113.58 10.88,170.47 1.69,15.89 15.04,27.79 31.02,27.67 124.5,-0.91 243.34,-36.34 334.66,-105.29l0.47 -0.35c-8.51,-11.59 -24.82,-24.62 -49.11,-42.42 -51.4,-37.65 -102.75,-88.63 -154.55,-138.76 -36.59,-35.41 -93.42,-51.13 -154.1,-54.48l0 -135.95 -32.44 0 0 135.55 -12.93 0.23c-65.58,3.43 -106.65,23.18 -127.84,36.07 -70.02,42.6 -159.14,112.83 -207.16,151.91 -7.8,6.35 -11.38,13.78 -12.52,20.59l3.76 2.68z"/>
</symbol>
 <g id="Ebene_x0020_1">
  <metadata id="CorelCorpID_0Corel-Layer"/>
  <use id="ISO_x0020_7010_x0020_M040_0" transform="scale(0.571429 0.571429)" x="-0" y="-0" width="1750" height="1750" xlink:href="#ISO_x0020_7010_x0020_M040"/>
 </g>
</svg>
