<?xml version="1.0" encoding="UTF-8"?>
<!DOCTYPE svg PUBLIC "-//W3C//DTD SVG 1.1//EN" "http://www.w3.org/Graphics/SVG/1.1/DTD/svg11.dtd">
<!-- Creator: Corel DESIGNER -->
<svg xmlns="http://www.w3.org/2000/svg" xml:space="preserve" width="40mm" height="40mm" version="1.1" style="shape-rendering:geometricPrecision; text-rendering:geometricPrecision; image-rendering:optimizeQuality; fill-rule:evenodd; clip-rule:evenodd"
viewBox="0 0 4000 4000"
 xmlns:xlink="http://www.w3.org/1999/xlink"
 xmlns:xodm="http://www.corel.com/coreldraw/odm/2003">
 <defs>
  <style type="text/css">
   <![CDATA[
    .fil0m {fill:#004873}
    .fil1 {fill:white}
   ]]>
  </style>
 </defs>
<symbol id="ISO_x0020_7010_x0020_M044" viewBox="-1500 -9850 7000 7000">
 <circle class="fil0m" cx="2000" cy="-6350" r="3500"/>
 <path class="fil1" d="M2202.58 -6956.88c-49.21,332.9 -150.67,640.71 -318.36,927.87 320.94,-41.79 708.75,-12.46 982.97,48.79 475.48,106.21 1046.48,-267.78 839.34,-920.21 -23.01,-64.04 7.38,-134.26 68.18,-162.01l552.9 -253.11 -341.2 -504.63 -440.66 419.02c-51.32,48.75 -132.02,47.45 -181.74,-2.35 -185.55,-172.82 -473.74,-212.78 -706.75,-126.02 -253.61,94.42 -410.76,296.35 -454.68,572.65zm-410.05 527.48c67.7,-164.63 128.94,-382.43 152.72,-568.12 90.57,-707.35 914.13,-1075.32 1502.21,-669.49l487.79 -461.74c59.68,-40.35 140.79,-24.68 181.15,35l513.29 759.63c44.48,65.78 19.09,158.01 -53.66,191.3l-591.38 270.38c154.16,684 -472.52,1335.64 -1180.18,1144.79 -330.89,-89.24 -944.75,-35.74 -1168.01,13.28 -121.74,26.73 -215.92,-104.3 -139.22,-204.01 124.06,-161.66 221.43,-331.35 295.29,-511.02z"/>
 <polygon class="fil1" points="997.2,-5519.9 -12.76,-4837.03 -98.85,-4964.36 -213.03,-4613.14 155.45,-4588.26 69.35,-4715.59 1079.3,-5398.46 "/>
 <polygon class="fil1" points="940.29,-5800.74 -275.79,-5714.34 -286.69,-5867.66 -561.18,-5620.58 -254.51,-5414.79 -265.41,-5568.11 950.67,-5654.52 "/>
 <polygon class="fil1" points="1318.74,-5241 785.53,-4144.65 923.76,-4077.42 592.2,-3914.73 515.47,-4275.99 653.7,-4208.76 1186.92,-5305.12 "/>
 <path class="fil1" d="M1872.93 -7289.31c-59.88,180.7 -95.7,570.01 -202.54,821.65 7.95,-331.48 24.06,-554.5 50.92,-772.57 90.6,-734.96 810.54,-1367.01 1571.49,-920.93l368.21 -348.82c53.98,-36.5 130.53,-17.65 170.84,41.97l97.96 144.9 -173.88 164.24 -33.47 -49.51 -271.14 272.34c-45.81,45.02 -112.08,29.16 -169.97,-10.32 -369.26,-251.93 -1153.23,-113.02 -1408.42,657.05z"/>
</symbol>
 <g id="Ebene_x0020_1">
  <metadata id="CorelCorpID_0Corel-Layer"/>
  <use id="ISO_x0020_7010_x0020_M044_0" transform="scale(0.571429 0.571429)" x="-0" y="-0" width="7000" height="7000" xlink:href="#ISO_x0020_7010_x0020_M044"/>
 </g>
</svg>
