<?xml version="1.0" encoding="UTF-8"?>
<!DOCTYPE svg PUBLIC "-//W3C//DTD SVG 1.1//EN" "http://www.w3.org/Graphics/SVG/1.1/DTD/svg11.dtd">
<!-- Creator: Corel DESIGNER -->
<svg xmlns="http://www.w3.org/2000/svg" xml:space="preserve" width="40mm" height="40mm" version="1.1" style="shape-rendering:geometricPrecision; text-rendering:geometricPrecision; image-rendering:optimizeQuality; fill-rule:evenodd; clip-rule:evenodd"
viewBox="0 0 1000 1000"
 xmlns:xlink="http://www.w3.org/1999/xlink"
 xmlns:xodm="http://www.corel.com/coreldraw/odm/2003">
 <defs>
  <style type="text/css">
   <![CDATA[
    .fil0m {fill:#004873}
    .fil1 {fill:white}
   ]]>
  </style>
 </defs>
<symbol id="ISO_x0020_7010_x0020_M045" viewBox="1125 2212.5 1750 1750">
 <circle class="fil0m" cx="2000" cy="3087.5" r="875"/>
 <path class="fil1" d="M2002.69 2778.01c25.35,-4.42 32.1,34.08 6.73,38.53 -25.51,4.47 -50.4,12.3 -73.74,22.99 -23.3,10.68 -39.57,-24.76 -16.2,-35.47 26.85,-12.3 54.35,-20.95 83.21,-26.05zm-295.42 316.12l83.77 -96.18 29.97 26.11 5.21 -95.37 -93.75 18.26 29.98 26.11 -83.77 96.18 28.59 24.9zm60.64 675.67c19.77,6.72 39.93,12.57 60.43,17.58l-310.01 -435.35c-75.6,-106.17 -83.37,-229.16 -0.45,-331.26l488.59 -601.63c26.68,-32.85 117.54,24.61 39.57,85.41 -103.78,80.92 -197.97,165.46 -279.76,282.5 -28.15,40.28 -169.39,248.6 -162.78,300.7 3.3,26.04 28.5,47.79 10.15,65.54 -53.68,48.49 -39.08,95.72 -6,148.92 3.35,5.39 6.54,10.51 8.54,14.17 22.49,41.06 101.63,137.43 139.84,168.5 52.34,42.57 67.41,107.24 104.74,109.39 23.51,1.36 30.85,-7.25 30.66,-3.97 -0.06,1.02 -16.86,10.95 -21.91,26.07 -22.24,66.47 41.48,121.45 60.23,188.22 13.51,1.31 27.12,2.22 40.84,2.77 -15.49,-77.55 -79.88,-131.14 -64.08,-178.61 0.13,-0.41 1.73,-2.47 3.56,-3.37 57.28,57.51 185.03,63.75 251.74,48.75 180.18,-40.52 265.66,-144.56 343.21,-304.92 54.4,-112.48 38.53,-381.11 -36.22,-484.07 -32.96,-45.4 -75.99,-70.6 -133.43,-34.93 -40.91,25.4 -200.17,103.8 -261.67,103.8 -60.79,0 -119.66,-23.92 -164.71,-64.45 26.85,-56.59 -46.36,-108.85 -91.05,-64.17 -44.24,44.24 6.57,116.97 63.13,91.53 52.36,47.91 121.5,76.22 192.63,76.22 70.24,0 233.56,-79.5 282.31,-109.77 37.39,-23.22 59.05,-5.74 81.15,24.7 66.37,91.43 80.8,344.71 32.7,444.17 -72.5,149.91 -149.27,246.2 -316.61,283.82 -54.41,12.23 -180.09,8.45 -221.38,-44.83 -5.54,-7.15 4.16,-31.77 -68.96,-35.96 -1.33,-0.08 -9.44,-12 -20.19,-27.84 -15.06,-22.16 -33.97,-49.98 -62.08,-72.85 -17.12,-13.92 -43.45,-42.59 -68.43,-72.7 -42.67,-51.42 -47.57,-62.05 -71.38,-100.34 -22.14,-35.61 -35.25,-66.32 0.04,-100.31 31.88,-30.84 19.38,-57.25 7.84,-81.59 -3.07,-6.5 -6.05,-12.77 -6.55,-16.74 -2.33,-37.36 136,-244.86 156.06,-273.57 71.2,-101.89 154.54,-180.57 244.98,-252.91l0 353.62c0,25.76 39.14,25.76 39.14,0l0 -385.34c99.14,-92.65 -44.3,-206.36 -106.15,-130.2l-488.59 601.62c-94.15,115.93 -86.78,258.15 -1.08,378.5l281.38 395.15zm77.42 -916.98c15.17,-16.14 42.02,8.28 25.1,25.09 -16.8,16.68 -40.35,-8.86 -25.1,-25.09zm412.46 -18.15c20.96,14.64 -1.39,46.59 -22.32,31.95 -33.81,-23.65 -72.78,-40.43 -113.25,-48.67 -25.15,-5.12 -17.37,-43.35 7.8,-38.22 46.28,9.42 89.07,27.82 127.78,54.94zm105.68 300.42c4.38,-66.15 -12.44,-131.16 -48.8,-186.68 -14.09,-21.51 18.61,-42.95 32.72,-21.4 41.62,63.55 61,139.18 54.68,214.98 13.06,2.22 26.55,4.42 40.47,6.58 2.36,84.23 -6.92,167.16 -42.99,208.68 -94.26,108.51 -206.2,178.57 -320.26,227.74 -10.94,4.72 -22.11,4.72 -33.05,0 -114.06,-49.17 -225.99,-119.23 -320.26,-227.74 -36.07,-41.52 -45.34,-124.45 -42.99,-208.68 224.38,-34.77 335.95,-79.01 372.31,-116.27 4.12,-4.22 10.82,-4.22 14.93,0 31.8,32.59 121.16,70.52 293.24,102.79z"/>
</symbol>
 <g id="Ebene_x0020_1">
  <metadata id="CorelCorpID_0Corel-Layer"/>
  <use id="ISO_x0020_7010_x0020_M045_0" transform="scale(0.571429 0.571429)" x="-0" y="-0" width="1750" height="1750" xlink:href="#ISO_x0020_7010_x0020_M045"/>
 </g>
</svg>
