<?xml version="1.0" encoding="UTF-8"?>
<!DOCTYPE svg PUBLIC "-//W3C//DTD SVG 1.1//EN" "http://www.w3.org/Graphics/SVG/1.1/DTD/svg11.dtd">
<!-- Creator: Corel DESIGNER -->
<svg xmlns="http://www.w3.org/2000/svg" xml:space="preserve" width="40mm" height="40mm" version="1.1" style="shape-rendering:geometricPrecision; text-rendering:geometricPrecision; image-rendering:optimizeQuality; fill-rule:evenodd; clip-rule:evenodd"
viewBox="0 0 1000 1000"
 xmlns:xlink="http://www.w3.org/1999/xlink"
 xmlns:xodm="http://www.corel.com/coreldraw/odm/2003">
 <defs>
  <style type="text/css">
   <![CDATA[
    .fil0m {fill:#004873}
    .fil1 {fill:white}
   ]]>
  </style>
 </defs>
<symbol id="ISO_x0020_7010_x0020_M051" viewBox="1125 -904.17 1750 1750">
 <circle class="fil0m" cx="2000" cy="-29.17" r="875"/>
 <path id="Thigh" class="fil1" d="M2289.17 -108.66l-191.24 -103.81 47.27 -236.91 109.69 125.7c4.23,4.85 9.57,8.57 15.49,10.88l183.93 71.64c20.36,7.93 43.51,-2.18 51.47,-22.53 7.96,-20.35 -2.17,-43.54 -22.53,-51.47l-174.92 -68.13 -123.29 -141.29c-6.01,-6.89 -13.91,-11.2 -22.28,-12.84l-179.01 -35.72c-8.26,-1.68 -17.11,-0.77 -25.24,3.18l-177.56 86.23c-14.32,6.96 -22.4,21.29 -22.3,36.38l2.64 197.38c0.3,21.85 18.46,39.46 40.31,39.14 21.85,-0.32 39.43,-18.46 39.14,-40.31l-2.3 -172.17 127.81 -62.07 -53.85 269.88c-1,5 -1.13,9.97 -0.5,14.77l8.04 240.2 -64.78 235.54c-8.18,29.74 12.2,51.23 32,55.74 19.8,4.51 47.29,0.16 56,-31.54l66.63 -242.24c1.2,-4.38 1.76,-9.09 1.61,-13.63l-6.49 -193.85 25.13 5.02 192.44 104.45 5.86 224.81c0.65,24.88 21.71,44.78 46.8,44.05 22.14,-0.64 45.17,-18.24 44.44,-46.43l-6.55 -251.15c-0.42,-16.06 -9.73,-31.26 -23.85,-38.92zm-117.03 -531.07c8.7,-43.57 -19.58,-85.94 -63.15,-94.63 -43.57,-8.69 -85.94,19.58 -94.64,63.15 -8.69,43.57 19.58,85.94 63.16,94.63 43.57,8.69 85.94,-19.58 94.63,-63.15z"/>
 <path class="fil1" d="M1690.89 202.41c0,-12.84 10.41,-23.25 23.25,-23.25 12.84,0 23.25,10.41 23.25,23.25l0 125.87c0,16.21 13.27,29.48 29.47,29.48l289.81 0c16.2,0 29.47,-13.27 29.47,-29.48l0 -125.87c0,-12.84 10.41,-23.25 23.25,-23.25 12.84,0 23.25,10.41 23.25,23.25l0 125.87c0,41.88 -34.1,75.98 -75.98,75.98l-289.81 0c-41.88,0 -75.98,-34.1 -75.98,-75.98l0 -125.87z"/>
 <path class="fil1" d="M2564.07 41.5l-70.67 70.67 69.71 0 102 -102 -102 -102 -69.71 0 70.67 70.67c-65.95,0 -68.49,0 -134.43,0l0 62.65c65.95,0 68.48,0 134.43,0z"/>
 <path class="fil1" d="M1446.14 427.08l1107.41 0c-16.34,19.88 -33.74,38.84 -52.09,56.84l-1003.23 0c-18.35,-18 -35.76,-36.96 -52.09,-56.84z"/>
</symbol>
 <g id="Ebene_x0020_1">
  <metadata id="CorelCorpID_0Corel-Layer"/>
  <use id="ISO_x0020_7010_x0020_M052" transform="scale(0.571429 0.571429)" x="-0" y="-0" width="1750" height="1750" xlink:href="#ISO_x0020_7010_x0020_M051"/>
 </g>
</svg>
