<?xml version="1.0" encoding="UTF-8"?>
<!DOCTYPE svg PUBLIC "-//W3C//DTD SVG 1.1//EN" "http://www.w3.org/Graphics/SVG/1.1/DTD/svg11.dtd">
<!-- Creator: Corel DESIGNER -->
<svg xmlns="http://www.w3.org/2000/svg" xml:space="preserve" width="40mm" height="40mm" version="1.1" style="shape-rendering:geometricPrecision; text-rendering:geometricPrecision; image-rendering:optimizeQuality; fill-rule:evenodd; clip-rule:evenodd"
viewBox="0 0 2000 2000"
 xmlns:xlink="http://www.w3.org/1999/xlink"
 xmlns:xodm="http://www.corel.com/coreldraw/odm/2003">
 <defs>
  <style type="text/css">
   <![CDATA[
    .fil0m {fill:#004873}
    .fil1 {fill:white}
   ]]>
  </style>
 </defs>
<symbol id="ISO_x0020_7010_x0020_M053" viewBox="-3750 -1808.34 3500 3500">
 <circle class="fil0m" cx="-2000" cy="-58.34" r="1750"/>
 <path class="fil1" d="M-1727.16 -1214.69c0,240.91 -292.66,362.38 -463.18,191.85 -170.52,-170.53 -49.06,-463.18 191.85,-463.18 149.84,0 271.33,121.49 271.33,271.33zm-50 0c0,-196.57 -238.76,-295.57 -377.83,-156.5 -139.06,139.06 -40.07,377.83 156.5,377.83 122.25,0 221.33,-99.09 221.33,-221.33zm-694.13 1699.32c0,26.19 21.43,47.62 47.62,47.62l32.78 0 -216.36 697.22c15.07,7.26 30.35,14.19 45.71,20.93l222.86 -718.15 240.39 0 -246.18 793.3c16.09,4.14 32.34,7.9 48.64,11.49l249.75 -804.79 97.61 0 250.99 808.81c16.38,-3.38 32.62,-7.1 48.78,-11.04l-247.57 -797.77 240.4 0 225.22 725.74c15.44,-6.53 30.69,-13.42 45.85,-20.48l-218.86 -705.25 37.25 0c26.19,0 47.62,-21.43 47.62,-47.62l0 -691.97c102.07,193.97 208.93,388.4 308.41,578.31 36.98,70.59 122.85,102.47 195.5,67.16 60.82,-22.98 106.5,-116 67.91,-195.75 -144.02,-299.13 -317.87,-607.13 -473.25,-903.41 18.13,-22.81 28.43,-48.94 28.43,-76.72 0,-89.14 -106.02,-161.4 -236.8,-161.4 -118.94,0 -217.38,59.77 -234.24,137.64l-132.21 132.21 -132.22 -132.21c-16.86,-77.87 -115.3,-137.64 -234.24,-137.64 -130.78,0 -236.8,72.26 -236.8,161.4 0,28.21 10.62,54.73 29.29,77.8l-453.66 890.39c-35.1,78.16 -7.82,160.2 64.39,197.13 71.91,36.5 160.45,7.5 197.04,-64.31l289.94 -569.1 0 690.48zm0 -1079.36l0 278.96 -334.47 656.37c-33.38,65.51 -114.41,57.31 -130.09,42.38 -47.26,-24.08 -66.39,-82.51 -42.37,-129.84l447.45 -878.05c17.31,12.06 37.36,22.28 59.48,30.19zm952.51 279.74l0 -279.74c22.67,-8.11 43.18,-18.64 60.79,-31.1l465.78 889.21c23.53,47.52 3.6,107.29 -44.35,129.84 -48.5,23.57 -105.12,1.6 -129.68,-45.29 -113.96,-217.56 -237.55,-441 -352.55,-662.91z"/>
</symbol>
 <g id="Ebene_x0020_1">
  <metadata id="CorelCorpID_0Corel-Layer"/>
  <use id="ISO_x0020_7010_x0020_M053_0" transform="scale(0.571429 0.571429)" x="-0" y="-0" width="3500" height="3500" xlink:href="#ISO_x0020_7010_x0020_M053"/>
 </g>
</svg>
