<?xml version="1.0" encoding="UTF-8"?>
<!DOCTYPE svg PUBLIC "-//W3C//DTD SVG 1.1//EN" "http://www.w3.org/Graphics/SVG/1.1/DTD/svg11.dtd">
<!-- Creator: Corel DESIGNER -->
<svg xmlns="http://www.w3.org/2000/svg" xml:space="preserve" width="40mm" height="40mm" version="1.1" style="shape-rendering:geometricPrecision; text-rendering:geometricPrecision; image-rendering:optimizeQuality; fill-rule:evenodd; clip-rule:evenodd"
viewBox="0 0 4000 4000"
 xmlns:xlink="http://www.w3.org/1999/xlink"
 xmlns:xodm="http://www.corel.com/coreldraw/odm/2003">
 <defs>
  <style type="text/css">
   <![CDATA[
    .fil0m {fill:#004873}
    .fil1 {fill:white}
   ]]>
  </style>
 </defs>
<symbol id="ISO_x0020_7010_x0020_M055" viewBox="-1500 -9850 7000 7000">
 <path class="fil0m" d="M5500 -6350c0,-1933 -1567,-3500 -3500,-3500 -1933,0 -3500,1567 -3500,3500 0,1933 1567,3500 3500,3500 1933,0 3500,-1567 3500,-3500z"/>
 <path class="fil1" d="M1430.51 -8711.58c0,-211.18 -171.2,-382.39 -382.39,-382.39 -211.2,0 -382.4,171.21 -382.4,382.39 0,211.2 171.2,382.39 382.4,382.39 211.19,0 382.39,-171.19 382.39,-382.39zm-1060.09 4573.8c81.3,-783.82 162.61,-1567.61 243.91,-2351.44l-0.04 -788.5 -283.25 1105.08c-25.79,100.61 -128.99,161.99 -229.64,136.35 -100.63,-25.67 -162.12,-129.02 -136.33,-229.64 155.31,-605.92 310.62,-1211.84 465.94,-1817.76 21.82,-85.13 99.05,-142.16 183.28,-142.17l867.65 -0.09c33.65,0 63.45,8.02 92.96,24.07l749.23 420.35 827.24 -235.45c99.9,-28.43 204.82,30.31 233.14,130.22 28.3,99.95 -30.35,204.72 -130.24,233.16l-902.43 256.85c-49.84,13.55 -98.32,7.95 -143.9,-16.92l-726 -407.31 0 1317.36 275.85 2359.63c14.02,119.97 -81.44,232.52 -190.48,238.87 -118.49,13.85 -226.69,-70.97 -240.41,-188.49 -85.02,-727.29 -170.03,-1454.59 -255.05,-2181.89l-43.55 0c-75.46,727.49 -150.9,1454.99 -226.36,2182.48 -12.21,117.7 -119.3,203.93 -237.96,191.63 -118.66,-12.31 -205.76,-118.69 -193.56,-236.39z"/>
 <polygon class="fil1" points="2800.09,-8753.43 3646.97,-8753.43 3646.97,-8197.8 2800.09,-8197.8 "/>
 <polygon class="fil1" points="1994.85,-8718.97 2306.97,-9205.95 2619.09,-8718.97 2512.4,-8653.56 2369.54,-8876.46 2369.54,-8327.11 2244.4,-8327.11 2244.4,-8876.46 2101.53,-8653.56 "/>
 <path class="fil1" d="M3598.47 -6046.28l275.92 -323.87c22.51,-26.42 34.09,-58.61 35.21,-90.98l27.46 -472.78c4.74,-81.73 -58.11,-157.24 -139.98,-157.24 -80.55,0 -152.43,57.06 -157.24,139.97l-24.75 426.35 -208.51 244.85 -642.42 0 -439.05 154.67 -371.72 -162.69c-74.99,-32.83 -163.22,1.67 -196.05,76.68 -32.69,74.69 1.97,163.36 76.68,196.05l418.01 182.96c36.01,18.01 77.74,21.03 116.15,7.48l395.98 -139.7 0 773.39 -121.36 1076.01c-10.71,94.99 58.24,181.47 153.23,192.19 92.6,0 181.22,-55.77 192.21,-153.23l125.74 -1114.97 5.87 0 302.5 459.95 -15.34 556.08c-2.63,95.56 73.34,178.54 168.95,178.54 94.88,0 175.88,-72.69 178.54,-168.95 1.42,-51.55 17.07,-618.9 17.07,-618.9 -0.63,-31.6 -9.82,-63.37 -28.39,-91.59l-280.01 -425.75 0 -693.86c49.13,7.15 100.88,-10.27 135.3,-50.66zm-165.48 -640.42c0,-176.36 -142.96,-319.32 -319.31,-319.32 -176.36,0 -319.32,142.96 -319.32,319.32 0,176.36 142.96,319.31 319.32,319.31 176.35,0 319.31,-142.95 319.31,-319.31z"/>
</symbol>
 <g id="Ebene_x0020_1">
  <metadata id="CorelCorpID_0Corel-Layer"/>
  <use id="ISO_x0020_7010_x0020_M055_0" transform="scale(0.571429 0.571429)" x="-0" y="-0" width="7000" height="7000" xlink:href="#ISO_x0020_7010_x0020_M055"/>
 </g>
</svg>
