<?xml version="1.0" encoding="UTF-8"?>
<!DOCTYPE svg PUBLIC "-//W3C//DTD SVG 1.1//EN" "http://www.w3.org/Graphics/SVG/1.1/DTD/svg11.dtd">
<!-- Creator: Corel DESIGNER -->
<svg xmlns="http://www.w3.org/2000/svg" xml:space="preserve" width="40mm" height="40mm" version="1.1" style="shape-rendering:geometricPrecision; text-rendering:geometricPrecision; image-rendering:optimizeQuality; fill-rule:evenodd; clip-rule:evenodd"
viewBox="0 0 2000 2000"
 xmlns:xlink="http://www.w3.org/1999/xlink"
 xmlns:xodm="http://www.corel.com/coreldraw/odm/2003">
 <defs>
  <style type="text/css">
   <![CDATA[
    .fil1p {fill:#0E1313}
    .fil2p {fill:#A1262D}
    .fil0p {fill:white}
   ]]>
  </style>
 </defs>
<symbol id="ISO_x0020_7010_x0020_P006" viewBox="-3750 1308.33 3500 3500">
 <circle class="fil0p" cx="-2000" cy="3058.33" r="1575"/>
 <path class="fil1p" d="M-1461.49 2417.59c40.22,-27.46 50.75,-82.06 23.52,-121.95 -27.23,-39.89 -81.92,-49.97 -122.14,-22.51 -40.23,27.46 -50.76,82.06 -23.52,121.95 27.23,39.89 81.92,49.97 122.14,22.51zm116.9 1073.1c-54.12,-1.45 -99.15,40.66 -100.59,94.07 -1.44,53.41 41.26,97.89 95.38,99.35 54.12,1.46 99.15,-40.66 100.59,-94.07 1.44,-53.41 -41.26,-97.89 -95.38,-99.36zm-473.69 -366.01l76.32 -217.03 50.15 0.07 0 216.96 -126.47 0zm46.36 -320.51c-23.83,-3 -47.25,11.24 -55.54,34.78l-89.29 253.87c-3.75,10.67 -3.63,21.78 -0.45,31.86l-259.29 0 271.87 -389.84 34.72 42.32c9.67,11.78 27.68,12.47 37.53,3.49 11.29,-9.36 12.79,-26.2 3.5,-37.53l-37.88 -46.16 211.73 57.82c36.7,6.89 48.4,-28.05 61.02,-52.24l0 101.84 -177.92 -0.22zm102.9 -140.88l-180.28 -49.34c-22.46,-6.14 -45.77,7.81 -51.62,30.34 -0.82,3.14 -1.26,6.29 -1.34,9.4l-33.58 -40.92c-9.3,-11.34 -26.26,-12.86 -37.54,-3.5 -4.63,1.67 -16.92,21.36 -3.5,37.53l40.23 49.04 -299.06 428.84 -16.16 0 361.42 -926.66c9.97,-25.57 24.56,-37.33 54.45,-37.33l431.24 0c26.18,0 45.18,12.2 45.18,41.72l0 645.57 -70.93 0 0 -307.94c0,-44.97 -36.78,-81.76 -81.76,-81.76 -26.45,0 -58.71,16.33 -71.01,40.49l-85.77 164.52zm-745.47 602.29l-102.09 -0.05 545.53 -1399.22 -109.54 -42.7 -685.51 1758.27 -295.76 -115.32 -42.7 109.53 405.29 158.02 56.87 -145.86 186.31 0.07c0.52,106.93 85.89,198.19 196.08,197.85 110.13,-0.34 205.22,-99.11 206.72,-193.34l0.07 -4.51 504.65 0c1.62,89.7 86.1,194.89 196.03,197.85 109.93,2.97 203.77,-83.56 206.73,-193.34 0.03,-1.5 0.05,-3.01 0.05,-4.51l268.39 0 0.76 -558.74c0.18,-131.09 -80.74,-181.22 -196.45,-181.36l-177.87 -0.23 0 -606.65c0,-111.07 -52.42,-184.26 -167.15,-184.26l-407.68 0c-64.54,0 -128.39,24.93 -153.76,90.03l-294.55 755.63 -140.41 362.85zm162.44 225.11c-54.11,-1.45 -99.15,40.66 -100.59,94.07 -1.43,53.41 41.26,97.89 95.38,99.35 54.11,1.46 99.14,-40.66 100.59,-94.07 1.43,-53.41 -41.26,-97.89 -95.38,-99.36z"/>
 <path class="fil2p" d="M-601.73 3058.33c0,-772.24 -626.03,-1398.27 -1398.27,-1398.27 -336.84,0 -645.85,119.11 -887.22,317.51l1972.76 1962.04c195.5,-240.5 312.73,-547.18 312.73,-881.28zm-2483.81 -881.28c-195.49,240.51 -312.73,547.18 -312.73,881.28 0,772.24 626.03,1398.27 1398.27,1398.27 336.84,0 645.84,-119.12 887.22,-317.52l-1972.76 -1962.03zm2835.54 881.28c0,-966.5 -783.5,-1750 -1750,-1750 -966.5,0 -1750,783.5 -1750,1750 0,966.5 783.5,1750 1750,1750 966.5,0 1750,-783.5 1750,-1750z"/>
</symbol>
 <g id="Ebene_x0020_1">
  <metadata id="CorelCorpID_0Corel-Layer"/>
  <use id="ISO_x0020_7010_x0020_P006_0" transform="scale(0.571429 0.571429)" x="-0" y="-0" width="3500" height="3500" xlink:href="#ISO_x0020_7010_x0020_P006"/>
 </g>
</svg>
