<?xml version="1.0" encoding="UTF-8"?>
<!DOCTYPE svg PUBLIC "-//W3C//DTD SVG 1.1//EN" "http://www.w3.org/Graphics/SVG/1.1/DTD/svg11.dtd">
<!-- Creator: Corel DESIGNER -->
<svg xmlns="http://www.w3.org/2000/svg" xml:space="preserve" width="40mm" height="40mm" version="1.1" style="shape-rendering:geometricPrecision; text-rendering:geometricPrecision; image-rendering:optimizeQuality; fill-rule:evenodd; clip-rule:evenodd"
viewBox="0 0 4000 4000"
 xmlns:xlink="http://www.w3.org/1999/xlink"
 xmlns:xodm="http://www.corel.com/coreldraw/odm/2003">
 <defs>
  <style type="text/css">
   <![CDATA[
    .fil1p {fill:#0E1313}
    .fil2p {fill:#A1262D}
    .fil0p {fill:white}
   ]]>
  </style>
 </defs>
<symbol id="ISO_x0020_7010_x0020_P008" viewBox="-1500 -3616.67 7000 7000">
 <circle class="fil0p" cx="2000" cy="-116.67" r="3150"/>
 <path class="fil1p" d="M1486.07 1477.85c2.33,-67.57 -50.58,-124.04 -118.14,-126.1 -67.55,-2.07 -124.23,51.06 -126.55,118.62 -2.33,67.57 50.58,124.03 118.14,126.1 67.55,2.07 124.23,-51.06 126.55,-118.62zm-1472.63 -1627.64l1077.17 1042.63c-0.01,0.01 68.56,-30.2 165.67,-29.1 267.36,3.03 484.2,216.82 484.2,484.2 0,267.37 -216.82,484.19 -484.2,484.19 -267.36,0 -484.19,-216.82 -484.19,-484.19 0,-94.97 19.4,-147.81 59.94,-228.24l-261.78 -254.99 -30.9 -290.28 -303.55 -84.09 -96.85 -275 -258.21 -23.41 -82.29 -301.02 214.99 -40.7z"/>
 <path class="fil1p" d="M3867.06 -76.54c0,-584.42 -473.77,-1058.19 -1058.19,-1058.19 -584.42,0 -1058.19,473.77 -1058.19,1058.19 0,584.43 473.77,1058.2 1058.19,1058.2 584.42,0 1058.19,-473.77 1058.19,-1058.2zm-699.44 -2168.45c-220.55,-121.24 -461.96,-209.15 -717.49,-257.08l0 1218.33c-532.78,158.1 -900.33,649.26 -900.33,1207.2 0,557.95 367.55,1049.11 900.33,1207.21l0 1138.06c255.51,-47.95 496.95,-135.83 717.49,-257.08l0 -880.98c474.16,-140.74 824.65,-549.7 889.43,-1041.12l87.19 0 0 -332.18 -87.19 0c-64.79,-491.42 -415.26,-900.37 -889.43,-1041.11l0 -961.25zm-772.35 1706.45l277.34 409.02c-6.39,16.44 -9.9,34.3 -9.9,52.98 0,80.72 65.45,146.16 146.16,146.16 80.71,0 146.15,-65.44 146.15,-146.16 0,-29.13 -8.53,-56.27 -23.23,-79.07l515.71 -584.54 -59.78 -52.75 -515.7 584.52c-18.76,-9 -39.77,-14.13 -61.93,-14.31l-277.36 -409.06 -137.46 93.21z"/>
 <path class="fil2p" d="M4796.54 -116.67c0,-1544.49 -1252.05,-2796.54 -2796.54,-2796.54 -673.67,0 -1291.7,238.22 -1774.43,635.02l3945.51 3924.07c391,-481 625.46,-1094.36 625.46,-1762.55zm-4967.62 -1762.55c-390.98,481.01 -625.46,1094.36 -625.46,1762.55 0,1544.49 1252.05,2796.54 2796.54,2796.54 673.67,0 1291.67,-238.25 1774.43,-635.03l-3945.51 -3924.06zm5671.08 1762.55c0,-1933 -1567,-3500 -3500,-3500 -1933,0 -3500,1567 -3500,3500 0,1933 1567,3500 3500,3500 1933,0 3500,-1567 3500,-3500z"/>
</symbol>
 <g id="Ebene_x0020_1">
  <metadata id="CorelCorpID_0Corel-Layer"/>
  <use id="ISO_x0020_7010_x0020_P008_0" transform="scale(0.571429 0.571429)" x="-0" y="-0" width="7000" height="7000" xlink:href="#ISO_x0020_7010_x0020_P008"/>
 </g>
</svg>
