<?xml version="1.0" encoding="UTF-8"?>
<!DOCTYPE svg PUBLIC "-//W3C//DTD SVG 1.1//EN" "http://www.w3.org/Graphics/SVG/1.1/DTD/svg11.dtd">
<!-- Creator: Corel DESIGNER -->
<svg xmlns="http://www.w3.org/2000/svg" xml:space="preserve" width="40mm" height="40mm" version="1.1" style="shape-rendering:geometricPrecision; text-rendering:geometricPrecision; image-rendering:optimizeQuality; fill-rule:evenodd; clip-rule:evenodd"
viewBox="0 0 2000 2000"
 xmlns:xlink="http://www.w3.org/1999/xlink"
 xmlns:xodm="http://www.corel.com/coreldraw/odm/2003">
 <defs>
  <style type="text/css">
   <![CDATA[
    .fil1p {fill:#0E1313}
    .fil2p {fill:#A1262D}
    .fil0p {fill:white}
   ]]>
  </style>
 </defs>
<symbol id="ISO_x0020_7010_x0020_P009" viewBox="-3750 -1808.34 3500 3500">
 <circle class="fil0p" cx="-2000" cy="-58.34" r="1575"/>
 <path class="fil1p" d="M-1411.28 -1146.43l-56.23 0 0 72.77 -1061.64 0 0 -72.77 -56.22 0 0 2176.2 56.22 0 0 -122.37 1061.64 0 0 122.37 56.23 0 0 -2176.2zm-56.23 128.99l0 328.75 -257.01 0c-3.1,19.98 -9.62,38.96 -19.01,56.23l276.02 0 0 328.75 -1061.64 0 0 -328.75 481.25 0c-9.31,-17.1 -15.86,-36.02 -19.01,-56.23l-462.24 0 0 -328.75 1061.64 0zm0 769.94l0 328.74 -1061.64 0 0 -328.74 1061.64 0zm0 384.97l0 328.75 -1061.64 0 0 -328.75 1061.64 0zm0 384.97l0 328.75 -1061.64 0 0 -328.75 1061.64 0z"/>
 <path class="fil1p" d="M-1657.1 -740.9l-151.81 198.57 -225.17 -22.51 -217.22 -136.38 96.38 -241.98c28.68,-71.99 -80.76,-115.58 -109.44,-43.6l-115.04 288.81c-13.89,34.88 4.64,63.09 30.7,74.72 48.99,26.15 248.06,163.7 277.52,169.59l-39.09 402.9 -279.66 221.25c-22.24,17.62 -34.13,49.44 -36,70.73l-31.02 351.03c-7.61,86.14 123.34,98.34 130.96,12.16l30.1 -340.65 261.41 -207.14c7.09,-5.62 12.52,-11.78 16.54,-18.25l52.4 5.24 57.26 387.51 7.54 354.58c1.84,86.45 132.99,81.47 131.42,-5.03l-6.23 -341.86 -57.14 -389.01 44.48 -458.48c15.41,-0.32 31.02,-7.28 43.41,-23.5l196.09 -256.49c12.23,-16 19.67,-32.19 12.74,-56.77l-75.16 -266.36c-21.04,-74.57 -134.45,-42.44 -113.35,32.1l67.39 238.82zm-118.2 13.9c-6.34,-66.69 -65.4,-115.62 -131.93,-109.3 -66.53,6.33 -115.31,65.51 -108.97,132.2 6.34,66.68 65.4,115.62 131.93,109.29 66.53,-6.32 115.31,-65.51 108.97,-132.19z"/>
 <path class="fil2p" d="M-601.73 -58.34c0,-772.25 -626.03,-1398.27 -1398.27,-1398.27 -336.84,0 -645.85,119.11 -887.22,317.51l1972.76 1962.03c195.5,-240.5 312.73,-547.18 312.73,-881.27zm-2483.81 -881.27c-195.49,240.5 -312.73,547.18 -312.73,881.27 0,772.25 626.03,1398.27 1398.27,1398.27 336.84,0 645.84,-119.12 887.22,-317.51l-1972.76 -1962.03zm2835.54 881.27c0,-966.5 -783.5,-1750 -1750,-1750 -966.5,0 -1750,783.5 -1750,1750 0,966.5 783.5,1750 1750,1750 966.5,0 1750,-783.5 1750,-1750z"/>
</symbol>
 <g id="Ebene_x0020_1">
  <metadata id="CorelCorpID_0Corel-Layer"/>
  <use id="ISO_x0020_7010_x0020_P009_0" transform="scale(0.571429 0.571429)" x="-0" y="-0" width="3500" height="3500" xlink:href="#ISO_x0020_7010_x0020_P009"/>
 </g>
</svg>
