<?xml version="1.0" encoding="UTF-8"?>
<!DOCTYPE svg PUBLIC "-//W3C//DTD SVG 1.1//EN" "http://www.w3.org/Graphics/SVG/1.1/DTD/svg11.dtd">
<!-- Creator: Corel DESIGNER -->
<svg xmlns="http://www.w3.org/2000/svg" xml:space="preserve" width="40mm" height="40mm" version="1.1" style="shape-rendering:geometricPrecision; text-rendering:geometricPrecision; image-rendering:optimizeQuality; fill-rule:evenodd; clip-rule:evenodd"
viewBox="0 0 1000 1000"
 xmlns:xlink="http://www.w3.org/1999/xlink"
 xmlns:xodm="http://www.corel.com/coreldraw/odm/2003">
 <defs>
  <style type="text/css">
   <![CDATA[
    .fil1p {fill:#0E1313}
    .fil2p {fill:#A1262D}
    .fil0p {fill:white}
   ]]>
  </style>
 </defs>
<symbol id="ISO_x0020_7010_x0020_P010" viewBox="1125 -2462.5 1750 1750">
 <circle class="fil0p" cx="2000" cy="-1587.5" r="787.5"/>
 <path class="fil1p" d="M1975.17 -1400.97c21.18,41.39 14.83,55.55 12.3,75.02 6.71,1.91 113.1,-22.18 62.92,-124.45l-75.23 49.43zm-12.89 8.47c39.19,104.54 -72.89,171.85 -86.84,57.06l86.84 -57.06zm-151.64 -262.87c-64.56,53.98 -52.24,40.94 10.96,173.07l109.55 -80.04c14.48,-10.58 28.54,-38.24 32.14,-61.66 4.66,-30.29 -31.95,-73.78 -103.67,-53.84 -18.1,5.03 -43.52,17.9 -48.98,22.47zm698.03 -314.51c-198.28,187.18 -193.81,301.34 -270.35,370.96 -5.79,5.27 -20.14,15.52 -40.27,29.15 -130.74,85.91 -261.48,171.83 -392.23,257.74 -51.8,19.32 -39.88,-110.76 13.45,-145.77l127.76 -83.87c13.53,-8.88 80.25,-91.86 16.48,-145.21 -58.42,-48.88 -234.71,-3.86 -249.28,122.65 -10.06,87.39 17.73,323.57 -119.61,271.24 0,-29.74 -9.14,-335.25 -7.54,-341.87 12.04,-49.79 130.43,-212.27 167.64,-263.7 142.36,-196.8 283.21,-109.98 549.57,-247.93 80.12,43.71 149.81,104.15 204.37,176.62zm-975.79 817.79l615.41 0 0 -90.3 -615.41 0 0 90.3z"/>
 <path class="fil2p" d="M2699.14 -1587.5c0,-386.12 -313.01,-699.14 -699.14,-699.14 -168.42,0 -322.92,59.56 -443.61,158.76l986.38 981.02c97.75,-120.25 156.37,-273.59 156.37,-440.64zm-1241.91 -440.64c-97.74,120.25 -156.37,273.59 -156.37,440.64 0,386.12 313.01,699.13 699.13,699.13 168.42,0 322.92,-59.56 443.61,-158.76l-986.38 -981.02zm1417.77 440.64c0,-483.25 -391.75,-875 -875,-875 -483.25,0 -875,391.75 -875,875 0,483.25 391.75,875 875,875 483.25,0 875,-391.75 875,-875z"/>
</symbol>
 <g id="Ebene_x0020_1">
  <metadata id="CorelCorpID_0Corel-Layer"/>
  <use id="ISO_x0020_7010_x0020_P010_0" transform="scale(0.571429 0.571429)" x="-0" y="-0" width="1750" height="1750" xlink:href="#ISO_x0020_7010_x0020_P010"/>
 </g>
</svg>
