<?xml version="1.0" encoding="UTF-8"?>
<!DOCTYPE svg PUBLIC "-//W3C//DTD SVG 1.1//EN" "http://www.w3.org/Graphics/SVG/1.1/DTD/svg11.dtd">
<!-- Creator: Corel DESIGNER -->
<svg xmlns="http://www.w3.org/2000/svg" xml:space="preserve" width="40mm" height="40mm" version="1.1" style="shape-rendering:geometricPrecision; text-rendering:geometricPrecision; image-rendering:optimizeQuality; fill-rule:evenodd; clip-rule:evenodd"
viewBox="0 0 4000 4000"
 xmlns:xlink="http://www.w3.org/1999/xlink"
 xmlns:xodm="http://www.corel.com/coreldraw/odm/2003">
 <defs>
  <style type="text/css">
   <![CDATA[
    .fil1p {fill:#0E1313}
    .fil2p {fill:#A1262D}
    .fil0p {fill:white}
   ]]>
  </style>
 </defs>
<symbol id="ISO_x0020_7010_x0020_P011" viewBox="-1500 -9850 7000 7000">
 <circle class="fil0p" cx="2000" cy="-6350" r="3150"/>
 <path class="fil1p" d="M567.8 -4696.33c247.56,-49.33 327.89,-332.23 336.14,-425.08 12.62,-9.3 -34.17,29.51 -76.83,20.12 23.7,-83.03 37.12,-184.51 -6.24,-222.57 -14.93,44.6 -74.76,157.99 -123.47,167.94 80.54,-146.4 -47.86,-371.13 -81.03,-408.73 31.95,256.95 -51.27,387.62 -86.9,433.01 -26.46,-29.4 -84.41,-82.28 -96.03,-196.57 -20.27,61.93 -65.08,151.18 0.68,370.64 -28,-11.39 -124.82,-61.86 -151.83,-372.43 -24.4,67.84 -46.14,146.99 -66.72,245.14 -17.96,0.86 -55.8,-34.36 -62.88,-40.64 46.91,273.64 163.96,378.09 277.6,429.17 -248.55,-3.77 -341.84,-8.19 -423.29,-228.39 -70,-189.21 3.34,-427.63 -28.38,-530.78 51.48,19.42 70.29,44.35 87.16,62.87 45.24,-189.12 40.97,-299.83 40.39,-417.15 69.28,18.94 117.99,144.24 131.64,157.96 124.41,-313.9 57.52,-499.48 47.18,-560.22 90.42,7.64 136.22,152.71 149.13,212.07 78.44,-191.75 -47.82,-379.13 59.6,-514.83 41.39,269.46 145.4,213.15 260.44,620.16 18.42,-52.63 19.42,-199.18 16.09,-242.35 197.15,116.06 166.47,416.95 201.69,522.61 42.11,-52.66 55.98,-111.57 70.81,-163.84 141.73,172.21 -2.48,445.29 47.54,620.37 37.42,-33.78 46.51,-61.46 70.8,-93.16 67.38,486.21 -335.64,558.84 -593.29,554.68z"/>
 <path class="fil1p" d="M1912.48 -7772.73l194.65 307.55c-246.8,102.09 -734,317.32 -1042.13,490.32 -143.41,80.52 -284.84,206.12 -316.94,319.37 -11.36,40.12 -6.51,79.46 24.5,100.78 25.31,17.42 64.76,-0.65 113.54,-25.23 -48.28,44.6 -146.35,137.69 -86.86,193.15 44.21,41.2 218.42,-74.95 275.92,-99.17 -74.8,69.5 -232.54,175.06 -230.69,240.74 1.11,39.82 33.43,63.79 115.73,61.48 103.32,-2.91 396.68,-152.86 421.46,-135.87 7.41,5.08 -73.22,54.05 -172.91,205.42 -52.56,79.8 29.87,96.94 110.78,51.25 -199.37,196.57 -66.07,322.14 148.57,132.59 157.34,-138.96 664.84,-651.76 814.34,-706.53 65.51,-24.95 -384.69,401.1 -466.6,477.29 -144.82,144.07 -185.55,187.49 -274,342.61 -22.44,39.35 -13.5,64.45 12.58,77.49 45.12,22.58 136.54,-53.98 190.91,-59.88 -0.8,34.92 -129.42,304.4 -59.25,433.12 76.02,139.45 225.69,-192.83 279.58,-301.11 188.58,-378.88 399.08,-612.75 725.74,-874.67l1240.71 -1036.06 -552.26 -872.57 -964.06 445.39 0 -552.12c0,-62.68 -51.18,-113.84 -113.85,-113.84 -62.54,0 -113.84,51.32 -113.84,113.84l0 657.32 -275.62 127.34zm234.21 370.05l41.41 65.43 0 95.06c-17.66,23.66 -28.12,53.02 -28.12,84.81 0,78.4 63.56,141.96 141.96,141.96 27.93,0 53.97,-8.08 75.93,-22l273.92 432.81c-380.43,315.87 -526.13,486.67 -751.46,904.73 -56.96,114.42 -116.93,234.89 -156.08,278.85 -28.18,-159.92 74.14,-301.8 74.14,-379.04 0,-119.02 -127.08,-61.89 -186.55,-32.84 99.62,-187.14 473.96,-501.12 649.36,-680.76 62.26,-74.44 194.94,-271.88 -23.87,-191.69 -122.71,44.97 -498.51,406.24 -594.62,497.84 -52.23,49.77 -329.06,331.5 -372.12,299.03 -22.47,-52.87 242.53,-210.62 148.61,-266.84 -31.75,-19.01 -108.99,23.85 -144.4,44.59 73.42,-95.34 226.67,-215.67 143.68,-261.06 -55.41,-30.31 -485.84,185.96 -508.84,135.2 -16.5,-36.4 376.01,-260.37 238.09,-318.95 -60.1,-25.52 -218.61,75.66 -290.49,109.19 53.43,-64.93 206.12,-176.79 208.68,-211.3 2.3,-24.25 -13,-39.01 -37,-39.01 -59.75,0.65 -132.74,39.84 -185.53,66.56 -30.46,15.42 -39.78,38.83 -48.07,36.17 -4.71,-16.78 19.9,-63.13 35.77,-86.19 44.06,-64 126.08,-141.77 249.58,-211.11 311.82,-175.06 808.61,-393.84 1046.02,-491.44zm155.26 -1195.5c-22.48,0 -40.8,18.32 -40.8,40.79l0 1400.01c0,22.37 18.41,40.78 40.79,40.78 22.43,0 40.8,-18.3 40.8,-40.78l0 -1400.01c0,-22.38 -18.41,-40.79 -40.79,-40.79z"/>
 <path class="fil2p" d="M4796.54 -6350c0,-1544.49 -1252.05,-2796.54 -2796.54,-2796.54 -673.67,0 -1291.7,238.22 -1774.43,635.02l3945.51 3924.07c391,-481 625.46,-1094.36 625.46,-1762.55zm-4967.62 -1762.55c-390.98,481.01 -625.46,1094.36 -625.46,1762.55 0,1544.49 1252.05,2796.54 2796.54,2796.54 673.67,0 1291.67,-238.25 1774.43,-635.03l-3945.51 -3924.06zm5671.08 1762.55c0,-1933 -1567,-3500 -3500,-3500 -1933,0 -3500,1567 -3500,3500 0,1933 1567,3500 3500,3500 1933,0 3500,-1567 3500,-3500z"/>
</symbol>
 <g id="Ebene_x0020_1">
  <metadata id="CorelCorpID_0Corel-Layer"/>
  <use id="ISO_x0020_7010_x0020_P011_0" transform="scale(0.571429 0.571429)" x="-0" y="-0" width="7000" height="7000" xlink:href="#ISO_x0020_7010_x0020_P011"/>
 </g>
</svg>
