<?xml version="1.0" encoding="UTF-8"?>
<!DOCTYPE svg PUBLIC "-//W3C//DTD SVG 1.1//EN" "http://www.w3.org/Graphics/SVG/1.1/DTD/svg11.dtd">
<!-- Creator: Corel DESIGNER -->
<svg xmlns="http://www.w3.org/2000/svg" xml:space="preserve" width="40mm" height="40mm" version="1.1" style="shape-rendering:geometricPrecision; text-rendering:geometricPrecision; image-rendering:optimizeQuality; fill-rule:evenodd; clip-rule:evenodd"
viewBox="0 0 4000 4000"
 xmlns:xlink="http://www.w3.org/1999/xlink"
 xmlns:xodm="http://www.corel.com/coreldraw/odm/2003">
 <defs>
  <style type="text/css">
   <![CDATA[
    .fil1p {fill:#0E1313}
    .fil2p {fill:#A1262D}
    .fil0p {fill:white}
   ]]>
  </style>
 </defs>
<symbol id="ISO_x0020_7010_x0020_P013" viewBox="-1500 8850 7000 7000">
 <circle class="fil0p" cx="2000" cy="12350" r="3150"/>
 <path class="fil1p" d="M1747.61 11557.85l95.66 54.27 292.02 -514.77 -22.9 -12.99 196.08 -345.66 183.24 103.95 -196.09 345.65 -22.9 -12.99 -292.02 514.77 801.38 454.61 -1468.49 2588.68 -1034.47 -586.83 1468.49 -2588.69zm-764.4 2360.57l164.92 93.55c46.73,26.51 63.27,86.42 36.76,133.15 -26.51,46.73 -86.41,63.28 -133.15,36.77l-164.92 -93.56c-46.72,-26.51 -63.27,-86.42 -36.76,-133.15 26.51,-46.72 86.42,-63.27 133.15,-36.76zm619.74 -1256.92c25.64,-45.2 9.79,-102.63 -35.42,-128.28 -45.21,-25.64 -102.64,-9.79 -128.28,35.42 -25.65,45.21 -9.79,102.64 35.42,128.28 45.2,25.65 102.63,9.79 128.28,-35.42zm242.37 137.5c25.65,-45.21 9.79,-102.64 -35.41,-128.28 -45.21,-25.65 -102.64,-9.79 -128.29,35.41 -25.64,45.21 -9.79,102.64 35.42,128.29 45.21,25.64 102.64,9.78 128.28,-35.42zm242.38 137.49c25.65,-45.2 9.79,-102.64 -35.42,-128.28 -45.2,-25.64 -102.64,-9.79 -128.28,35.42 -25.64,45.21 -9.79,102.64 35.42,128.28 45.21,25.65 102.64,9.79 128.28,-35.42zm-621.38 -34.14c25.65,-45.2 9.79,-102.64 -35.42,-128.28 -45.2,-25.64 -102.64,-9.79 -128.28,35.42 -25.65,45.2 -9.79,102.64 35.42,128.28 45.2,25.65 102.64,9.79 128.28,-35.42zm242.38 137.5c25.64,-45.21 9.78,-102.64 -35.42,-128.29 -45.21,-25.64 -102.64,-9.78 -128.29,35.42 -25.64,45.21 -9.78,102.64 35.42,128.29 45.21,25.64 102.64,9.78 128.29,-35.42zm242.38 137.49c25.64,-45.2 9.78,-102.64 -35.42,-128.28 -45.21,-25.65 -102.64,-9.79 -128.29,35.42 -25.64,45.2 -9.78,102.64 35.42,128.28 45.21,25.65 102.64,9.79 128.29,-35.42zm-621.38 -34.14c25.64,-45.21 9.78,-102.64 -35.42,-128.28 -45.21,-25.65 -102.64,-9.79 -128.29,35.41 -25.64,45.21 -9.78,102.64 35.42,128.29 45.21,25.64 102.64,9.79 128.29,-35.42zm242.37 137.49c25.65,-45.2 9.79,-102.64 -35.42,-128.28 -45.2,-25.64 -102.64,-9.79 -128.28,35.42 -25.65,45.2 -9.79,102.64 35.42,128.28 45.2,25.65 102.64,9.79 128.28,-35.42zm242.38 137.5c25.64,-45.21 9.79,-102.64 -35.42,-128.29 -45.21,-25.64 -102.64,-9.78 -128.28,35.42 -25.65,45.21 -9.79,102.64 35.42,128.29 45.2,25.64 102.64,9.78 128.28,-35.42zm-621.38 -34.14c25.64,-45.21 9.79,-102.64 -35.42,-128.29 -45.21,-25.64 -102.64,-9.78 -128.28,35.42 -25.65,45.21 -9.79,102.64 35.42,128.29 45.2,25.64 102.63,9.78 128.28,-35.42zm242.37 137.49c25.65,-45.21 9.79,-102.64 -35.41,-128.28 -45.21,-25.65 -102.64,-9.79 -128.29,35.42 -25.64,45.2 -9.79,102.64 35.42,128.28 45.21,25.64 102.64,9.79 128.28,-35.42zm242.38 137.5c25.65,-45.21 9.79,-102.64 -35.42,-128.29 -45.2,-25.64 -102.64,-9.78 -128.28,35.42 -25.64,45.21 -9.79,102.64 35.42,128.29 45.2,25.64 102.64,9.78 128.28,-35.42zm-526.33 -298.58c12.62,-22.24 4.82,-50.5 -17.43,-63.12 -22.24,-12.61 -50.5,-4.81 -63.11,17.43 -12.62,22.24 -4.82,50.5 17.42,63.12 22.25,12.61 50.5,4.81 63.12,-17.43zm484.75 274.99c12.62,-22.24 4.82,-50.5 -17.42,-63.12 -22.25,-12.62 -50.5,-4.81 -63.12,17.43 -12.62,22.24 -4.82,50.5 17.43,63.12 22.24,12.61 50.49,4.81 63.11,-17.43z"/>
 <path class="fil1p" d="M3290.78 10622.03l117.73 -32.51c160.8,582.41 -185.21,1192.36 -767.62,1353.16l-32.5 -117.73c517.72,-142.94 825.33,-685.2 682.39,-1202.92zm-1202.93 -682.39c-517.73,142.94 -825.33,685.2 -682.39,1202.92l-117.73 32.51c-160.8,-582.41 185.21,-1192.36 767.61,-1353.16l32.51 117.73zm898.31 766.49l117.73 -32.51c114.62,415.11 -131.99,849.84 -547.1,964.45l-32.51 -117.73c350.42,-96.75 558.64,-463.79 461.88,-814.21zm-814.21 -461.88c-350.42,96.75 -558.63,463.79 -461.88,814.21l-117.73 32.5c-114.61,-415.1 132,-849.83 547.11,-964.44l32.5 117.73zm495.32 549.93l117.73 -32.51c66.25,239.96 -76.3,491.25 -316.26,557.51l-32.51 -117.73c175.28,-48.4 279.43,-232 231.04,-407.27zm-407.27 -231.04c-175.28,48.39 -279.43,232 -231.03,407.27l-117.73 32.51c-66.26,-239.96 76.29,-491.26 316.25,-557.51l32.51 117.73z"/>
 <path class="fil2p" d="M4796.54 12350c0,-1544.49 -1252.05,-2796.54 -2796.54,-2796.54 -673.67,0 -1291.7,238.22 -1774.43,635.02l3945.51 3924.07c391,-481 625.46,-1094.36 625.46,-1762.55zm-4967.62 -1762.55c-390.98,481.01 -625.46,1094.36 -625.46,1762.55 0,1544.49 1252.05,2796.54 2796.54,2796.54 673.67,0 1291.67,-238.25 1774.43,-635.03l-3945.51 -3924.06zm5671.08 1762.55c0,-1933 -1567,-3500 -3500,-3500 -1933,0 -3500,1567 -3500,3500 0,1933 1567,3500 3500,3500 1933,0 3500,-1567 3500,-3500z"/>
</symbol>
 <g id="Ebene_x0020_1">
  <metadata id="CorelCorpID_0Corel-Layer"/>
  <use id="ISO_x0020_7010_x0020_P013_0" transform="scale(0.571429 0.571429)" x="-0" y="-0" width="7000" height="7000" xlink:href="#ISO_x0020_7010_x0020_P013"/>
 </g>
</svg>
