<?xml version="1.0" encoding="UTF-8"?>
<!DOCTYPE svg PUBLIC "-//W3C//DTD SVG 1.1//EN" "http://www.w3.org/Graphics/SVG/1.1/DTD/svg11.dtd">
<!-- Creator: Corel DESIGNER -->
<svg xmlns="http://www.w3.org/2000/svg" xml:space="preserve" width="40mm" height="40mm" version="1.1" style="shape-rendering:geometricPrecision; text-rendering:geometricPrecision; image-rendering:optimizeQuality; fill-rule:evenodd; clip-rule:evenodd"
viewBox="0 0 1000 1000"
 xmlns:xlink="http://www.w3.org/1999/xlink"
 xmlns:xodm="http://www.corel.com/coreldraw/odm/2003">
 <defs>
  <style type="text/css">
   <![CDATA[
    .fil1p {fill:#0E1313}
    .fil2p {fill:#A1262D}
    .fil0p {fill:white}
   ]]>
  </style>
 </defs>
<symbol id="ISO_x0020_7010_x0020_P015" viewBox="1125 654.16 1750 1750">
 <circle class="fil0p" cx="2000" cy="1529.16" r="787.5"/>
 <path class="fil1p" d="M2004.77 1759.48c21.18,41.38 14.82,55.55 12.3,75.02 6.71,1.91 113.09,-22.18 62.92,-124.45l-75.22 49.43zm-12.89 8.47c39.19,104.54 -72.89,171.85 -86.84,57.07l86.84 -57.07zm-151.64 -262.87c-64.56,53.98 -52.24,40.94 10.96,173.07l109.55 -80.04c14.48,-10.58 28.54,-38.25 32.14,-61.66 4.66,-30.29 -31.94,-73.77 -103.67,-53.84 -18.1,5.03 -43.52,17.9 -48.98,22.47zm706.32 -322.79c-198.28,187.18 -202.1,309.63 -278.64,379.24 -5.79,5.27 -20.14,15.52 -40.27,29.15 -130.74,85.91 -261.48,171.82 -392.23,257.74 -51.8,19.32 -39.88,-110.76 13.45,-145.77l127.76 -83.87c13.53,-8.88 80.24,-91.86 16.48,-145.21 -58.42,-48.88 -234.72,-3.86 -249.28,122.65 -10.06,87.4 17.73,323.57 -119.61,271.24 0,-29.74 -9.14,-335.25 -7.54,-341.87 12.05,-49.79 130.43,-212.27 167.64,-263.7 142.36,-196.8 325.33,-122.4 586.16,-265.87 80.12,43.71 121.51,113.81 176.07,186.28z"/>
 <path class="fil1p" d="M1486.01 1310.89l23.46 626.01c14.4,17.3 29.7,33.81 45.83,49.49l-24.89 -664.28 -44.39 -11.23zm566.65 853.96c17.39,-1.43 34.57,-3.55 51.53,-6.34l290.41 -617.74 -43.39 -10.98 -298.55 635.06z"/>
 <path class="fil2p" d="M2699.14 1529.16c0,-386.12 -313.01,-699.13 -699.14,-699.13 -168.42,0 -322.92,59.55 -443.61,158.75l986.38 981.02c97.75,-120.25 156.37,-273.59 156.37,-440.64zm-1241.91 -440.64c-97.74,120.25 -156.37,273.59 -156.37,440.64 0,386.12 313.01,699.14 699.13,699.14 168.42,0 322.92,-59.56 443.61,-158.76l-986.38 -981.02zm1417.77 440.64c0,-483.25 -391.75,-875 -875,-875 -483.25,0 -875,391.75 -875,875 0,483.25 391.75,875 875,875 483.25,0 875,-391.75 875,-875z"/>
</symbol>
 <g id="Ebene_x0020_1">
  <metadata id="CorelCorpID_0Corel-Layer"/>
  <use id="ISO_x0020_7010_x0020_P015_0" transform="scale(0.571429 0.571429)" x="-0" y="-0" width="1750" height="1750" xlink:href="#ISO_x0020_7010_x0020_P015"/>
 </g>
</svg>
