<?xml version="1.0" encoding="UTF-8"?>
<!DOCTYPE svg PUBLIC "-//W3C//DTD SVG 1.1//EN" "http://www.w3.org/Graphics/SVG/1.1/DTD/svg11.dtd">
<!-- Creator: Corel DESIGNER -->
<svg xmlns="http://www.w3.org/2000/svg" xml:space="preserve" width="40mm" height="40mm" version="1.1" style="shape-rendering:geometricPrecision; text-rendering:geometricPrecision; image-rendering:optimizeQuality; fill-rule:evenodd; clip-rule:evenodd"
viewBox="0 0 4000 4000"
 xmlns:xlink="http://www.w3.org/1999/xlink"
 xmlns:xodm="http://www.corel.com/coreldraw/odm/2003">
 <defs>
  <style type="text/css">
   <![CDATA[
    .fil1p {fill:#0E1313}
    .fil2p {fill:#A1262D}
    .fil0p {fill:white}
   ]]>
  </style>
 </defs>
<symbol id="ISO_x0020_7010_x0020_P019" viewBox="-1500 -3616.67 7000 7000">
 <circle class="fil0p" cx="2000" cy="-116.67" r="3150"/>
 <path class="fil1p" d="M1599.95 -2570.55c-259.8,59.95 -337.38,265.72 -292.49,442.15 43.41,170.64 201.39,313.83 419.87,271.09 176.31,-34.49 329.77,-209.55 290.12,-424.26 -32.02,-173.35 -211.37,-336.55 -417.5,-288.98zm61.89 2342.7l-855.39 314.39c-102.12,37.53 -159.37,198.72 -124.44,301.76l352.2 1038.82c95.68,282.23 498.39,162.32 403.59,-117.3l-306.44 -903.87 999.42 -346.41 57.16 848.04 223.89 1178.06c58,305.15 471.14,230.15 411.8,-82.14l-202.36 -1064.79 -87.17 -1105.86 -270.84 -1280.59 615.45 256.7 334.71 750.97c105.77,237.3 442.28,95.13 345.79,-121.35l-371.77 -834.14c-24.7,-55.42 -41.99,-78.61 -97.93,-102.04l-793.98 -332.62c-69.84,-29.26 -105.79,-26.59 -171.96,-12.26l-744.36 161.14c-69.2,14.98 -106.31,42.99 -139.62,108.64l-368.88 726.85 -773.62 335.6c-237.4,102.99 -118.35,449.48 164.35,326.84l789.88 -342.66c56.26,-24.41 104.08,-73.65 131.83,-128.34l274.19 -540.29 204.5 966.85z"/>
 <path class="fil1p" d="M254.05 1671.23l1736.76 0 0 711.15c-58.82,-0.21 -117.16,-2.45 -174.95,-6.66l0 -529.55 -1362.89 0c-69.4,-54.78 -135.75,-113.24 -198.92,-174.94z"/>
 <path class="fil2p" d="M4796.54 -116.67c0,-1544.49 -1252.05,-2796.54 -2796.54,-2796.54 -673.67,0 -1291.7,238.22 -1774.43,635.02l3945.51 3924.07c391,-481 625.46,-1094.36 625.46,-1762.55zm-4967.62 -1762.55c-390.98,481.01 -625.46,1094.36 -625.46,1762.55 0,1544.49 1252.05,2796.54 2796.54,2796.54 673.67,0 1291.67,-238.25 1774.43,-635.03l-3945.51 -3924.06zm5671.08 1762.55c0,-1933 -1567,-3500 -3500,-3500 -1933,0 -3500,1567 -3500,3500 0,1933 1567,3500 3500,3500 1933,0 3500,-1567 3500,-3500z"/>
</symbol>
 <g id="Ebene_x0020_1">
  <metadata id="CorelCorpID_0Corel-Layer"/>
  <use id="ISO_x0020_7010_x0020_P019_0" transform="scale(0.571429 0.571429)" x="-0" y="-0" width="7000" height="7000" xlink:href="#ISO_x0020_7010_x0020_P019"/>
 </g>
</svg>
