<?xml version="1.0" encoding="UTF-8"?>
<!DOCTYPE svg PUBLIC "-//W3C//DTD SVG 1.1//EN" "http://www.w3.org/Graphics/SVG/1.1/DTD/svg11.dtd">
<!-- Creator: Corel DESIGNER -->
<svg xmlns="http://www.w3.org/2000/svg" xml:space="preserve" width="40mm" height="40mm" version="1.1" style="shape-rendering:geometricPrecision; text-rendering:geometricPrecision; image-rendering:optimizeQuality; fill-rule:evenodd; clip-rule:evenodd"
viewBox="0 0 1000 1000"
 xmlns:xlink="http://www.w3.org/1999/xlink"
 xmlns:xodm="http://www.corel.com/coreldraw/odm/2003">
 <defs>
  <style type="text/css">
   <![CDATA[
    .fil1p {fill:#0E1313}
    .fil2p {fill:#A1262D}
    .fil0p {fill:white}
   ]]>
  </style>
 </defs>
<symbol id="ISO_x0020_7010_x0020_P021" viewBox="1125 -2462.5 1750 1750">
 <circle class="fil0p" cx="2000" cy="-1587.5" r="787.5"/>
 <path class="fil1p" d="M2151.86 -1780.96l186.11 182.68 50.16 -89.14 121.2 0c23.01,-0.16 27.2,-3.12 37.18,-21.14l19.94 -35.97c5.52,-9.96 0.63,-14.92 -7.79,-20.5l-81.65 -54.14 -0.67 -32.18c-0.26,-12.34 -1.95,-22.82 -15.6,-30.54l-71.66 -38.74 0 -77.3c0,-7.01 -5.38,-10.16 -10.23,-5.4l-227 222.38zm-484.27 47.46l-78.5 -134.97c-8.62,-14.83 -31.26,-11.26 -30.73,7.41l0 177.74c1.16,8.91 12.94,24.86 18.31,33.14 3.58,5.52 5.86,17.78 5.82,32l-0.57 217.01 -41.72 112.75 0 93.17c0,80.21 114.95,82.37 114.95,-2.53l0 -73.88 119.15 -188.61 334.16 74.35 0 195.23c0,74.41 105.34,75.16 105.34,0l0 -200.78 87.27 -141.1 -206.51 -201.22 -426.96 0.29z"/>
 <path class="fil2p" d="M2699.14 -1587.5c0,-386.12 -313.01,-699.14 -699.14,-699.14 -168.42,0 -322.92,59.56 -443.61,158.76l986.38 981.02c97.75,-120.25 156.37,-273.59 156.37,-440.64zm-1241.91 -440.64c-97.74,120.25 -156.37,273.59 -156.37,440.64 0,386.12 313.01,699.13 699.13,699.13 168.42,0 322.92,-59.56 443.61,-158.76l-986.38 -981.02zm1417.77 440.64c0,-483.25 -391.75,-875 -875,-875 -483.25,0 -875,391.75 -875,875 0,483.25 391.75,875 875,875 483.25,0 875,-391.75 875,-875z"/>
</symbol>
 <g id="Ebene_x0020_1">
  <metadata id="CorelCorpID_0Corel-Layer"/>
  <use id="ISO_x0020_7010_x0020_P021_0" transform="scale(0.571429 0.571429)" x="-0" y="-0" width="1750" height="1750" xlink:href="#ISO_x0020_7010_x0020_P021"/>
 </g>
</svg>
