<?xml version="1.0" encoding="UTF-8"?>
<!DOCTYPE svg PUBLIC "-//W3C//DTD SVG 1.1//EN" "http://www.w3.org/Graphics/SVG/1.1/DTD/svg11.dtd">
<!-- Creator: Corel DESIGNER -->
<svg xmlns="http://www.w3.org/2000/svg" xml:space="preserve" width="40mm" height="40mm" version="1.1" style="shape-rendering:geometricPrecision; text-rendering:geometricPrecision; image-rendering:optimizeQuality; fill-rule:evenodd; clip-rule:evenodd"
viewBox="0 0 1000 1000"
 xmlns:xlink="http://www.w3.org/1999/xlink"
 xmlns:xodm="http://www.corel.com/coreldraw/odm/2003">
 <defs>
  <style type="text/css">
   <![CDATA[
    .fil1p {fill:#0E1313}
    .fil2p {fill:#A1262D}
    .fil0p {fill:white}
   ]]>
  </style>
 </defs>
<symbol id="ISO_x0020_7010_x0020_P026" viewBox="1125 654.16 1750 1750">
 <circle class="fil0p" cx="2000" cy="1529.16" r="787.5"/>
 <path class="fil1p" d="M2191.38 1386.51c-11.01,-3.88 -22.98,1.59 -26.74,12.22 -3.75,10.64 2.14,22.41 13.15,26.29 11.01,3.88 22.98,-1.59 26.74,-12.22 3.75,-10.64 -2.14,-22.41 -13.15,-26.29zm67.3 76.73c1.91,-11.38 -5.65,-22.13 -16.9,-24.02 -11.25,-1.89 -21.92,5.8 -23.83,17.17 -1.91,11.38 5.65,22.13 16.9,24.02 11.25,1.89 21.92,-5.8 23.83,-17.17zm-107.06 -191.73c5.31,-10.17 1.42,-22.7 -8.7,-27.98 -10.12,-5.28 -22.62,-1.32 -27.93,8.86 -5.31,10.17 -1.41,22.7 8.7,27.98 10.12,5.28 22.62,1.32 27.93,-8.86zm8.4 180.83c-7.76,-8.47 -20.84,-9.12 -29.23,-1.43 -8.39,7.68 -8.9,20.77 -1.14,29.24 7.76,8.47 20.84,9.11 29.23,1.43 8.39,-7.68 8.9,-20.77 1.14,-29.24zm61.81 -269.78c7.68,-8.51 7.07,-21.58 -1.37,-29.19 -8.43,-7.61 -21.5,-6.89 -29.18,1.62 -7.68,8.51 -7.07,21.58 1.36,29.19 8.43,7.61 21.5,6.89 29.18,-1.62zm18.93 82.54c1.27,-11.52 -6.79,-21.85 -17.99,-23.08 -11.2,-1.24 -21.32,7.1 -22.58,18.62 -1.27,11.52 6.79,21.85 17.99,23.08 11.2,1.23 21.32,-7.1 22.59,-18.62zm44.41 124.53c-2.57,-11.39 -13.55,-18.62 -24.51,-16.14 -10.96,2.48 -17.76,13.72 -15.19,25.11 2.58,11.39 13.55,18.62 24.51,16.14 10.96,-2.48 17.76,-13.72 15.18,-25.11zm-55.79 142.43c0.78,-11.53 -7.68,-21.48 -18.88,-22.23 -11.2,-0.75 -20.91,7.97 -21.69,19.5 -0.78,11.53 7.68,21.48 18.88,22.23 11.2,0.75 20.91,-7.98 21.69,-19.5zm72.34 -271.47c-20.17,15.12 2.38,46.85 22.63,34.32 24.03,-14.88 1.86,-52.69 -22.63,-34.32zm-150.72 91.36c0,-11.58 -9.11,-20.97 -20.36,-20.97 -11.24,0 -20.36,9.39 -20.36,20.97 0,11.59 9.12,20.98 20.36,20.98 11.24,0 20.36,-9.39 20.36,-20.98zm124.59 -52.8c0.77,-11.6 -7.63,-21.59 -18.75,-22.33 -11.12,-0.74 -20.75,8.07 -21.51,19.67 -0.77,11.6 7.63,21.59 18.74,22.33 11.12,0.73 20.75,-8.08 21.52,-19.67zm-26.51 -114.14c-10.88,-3.46 -22.48,2.47 -25.9,13.25 -3.42,10.77 2.62,22.31 13.51,25.77 10.88,3.46 22.48,-2.47 25.9,-13.25 3.42,-10.78 -2.62,-22.31 -13.51,-25.77zm62.03 150.7c1.49,-11.36 -6.37,-21.76 -17.56,-23.23 -11.19,-1.47 -21.47,6.56 -22.96,17.91 -1.49,11.36 6.37,21.76 17.56,23.23 11.19,1.46 21.47,-6.56 22.95,-17.92zm-19.29 -79.58c8.66,-7.59 9.72,-20.54 2.37,-28.92 -7.35,-8.38 -20.32,-9.01 -28.98,-1.42 -8.66,7.6 -9.72,20.54 -2.37,28.92 7.35,8.38 20.33,9.01 28.98,1.42zm-265.15 8.18c11.41,-2.19 18.98,-12.73 16.91,-23.54 -2.07,-10.82 -13.01,-17.81 -24.42,-15.62 -11.41,2.18 -18.98,12.73 -16.91,23.54 2.07,10.82 13,17.81 24.41,15.62zm161.33 -16.03c11.3,-1.68 19.12,-12.04 17.47,-23.14 -1.65,-11.1 -12.15,-18.74 -23.45,-17.06 -11.3,1.68 -19.12,12.04 -17.47,23.14 1.65,11.1 12.15,18.74 23.45,17.06zm-31.77 -36.84c10.99,-3.73 17.01,-15.24 13.46,-25.72 -3.55,-10.47 -15.34,-15.94 -26.33,-12.21 -10.99,3.73 -17.01,15.24 -13.46,25.71 3.55,10.47 15.34,15.94 26.33,12.21zm35.94 108.25c7.71,-8.43 7.26,-21.38 -1,-28.94 -8.26,-7.56 -21.21,-6.85 -28.92,1.57 -7.71,8.43 -7.27,21.39 1,28.95 8.26,7.56 21.21,6.85 28.92,-1.58zm-167.05 0.68c-10.37,-5.03 -22.7,-1 -27.56,9.01 -4.86,10 -0.39,22.19 9.98,27.22 10.37,5.03 22.7,1 27.56,-9.01 4.86,-10 0.39,-22.19 -9.98,-27.22zm77.41 -87.89c8.28,-7.77 8.83,-20.63 1.24,-28.71 -7.59,-8.09 -20.46,-8.34 -28.73,-0.57 -8.28,7.77 -8.83,20.63 -1.24,28.71 7.59,8.09 20.46,8.34 28.74,0.57zm-11.22 186.98c9.73,-5.87 13,-18.3 7.29,-27.76 -5.7,-9.46 -18.22,-12.37 -27.95,-6.5 -9.73,5.87 -13,18.3 -7.29,27.76 5.7,9.46 18.22,12.37 27.95,6.5zm135.6 -50.67c10.98,-3.59 17.13,-14.9 13.75,-25.28 -3.39,-10.38 -15.03,-15.88 -26.01,-12.29 -10.98,3.59 -17.14,14.9 -13.74,25.28 3.39,10.38 15.03,15.88 26.01,12.29zm-137.26 -86.14c-8.98,-7.47 -22.13,-6.45 -29.39,2.27 -7.26,8.72 -5.86,21.84 3.12,29.31 8.98,7.47 22.13,6.45 29.39,-2.27 7.26,-8.72 5.86,-21.84 -3.12,-29.31zm-130.78 10.29c10.6,-3.88 16.13,-15.41 12.35,-25.74 -3.79,-10.34 -15.45,-15.57 -26.05,-11.68 -10.6,3.88 -16.13,15.41 -12.35,25.74 3.78,10.34 15.45,15.57 26.05,11.68zm390.97 363.03c38.31,2.12 44.05,24.46 101.55,20.9l-40.78 157.72c-3.83,14.79 -24.6,22.59 -39.88,22.59l-737.3 0c-23.22,-0.03 -47.99,-14.13 -53.78,-37.89l-33.77 -138.49c33.57,-3.74 56.66,-19.13 81.42,-22.39 33.6,-4.42 50.55,19.22 84.58,19.63 29.6,0.36 48.79,-16.92 72.19,-21.06 55.1,-9.75 69.47,24.62 113.28,20.81 30.73,-2.67 51.24,-21.79 83.85,-22.1 40.95,-0.39 53.57,22.75 89.52,22.47 31.76,-0.26 54.27,-22.72 89.55,-23.15 40.54,-0.5 56.17,24.05 95.18,22.59 34.72,-1.3 39.57,-24.66 94.38,-21.63zm-632.83 -33.92c-36.97,0.86 -60.6,-24.54 -95.36,-23.33 -34.86,1.22 -49.67,28.01 -90.82,27.03l-18.36 -79.65 -68.55 0 68.51 285.46c15.73,65.53 67.3,91.39 130.8,91.88 12.86,0.1 25.74,0.07 38.59,0.25l-26.38 105.01 81.33 0 25.99 -105.01 476.08 0 33.05 105.01 73.43 0 -32.69 -105.01 52.39 0c59.33,0 102.98,-33.31 112.7,-72.42l75.87 -305.18 -68.72 0c-4.48,22.07 -10.68,44.48 -16.07,66.43 -2.87,1.54 -2.84,0.94 -10.25,2.68l0 -456.45c0.43,-61.08 -67.72,-95.9 -112.75,-55.39l-36.61 32.94 -47.62 -19.87c-5.54,-2.31 -7.81,-2.27 -12.12,2.31l-16.68 17.71 112.24 113.42 18.09 -15.97c7.18,-6.34 6.33,-11.32 3.28,-18.22l-19.55 -44.18 33.25 -31.08c8.6,-8.04 26.33,-3.9 27.15,10.19l0 466.61c-30.3,-2.13 -37.51,-19.9 -65.76,-18.79 -31.43,1.24 -53.72,21.48 -84.51,23.12 -39.34,2.11 -58.36,-21.78 -94.09,-22.43 -39.78,-0.73 -56.75,24.39 -94.14,22.81 -33.15,-1.4 -54.04,-22.86 -85.36,-23.02 -36.67,-0.19 -56.13,22.36 -87.28,22.68 -38.84,0.4 -54.59,-21.69 -90.62,-22.35 -38.41,-0.7 -54.09,21.98 -88.44,22.78z"/>
 <path class="fil2p" d="M2699.14 1529.16c0,-386.12 -313.01,-699.13 -699.14,-699.13 -168.42,0 -322.92,59.55 -443.61,158.75l986.38 981.02c97.75,-120.25 156.37,-273.59 156.37,-440.64zm-1241.91 -440.64c-97.74,120.25 -156.37,273.59 -156.37,440.64 0,386.12 313.01,699.14 699.13,699.14 168.42,0 322.92,-59.56 443.61,-158.76l-986.38 -981.02zm1417.77 440.64c0,-483.25 -391.75,-875 -875,-875 -483.25,0 -875,391.75 -875,875 0,483.25 391.75,875 875,875 483.25,0 875,-391.75 875,-875z"/>
</symbol>
 <g id="Ebene_x0020_1">
  <metadata id="CorelCorpID_0Corel-Layer"/>
  <use id="ISO_x0020_7010_x0020_P026_0" transform="scale(0.571429 0.571429)" x="-0" y="-0" width="1750" height="1750" xlink:href="#ISO_x0020_7010_x0020_P026"/>
 </g>
</svg>
