<?xml version="1.0" encoding="UTF-8"?>
<!DOCTYPE svg PUBLIC "-//W3C//DTD SVG 1.1//EN" "http://www.w3.org/Graphics/SVG/1.1/DTD/svg11.dtd">
<!-- Creator: Corel DESIGNER -->
<svg xmlns="http://www.w3.org/2000/svg" xml:space="preserve" width="40mm" height="40mm" version="1.1" style="shape-rendering:geometricPrecision; text-rendering:geometricPrecision; image-rendering:optimizeQuality; fill-rule:evenodd; clip-rule:evenodd"
viewBox="0 0 4000 4000"
 xmlns:xlink="http://www.w3.org/1999/xlink"
 xmlns:xodm="http://www.corel.com/coreldraw/odm/2003">
 <defs>
  <style type="text/css">
   <![CDATA[
    .fil1p {fill:#0E1313}
    .fil2p {fill:#A1262D}
    .fil0p {fill:white}
   ]]>
  </style>
 </defs>
<symbol id="ISO_x0020_7010_x0020_P035" viewBox="-1500 8850 7000 7000">
 <circle class="fil0p" cx="2000" cy="12350" r="3150"/>
 <path class="fil1p" d="M3636.43 11435.56c-270.81,-58.06 -422.37,-33.23 -594.64,67.32 -243.34,142.06 -445.89,374.97 -587.64,618.49 -386.69,664.29 -614.79,1383.09 -988.74,2054.62 -85.95,154.34 -250.61,389.52 -357.98,416.89 -65.35,16.65 -150.06,-179.87 -109.03,-282.25 86.72,-216.38 245.8,-137.68 332.38,-391.3 167.94,-491.85 173.64,-920.49 201.96,-1496.43 6.24,-127.13 328.29,-622.17 594.62,-942.46 158.41,-190.49 496.92,-501.77 732.54,-465.76 277.79,42.47 361.14,124.91 776.53,420.88zm-1630.67 2295.84c-182.55,0 -182.55,157.1 0,157.1 182.54,0 182.54,-157.1 0,-157.1zm377.97 -29.46c-182.55,0 -182.55,157.09 0,157.09 182.54,0 182.54,-157.09 0,-157.09zm401.1 -28.04c-182.55,0 -182.55,157.09 0,157.09 182.54,0 182.54,-157.09 0,-157.09zm-44.88 280.49c-182.54,0 -182.54,157.09 0,157.09 182.55,0 182.55,-157.09 0,-157.09zm-431.96 50.49c-182.54,0 -182.54,157.09 0,157.09 182.54,0 182.54,-157.09 0,-157.09zm-440.38 47.68c-182.54,0 -182.54,157.09 0,157.09 182.55,0 182.55,-157.09 0,-157.09zm-123.41 336.59c-182.54,0 -182.54,157.09 0,157.09 182.55,0 182.55,-157.09 0,-157.09zm479.64 -70.11c-182.55,0 -182.55,157.09 0,157.09 182.54,0 182.54,-157.09 0,-157.09zm482.45 -84.16c-182.54,0 -182.54,157.09 0,157.09 182.55,0 182.55,-157.09 0,-157.09zm-1542.71 440.38c108.61,0.91 210.86,0.33 308.81,-1.91 20.1,96.78 277.78,89.02 275.26,-11.41 80.25,-4.94 158.69,-11.29 236.68,-19.17 53.92,85.9 281.22,57.75 267.75,-33.12 95.94,-14 193.56,-30.47 295.29,-49.58 84.24,75.8 290.42,23.64 250.37,-62.09 113.41,-47.92 217.29,-129.78 217.1,-206.98l-2.81 -1078.4 -746.11 -450.32c-243.99,461.76 -525.37,1176.17 -782.57,1565.17 -86.86,131.36 -166.47,256.88 -319.77,347.81zm2243.95 -1410.89c201.94,-244.02 401.58,-497.59 516.11,-776.96 75.99,-185.32 146.95,-420.16 39.27,-589.04 -98.54,-154.54 -355.02,-217.93 -532.94,-173.9 -247.73,61.32 -479.53,309.26 -535.75,384.28 -139.51,186.11 -238.42,435.7 -328.17,633.91l841.48 521.71zm-420.3 -894.55c-14.06,25.62 -46.23,34.98 -71.85,20.92 -25.61,-14.06 -34.97,-46.23 -20.91,-71.84 110.83,-201.18 238.9,-329.49 365.01,-405.65 167.61,-101.23 332.69,-110.95 452.41,-76.72 104.45,29.85 171.19,103.27 192.07,211.28 14.37,74.4 6.65,165.19 -23.14,269.37 -31.22,109.2 -87.16,234.9 -167.73,373.45 -14.63,25.26 -47,33.88 -72.26,19.25 -25.26,-14.63 -33.88,-46.99 -19.25,-72.26 75.94,-130.59 128.41,-248.17 157.36,-349.43 25.24,-88.24 32.28,-162.55 21.08,-220.49 -13.18,-68.25 -51.52,-110.54 -117.11,-129.29 -95.76,-27.38 -229.73,-18.44 -368.77,65.52 -111.68,67.45 -226.09,182.92 -326.91,365.89zm-1434.24 -2100.23c-31.67,-122.84 -60.47,-234.5 -74.46,-338.96 -34.67,7.44 -69.08,15.6 -103.2,24.48 15.21,107.24 43.92,218.54 75.37,340.55 230.81,895.1 125.8,888.24 111.03,1778.11 272.39,-439.36 332.52,-575.7 712.06,-920.39 237.34,-215.55 473.88,-317.04 709.17,-238.49l77.54 25.9 -8.18 -81.19c-12.89,-127.88 -16.74,-285.93 -12.24,-440.05 3.13,-107.85 10.34,-213.54 21.36,-305.37 -33.16,-15.77 -66.74,-30.84 -100.71,-45.16 -13.78,102.66 -22.65,224.05 -26.24,347.63 -3.79,129.47 -1.83,261.74 6.25,377.72 -251.24,-50.95 -496.62,61.37 -738.17,280.75 -195.75,177.78 -328.82,337.29 -521.94,626.61 59.14,-778.11 -33.61,-1067.48 -127.64,-1432.14z"/>
 <path class="fil2p" d="M4796.54 12350c0,-1544.49 -1252.05,-2796.54 -2796.54,-2796.54 -673.67,0 -1291.7,238.22 -1774.43,635.02l3945.51 3924.07c391,-481 625.46,-1094.36 625.46,-1762.55zm-4967.62 -1762.55c-390.98,481.01 -625.46,1094.36 -625.46,1762.55 0,1544.49 1252.05,2796.54 2796.54,2796.54 673.67,0 1291.67,-238.25 1774.43,-635.03l-3945.51 -3924.06zm5671.08 1762.55c0,-1933 -1567,-3500 -3500,-3500 -1933,0 -3500,1567 -3500,3500 0,1933 1567,3500 3500,3500 1933,0 3500,-1567 3500,-3500z"/>
</symbol>
 <g id="Ebene_x0020_1">
  <metadata id="CorelCorpID_0Corel-Layer"/>
  <use id="ISO_x0020_7010_x0020_P035_0" transform="scale(0.571429 0.571429)" x="-0" y="-0" width="7000" height="7000" xlink:href="#ISO_x0020_7010_x0020_P035"/>
 </g>
</svg>
