<?xml version="1.0" encoding="UTF-8"?>
<!DOCTYPE svg PUBLIC "-//W3C//DTD SVG 1.1//EN" "http://www.w3.org/Graphics/SVG/1.1/DTD/svg11.dtd">
<!-- Creator: Corel DESIGNER -->
<svg xmlns="http://www.w3.org/2000/svg" xml:space="preserve" width="40mm" height="40mm" version="1.1" style="shape-rendering:geometricPrecision; text-rendering:geometricPrecision; image-rendering:optimizeQuality; fill-rule:evenodd; clip-rule:evenodd"
viewBox="0 0 2000 2000"
 xmlns:xlink="http://www.w3.org/1999/xlink"
 xmlns:xodm="http://www.corel.com/coreldraw/odm/2003">
 <defs>
  <style type="text/css">
   <![CDATA[
    .fil1p {fill:#0E1313}
    .fil2p {fill:#A1262D}
    .fil0p {fill:white}
   ]]>
  </style>
 </defs>
<symbol id="ISO_x0020_7010_x0020_P036" viewBox="-3750 4425 3500 3500">
 <circle class="fil0p" cx="-2000" cy="6175" r="1575"/>
 <path class="fil1p" d="M-2629.48 5752.32c-131.99,62.34 -187.26,177.72 -225.35,274.88 -22.91,58.44 -55.85,194.66 -60.75,246.84 -10.59,112.79 87.24,108.21 97.93,10.76 8.14,-74.15 25.05,-141.36 70.78,-223.69 27.75,-49.96 99.34,-167.09 85.37,-5.63 -8.95,103.49 -26.33,251.11 -86.49,332.17 -79.26,106.81 -168.91,134.13 -297.07,210.36 -133.48,79.39 -36.23,218.91 102.78,139.34 78.17,-44.75 214.14,-116.8 268.36,-173.96 57.63,-60.78 57.08,-44.95 116.92,-124.54 14.98,-19.92 68.47,-122.31 75.25,-113.64 70.29,89.82 88.38,167.22 119.69,282.61 17.25,63.57 31.49,203.3 44.07,298.74 12.5,94.85 184.57,136.74 189.18,-53.27 2.31,-95.01 -43.11,-252.02 -54.93,-314.43 -23.6,-124.54 -76.65,-249.07 -100.31,-336.4 -30.66,-113.14 -1.97,-286.06 14.99,-286.06 112.51,0 142.71,189.81 159.16,286.34 9.24,54.22 111.47,51.81 97.61,-38.16 -14.63,-94.92 -45.25,-210.09 -87.8,-268.53 -24.84,-34.14 -87.62,-113 -157.07,-139.78 -20.79,-8.01 -49.38,-7.11 -65.09,-18.51 -12.13,-8.81 -13.96,-32.74 5.44,-44.27 44.81,-26.61 79.92,-51.19 77.89,-152.91 -0.99,-49.6 -24.39,-90.98 -66.62,-117.14 -56.68,-35.1 -146.22,-11.75 -180.92,21.97 -59.05,57.4 -45.59,159.78 14.75,228.37 5.53,6.28 38.3,30.35 -3.04,54.26 -7.11,4.1 -134.84,14.87 -154.76,24.28z"/>
 <path class="fil1p" d="M-1710.88 5424.18c10.53,27.92 40.67,43.04 64.24,61.26 11.96,9.24 6.11,32.78 -6.71,40.61 -15.91,9.71 -48.69,12.8 -90.21,18.24 -56.27,7.38 -275.56,194.64 -292.68,237.48 -20.32,50.84 33.52,310.81 53.97,356.95 20.46,46.15 98.74,10.98 96.79,-38.59 -1.95,-49.58 -15.46,-125.84 -23.12,-234.24 -2.34,-33.17 137.26,-150.42 133.22,-86.24 -8.23,130.65 -24.67,189.71 -68.59,308.47 -26.47,71.6 -58.59,184.97 -119.11,266.81 0,18.41 55.82,2.61 59.68,14.19 -46.41,53.96 -204.58,265.84 -216.33,283.81 -87.41,133.67 62.28,216.56 132.57,115.84 47.12,-67.51 218.03,-263.3 295.45,-384.62 38.31,5.66 190.43,13.1 265.56,1.4 63.72,167.71 97.45,357.89 199.81,508.18 41.52,60.97 172.55,13.01 121.76,-66.6 -92.23,-144.55 -118.43,-310.86 -161.71,-485.09 24.7,-20.33 48.53,-44.89 46.52,-48.83 -15.97,-31.41 -84.06,-180.15 -108.22,-259.97 -19.53,-64.53 -92.55,-280.38 13.55,-145.14 27.49,35.03 55.13,70.97 101.45,105.43 46.63,34.68 85.36,65.83 248.24,105.19 81.21,19.62 75.66,-87.68 -25.25,-121.79 -120.75,-40.82 -198.23,-134.81 -249.4,-235.85 -47.87,-94.54 -129.25,-199.83 -236.31,-204.25 -8.88,-0.36 -15.66,-7.77 -15.23,-16.65 0.14,-2.89 0.4,-7.54 0.84,-15.21 0.33,-5.9 3.58,-10.8 8.89,-13.39 54.54,-26.64 98.21,-198.74 38.41,-268.22 -78.05,-90.69 -180.17,-67.31 -233.41,-2.65 -39.35,47.79 -62.61,129.41 -34.68,203.45z"/>
 <path class="fil2p" d="M-601.73 6175c0,-772.24 -626.03,-1398.27 -1398.27,-1398.27 -336.84,0 -645.85,119.11 -887.22,317.51l1972.76 1962.03c195.5,-240.5 312.73,-547.18 312.73,-881.27zm-2483.81 -881.27c-195.49,240.5 -312.73,547.18 -312.73,881.27 0,772.24 626.03,1398.27 1398.27,1398.27 336.84,0 645.84,-119.12 887.22,-317.52l-1972.76 -1962.03zm2835.54 881.27c0,-966.5 -783.5,-1750 -1750,-1750 -966.5,0 -1750,783.5 -1750,1750 0,966.5 783.5,1750 1750,1750 966.5,0 1750,-783.5 1750,-1750z"/>
</symbol>
 <g id="Ebene_x0020_1">
  <metadata id="CorelCorpID_0Corel-Layer"/>
  <use id="ISO_x0020_7010_x0020_P036_0" transform="scale(0.571429 0.571429)" x="-0" y="-0" width="3500" height="3500" xlink:href="#ISO_x0020_7010_x0020_P036"/>
 </g>
</svg>
