<?xml version="1.0" encoding="UTF-8"?>
<!DOCTYPE svg PUBLIC "-//W3C//DTD SVG 1.1//EN" "http://www.w3.org/Graphics/SVG/1.1/DTD/svg11.dtd">
<!-- Creator: Corel DESIGNER -->
<svg xmlns="http://www.w3.org/2000/svg" xml:space="preserve" width="40mm" height="40mm" version="1.1" style="shape-rendering:geometricPrecision; text-rendering:geometricPrecision; image-rendering:optimizeQuality; fill-rule:evenodd; clip-rule:evenodd"
viewBox="0 0 1000 1000"
 xmlns:xlink="http://www.w3.org/1999/xlink"
 xmlns:xodm="http://www.corel.com/coreldraw/odm/2003">
 <defs>
  <style type="text/css">
   <![CDATA[
    .fil1p {fill:#0E1313}
    .fil2p {fill:#A1262D}
    .fil0p {fill:white}
   ]]>
  </style>
 </defs>
<symbol id="ISO_x0020_7010_x0020_P037" viewBox="1125 654.16 1750 1750">
 <circle class="fil0p" cx="2000" cy="1529.16" r="787.5"/>
 <path class="fil1p" d="M1889.69 918.22l94.36 -10.36 -0.02 1242.6 -102.64 -11.27 0 -1220.06 8.3 -0.91zm75.88 10.29l-65.63 7.2 0 1186.9 65.61 7.2 0.02 -1201.3zm134.47 7.2l-65.63 -7.2 0.02 1201.3 65.61 -7.2 0 -1186.9zm-73.9 -26.73l92.44 10.14 0 1220.06 -102.64 11.27 -0.02 -1242.6 10.22 1.12z"/>
 <path class="fil1p" d="M2146.29 1295.25l204.54 -139.2c35.26,-23.99 43.8,-54.55 48.61,-89.69l36.47 34.04c-7.91,34.2 -23.02,64.6 -61.23,90.6l-204.54 139.2 -23.85 -34.95zm-100.23 741.85l0 98.42 42.41 0 -0 -99.38 -42.4 0 0 0.96zm85.49 -731.84c-27.65,18.88 -55.29,38.04 -81.84,58.44l25.87 33.6c26,-19.89 52.88,-38.58 79.91,-57.04l-23.94 -35zm-97.9 71.13c-27.18,22.09 -53.07,46.5 -73.14,75.37l34.89 24.1c17.9,-25.57 40.92,-47 65.04,-66.6l-26.79 -32.86zm-84.74 93.64c-18.21,31.98 -28.01,65.38 -32.96,101.73l42.04 5.61c4.33,-31.01 12.14,-58.91 27.7,-86.24l-36.78 -21.1zm-35.28 122.51c-2.84,33.64 -2.1,67.37 -2.1,101.1l42.4 0c0,-32.53 -0.79,-65.11 1.95,-97.56l-42.26 -3.54zm-2.1 120.98l42.4 0 0 16.18c0.09,25.66 4.78,49.07 14.78,72.69l-39.03 16.58c-12.23,-28.93 -18.07,-57.85 -18.16,-89.27l0 -16.18zm27.44 125c15.88,30.42 37.36,57.36 57.92,84.67l33.95 -25.41c-19.08,-25.41 -39.62,-50.79 -54.37,-79.05l-37.5 19.79zm69.29 100.22c17.52,24.73 32.14,49.93 36.56,80.4l42.03 -5.64c-5.39,-37.75 -22.19,-68.51 -43.92,-99.18l-34.67 24.42zm-96.71 98.35l0 98.42 42.4 0c0,-31.64 2.11,-70.02 -0.09,-100.82l-42.32 2.39zm149.81 -846.73l1.97 -1.34 -0.03 -0.04 -0.51 0.34 1.31 -0.89 -0.24 0.15 6.73 -4.59 0.03 0.05 176.97 -120.46c11.75,-7.99 18.78,-18.18 20.61,-32.23l6.38 -48.85 39.53 22 -4.08 31.23c-3.44,26.36 -16.64,47.86 -38.59,62.8l-176.99 120.47 0.02 0.02 -5.01 3.42 -2.47 1.69 -0.7 0.46 -0.02 -0.02 -1.06 0.72 -23.86 -34.95zm-14.99 10.23c-27.59,19.04 -55.07,38.43 -81.51,59.04l26.13 33.4c25.81,-20.08 52.54,-38.96 79.46,-57.53l-24.07 -34.91zm-97.4 71.69c-26.79,21.86 -51.89,44.91 -74.52,71.11l32.17 27.63c21.02,-24.29 44.3,-45.59 69.16,-65.88l-26.81 -32.86zm-87.8 87.34c-21.9,28.24 -38.94,57.9 -52.2,91.09l39.42 15.61c11.87,-29.58 26.8,-55.58 46.33,-80.77l-33.56 -25.93zm-59.4 110.85c-10.49,35.64 -17.34,64.45 -21.16,101.7l42.19 4.28c3.59,-34.02 9.61,-59.95 19.18,-92.53l-40.21 -13.44zm-22.94 122.16c-2.34,33.79 -1.81,66.86 -1.81,100.82l42.4 0c0,-32.72 -0.55,-65.25 1.71,-97.88l-42.31 -2.95zm-1.81 120.7l42.4 0c-0.85,32.42 2.54,63.53 9.64,93.14l-41.58 10.61c-8.27,-36.09 -11.09,-70.47 -10.47,-103.75zm16.92 124.08c10.66,33.54 25.65,64.59 44.07,94.52l36.09 -22.27c-16.61,-26.96 -30.16,-54.93 -39.77,-85.15l-40.39 12.91zm55.25 111.9c17.62,26.44 44.66,58.36 57.88,79.66l36.19 -22.1c-14.42,-23.12 -40.67,-53.91 -58.85,-81.18l-35.22 23.62z"/>
 <path class="fil2p" d="M2699.14 1529.16c0,-386.12 -313.01,-699.13 -699.14,-699.13 -168.42,0 -322.92,59.55 -443.61,158.75l986.38 981.02c97.75,-120.25 156.37,-273.59 156.37,-440.64zm-1241.91 -440.64c-97.74,120.25 -156.37,273.59 -156.37,440.64 0,386.12 313.01,699.14 699.13,699.14 168.42,0 322.92,-59.56 443.61,-158.76l-986.38 -981.02zm1417.77 440.64c0,-483.25 -391.75,-875 -875,-875 -483.25,0 -875,391.75 -875,875 0,483.25 391.75,875 875,875 483.25,0 875,-391.75 875,-875z"/>
</symbol>
 <g id="Ebene_x0020_1">
  <metadata id="CorelCorpID_0Corel-Layer"/>
  <use id="ISO_x0020_7010_x0020_P037_0" transform="scale(0.571429 0.571429)" x="-0" y="-0" width="1750" height="1750" xlink:href="#ISO_x0020_7010_x0020_P037"/>
 </g>
</svg>
