<?xml version="1.0" encoding="UTF-8"?>
<!DOCTYPE svg PUBLIC "-//W3C//DTD SVG 1.1//EN" "http://www.w3.org/Graphics/SVG/1.1/DTD/svg11.dtd">
<!-- Creator: Corel DESIGNER -->
<svg xmlns="http://www.w3.org/2000/svg" xml:space="preserve" width="40mm" height="40mm" version="1.1" style="shape-rendering:geometricPrecision; text-rendering:geometricPrecision; image-rendering:optimizeQuality; fill-rule:evenodd; clip-rule:evenodd"
viewBox="0 0 1000 1000"
 xmlns:xlink="http://www.w3.org/1999/xlink"
 xmlns:xodm="http://www.corel.com/coreldraw/odm/2003">
 <defs>
  <style type="text/css">
   <![CDATA[
    .fil1p {fill:#0E1313}
    .fil2p {fill:#A1262D}
    .fil0p {fill:white}
   ]]>
  </style>
 </defs>
<symbol id="ISO_x0020_7010_x0020_P040" viewBox="1125 -904.17 1750 1750">
 <circle class="fil0p" cx="2000" cy="-29.17" r="787.5"/>
 <path class="fil1p" d="M2493.64 -194.39l-60.41 -25.55 -60.42 -25.55 52.34 -39.55 52.34 -39.55 8.08 65.1 8.08 65.1zm-316.28 720.65l-8.24 -8.31c-5.55,2.99 -37.38,36.12 -43.09,44.57 4.44,4.15 7.55,7.65 12.8,9.89l38.54 -46.15zm-61.46 -37.43c4.1,0.98 7.98,1.81 12.56,2.82 16.39,3.61 28.35,9.74 39.44,11.41l4.73 -11.68 -52.02 -19.5 -4.72 16.95zm84.95 95.88c3.65,-6.87 3.64,-42.31 -0.33,-52.72 -0.11,-0.28 -0.46,-0.5 -0.54,-1.11 -0.09,-0.62 -0.36,-0.75 -0.6,-1.25l-10.75 1.68c-1.34,7.55 1.15,24.15 -3.68,50.21l15.89 3.17zm37.5 -27.49c5.44,-2.93 9.62,-5.73 13.18,-9.33 -2.04,-4.5 -1.07,-1.9 -3.73,-5.15 -7.85,-9.59 -20.37,-22.52 -32.35,-26.4 -2.56,5.31 -3.5,5.5 -4.99,11.83 14.37,7.28 22.67,23.69 27.89,29.06zm-56.71 -72.45l12.83 -0.71c1.74,-20.7 4.24,-21.82 10.43,-36.09 -5.41,-3.42 -9.88,-6.49 -15.74,-7.47 -4.87,15.12 -9.31,24.89 -7.52,44.26zm10.44 30.69c5.04,-0.91 8.44,-5.47 7.59,-10.17 -0.86,-4.71 -5.63,-7.78 -10.68,-6.86 -5.04,0.91 -8.44,5.47 -7.59,10.17 0.86,4.71 5.64,7.77 10.68,6.86zm61.99 -143.42l231.57 -547.52 -120.83 -51.11 -231.57 547.52 0 0 -107 253 22.12 9.36 107 -253 38.33 16.21c-6.15,14.85 -11.84,26.07 -7.29,41.22 8.4,27.96 44.56,36.32 49.93,64.62 3.09,16.27 -13.46,31.2 -28.75,38.44l6.77 14.36c22.23,-10.52 42.16,-31.57 37.58,-55.72 -8.43,-44.39 -64.06,-47.4 -48.43,-85.12l4.81 -11.6 45.76 19.35z"/>
 <path class="fil1p" d="M1835.73 -522.86l174.04 109.59 28.48 -45.24 -186.33 -117.32 -25.78 40.95 -8.44 -0.35 2.61 -62.65 -16.95 -0.71 -16.66 -0.7 -2.13 51.2 -8.44 -0.35 -22.29 -42.95 -195.43 101.43 24.63 47.45 182.55 -94.74 18.51 0.77 -3.77 90.49 -8.4 -0.35 -22.21 -42.8c-65.14,33.81 -130.29,67.62 -195.43,101.43 8.21,15.81 16.42,31.63 24.63,47.45l182.82 -94.88 18.12 0.75 -3.77 90.49 -8.37 -0.35 -22.13 -42.64c-65.14,33.81 -130.29,67.62 -195.43,101.43 8.21,15.81 16.42,31.63 24.62,47.45l183.09 -95.02 17.74 0.74 -3.77 90.49 -8.34 -0.35 -22.05 -42.49c-65.14,33.81 -130.29,67.62 -195.43,101.43 8.21,15.81 16.42,31.63 24.63,47.45l183.36 -95.16 17.36 0.72 -3.77 90.49 -8.3 -0.34 -21.97 -42.33c-65.14,33.81 -130.29,67.62 -195.43,101.43 8.21,15.82 16.42,31.63 24.63,47.45l183.63 -95.3 16.97 0.71 -3.77 90.49 -8.27 -0.35 -21.89 -42.18c-65.14,33.81 -130.29,67.62 -195.43,101.43 8.21,15.81 16.42,31.63 24.62,47.45l183.89 -95.44 16.59 0.69 -3.77 90.49 -8.23 -0.34 -21.81 -42.02 -195.43 101.43 24.63 47.45 184.16 -95.58 16.2 0.67 -2.74 65.73 0.29 0.01 0 0 16.69 0.69 16.39 0.68 0 0 0.29 0.01 2.26 -54.28 16.21 0.68 175.58 110.56 28.48 -45.23 -186.33 -117.33 -25.23 40.07 -8.23 -0.34 3.76 -90.49 16.59 0.69 175.33 110.4c9.49,-15.08 18.99,-30.16 28.48,-45.24 -62.11,-39.11 -124.22,-78.22 -186.33,-117.33l-25.32 40.22 -8.27 -0.34 3.77 -90.49 16.97 0.71 175.07 110.23c9.49,-15.08 18.99,-30.16 28.48,-45.24 -62.11,-39.11 -124.22,-78.22 -186.33,-117.32l-25.41 40.36 -8.3 -0.35 3.77 -90.49 17.35 0.72 174.81 110.07c9.49,-15.08 18.99,-30.16 28.48,-45.23 -62.11,-39.11 -124.22,-78.22 -186.33,-117.33l-25.5 40.51 -8.34 -0.35 3.77 -90.49 17.74 0.74 174.56 109.92c9.49,-15.08 18.99,-30.16 28.48,-45.24 -62.11,-39.11 -124.21,-78.22 -186.33,-117.33l-25.6 40.65 -8.37 -0.35 3.76 -90.49 18.12 0.75 174.3 109.75c9.49,-15.08 18.99,-30.16 28.48,-45.24 -62.11,-39.11 -124.21,-78.21 -186.33,-117.32l-25.69 40.8 -8.41 -0.35 3.76 -90.49 18.51 0.77zm-192.94 786.46l6.37 21.51 19.01 -11.08 -9.89 22.02 19.86 3.72 -18.72 12.61 12.4 16.78 -21.19 -1.68 -1.29 24.62 -13.93 -17.57 -19.12 22.1 2.27 -26.18 -28.34 8.13 21.67 -23.26 -25.62 -11.92 31.32 -5.36 -8.34 -25.62 22.29 13.85 11.26 -22.67zm-67.54 -30.22l15.44 55.83 -64.86 11.44 53.28 26.23 -48.16 51.81 64.68 -19.88 -7.75 61.69 41.06 -52.74 30.51 40.06 3.58 -55.5 48.29 2.75 -28.58 -35.91 43.64 -27.25 -46.79 -5.71 23.44 -49.38 -46.03 27.54 -10.58 -52.75 -24.9 52.65 -46.27 -30.9zm301.47 59.16l21.2 4.5 3.52 -20.22 12.31 16.48 17.16 -11.66 -2.8 20.17 23.17 -1.73 -15.24 14.16 18.9 11.73 -22.33 0.58 4.78 19.82 -18.52 -11.25 -9.65 18.27 -6.46 -18.8 -22.4 7.7 6.69 -17.37 -19.12 -6.21 19.41 -9.38 -10.63 -16.8zm-35.6 -25.35l26.47 33.65 -43.64 22.43 44.92 12.76 -18.5 40.91 49.95 -21.58 12.48 47.36 21.15 -44.23 45.13 29.18 -17.88 -45.37 53.05 -2.01 -44.8 -26.08 38.25 -31.25 -52.77 4.36 5.57 -45.84 -37.37 29.79 -29.12 -35.79 -6.33 43.16 -46.56 -11.44zm155.4 -12.4l69.51 -7.89 -7.79 -40.78 -61.72 48.67zm-36.83 213.14l40.8 -6.39 -54.38 -62.6 13.59 68.99zm-162.68 -16.63l31.46 20.31 34.77 -67.08 -66.23 46.78zm-185.64 33.51l38.67 -3.77 -20.18 -79.36 -18.49 83.13zm-122.94 -244l70.58 26.12 -51.29 -58.41 -19.29 32.29zm299.36 -47.18c20.79,6.86 49.88,19.29 69.09,37.6l9.88 -14.05c-13.42,-12.98 -48.51,-30.69 -76.13,-35.22l-2.84 11.67zm-24.25 11.25c5.21,27.49 11.54,56.01 20.02,75.91l17.07 -6.25c-8.39,-18.03 -18.65,-45.73 -24.96,-72.36l-12.13 2.7zm23.28 110.25l-66.72 10.48 57.98 22.63 8.73 -33.11zm4.65 -159.7l5.45 10.66c17.79,-8.44 33.57,-10.08 51.68,-11.3l-0.36 -16.68c-16.48,-0.07 -46.33,8.28 -56.78,17.32zm-89.88 61.57l13.7 10.53c8.28,-11.77 17.85,-21.5 31.01,-33.51l-5.99 -10.72c-12.35,7.35 -29.74,23.45 -38.72,33.71zm-3.64 -79.4c7.81,12.89 23.6,24.44 37.72,31.86l6.2 -10.1c-14.36,-13.66 -17.05,-15.31 -29.52,-31.48l-14.4 9.72zm75.73 44.68c3.72,-4.44 3.73,-10.57 0.01,-13.68 -3.71,-3.11 -9.74,-2.03 -13.46,2.42 -3.72,4.44 -3.73,10.57 -0.01,13.68 3.71,3.11 9.74,2.03 13.46,-2.42z"/>
 <path class="fil2p" d="M2699.14 -29.17c0,-386.12 -313.01,-699.13 -699.14,-699.13 -168.42,0 -322.92,59.55 -443.61,158.75l986.38 981.02c97.75,-120.25 156.37,-273.59 156.37,-440.64zm-1241.91 -440.64c-97.74,120.25 -156.37,273.59 -156.37,440.64 0,386.12 313.01,699.13 699.13,699.13 168.42,0 322.91,-59.56 443.61,-158.76l-986.38 -981.02zm1417.77 440.64c0,-483.25 -391.75,-875 -875,-875 -483.25,0 -875,391.75 -875,875 0,483.25 391.75,875 875,875 483.25,0 875,-391.75 875,-875z"/>
</symbol>
 <g id="Ebene_x0020_1">
  <metadata id="CorelCorpID_0Corel-Layer"/>
  <use id="ISO_x0020_7010_x0020_P040_0" transform="scale(0.571429 0.571429)" x="-0" y="-0" width="1750" height="1750" xlink:href="#ISO_x0020_7010_x0020_P040"/>
 </g>
</svg>
