<?xml version="1.0" encoding="UTF-8"?>
<!DOCTYPE svg PUBLIC "-//W3C//DTD SVG 1.1//EN" "http://www.w3.org/Graphics/SVG/1.1/DTD/svg11.dtd">
<!-- Creator: Corel DESIGNER -->
<svg xmlns="http://www.w3.org/2000/svg" xml:space="preserve" width="40mm" height="40mm" version="1.1" style="shape-rendering:geometricPrecision; text-rendering:geometricPrecision; image-rendering:optimizeQuality; fill-rule:evenodd; clip-rule:evenodd"
viewBox="0 0 1000 1000"
 xmlns:xlink="http://www.w3.org/1999/xlink"
 xmlns:xodm="http://www.corel.com/coreldraw/odm/2003">
 <defs>
  <style type="text/css">
   <![CDATA[
    .fil1p {fill:#0E1313}
    .fil2p {fill:#A1262D}
    .fil0p {fill:white}
   ]]>
  </style>
 </defs>
<symbol id="ISO_x0020_7010_x0020_P043" viewBox="1125 -2462.5 1750 1750">
 <circle class="fil0p" cx="2000" cy="-1587.5" r="787.5"/>
 <path class="fil1p" d="M2225.11 -1733.24c-5.37,-6.29 -12.06,-10.41 -20.11,-12.28l-152.78 -34.55 -110.36 -129.25 -80.01 -98.71 56.96 -61.46c13.58,-14.66 -5.63,-33.33 7.96,-47.98l54.13 -58.42 -19.64 -18.2 -54.14 58.42c-13.58,14.66 -33.65,-3.08 -47.24,11.58l-55.72 60.13c-25.77,-3.9 -47.09,19.28 -41.31,44.58l-29.79 32.15c-9.1,9.82 8.89,29.8 18.71,38.9 9.82,9.1 31.11,25.52 40.21,15.7l19.39 -20.93 73.7 90.93c0.22,0.27 0.45,0.54 0.67,0.81l118.5 138.79c5.33,6.24 12.34,10.25 19.83,11.91l-50.11 221.57 -194.45 -18.28c-8.06,-0.76 -16.5,0.92 -23.66,4.7l-205.53 108.5c-20.37,10.75 -29.67,35.65 -17.32,56.88 12.35,21.23 34.35,29.61 56.73,17.79l194.4 -102.62 218.24 20.52 2.78 0.63 -110.49 110.2c-6.03,6.01 -10.23,14.04 -11.74,22.43l-41.08 228.75c-4.07,22.66 11.3,44.57 34.15,48.67 0,3.36 42.57,1.79 48.95,-33.75l38.73 -215.69 154.17 -153.77c6.15,-5.62 10.71,-13.08 12.68,-21.77l56.15 -248.32 219.53 256.85c13.13,15.37 36.54,17 51.84,3.79 15.3,-13.22 17.02,-36.56 3.78,-51.84l-236.77 -277.35zm-142.5 -129.39c9.06,-40.09 48.91,-65.24 89,-56.17 40.09,9.07 65.24,48.91 56.17,89 -9.07,40.09 -48.91,65.24 -89,56.17 -40.09,-9.07 -65.24,-48.92 -56.17,-89.01z"/>
 <path class="fil1p" d="M2222.94 -2162.49c-38.78,10.62 -66.22,34.74 -56.65,78.55 16.58,75.94 113.38,61.43 102.22,2.85 -8.98,-47.08 -81.35,-14.26 -39.15,18.24l5.3 4.12c-29.28,-6.1 -36.22,-36.79 -15.45,-49.74 60.3,-37.62 99.91,71.5 17.7,92.53 -94.98,24.3 -120.88,-141.57 -13.96,-146.56zm94.73 225.13c-25.9,12.08 -37.05,27.42 -29.32,55.25 13.77,49.56 82.78,29.62 65.42,-10.91 -15.08,-35.21 -56.31,0.48 -30.03,14.88l3.89 2.05c-25.32,-0.87 -20.62,-27.57 -3.86,-36.6 39.09,-21.04 66.86,60.28 12.09,70.77 -60.74,11.63 -84.94,-86.94 -18.2,-95.44zm-191.54 -23.72c12.73,-16.46 16.13,-23.35 8.9,-43.73 -13.89,-39.18 -70.75,1.69 -41.03,22.54 11.83,8.3 17.36,-4.67 21.22,-12.49 0.61,17.9 -15.35,25.64 -27.64,15.25 -34.91,-29.51 31.86,-75.82 52.26,-34.31 9.81,19.96 6.87,39.77 -13.72,52.74zm-41.43 -185.79c0,-2.07 -0.84,-3.95 -2.19,-5.3 -1.36,-1.36 -3.23,-2.19 -5.3,-2.19 -2.08,0 -3.95,0.84 -5.31,2.18 -1.35,1.36 -2.18,3.23 -2.18,5.31 0,2.07 0.84,3.94 2.19,5.3 1.36,1.36 3.23,2.2 5.3,2.2 2.09,0 3.96,-0.83 5.3,-2.17l0.02 -0.02c1.34,-1.34 2.17,-3.22 2.17,-5.3zm5.7 -13.19c3.38,3.38 5.46,8.04 5.46,13.19 0,5.12 -2.08,9.77 -5.45,13.15l-0.03 0.03c-3.38,3.38 -8.04,5.47 -13.16,5.47 -5.15,0 -9.81,-2.09 -13.18,-5.47 -3.38,-3.38 -5.46,-8.04 -5.46,-13.18 0,-5.13 2.09,-9.79 5.46,-13.16l0.02 -0.02c3.38,-3.38 8.03,-5.46 13.16,-5.46 5.15,0 9.81,2.09 13.19,5.46zm-59.25 241.91c0,-2.07 -0.84,-3.94 -2.19,-5.3 -1.36,-1.36 -3.23,-2.2 -5.3,-2.2 -2.08,0 -3.95,0.84 -5.31,2.18 -1.35,1.36 -2.18,3.23 -2.18,5.31 0,2.07 0.84,3.94 2.19,5.3 1.36,1.36 3.23,2.2 5.3,2.2 2.08,0 3.96,-0.83 5.3,-2.17l0.02 -0.02c1.34,-1.34 2.17,-3.21 2.17,-5.3zm5.69 -13.19c3.38,3.38 5.46,8.04 5.46,13.19 0,5.12 -2.08,9.77 -5.45,13.15l-0.03 0.04c-3.39,3.38 -8.04,5.46 -13.17,5.46 -5.15,0 -9.81,-2.09 -13.19,-5.46 -3.38,-3.38 -5.46,-8.04 -5.46,-13.19 0,-5.13 2.09,-9.79 5.46,-13.16l0.02 -0.02c3.38,-3.37 8.03,-5.46 13.16,-5.46 5.15,0 9.81,2.09 13.19,5.46zm417.38 -1.32c0,-8.25 -6.69,-14.93 -14.94,-14.93 -8.25,0 -14.93,6.69 -14.93,14.93 0,8.25 6.69,14.93 14.93,14.93 8.25,0 14.94,-6.68 14.94,-14.93zm-117.95 -117.49c4.2,-2.71 10.71,-6.03 14.89,-8.73 0.34,-0.22 0.73,-0.26 1.11,-0.13 0.38,0.14 0.65,0.41 0.78,0.8 2.88,8.78 4.55,20.54 3.16,31.94 -0.07,0.59 -0.52,1.04 -1.11,1.11 -0.59,0.07 -1.13,-0.27 -1.33,-0.83 -3.48,-9.58 -11.78,-17.27 -17.62,-22.13 -0.32,-0.26 -0.48,-0.63 -0.45,-1.05 0.03,-0.41 0.23,-0.76 0.58,-0.99zm50.18 0.36c4.23,2.33 10.01,6.29 14.21,8.6 0.36,0.19 0.58,0.51 0.64,0.91 0.06,0.4 -0.05,0.77 -0.33,1.07 -6.12,6.46 -15.28,13.26 -25.55,17.35 -0.55,0.22 -1.16,0.04 -1.5,-0.45 -0.34,-0.48 -0.31,-1.12 0.08,-1.57 6.46,-7.36 9.15,-17.87 10.59,-25.05 0.08,-0.41 0.33,-0.72 0.71,-0.9 0.38,-0.18 0.78,-0.16 1.14,0.04zm-7.59 49.43c7.15,1.03 13.7,1.17 19.28,-0.15 0.4,-0.1 0.78,-0 1.09,0.25 0.31,0.26 0.48,0.62 0.46,1.02 -0.25,7.09 -2,15.35 -3.34,22.66 -0.1,0.53 -0.49,0.92 -1.02,1.02 -0.53,0.1 -1.04,-0.13 -1.31,-0.6 -4.64,-7.77 -10.11,-15.12 -16.3,-22.11 -0.36,-0.4 -0.42,-0.96 -0.16,-1.44 0.26,-0.48 0.76,-0.73 1.29,-0.65zm-15.08 9.77c-4.23,8.31 -8.62,15.46 -13.15,21.63 -0.21,0.29 -0.29,0.62 -0.22,0.97 0.06,0.36 0.25,0.63 0.55,0.83 4.92,3.21 9.36,4.81 13.28,4.65 0.61,-0.02 1.11,-0.46 1.2,-1.07 1.28,-8.16 1.41,-17.08 0.74,-26.54 -0.04,-0.57 -0.45,-1.03 -1.01,-1.15 -0.57,-0.12 -1.12,0.15 -1.38,0.67zm-45.68 -16.14c8.91,2.58 17.82,2.33 26.73,0.56 0.56,-0.11 0.96,-0.55 1.01,-1.12 0.05,-0.57 -0.26,-1.08 -0.78,-1.29 -8.38,-3.41 -16.54,-7.82 -24.14,-14.86 -0.38,-0.35 -0.91,-0.44 -1.38,-0.23 -0.47,0.22 -0.76,0.67 -0.74,1.19 0.16,5.71 -0.69,10.24 -1.58,14.26 -0.14,0.65 0.24,1.3 0.88,1.49zm3.28 209.55c4.88,-1.75 12.26,-3.59 17.11,-5.34 0.38,-0.13 0.77,-0.09 1.11,0.12 0.34,0.22 0.55,0.55 0.58,0.95 0.85,9.56 -0.23,21.86 -4.34,33.07 -0.2,0.56 -0.75,0.89 -1.34,0.82 -0.59,-0.07 -1.04,-0.52 -1.11,-1.11 -1.22,-10.53 -7.84,-20.28 -12.6,-26.57 -0.25,-0.33 -0.32,-0.73 -0.2,-1.12 0.12,-0.4 0.39,-0.69 0.78,-0.83zm47.01 29.09c1.52,5.5 4.76,16.85 6.22,22.16 0.11,0.4 0.03,0.8 -0.23,1.12 -0.26,0.33 -0.63,0.49 -1.05,0.47 -8.55,-0.39 -16.8,-3.06 -25.92,-8.67 -0.4,-0.24 -0.62,-0.65 -0.6,-1.11 0.01,-0.47 0.26,-0.86 0.66,-1.08 8.43,-4.54 13.34,-8.87 18.88,-13.54 0.34,-0.29 0.76,-0.37 1.19,-0.24 0.42,0.13 0.73,0.44 0.84,0.87zm-28.08 26.74c9.1,5.18 15.2,13.04 24.66,16.77 0.51,0.2 0.82,0.67 0.8,1.22 -0.29,9.3 -5.02,12.56 -10.24,18.41 -0.46,0.51 -1.24,0.57 -1.77,0.12 -9.01,-7.71 -11.95,-19.4 -15.33,-35.14 -0.11,-0.5 0.08,-0.98 0.49,-1.29 0.41,-0.3 0.93,-0.33 1.38,-0.08zm-21.57 4.06c-8.11,6.6 -14.91,13.11 -20.56,19.53 -0.24,0.27 -0.54,0.41 -0.9,0.43 -0.36,0.01 -0.68,-0.11 -0.93,-0.36 -4.69,-4.61 -7.48,-9.07 -8.2,-13.36 -0.1,-0.6 0.22,-1.17 0.79,-1.39 8.6,-3.34 18.32,-5.59 28.83,-7.08 0.57,-0.08 1.11,0.22 1.34,0.75 0.23,0.53 0.09,1.12 -0.36,1.49zm-37.5 -25.92c8.97,4.82 23.73,5.39 34.63,5.48 0.56,0 1.04,-0.34 1.21,-0.87 0.17,-0.53 -0.01,-1.09 -0.46,-1.42 -7.82,-5.66 -15.15,-12.32 -21.17,-21.66 -0.27,-0.41 -0.71,-0.62 -1.2,-0.57 -0.49,0.05 -0.88,0.35 -1.05,0.81 -2.46,6.43 -9.56,12.22 -12.41,16.41 -0.21,0.31 -0.27,0.65 -0.18,1.01 0.09,0.36 0.3,0.64 0.63,0.81zm-282.37 -321.66c4.34,0.09 11.73,3.09 15.94,5.35 0.48,0.26 0.74,0.77 0.65,1.32 -1.27,7.85 -6.73,18.39 -12.89,26.55 -0.32,0.42 -0.83,0.59 -1.33,0.46 -0.51,-0.13 -0.87,-0.53 -0.94,-1.05 -0.89,-6.62 -3.07,-21.02 -2.72,-31.4 0.02,-0.69 0.6,-1.24 1.29,-1.22zm33.12 24.37c3.73,2.31 7.69,7.17 10.13,11.58 0.28,0.51 0.19,1.11 -0.22,1.52 -5.88,5.78 -15.78,5.81 -26.05,8.1 -0.54,0.12 -1.06,-0.1 -1.35,-0.57 -0.29,-0.47 -0.26,-1.04 0.09,-1.46 5.67,-7.02 12,-13.69 15.71,-18.83 0.39,-0.54 1.12,-0.68 1.69,-0.34zm-23.33 32.24c5.1,4.79 10.22,8.54 15.38,10.61 0.38,0.15 0.64,0.45 0.75,0.84 0.11,0.39 0.04,0.78 -0.21,1.1 -4.16,5.49 -10.14,11.07 -15.27,16.12 -0.38,0.38 -0.93,0.47 -1.42,0.25 -0.49,-0.22 -0.77,-0.7 -0.73,-1.24 0.64,-8.75 0.39,-17.62 -0.62,-26.62 -0.06,-0.54 0.21,-1.03 0.69,-1.27 0.48,-0.24 1.04,-0.16 1.43,0.21zm-20.1 -0.8c-7.05,4.8 -10.54,7.5 -17.32,10.42 -0.33,0.14 -0.57,0.39 -0.69,0.73 -0.12,0.34 -0.1,0.68 0.06,1 2.94,5.77 8.22,12.36 12.1,14.72 0.56,0.35 1.29,0.2 1.68,-0.33 4.9,-6.71 3.24,-15.99 6.09,-25.13 0.16,-0.52 -0.01,-1.07 -0.45,-1.39 -0.44,-0.33 -1.01,-0.34 -1.47,-0.03zm-21.75 -31.43c6.69,7.71 10.82,10.66 19.17,13.69 0.53,0.19 1.11,0.02 1.44,-0.44 0.34,-0.46 0.34,-1.06 -0.01,-1.51 -5.55,-7.39 -8.49,-12.68 -11.22,-24.01 -0.1,-0.41 -0.37,-0.72 -0.76,-0.88 -0.39,-0.16 -0.8,-0.11 -1.16,0.12 -5.37,3.5 -6.79,7.08 -7.75,11.96 -0.08,0.39 0.02,0.77 0.28,1.07z"/>
 <path class="fil2p" d="M2699.14 -1587.5c0,-386.12 -313.01,-699.14 -699.14,-699.14 -168.42,0 -322.92,59.56 -443.61,158.76l986.38 981.02c97.75,-120.25 156.37,-273.59 156.37,-440.64zm-1241.91 -440.64c-97.74,120.26 -156.37,273.59 -156.37,440.64 0,386.12 313.01,699.13 699.13,699.13 168.42,0 322.91,-59.56 443.61,-158.75l-986.38 -981.02zm1417.77 440.64c0,-483.25 -391.75,-875 -875,-875 -483.25,0 -875,391.75 -875,875 0,483.25 391.75,875 875,875 483.25,0 875,-391.75 875,-875z"/>
</symbol>
 <g id="Ebene_x0020_1">
  <metadata id="CorelCorpID_0Corel-Layer"/>
  <use id="ISO_x0020_7010_x0020_P043_0" transform="scale(0.571429 0.571429)" x="-0" y="-0" width="1750" height="1750" xlink:href="#ISO_x0020_7010_x0020_P043"/>
 </g>
</svg>
