<?xml version="1.0" encoding="UTF-8"?>
<!DOCTYPE svg PUBLIC "-//W3C//DTD SVG 1.1//EN" "http://www.w3.org/Graphics/SVG/1.1/DTD/svg11.dtd">
<!-- Creator: Corel DESIGNER -->
<svg xmlns="http://www.w3.org/2000/svg" xml:space="preserve" width="40mm" height="40mm" version="1.1" style="shape-rendering:geometricPrecision; text-rendering:geometricPrecision; image-rendering:optimizeQuality; fill-rule:evenodd; clip-rule:evenodd"
viewBox="0 0 4000 4000"
 xmlns:xlink="http://www.w3.org/1999/xlink"
 xmlns:xodm="http://www.corel.com/coreldraw/odm/2003">
 <defs>
  <style type="text/css">
   <![CDATA[
    .fil1p {fill:#0E1313}
    .fil2p {fill:#A1262D}
    .fil0p {fill:white}
   ]]>
  </style>
 </defs>
<symbol id="ISO_x0020_7010_x0020_P046" viewBox="-1500 8850 7000 7000">
 <circle class="fil0p" cx="2000" cy="12350" r="3150"/>
 <path id="Fore_x0020_arm" class="fil1p" d="M3507.33 10840.6l-1272.12 850.83 -657.74 0 -732.31 -223.88c-20.12,-6.15 -40.56,-8.04 -60.37,-6.22l-784.01 51.51c-87.17,5.73 -153.69,81.93 -147.85,169.09 5.85,87.16 81.93,153.57 169.1,147.84l758.46 -49.83 726.88 222.21c15.41,4.71 31.01,6.92 46.37,6.88l0 556.85 -238.71 -344.33c-78.86,-113.75 -256.47,-98.77 -315.16,26.58l-425.92 909.61c-42.2,90.12 7.84,212.83 88.49,241.23 80.65,28.4 195.89,10.61 241.95,-86.5l291.45 -622.43 386.72 557.83c35.86,53.72 90.94,84.33 153.61,84.33l354.8 0c42.78,2.76 86.55,-9.43 122.62,-37.69l741.16 -580.93 941.72 -2.71c99.44,-0.29 180.55,-82.37 180.41,-182.96 -0.29,-100.34 -81.95,-182.2 -181.47,-181.92l-1004.38 2.9c-40.03,0.11 -80.52,14.15 -112.03,38.84l-495.51 388.39 0 -767.24c30.41,0.09 61.14,-8.49 88.17,-26.57l1311.91 -877.44c72.61,-48.56 92.48,-147.58 44.02,-220.26 -48.48,-72.67 -147.65,-92.57 -220.26,-44.01zm-1267.1 442.69c0,-177.62 -143.99,-321.62 -321.62,-321.62 -177.62,0.01 -321.61,144 -321.61,321.62 0,177.63 143.99,321.62 321.61,321.62 177.63,0 321.62,-143.99 321.62,-321.62z"/>
 <path class="fil1p" d="M1154.04 13090.76c0,-44.45 36.03,-80.49 80.48,-80.49 44.45,0 80.48,36.04 80.48,80.49l0 139.41c0,28.05 11.48,53.54 29.98,72.05 18.51,18.5 44,29.98 72.05,29.98l1003.16 0c28.05,0 53.54,-11.48 72.05,-29.98 18.5,-18.51 29.98,-44 29.98,-72.05l0 -139.41c0,-44.45 36.03,-80.49 80.48,-80.49 44.45,0 80.48,36.04 80.48,80.49l0 139.41c0,72.48 -29.52,138.24 -77.14,185.85 -47.61,47.62 -113.37,77.14 -185.85,77.14l-1003.16 0c-72.48,0 -138.24,-29.52 -185.85,-77.14 -47.62,-47.61 -77.14,-113.37 -77.14,-185.85l0 -139.41z"/>
 <path class="fil1p" d="M-62.4 13704.42l4159.47 0c-88.42,137.39 -190.14,265.36 -303.23,382.29l-3553.01 0c-113.09,-116.93 -214.81,-244.9 -303.23,-382.29z"/>
 <path class="fil2p" d="M4796.54 12350c0,-1544.48 -1252.05,-2796.54 -2796.54,-2796.54 -673.67,0 -1291.7,238.22 -1774.43,635.03l3945.51 3924.06c391,-481 625.46,-1094.36 625.46,-1762.55zm-4967.62 -1762.55c-390.98,481.02 -625.46,1094.36 -625.46,1762.55 0,1544.49 1252.05,2796.54 2796.54,2796.54 673.67,0 1291.66,-238.25 1774.43,-635.02l-3945.51 -3924.07zm5671.08 1762.55c0,-1932.99 -1567,-3500 -3500,-3500 -1933,0 -3500,1567.01 -3500,3500 0,1933 1567,3500 3500,3500 1933,0 3500,-1567 3500,-3500z"/>
</symbol>
 <g id="Ebene_x0020_1">
  <metadata id="CorelCorpID_0Corel-Layer"/>
  <use id="ISO_x0020_7010_x0020_P046_0" transform="scale(0.571429 0.571429)" x="-0" y="-0" width="7000" height="7000" xlink:href="#ISO_x0020_7010_x0020_P046"/>
 </g>
</svg>
