<?xml version="1.0" encoding="UTF-8"?>
<!DOCTYPE svg PUBLIC "-//W3C//DTD SVG 1.1//EN" "http://www.w3.org/Graphics/SVG/1.1/DTD/svg11.dtd">
<!-- Creator: Corel DESIGNER -->
<svg xmlns="http://www.w3.org/2000/svg" xml:space="preserve" width="40mm" height="40mm" version="1.1" style="shape-rendering:geometricPrecision; text-rendering:geometricPrecision; image-rendering:optimizeQuality; fill-rule:evenodd; clip-rule:evenodd"
viewBox="0 0 1000 1000"
 xmlns:xlink="http://www.w3.org/1999/xlink"
 xmlns:xodm="http://www.corel.com/coreldraw/odm/2003">
 <defs>
  <style type="text/css">
   <![CDATA[
    .fil1p {fill:#0E1313}
    .fil2p {fill:#A1262D}
    .fil0p {fill:white}
   ]]>
  </style>
 </defs>
<symbol id="ISO_x0020_7010_x0020_P054" viewBox="1125 -2462.5 1750 1750">
 <circle class="fil0p" cx="2000" cy="-1587.5" r="787.5"/>
 <path class="fil1p" d="M2477.74 -1234.25l11.46 -2.75c-1.72,21.78 -4.49,41.01 -19.92,44.9 -58.44,9.73 -98.76,-6.2 -139.77,-22.4 -29.82,-11.78 -60.08,-23.74 -97.75,-23.42 -30.08,0.25 -59.8,12.39 -91.07,25.17 -38.2,15.61 -78.52,32.08 -128.95,32.69 -44.23,0.54 -75.02,-12.42 -107.38,-26.03 -34.96,-14.72 -72.02,-30.31 -131.21,-26.21 -47.06,3.26 -76.02,15.85 -102.06,27.16 -34.72,15.09 -64.98,28.24 -119,20.72 -23.68,-3.3 -23.62,-26.57 -26.12,-45.85l11.3 2.94c56.47,12.54 84.5,0.36 117.34,-13.91 29.23,-12.7 61.74,-26.84 115.69,-30.57 69.05,-4.79 110.75,12.76 150.07,29.31 28.45,11.97 55.53,23.37 90.9,22.94 42.35,-0.52 79.08,-15.52 113.89,-29.75 34.88,-14.25 68.04,-27.8 106.28,-28.12 45.82,-0.38 79.72,13.01 113.13,26.22 39.02,15.41 77.3,30.54 133.17,16.97zm0 -90.87l11.46 -2.76c-1.72,21.78 -4.49,41.01 -19.92,44.9 -58.44,9.73 -98.76,-6.2 -139.77,-22.4 -29.82,-11.78 -60.08,-23.74 -97.75,-23.42 -30.08,0.25 -59.8,12.39 -91.07,25.17 -38.2,15.61 -78.52,32.08 -128.95,32.7 -44.23,0.54 -75.02,-12.42 -107.38,-26.04 -34.96,-14.72 -72.02,-30.31 -131.21,-26.21 -47.06,3.26 -76.02,15.85 -102.06,27.16 -34.72,15.09 -64.98,28.24 -119,20.72 -23.68,-3.3 -23.62,-26.57 -26.12,-45.85l11.3 2.94c56.47,12.54 84.5,0.36 117.34,-13.91 29.23,-12.7 61.74,-26.83 115.69,-30.58 69.05,-4.78 110.75,12.76 150.07,29.31 28.45,11.97 55.53,23.37 90.9,22.94 42.35,-0.52 79.08,-15.53 113.89,-29.75 34.88,-14.25 68.04,-27.8 106.28,-28.12 45.82,-0.38 79.72,13.01 113.13,26.21 39.02,15.42 77.3,30.54 133.17,16.98z"/>
 <path class="fil1p" d="M2110.6 -1385.17c28.38,-11.6 55.63,-22.73 85.4,-26.65 -109.25,0.62 -204.61,-6.07 -312.04,-21.54 111.38,-231.81 222.79,-463.63 334.19,-695.45 -238.49,54.09 -464.86,225.93 -678.66,519.91 117.09,80.88 226.39,132.15 328.28,155.2l-8.04 16.73c-71.86,-11.04 -296.2,-69.62 -351.98,-60.47 9.82,46.88 105.83,78.45 186.94,99.94 17.16,-4.76 36.97,-8.51 61.06,-10.17 69.05,-4.78 110.75,12.76 150.07,29.31 28.45,11.97 55.52,23.37 90.9,22.93 42.35,-0.52 79.08,-15.52 113.88,-29.74z"/>
 <path class="fil1p" d="M2188.14 -1662.12l-75.2 106.21c-3.98,5.62 -6.56,11.29 -7.96,16.85l-112.75 -0.61c-8.97,-0.05 -17.21,5.16 -21.78,12.9l-66.08 102.13c-20.42,31.58 27.31,62.46 47.74,30.88l57.61 -89.05 140.41 0.88c13.86,0.75 28.2,-4.95 38.89,-20.06l95.64 -135.07c26.99,-38.12 -10.07,-78.26 -45.13,-73.69l-249.88 0c-32.15,0 -32.16,48.62 0,48.62l198.49 0zm173.08 -95.25c0,-26.66 -21.62,-48.29 -48.29,-48.29 -26.67,0 -48.29,21.62 -48.29,48.29 0,26.67 21.62,48.29 48.29,48.29 26.66,0 48.29,-21.62 48.29,-48.29z"/>
 <path class="fil2p" d="M2699.14 -1587.5c0,-386.12 -313.01,-699.14 -699.14,-699.14 -168.42,0 -322.92,59.56 -443.61,158.76l986.38 981.02c97.75,-120.25 156.37,-273.59 156.37,-440.64zm-1241.91 -440.64c-97.74,120.25 -156.37,273.59 -156.37,440.64 0,386.12 313.01,699.13 699.13,699.13 168.42,0 322.92,-59.56 443.61,-158.76l-986.38 -981.02zm1417.77 440.64c0,-483.25 -391.75,-875 -875,-875 -483.25,0 -875,391.75 -875,875 0,483.25 391.75,875 875,875 483.25,0 875,-391.75 875,-875z"/>
</symbol>
 <g id="Ebene_x0020_1">
  <metadata id="CorelCorpID_0Corel-Layer"/>
  <use id="ISO_x0020_7010_x0020_P054_0" transform="scale(0.571429 0.571429)" x="-0" y="-0" width="1750" height="1750" xlink:href="#ISO_x0020_7010_x0020_P054"/>
 </g>
</svg>
