<?xml version="1.0" encoding="UTF-8"?>
<!DOCTYPE svg PUBLIC "-//W3C//DTD SVG 1.1//EN" "http://www.w3.org/Graphics/SVG/1.1/DTD/svg11.dtd">
<!-- Creator: Corel DESIGNER -->
<svg xmlns="http://www.w3.org/2000/svg" xml:space="preserve" width="40mm" height="40mm" version="1.1" style="shape-rendering:geometricPrecision; text-rendering:geometricPrecision; image-rendering:optimizeQuality; fill-rule:evenodd; clip-rule:evenodd"
viewBox="0 0 4000 4000"
 xmlns:xlink="http://www.w3.org/1999/xlink"
 xmlns:xodm="http://www.corel.com/coreldraw/odm/2003">
 <defs>
  <style type="text/css">
   <![CDATA[
    .fil1p {fill:#0E1313}
    .fil2p {fill:#A1262D}
    .fil0p {fill:white}
   ]]>
  </style>
 </defs>
<symbol id="ISO_x0020_7010_x0020_P055" viewBox="-1500 -9850 7000 7000">
 <circle class="fil0p" cx="2000" cy="-6350" r="3150"/>
 <path class="fil1p" d="M2381.29 -8141.6c0,-168.04 -136.23,-304.27 -304.28,-304.27 -168.04,0 -304.27,136.23 -304.27,304.27 0,168.05 136.23,304.28 304.27,304.28 168.05,0 304.28,-136.23 304.28,-304.28zm-929.72 342.05l-592.46 1047.06c-379.65,-17.26 -753.89,-42.43 -1123.66,-74.12 104.04,228.1 317.11,466.15 608.68,717.46 130.69,-57.24 277.84,-125.19 538.05,-143.22 438.67,-30.39 640.62,135.17 885.8,208.21l-257.83 255.32c-110.96,109.88 -349.67,203.76 -460.63,313.64l-466.6 462.05 251.27 253.74 466.61 -462.06c110.98,-109.9 207.13,-347.64 318.11,-457.54l335.87 -332.6c13.41,0.59 27.04,0.86 40.98,0.69 384.97,-4.69 658.3,-264.44 1017.48,-267.42 339.13,-2.82 542.49,162.91 805.34,210.86 161.37,-167.75 273.54,-368.67 404.22,-759.13 -524.69,48.33 -1036.58,77.97 -1537.6,91.69l326.18 -323.01 27.27 10.1c186.85,69.19 292.22,-213.08 105.4,-282.21l-1499.83 -554.98c-60.27,-22.3 -126.24,-3.47 -166.32,42.34 -11.37,13.91 -17.33,27.22 -26.33,43.13zm235.55 1071.49l383.73 -678.17 780.63 289.09 -391.11 387.31c-260.57,4.71 -518.23,5.16 -773.25,1.77z"/>
 <path class="fil1p" d="M1400.81 -5962.03c-134.38,-45.41 -292.69,-77.72 -508.05,-62.8 -581.62,40.29 -598.36,330.04 -1129.09,192 11.55,89.07 11.27,196.62 120.71,211.87 249.63,34.75 389.47,-26.02 549.94,-95.75 295.41,-128.37 523.11,-160.04 777.06,-103.86 62.89,-36.52 119.53,-71.87 158.04,-110.38l31.39 -31.08zm-508.05 357.14c-581.62,40.3 -598.36,330.05 -1129.09,192.01 11.55,89.06 11.27,196.61 120.71,211.86 249.63,34.75 389.47,-26.01 549.94,-95.74 84.07,-36.54 162.66,-65.24 237.93,-86.31l224.26 -222.08c-1.25,0.09 -2.5,0.17 -3.75,0.26zm786.33 173.58c-31.11,48.95 -61.74,104.15 -94.95,159.16 388.06,149.66 604.14,110.24 1020.29,-59.79 375.29,-153.33 496.28,-156.74 872.6,-8.07 189.54,74.88 375.83,148.47 645.92,103.52 71.31,-18.01 84.08,-106.86 92.05,-207.51l-52.95 12.72c-461.77,112.15 -671.32,-203.46 -1138.23,-199.58 -359.18,2.98 -632.51,262.73 -1017.48,267.42 -124.14,1.52 -226.12,-28.43 -327.25,-67.87zm160.51 -184.77c248.18,47.11 448.82,-6.69 764.83,-135.8 375.29,-153.33 496.28,-156.74 872.6,-8.07 189.54,74.88 375.83,148.47 645.92,103.52 71.31,-18.01 84.08,-106.86 92.05,-207.51l-52.95 12.72c-461.77,112.15 -671.32,-203.46 -1138.23,-199.58 -358.48,2.97 -631.45,261.73 -1015.25,267.39l-168.97 167.33z"/>
 <path class="fil2p" d="M4796.54 -6350c0,-1544.49 -1252.05,-2796.54 -2796.54,-2796.54 -673.67,0 -1291.7,238.22 -1774.43,635.02l3945.51 3924.07c391,-481 625.46,-1094.36 625.46,-1762.55zm-4967.62 -1762.55c-390.98,481.01 -625.46,1094.36 -625.46,1762.55 0,1544.49 1252.05,2796.54 2796.54,2796.54 673.67,0 1291.67,-238.25 1774.43,-635.03l-3945.51 -3924.06zm5671.08 1762.55c0,-1933 -1567,-3500 -3500,-3500 -1933,0 -3500,1567 -3500,3500 0,1933 1567,3500 3500,3500 1933,0 3500,-1567 3500,-3500z"/>
</symbol>
 <g id="Ebene_x0020_1">
  <metadata id="CorelCorpID_0Corel-Layer"/>
  <use id="ISO_x0020_7010_x0020_P055_0" transform="scale(0.571429 0.571429)" x="-0" y="-0" width="7000" height="7000" xlink:href="#ISO_x0020_7010_x0020_P055"/>
 </g>
</svg>
