<?xml version="1.0" encoding="UTF-8"?>
<!DOCTYPE svg PUBLIC "-//W3C//DTD SVG 1.1//EN" "http://www.w3.org/Graphics/SVG/1.1/DTD/svg11.dtd">
<!-- Creator: Corel DESIGNER -->
<svg xmlns="http://www.w3.org/2000/svg" xml:space="preserve" width="40mm" height="40mm" version="1.1" style="shape-rendering:geometricPrecision; text-rendering:geometricPrecision; image-rendering:optimizeQuality; fill-rule:evenodd; clip-rule:evenodd"
viewBox="0 0 1000 1000"
 xmlns:xlink="http://www.w3.org/1999/xlink"
 xmlns:xodm="http://www.corel.com/coreldraw/odm/2003">
 <defs>
  <style type="text/css">
   <![CDATA[
    .fil1p {fill:#0E1313}
    .fil2p {fill:#A1262D}
    .fil0p {fill:white}
   ]]>
  </style>
 </defs>
<symbol id="ISO_x0020_7010_x0020_P056" viewBox="1125 2212.5 1750 1750">
 <circle class="fil0p" cx="2000" cy="3087.5" r="787.5"/>
 <path class="fil1p" d="M2527.61 3317.62l12.97 -3.12c-1.95,24.65 -5.08,46.42 -22.55,50.83 -66.16,11.01 -111.8,-7.01 -158.22,-25.36 -92.18,-36.42 -121.82,-35.58 -213.75,1.98 -108.06,44.15 -161.05,52.35 -267.53,7.54 -96.51,-40.62 -164.63,-42.13 -264.06,1.08 -39.31,17.08 -73.56,31.96 -134.71,23.45 -26.81,-3.74 -26.74,-30.08 -29.57,-51.9 130.01,33.81 134.11,-37.16 276.58,-47.03 138.22,-9.58 180.5,60.27 272.78,59.14 94.3,-1.15 161.26,-64.78 249.24,-65.51 114.37,-0.95 165.7,76.36 278.82,48.89zm0 -102.87l12.97 -3.12c-1.95,24.65 -5.08,46.42 -22.55,50.83 -66.16,11.01 -111.8,-7.02 -158.22,-25.36 -92.18,-36.42 -121.82,-35.58 -213.75,1.98 -108.06,44.15 -161.05,52.35 -267.53,7.54 -96.51,-40.61 -164.63,-42.13 -264.06,1.08 -39.31,17.08 -73.56,31.97 -134.71,23.45 -26.81,-3.74 -26.74,-30.08 -29.57,-51.9 130.01,33.81 134.11,-37.16 276.58,-47.04 138.22,-9.57 180.5,60.27 272.78,59.14 94.3,-1.15 161.26,-64.77 249.24,-65.5 114.37,-0.95 165.7,76.36 278.82,48.89z"/>
 <path class="fil1p" d="M1999.56 3174.48c94.3,-1.15 161.26,-64.78 249.24,-65.51 114.37,-0.95 165.7,76.36 278.82,48.89l9.85 -2.37 -36.7 -167.05 -64.12 0 -19.51 -88.63 -47.62 0 -84.88 -85.99 76.95 0c9.83,0 17.86,-8.03 17.86,-17.86 0,-9.82 -8.03,-17.85 -17.86,-17.86l-290.77 -0.22 -120.24 121.92 -321.45 0 18.63 88.63 -212.2 0 164.48 159.76c30.8,-13.51 66.33,-28.68 126.74,-32.87 138.22,-9.58 180.5,60.27 272.78,59.14zm27.14 -186.03l-342.44 0 -11.12 -52.91 374.11 0 -20.54 52.91zm-25.97 -88.63l84.75 -85.99 148.96 0 84.88 85.99c-106.2,0 -212.39,0 -318.59,0z"/>
 <path class="fil2p" d="M2699.14 3087.5c0,-386.12 -313.01,-699.14 -699.14,-699.14 -168.42,0 -322.92,59.56 -443.61,158.76l986.38 981.02c97.75,-120.25 156.37,-273.59 156.37,-440.64zm-1241.91 -440.64c-97.74,120.25 -156.37,273.59 -156.37,440.64 0,386.12 313.01,699.14 699.13,699.14 168.42,0 322.92,-59.56 443.61,-158.76l-986.38 -981.01zm1417.77 440.64c0,-483.25 -391.75,-875 -875,-875 -483.25,0 -875,391.75 -875,875 0,483.25 391.75,875 875,875 483.25,0 875,-391.75 875,-875z"/>
</symbol>
 <g id="Ebene_x0020_1">
  <metadata id="CorelCorpID_0Corel-Layer"/>
  <use id="ISO_x0020_7010_x0020_P056_0" transform="scale(0.571429 0.571429)" x="-0" y="-0" width="1750" height="1750" xlink:href="#ISO_x0020_7010_x0020_P056"/>
 </g>
</svg>
