<?xml version="1.0" encoding="UTF-8"?>
<!DOCTYPE svg PUBLIC "-//W3C//DTD SVG 1.1//EN" "http://www.w3.org/Graphics/SVG/1.1/DTD/svg11.dtd">
<!-- Creator: Corel DESIGNER -->
<svg xmlns="http://www.w3.org/2000/svg" xml:space="preserve" width="40mm" height="40mm" version="1.1" style="shape-rendering:geometricPrecision; text-rendering:geometricPrecision; image-rendering:optimizeQuality; fill-rule:evenodd; clip-rule:evenodd"
viewBox="0 0 4000 4000"
 xmlns:xlink="http://www.w3.org/1999/xlink"
 xmlns:xodm="http://www.corel.com/coreldraw/odm/2003">
 <defs>
  <style type="text/css">
   <![CDATA[
    .fil1p {fill:#0E1313}
    .fil2p {fill:#A1262D}
    .fil0p {fill:white}
   ]]>
  </style>
 </defs>
<symbol id="ISO_x0020_7010_x0020_P057" viewBox="-1500 8850 7000 7000">
 <circle class="fil0p" cx="2000" cy="12350" r="3150"/>
 <path class="fil1p" d="M3666.54 13742.87l42.91 -10.31c-6.46,81.58 -16.81,153.6 -74.61,168.2 -218.92,36.43 -369.92,-23.22 -523.55,-83.91 -111.71,-44.14 -225.05,-88.91 -366.16,-87.75 -112.66,0.93 -224,46.43 -341.13,94.29 -143.11,58.47 -294.11,120.17 -483.01,122.47 -165.67,2.02 -281,-46.52 -402.22,-97.53 -130.96,-55.12 -269.78,-113.53 -491.48,-98.18 -176.29,12.21 -284.75,59.37 -382.29,101.75 -130.06,56.52 -243.41,105.77 -445.75,77.61 -88.71,-12.36 -88.48,-99.54 -97.84,-171.73l42.32 11.01c211.52,46.97 316.52,1.33 439.51,-52.12 109.49,-47.58 231.28,-100.52 433.36,-114.52 258.65,-17.92 414.82,47.79 562.14,109.79 106.57,44.85 207.98,87.53 340.48,85.92 158.62,-1.95 296.2,-58.16 426.59,-111.43 130.66,-53.39 254.87,-104.14 398.13,-105.33 171.63,-1.42 298.61,48.74 423.77,98.19 146.16,57.75 289.56,114.41 498.83,63.58zm0 -340.38l42.91 -10.32c-6.46,81.58 -16.81,153.6 -74.61,168.2 -218.92,36.44 -369.92,-23.21 -523.55,-83.91 -111.71,-44.14 -225.05,-88.91 -366.16,-87.74 -112.66,0.93 -224,46.43 -341.13,94.28 -143.11,58.48 -294.11,120.17 -483.01,122.48 -165.67,2.01 -281,-46.52 -402.22,-97.53 -130.96,-55.12 -269.78,-113.54 -491.48,-98.18 -176.29,12.2 -284.75,59.36 -382.29,101.74 -130.06,56.52 -243.41,105.78 -445.75,77.61 -88.71,-12.36 -88.48,-99.53 -97.84,-171.73l42.32 11.01c211.52,46.97 316.52,1.34 439.51,-52.11 109.49,-47.58 231.28,-100.53 433.36,-114.53 258.65,-17.91 414.82,47.79 562.14,109.8 106.57,44.84 207.98,87.52 340.48,85.91 158.62,-1.94 296.2,-58.15 426.59,-111.43 130.66,-53.39 254.87,-104.14 398.13,-105.33 171.63,-1.42 298.61,48.75 423.77,98.2 146.16,57.74 289.56,114.4 498.83,63.58z"/>
 <path class="fil1p" d="M3796.83 12334.88l0 -892.85c0,-173.41 -138.87,-254.95 -269.49,-244.68l-1334.78 0c-144.72,0 -142.61,260.53 0,260.53l1109.33 0 0 747.69 -564.08 -144.51c-82.18,-21.05 -166.68,28.98 -187.73,111.17l-280.06 661.5 -195.57 -52.11 -655.25 -823.97 -1092.57 -291.13c215.29,-60.37 446.24,-110.77 682.66,-150.05 300.66,-49.95 609.97,-82.15 907.2,-94.28 130.98,-5.12 123.24,-204.34 -7.82,-199.22 -306.09,12.5 -623.66,45.49 -931.42,96.62 -303.2,50.37 -597.17,118.24 -861.79,201.37 -52.63,16.39 -76.69,32.32 -70.89,70.4 50,484.84 325.53,1161.63 785.88,1273.71l1767.42 470.96 103.24 -387.43 -131.94 -35.16 225.05 -519.42 717.73 183.89c131.81,33.76 284.88,-62.78 284.88,-243.03zm10.76 -1500.73c0,-143.57 -116.4,-259.97 -259.97,-259.97 -143.58,0 -259.97,116.4 -259.97,259.97 0,143.57 116.39,259.97 259.97,259.97 143.57,0 259.97,-116.4 259.97,-259.97z"/>
 <path class="fil2p" d="M4796.54 12350c0,-1544.49 -1252.05,-2796.54 -2796.54,-2796.54 -673.67,0 -1291.7,238.22 -1774.43,635.02l3945.51 3924.07c391,-481 625.46,-1094.36 625.46,-1762.55zm-4967.62 -1762.55c-390.98,481.01 -625.46,1094.36 -625.46,1762.55 0,1544.49 1252.05,2796.54 2796.54,2796.54 673.67,0 1291.67,-238.25 1774.43,-635.03l-3945.51 -3924.06zm5671.08 1762.55c0,-1933 -1567,-3500 -3500,-3500 -1933,0 -3500,1567 -3500,3500 0,1933 1567,3500 3500,3500 1933,0 3500,-1567 3500,-3500z"/>
</symbol>
 <g id="Ebene_x0020_1">
  <metadata id="CorelCorpID_0Corel-Layer"/>
  <use id="ISO_x0020_7010_x0020_P057_0" transform="scale(0.571429 0.571429)" x="-0" y="-0" width="7000" height="7000" xlink:href="#ISO_x0020_7010_x0020_P057"/>
 </g>
</svg>
