<?xml version="1.0" encoding="UTF-8"?>
<!DOCTYPE svg PUBLIC "-//W3C//DTD SVG 1.1//EN" "http://www.w3.org/Graphics/SVG/1.1/DTD/svg11.dtd">
<!-- Creator: Corel DESIGNER -->
<svg xmlns="http://www.w3.org/2000/svg" xml:space="preserve" width="40mm" height="40mm" version="1.1" style="shape-rendering:geometricPrecision; text-rendering:geometricPrecision; image-rendering:optimizeQuality; fill-rule:evenodd; clip-rule:evenodd"
viewBox="0 0 2000 2000"
 xmlns:xlink="http://www.w3.org/1999/xlink"
 xmlns:xodm="http://www.corel.com/coreldraw/odm/2003">
 <defs>
  <style type="text/css">
   <![CDATA[
    .fil1p {fill:#0E1313}
    .fil2p {fill:#A1262D}
    .fil0p {fill:white}
   ]]>
  </style>
 </defs>
<symbol id="ISO_x0020_7010_x0020_P058" viewBox="-3750 4425 3500 3500">
 <circle class="fil0p" cx="-2000" cy="6175" r="1575"/>
 <path class="fil1p" d="M-1011.1 6812.67l21.93 -5.27c-3.3,41.68 -8.59,78.48 -38.12,85.94 -111.86,18.61 -189.01,-11.86 -267.51,-42.88 -57.08,-22.55 -114.99,-45.43 -187.09,-44.83 -57.56,0.47 -114.45,23.72 -174.3,48.17 -73.12,29.88 -150.27,61.4 -246.79,62.58 -84.64,1.03 -143.58,-23.77 -205.51,-49.83 -66.91,-28.16 -137.84,-58.01 -251.12,-50.16 -90.07,6.23 -145.49,30.33 -195.33,51.98 -66.45,28.88 -124.37,54.05 -227.76,39.65 -45.32,-6.31 -45.2,-50.85 -49.99,-87.74l21.62 5.62c108.08,24 161.72,0.68 224.57,-26.63 55.94,-24.31 118.17,-51.36 221.42,-58.51 132.16,-9.16 211.96,24.42 287.22,56.1 54.46,22.91 106.27,44.72 173.97,43.9 81.05,-0.99 151.34,-29.72 217.97,-56.94 66.76,-27.28 130.22,-53.21 203.42,-53.82 87.7,-0.73 152.57,24.91 216.52,50.18 74.68,29.51 147.95,58.45 254.88,32.48zm0 -173.92l21.93 -5.27c-3.3,41.69 -8.59,78.48 -38.12,85.94 -111.86,18.62 -189.01,-11.86 -267.51,-42.87 -57.08,-22.56 -114.99,-45.43 -187.09,-44.84 -57.56,0.47 -114.45,23.72 -174.3,48.18 -73.12,29.88 -150.27,61.4 -246.79,62.57 -84.64,1.03 -143.58,-23.77 -205.51,-49.83 -66.91,-28.16 -137.84,-58.01 -251.12,-50.16 -90.07,6.23 -145.49,30.34 -195.33,51.99 -66.45,28.88 -124.37,54.04 -227.76,39.65 -45.32,-6.31 -45.2,-50.85 -49.99,-87.74l21.62 5.62c108.08,24 161.72,0.69 224.57,-26.62 55.94,-24.31 118.17,-51.36 221.42,-58.51 132.16,-9.16 211.96,24.41 287.22,56.1 54.46,22.91 106.27,44.72 173.97,43.9 81.05,-0.99 151.34,-29.72 217.97,-56.94 66.76,-27.28 130.22,-53.21 203.42,-53.81 87.7,-0.73 152.57,24.9 216.52,50.17 74.68,29.51 147.95,58.45 254.88,32.48z"/>
 <path class="fil1p" d="M-1241.61 6107.71l0 -496.38c0,-96.41 -77.2,-141.74 -149.82,-136.01l-691.45 55.89c3.51,-71.83 -86.05,-70.53 -88.8,-14.5l-3.15 64.14 -1160.96 0 0 63.5 1157.84 0 -2.88 58.63c-2.9,59.1 86.2,67.16 89.11,8.05l1.53 -31.2 573.42 -46.43 0 402.43 -313.6 -80.34c-45.69,-11.7 -92.67,16.11 -104.37,61.81l-115.65 451.44 -589.81 -109.7c-64.85,-12.06 -98.26,-55.9 -142.72,-99.18 -42.32,-41.19 -104.93,23.13 -62.57,64.33 62.21,60.59 98.94,106.32 189.12,123.09l1522.12 283.09c57.97,10.7 74.35,-77.5 16.17,-88.24l-763.29 -141.96 91.51 -357.23 389.86 99.88c73.28,18.77 158.38,-34.9 158.38,-135.11zm5.98 -834.33c0,-79.82 -64.71,-144.53 -144.53,-144.53 -79.82,0 -144.53,64.71 -144.53,144.53 0,79.82 64.71,144.53 144.53,144.53 79.82,0 144.53,-64.71 144.53,-144.53z"/>
 <path class="fil2p" d="M-601.73 6175c0,-772.24 -626.03,-1398.27 -1398.27,-1398.27 -336.84,0 -645.85,119.11 -887.22,317.51l1972.76 1962.03c195.5,-240.5 312.73,-547.18 312.73,-881.27zm-2483.81 -881.27c-195.49,240.5 -312.73,547.18 -312.73,881.27 0,772.24 626.03,1398.27 1398.27,1398.27 336.84,0 645.84,-119.12 887.22,-317.52l-1972.76 -1962.03zm2835.54 881.27c0,-966.5 -783.5,-1750 -1750,-1750 -966.5,0 -1750,783.5 -1750,1750 0,966.5 783.5,1750 1750,1750 966.5,0 1750,-783.5 1750,-1750z"/>
</symbol>
 <g id="Ebene_x0020_1">
  <metadata id="CorelCorpID_0Corel-Layer"/>
  <use id="ISO_x0020_7010_x0020_P058_0" transform="scale(0.571429 0.571429)" x="-0" y="-0" width="3500" height="3500" xlink:href="#ISO_x0020_7010_x0020_P058"/>
 </g>
</svg>
