<?xml version="1.0" encoding="UTF-8"?>
<!DOCTYPE svg PUBLIC "-//W3C//DTD SVG 1.1//EN" "http://www.w3.org/Graphics/SVG/1.1/DTD/svg11.dtd">
<!-- Creator: Corel DESIGNER -->
<svg xmlns="http://www.w3.org/2000/svg" xml:space="preserve" width="40mm" height="40mm" version="1.1" style="shape-rendering:geometricPrecision; text-rendering:geometricPrecision; image-rendering:optimizeQuality; fill-rule:evenodd; clip-rule:evenodd"
viewBox="0 0 1000 1000"
 xmlns:xlink="http://www.w3.org/1999/xlink"
 xmlns:xodm="http://www.corel.com/coreldraw/odm/2003">
 <defs>
  <style type="text/css">
   <![CDATA[
    .fil1p {fill:#0E1313}
    .fil2p {fill:#A1262D}
    .fil0p {fill:white}
   ]]>
  </style>
 </defs>
<symbol id="ISO_x0020_7010_x0020_P059" viewBox="1125 654.16 1750 1750">
 <circle class="fil0p" cx="2000" cy="1529.16" r="787.5"/>
 <path class="fil1p" d="M2090.15 1018.07c15.32,-34.99 -0.64,-75.78 -35.64,-91.09 -35,-15.32 -75.79,0.63 -91.11,35.63 -15.31,35 0.64,75.8 35.64,91.11 35,15.32 75.78,-0.64 91.1,-35.65zm219.19 526.73c-266.14,181.64 -609.89,227.78 -777.67,157.22 104.94,-59.42 239.57,-107.77 386.77,-135.74l51.5 -106.92 -157.98 -81.82c-18.08,-9.36 -26.3,-31.99 -18.02,-50.9l96.91 -221.46 -139.64 3.89 -108.07 112.2c-13.03,13.53 -34.75,13.98 -48.29,0.97 -13.54,-13.01 -14.01,-34.76 -0.98,-48.3l117.75 -122.24c6.18,-6.43 14.64,-10.28 23.65,-10.53l169.66 -4.73c5.23,-0.15 10.23,0.9 14.74,2.9l143.79 62.9c2.95,1.28 5.78,3 8.36,5.17l129.99 109.13 129.99 109.13c14.39,12.09 16.23,33.76 4.14,48.13 -12.05,14.32 -33.81,16.16 -48.13,4.14l-129.99 -109.13 -122.31 -102.68 -73.89 168.86 210.49 5.95c27.58,0.79 45.98,30.16 34.68,55.32l-65.05 144.71c55.59,-2.06 111.72,-0.93 167.61,3.83zm-296.64 6.64c13.37,-1.67 26.81,-3.17 40.31,-4.49l58.09 -129.21 -59.95 -1.7c10.25,11.72 12.85,28.93 6.06,43.04l-44.5 92.36z"/>
 <path class="fil1p" d="M2428.89 1895.06l10.64 -2.55c-1.6,20.22 -4.17,38.08 -18.49,41.7 -54.28,9.03 -91.72,-5.76 -129.82,-20.81 -27.7,-10.94 -55.8,-22.04 -90.79,-21.76 -27.93,0.23 -55.54,11.51 -84.59,23.38 -35.48,14.5 -72.92,29.8 -119.76,30.37 -41.08,0.5 -69.68,-11.53 -99.73,-24.18 -32.48,-13.67 -66.89,-28.16 -121.87,-24.35 -43.71,3.03 -70.61,14.72 -94.79,25.23 -32.24,14.01 -60.35,26.23 -110.52,19.25 -21.99,-3.07 -21.94,-24.68 -24.26,-42.58l10.49 2.73c52.45,11.65 78.48,0.33 108.98,-12.92 27.15,-11.8 57.35,-24.92 107.45,-28.4 64.14,-4.44 102.86,11.85 139.39,27.22 26.43,11.12 51.57,21.71 84.42,21.31 39.33,-0.48 73.44,-14.42 105.78,-27.63 32.39,-13.24 63.19,-25.82 98.71,-26.12 42.56,-0.35 74.04,12.09 105.08,24.35 36.24,14.32 71.8,28.36 123.68,15.76zm0 -84.4l10.64 -2.55c-1.6,20.22 -4.17,38.08 -18.49,41.7 -54.28,9.03 -91.72,-5.76 -129.82,-20.8 -27.7,-10.95 -55.8,-22.05 -90.79,-21.76 -27.93,0.23 -55.54,11.51 -84.59,23.38 -35.48,14.5 -72.92,29.8 -119.76,30.37 -41.08,0.5 -69.68,-11.53 -99.73,-24.18 -32.48,-13.67 -66.89,-28.15 -121.87,-24.35 -43.71,3.03 -70.61,14.72 -94.79,25.23 -32.24,14.01 -60.35,26.23 -110.52,19.25 -21.99,-3.07 -21.94,-24.68 -24.26,-42.58l10.49 2.73c52.45,11.65 78.48,0.33 108.98,-12.92 27.15,-11.8 57.35,-24.93 107.45,-28.4 64.14,-4.44 102.86,11.86 139.39,27.22 26.43,11.12 51.57,21.71 84.42,21.31 39.33,-0.49 73.44,-14.42 105.78,-27.63 32.39,-13.23 63.19,-25.82 98.71,-26.12 42.56,-0.35 74.04,12.09 105.08,24.36 36.24,14.31 71.8,28.36 123.68,15.76z"/>
 <path class="fil1p" d="M2515.43 1235.73c-19.82,38.98 -51.98,98.57 -93.26,152.22 -31.47,40.9 -73.52,85.64 -110.24,114.8 15.63,1.51 31.46,3.34 44.38,4.87 29.43,-26.49 60.47,-59.12 85.65,-90.5 43.62,-54.37 77.52,-108.32 95.66,-138.49 -6.83,-14.63 -14.22,-28.95 -22.18,-42.91zm75.73 246.37c-1.45,-18.35 -3.73,-36.47 -6.81,-54.31 -19.36,29.64 -46.1,67.45 -78.28,104.25 -73.07,83.54 -155.01,145.45 -243.54,192.67 -4.97,2.65 -9.94,5.25 -14.93,7.8 14.52,2.82 29.14,7.01 45.35,12.63 83.83,-46.59 164.52,-106.26 234.69,-184.83 25.8,-28.89 46.89,-55.59 63.52,-78.2zm-18.17 -106.18c-4.43,-16.58 -9.52,-32.88 -15.31,-48.84 -19.91,34.16 -54.68,90.94 -94.87,139.16 -62.24,74.65 -134.76,131.75 -218.12,177.63 -101.29,55.76 -212.82,93.05 -323.11,117.51 2.01,0.83 4.04,1.67 6.1,2.54 9.32,3.9 19.13,8.17 28.73,11.3 7.88,2.57 15.39,4.58 23.16,5.7 96.27,-24.8 192.27,-59.77 280.79,-108.51 84.18,-46.34 164.43,-102.84 226.36,-179.46 38.52,-47.65 67.41,-88.76 86.28,-117.03z"/>
 <path class="fil2p" d="M2699.14 1529.16c0,-386.12 -313.01,-699.13 -699.14,-699.13 -168.42,0 -322.92,59.55 -443.61,158.75l986.38 981.02c97.75,-120.25 156.37,-273.59 156.37,-440.64zm-1241.91 -440.64c-97.74,120.25 -156.37,273.59 -156.37,440.64 0,386.12 313.01,699.14 699.13,699.14 168.42,0 322.92,-59.56 443.61,-158.76l-986.38 -981.02zm1417.77 440.64c0,-483.25 -391.75,-875 -875,-875 -483.25,0 -875,391.75 -875,875 0,483.25 391.75,875 875,875 483.25,0 875,-391.75 875,-875z"/>
</symbol>
 <g id="Ebene_x0020_1">
  <metadata id="CorelCorpID_0Corel-Layer"/>
  <use id="ISO_x0020_7010_x0020_P059_0" transform="scale(0.571429 0.571429)" x="-0" y="-0" width="1750" height="1750" xlink:href="#ISO_x0020_7010_x0020_P059"/>
 </g>
</svg>
