<?xml version="1.0" encoding="UTF-8"?>
<!DOCTYPE svg PUBLIC "-//W3C//DTD SVG 1.1//EN" "http://www.w3.org/Graphics/SVG/1.1/DTD/svg11.dtd">
<!-- Creator: Corel DESIGNER -->
<svg xmlns="http://www.w3.org/2000/svg" xml:space="preserve" width="40mm" height="40mm" version="1.1" style="shape-rendering:geometricPrecision; text-rendering:geometricPrecision; image-rendering:optimizeQuality; fill-rule:evenodd; clip-rule:evenodd"
viewBox="0 0 1000 1000"
 xmlns:xlink="http://www.w3.org/1999/xlink"
 xmlns:xodm="http://www.corel.com/coreldraw/odm/2003">
 <defs>
  <style type="text/css">
   <![CDATA[
    .fil1p {fill:#0E1313}
    .fil2p {fill:#A1262D}
    .fil0p {fill:white}
   ]]>
  </style>
 </defs>
<symbol id="ISO_x0020_7010_x0020_P065" viewBox="1125 -2462.5 1750 1750">
 <circle class="fil0p" cx="2000" cy="-1587.5" r="787.5"/>
 <path class="fil1p" d="M1391.32 -1446.93c44.82,56.07 108.53,98.59 186.33,128.83 2.76,1.07 5.35,1.41 8.29,1.08 13.94,-1.56 28.19,-3.3 42.66,-5.17 -109.96,-33.58 -193.32,-94.02 -247.39,-169.71 1.97,12.79 4.12,25.39 6.64,37.59 0.59,2.83 1.66,5.13 3.47,7.39z"/>
 <path class="fil1p" d="M1379.43 -1528.2c22.21,33.27 51.73,63.57 82.04,92.48 4.01,3.82 9.06,5.44 14.54,4.66l12.13 -1.72c-39.91,-44.24 -77.77,-89.71 -113.27,-136.6 0.41,11.28 0.95,22.17 1.65,32.63 0.21,3.2 1.13,5.89 2.91,8.55z"/>
 <path class="fil1p" d="M1419.28 -1357.55c18.71,15.51 40.84,30.65 65.83,45.47 3,1.78 6.03,2.55 9.52,2.44 9.12,-0.31 18.54,-0.85 28.2,-1.59 -46.33,-27.47 -87.34,-56.83 -121.32,-90.46 3.98,12.73 8.17,24.96 12.53,36.74 1.12,3.02 2.77,5.35 5.24,7.4z"/>
 <path class="fil1p" d="M2236.14 -1888.08c-75.73,-81.8 -221.01,-106.89 -273.9,-38.18l-201.17 259.74c-7.83,-0.69 -13.99,10.53 -5.97,16.31l27.01 19.47 -130.47 -16.37c-8.55,-1.07 -14.17,3.78 -16.27,9.93l-43.81 123.42c-2.11,7.8 0.58,16.91 10.53,20.8l41.59 16.26 -34 66.55c-21.75,-3.39 -44.98,-6.85 -69.87,-10.49 -20.76,2.67 -46.57,7.73 -55.89,9.92 91.41,60.87 190.05,83.66 295.01,89.96 40.54,2.43 75.45,1.37 93.93,-13.23 -38.45,-25.91 -86.21,-42.43 -153.66,-56.72l33.33 -66.23c2.74,-10.94 -6.13,-19.61 -15.76,-20.65l-70.79 -27.68 6.2 -17.47 119.81 -75.73 31.37 3.93c2.98,0.38 5.61,0.02 7.85,-0.85l39.68 28.6c5.5,3.97 11.32,0.8 13.42,-3.91l395.46 -63.96c3.62,-0.38 13.69,-2.77 17.13,-10.78 15.26,-35.5 29.93,-140.02 -60.73,-242.67zm-461.49 229.86l275.66 -260.35c40.36,-5.56 80.59,20.31 111.08,68.9l-347.56 219.69 -39.19 -28.25zm-6.04 56.83l-88.35 55.85 22.75 -64.08 65.61 8.23zm63.41 -22.38l341.02 -215.56c42.73,19.3 89.99,71.16 92.04,120.89l-389.63 132.88 -34.94 -25.19c-0.21,-5.35 -2.94,-10.56 -8.49,-13.03zm-155.85 159.79l34.59 13.53 -27.01 52.76c-12.12,-2.24 -24.8,-4.45 -38.1,-6.67l30.52 -59.62zm43.96 -218.92c0,-38.87 -59.05,-38.87 -59.05,0 0,38.87 59.05,38.87 59.05,0zm262.24 -244.94c23.05,-3.82 41.88,-3.71 50.43,5.23l-202.87 191.6 152.44 -196.83zm287.96 223.43c12.33,13.42 13.43,34.97 11.55,54.16l-324.54 52.59 312.99 -106.74z"/>
 <path class="fil1p" d="M1502.43 -1257.35c46.84,-2.84 61.64,-41.66 158.26,-9.59 42.68,14.17 54.23,13.64 98.6,-3.26 35.58,-13.55 64.97,-13.2 109.91,2.55 41.92,14.69 53.99,13.63 88.27,1.72 76.12,-26.45 87.95,-11.28 139.01,3.72 47.71,13.1 52.7,-0.58 106.03,-14.43 39.88,-10.36 65.82,2.27 99.66,12.9 85.99,27 86.86,-43.32 199.25,-3.91 4.13,1.45 7.97,2.74 11.57,3.89 1.12,0.36 2.23,0.7 3.31,1.03 0.68,0.11 1.38,0.17 2.09,0.17 6.99,0 12.65,-5.66 12.65,-12.65 0,-4.86 -2.73,-9.07 -6.74,-11.19 -1.3,-0.36 -2.62,-0.75 -3.97,-1.17 -0.25,-0.08 -0.49,-0.15 -0.74,-0.23 -30.58,-9.68 -64.67,-25.71 -113.39,-12.77 -63.91,16.98 -51.98,28.95 -119.55,5.19 -82.18,-27.85 -122.6,13.34 -156.84,13.25 -41.42,0 -78.12,-36.23 -145.09,-18.44 -67.5,17.93 -49.76,27.91 -119.55,5.19 -88.52,-28.82 -127.45,18 -161.64,12.92 -36.55,-5.42 -50.02,-15.94 -81.79,-21.1 -62.44,-10.13 -86.47,22.13 -129.5,20.61 -2.87,-0.1 -5.83,-0.35 -8.89,-0.78 -3.64,-0.26 -6.65,-0.24 -8.12,0.97 -2.26,1.86 -0.88,6.57 1.45,12.49 4.07,10.29 13.6,12.66 20.71,13.1 1.72,-0.01 3.4,-0.06 5.05,-0.16z"/>
 <path class="fil1p" d="M1865.17 -1251.78c-88.52,-28.82 -127.45,18 -161.64,12.92 -36.55,-5.42 -50.02,-15.94 -81.79,-21.1 -57.53,-9.34 -82.45,17.32 -119.67,20.38 -4.7,0.39 -9.59,0.4 -14.76,-0.09 -1,0.21 -1.82,0.54 -2.38,1.05 -2.17,1.96 -0.58,6.6 2.02,12.41 4.26,9.48 13.02,11.76 19.97,12.09 2.62,-0.3 5.14,-0.7 7.59,-1.2 38.13,-7.73 58.35,-37.16 146.18,-8.01 42.68,14.17 54.23,13.64 98.6,-3.26 35.58,-13.55 64.97,-13.2 109.91,2.55 41.92,14.7 53.99,13.63 88.27,1.72 76.12,-26.45 87.95,-11.28 139.01,3.72 47.71,13.1 52.7,-0.58 106.03,-14.43 39.88,-10.36 65.82,2.27 99.66,12.9 80.9,25.4 86.46,-35.35 180.45,-9.8 1.18,0.32 2.38,0.66 3.59,1 0.52,0.07 1.05,0.1 1.59,0.1 6.99,0 12.65,-5.66 12.65,-12.65 0,-5.1 -3.01,-9.49 -7.35,-11.49 -1.06,-0.33 -2.12,-0.66 -3.19,-0.98 -23.36,-7.07 -50.05,-11.96 -83.71,-3.02 -63.91,16.98 -51.98,28.95 -119.55,5.19 -82.18,-27.85 -122.6,13.34 -156.84,13.25 -41.42,0 -78.12,-36.23 -145.09,-18.44 -67.5,17.93 -49.76,27.91 -119.55,5.19z"/>
 <path class="fil2p" d="M2699.14 -1587.5c0,-386.12 -313.01,-699.14 -699.14,-699.14 -168.42,0 -322.92,59.56 -443.61,158.76l986.38 981.02c97.75,-120.25 156.37,-273.59 156.37,-440.64zm-1241.91 -440.64c-97.74,120.25 -156.37,273.59 -156.37,440.64 0,386.12 313.01,699.13 699.13,699.13 168.42,0 322.92,-59.56 443.61,-158.76l-986.38 -981.02zm1417.77 440.64c0,-483.25 -391.75,-875 -875,-875 -483.25,0 -875,391.75 -875,875 0,483.25 391.75,875 875,875 483.25,0 875,-391.75 875,-875z"/>
</symbol>
 <g id="Ebene_x0020_1">
  <metadata id="CorelCorpID_0Corel-Layer"/>
  <use id="ISO_x0020_7010_x0020_P065_0" transform="scale(0.571429 0.571429)" x="-0" y="-0" width="1750" height="1750" xlink:href="#ISO_x0020_7010_x0020_P065"/>
 </g>
</svg>
