<?xml version="1.0" encoding="UTF-8"?>
<!DOCTYPE svg PUBLIC "-//W3C//DTD SVG 1.1//EN" "http://www.w3.org/Graphics/SVG/1.1/DTD/svg11.dtd">
<!-- Creator: Corel DESIGNER -->
<svg xmlns="http://www.w3.org/2000/svg" xml:space="preserve" width="40mm" height="40mm" version="1.1" style="shape-rendering:geometricPrecision; text-rendering:geometricPrecision; image-rendering:optimizeQuality; fill-rule:evenodd; clip-rule:evenodd"
viewBox="0 0 4000 4000"
 xmlns:xlink="http://www.w3.org/1999/xlink"
 xmlns:xodm="http://www.corel.com/coreldraw/odm/2003">
 <defs>
  <style type="text/css">
   <![CDATA[
    .fil1p {fill:#0E1313}
    .fil2p {fill:#A1262D}
    .fil0p {fill:white}
   ]]>
  </style>
 </defs>
<symbol id="ISO_x0020_7010_x0020_P066" viewBox="-1500 -9850 7000 7000">
 <circle class="fil0p" cx="2000" cy="-6350" r="3150"/>
 <path class="fil1p" d="M1196.6 -4477.84c-300.66,-79.86 -365.49,-175.7 -676.19,-78.23 -47.5,14.9 -94.77,32.35 -144.02,48.57 42.22,37.48 85.74,73.53 130.5,108.07 201.92,-70.09 259.9,-68.18 435.33,-7.21 372.62,129.48 515.53,128.05 851,10.58 209.82,-73.49 266.72,-72.54 444.98,-10.58 372.35,129.39 515.49,128.13 850.99,10.58 201.28,-70.53 261.95,-72.46 423.93,-17.8 44.25,-34.83 87.26,-71.14 128.98,-108.88 -186.83,-63.94 -276.84,-112.66 -529.71,-33.33 -170.05,53.32 -362.04,146.72 -619.81,78.23 -300.69,-79.87 -365.48,-175.69 -676.19,-78.23 -170,53.32 -362.03,146.72 -619.79,78.23zm0 -293.5c-300.66,-79.86 -365.49,-175.71 -676.19,-78.24 -117.42,36.84 -233.42,89.25 -381.39,100.1 37.97,44.46 77.51,87.54 118.53,129.16 92.08,-17.54 172.21,-45.59 239.67,-69.25 209.79,-73.5 266.8,-72.5 445,-10.58 372.62,129.49 515.53,128.06 851,10.58 209.82,-73.48 266.72,-72.52 444.98,-10.58 372.35,129.4 515.49,128.15 850.99,10.58 209.78,-73.5 266.83,-72.49 445.02,-10.57 81.82,28.44 153.65,51.59 221.14,68.16 38.73,-39.82 76.12,-80.96 112.09,-123.34 -25.76,-3.66 -52.1,-8.9 -78.89,-16.02 -300.63,-79.86 -365.47,-175.71 -676.16,-78.24 -170.05,53.33 -362.04,146.74 -619.81,78.24 -300.69,-79.87 -365.48,-175.7 -676.19,-78.24 -170,53.33 -362.03,146.74 -619.79,78.24z"/>
 <path class="fil1p" d="M1621.28 -5557.04l-1172.64 0c-70.33,0 -111.54,78.64 -71.55,136.47l95.93 138.72 -490.44 0 279.95 368.03c63.72,-19.74 123.69,-42.56 184.01,-61.49 326.97,-102.57 395.24,-1.7 711.64,82.34 271.29,72.05 473.4,-26.22 652.32,-82.34 267.78,-83.98 362.04,-31.58 561.16,36.33l-113.69 -355.86 -337.58 0 1067.96 -1275.08 29.75 60.09 18.67 151.94 -192.12 159.01c-20.71,17.14 -25.18,43.59 -6.45,64.53l193.49 216.37c38.9,43.48 104.65,-15.26 65.92,-58.79l30.2 33.78c38.91,43.52 104.76,-15.36 65.85,-58.88l-131.99 -147.59 164.51 -136.15c15.29,-12.65 18.85,-28.85 15.17,-43.29l-40.3 -326.26 199.05 -391.78 389.3 -786.41c-74.56,-325.03 -365.57,-567.47 -713.21,-567.47 -340.68,0 -637.34,235.8 -713.22,567.61l599.53 1211.06 -1111.72 1327.31 -86.79 0 -142.71 -262.2zm810.42 -2281.25c53.77,-52.43 145.07,-30.48 249.28,12.48l195.41 734.67 -74.84 0 -369.85 -747.15zm709.87 975.74c0,-45.79 -37.11,-82.89 -82.9,-82.89 -45.79,0 -82.89,37.1 -82.89,82.89 0,45.79 37.1,82.9 82.89,82.9 45.79,0 82.9,-37.11 82.9,-82.9zm37.6 118.05c-6.47,-4.57 -14.57,-6.84 -22.95,-5.82l-132.58 16.29c-16.76,2.05 -29.16,16.69 -28.84,33.27l-161.57 -326.38 485.85 0 -139.91 282.64zm-70.96 -1091.44c98.95,-73.17 195.53,-72.97 298.63,4.15l-196.99 740.65 -101.64 0 0 -744.8zm363.1 10.16c104.21,-42.96 195.53,-64.94 249.34,-12.58l-369.89 747.22 -74.84 0 195.39 -734.64zm-725.83 -5.95c103.11,-77.17 199.67,-77.4 298.63,-4.29l0 744.88 -101.65 0 -196.98 -740.59zm-2207.99 2536.89l878.2 0 -878.2 0zm0 0l878.2 0 -38.72 -101.47c-8.19,-21.51 -27.85,-35.02 -50.85,-35.02l-788.98 0c-22.45,0 -38.14,21.83 -30.99,43.11l31.34 93.38z"/>
 <path class="fil2p" d="M4796.54 -6350c0,-1544.49 -1252.05,-2796.54 -2796.54,-2796.54 -673.67,0 -1291.7,238.22 -1774.43,635.02l3945.51 3924.07c391,-481 625.46,-1094.36 625.46,-1762.55zm-4967.62 -1762.55c-390.98,481.01 -625.46,1094.36 -625.46,1762.55 0,1544.49 1252.05,2796.54 2796.54,2796.54 673.67,0 1291.67,-238.25 1774.43,-635.03l-3945.51 -3924.06zm5671.08 1762.55c0,-1933 -1567,-3500 -3500,-3500 -1933,0 -3500,1567 -3500,3500 0,1933 1567,3500 3500,3500 1933,0 3500,-1567 3500,-3500z"/>
</symbol>
 <g id="Ebene_x0020_1">
  <metadata id="CorelCorpID_0Corel-Layer"/>
  <use id="ISO_x0020_7010_x0020_P066_0" transform="scale(0.571429 0.571429)" x="-0" y="-0" width="7000" height="7000" xlink:href="#ISO_x0020_7010_x0020_P066"/>
 </g>
</svg>
