<?xml version="1.0" encoding="UTF-8"?>
<!DOCTYPE svg PUBLIC "-//W3C//DTD SVG 1.1//EN" "http://www.w3.org/Graphics/SVG/1.1/DTD/svg11.dtd">
<!-- Creator: Corel DESIGNER -->
<svg xmlns="http://www.w3.org/2000/svg" xml:space="preserve" width="40mm" height="40mm" version="1.1" style="shape-rendering:geometricPrecision; text-rendering:geometricPrecision; image-rendering:optimizeQuality; fill-rule:evenodd; clip-rule:evenodd"
viewBox="0 0 2000 2000"
 xmlns:xlink="http://www.w3.org/1999/xlink"
 xmlns:xodm="http://www.corel.com/coreldraw/odm/2003">
 <defs>
  <style type="text/css">
   <![CDATA[
    .fil1p {fill:#0E1313}
    .fil2p {fill:#A1262D}
    .fil0p {fill:white}
   ]]>
  </style>
 </defs>
<symbol id="ISO_x0020_7010_x0020_P069" viewBox="-3750 4425 3500 3500">
 <circle class="fil0p" cx="-2000" cy="6175" r="1575"/>
 <path class="fil1p" d="M-2285.1 6028.57l0 90.91c0,26.35 -7.85,50.94 -21.33,71.57l23.78 0c43.47,0 79.04,35.56 79.04,79.03l0 0c0,43.47 -35.56,79.03 -79.04,79.03l-92.71 0 0 969.72c0,22.68 -18.55,41.22 -41.23,41.22l0 0c-22.67,0 -41.22,-18.53 -41.22,-41.22l0 -969.72 -92.72 0c-43.48,0 -79.04,-35.56 -79.04,-79.03l0 0c0,-43.48 35.56,-79.03 79.04,-79.03l23.78 0c-13.48,-20.63 -21.33,-45.23 -21.33,-71.57l0 -90.91c-45.53,-37.88 -74.63,-94.91 -74.63,-158.42l0 -654.73c0,-113.38 92.74,-206.12 206.12,-206.12l0 0c113.38,0 206.12,92.74 206.12,206.12l0 654.73c0,63.51 -29.1,120.54 -74.63,158.42z"/>
 <path class="fil1p" d="M-1503.81 5708.95l0 893.19c130.74,58.56 221.83,189.81 221.83,342.34 0,207.07 -167.87,374.94 -374.94,374.94 -41.32,0 -81.07,-6.69 -118.24,-19.03l121.77 -121.77c59.62,-59.61 59.62,-157.17 0,-216.78l-46.32 -46.32c-59.62,-59.61 -157.17,-59.61 -216.78,0l-107.2 107.2c-5.35,-25.24 -8.17,-51.41 -8.17,-78.24 0,-146.4 83.92,-273.22 206.28,-334.96 5.12,-2.58 10.3,-5.05 15.55,-7.4l0 -893.15c-2.98,-1.34 -5.95,-2.72 -8.9,-4.14 -125.95,-60.45 -212.92,-189.19 -212.92,-338.23 0,-207.07 167.88,-374.94 374.94,-374.94 41.32,0 81.07,6.68 118.25,19.02l-121.77 121.77c-59.62,59.61 -59.62,157.17 0,216.78l46.31 46.31c59.62,59.61 157.16,59.61 216.79,0l107.19 -107.19c5.35,25.24 8.17,51.4 8.17,78.24 0,152.53 -91.09,283.78 -221.83,342.34z"/>
 <path class="fil2p" d="M-601.73 6175c0,-772.24 -626.03,-1398.27 -1398.27,-1398.27 -336.84,0 -645.85,119.11 -887.22,317.51l1972.76 1962.03c195.5,-240.5 312.73,-547.18 312.73,-881.27zm-2483.81 -881.28c-195.49,240.51 -312.73,547.18 -312.73,881.28 0,772.24 626.03,1398.27 1398.27,1398.27 336.84,0 645.84,-119.12 887.22,-317.52l-1972.76 -1962.03zm2835.54 881.28c0,-966.5 -783.5,-1750 -1750,-1750 -966.5,0 -1750,783.5 -1750,1750 0,966.5 783.5,1750 1750,1750 966.5,0 1750,-783.5 1750,-1750z"/>
</symbol>
 <g id="Ebene_x0020_1">
  <metadata id="CorelCorpID_0Corel-Layer"/>
  <use id="ISO_x0020_7010_x0020_P069_0" transform="scale(0.571429 0.571429)" x="-0" y="-0" width="3500" height="3500" xlink:href="#ISO_x0020_7010_x0020_P069"/>
 </g>
</svg>
