<?xml version="1.0" encoding="UTF-8"?>
<!DOCTYPE svg PUBLIC "-//W3C//DTD SVG 1.1//EN" "http://www.w3.org/Graphics/SVG/1.1/DTD/svg11.dtd">
<!-- Creator: Corel DESIGNER -->
<svg xmlns="http://www.w3.org/2000/svg" xml:space="preserve" width="40mm" height="34.9578mm" version="1.1" style="shape-rendering:geometricPrecision; text-rendering:geometricPrecision; image-rendering:optimizeQuality; fill-rule:evenodd; clip-rule:evenodd"
viewBox="0 0 4000 3495.78"
 xmlns:xlink="http://www.w3.org/1999/xlink"
 xmlns:xodm="http://www.corel.com/coreldraw/odm/2003">
 <defs>
  <style type="text/css">
   <![CDATA[
    .fil0w {fill:#F5CA2B}
    .fil1w {fill:#21251E}
   ]]>
  </style>
 </defs>
<symbol id="ISO_x0020_7010_x0020_W002" viewBox="-1500 9039.09 7000 6117.6">
 <polygon class="fil0w" points="5290.4,14945.25 -1288.06,14945.25 2001.17,9248.13 "/>
 <path class="fil1w" d="M-922.41 14735.27l2922.41 -5061.73 2922.4 5061.73 -5844.81 0zm6213.22 421.41l-6581.62 0.01c-161.14,0 -261.32,-173.49 -180.75,-313.05l3290.81 -5699.88c80.57,-139.55 280.93,-139.55 361.5,0l3290.81 5699.87c80.57,139.56 -19.61,313.05 -180.75,313.05z"/>
 <path class="fil1w" d="M334.71 13427.53c6.69,6.68 15.08,38.55 63.34,78.8 5.94,20.46 22.25,53.05 24.94,66.33 7.77,38.45 6.49,18.46 6.49,60.35 -37.99,42.55 -43.31,39.29 -77.31,67.33 -40.77,33.64 3.87,98.52 61.84,56.86 11.57,-8.31 18.42,-6.7 37.41,-4.49 104.11,12.13 207.29,101.17 230.92,109.23 16.94,5.78 162.1,6.2 67.33,77.81 -30.83,23.29 -38.6,43.72 -62.84,66.33 -38.04,35.49 -60.32,75.09 11.47,68.82 7.24,93.19 83.22,45.38 102.74,47.38 18.13,1.86 53.53,39.37 63.84,54.37 15.22,22.13 25.1,46.95 34.92,71.82 -343.08,415.04 -975.39,135.22 -934.66,-363.09 16.53,-202.3 158.88,-383.26 349.62,-450.87l19.95 -6.98zm623.94 -86.79c9.92,2.51 73.27,-66.55 140.15,-39.9 27.4,10.92 82.12,82.64 138.15,35.91 36.31,-30.29 21.05,-86.39 76.81,-110.72 35.68,-15.57 55.93,12.92 74.81,-70.32 14.77,-65.11 -53.96,-97.32 -97.75,-48.38 -15.86,17.73 -10.49,99.24 -56.86,101.74 -37.35,2.02 -31.05,-86.55 -60.85,-128.67l-24.44 -43.4 971.57 -1547.12 26.43 135.16c17.59,43.9 68.12,72.11 111.72,46.39 77.12,-45.49 168.43,18.23 269.33,-183.54 16.72,-33.45 36.1,-56.25 38.4,-61.35 12.16,-26.92 -24.29,-132.66 -60.85,-149.62 -47.39,-21.99 -61.65,43.75 -118.2,54.86l-104.74 12.97c-29.26,2.18 -62.62,20.49 -90.77,30.42l424.7 -669.08 -150.94 -261.43 -285.73 465.18 260.18 -509.44 -90.77 -157.22 -1465.16 3168.39 63.34 -50.88 11.47 -19.95zm102.74 15.96c87.74,0 62.44,103.44 -21.94,79.3 -56.33,-16.1 -36.49,-79.3 21.94,-79.3zm-3.99 -714.71c91.96,7.63 57.99,139.28 -21.94,106.74 -55.1,-22.43 -38.93,-101.22 21.94,-106.74zm79.3 -319.69c-40.76,30.56 -95.97,79.63 -51.37,130.67 -18.24,77.79 45.77,59.3 82.3,64.34 81.59,11.25 28.27,-125.24 57.35,-157.11 36.93,-40.47 2.59,-81.11 -16.46,-81.79 -30.83,-1.1 -63.07,11.84 -71.82,43.89zm-565.56 1050.42l-161.61 -1026.48 -74.82 157.6c-2.25,18.38 155.47,735.98 170.08,852.86l66.35 16.02zm79.89 19.27l66.72 16.08 581.05 -2596.99 -387.53 678.8 -90.77 694.76c-39.91,-3.61 -59.39,38.12 -130.18,15.46 -137.03,-43.85 -72.21,102.18 -70.82,109.73 23.61,128.18 -107.52,134.78 -74.31,246.38 12.93,43.48 84.61,109.81 129.17,117.7l86.55 2.93 -109.88 715.15zm-466.44 -378.93c-23.23,23.23 -54.66,38.59 -86.78,23.94 -59.51,59.52 0.9,93.96 55.36,177.56 36.05,55.35 61.79,15.21 86.28,10.47l59.85 -14.46 62.84 106.73 110.73 23.44 -280.3 -607.97 -83.29 142.14 75.31 138.15zm505.73 -1156.1c32.59,69.76 73.42,27.97 76.31,18.46 27.32,-89.82 94.24,-187.83 77.81,-286.79 -52.69,76.6 -107.06,184.92 -154.12,268.33zm-225.43 386.53c16.18,32.35 32.3,55.9 68.82,29.43 15.26,-11.06 11.18,-50.31 9.98,-67.83l-11.47 -56.36 -67.33 94.76zm1212.96 98.76c-40.54,37.12 -99.99,48.31 -47.38,150.12 30.27,58.57 82.7,-47.6 116.7,-68.83 51.48,-32.12 47.5,-106.47 10.48,-112.22 -30.42,-4.72 -57.55,12.09 -79.8,30.93zm-138.16 -1184.04c21.23,-91.86 102.82,-23.44 158.11,-23.44 68.83,0 100.04,-27.53 97.75,64.34 -2.98,119.67 -106.37,148.79 -179.55,246.38 -43.03,57.39 -82.27,135.78 -167.08,106.24 -74.9,-26.09 -94.28,-203.62 -43.89,-231.92 31.25,-17.55 46.27,-16.37 83.29,-61.85 24.07,-29.58 41.8,-62.83 51.37,-99.75zm-71.32 2281.29c-31.75,20.41 -61.67,55.74 -6.48,70.32 37.67,9.95 135.73,46.9 154.11,30.92 16.08,-13.97 -0.27,-50.21 -5.48,-65.83l-142.15 -35.41zm-51.37 161.59l31.92 19.95 2666.32 -327.68 -150.12 -248.38 -2548.12 556.11zm707.23 138.15l43.39 19.95 2279.79 98.76 -114.72 -181.55 -2208.46 62.84zm-1189.02 -19.45c-43.37,0 -81.47,16.39 -98.75,57.36 -16.91,40.06 -81.51,194.28 -3.99,206.98 38.88,6.37 186.27,-5.55 223.44,-21.94 123.29,-54.38 10.24,-120.09 3.99,-137.66l0 -5.49c12.96,-12.96 95.05,-37.8 29.92,-94.26 -43.67,-37.85 -105.46,-8.49 -154.61,-4.99zm-426.93 -126.68c-27.72,31.17 -7.2,67.33 31.92,67.33 116.74,0 72.12,40.26 129.17,53.37 46.41,10.66 76,-28.34 113.22,-46.88 28.81,-14.36 59.03,-31.68 30.42,-75.32 -24.7,-37.69 -72.21,-58.88 -116.2,-53.36 -47.97,6.03 -146.58,4.92 -165.09,14.96 -10.95,5.94 -8.93,27.2 -23.44,39.9zm1517.2 584.54c-28.77,-12.55 -27.88,-11.97 -59.36,-11.97 -7.42,40.36 -9.93,35.7 0,74.81 56.26,9.38 116.92,3.99 174.07,3.99l-19.95 -31.42c-16.63,-17.11 -43.91,-27.07 -66.83,-31.42l-27.93 -3.99zm-481.8 -193.52l-23.94 11.97c19.96,26.2 72.86,113.45 114.72,90.77l23.44 -23.94 -7.48 -31.41 -67.34 -43.4 -39.4 -3.99zm754.61 118.2l7.98 170.08 114.22 7.48 174.06 0 106.73 11.97 39.4 -11.97 0 -35.41 -35.41 -55.36 -47.88 -31.42 -54.86 -55.37 -304.24 0zm264.34 682.79l-272.32 -153.61 -15.96 -67.33 43.39 -39.4 94.77 19.95 55.36 15.46 55.36 3.99c37.16,8.39 480.7,196.04 541.14,220.94l-501.74 0zm-821.44 -375.06c90.83,5.74 110.44,88.95 23.44,110.73l651.87 268.32 -537.16 0 -908.72 -552.61 0 -39.4 39.4 15.96 0 -19.95 83.29 -47.38 -7.98 -3.99 0 -35.42 3176.04 678.8 -722.69 3.99 -2196.49 -576.05c22.79,22.79 22.16,25.54 35.41,55.36l-11.97 23.44 -66.83 35.41 363.09 150.12c0,-49.09 35.03,-64.54 79.3,-67.33zm-786.03 -39.39c-17.74,35.47 -11.53,27.25 -3.99,83.28l51.37 11.47 47.38 39.41 86.78 15.96 7.98 -47.39 -19.95 -39.4c-10.4,-12.59 -77.44,-55.77 -90.77,-59.34l-78.8 -3.99zm-817.95 -1002.5c82.99,8.27 53.83,126.05 -19.95,98.76 -49.65,-18.37 -38.69,-92.91 19.95,-98.76zm134.16 -62.84c61.07,0 45.65,119.62 -12.47,96.26 -40.09,-16.11 -34.7,-96.26 12.47,-96.26zm2291.26 -209.47c43.25,-31.72 130.91,-82.87 183.04,-91.77 48.81,-8.34 121.84,8.24 141.65,59.35 23.93,61.75 -19.97,137.67 -85.79,160.6 -56.13,19.55 -109.48,1.54 -166.08,-3 -95.58,-7.66 -163.06,-34.94 -72.82,-125.18zm-944.13 -390.52l1355.1 -1361.59 -82.79 -169.58 -1272.31 1531.17zm-592.52 907.72l2109.71 -2004.97 213.47 363.09 -2255.85 1637.89 -67.33 3.99zm553.11 -204.99l2081.79 -892.26 -43.39 -78.8 -173.57 90.77 -51.37 3.99 3.99 -35.41 189.53 -110.72 -55.37 -102.75 -1951.61 1125.18zm2959.09 623.45l86.78 142.14 -572.56 -31.92 611.96 98.75 71.32 118.7 -3492.24 -513.21 3294.74 185.54z"/>
</symbol>
 <g id="Ebene_x0020_1">
  <metadata id="CorelCorpID_0Corel-Layer"/>
  <use id="ISO_x0020_7010_x0020_W002_0" transform="scale(0.571429 0.57143)" x="-0" y="0" width="7000" height="6117.6" xlink:href="#ISO_x0020_7010_x0020_W002"/>
 </g>
</svg>
