<?xml version="1.0" encoding="UTF-8"?>
<!DOCTYPE svg PUBLIC "-//W3C//DTD SVG 1.1//EN" "http://www.w3.org/Graphics/SVG/1.1/DTD/svg11.dtd">
<!-- Creator: Corel DESIGNER -->
<svg xmlns="http://www.w3.org/2000/svg" xml:space="preserve" width="40mm" height="34.9578mm" version="1.1" style="shape-rendering:geometricPrecision; text-rendering:geometricPrecision; image-rendering:optimizeQuality; fill-rule:evenodd; clip-rule:evenodd"
viewBox="0 0 4000 3495.78"
 xmlns:xlink="http://www.w3.org/1999/xlink"
 xmlns:xodm="http://www.corel.com/coreldraw/odm/2003">
 <defs>
  <style type="text/css">
   <![CDATA[
    .fil0w {fill:#F5CA2B}
    .fil1w {fill:#21251E}
   ]]>
  </style>
 </defs>
<symbol id="ISO_x0020_7010_x0020_W005" viewBox="-1500 2805.75 7000 6117.6">
 <polygon class="fil0w" points="5290.4,8711.91 -1288.06,8711.91 2001.17,3014.79 "/>
 <path class="fil1w" d="M-922.41 8501.93l2922.41 -5061.73 2922.4 5061.73 -5844.81 0zm6213.22 421.41l-6581.62 0.01c-161.14,0 -261.32,-173.49 -180.75,-313.05l3290.81 -5699.88c80.57,-139.55 280.93,-139.55 361.5,0l3290.81 5699.87c80.57,139.56 -19.61,313.05 -180.75,313.05z"/>
 <path class="fil1w" d="M1539.34 8278.39l921.31 0 -316.7 -1301.36 -287.91 0 -316.7 1301.36zm-491.69 -2626.55l153.87 153.87c-204.33,204.34 -330.72,486.64 -330.72,798.47 0,311.82 126.39,594.13 330.72,798.46l-153.87 153.88c-243.73,-243.74 -394.48,-580.44 -394.48,-952.34 0,-371.9 150.75,-708.61 394.48,-952.34zm2081.55 952.34c0,-311.83 -126.39,-594.14 -330.72,-798.48l-0.01 -0.01 153.87 -153.87 0.01 0.01c243.73,243.73 394.49,580.44 394.49,952.35 0,371.9 -150.76,708.61 -394.49,952.35l-0.01 0 -153.87 -153.87 0.01 -0.01c204.33,-204.33 330.72,-486.64 330.72,-798.47zm-1825.04 -695.83l153.88 153.88c-138.69,138.68 -224.47,330.3 -224.47,541.95 0,211.65 85.79,403.26 224.47,541.94l-153.88 153.88c-178.07,-178.08 -288.22,-424.1 -288.22,-695.82 0,-271.73 110.14,-517.74 288.22,-695.83zm1462.27 695.83c0,-211.66 -85.78,-403.27 -224.47,-541.96l-0.01 -0.01 153.87 -153.87 0.01 0.01c178.09,178.08 288.24,424.1 288.24,695.83 0,271.73 -110.15,517.74 -288.24,695.83l-0.01 0.01 -153.87 -153.88 0.01 0c138.69,-138.69 224.47,-330.31 224.47,-541.96zm-1205.75 -439.31l153.87 153.88c-73.04,73.04 -118.21,173.96 -118.21,285.43 0,111.47 45.18,212.39 118.22,285.42l-153.88 153.88c-112.43,-112.44 -181.97,-267.76 -181.97,-439.3 0,-171.55 69.54,-326.87 181.97,-439.31zm842.98 439.31c0,-111.48 -45.18,-212.4 -118.22,-285.44l-0.01 -0.01 153.87 -153.88 0.02 0.01c112.43,112.44 181.98,267.76 181.98,439.32 0,171.55 -69.55,326.87 -181.98,439.31l-0.02 0.01 -153.87 -153.87 0.01 -0.01c73.04,-73.04 118.22,-173.96 118.22,-285.44zm-220.84 -0.01c0,-100.97 -81.86,-182.83 -182.83,-182.83 -100.98,0 -182.84,81.86 -182.84,182.83 0,100.98 81.86,182.84 182.84,182.84 100.97,0 182.83,-81.86 182.83,-182.84z"/>
</symbol>
 <g id="Ebene_x0020_1">
  <metadata id="CorelCorpID_0Corel-Layer"/>
  <use id="ISO_x0020_7010_x0020_W005_0" transform="scale(0.571429 0.57143)" x="-0" y="0" width="7000" height="6117.6" xlink:href="#ISO_x0020_7010_x0020_W005"/>
 </g>
</svg>
