<?xml version="1.0" encoding="UTF-8"?>
<!DOCTYPE svg PUBLIC "-//W3C//DTD SVG 1.1//EN" "http://www.w3.org/Graphics/SVG/1.1/DTD/svg11.dtd">
<!-- Creator: Corel DESIGNER -->
<svg xmlns="http://www.w3.org/2000/svg" xml:space="preserve" width="40mm" height="34.9578mm" version="1.1" style="shape-rendering:geometricPrecision; text-rendering:geometricPrecision; image-rendering:optimizeQuality; fill-rule:evenodd; clip-rule:evenodd"
viewBox="0 0 4000 3495.78"
 xmlns:xlink="http://www.w3.org/1999/xlink"
 xmlns:xodm="http://www.corel.com/coreldraw/odm/2003">
 <defs>
  <style type="text/css">
   <![CDATA[
    .fil0w {fill:#F5CA2B}
    .fil1w {fill:#21251E}
   ]]>
  </style>
 </defs>
<symbol id="ISO_x0020_7010_x0020_W008" viewBox="-1500 -3427.58 7000 6117.6">
 <polygon class="fil0w" points="5290.4,2478.58 -1288.06,2478.58 2001.17,-3218.54 "/>
 <path class="fil1w" d="M-922.41 2268.6l2922.41 -5061.73 2922.4 5061.73 -5844.81 0zm6213.22 421.41l-6581.62 0.01c-161.14,0 -261.32,-173.49 -180.75,-313.05l3290.81 -5699.88c80.57,-139.55 280.93,-139.55 361.5,0l3290.81 5699.87c80.57,139.56 -19.61,313.05 -180.75,313.05z"/>
 <polygon class="fil1w" points="40.45,1138.13 774.24,1138.13 774.24,1971.84 622.65,1971.84 622.65,1289.72 40.45,1289.72 "/>
 <path class="fil1w" d="M2654.51 -157.61l586.64 458.86c13.71,10.71 23.16,36.43 26.92,51.79l131.38 537.69c38.92,159.31 -203.48,219.05 -242.56,59.04l-121.37 -496.77 -363.94 -286.5 -317.14 753.34c-14.01,33.28 -55.06,64.63 -81.62,76.46l-691.79 307.82 -332.48 512.26c-80.48,124 -327.43,-1.41 -215.92,-173.94l334.65 -517.81c15.95,-27.64 41.43,-49.84 73.5,-61.24l433.59 -192.94 -673.7 -100.59 -554.47 232.83c-181.43,76.19 -287.05,-179.84 -114.26,-252.4l587.23 -246.59c30.02,-12.61 60.72,-16.96 90.93,-12.46l680.13 101.56 295.81 -702.67 -461.64 -306.84c-17.24,-11.47 -34.88,-33.18 -51.76,-68.02l-233.55 -481.88c-70.82,-146.15 153.06,-258.21 225.11,-107.9l224.84 469.1 424.27 280.45 341.2 167.35zm73.86 -525.65c120.01,50.52 176.35,188.76 125.83,308.77 -50.52,120.01 -188.77,176.34 -308.79,125.81 -120,-50.51 -176.32,-188.76 -125.8,-308.77 50.52,-120 188.76,-176.33 308.76,-125.81z"/>
</symbol>
 <g id="Ebene_x0020_1">
  <metadata id="CorelCorpID_0Corel-Layer"/>
  <use id="ISO_x0020_7010_x0020_W008_0" transform="scale(0.571429 0.57143)" x="-0" y="0" width="7000" height="6117.6" xlink:href="#ISO_x0020_7010_x0020_W008"/>
 </g>
</svg>
