<?xml version="1.0" encoding="UTF-8"?>
<!DOCTYPE svg PUBLIC "-//W3C//DTD SVG 1.1//EN" "http://www.w3.org/Graphics/SVG/1.1/DTD/svg11.dtd">
<!-- Creator: Corel DESIGNER -->
<svg xmlns="http://www.w3.org/2000/svg" xml:space="preserve" width="40mm" height="34.9578mm" version="1.1" style="shape-rendering:geometricPrecision; text-rendering:geometricPrecision; image-rendering:optimizeQuality; fill-rule:evenodd; clip-rule:evenodd"
viewBox="0 0 2000 1747.89"
 xmlns:xlink="http://www.w3.org/1999/xlink"
 xmlns:xodm="http://www.corel.com/coreldraw/odm/2003">
 <defs>
  <style type="text/css">
   <![CDATA[
    .fil0w {fill:#F5CA2B}
    .fil1w {fill:#21251E}
   ]]>
  </style>
 </defs>
<symbol id="ISO_x0020_7010_x0020_W009" viewBox="-3750 -1713.79 3500 3058.8">
 <polygon class="fil0w" points="-354.8,1239.29 -3644.03,1239.29 -1999.41,-1609.27 "/>
 <path class="fil1w" d="M-3461.2 1134.3l1461.2 -2530.86 1461.2 2530.86 -2922.4 0zm3106.61 210.7l-3290.81 0.01c-80.57,0 -130.66,-86.75 -90.38,-156.53l1645.4 -2849.94c40.28,-69.78 140.46,-69.78 180.75,0l1645.4 2849.94c40.29,69.78 -9.8,156.52 -90.38,156.52z"/>
 <path class="fil1w" d="M-1658.82 -237.5c0,-174 -130.25,-317.57 -298.57,-338.54l0 -26.43c305.54,26.15 513.03,323.11 434.17,618.89 294.58,79.34 450.27,407.76 318.13,687.09l-22.85 -13.19c67.12,-156.61 8.04,-342.19 -143.19,-429.5 -157.42,-90.89 -357.17,-42.05 -455.66,108.02l-85.66 -49.46c16.06,-50.84 -14.5,-104.53 -65.96,-116.95l0 -99.45c178.36,-11.15 319.58,-159.31 319.58,-340.49zm-188.56 642.26c-79.53,160.04 -21.82,356.43 135.08,447 150.68,87 340.14,45.98 442.47,-89.29l22.88 13.21c-175.41,251.52 -536.32,282.74 -753.05,66.56 -217.34,216.71 -579.21,184.71 -754.11,-68.03l22.85 -13.19c102.07,136.42 292.32,178.06 443.55,90.74 157.42,-90.88 214.99,-288.29 134.28,-448.62l85.68 -49.46c35.92,39.24 97.53,39.87 134.23,1.35l86.14 49.74zm-326.86 -37.42c-98.83,-148.89 -297.76,-197.11 -454.66,-106.52 -150.68,87 -209.89,271.58 -143.91,427.84l-22.88 13.21c-130.79,-279.11 25.01,-606.32 318.9,-685.43 -79.04,-296.44 129.54,-593.95 435.96,-619.06l0 26.38c-169.18,20.17 -300.37,164.13 -300.37,338.75 0,181.78 142.18,330.34 321.38,340.6l0 98.92c-51.67,11.36 -83.34,64.4 -68.31,115.59l-86.12 49.73zm642.72 -112.64c-47.42,-1.56 -94.53,8.12 -137.33,27.95 3.45,129.11 -67.1,242.76 -173.41,300.44 4.24,46.99 19.42,92.61 44.49,132.89 176.04,-84.06 281.38,-267.13 266.25,-461.28zm-202.21 -350.22c-160.12,-110.32 -372.44,-110.32 -532.56,0 22.35,41.83 54.27,77.78 92.84,104.93 106.15,-65.37 240.74,-65.37 346.89,0 38.57,-27.15 70.49,-63.09 92.84,-104.93zm-734.77 350.22c-15.57,199.68 95.23,379.62 266.24,461.28 25.07,-40.28 40.26,-85.91 44.49,-132.89 -106.32,-57.68 -176.86,-171.33 -173.41,-300.44 -42.8,-19.83 -89.91,-29.51 -137.32,-27.95z"/>
</symbol>
 <g id="Ebene_x0020_1">
  <metadata id="CorelCorpID_0Corel-Layer"/>
  <use id="ISO_x0020_7010_x0020_W009_0" transform="scale(0.571429 0.57143)" x="-0" y="0" width="3500" height="3058.8" xlink:href="#ISO_x0020_7010_x0020_W009"/>
 </g>
</svg>
