<?xml version="1.0" encoding="UTF-8"?>
<!DOCTYPE svg PUBLIC "-//W3C//DTD SVG 1.1//EN" "http://www.w3.org/Graphics/SVG/1.1/DTD/svg11.dtd">
<!-- Creator: Corel DESIGNER -->
<svg xmlns="http://www.w3.org/2000/svg" xml:space="preserve" width="40mm" height="34.9578mm" version="1.1" style="shape-rendering:geometricPrecision; text-rendering:geometricPrecision; image-rendering:optimizeQuality; fill-rule:evenodd; clip-rule:evenodd"
viewBox="0 0 1000 873.94"
 xmlns:xlink="http://www.w3.org/1999/xlink"
 xmlns:xodm="http://www.corel.com/coreldraw/odm/2003">
 <defs>
  <style type="text/css">
   <![CDATA[
    .fil0w {fill:#F5CA2B}
    .fil1w {fill:#21251E}
   ]]>
  </style>
 </defs>
<symbol id="ISO_x0020_7010_x0020_W010" viewBox="1125 -2415.23 1750 1529.4">
 <polygon class="fil0w" points="2822.6,-938.69 1177.99,-938.69 2000.29,-2362.97 "/>
 <path class="fil1w" d="M1269.4 -991.18l730.6 -1265.43 730.6 1265.43 -1461.2 0zm1553.3 105.35l-1645.4 0c-40.29,0 -65.33,-43.37 -45.19,-78.26l822.7 -1424.97c20.14,-34.89 70.23,-34.89 90.38,0l822.7 1424.97c20.14,34.89 -4.9,78.26 -45.19,78.26z"/>
 <path class="fil1w" d="M2132.18 -1670.84l-41.22 -41.22 -61.82 61.82 0 -110.38 -58.29 0 0 110.38 -61.82 -61.82 -41.22 41.22 103.04 103.03 0 78.98c-7.96,3.06 -15.31,7.35 -21.83,12.62l-68.41 -39.5 -37.71 -140.75 -56.31 15.09 22.63 84.45 -95.59 -55.19 -29.15 50.48 95.59 55.19 -84.44 22.63 15.09 56.31 140.75 -37.71 68.4 39.49c-0.64,4.11 -0.98,8.32 -0.98,12.61 0,4.29 0.33,8.5 0.98,12.61l-68.4 39.49 -140.75 -37.71 -15.09 56.31 84.45 22.63 -95.6 55.19 29.15 50.48 95.59 -55.19 -22.63 84.44 56.31 15.09 37.71 -140.75 68.41 -39.5c6.52,5.27 13.87,9.56 21.83,12.62l0 78.98 -103.04 103.04 41.22 41.22 61.82 -61.82 0 110.38 58.29 0 0 -110.38 61.82 61.82 41.22 -41.22 -103.03 -103.04 0 -78.98c7.96,-3.07 15.31,-7.35 21.83,-12.62l68.41 39.5 37.72 140.75 56.3 -15.09 -22.62 -84.44 95.59 55.19 29.15 -50.48 -95.59 -55.19 84.44 -22.62 -15.09 -56.31 -140.75 37.71 -68.4 -39.49c0.64,-4.11 0.98,-8.32 0.98,-12.61 0,-4.29 -0.33,-8.5 -0.97,-12.61l68.4 -39.49 140.76 37.71 15.09 -56.31 -84.45 -22.63 95.6 -55.19 -29.15 -50.48 -95.59 55.19 22.62 -84.44 -56.31 -15.09 -37.71 140.75 -68.41 39.5c-6.52,-5.27 -13.87,-9.56 -21.83,-12.62l0 -78.98 103.04 -103.04z"/>
</symbol>
 <g id="Ebene_x0020_1">
  <metadata id="CorelCorpID_0Corel-Layer"/>
  <use id="ISO_x0020_7010_x0020_W010_0" transform="scale(0.571429 0.57143)" x="-0" width="1750" height="1529.4" xlink:href="#ISO_x0020_7010_x0020_W010"/>
 </g>
</svg>
