<?xml version="1.0" encoding="UTF-8"?>
<!DOCTYPE svg PUBLIC "-//W3C//DTD SVG 1.1//EN" "http://www.w3.org/Graphics/SVG/1.1/DTD/svg11.dtd">
<!-- Creator: Corel DESIGNER -->
<svg xmlns="http://www.w3.org/2000/svg" xml:space="preserve" width="40mm" height="34.9578mm" version="1.1" style="shape-rendering:geometricPrecision; text-rendering:geometricPrecision; image-rendering:optimizeQuality; fill-rule:evenodd; clip-rule:evenodd"
viewBox="0 0 2000 1747.89"
 xmlns:xlink="http://www.w3.org/1999/xlink"
 xmlns:xodm="http://www.corel.com/coreldraw/odm/2003">
 <defs>
  <style type="text/css">
   <![CDATA[
    .fil0w {fill:#F5CA2B}
    .fil1w {fill:#21251E}
   ]]>
  </style>
 </defs>
<symbol id="ISO_x0020_7010_x0020_W020" viewBox="-3750 -1713.79 3500 3058.8">
 <polygon class="fil0w" points="-354.8,1239.29 -3644.03,1239.29 -1999.41,-1609.27 "/>
 <path class="fil1w" d="M-3461.2 1134.3l1461.2 -2530.86 1461.2 2530.86 -2922.4 0zm3106.61 210.7l-3290.81 0.01c-80.57,0 -130.66,-86.75 -90.38,-156.53l1645.4 -2849.94c40.28,-69.78 140.46,-69.78 180.75,0l1645.4 2849.94c40.29,69.78 -9.8,156.52 -90.38,156.52z"/>
 <polygon class="fil1w" points="-1853.43,-118.07 -1810.35,-78.33 -1677.49,44.21 -1670.22,-221.86 -1541.47,-340.44 -1569.14,-367.06 -1697.34,-367.06 -1671.13,-341.85 -1758.04,-261.81 -1760.99,-153.73 -1872.79,-256.83 -1990.52,-64.21 -2002.14,-256.44 -2318.91,-213.55 -2137.07,-416.25 -2137.07,-489.39 -2192.7,-489.39 -2559.48,-88.51 -2085.09,-155.52 -2062.15,223.44 "/>
 <polygon class="fil1w" points="-2372.05,-516.24 -2110.22,-516.24 -2108.99,-393.91 -1576.04,-393.91 -1710.45,-626.72 -2308.27,-626.72 "/>
 <path class="fil1w" d="M-2076.99 534.79c92.38,-5.07 163.3,-81.61 158.4,-170.97 -4.9,-89.36 -83.76,-157.69 -176.14,-152.63 -92.38,5.06 -163.3,81.61 -158.41,170.97 4.9,89.35 83.77,157.69 176.15,152.62zm494.88 -51.29l-302.45 61.15 -338.96 37.4c-57.54,6.34 -68.12,11.92 -108.66,54.14l-328.87 342.53 219.68 0 203.38 -198.56 27.15 198.56 376.41 0 -19.14 -270.72 398.79 -78.84c65.62,-12.98 80.66,-72.65 59.74,-129.04l-138.2 -372.55c-37.24,-100.4 -190.39,-43.7 -152.34,63.75l103.47 292.17z"/>
</symbol>
 <g id="Ebene_x0020_1">
  <metadata id="CorelCorpID_0Corel-Layer"/>
  <use id="ISO_x0020_7010_x0020_W020_0" transform="scale(0.571429 0.57143)" x="-0" y="0" width="3500" height="3058.8" xlink:href="#ISO_x0020_7010_x0020_W020"/>
 </g>
</svg>
