<?xml version="1.0" encoding="UTF-8"?>
<!DOCTYPE svg PUBLIC "-//W3C//DTD SVG 1.1//EN" "http://www.w3.org/Graphics/SVG/1.1/DTD/svg11.dtd">
<!-- Creator: Corel DESIGNER -->
<svg xmlns="http://www.w3.org/2000/svg" xml:space="preserve" width="40mm" height="34.9578mm" version="1.1" style="shape-rendering:geometricPrecision; text-rendering:geometricPrecision; image-rendering:optimizeQuality; fill-rule:evenodd; clip-rule:evenodd"
viewBox="0 0 4000 3495.78"
 xmlns:xlink="http://www.w3.org/1999/xlink"
 xmlns:xodm="http://www.corel.com/coreldraw/odm/2003">
 <defs>
  <style type="text/css">
   <![CDATA[
    .fil0w {fill:#F5CA2B}
    .fil1w {fill:#21251E}
   ]]>
  </style>
 </defs>
<symbol id="ISO_x0020_7010_x0020_W022" viewBox="-1500 -9660.91 7000 6117.6">
 <polygon class="fil0w" points="5290.4,-3754.75 -1288.06,-3754.75 2001.17,-9451.87 "/>
 <path class="fil1w" d="M-922.41 -3964.73l2922.41 -5061.73 2922.4 5061.73 -5844.81 0zm6213.22 421.41l-6581.62 0.01c-161.14,0 -261.32,-173.49 -180.75,-313.05l3290.81 -5699.88c80.57,-139.55 280.93,-139.55 361.5,0l3290.81 5699.87c80.57,139.56 -19.61,313.05 -180.75,313.05z"/>
 <polygon class="fil1w" points="1601.82,-4288.48 2036.85,-4288.48 2036.85,-5874.07 1601.82,-5081.28 "/>
 <path class="fil1w" d="M2406.73 -6413.1l538.83 0c141.99,0 141.99,-214.65 0,-214.65l-488.18 0 13.28 -56.29 320.35 0c141.99,0 141.99,-214.65 0,-214.65 -395.98,0 -791.96,0 -1187.94,0l311.36 -183.06c90.64,-53.29 121.19,-171.04 67.91,-261.67l-11.91 -20.26 -844.86 496.73c-52.82,31.05 -84.72,92.03 -84.72,157.56l0 648.88c0,104.11 85.19,189.3 189.3,189.3 431.56,0 863.13,0 1294.69,0 141.99,0 141.99,-214.66 0,-214.66l-195.31 0 13.28 -56.28 448.2 0c141.99,0 141.99,-214.66 0,-214.66l-397.56 0 13.28 -56.29zm-119.09 284.98l169.04 -716.49 -169.04 0 0 716.49zm-54.09 -513.67l-169.04 716.49 169.04 0 0 -716.49zm-175.78 513.67l169.05 -716.49 -169.05 0 0 716.49zm-54.09 -513.67l-169.04 716.49 169.04 0 0 -716.49zm-175.78 513.67l169.05 -716.49 -169.05 0 0 716.49zm-54.08 -513.67l-169.05 716.49 169.05 0 0 -716.49z"/>
</symbol>
 <g id="Ebene_x0020_1">
  <metadata id="CorelCorpID_0Corel-Layer"/>
  <use id="ISO_x0020_7010_x0020_W022_0" transform="scale(0.571429 0.57143)" x="-0" y="0" width="7000" height="6117.6" xlink:href="#ISO_x0020_7010_x0020_W022"/>
 </g>
</svg>
