<?xml version="1.0" encoding="UTF-8"?>
<!DOCTYPE svg PUBLIC "-//W3C//DTD SVG 1.1//EN" "http://www.w3.org/Graphics/SVG/1.1/DTD/svg11.dtd">
<!-- Creator: Corel DESIGNER -->
<svg xmlns="http://www.w3.org/2000/svg" xml:space="preserve" width="40mm" height="34.9578mm" version="1.1" style="shape-rendering:geometricPrecision; text-rendering:geometricPrecision; image-rendering:optimizeQuality; fill-rule:evenodd; clip-rule:evenodd"
viewBox="0 0 1000 873.95"
 xmlns:xlink="http://www.w3.org/1999/xlink"
 xmlns:xodm="http://www.corel.com/coreldraw/odm/2003">
 <defs>
  <style type="text/css">
   <![CDATA[
    .fil0w {fill:#F5CA2B}
    .fil1w {fill:#21251E}
   ]]>
  </style>
 </defs>
<symbol id="ISO_x0020_7010_x0020_W026" viewBox="1125 701.44 1750 1529.4">
 <polygon class="fil0w" points="2822.6,2177.98 1177.99,2177.98 2000.29,753.7 "/>
 <path class="fil1w" d="M1269.4 2125.48l730.6 -1265.43 730.6 1265.43 -1461.2 0zm1553.3 105.35l-1645.4 0c-40.29,0 -65.33,-43.37 -45.19,-78.26l822.7 -1424.97c20.14,-34.89 70.23,-34.89 90.38,0l822.7 1424.97c20.14,34.89 -4.9,78.26 -45.19,78.26z"/>
 <path class="fil1w" d="M2012.84 1066.19c28.72,48.56 49.67,100.95 24.13,155.75 22.19,7.91 38.81,17.87 50.68,29.28 18.75,18.03 25.88,39.22 24.37,61.75 -3.49,52.01 -33.56,76.7 -71,87.93 -35.18,10.56 -75.72,8.11 -106.2,6.45 -17.06,-0.92 -34.39,-1.86 -50.59,-2.19 6.78,13.78 12.72,28.62 13.08,42.06 0.6,22.37 -10.28,38.58 -44.18,39.49 -10.14,0.27 -34,-4.75 -52.54,-14.57 -35.86,-19 -44.28,-51.21 -12.35,-80.41 10.47,-9.57 26.19,-14.93 44.97,-17.72 -4.91,-42.45 29.14,-60.17 72.51,-82.74 26.41,-13.74 60.64,-31.37 78.4,-50.41 -29.5,-11.31 -56.96,-31.74 -57.63,-68.94l33.77 -0.53c0.42,23.44 25.06,34.63 43.88,40.69 23.18,-44.25 3.49,-88.23 -20.44,-128.69l29.13 -17.22zm6.29 185.38c-24.02,32.17 -62.69,51.51 -97.78,69.77 -32,16.65 -57.07,29.7 -54.51,49.41 0.03,0.19 0.09,0.43 0.18,0.72 23.51,-0.48 49.46,1.04 74.32,2.38 26.13,1.41 61.61,3.13 90.02,-5.39 24.74,-7.42 44.61,-23.65 46.9,-57.74 2.13,-31.8 -27.49,-49.13 -59.12,-59.14zm-155.59 196.45c-0.28,-10.6 -9.29,-27.76 -16.89,-41.99 -16.27,1.42 -29.03,4.56 -35.63,10.6 -6.36,5.81 -10.89,11.1 -7.23,16.03 8.71,11.74 39.17,20.53 48.54,20.28 8.49,-0.23 11.28,-2.23 11.2,-4.93z"/>
 <rect class="fil1w" x="2079" y="1665.64" width="107.28" height="33.9"/>
 <polygon class="fil1w" points="1748.72,1665.64 1785.41,1665.64 1785.41,1628.95 1819.32,1628.95 1819.32,1665.64 1856.01,1665.64 1856.01,1699.55 1819.32,1699.55 1819.32,1736.24 1785.41,1736.24 1785.41,1699.55 1748.72,1699.55 "/>
 <path class="fil1w" d="M2274.54 1599.35l0 204.82c0,23.15 18.88,42.04 42.04,42.04l64.42 0c29.5,0 53.57,24.06 53.57,53.57l0 15.77c0,19.19 12.13,35.45 30.52,40.93 19.11,5.7 33.15,23.48 33.15,44.38l0 0c0,25.45 -20.83,46.28 -46.28,46.28l-145.11 0c-33.42,0 -57.46,-42.34 -90.88,-42.34l-139.47 0c-96.52,0 -87.9,-92.84 -124.15,-92.84l-265.95 0 0 -343.9 100.19 0 0 -43.33 81.81 0 0 43.33 196.62 0 0 -43.33 81.8 0 0 11.48 101.18 0c14.6,0 26.55,11.95 26.55,26.55l0 36.6zm-66.47 2.6l-487.79 0 0 276.1 487.79 0 0 -276.1z"/>
</symbol>
 <g id="Ebene_x0020_1">
  <metadata id="CorelCorpID_0Corel-Layer"/>
  <use id="ISO_x0020_7010_x0020_W026_0" transform="scale(0.571429 0.57143)" x="-0" width="1750" height="1529.4" xlink:href="#ISO_x0020_7010_x0020_W026"/>
 </g>
</svg>
