<?xml version="1.0" encoding="UTF-8"?>
<!DOCTYPE svg PUBLIC "-//W3C//DTD SVG 1.1//EN" "http://www.w3.org/Graphics/SVG/1.1/DTD/svg11.dtd">
<!-- Creator: Corel DESIGNER -->
<svg xmlns="http://www.w3.org/2000/svg" xml:space="preserve" width="40mm" height="34.9578mm" version="1.1" style="shape-rendering:geometricPrecision; text-rendering:geometricPrecision; image-rendering:optimizeQuality; fill-rule:evenodd; clip-rule:evenodd"
viewBox="0 0 2000 1747.89"
 xmlns:xlink="http://www.w3.org/1999/xlink"
 xmlns:xodm="http://www.corel.com/coreldraw/odm/2003">
 <defs>
  <style type="text/css">
   <![CDATA[
    .fil0w {fill:#F5CA2B}
    .fil1w {fill:#21251E}
   ]]>
  </style>
 </defs>
<symbol id="ISO_x0020_7010_x0020_W028" viewBox="-3750 1402.88 3500 3058.8">
 <polygon class="fil0w" points="-354.8,4355.95 -3644.03,4355.95 -1999.41,1507.39 "/>
 <path class="fil1w" d="M-3461.2 4250.97l1461.2 -2530.86 1461.2 2530.86 -2922.4 0zm3106.61 210.7l-3290.81 0.01c-80.57,0 -130.66,-86.74 -90.38,-156.53l1645.4 -2849.94c40.28,-69.78 140.46,-69.78 180.75,0l1645.4 2849.94c40.29,69.78 -9.8,156.52 -90.38,156.52z"/>
 <path class="fil1w" d="M-2105.05 2675.64c-17.63,5.49 -31.29,-94.06 -111.94,-130.47 23.09,50.39 32.66,122.89 33.78,154.91 2.33,67.14 -8.22,164.11 -48.43,216.17 -23.15,-9.51 -76.61,-106.72 -116.39,-114.32 1.09,56.47 13.09,116.49 -8.97,172.84 -23.61,60.3 -29.56,89.62 -26.62,166 -34.38,-8.22 -57.97,-51.02 -96.01,-54.79 3.3,36.19 23.01,39.61 20.55,96.4 -5.3,122.52 -8.21,237.57 16.16,323.47 12.46,43.91 36.44,82.61 67.76,114.33 21.12,-53.68 54.63,-101.11 96.99,-138.82 -21.17,-48.65 -30.25,-92.83 -16.78,-118.26 22.29,6.97 16.72,28.22 44.28,31.64 1.99,-44.44 0.29,-141.98 30.64,-161.88 9.93,69.88 24.4,125.81 52.62,180.77 17.45,-6.75 35.55,-12.19 54.17,-16.21 -6.25,-55.58 -7.98,-122.57 19.32,-149.96 7.81,35.06 49.67,106.98 70.26,129.09 13.51,-14.82 31.29,-144.45 37.02,-175.68 6.48,-68.34 2.02,-148.79 1.9,-219.55 19.29,4.74 25.21,19.99 35.99,35.04 29.24,40.78 46.01,79.33 57.88,129.36 28.87,121.63 -11.25,160.62 -10.71,213.84 23.21,-13.76 42.71,-36.7 59.95,-60.74 17.43,-24.31 27.72,-55.67 44.04,-75.94 25.71,49.07 -2.79,122.12 -6,174.27 22.86,-4.63 25.93,-12.53 44.34,-22.23 13.43,-7.08 -1.77,-2.66 16.29,-6.58 0.17,41.42 -16,86.53 -36.93,126.11 44.82,44.31 78.18,100.17 95.3,162.74 52.39,-32.89 94.11,-78.51 122.31,-132.1 36.67,-69.71 57.99,-183.26 27.01,-258.8 -8.05,-19.63 -13.47,-21.67 -13.64,-16.02 -0.54,17.45 -4.69,38.5 -19.05,55.33 -7.88,9.24 -12.43,12.42 -25.48,13.45 -18.33,-108.44 50.32,-256.93 12.74,-371.05 -8.42,-25.58 -31.46,-77.96 -57.53,-78.79 -3.96,29.29 -4.76,85.94 -40.98,95.98 -17.73,-109.02 -39.98,-289.34 -142.42,-351.85 -10.09,-6.15 -17.58,-9.76 -15.99,-5.01 14.01,42.03 3.23,121.66 -6.64,118.64 -12.08,-3.7 -10.95,-49.45 -21.62,-83.68 -29.37,-94.3 -112.59,-99.43 -151.54,-235.43 -5.75,-20.1 -5.09,-48.9 -15.27,-65.39 -30.21,16.84 -57.7,84.61 -51.76,142.01 8.75,84.53 -9.76,187.78 -20.59,191.15z"/>
 <path class="fil1w" d="M-1789.45 3753.53c0,-136.18 -110.38,-246.57 -246.57,-246.57 -136.18,0 -246.57,110.39 -246.57,246.57 0,68.09 27.6,129.74 72.22,174.36 44.62,44.61 106.27,72.22 174.36,72.22 136.19,0 246.57,-110.39 246.57,-246.57zm-645.5 269.66l224.76 0c-19.09,-12.36 -36.78,-26.68 -52.79,-42.69 -58.09,-58.08 -94.02,-138.33 -94.02,-226.96 0,-177.26 143.72,-320.99 320.98,-320.99 177.27,0 320.99,143.72 320.99,320.99 0,88.63 -35.93,168.88 -94.02,226.96 -16.01,16.01 -33.7,30.34 -52.8,42.69l223.37 0 0 74.41 -796.46 0 0 -74.41z"/>
</symbol>
 <g id="Ebene_x0020_1">
  <metadata id="CorelCorpID_0Corel-Layer"/>
  <use id="ISO_x0020_7010_x0020_W028_0" transform="scale(0.571429 0.57143)" x="-0" y="0" width="3500" height="3058.8" xlink:href="#ISO_x0020_7010_x0020_W028"/>
 </g>
</svg>
