<?xml version="1.0" encoding="UTF-8"?>
<!DOCTYPE svg PUBLIC "-//W3C//DTD SVG 1.1//EN" "http://www.w3.org/Graphics/SVG/1.1/DTD/svg11.dtd">
<!-- Creator: Corel DESIGNER -->
<svg xmlns="http://www.w3.org/2000/svg" xml:space="preserve" width="40mm" height="34.9578mm" version="1.1" style="shape-rendering:geometricPrecision; text-rendering:geometricPrecision; image-rendering:optimizeQuality; fill-rule:evenodd; clip-rule:evenodd"
viewBox="0 0 4000 3495.78"
 xmlns:xlink="http://www.w3.org/1999/xlink"
 xmlns:xodm="http://www.corel.com/coreldraw/odm/2003">
 <defs>
  <style type="text/css">
   <![CDATA[
    .fil0w {fill:#F5CA2B}
    .fil1w {fill:#21251E}
   ]]>
  </style>
 </defs>
<symbol id="ISO_x0020_7010_x0020_W033" viewBox="-1500 -9660.91 7000 6117.6">
 <polygon class="fil0w" points="5290.4,-3754.75 -1288.06,-3754.75 2001.17,-9451.87 "/>
 <path class="fil1w" d="M-922.41 -3964.73l2922.41 -5061.73 2922.4 5061.73 -5844.81 0zm6213.22 421.41l-6581.62 0.01c-161.14,0 -261.32,-173.49 -180.75,-313.05l3290.81 -5699.88c80.57,-139.55 280.93,-139.55 361.5,0l3290.81 5699.87c80.57,139.56 -19.61,313.05 -180.75,313.05z"/>
 <path class="fil1w" d="M2660.78 -5685.73l-93.53 282.78c-117.13,-33.28 -234.91,-31.09 -351.17,5.13l-69.07 21.5c-62.22,19.34 -118.37,22.46 -182.28,9.57l-161.26 -32.58c-108.92,-22.01 -210.93,-16.3 -316.52,18.55l-48.71 16.08 -13.94 -42.24c-39.34,-119.29 -220.64,-59.53 -181.53,59.67 -39.5,-119.01 -220.54,-59.25 -181.46,59.88 -39.52,-119.08 -220.75,-59.18 -181.38,60.1l13.94 42.26 -3.85 1.27 -95.39 -289.09c-157.85,-234.73 -217.33,-245.7 -178.89,67.62l92.49 280.37c-43.93,12.32 -122.9,31.51 -161.61,-0.61l-272.87 -226.57 -160.78 193.34 272.86 226.56c73.78,61.24 157.98,79.79 244.36,75.6 54.34,-2.63 107.11,-14.09 157.14,-28.55l18.08 54.8c39.37,119.36 220.86,59.46 181.47,-59.88l-17.8 -53.95 3.86 -1.27 13.94 42.23c39.38,119.35 220.85,59.49 181.45,-59.88 39.35,119.25 220.52,59.59 181.55,-59.57l85.2 258.23c157.86,234.73 217.34,245.7 178.9,-67.62l-96.68 -293.06 48.57 -16.03c64.09,-21.14 122.06,-25.03 188.29,-11.64l161.27 32.57c105.49,21.29 203.74,16.47 306.55,-15.49l69.07 -21.5c67.39,-20.98 128.68,-23.92 196.93,-6.2l-17.33 52.41c-39.47,119.32 141.98,179.33 181.43,60.01l0.05 -0.15c-24.21,111.32 146.49,163.52 184.64,48.19 -39.4,119.15 141.48,179.16 181.27,60.45l-85.36 258.01c-13.02,282.58 28.22,326.81 183.99,52.25l98.98 -299.25c34.81,7.06 70.29,11.54 106.3,12.34 77.6,1.7 154.21,-14.01 226.71,-57.46l338.39 -202.71 -129.22 -216.01 -338.39 202.71c-27.84,16.68 -59.38,22.67 -92.55,21.94 -10.15,-0.21 -20.61,-1.07 -31.29,-2.48l11.2 -33.87c39.47,-119.29 -141.9,-179.29 -181.4,-60.06 39.35,-119.17 -141.7,-179.13 -181.34,-60.23 37.73,-115.07 -130.07,-174.77 -177.03,-71.19l77.73 -235.03c13.03,-282.56 -28.21,-326.81 -183.98,-52.25z"/>
</symbol>
 <g id="Ebene_x0020_1">
  <metadata id="CorelCorpID_0Corel-Layer"/>
  <use id="ISO_x0020_7010_x0020_W033_0" transform="scale(0.571429 0.57143)" x="-0" y="0" width="7000" height="6117.6" xlink:href="#ISO_x0020_7010_x0020_W033"/>
 </g>
</svg>
