<?xml version="1.0" encoding="UTF-8"?>
<!DOCTYPE svg PUBLIC "-//W3C//DTD SVG 1.1//EN" "http://www.w3.org/Graphics/SVG/1.1/DTD/svg11.dtd">
<!-- Creator: Corel DESIGNER -->
<svg xmlns="http://www.w3.org/2000/svg" xml:space="preserve" width="40mm" height="34.9578mm" version="1.1" style="shape-rendering:geometricPrecision; text-rendering:geometricPrecision; image-rendering:optimizeQuality; fill-rule:evenodd; clip-rule:evenodd"
viewBox="0 0 4000 3495.78"
 xmlns:xlink="http://www.w3.org/1999/xlink"
 xmlns:xodm="http://www.corel.com/coreldraw/odm/2003">
 <defs>
  <style type="text/css">
   <![CDATA[
    .fil0w {fill:#F5CA2B}
    .fil1w {fill:#21251E}
   ]]>
  </style>
 </defs>
<symbol id="ISO_x0020_7010_x0020_W038" viewBox="-1500 2805.75 7000 6117.6">
 <polygon class="fil0w" points="5290.4,8711.91 -1288.06,8711.91 2001.17,3014.79 "/>
 <path class="fil1w" d="M-922.41 8501.93l2922.41 -5061.73 2922.4 5061.73 -5844.81 0zm6213.22 421.41l-6581.62 0.01c-161.14,0 -261.32,-173.49 -180.75,-313.05l3290.81 -5699.88c80.57,-139.55 280.93,-139.55 361.5,0l3290.81 5699.87c80.57,139.56 -19.61,313.05 -180.75,313.05z"/>
 <path class="fil1w" d="M2933.87 6098.96c-321.16,607.27 -319.17,1216.27 0,1823.67l-100.67 53c-336.39,-640.19 -338.5,-1289.63 0,-1929.68l100.67 53.01zm232.61 170.77c-251.17,500.05 -249.54,981.76 0.24,1481.91l-102.01 50.8c-265.58,-531.78 -266.76,-1051.97 0.21,-1583.5l101.56 50.79zm233.8 171.26c-183.13,389.78 -181.12,749.42 0.43,1139.26l-103.34 48.1c-195.55,-419.87 -197.17,-815.79 0,-1235.46l102.91 48.1z"/>
 <path class="fil1w" d="M275.14 7844.36c-92.13,-120.27 -149.1,-279.21 -190.9,-450.15l-80.17 138.85c42.31,141.99 98.62,273.28 180.64,380.33 119.86,156.47 291.52,259.8 548.09,268.32 235.49,7.82 420.54,-77.4 558.16,-215.54 137.33,-137.86 225.96,-328.22 269.35,-530.12 26.23,5.7 53.67,2.01 81.41,-9.53 32.03,-13.33 64.61,-38.31 95.4,-71.2 59.4,-63.47 115.31,-160.46 146.82,-258.48 36.35,-113.07 40.04,-236.06 17.04,-317.53 -9.86,-34.89 -24.98,-64.19 -45.07,-85.06 -27.31,-28.36 -60.3,-40.41 -99.42,-34.73 11.19,-245.84 -35.89,-478.65 -147.32,-660.78 -109.44,-178.9 -279.35,-308.35 -515.08,-353.64l-60.77 105.26c222.19,31.75 379.88,146.03 478.74,307.63 104.83,171.36 145.51,396.58 128.44,635 -1.53,21.31 -3.56,42.92 -6.05,64.74 -6.49,56.98 65.97,86.14 101.2,41.81 4.64,-4.87 31.79,-33.17 38.29,-26.44 6.68,6.94 12.6,19.77 17.45,36.96 17.66,62.58 13.9,159.99 -15.69,252.05 -26.65,82.92 -72.88,163.84 -121.44,215.71 -19.74,21.09 -39.04,36.44 -56.2,43.58 -16.04,6.66 -19.53,2.18 -27.4,-12.41 -26.11,-48.55 -98.73,-34.8 -106.46,18.93 -31.03,212.89 -114.2,417.85 -253.87,558.06 -116.34,116.79 -273.4,188.82 -473.97,182.15 -217.07,-7.21 -361.31,-93.38 -461.22,-223.77z"/>
 <path class="fil1w" d="M2231.01 6326.01c31.29,-7.44 63.15,-0.08 90.4,16.05 -12.37,-32.4 -26.54,-64.02 -42.84,-94.65 -34.12,-64.09 -139.09,-48.45 -123.71,43.72 4.47,26.82 8.4,52.68 11.8,77.74 16.19,-21.07 38.31,-36.7 64.35,-42.86zm-55.57 117.15c2.79,28.06 4.88,55.14 6.28,81.43 28.28,-22.94 66.08,-27.53 97.45,-8.06 27.74,17.24 50.24,53.25 55.92,111.15 20,204.23 11.01,395.98 -42.64,593.8 -2.8,10.63 -13.69,16.98 -24.31,14.19 -10.63,-2.79 -16.98,-13.68 -14.19,-24.31 52.01,-195.32 61.31,-377.91 41.55,-579.78 -3.18,-32.36 -17.93,-88.6 -59.93,-87.5 -24.86,0.69 -43.39,22.55 -51.72,44.19 1.88,147.08 -18.12,273.65 -51.61,422.47 -65.21,289.69 -251.28,460.41 -306.2,752.27 -23.75,126.24 62.81,296.7 104.05,418.4l452.58 0 -67.89 -242.88c-44.59,-159.51 31.41,-378.22 58.84,-541.59 30.97,-184.52 55.48,-402.09 37.71,-591.38 -12.09,-128.74 -27.48,-261.53 -63.99,-386.21 -24.08,-32.26 -64.09,-64.73 -107.14,-54.54 -36.56,8.57 -56.61,44.33 -64.76,78.35z"/>
</symbol>
 <g id="Ebene_x0020_1">
  <metadata id="CorelCorpID_0Corel-Layer"/>
  <use id="ISO_x0020_7010_x0020_W038_0" transform="scale(0.571429 0.57143)" x="-0" y="0" width="7000" height="6117.6" xlink:href="#ISO_x0020_7010_x0020_W038"/>
 </g>
</svg>
