<?xml version="1.0" encoding="UTF-8"?>
<!DOCTYPE svg PUBLIC "-//W3C//DTD SVG 1.1//EN" "http://www.w3.org/Graphics/SVG/1.1/DTD/svg11.dtd">
<!-- Creator: Corel DESIGNER -->
<svg xmlns="http://www.w3.org/2000/svg" xml:space="preserve" width="40mm" height="34.9578mm" version="1.1" style="shape-rendering:geometricPrecision; text-rendering:geometricPrecision; image-rendering:optimizeQuality; fill-rule:evenodd; clip-rule:evenodd"
viewBox="0 0 1000 873.94"
 xmlns:xlink="http://www.w3.org/1999/xlink"
 xmlns:xodm="http://www.corel.com/coreldraw/odm/2003">
 <defs>
  <style type="text/css">
   <![CDATA[
    .fil0w {fill:#F5CA2B}
    .fil1w {fill:#21251E}
   ]]>
  </style>
 </defs>
<symbol id="ISO_x0020_7010_x0020_W040" viewBox="1125 -856.9 1750 1529.4">
 <polygon class="fil0w" points="2822.6,619.64 1177.99,619.64 2000.29,-804.64 "/>
 <path class="fil1w" d="M1269.4 567.15l730.6 -1265.43 730.6 1265.43 -1461.2 0zm1553.3 105.35l-1645.4 0c-40.29,0 -65.33,-43.37 -45.19,-78.26l822.7 -1424.97c20.14,-34.89 70.23,-34.89 90.38,0l822.7 1424.97c20.14,34.89 -4.9,78.26 -45.19,78.26z"/>
 <path class="fil1w" d="M1712.16 29.91l0 -20.16 17.29 -9.98 -11.24 -6.49 -6.04 3.49 0 -6.97 -5.62 -3.25 -5.62 3.25 0 6.97 -6.04 -3.49 -11.24 6.49 17.28 9.98 0 20.16c-3.85,1.01 -7.28,3.04 -10,5.78l-17.46 -10.08 0 -19.96 -11.24 6.49 0 6.97 -6.04 -3.48 -5.62 3.24 0 6.5 6.04 3.49 -6.04 3.49 0 12.99 17.28 -9.98 17.46 10.08 0 11.55 -17.46 10.08 -17.29 -9.98 0 12.99 6.04 3.48 -6.04 3.49 -0 6.49 5.62 3.25 6.04 -3.48 0.01 6.97 11.24 6.49 -0 -19.96 17.46 -10.08c2.72,2.74 6.15,4.77 10,5.78l0 20.16 -17.28 9.98 11.24 6.5 6.04 -3.49 0 6.97 5.62 3.25 5.62 -3.25 0 -6.97 6.05 3.49 11.24 -6.5 -17.29 -9.98 0 -20.16c3.85,-1.01 7.29,-3.04 10,-5.78l17.47 10.08 0 19.96 11.24 -6.49 0 -6.97 6.04 3.48 5.62 -3.24 0 -6.5 -6.04 -3.49 6.04 -3.49 -0 -12.99 -17.28 9.98 -17.46 -10.08 0 -11.56 17.46 -10.08 17.29 9.98 0 -12.99 -6.04 -3.48 6.04 -3.49 0 -6.49 -5.62 -3.25 -6.04 3.48 0 -6.98 -11.25 -6.49 0 19.96 -17.47 10.08c-2.72,-2.74 -6.15,-4.77 -10,-5.78zm18.68 112.32l0 -11.09 9.51 -5.49 -6.19 -3.58 -3.32 1.92 0 -3.84 -3.09 -1.78 -3.1 1.78 0 3.84 -3.33 -1.92 -6.18 3.58 9.51 5.49 0 11.09c-2.12,0.56 -4.01,1.67 -5.5,3.18l-9.61 -5.55 0 -10.98 -6.19 3.57 0 3.84 -3.32 -1.92 -3.1 1.78 0 3.57 3.32 1.92 -3.33 1.92 0 7.14 9.51 -5.49 9.61 5.55 0 6.36 -9.61 5.55 -9.51 -5.49 0 7.15 3.33 1.92 -3.32 1.92 -0 3.57 3.1 1.79 3.32 -1.92 0 3.84 6.19 3.57 0 -10.98 9.61 -5.55c1.49,1.51 3.39,2.62 5.5,3.18l0 11.09 -9.51 5.49 6.19 3.57 3.32 -1.92 0 3.84 3.09 1.79 3.1 -1.79 0 -3.84 3.33 1.92 6.19 -3.57 -9.51 -5.49 0 -11.09c2.12,-0.56 4.01,-1.68 5.51,-3.18l9.61 5.55 0 10.98 6.19 -3.57 0 -3.84 3.32 1.92 3.09 -1.78 0 -3.57 -3.32 -1.92 3.32 -1.92 -0 -7.14 -9.51 5.49 -9.61 -5.55 0 -6.36 9.61 -5.55 9.51 5.49 0 -7.15 -3.32 -1.92 3.32 -1.92 0 -3.57 -3.1 -1.79 -3.32 1.92 0 -3.84 -6.19 -3.57 0 10.98 -9.61 5.55c-1.5,-1.51 -3.39,-2.62 -5.5,-3.18zm110.86 -163.52l0 -11.09 9.51 -5.49 -6.19 -3.57 -3.32 1.92 0 -3.84 -3.09 -1.79 -3.09 1.79 0 3.84 -3.32 -1.92 -6.19 3.57 9.51 5.49 0 11.09c-2.12,0.56 -4.01,1.67 -5.5,3.18l-9.61 -5.55 0 -10.98 -6.19 3.57 0 3.84 -3.32 -1.92 -3.09 1.79 0 3.57 3.32 1.92 -3.32 1.92 0 7.14 9.51 -5.49 9.61 5.55 0 6.36 -9.61 5.55 -9.51 -5.49 0 7.15 3.32 1.92 -3.32 1.92 -0 3.57 3.09 1.79 3.32 -1.92 0 3.84 6.19 3.57 0 -10.98 9.61 -5.55c1.5,1.51 3.39,2.62 5.5,3.18l0 11.09 -9.51 5.49 6.19 3.57 3.32 -1.92 0 3.84 3.09 1.78 3.1 -1.78 0 -3.84 3.33 1.92 6.18 -3.57 -9.51 -5.49 0 -11.09c2.12,-0.56 4.01,-1.67 5.5,-3.18l9.61 5.55 0 10.98 6.19 -3.57 0 -3.84 3.32 1.92 3.1 -1.78 0 -3.57 -3.32 -1.92 3.33 -1.92 -0 -7.15 -9.51 5.49 -9.61 -5.55 0 -6.36 9.61 -5.55 9.51 5.49 0 -7.15 -3.33 -1.92 3.32 -1.92 0 -3.57 -3.1 -1.79 -3.32 1.92 0 -3.84 -6.19 -3.57 0 10.98 -9.61 5.55c-1.49,-1.51 -3.38,-2.62 -5.5,-3.18zm178.04 -77.77l0 -11.09 9.51 -5.49 -6.19 -3.57 -3.32 1.92 0 -3.84 -3.09 -1.79 -3.1 1.79 0 3.84 -3.32 -1.92 -6.19 3.57 9.51 5.49 0 11.09c-2.12,0.56 -4.01,1.67 -5.5,3.18l-9.61 -5.55 0 -10.98 -6.19 3.57 0 3.84 -3.32 -1.92 -3.1 1.78 0 3.57 3.32 1.92 -3.32 1.92 0 7.14 9.51 -5.49 9.61 5.55 0 6.36 -9.61 5.55 -9.51 -5.49 0 7.14 3.32 1.92 -3.32 1.92 -0 3.57 3.09 1.79 3.32 -1.92 0 3.84 6.19 3.57 0 -10.98 9.61 -5.55c1.5,1.51 3.39,2.62 5.51,3.18l0 11.09 -9.51 5.49 6.19 3.57 3.32 -1.92 0 3.84 3.09 1.78 3.1 -1.78 0 -3.84 3.33 1.92 6.19 -3.57 -9.51 -5.49 0 -11.09c2.12,-0.56 4.01,-1.67 5.5,-3.18l9.61 5.55 0 10.98 6.19 -3.57 0 -3.84 3.32 1.92 3.09 -1.79 0 -3.57 -3.32 -1.92 3.32 -1.92 -0 -7.14 -9.51 5.49 -9.61 -5.55 0 -6.36 9.61 -5.55 9.51 5.49 0 -7.15 -3.32 -1.92 3.32 -1.92 0 -3.57 -3.1 -1.78 -3.32 1.92 0 -3.84 -6.19 -3.57 0 10.98 -9.61 5.55c-1.5,-1.51 -3.39,-2.62 -5.51,-3.18zm-106.72 103.69l0 -12.05 10.33 -5.96 -6.72 -3.88 -3.61 2.09 0 -4.17 -3.36 -1.94 -3.36 1.94 0 4.17 -3.61 -2.09 -6.72 3.88 10.33 5.96 0 12.05c-2.3,0.61 -4.35,1.82 -5.98,3.45l-10.43 -6.02 0 -11.93 -6.72 3.88 0 4.17 -3.61 -2.08 -3.36 1.94 0 3.88 3.61 2.08 -3.61 2.08 0 7.76 10.32 -5.97 10.44 6.03 0 6.9 -10.44 6.03 -10.33 -5.96 0 7.76 3.61 2.08 -3.61 2.09 -0 3.88 3.36 1.94 3.61 -2.08 0 4.17 6.72 3.88 -0 -11.93 10.43 -6.03c1.62,1.64 3.68,2.85 5.98,3.45l0 12.05 -10.33 5.96 6.72 3.88 3.61 -2.08 0 4.17 3.36 1.94 3.36 -1.94 0 -4.17 3.61 2.08 6.72 -3.88 -10.33 -5.96 0 -12.05c2.3,-0.61 4.36,-1.82 5.98,-3.45l10.43 6.03 0 11.93 6.72 -3.88 0 -4.17 3.61 2.08 3.36 -1.94 0 -3.88 -3.61 -2.08 3.61 -2.09 -0 -7.76 -10.33 5.96 -10.43 -6.02 0 -6.91 10.43 -6.02 10.33 5.97 0 -7.76 -3.61 -2.08 3.61 -2.08 0 -3.88 -3.36 -1.94 -3.61 2.08 0 -4.17 -6.72 -3.88 0 11.93 -10.44 6.03c-1.62,-1.64 -3.68,-2.85 -5.98,-3.46zm-149.12 -46.13l0 -12.05 10.33 -5.96 -6.72 -3.88 -3.61 2.09 0 -4.17 -3.36 -1.94 -3.36 1.94 0 4.17 -3.61 -2.09 -6.72 3.88 10.33 5.96 0 12.05c-2.3,0.61 -4.35,1.82 -5.98,3.45l-10.43 -6.02 0 -11.93 -6.72 3.88 0 4.17 -3.61 -2.08 -3.36 1.94 0 3.88 3.61 2.09 -3.61 2.08 0 7.76 10.33 -5.96 10.44 6.02 0 6.9 -10.44 6.03 -10.33 -5.97 0 7.76 3.61 2.08 -3.61 2.08 0 3.88 3.36 1.94 3.61 -2.08 0 4.17 6.72 3.88 -0 -11.93 10.43 -6.03c1.62,1.64 3.68,2.85 5.98,3.45l0 12.05 -10.33 5.96 6.72 3.88 3.61 -2.08 0 4.17 3.36 1.94 3.36 -1.94 0 -4.17 3.61 2.08 6.72 -3.88 -10.33 -5.96 0 -12.05c2.3,-0.6 4.35,-1.82 5.98,-3.45l10.44 6.03 0 11.93 6.72 -3.88 0 -4.17 3.61 2.08 3.36 -1.94 0 -3.88 -3.61 -2.08 3.61 -2.09 -0 -7.76 -10.33 5.97 -10.43 -6.02 0 -6.91 10.43 -6.02 10.33 5.97 0 -7.76 -3.61 -2.08 3.61 -2.08 0 -3.88 -3.36 -1.94 -3.61 2.08 0 -4.17 -6.72 -3.88 0 11.93 -10.44 6.03c-1.62,-1.64 -3.68,-2.85 -5.98,-3.46zm114.49 218.5l0 -13.33 11.43 -6.59 -7.43 -4.3 -4 2.31 0 -4.61 -3.71 -2.15 -3.72 2.15 0 4.61 -4 -2.31 -7.43 4.3 11.43 6.59 0 13.33c-2.55,0.67 -4.82,2.01 -6.62,3.82l-11.55 -6.67 0 -13.19 -7.43 4.29 0 4.61 -3.99 -2.31 -3.72 2.14 0 4.29 3.99 2.31 -3.99 2.31 0 8.58 11.42 -6.6 11.54 6.66 0 7.64 -11.54 6.67 -11.43 -6.6 0 8.59 3.99 2.31 -3.99 2.31 -0 4.29 3.72 2.15 3.99 -2.31 0 4.61 7.43 4.29 -0 -13.19 11.55 -6.67c1.79,1.81 4.07,3.15 6.61,3.82l0 13.33 -11.43 6.6 7.43 4.29 3.99 -2.31 0 4.61 3.71 2.14 3.72 -2.14 0 -4.61 4 2.31 7.43 -4.29 -11.43 -6.6 0 -13.33c2.54,-0.67 4.82,-2.01 6.61,-3.82l11.54 6.67 0 13.19 7.43 -4.29 0 -4.61 3.99 2.31 3.72 -2.15 0 -4.29 -3.99 -2.31 3.99 -2.31 0 -8.59 -11.43 6.6 -11.54 -6.67 0 -7.64 11.54 -6.66 11.43 6.6 0 -8.58 -3.99 -2.31 3.99 -2.31 0 -4.29 -3.72 -2.14 -3.99 2.3 0 -4.61 -7.44 -4.29 0 13.19 -11.55 6.67c-1.8,-1.81 -4.07,-3.15 -6.62,-3.82zm-69.15 -61.49l0 -13.33 11.43 -6.6 -7.43 -4.29 -3.99 2.31 0 -4.61 -3.71 -2.15 -3.72 2.15 0 4.61 -3.99 -2.31 -7.43 4.29 11.43 6.6 0 13.33c-2.54,0.67 -4.82,2.01 -6.61,3.82l-11.55 -6.67 0 -13.19 -7.43 4.29 0 4.61 -3.99 -2.3 -3.72 2.15 0 4.29 3.99 2.31 -3.99 2.31 0 8.58 11.42 -6.6 11.54 6.67 0 7.64 -11.54 6.67 -11.43 -6.6 0 8.59 3.99 2.3 -3.99 2.31 -0 4.29 3.72 2.15 3.99 -2.3 0 4.61 7.43 4.29 -0 -13.19 11.55 -6.67c1.8,1.81 4.07,3.16 6.61,3.82l0 13.33 -11.43 6.6 7.43 4.29 3.99 -2.31 0 4.61 3.71 2.15 3.72 -2.15 0 -4.61 3.99 2.31 7.43 -4.29 -11.42 -6.6 0 -13.33c2.54,-0.67 4.82,-2.01 6.61,-3.82l11.55 6.67 0 13.19 7.43 -4.29 0 -4.61 3.99 2.3 3.72 -2.14 0 -4.3 -3.99 -2.3 3.99 -2.31 0 -8.59 -11.43 6.6 -11.54 -6.67 0 -7.64 11.54 -6.67 11.43 6.6 0 -8.59 -3.99 -2.3 3.99 -2.31 0 -4.29 -3.72 -2.15 -3.99 2.31 0 -4.61 -7.44 -4.29 0 13.19 -11.55 6.67c-1.8,-1.81 -4.07,-3.16 -6.62,-3.83zm82.44 -206.18l0 -13.33 11.43 -6.6 -7.44 -4.29 -3.99 2.31 0 -4.61 -3.72 -2.15 -3.72 2.15 0 4.61 -3.99 -2.31 -7.43 4.29 11.43 6.6 0 13.33c-2.54,0.67 -4.81,2.01 -6.61,3.82l-11.55 -6.67 0 -13.19 -7.43 4.29 0 4.61 -3.99 -2.3 -3.72 2.14 0 4.3 3.99 2.3 -3.99 2.31 0 8.58 11.42 -6.6 11.54 6.67 0 7.64 -11.54 6.67 -11.43 -6.6 0 8.59 3.99 2.3 -3.99 2.31 -0 4.29 3.72 2.15 3.99 -2.3 0 4.61 7.43 4.29 0 -13.2 11.55 -6.67c1.79,1.81 4.07,3.15 6.61,3.82l0 13.33 -11.43 6.6 7.43 4.29 3.99 -2.3 0 4.61 3.72 2.15 3.72 -2.15 0 -4.61 3.99 2.3 7.43 -4.29 -11.43 -6.6 0 -13.33c2.54,-0.67 4.82,-2.01 6.61,-3.82l11.55 6.67 0 13.2 7.43 -4.29 0 -4.61 3.99 2.3 3.72 -2.14 0 -4.3 -3.99 -2.3 4 -2.31 -0 -8.58 -11.42 6.6 -11.55 -6.66 0 -7.64 11.55 -6.67 11.43 6.6 0 -8.59 -4 -2.3 3.99 -2.31 0 -4.29 -3.72 -2.15 -3.99 2.31 0 -4.61 -7.44 -4.29 0 13.19 -11.55 6.67c-1.8,-1.81 -4.07,-3.16 -6.61,-3.83zm-78.08 131.34l0 -8.77 7.52 -4.34 -4.89 -2.83 -2.63 1.52 0 -3.03 -2.45 -1.41 -2.45 1.41 0 3.03 -2.63 -1.52 -4.89 2.83 7.52 4.34 0 8.77c-1.67,0.44 -3.17,1.32 -4.36,2.51l-7.6 -4.38 0 -8.69 -4.89 2.82 0 3.03 -2.62 -1.52 -2.45 1.41 0 2.82 2.63 1.52 -2.63 1.52 0 5.65 7.52 -4.34 7.6 4.39 0 5.02 -7.6 4.39 -7.52 -4.34 0 5.65 2.63 1.52 -2.63 1.52 -0 2.82 2.45 1.41 2.63 -1.51 0 3.03 4.89 2.82 0 -8.69 7.6 -4.39c1.18,1.19 2.68,2.07 4.35,2.52l0 8.77 -7.52 4.34 4.89 2.83 2.63 -1.52 0 3.03 2.45 1.41 2.45 -1.41 0 -3.03 2.63 1.52 4.89 -2.83 -7.52 -4.34 0 -8.77c1.67,-0.44 3.17,-1.32 4.35,-2.51l7.6 4.38 0 8.69 4.89 -2.82 0 -3.03 2.63 1.51 2.45 -1.41 0 -2.82 -2.63 -1.52 2.63 -1.52 0 -5.65 -7.52 4.34 -7.6 -4.39 0 -5.03 7.6 -4.39 7.52 4.34 0 -5.65 -2.63 -1.52 2.63 -1.52 0 -2.82 -2.44 -1.41 -2.63 1.51 0 -3.03 -4.89 -2.82 0 8.69 -7.6 4.39c-1.19,-1.19 -2.68,-2.07 -4.35,-2.51zm60.91 33.5l0 -8.77 7.52 -4.34 -4.89 -2.82 -2.63 1.52 0 -3.03 -2.44 -1.41 -2.45 1.41 0 3.03 -2.63 -1.52 -4.89 2.82 7.52 4.34 0 8.77c-1.67,0.44 -3.17,1.32 -4.35,2.51l-7.6 -4.39 0 -8.69 -4.89 2.82 0 3.03 -2.63 -1.52 -2.45 1.41 0 2.82 2.63 1.52 -2.63 1.52 0 5.65 7.52 -4.34 7.6 4.39 0 5.03 -7.6 4.39 -7.52 -4.34 0 5.65 2.63 1.51 -2.63 1.52 0 2.82 2.44 1.41 2.63 -1.52 0 3.03 4.89 2.82 -0 -8.69 7.6 -4.39c1.18,1.19 2.68,2.08 4.35,2.52l0 8.77 -7.52 4.34 4.89 2.83 2.63 -1.52 0 3.03 2.45 1.41 2.45 -1.41 0 -3.03 2.63 1.52 4.89 -2.83 -7.52 -4.34 0 -8.77c1.67,-0.44 3.17,-1.33 4.35,-2.52l7.6 4.39 0 8.68 4.89 -2.82 0 -3.03 2.62 1.51 2.45 -1.41 0 -2.82 -2.63 -1.52 2.63 -1.52 -0 -5.65 -7.52 4.34 -7.6 -4.38 0 -5.03 7.6 -4.39 7.52 4.34 0 -5.65 -2.63 -1.51 2.63 -1.52 0 -2.82 -2.45 -1.41 -2.63 1.51 0 -3.03 -4.89 -2.82 0 8.68 -7.6 4.39c-1.18,-1.19 -2.68,-2.07 -4.35,-2.51zm-60.78 -171.38l0 -8.77 7.52 -4.34 -4.89 -2.82 -2.63 1.52 0 -3.03 -2.44 -1.41 -2.45 1.41 0 3.03 -2.63 -1.52 -4.89 2.82 7.52 4.34 0 8.77c-1.68,0.44 -3.17,1.32 -4.35,2.52l-7.6 -4.39 0 -8.69 -4.89 2.83 0 3.03 -2.63 -1.52 -2.45 1.41 0 2.83 2.63 1.52 -2.63 1.52 0 5.65 7.52 -4.34 7.6 4.39 0 5.03 -7.6 4.39 -7.52 -4.34 0 5.65 2.63 1.52 -2.63 1.52 0 2.82 2.44 1.41 2.63 -1.52 0 3.03 4.89 2.82 0 -8.68 7.6 -4.39c1.18,1.19 2.68,2.08 4.35,2.52l0 8.77 -7.52 4.34 4.89 2.83 2.63 -1.52 0 3.03 2.45 1.41 2.44 -1.41 0 -3.03 2.63 1.52 4.89 -2.83 -7.52 -4.34 0 -8.77c1.67,-0.44 3.17,-1.32 4.35,-2.52l7.6 4.39 0 8.68 4.89 -2.83 0 -3.03 2.62 1.52 2.45 -1.41 0 -2.83 -2.63 -1.52 2.63 -1.52 -0 -5.65 -7.52 4.34 -7.6 -4.39 0 -5.03 7.6 -4.39 7.52 4.34 0 -5.65 -2.63 -1.52 2.63 -1.52 0 -2.83 -2.45 -1.41 -2.63 1.52 0 -3.03 -4.89 -2.83 0 8.69 -7.6 4.39c-1.18,-1.19 -2.68,-2.08 -4.35,-2.52zm140.56 -29.05l0 -8.77 7.52 -4.34 -4.89 -2.83 -2.63 1.52 0 -3.03 -2.44 -1.41 -2.45 1.41 0 3.03 -2.63 -1.52 -4.89 2.83 7.52 4.34 0 8.77c-1.67,0.44 -3.17,1.33 -4.35,2.52l-7.6 -4.38 0 -8.69 -4.89 2.82 0 3.03 -2.63 -1.52 -2.45 1.41 0 2.83 2.63 1.52 -2.63 1.52 0 5.65 7.52 -4.34 7.6 4.39 0 5.02 -7.6 4.39 -7.52 -4.34 0 5.65 2.63 1.52 -2.63 1.52 0 2.82 2.45 1.41 2.62 -1.52 0 3.03 4.89 2.82 -0 -8.68 7.6 -4.39c1.18,1.19 2.68,2.07 4.35,2.51l0 8.77 -7.52 4.34 4.89 2.83 2.63 -1.52 0 3.03 2.44 1.41 2.45 -1.41 0 -3.03 2.63 1.52 4.89 -2.83 -7.52 -4.34 0 -8.77c1.67,-0.44 3.17,-1.32 4.35,-2.51l7.6 4.39 0 8.69 4.89 -2.83 0 -3.03 2.63 1.52 2.44 -1.41 0 -2.83 -2.62 -1.52 2.63 -1.52 -0 -5.65 -7.52 4.34 -7.6 -4.39 0 -5.03 7.6 -4.39 7.52 4.34 0 -5.65 -2.63 -1.52 2.62 -1.52 0 -2.82 -2.45 -1.41 -2.63 1.52 0 -3.03 -4.89 -2.82 0 8.69 -7.6 4.39c-1.18,-1.19 -2.68,-2.08 -4.35,-2.52zm7.5 83.4l0 -8.77 7.52 -4.34 -4.89 -2.83 -2.63 1.52 0 -3.04 -2.45 -1.41 -2.45 1.41 0 3.04 -2.63 -1.52 -4.89 2.83 7.52 4.34 0 8.77c-1.67,0.44 -3.17,1.32 -4.35,2.52l-7.6 -4.39 0 -8.69 -4.89 2.83 0 3.03 -2.63 -1.52 -2.45 1.41 0 2.82 2.63 1.52 -2.63 1.52 0 5.65 7.52 -4.34 7.6 4.38 0 5.03 -7.6 4.39 -7.52 -4.34 0 5.65 2.63 1.52 -2.63 1.52 0 2.82 2.45 1.41 2.63 -1.52 0 3.03 4.89 2.83 -0 -8.69 7.6 -4.39c1.18,1.19 2.68,2.08 4.35,2.52l0 8.77 -7.52 4.34 4.89 2.83 2.63 -1.52 0 3.03 2.45 1.41 2.44 -1.41 0 -3.03 2.63 1.52 4.89 -2.83 -7.52 -4.34 0 -8.77c1.67,-0.44 3.17,-1.33 4.35,-2.52l7.6 4.39 0 8.68 4.89 -2.83 0 -3.03 2.62 1.52 2.45 -1.41 0 -2.83 -2.63 -1.52 2.63 -1.52 -0 -5.65 -7.52 4.34 -7.6 -4.39 0 -5.03 7.6 -4.39 7.52 4.34 0 -5.65 -2.63 -1.52 2.63 -1.52 0 -2.83 -2.45 -1.41 -2.63 1.52 0 -3.03 -4.89 -2.82 0 8.69 -7.6 4.38c-1.18,-1.19 -2.68,-2.07 -4.35,-2.52zm167.37 -150.97l0 -8.77 7.52 -4.34 -4.89 -2.82 -2.63 1.52 0 -3.03 -2.44 -1.41 -2.45 1.41 0 3.03 -2.63 -1.52 -4.89 2.82 7.52 4.34 0 8.77c-1.67,0.44 -3.17,1.32 -4.35,2.51l-7.6 -4.39 0 -8.69 -4.89 2.83 0 3.03 -2.63 -1.52 -2.45 1.41 0 2.83 2.63 1.52 -2.63 1.52 0 5.65 7.52 -4.34 7.6 4.39 0 5.03 -7.6 4.39 -7.52 -4.34 0 5.65 2.63 1.52 -2.63 1.52 0 2.82 2.45 1.41 2.62 -1.51 0 3.03 4.89 2.83 -0 -8.69 7.6 -4.39c1.18,1.19 2.68,2.07 4.35,2.51l0 8.77 -7.52 4.34 4.89 2.82 2.63 -1.52 0 3.03 2.45 1.41 2.45 -1.41 0 -3.03 2.63 1.52 4.89 -2.82 -7.52 -4.34 0 -8.77c1.67,-0.44 3.17,-1.32 4.35,-2.51l7.6 4.38 0 8.69 4.89 -2.83 0 -3.03 2.63 1.52 2.44 -1.41 0 -2.83 -2.62 -1.52 2.63 -1.52 -0 -5.65 -7.52 4.34 -7.6 -4.39 0 -5.03 7.6 -4.39 7.52 4.34 0 -5.65 -2.63 -1.52 2.62 -1.52 0 -2.82 -2.45 -1.41 -2.63 1.51 0 -3.03 -4.89 -2.83 0 8.69 -7.6 4.39c-1.18,-1.19 -2.68,-2.08 -4.35,-2.52zm-59.09 35.82l0 -11.94 10.24 -5.91 -6.66 -3.85 -3.58 2.07 0 -4.13 -3.33 -1.92 -3.33 1.92 0 4.13 -3.58 -2.07 -6.66 3.85 10.24 5.91 0 11.94c-2.28,0.6 -4.32,1.8 -5.92,3.42l-10.35 -5.97 0 -11.83 -6.66 3.85 0 4.13 -3.58 -2.06 -3.33 1.92 0 3.85 3.58 2.06 -3.58 2.07 0 7.69 10.24 -5.91 10.35 5.97 0 6.84 -10.35 5.97 -10.24 -5.91 0 7.69 3.58 2.06 -3.58 2.07 -0 3.85 3.33 1.92 3.57 -2.06 0 4.13 6.66 3.84 -0 -11.82 10.35 -5.97c1.61,1.62 3.64,2.83 5.92,3.42l0 11.95 -10.24 5.91 6.66 3.85 3.58 -2.06 0 4.13 3.33 1.92 3.33 -1.92 0 -4.13 3.58 2.06 6.66 -3.85 -10.24 -5.91 0 -11.95c2.28,-0.6 4.32,-1.8 5.93,-3.42l10.35 5.97 0 11.83 6.66 -3.85 0 -4.13 3.57 2.06 3.33 -1.92 0 -3.85 -3.58 -2.06 3.58 -2.07 0 -7.69 -10.24 5.91 -10.35 -5.97 0 -6.84 10.35 -5.97 10.24 5.91 0 -7.69 -3.58 -2.06 3.58 -2.06 0 -3.84 -3.33 -1.93 -3.58 2.06 0 -4.13 -6.66 -3.84 0 11.83 -10.35 5.97c-1.61,-1.62 -3.64,-2.83 -5.92,-3.43zm9.6 -64.29l0 -7.5 6.43 -3.72 -4.18 -2.42 -2.25 1.3 0 -2.59 -2.09 -1.21 -2.09 1.21 0 2.59 -2.25 -1.3 -4.19 2.42 6.43 3.72 0 7.5c-1.43,0.38 -2.71,1.13 -3.72,2.15l-6.5 -3.75 0 -7.43 -4.19 2.42 0 2.6 -2.25 -1.3 -2.09 1.21 0 2.42 2.25 1.3 -2.25 1.3 0 4.84 6.43 -3.72 6.5 3.75 0 4.3 -6.5 3.75 -6.43 -3.72 0 4.84 2.25 1.3 -2.25 1.3 -0 2.42 2.09 1.21 2.25 -1.3 0 2.6 4.19 2.42 -0 -7.43 6.5 -3.75c1.01,1.02 2.29,1.78 3.72,2.16l0 7.51 -6.43 3.71 4.18 2.42 2.25 -1.3 0 2.59 2.09 1.21 2.1 -1.21 0 -2.59 2.25 1.3 4.18 -2.42 -6.43 -3.71 0 -7.51c1.43,-0.38 2.71,-1.13 3.72,-2.15l6.5 3.75 0 7.43 4.19 -2.42 0 -2.59 2.25 1.3 2.09 -1.21 0 -2.42 -2.25 -1.3 2.25 -1.3 -0 -4.83 -6.43 3.71 -6.5 -3.75 0 -4.3 6.5 -3.75 6.43 3.72 0 -4.84 -2.25 -1.3 2.25 -1.3 0 -2.42 -2.09 -1.21 -2.25 1.3 0 -2.6 -4.19 -2.42 0 7.43 -6.5 3.75c-1.01,-1.02 -2.29,-1.77 -3.72,-2.15zm81.71 -11.7c2.82,-0.75 5.34,-2.23 7.33,-4.24l12.8 7.39 0 14.63 8.24 -4.76 0 -3.93 -9.26 -16.04 -7.66 -4.42 0 -8.47 0.16 -0.09 -4.12 -7.14 -0.16 0.09c-1.99,-2 -4.51,-3.5 -7.33,-4.24l0 -8.84 -9.26 -16.05 -3.4 -1.97 -8.25 4.76 12.67 7.31 0 14.78c-2.82,0.74 -5.34,2.23 -7.33,4.24l-12.8 -7.39 0 -14.63 -8.24 4.76 0 5.11 -4.42 -2.56 -4.12 2.38 0 4.76 4.42 2.56 -4.42 2.56 0 9.52 12.67 -7.32 12.8 7.39 0 8.47 -12.8 7.39 -12.67 -7.31 0 9.52 4.42 2.55 -4.42 2.56 -0 4.76 4.12 2.38 4.42 -2.56 0 5.11 8.24 4.76 -0 -14.63 12.8 -7.39c1.99,2.01 4.51,3.5 7.33,4.24l0 14.78 -12.67 7.31 8.24 4.76 4.43 -2.56 0 5.11 4.12 2.38 4.12 -2.38 0 -5.11 4.43 2.56 8.24 -4.76 -12.67 -7.31 0 -14.78zm-38.12 -73.66c1.89,-0.5 3.57,-1.49 4.91,-2.83l8.56 4.95 0 9.79 5.52 -3.18 0 -3.42 2.96 1.71 0.61 -0.36 -5.62 -9.73 -0.71 0.41 -8.57 -4.94 0 -5.67 2.54 -1.47 -2.76 -4.78 -2.54 1.47c-1.33,-1.34 -3.02,-2.34 -4.91,-2.84l0 -9.89 0.71 -0.41 -5.62 -9.73 -0.61 0.35 0 3.42 -2.97 -1.71 -5.51 3.19 8.48 4.89 0 9.89c-1.89,0.5 -3.57,1.49 -4.91,2.84l-8.56 -4.95 0 -9.79 -5.52 3.18 0 3.42 -2.96 -1.71 -2.76 1.59 0 3.19 2.97 1.71 -2.97 1.71 0 6.37 8.48 -4.89 8.57 4.94 0 5.66 -8.57 4.95 -8.48 -4.89 0 6.37 2.97 1.71 -2.97 1.71 0 3.19 2.76 1.59 2.96 -1.71 0 3.42 5.52 3.18 -0 -9.79 8.57 -4.94c1.33,1.34 3.02,2.34 4.91,2.83l0 9.89 -8.48 4.89 5.51 3.19 2.96 -1.71 0 3.42 2.76 1.59 2.76 -1.59 0 -3.42 2.97 1.71 5.51 -3.19 -8.48 -4.89 0 -9.89z"/>
 <path class="fil1w" d="M2160.45 131.69l183.66 0 0 183.66 -183.66 0 0 -183.66zm-50.43 371.07l499.88 0 -310.76 -538.25 -97.34 -168.59 -233.45 226.12 141.67 0 0 480.71z"/>
 <path class="fil1w" d="M1648.17 419.12l0.13 -79.95 83.08 -42.1 -21.62 43.74c-3.97,8.04 -3.2,16.55 1.52,21.16l52.21 51.03c14.47,14.14 35.97,-7.85 21.5,-22l-44.23 -43.24 27.26 -55.53c2.53,-5.16 2.12,-9.94 0.02,-13.74 -5.55,-10.48 -29.15,-62.66 -36.26,-67.03l-66.36 -40.85c-3.49,-2.15 -8.57,-1.25 -12.29,0.48l-66.17 30.83c-18.34,8.54 -5.35,36.43 12.99,27.88l58.91 -27.44 47.19 28.59 -104.78 53.1c-5.67,2.96 -40.19,55.12 -46.21,63.79l-91.27 -1.65c-22.01,-0.39 -22.84,33.19 -0.81,33.48l96.05 1.3c8.03,0.11 16.34,-3.61 20.65,-9.86l35.15 -50.89 -0.15 95.65 -67.41 64.22c-15.94,15.18 7.05,39.65 22.95,24.4l70.55 -67.7c4.92,-4.72 7.39,-10.68 7.4,-17.67zm176.6 -183.14c0,-17.04 -13.81,-30.85 -30.85,-30.85 -17.04,0 -30.85,13.81 -30.85,30.85 0,17.03 13.81,30.84 30.85,30.84 17.04,0 30.85,-13.81 30.85,-30.84z"/>
</symbol>
 <g id="Ebene_x0020_1">
  <metadata id="CorelCorpID_0Corel-Layer"/>
  <use id="ISO_x0020_7010_x0020_W040_0" transform="scale(0.571429 0.57143)" x="-0" width="1750" height="1529.4" xlink:href="#ISO_x0020_7010_x0020_W040"/>
 </g>
</svg>
