<?xml version="1.0" encoding="UTF-8"?>
<!DOCTYPE svg PUBLIC "-//W3C//DTD SVG 1.1//EN" "http://www.w3.org/Graphics/SVG/1.1/DTD/svg11.dtd">
<!-- Creator: Corel DESIGNER -->
<svg xmlns="http://www.w3.org/2000/svg" xml:space="preserve" width="40mm" height="35.5608mm" version="1.1" style="shape-rendering:geometricPrecision; text-rendering:geometricPrecision; image-rendering:optimizeQuality; fill-rule:evenodd; clip-rule:evenodd"
viewBox="0 0 4000 3556.08"
 xmlns:xlink="http://www.w3.org/1999/xlink"
 xmlns:xodm="http://www.corel.com/coreldraw/odm/2003">
 <defs>
  <style type="text/css">
   <![CDATA[
    .fil0w {fill:#F5CA2B}
    .fil1w {fill:#21251E}
   ]]>
  </style>
 </defs>
<symbol id="ISO_x0020_7010_x0020_W041" viewBox="-1500 -3450.2 7000 6223.14">
 <polygon class="fil0w" points="5290.4,2557.85 -1288.06,2557.86 2001.17,-3237.57 "/>
 <path class="fil1w" d="M-922.41 2344.25l2922.41 -5149.07 2922.4 5149.07 -5844.81 0zm6213.23 428.68l-6581.64 0.01c-161.13,0 -261.32,-176.49 -180.74,-318.46l3290.81 -5798.21c80.57,-141.96 280.93,-141.96 361.5,0l3290.81 5798.2c80.58,141.97 -19.61,318.46 -180.74,318.46z"/>
 <path class="fil1w" d="M1209.07 560.95c-132.48,160.65 -157.39,358.91 -55.63,442.83 101.76,83.92 291.65,21.71 424.13,-138.94 99.65,-120.83 138.43,-262.94 108.23,-361.67 21.98,-14.79 44.32,-29.75 66.56,-44.54 56.03,104.61 58.08,235.3 -6.18,344.51l-99.88 169.74 -3.74 312.81c247.74,134.57 494.73,270.25 741.92,405.84 81.94,44.51 109.82,140.3 67.82,223.07 -44.95,81.56 -142.35,106.35 -223.93,64.72l-826.49 -448.94c-53.73,-29.19 -86.11,-85.52 -86.11,-146.47l0 -159.62 -49.85 0 0 159.62c0,52.66 19.26,104.15 54,143.66l-50.71 86.2 182.14 0 753.34 409.21c27.87,15.94 61.97,25.02 93.99,26.33l-290.37 0 -1198.9 0c-257.7,0 -437.77,-294.64 -298.92,-530.63l630.53 -1071.61c97.91,-166.41 314.19,-222.47 480.61,-124.55 22.19,13.06 42.88,28.53 61.66,46.13 -21.6,14.61 -43.05,29.13 -63.98,43.18 -104.42,-68.08 -283.57,-4.49 -410.24,149.12zm1107.13 1488.36l891.01 0c118.79,0 215.98,-98 215.98,-217.77 0,-119.02 -96.44,-217.77 -215.98,-217.77l-861.85 0 62.88 34.15c99.75,54.18 148.94,192.08 87.57,290.62 -28.17,51.18 -74.56,86.41 -126.73,101.94 -17.14,5.11 -34.91,8.09 -52.88,8.83zm-36.41 -1707.63c17.51,32.19 62.71,34.03 83.04,4.07l140.87 -208.2c88.06,-130.15 79.88,-308.22 -30,-430.26 -129.38,-143.69 -350.73,-155.29 -494.42,-25.91 -50.23,45.23 -84.32,101.7 -101.88,162.16 -22.56,77.66 -60.9,138.77 -120.99,192.88l-62.17 55.97c-27.17,24.47 -29.39,66.73 -4.92,93.9l100.19 111.27c67.01,-43.96 129.68,-82.54 176.49,-103.58 102.07,-45.88 154.92,-34.43 202.3,-7.04 51.07,29.53 83.26,103.18 111.49,154.74zm-412.57 42.19l21.52 23.9c24.47,27.18 66.72,29.39 93.9,4.92l52.55 -47.32c45.38,50.41 120.96,56.88 171.94,10.98l45.7 -41.14c-14.71,-24.29 -32.55,-62.92 -78.37,-67.34 -45.81,-4.43 -89,3.92 -156.13,30.78 -33.23,13.3 -87.97,45.29 -151.11,85.22zm442.92 -300.1c16.93,-15.23 43,-13.86 58.23,3.06 15.24,16.92 13.87,42.99 -3.05,58.22 -16.92,15.24 -42.99,13.88 -58.23,-3.05 -15.23,-16.92 -13.87,-42.99 3.05,-58.23z"/>
 <path class="fil1w" d="M369.64 852.65c0,-15.15 -12.28,-27.43 -27.43,-27.43 -15.14,0 -27.42,12.28 -27.42,27.43 0,15.14 12.28,27.42 27.42,27.42 15.15,0 27.43,-12.28 27.43,-27.42zm158.33 0.54c0,-15.14 -12.28,-27.42 -27.42,-27.42 -15.15,0 -27.43,12.28 -27.43,27.42 0,15.15 12.28,27.43 27.43,27.43 15.14,0 27.42,-12.28 27.42,-27.43zm-52.77 -86.86c0,-15.14 -12.28,-27.42 -27.43,-27.42 -15.15,0 -27.43,12.28 -27.43,27.42 0,15.15 12.28,27.43 27.43,27.43 15.15,0 27.43,-12.28 27.43,-27.43zm23.09 -111.05c0,-15.14 -12.28,-27.42 -27.43,-27.42 -15.15,0 -27.43,12.28 -27.43,27.42 0,15.15 12.28,27.43 27.43,27.43 15.15,0 27.43,-12.28 27.43,-27.43zm117.64 57.18c0,-15.15 -12.28,-27.43 -27.42,-27.43 -15.15,0 -27.43,12.28 -27.43,27.43 0,15.15 12.28,27.42 27.43,27.42 15.14,0 27.42,-12.27 27.42,-27.42zm111.05 38.48c0,-15.15 -12.28,-27.43 -27.43,-27.43 -15.14,0 -27.42,12.28 -27.42,27.43 0,15.15 12.28,27.43 27.42,27.43 15.15,0 27.43,-12.28 27.43,-27.43zm-45.08 103.35c0,-15.14 -12.28,-27.42 -27.43,-27.42 -15.14,0 -27.42,12.28 -27.42,27.42 0,15.15 12.28,27.43 27.42,27.43 15.15,0 27.43,-12.28 27.43,-27.43zm150.63 -10.99c0,-15.15 -12.28,-27.43 -27.42,-27.43 -15.15,0 -27.43,12.28 -27.43,27.43 0,15.15 12.28,27.43 27.43,27.43 15.14,0 27.42,-12.28 27.42,-27.43zm-7.69 -142.94c0,-15.14 -12.28,-27.42 -27.43,-27.42 -15.15,0 -27.43,12.28 -27.43,27.42 0,15.15 12.28,27.43 27.43,27.43 15.15,0 27.43,-12.28 27.43,-27.43zm-90.16 -71.46c0,-15.15 -12.28,-27.43 -27.43,-27.43 -15.15,0 -27.43,12.28 -27.43,27.43 0,15.14 12.28,27.42 27.43,27.42 15.15,0 27.43,-12.28 27.43,-27.42zm-123.15 -29.69c0,-15.15 -12.27,-27.43 -27.42,-27.43 -15.15,0 -27.43,12.28 -27.43,27.43 0,15.15 12.28,27.43 27.43,27.43 15.15,0 27.42,-12.28 27.42,-27.43zm-42.88 -115.45c0,-15.15 -12.28,-27.43 -27.42,-27.43 -15.15,0 -27.43,12.28 -27.43,27.43 0,15.15 12.28,27.43 27.43,27.43 15.14,0 27.42,-12.28 27.42,-27.43zm139.64 41.78c0,-15.14 -12.28,-27.42 -27.43,-27.42 -15.14,0 -27.42,12.28 -27.42,27.42 0,15.15 12.28,27.43 27.42,27.43 15.15,0 27.43,-12.28 27.43,-27.43zm-20.89 -115.45c0,-15.14 -12.28,-27.42 -27.43,-27.42 -15.15,0 -27.42,12.28 -27.42,27.42 0,15.15 12.27,27.43 27.42,27.43 15.15,0 27.43,-12.28 27.43,-27.43zm20.89 -104.45c0,-15.14 -12.28,-27.42 -27.43,-27.42 -15.14,0 -27.42,12.28 -27.42,27.42 0,15.15 12.28,27.43 27.42,27.43 15.15,0 27.43,-12.28 27.43,-27.43zm113.25 -7.69c0,-15.15 -12.28,-27.43 -27.43,-27.43 -15.14,0 -27.42,12.28 -27.42,27.43 0,15.14 12.28,27.42 27.42,27.42 15.15,0 27.43,-12.28 27.43,-27.42zm-12.1 186.91c0,-15.15 -12.28,-27.43 -27.42,-27.43 -15.15,0 -27.43,12.28 -27.43,27.43 0,15.15 12.28,27.43 27.43,27.43 15.14,0 27.42,-12.28 27.42,-27.43zm82.47 -74.77c0,-15.14 -12.28,-27.42 -27.43,-27.42 -15.15,0 -27.43,12.28 -27.43,27.42 0,15.15 12.28,27.43 27.43,27.43 15.15,0 27.43,-12.28 27.43,-27.43zm98.95 -61.57c0,-15.14 -12.28,-27.42 -27.43,-27.42 -15.14,0 -27.42,12.28 -27.42,27.42 0,15.15 12.28,27.43 27.42,27.43 15.15,0 27.43,-12.28 27.43,-27.43zm79.16 76.97c0,-15.15 -12.27,-27.43 -27.42,-27.43 -15.15,0 -27.43,12.28 -27.43,27.43 0,15.15 12.28,27.43 27.43,27.43 15.15,0 27.42,-12.28 27.42,-27.43zm-97.85 83.56c0,-15.15 -12.28,-27.43 -27.43,-27.43 -15.14,0 -27.42,12.28 -27.42,27.43 0,15.15 12.28,27.43 27.42,27.43 15.15,0 27.43,-12.28 27.43,-27.43zm-34.09 141.84c0,-15.15 -12.27,-27.43 -27.42,-27.43 -15.15,0 -27.43,12.28 -27.43,27.43 0,15.14 12.28,27.42 27.43,27.42 15.15,0 27.42,-12.28 27.42,-27.42zm-97.85 -56.08c0,-15.15 -12.28,-27.43 -27.43,-27.43 -15.14,0 -27.42,12.28 -27.42,27.43 0,15.15 12.28,27.43 27.42,27.43 15.15,0 27.43,-12.28 27.43,-27.43zm-70.37 -431c0,-15.15 -12.28,-27.43 -27.42,-27.43 -15.15,0 -27.43,12.28 -27.43,27.43 0,15.14 12.28,27.42 27.43,27.42 15.14,0 27.42,-12.28 27.42,-27.42zm112.15 46.17c0,-15.14 -12.28,-27.42 -27.43,-27.42 -15.14,0 -27.42,12.28 -27.42,27.42 0,15.15 12.28,27.43 27.42,27.43 15.15,0 27.43,-12.28 27.43,-27.43zm-7.7 -145.13c0,-15.15 -12.28,-27.42 -27.42,-27.42 -15.15,0 -27.43,12.27 -27.43,27.42 0,15.15 12.28,27.43 27.43,27.43 15.14,0 27.42,-12.28 27.42,-27.43zm76.97 -73.66c0,-15.15 -12.28,-27.43 -27.43,-27.43 -15.14,0 -27.42,12.28 -27.42,27.43 0,15.14 12.28,27.42 27.42,27.42 15.15,0 27.43,-12.28 27.43,-27.42zm20.89 130.84c0,-15.15 -12.28,-27.43 -27.43,-27.43 -15.15,0 -27.42,12.28 -27.42,27.43 0,15.14 12.27,27.42 27.42,27.42 15.15,0 27.43,-12.28 27.43,-27.42zm10.99 116.54c0,-15.15 -12.27,-27.42 -27.42,-27.42 -15.15,0 -27.43,12.27 -27.43,27.42 0,15.15 12.28,27.43 27.43,27.43 15.15,0 27.42,-12.28 27.42,-27.43zm130.85 -38.48c0,-15.15 -12.28,-27.43 -27.43,-27.43 -15.15,0 -27.43,12.28 -27.43,27.43 0,15.15 12.28,27.43 27.43,27.43 15.15,0 27.43,-12.28 27.43,-27.43zm25.28 115.45c0,-15.15 -12.28,-27.43 -27.42,-27.43 -15.15,0 -27.43,12.28 -27.43,27.43 0,15.15 12.28,27.43 27.43,27.43 15.14,0 27.42,-12.28 27.42,-27.43zm108.85 -98.96c0,-15.15 -12.28,-27.42 -27.42,-27.42 -15.15,0 -27.43,12.27 -27.43,27.42 0,15.15 12.28,27.43 27.43,27.43 15.14,0 27.42,-12.28 27.42,-27.43zm-117.64 -152.83c0,-15.15 -12.28,-27.43 -27.43,-27.43 -15.15,0 -27.43,12.28 -27.43,27.43 0,15.15 12.28,27.43 27.43,27.43 15.15,0 27.43,-12.28 27.43,-27.43zm59.37 -84.66c0,-15.15 -12.28,-27.43 -27.43,-27.43 -15.14,0 -27.42,12.28 -27.42,27.43 0,15.15 12.28,27.43 27.42,27.43 15.15,0 27.43,-12.28 27.43,-27.43zm-131.94 -100.05c0,-15.15 -12.28,-27.43 -27.43,-27.43 -15.14,0 -27.42,12.28 -27.42,27.43 0,15.14 12.28,27.42 27.42,27.42 15.15,0 27.43,-12.28 27.43,-27.42zm-27.49 -117.65c0,-15.15 -12.28,-27.43 -27.42,-27.43 -15.15,0 -27.43,12.28 -27.43,27.43 0,15.15 12.28,27.43 27.43,27.43 15.14,0 27.42,-12.28 27.42,-27.43zm144.04 30.78c0,-15.14 -12.28,-27.42 -27.43,-27.42 -15.15,0 -27.43,12.28 -27.43,27.42 0,15.15 12.28,27.43 27.43,27.43 15.15,0 27.43,-12.28 27.43,-27.43zm113.25 73.67c0,-15.15 -12.28,-27.43 -27.43,-27.43 -15.15,0 -27.43,12.28 -27.43,27.43 0,15.15 12.28,27.43 27.43,27.43 15.15,0 27.43,-12.28 27.43,-27.43zm122.04 35.19c0,-15.15 -12.28,-27.43 -27.43,-27.43 -15.14,0 -27.42,12.28 -27.42,27.43 0,15.14 12.28,27.42 27.42,27.42 15.15,0 27.43,-12.28 27.43,-27.42zm0 -122.05c0,-15.15 -12.28,-27.43 -27.43,-27.43 -15.14,0 -27.42,12.28 -27.42,27.43 0,15.15 12.28,27.43 27.42,27.43 15.15,0 27.43,-12.28 27.43,-27.43zm-271.58 -97.85c0,-15.15 -12.28,-27.43 -27.42,-27.43 -15.15,0 -27.43,12.28 -27.43,27.43 0,15.14 12.28,27.42 27.43,27.42 15.14,0 27.42,-12.28 27.42,-27.42zm215.51 356.23c0,-15.14 -12.28,-27.42 -27.43,-27.42 -15.15,0 -27.43,12.28 -27.43,27.42 0,15.15 12.28,27.43 27.43,27.43 15.15,0 27.43,-12.28 27.43,-27.43zm-38.49 87.96c0,-15.14 -12.28,-27.42 -27.42,-27.42 -15.15,0 -27.43,12.28 -27.43,27.42 0,15.15 12.28,27.43 27.43,27.43 15.14,0 27.42,-12.28 27.42,-27.43zm144.04 -30.78c0,-15.15 -12.28,-27.43 -27.43,-27.43 -15.15,0 -27.43,12.28 -27.43,27.43 0,15.15 12.28,27.42 27.43,27.42 15.15,0 27.43,-12.27 27.43,-27.42zm-159.43 -399.12c0,-15.15 -12.28,-27.43 -27.43,-27.43 -15.14,0 -27.42,12.28 -27.42,27.43 0,15.15 12.28,27.43 27.42,27.43 15.15,0 27.43,-12.28 27.43,-27.43zm239.69 56.07c0,-15.14 -12.28,-27.42 -27.43,-27.42 -15.14,0 -27.42,12.28 -27.42,27.42 0,15.15 12.28,27.43 27.42,27.43 15.15,0 27.43,-12.28 27.43,-27.43zm9.9 123.15c0,-15.15 -12.28,-27.43 -27.43,-27.43 -15.15,0 -27.43,12.28 -27.43,27.43 0,15.15 12.28,27.42 27.43,27.42 15.15,0 27.43,-12.27 27.43,-27.42zm-4.4 118.74c0,-15.14 -12.28,-27.42 -27.43,-27.42 -15.15,0 -27.43,12.28 -27.43,27.42 0,15.15 12.28,27.43 27.43,27.43 15.15,0 27.43,-12.28 27.43,-27.43zm79.16 73.67c0,-15.15 -12.28,-27.43 -27.43,-27.43 -15.14,0 -27.42,12.28 -27.42,27.43 0,15.15 12.28,27.43 27.42,27.43 15.15,0 27.43,-12.28 27.43,-27.43zm-68.17 94.56c0,-15.15 -12.28,-27.43 -27.42,-27.43 -15.15,0 -27.43,12.28 -27.43,27.43 0,15.14 12.28,27.42 27.43,27.42 15.14,0 27.42,-12.28 27.42,-27.42zm126.45 -206.71c0,-15.15 -12.28,-27.43 -27.43,-27.43 -15.15,0 -27.43,12.28 -27.43,27.43 0,15.15 12.28,27.43 27.43,27.43 15.15,0 27.43,-12.28 27.43,-27.43zm-2.2 -139.64c0,-15.14 -12.28,-27.42 -27.43,-27.42 -15.15,0 -27.43,12.28 -27.43,27.42 0,15.15 12.28,27.43 27.43,27.43 15.15,0 27.43,-12.28 27.43,-27.43zm27.48 -97.85c0,-15.15 -12.28,-27.43 -27.42,-27.43 -15.15,0 -27.43,12.28 -27.43,27.43 0,15.15 12.28,27.43 27.43,27.43 15.14,0 27.42,-12.28 27.42,-27.43zm138.54 4.4c0,-15.15 -12.28,-27.43 -27.43,-27.43 -15.14,0 -27.42,12.28 -27.42,27.43 0,15.14 12.28,27.42 27.42,27.42 15.15,0 27.43,-12.28 27.43,-27.42zm-51.68 117.64c0,-15.14 -12.27,-27.42 -27.42,-27.42 -15.15,0 -27.43,12.28 -27.43,27.42 0,15.15 12.28,27.43 27.43,27.43 15.15,0 27.42,-12.28 27.42,-27.43zm-172.62 -203.4c0,-15.15 -12.28,-27.43 -27.42,-27.43 -15.15,0 -27.43,12.28 -27.43,27.43 0,15.14 12.28,27.42 27.43,27.42 15.14,0 27.42,-12.28 27.42,-27.42zm191.32 -7.7c0,-15.15 -12.28,-27.43 -27.43,-27.43 -15.15,0 -27.43,12.28 -27.43,27.43 0,15.15 12.28,27.42 27.43,27.42 15.15,0 27.43,-12.27 27.43,-27.42zm122.04 -14.3c0,-15.14 -12.28,-27.42 -27.43,-27.42 -15.14,0 -27.42,12.28 -27.42,27.42 0,15.15 12.28,27.43 27.42,27.43 15.15,0 27.43,-12.28 27.43,-27.43zm-425.51 -15.39c0,-15.15 -12.27,-27.42 -27.42,-27.42 -15.15,0 -27.43,12.27 -27.43,27.42 0,15.15 12.28,27.43 27.43,27.43 15.15,0 27.42,-12.28 27.42,-27.43zm-129.74 1.1c0,-15.15 -12.28,-27.43 -27.42,-27.43 -15.15,0 -27.43,12.28 -27.43,27.43 0,15.15 12.28,27.43 27.43,27.43 15.14,0 27.42,-12.28 27.42,-27.43zm337.55 -51.67c0,-15.15 -12.28,-27.43 -27.43,-27.43 -15.14,0 -27.42,12.28 -27.42,27.43 0,15.14 12.28,27.42 27.42,27.42 15.15,0 27.43,-12.28 27.43,-27.42zm296.86 -2.2c0,-15.15 -12.27,-27.43 -27.42,-27.43 -15.15,0 -27.43,12.28 -27.43,27.43 0,15.14 12.28,27.42 27.43,27.42 15.15,0 27.42,-12.28 27.42,-27.42zm-664.09 -47.28c0,-15.15 -12.28,-27.43 -27.43,-27.43 -15.15,0 -27.43,12.28 -27.43,27.43 0,15.14 12.28,27.42 27.43,27.42 15.15,0 27.43,-12.28 27.43,-27.42zm115.45 -68.17c0,-15.15 -12.28,-27.43 -27.43,-27.43 -15.15,0 -27.43,12.28 -27.43,27.43 0,15.15 12.28,27.42 27.43,27.42 15.15,0 27.43,-12.27 27.43,-27.42zm-117.65 -67.07c0,-15.15 -12.28,-27.43 -27.43,-27.43 -15.15,0 -27.42,12.28 -27.42,27.43 0,15.15 12.27,27.43 27.42,27.43 15.15,0 27.43,-12.28 27.43,-27.43zm228.69 111.05c0,-15.15 -12.28,-27.43 -27.42,-27.43 -15.15,0 -27.43,12.28 -27.43,27.43 0,15.15 12.28,27.43 27.43,27.43 15.14,0 27.42,-12.28 27.42,-27.43zm84.67 -70.37c0,-15.15 -12.28,-27.43 -27.43,-27.43 -15.15,0 -27.43,12.28 -27.43,27.43 0,15.15 12.28,27.43 27.43,27.43 15.15,0 27.43,-12.28 27.43,-27.43zm-92.36 -97.86c0,-15.14 -12.28,-27.42 -27.43,-27.42 -15.15,0 -27.43,12.28 -27.43,27.42 0,15.15 12.28,27.43 27.43,27.43 15.15,0 27.43,-12.28 27.43,-27.43zm-173.72 -57.17c0,-15.15 -12.28,-27.43 -27.43,-27.43 -15.15,0 -27.43,12.28 -27.43,27.43 0,15.15 12.28,27.43 27.43,27.43 15.15,0 27.43,-12.28 27.43,-27.43zm54.97 -142.94c0,-15.14 -12.28,-27.42 -27.43,-27.42 -15.14,0 -27.42,12.28 -27.42,27.42 0,15.15 12.28,27.43 27.42,27.43 15.15,0 27.43,-12.28 27.43,-27.43zm126.44 41.79c0,-15.15 -12.28,-27.43 -27.42,-27.43 -15.15,0 -27.43,12.28 -27.43,27.43 0,15.14 12.28,27.42 27.43,27.42 15.14,0 27.42,-12.28 27.42,-27.42zm112.15 79.16c0,-15.15 -12.28,-27.43 -27.42,-27.43 -15.15,0 -27.43,12.28 -27.43,27.43 0,15.15 12.28,27.43 27.43,27.43 15.14,0 27.42,-12.28 27.42,-27.43zm72.57 106.65c0,-15.14 -12.28,-27.42 -27.43,-27.42 -15.14,0 -27.42,12.28 -27.42,27.42 0,15.15 12.28,27.43 27.42,27.43 15.15,0 27.43,-12.28 27.43,-27.43zm122.05 49.48c0,-15.15 -12.28,-27.43 -27.43,-27.43 -15.15,0 -27.43,12.28 -27.43,27.43 0,15.15 12.28,27.43 27.43,27.43 15.15,0 27.43,-12.28 27.43,-27.43zm-92.36 72.57c0,-15.15 -12.28,-27.43 -27.43,-27.43 -15.15,0 -27.43,12.28 -27.43,27.43 0,15.14 12.28,27.42 27.43,27.42 15.15,0 27.43,-12.28 27.43,-27.42zm115.44 43.98c0,-15.15 -12.28,-27.43 -27.42,-27.43 -15.15,0 -27.43,12.28 -27.43,27.43 0,15.14 12.28,27.42 27.43,27.42 15.14,0 27.42,-12.28 27.42,-27.42zm72.57 -130.84c0,-15.15 -12.28,-27.43 -27.42,-27.43 -15.15,0 -27.43,12.28 -27.43,27.43 0,15.14 12.28,27.42 27.43,27.42 15.14,0 27.42,-12.28 27.42,-27.42zm-98.95 -92.36c0,-15.15 -12.28,-27.43 -27.43,-27.43 -15.15,0 -27.43,12.28 -27.43,27.43 0,15.15 12.28,27.43 27.43,27.43 15.15,0 27.43,-12.28 27.43,-27.43zm0 -115.45c0,-15.15 -12.28,-27.43 -27.43,-27.43 -15.15,0 -27.43,12.28 -27.43,27.43 0,15.15 12.28,27.43 27.43,27.43 15.15,0 27.43,-12.28 27.43,-27.43zm-158.33 -52.78c0,-15.14 -12.28,-27.42 -27.43,-27.42 -15.15,0 -27.43,12.28 -27.43,27.42 0,15.15 12.28,27.43 27.43,27.43 15.15,0 27.43,-12.28 27.43,-27.43zm-147.34 -86.86c0,-15.14 -12.27,-27.42 -27.42,-27.42 -15.15,0 -27.43,12.28 -27.43,27.42 0,15.15 12.28,27.43 27.43,27.43 15.15,0 27.42,-12.28 27.42,-27.43zm-125.34 -68.17c0,-15.14 -12.28,-27.42 -27.42,-27.42 -15.15,0 -27.43,12.28 -27.43,27.42 0,15.15 12.28,27.43 27.43,27.43 15.14,0 27.42,-12.28 27.42,-27.43zm52.78 -112.15c0,-15.14 -12.28,-27.42 -27.43,-27.42 -15.15,0 -27.43,12.28 -27.43,27.42 0,15.15 12.28,27.43 27.43,27.43 15.15,0 27.43,-12.28 27.43,-27.43zm120.94 38.49c0,-15.15 -12.28,-27.43 -27.42,-27.43 -15.15,0 -27.43,12.28 -27.43,27.43 0,15.14 12.28,27.42 27.43,27.42 15.14,0 27.42,-12.28 27.42,-27.42zm50.58 97.85c0,-15.14 -12.28,-27.42 -27.43,-27.42 -15.14,0 -27.42,12.28 -27.42,27.42 0,15.15 12.28,27.43 27.42,27.43 15.15,0 27.43,-12.28 27.43,-27.43zm116.55 7.7c0,-15.15 -12.28,-27.43 -27.43,-27.43 -15.15,0 -27.43,12.28 -27.43,27.43 0,15.15 12.28,27.43 27.43,27.43 15.15,0 27.43,-12.28 27.43,-27.43zm-38.49 -119.85c0,-15.14 -12.28,-27.42 -27.42,-27.42 -15.15,0 -27.43,12.28 -27.43,27.42 0,15.15 12.28,27.43 27.43,27.43 15.14,0 27.42,-12.28 27.42,-27.43zm147.34 2.2c0,-15.14 -12.28,-27.42 -27.43,-27.42 -15.15,0 -27.43,12.28 -27.43,27.42 0,15.15 12.28,27.43 27.43,27.43 15.15,0 27.43,-12.28 27.43,-27.43zm1.1 145.14c0,-15.15 -12.28,-27.43 -27.43,-27.43 -15.15,0 -27.43,12.28 -27.43,27.43 0,15.14 12.28,27.42 27.43,27.42 15.15,0 27.43,-12.28 27.43,-27.42zm145.13 -29.69c0,-15.15 -12.28,-27.43 -27.43,-27.43 -15.14,0 -27.42,12.28 -27.42,27.43 0,15.15 12.28,27.43 27.42,27.43 15.15,0 27.43,-12.28 27.43,-27.43zm-67.07 100.06c0,-15.15 -12.28,-27.43 -27.43,-27.43 -15.14,0 -27.42,12.28 -27.42,27.43 0,15.14 12.28,27.42 27.42,27.42 15.15,0 27.43,-12.28 27.43,-27.42zm93.46 40.68c0,-15.15 -12.28,-27.43 -27.43,-27.43 -15.15,0 -27.42,12.28 -27.42,27.43 0,15.15 12.27,27.42 27.42,27.42 15.15,0 27.43,-12.27 27.43,-27.42zm-87.96 87.96c0,-15.15 -12.28,-27.43 -27.43,-27.43 -15.15,0 -27.43,12.28 -27.43,27.43 0,15.15 12.28,27.42 27.43,27.42 15.15,0 27.43,-12.27 27.43,-27.42zm105.55 45.08c0,-15.15 -12.28,-27.43 -27.42,-27.43 -15.15,0 -27.43,12.28 -27.43,27.43 0,15.15 12.28,27.42 27.43,27.42 15.14,0 27.42,-12.27 27.42,-27.42zm15.39 115.44c0,-15.14 -12.28,-27.42 -27.42,-27.42 -15.15,0 -27.43,12.28 -27.43,27.42 0,15.15 12.28,27.43 27.43,27.43 15.14,0 27.42,-12.28 27.42,-27.43zm-59.37 80.27c0,-15.15 -12.28,-27.43 -27.43,-27.43 -15.14,0 -27.42,12.28 -27.42,27.43 0,15.15 12.28,27.43 27.42,27.43 15.15,0 27.43,-12.28 27.43,-27.43zm105.55 49.48c0,-15.15 -12.28,-27.43 -27.42,-27.43 -15.15,0 -27.43,12.28 -27.43,27.43 0,15.14 12.28,27.42 27.43,27.42 15.14,0 27.42,-12.28 27.42,-27.42zm67.07 -87.97c0,-15.14 -12.28,-27.42 -27.42,-27.42 -15.15,0 -27.43,12.28 -27.43,27.42 0,15.15 12.28,27.43 27.43,27.43 15.14,0 27.42,-12.28 27.42,-27.43zm-4.39 -130.83c0,-15.15 -12.28,-27.43 -27.43,-27.43 -15.15,0 -27.43,12.28 -27.43,27.43 0,15.14 12.28,27.42 27.43,27.42 15.15,0 27.43,-12.28 27.43,-27.42zm-13.2 -104.46c0,-15.14 -12.28,-27.42 -27.43,-27.42 -15.14,0 -27.42,12.28 -27.42,27.42 0,15.15 12.28,27.43 27.42,27.43 15.15,0 27.43,-12.28 27.43,-27.43zm-12.09 -115.45c0,-15.14 -12.28,-27.42 -27.43,-27.42 -15.15,0 -27.43,12.28 -27.43,27.42 0,15.15 12.28,27.43 27.43,27.43 15.15,0 27.43,-12.28 27.43,-27.43zm36.28 -108.85c0,-15.14 -12.28,-27.42 -27.43,-27.42 -15.14,0 -27.42,12.28 -27.42,27.42 0,15.15 12.28,27.43 27.42,27.43 15.15,0 27.43,-12.28 27.43,-27.43zm-81.36 -107.75c0,-15.14 -12.28,-27.42 -27.43,-27.42 -15.15,0 -27.43,12.28 -27.43,27.42 0,15.15 12.28,27.43 27.43,27.43 15.15,0 27.43,-12.28 27.43,-27.43zm-136.34 -13.19c0,-15.15 -12.28,-27.43 -27.43,-27.43 -15.15,0 -27.43,12.28 -27.43,27.43 0,15.15 12.28,27.43 27.43,27.43 15.15,0 27.43,-12.28 27.43,-27.43zm337.54 158.33c0,-15.15 -12.27,-27.43 -27.42,-27.43 -15.15,0 -27.43,12.28 -27.43,27.43 0,15.14 12.28,27.42 27.43,27.42 15.15,0 27.42,-12.28 27.42,-27.42zm15.4 107.75c0,-15.15 -12.28,-27.43 -27.43,-27.43 -15.15,0 -27.43,12.28 -27.43,27.43 0,15.15 12.28,27.43 27.43,27.43 15.15,0 27.43,-12.28 27.43,-27.43zm-42.88 104.45c0,-15.15 -12.28,-27.43 -27.43,-27.43 -15.15,0 -27.43,12.28 -27.43,27.43 0,15.15 12.28,27.43 27.43,27.43 15.15,0 27.43,-12.28 27.43,-27.43zm-13.2 122.05c0,-15.15 -12.28,-27.43 -27.42,-27.43 -15.15,0 -27.43,12.28 -27.43,27.43 0,15.14 12.28,27.42 27.43,27.42 15.14,0 27.42,-12.28 27.42,-27.42zm72.57 62.67c0,-15.15 -12.28,-27.43 -27.43,-27.43 -15.14,0 -27.42,12.28 -27.42,27.43 0,15.14 12.28,27.42 27.42,27.42 15.15,0 27.43,-12.28 27.43,-27.42zm56.07 -106.65c0,-15.15 -12.27,-27.43 -27.42,-27.43 -15.15,0 -27.43,12.28 -27.43,27.43 0,15.14 12.28,27.42 27.43,27.42 15.15,0 27.42,-12.28 27.42,-27.42zm-128.64 191.31c0,-15.15 -12.28,-27.43 -27.42,-27.43 -15.15,0 -27.43,12.28 -27.43,27.43 0,15.15 12.28,27.43 27.43,27.43 15.14,0 27.42,-12.28 27.42,-27.43zm117.65 49.48c0,-15.15 -12.28,-27.43 -27.43,-27.43 -15.14,0 -27.42,12.28 -27.42,27.43 0,15.14 12.28,27.42 27.42,27.42 15.15,0 27.43,-12.28 27.43,-27.42zm-1184.16 -101.16c0,-15.14 -12.28,-27.42 -27.43,-27.42 -15.14,0 -27.42,12.28 -27.42,27.42 0,15.15 12.28,27.43 27.42,27.43 15.15,0 27.43,-12.28 27.43,-27.43zm47.28 -167.12c0,-15.15 -12.28,-27.43 -27.43,-27.43 -15.15,0 -27.42,12.28 -27.42,27.43 0,15.15 12.27,27.43 27.42,27.43 15.15,0 27.43,-12.28 27.43,-27.43zm-47.28 305.66c0,-15.15 -12.28,-27.43 -27.43,-27.43 -15.14,0 -27.42,12.28 -27.42,27.43 0,15.15 12.28,27.43 27.42,27.43 15.15,0 27.43,-12.28 27.43,-27.43zm-115.45 -4.4c0,-15.15 -12.28,-27.43 -27.42,-27.43 -15.15,0 -27.43,12.28 -27.43,27.43 0,15.15 12.28,27.43 27.43,27.43 15.14,0 27.42,-12.28 27.42,-27.43zm1360.08 -144.03c0,-15.15 -12.28,-27.43 -27.42,-27.43 -15.15,0 -27.43,12.28 -27.43,27.43 0,15.14 12.28,27.42 27.43,27.42 15.14,0 27.42,-12.28 27.42,-27.42zm56.08 -93.46c0,-15.15 -12.28,-27.43 -27.43,-27.43 -15.15,0 -27.43,12.28 -27.43,27.43 0,15.15 12.28,27.43 27.43,27.43 15.15,0 27.43,-12.28 27.43,-27.43zm-41.78 -125.34c0,-15.15 -12.28,-27.43 -27.43,-27.43 -15.15,0 -27.43,12.28 -27.43,27.43 0,15.15 12.28,27.42 27.43,27.42 15.15,0 27.43,-12.27 27.43,-27.42zm141.83 26.39c0,-15.15 -12.28,-27.43 -27.43,-27.43 -15.14,0 -27.42,12.28 -27.42,27.43 0,15.14 12.28,27.42 27.42,27.42 15.15,0 27.43,-12.28 27.43,-27.42zm92.36 68.16c0,-15.14 -12.28,-27.42 -27.43,-27.42 -15.14,0 -27.42,12.28 -27.42,27.42 0,15.15 12.28,27.43 27.42,27.43 15.15,0 27.43,-12.28 27.43,-27.43zm104.45 -13.19c0,-15.15 -12.28,-27.43 -27.43,-27.43 -15.14,0 -27.42,12.28 -27.42,27.43 0,15.15 12.28,27.43 27.42,27.43 15.15,0 27.43,-12.28 27.43,-27.43zm-30.78 108.85c0,-15.15 -12.28,-27.43 -27.43,-27.43 -15.15,0 -27.43,12.28 -27.43,27.43 0,15.15 12.28,27.43 27.43,27.43 15.15,0 27.43,-12.28 27.43,-27.43zm-157.23 -16.49c0,-15.15 -12.28,-27.43 -27.43,-27.43 -15.15,0 -27.43,12.28 -27.43,27.43 0,15.15 12.28,27.42 27.43,27.42 15.15,0 27.43,-12.27 27.43,-27.42zm-52.78 87.96c0,-15.15 -12.28,-27.43 -27.42,-27.43 -15.15,0 -27.43,12.28 -27.43,27.43 0,15.15 12.28,27.42 27.43,27.42 15.14,0 27.42,-12.27 27.42,-27.42zm-58.27 112.15c0,-15.15 -12.28,-27.43 -27.43,-27.43 -15.15,0 -27.43,12.28 -27.43,27.43 0,15.14 12.28,27.42 27.43,27.42 15.15,0 27.43,-12.28 27.43,-27.42zm115.44 -15.4c0,-15.14 -12.27,-27.42 -27.42,-27.42 -15.15,0 -27.43,12.28 -27.43,27.42 0,15.15 12.28,27.43 27.43,27.43 15.15,0 27.42,-12.28 27.42,-27.43zm41.79 -84.66c0,-15.14 -12.28,-27.42 -27.43,-27.42 -15.15,0 -27.43,12.28 -27.43,27.42 0,15.15 12.28,27.43 27.43,27.43 15.15,0 27.43,-12.28 27.43,-27.43zm111.05 9.9c0,-15.15 -12.28,-27.43 -27.43,-27.43 -15.15,0 -27.43,12.28 -27.43,27.43 0,15.15 12.28,27.42 27.43,27.42 15.15,0 27.43,-12.27 27.43,-27.42zm-93.46 159.43c0,-15.15 -12.28,-27.43 -27.43,-27.43 -15.15,0 -27.43,12.28 -27.43,27.43 0,15.14 12.28,27.42 27.43,27.42 15.15,0 27.43,-12.28 27.43,-27.42zm-100.06 27.48c0,-15.14 -12.28,-27.42 -27.42,-27.42 -15.15,0 -27.43,12.28 -27.43,27.42 0,15.15 12.28,27.43 27.43,27.43 15.14,0 27.42,-12.28 27.42,-27.43zm191.32 37.39c0,-15.15 -12.28,-27.43 -27.43,-27.43 -15.15,0 -27.43,12.28 -27.43,27.43 0,15.14 12.28,27.42 27.43,27.42 15.15,0 27.43,-12.28 27.43,-27.42zm19.79 -122.05c0,-15.15 -12.28,-27.43 -27.43,-27.43 -15.15,0 -27.43,12.28 -27.43,27.43 0,15.15 12.28,27.43 27.43,27.43 15.15,0 27.43,-12.28 27.43,-27.43zm133.04 -57.17c0,-15.15 -12.28,-27.43 -27.43,-27.43 -15.15,0 -27.43,12.28 -27.43,27.43 0,15.14 12.28,27.42 27.43,27.42 15.15,0 27.43,-12.28 27.43,-27.42zm79.16 73.66c0,-15.14 -12.28,-27.42 -27.43,-27.42 -15.14,0 -27.42,12.28 -27.42,27.42 0,15.15 12.28,27.43 27.42,27.43 15.15,0 27.43,-12.28 27.43,-27.43zm-128.64 48.38c0,-15.15 -12.28,-27.42 -27.43,-27.42 -15.14,0 -27.42,12.27 -27.42,27.42 0,15.15 12.28,27.43 27.42,27.43 15.15,0 27.43,-12.28 27.43,-27.43zm79.16 69.27c0,-15.15 -12.28,-27.43 -27.42,-27.43 -15.15,0 -27.43,12.28 -27.43,27.43 0,15.15 12.28,27.43 27.43,27.43 15.14,0 27.42,-12.28 27.42,-27.43zm96.76 32.99c0,-15.15 -12.28,-27.43 -27.43,-27.43 -15.15,0 -27.42,12.28 -27.42,27.43 0,15.14 12.27,27.42 27.42,27.42 15.15,0 27.43,-12.28 27.43,-27.42zm-593.73 -661.9c0,-15.15 -12.28,-27.43 -27.43,-27.43 -15.14,0 -27.42,12.28 -27.42,27.43 0,15.14 12.28,27.42 27.42,27.42 15.15,0 27.43,-12.28 27.43,-27.42zm133.04 21.99c0,-15.15 -12.28,-27.43 -27.43,-27.43 -15.14,0 -27.42,12.28 -27.42,27.43 0,15.14 12.28,27.42 27.42,27.42 15.15,0 27.43,-12.28 27.43,-27.42zm120.94 -26.39c0,-15.15 -12.28,-27.43 -27.42,-27.43 -15.15,0 -27.43,12.28 -27.43,27.43 0,15.15 12.28,27.43 27.43,27.43 15.14,0 27.42,-12.28 27.42,-27.43zm-38.48 666.29c0,-15.14 -12.28,-27.42 -27.43,-27.42 -15.14,0 -27.42,12.28 -27.42,27.42 0,15.15 12.28,27.43 27.42,27.43 15.15,0 27.43,-12.28 27.43,-27.43zm113.25 71.47c0,-15.15 -12.28,-27.42 -27.43,-27.42 -15.14,0 -27.42,12.27 -27.42,27.42 0,15.15 12.28,27.43 27.42,27.43 15.15,0 27.43,-12.28 27.43,-27.43zm-92.36 80.27c0,-15.15 -12.28,-27.43 -27.43,-27.43 -15.14,0 -27.42,12.28 -27.42,27.43 0,15.14 12.28,27.42 27.42,27.42 15.15,0 27.43,-12.28 27.43,-27.42zm204.51 -126.45c0,-15.14 -12.28,-27.42 -27.43,-27.42 -15.15,0 -27.43,12.28 -27.43,27.42 0,15.15 12.28,27.43 27.43,27.43 15.15,0 27.43,-12.28 27.43,-27.43zm80.26 63.77c0,-15.14 -12.28,-27.42 -27.43,-27.42 -15.14,0 -27.42,12.28 -27.42,27.42 0,15.15 12.28,27.43 27.42,27.43 15.15,0 27.43,-12.28 27.43,-27.43zm-118.75 68.17c0,-15.14 -12.27,-27.42 -27.42,-27.42 -15.15,0 -27.43,12.28 -27.43,27.42 0,15.15 12.28,27.43 27.43,27.43 15.15,0 27.42,-12.28 27.42,-27.43zm-114.34 102.26c0,-15.15 -12.28,-27.43 -27.43,-27.43 -15.15,0 -27.43,12.28 -27.43,27.43 0,15.14 12.28,27.42 27.43,27.42 15.15,0 27.43,-12.28 27.43,-27.42zm-79.17 71.46c0,-15.14 -12.28,-27.42 -27.42,-27.42 -15.15,0 -27.43,12.28 -27.43,27.42 0,15.15 12.28,27.43 27.43,27.43 15.14,0 27.42,-12.28 27.42,-27.43zm-63.77 86.86c0,-15.14 -12.28,-27.42 -27.42,-27.42 -15.15,0 -27.43,12.28 -27.43,27.42 0,15.15 12.28,27.43 27.43,27.43 15.14,0 27.42,-12.28 27.42,-27.43zm107.75 54.98c0,-15.15 -12.28,-27.43 -27.42,-27.43 -15.15,0 -27.43,12.28 -27.43,27.43 0,15.15 12.28,27.43 27.43,27.43 15.14,0 27.42,-12.28 27.42,-27.43zm89.06 -67.07c0,-15.15 -12.28,-27.43 -27.42,-27.43 -15.15,0 -27.43,12.28 -27.43,27.43 0,15.15 12.28,27.43 27.43,27.43 15.14,0 27.42,-12.28 27.42,-27.43zm87.96 -134.14c0,-15.15 -12.28,-27.43 -27.42,-27.43 -15.15,0 -27.43,12.28 -27.43,27.43 0,15.15 12.28,27.43 27.43,27.43 15.14,0 27.42,-12.28 27.42,-27.43zm28.59 101.16c0,-15.15 -12.28,-27.43 -27.43,-27.43 -15.14,0 -27.42,12.28 -27.42,27.43 0,15.14 12.28,27.42 27.42,27.42 15.15,0 27.43,-12.28 27.43,-27.42zm84.66 -87.97c0,-15.14 -12.28,-27.42 -27.43,-27.42 -15.14,0 -27.42,12.28 -27.42,27.42 0,15.15 12.28,27.43 27.42,27.43 15.15,0 27.43,-12.28 27.43,-27.43zm37.38 -107.75c0,-15.14 -12.28,-27.42 -27.42,-27.42 -15.15,0 -27.43,12.28 -27.43,27.42 0,15.15 12.28,27.43 27.43,27.43 15.14,0 27.42,-12.28 27.42,-27.43zm72.57 -83.56c0,-15.15 -12.28,-27.43 -27.43,-27.43 -15.14,0 -27.42,12.28 -27.42,27.43 0,15.15 12.28,27.43 27.42,27.43 15.15,0 27.43,-12.28 27.43,-27.43zm40.68 135.24c0,-15.15 -12.28,-27.43 -27.42,-27.43 -15.15,0 -27.43,12.28 -27.43,27.43 0,15.15 12.28,27.43 27.43,27.43 15.14,0 27.42,-12.28 27.42,-27.43zm-46.18 95.66c0,-15.15 -12.28,-27.43 -27.42,-27.43 -15.15,0 -27.43,12.28 -27.43,27.43 0,15.14 12.28,27.42 27.43,27.42 15.14,0 27.42,-12.28 27.42,-27.42zm129.74 -48.38c0,-15.15 -12.28,-27.43 -27.42,-27.43 -15.15,0 -27.43,12.28 -27.43,27.43 0,15.15 12.28,27.42 27.43,27.42 15.14,0 27.42,-12.27 27.42,-27.42zm19.79 131.94c0,-15.15 -12.27,-27.43 -27.42,-27.43 -15.15,0 -27.43,12.28 -27.43,27.43 0,15.15 12.28,27.43 27.43,27.43 15.15,0 27.42,-12.28 27.42,-27.43zm-169.32 42.88c0,-15.15 -12.28,-27.43 -27.42,-27.43 -15.15,0 -27.43,12.28 -27.43,27.43 0,15.15 12.28,27.43 27.43,27.43 15.14,0 27.42,-12.28 27.42,-27.43zm-145.13 32.98c0,-15.14 -12.28,-27.42 -27.43,-27.42 -15.15,0 -27.42,12.28 -27.42,27.42 0,15.15 12.27,27.43 27.42,27.43 15.15,0 27.43,-12.28 27.43,-27.43zm-343.05 64.88c0,-15.15 -12.28,-27.43 -27.42,-27.43 -15.15,0 -27.43,12.28 -27.43,27.43 0,15.14 12.28,27.42 27.43,27.42 15.14,0 27.42,-12.28 27.42,-27.42zm-131.94 92.35c0,-15.14 -12.28,-27.42 -27.42,-27.42 -15.15,0 -27.43,12.28 -27.43,27.42 0,15.15 12.28,27.43 27.43,27.43 15.14,0 27.42,-12.28 27.42,-27.43zm-20.89 124.25c0,-15.15 -12.28,-27.43 -27.42,-27.43 -15.15,0 -27.43,12.28 -27.43,27.43 0,15.15 12.28,27.42 27.43,27.42 15.14,0 27.42,-12.27 27.42,-27.42zm-131.94 8.79c0,-15.14 -12.28,-27.42 -27.42,-27.42 -15.15,0 -27.43,12.28 -27.43,27.42 0,15.15 12.28,27.43 27.43,27.43 15.14,0 27.42,-12.28 27.42,-27.43zm138.54 151.73c0,-15.14 -12.28,-27.42 -27.43,-27.42 -15.14,0 -27.42,12.28 -27.42,27.42 0,15.15 12.28,27.43 27.42,27.43 15.15,0 27.43,-12.28 27.43,-27.43zm0 92.36c0,-15.15 -12.28,-27.43 -27.43,-27.43 -15.14,0 -27.42,12.28 -27.42,27.43 0,15.15 12.28,27.43 27.42,27.43 15.15,0 27.43,-12.28 27.43,-27.43zm-86.86 86.86c0,-15.14 -12.28,-27.42 -27.43,-27.42 -15.14,0 -27.42,12.28 -27.42,27.42 0,15.15 12.28,27.43 27.42,27.43 15.15,0 27.43,-12.28 27.43,-27.43zm157.23 3.3c0,-15.15 -12.28,-27.43 -27.43,-27.43 -15.15,0 -27.43,12.28 -27.43,27.43 0,15.15 12.28,27.43 27.43,27.43 15.15,0 27.43,-12.28 27.43,-27.43zm94.56 -70.37c0,-15.14 -12.28,-27.42 -27.43,-27.42 -15.15,0 -27.43,12.28 -27.43,27.42 0,15.15 12.28,27.43 27.43,27.43 15.15,0 27.43,-12.28 27.43,-27.43zm-39.59 -106.65c0,-15.15 -12.28,-27.43 -27.42,-27.43 -15.15,0 -27.43,12.28 -27.43,27.43 0,15.15 12.28,27.43 27.43,27.43 15.14,0 27.42,-12.28 27.42,-27.43zm-56.07 -100.05c0,-15.15 -12.28,-27.43 -27.43,-27.43 -15.14,0 -27.42,12.28 -27.42,27.43 0,15.14 12.28,27.42 27.42,27.42 15.15,0 27.43,-12.28 27.43,-27.42zm84.66 -83.57c0,-15.14 -12.28,-27.42 -27.43,-27.42 -15.14,0 -27.42,12.28 -27.42,27.42 0,15.15 12.28,27.43 27.42,27.43 15.15,0 27.43,-12.28 27.43,-27.43zm-32.98 -91.25c0,-15.15 -12.28,-27.43 -27.43,-27.43 -15.15,0 -27.43,12.28 -27.43,27.43 0,15.14 12.28,27.42 27.43,27.42 15.15,0 27.43,-12.28 27.43,-27.42zm129.74 -76.97c0,-15.15 -12.28,-27.42 -27.43,-27.42 -15.15,0 -27.43,12.27 -27.43,27.42 0,15.15 12.28,27.43 27.43,27.43 15.15,0 27.43,-12.28 27.43,-27.43zm-26.39 111.05c0,-15.15 -12.28,-27.43 -27.43,-27.43 -15.15,0 -27.42,12.28 -27.42,27.43 0,15.15 12.27,27.43 27.42,27.43 15.15,0 27.43,-12.28 27.43,-27.43zm42.88 92.36c0,-15.15 -12.28,-27.43 -27.43,-27.43 -15.14,0 -27.42,12.28 -27.42,27.43 0,15.15 12.28,27.43 27.42,27.43 15.15,0 27.43,-12.28 27.43,-27.43zm-21.99 106.65c0,-15.15 -12.28,-27.43 -27.43,-27.43 -15.14,0 -27.42,12.28 -27.42,27.43 0,15.15 12.28,27.43 27.42,27.43 15.15,0 27.43,-12.28 27.43,-27.43zm21.99 108.85c0,-15.15 -12.28,-27.43 -27.43,-27.43 -15.14,0 -27.42,12.28 -27.42,27.43 0,15.15 12.28,27.43 27.42,27.43 15.15,0 27.43,-12.28 27.43,-27.43zm-40.68 108.85c0,-15.14 -12.28,-27.42 -27.43,-27.42 -15.15,0 -27.43,12.28 -27.43,27.42 0,15.15 12.28,27.43 27.43,27.43 15.15,0 27.43,-12.28 27.43,-27.43zm157.23 1.1c0,-15.15 -12.28,-27.43 -27.43,-27.43 -15.15,0 -27.43,12.28 -27.43,27.43 0,15.15 12.28,27.43 27.43,27.43 15.15,0 27.43,-12.28 27.43,-27.43zm57.17 -69.27c0,-15.14 -12.28,-27.42 -27.43,-27.42 -15.14,0 -27.42,12.28 -27.42,27.42 0,15.15 12.28,27.43 27.42,27.43 15.15,0 27.43,-12.28 27.43,-27.43zm-73.67 -71.46c0,-15.15 -12.28,-27.43 -27.42,-27.43 -15.15,0 -27.43,12.28 -27.43,27.43 0,15.14 12.28,27.42 27.43,27.42 15.14,0 27.42,-12.28 27.42,-27.42zm-1.1 -112.15c0,-15.15 -12.28,-27.43 -27.42,-27.43 -15.15,0 -27.43,12.28 -27.43,27.43 0,15.14 12.28,27.42 27.43,27.42 15.14,0 27.42,-12.28 27.42,-27.42zm14.3 -100.06c0,-15.15 -12.28,-27.43 -27.43,-27.43 -15.15,0 -27.43,12.28 -27.43,27.43 0,15.15 12.28,27.43 27.43,27.43 15.15,0 27.43,-12.28 27.43,-27.43zm-28.59 -102.25c0,-15.15 -12.28,-27.43 -27.43,-27.43 -15.14,0 -27.42,12.28 -27.42,27.43 0,15.15 12.28,27.43 27.42,27.43 15.15,0 27.43,-12.28 27.43,-27.43zm40.68 -105.55c0,-15.15 -12.28,-27.43 -27.42,-27.43 -15.15,0 -27.43,12.28 -27.43,27.43 0,15.14 12.28,27.42 27.43,27.42 15.14,0 27.42,-12.28 27.42,-27.42zm73.67 124.24c0,-15.15 -12.28,-27.43 -27.43,-27.43 -15.15,0 -27.42,12.28 -27.42,27.43 0,15.15 12.27,27.43 27.42,27.43 15.15,0 27.43,-12.28 27.43,-27.43zm78.06 -102.25c0,-15.15 -12.28,-27.43 -27.42,-27.43 -15.15,0 -27.43,12.28 -27.43,27.43 0,15.14 12.28,27.42 27.43,27.42 15.14,0 27.42,-12.28 27.42,-27.42zm95.66 41.78c0,-15.15 -12.28,-27.43 -27.43,-27.43 -15.14,0 -27.42,12.28 -27.42,27.43 0,15.14 12.28,27.42 27.42,27.42 15.15,0 27.43,-12.28 27.43,-27.42zm-73.67 107.75c0,-15.15 -12.28,-27.43 -27.42,-27.43 -15.15,0 -27.43,12.28 -27.43,27.43 0,15.15 12.28,27.42 27.43,27.42 15.14,0 27.42,-12.27 27.42,-27.42zm-65.97 126.44c0,-15.15 -12.28,-27.43 -27.42,-27.43 -15.15,0 -27.43,12.28 -27.43,27.43 0,15.15 12.28,27.43 27.43,27.43 15.14,0 27.42,-12.28 27.42,-27.43zm21.99 112.15c0,-15.15 -12.28,-27.43 -27.42,-27.43 -15.15,0 -27.43,12.28 -27.43,27.43 0,15.15 12.28,27.43 27.43,27.43 15.14,0 27.42,-12.28 27.42,-27.43zm13.2 147.33c0,-15.14 -12.28,-27.42 -27.43,-27.42 -15.15,0 -27.43,12.28 -27.43,27.42 0,15.15 12.28,27.43 27.43,27.43 15.15,0 27.43,-12.28 27.43,-27.43zm158.32 0c0,-15.14 -12.27,-27.42 -27.42,-27.42 -15.15,0 -27.43,12.28 -27.43,27.42 0,15.15 12.28,27.43 27.43,27.43 15.15,0 27.42,-12.28 27.42,-27.43zm-52.77 -124.24c0,-15.15 -12.28,-27.43 -27.43,-27.43 -15.15,0 -27.42,12.28 -27.42,27.43 0,15.15 12.27,27.43 27.42,27.43 15.15,0 27.43,-12.28 27.43,-27.43zm-27.49 -94.56c0,-15.15 -12.28,-27.42 -27.42,-27.42 -15.15,0 -27.43,12.27 -27.43,27.42 0,15.15 12.28,27.43 27.43,27.43 15.14,0 27.42,-12.28 27.42,-27.43zm52.78 -109.95c0,-15.15 -12.28,-27.42 -27.43,-27.42 -15.15,0 -27.43,12.27 -27.43,27.42 0,15.15 12.28,27.43 27.43,27.43 15.15,0 27.43,-12.28 27.43,-27.43zm78.06 -103.35c0,-15.15 -12.28,-27.43 -27.43,-27.43 -15.14,0 -27.42,12.28 -27.42,27.43 0,15.15 12.28,27.43 27.42,27.43 15.15,0 27.43,-12.28 27.43,-27.43zm-1.1 -152.83c0,-15.15 -12.28,-27.43 -27.42,-27.43 -15.15,0 -27.43,12.28 -27.43,27.43 0,15.15 12.28,27.43 27.43,27.43 15.14,0 27.42,-12.28 27.42,-27.43zm128.64 30.78c0,-15.14 -12.27,-27.42 -27.42,-27.42 -15.15,0 -27.43,12.28 -27.43,27.42 0,15.15 12.28,27.43 27.43,27.43 15.15,0 27.42,-12.28 27.42,-27.43zm-24.19 109.95c0,-15.14 -12.28,-27.42 -27.42,-27.42 -15.15,0 -27.43,12.28 -27.43,27.42 0,15.15 12.28,27.43 27.43,27.43 15.14,0 27.42,-12.28 27.42,-27.43zm107.76 0c0,-15.14 -12.28,-27.42 -27.43,-27.42 -15.15,0 -27.43,12.28 -27.43,27.42 0,15.15 12.28,27.43 27.43,27.43 15.15,0 27.43,-12.28 27.43,-27.43zm-31.89 123.15c0,-15.15 -12.28,-27.43 -27.43,-27.43 -15.14,0 -27.42,12.28 -27.42,27.43 0,15.15 12.28,27.42 27.42,27.42 15.15,0 27.43,-12.27 27.43,-27.42zm-127.54 9.9c0,-15.15 -12.28,-27.43 -27.43,-27.43 -15.15,0 -27.43,12.28 -27.43,27.43 0,15.14 12.28,27.42 27.43,27.42 15.15,0 27.43,-12.28 27.43,-27.42zm-37.38 112.14c0,-15.14 -12.28,-27.42 -27.43,-27.42 -15.15,0 -27.43,12.28 -27.43,27.42 0,15.15 12.28,27.43 27.43,27.43 15.15,0 27.43,-12.28 27.43,-27.43zm-2.2 108.85c0,-15.14 -12.28,-27.42 -27.43,-27.42 -15.15,0 -27.43,12.28 -27.43,27.42 0,15.15 12.28,27.43 27.43,27.43 15.15,0 27.43,-12.28 27.43,-27.43zm90.16 90.16c0,-15.14 -12.28,-27.42 -27.43,-27.42 -15.15,0 -27.43,12.28 -27.43,27.42 0,15.15 12.28,27.43 27.43,27.43 15.15,0 27.43,-12.28 27.43,-27.43zm54.97 -147.33c0,-15.15 -12.28,-27.43 -27.43,-27.43 -15.14,0 -27.42,12.28 -27.42,27.43 0,15.15 12.28,27.43 27.42,27.43 15.15,0 27.43,-12.28 27.43,-27.43zm123.14 45.08c0,-15.15 -12.28,-27.43 -27.42,-27.43 -15.15,0 -27.43,12.28 -27.43,27.43 0,15.15 12.28,27.43 27.43,27.43 15.14,0 27.42,-12.28 27.42,-27.43zm-18.69 100.05c0,-15.14 -12.28,-27.42 -27.42,-27.42 -15.15,0 -27.43,12.28 -27.43,27.42 0,15.15 12.28,27.43 27.43,27.43 15.14,0 27.42,-12.28 27.42,-27.43zm49.48 -237.49c0,-15.15 -12.28,-27.43 -27.43,-27.43 -15.14,0 -27.42,12.28 -27.42,27.43 0,15.15 12.28,27.43 27.42,27.43 15.15,0 27.43,-12.28 27.43,-27.43zm82.46 101.16c0,-15.15 -12.28,-27.43 -27.43,-27.43 -15.14,0 -27.42,12.28 -27.42,27.43 0,15.14 12.28,27.42 27.42,27.42 15.15,0 27.43,-12.28 27.43,-27.42zm24.19 137.43c0,-15.14 -12.28,-27.42 -27.43,-27.42 -15.14,0 -27.42,12.28 -27.42,27.42 0,15.15 12.28,27.43 27.42,27.43 15.15,0 27.43,-12.28 27.43,-27.43zm0 0c0,-15.14 -12.28,-27.42 -27.43,-27.42 -15.14,0 -27.42,12.28 -27.42,27.42 0,15.15 12.28,27.43 27.42,27.43 15.15,0 27.43,-12.28 27.43,-27.43zm-2019.78 -2151.72c0,-15.15 -12.28,-27.43 -27.42,-27.43 -15.15,0 -27.43,12.28 -27.43,27.43 0,15.15 12.28,27.43 27.43,27.43 15.14,0 27.42,-12.28 27.42,-27.43zm70.37 85.76c0,-15.15 -12.28,-27.43 -27.43,-27.43 -15.14,0 -27.42,12.28 -27.42,27.43 0,15.15 12.28,27.43 27.42,27.43 15.15,0 27.43,-12.28 27.43,-27.43zm211.1 -68.17c0,-15.15 -12.27,-27.43 -27.42,-27.43 -15.15,0 -27.43,12.28 -27.43,27.43 0,15.15 12.28,27.43 27.43,27.43 15.15,0 27.42,-12.28 27.42,-27.43zm-58.27 -195.71c0,-15.15 -12.28,-27.43 -27.42,-27.43 -15.15,0 -27.43,12.28 -27.43,27.43 0,15.15 12.28,27.43 27.43,27.43 15.14,0 27.42,-12.28 27.42,-27.43zm-126.44 -1.1c0,-15.15 -12.28,-27.43 -27.43,-27.43 -15.15,0 -27.43,12.28 -27.43,27.43 0,15.15 12.28,27.43 27.43,27.43 15.15,0 27.43,-12.28 27.43,-27.43zm37.38 139.64c0,-15.15 -12.28,-27.43 -27.42,-27.43 -15.15,0 -27.43,12.28 -27.43,27.43 0,15.14 12.28,27.42 27.43,27.42 15.14,0 27.42,-12.28 27.42,-27.42zm58.28 123.14c0,-15.15 -12.28,-27.43 -27.43,-27.43 -15.15,0 -27.43,12.28 -27.43,27.43 0,15.15 12.28,27.43 27.43,27.43 15.15,0 27.43,-12.28 27.43,-27.43zm111.05 -182.52c0,-15.14 -12.28,-27.42 -27.43,-27.42 -15.15,0 -27.43,12.28 -27.43,27.42 0,15.15 12.28,27.43 27.43,27.43 15.15,0 27.43,-12.28 27.43,-27.43zm79.16 93.46c0,-15.15 -12.28,-27.42 -27.43,-27.42 -15.14,0 -27.42,12.27 -27.42,27.42 0,15.15 12.28,27.43 27.42,27.43 15.15,0 27.43,-12.28 27.43,-27.43zm96.75 19.79c0,-15.14 -12.27,-27.42 -27.42,-27.42 -15.15,0 -27.43,12.28 -27.43,27.42 0,15.15 12.28,27.43 27.43,27.43 15.15,0 27.42,-12.28 27.42,-27.43zm-59.37 -117.64c0,-15.15 -12.28,-27.43 -27.42,-27.43 -15.15,0 -27.43,12.28 -27.43,27.43 0,15.14 12.28,27.42 27.43,27.42 15.14,0 27.42,-12.28 27.42,-27.42zm50.58 -72.57c0,-15.15 -12.28,-27.43 -27.43,-27.43 -15.14,0 -27.42,12.28 -27.42,27.43 0,15.15 12.28,27.43 27.42,27.43 15.15,0 27.43,-12.28 27.43,-27.43zm125.34 -47.28c0,-15.15 -12.28,-27.43 -27.42,-27.43 -15.15,0 -27.43,12.28 -27.43,27.43 0,15.15 12.28,27.43 27.43,27.43 15.14,0 27.42,-12.28 27.42,-27.43zm-46.18 135.24c0,-15.15 -12.28,-27.43 -27.42,-27.43 -15.15,0 -27.43,12.28 -27.43,27.43 0,15.15 12.28,27.43 27.43,27.43 15.14,0 27.42,-12.28 27.42,-27.43zm96.76 39.58c0,-15.15 -12.28,-27.43 -27.43,-27.43 -15.15,0 -27.42,12.28 -27.42,27.43 0,15.15 12.27,27.43 27.42,27.43 15.15,0 27.43,-12.28 27.43,-27.43zm40.68 -107.75c0,-15.15 -12.28,-27.43 -27.43,-27.43 -15.14,0 -27.42,12.28 -27.42,27.43 0,15.15 12.28,27.43 27.42,27.43 15.15,0 27.43,-12.28 27.43,-27.43zm-82.46 221c0,-15.15 -12.28,-27.43 -27.43,-27.43 -15.15,0 -27.42,12.28 -27.42,27.43 0,15.15 12.27,27.43 27.42,27.43 15.15,0 27.43,-12.28 27.43,-27.43zm126.44 -18.69c0,-15.15 -12.28,-27.43 -27.43,-27.43 -15.14,0 -27.42,12.28 -27.42,27.43 0,15.15 12.28,27.42 27.42,27.42 15.15,0 27.43,-12.27 27.43,-27.42zm70.37 -75.87c0,-15.14 -12.28,-27.42 -27.43,-27.42 -15.15,0 -27.42,12.28 -27.42,27.42 0,15.15 12.27,27.43 27.42,27.43 15.15,0 27.43,-12.28 27.43,-27.43zm-140.74 200.11c0,-15.15 -12.28,-27.43 -27.42,-27.43 -15.15,0 -27.43,12.28 -27.43,27.43 0,15.15 12.28,27.43 27.43,27.43 15.14,0 27.42,-12.28 27.42,-27.43zm160.53 -26.39c0,-15.14 -12.28,-27.42 -27.43,-27.42 -15.14,0 -27.42,12.28 -27.42,27.42 0,15.15 12.28,27.43 27.42,27.43 15.15,0 27.43,-12.28 27.43,-27.43zm6.6 106.66c0,-15.15 -12.28,-27.43 -27.43,-27.43 -15.15,0 -27.43,12.28 -27.43,27.43 0,15.14 12.28,27.42 27.43,27.42 15.15,0 27.43,-12.28 27.43,-27.42zm96.75 60.47c0,-15.15 -12.28,-27.43 -27.42,-27.43 -15.15,0 -27.43,12.28 -27.43,27.43 0,15.15 12.28,27.43 27.43,27.43 15.14,0 27.42,-12.28 27.42,-27.43zm81.36 -103.35c0,-15.15 -12.27,-27.43 -27.42,-27.43 -15.15,0 -27.43,12.28 -27.43,27.43 0,15.14 12.28,27.42 27.43,27.42 15.15,0 27.42,-12.28 27.42,-27.42zm-477.18 1629.46c0,-15.15 -12.28,-27.43 -27.43,-27.43 -15.14,0 -27.42,12.28 -27.42,27.43 0,15.14 12.28,27.42 27.42,27.42 15.15,0 27.43,-12.28 27.43,-27.42zm0 0c0,-15.15 -12.28,-27.43 -27.43,-27.43 -15.14,0 -27.42,12.28 -27.42,27.43 0,15.14 12.28,27.42 27.42,27.42 15.15,0 27.43,-12.28 27.43,-27.42zm247.39 69.26c0,-15.14 -12.28,-27.42 -27.43,-27.42 -15.15,0 -27.43,12.28 -27.43,27.42 0,15.15 12.28,27.43 27.43,27.43 15.15,0 27.43,-12.28 27.43,-27.43zm-166.03 -18.69c0,-15.15 -12.28,-27.42 -27.42,-27.42 -15.15,0 -27.43,12.27 -27.43,27.42 0,15.15 12.28,27.43 27.43,27.43 15.14,0 27.42,-12.28 27.42,-27.43zm45.08 75.87c0,-15.15 -12.28,-27.43 -27.42,-27.43 -15.15,0 -27.43,12.28 -27.43,27.43 0,15.15 12.28,27.42 27.43,27.42 15.14,0 27.42,-12.27 27.42,-27.42zm85.76 86.86c0,-15.15 -12.28,-27.43 -27.42,-27.43 -15.15,0 -27.43,12.28 -27.43,27.43 0,15.15 12.28,27.42 27.43,27.42 15.14,0 27.42,-12.27 27.42,-27.42zm-178.12 -5.5c0,-15.15 -12.28,-27.43 -27.42,-27.43 -15.15,0 -27.43,12.28 -27.43,27.43 0,15.15 12.28,27.43 27.43,27.43 15.14,0 27.42,-12.28 27.42,-27.43zm-63.77 -69.27c0,-15.15 -12.28,-27.42 -27.42,-27.42 -15.15,0 -27.43,12.27 -27.43,27.42 0,15.15 12.28,27.43 27.43,27.43 15.14,0 27.42,-12.28 27.42,-27.43zm-79.16 -81.36c0,-15.15 -12.28,-27.43 -27.43,-27.43 -15.14,0 -27.42,12.28 -27.42,27.43 0,15.15 12.28,27.43 27.42,27.43 15.15,0 27.43,-12.28 27.43,-27.43zm-95.66 -25.29c0,-15.15 -12.28,-27.43 -27.42,-27.43 -15.15,0 -27.43,12.28 -27.43,27.43 0,15.15 12.28,27.43 27.43,27.43 15.14,0 27.42,-12.28 27.42,-27.43zm-29.68 122.04c0,-15.14 -12.28,-27.42 -27.43,-27.42 -15.15,0 -27.43,12.28 -27.43,27.42 0,15.15 12.28,27.43 27.43,27.43 15.15,0 27.43,-12.28 27.43,-27.43zm101.15 38.49c0,-15.15 -12.28,-27.43 -27.43,-27.43 -15.14,0 -27.42,12.28 -27.42,27.43 0,15.14 12.28,27.42 27.42,27.42 15.15,0 27.43,-12.28 27.43,-27.42zm63.77 123.14c0,-15.15 -12.28,-27.43 -27.43,-27.43 -15.14,0 -27.42,12.28 -27.42,27.43 0,15.15 12.28,27.43 27.42,27.43 15.15,0 27.43,-12.28 27.43,-27.43zm-155.03 2.2c0,-15.15 -12.28,-27.43 -27.43,-27.43 -15.14,0 -27.42,12.28 -27.42,27.43 0,15.15 12.28,27.43 27.42,27.43 15.15,0 27.43,-12.28 27.43,-27.43zm308.96 -3.3c0,-15.15 -12.28,-27.43 -27.43,-27.43 -15.14,0 -27.42,12.28 -27.42,27.43 0,15.15 12.28,27.43 27.42,27.43 15.15,0 27.43,-12.28 27.43,-27.43zm-168.27 -606.92c0,-11.48 -9.3,-20.78 -20.78,-20.78 -11.48,0 -20.78,9.3 -20.78,20.78 0,11.48 9.3,20.78 20.78,20.78 11.48,0 20.78,-9.3 20.78,-20.78zm81.36 -24.19c0,-11.47 -9.3,-20.78 -20.78,-20.78 -11.47,0 -20.78,9.31 -20.78,20.78 0,11.48 9.31,20.78 20.78,20.78 11.48,0 20.78,-9.3 20.78,-20.78zm-157.23 13.19c0,-11.47 -9.3,-20.77 -20.77,-20.77 -11.48,0 -20.78,9.3 -20.78,20.77 0,11.48 9.3,20.78 20.78,20.78 11.47,0 20.77,-9.3 20.77,-20.78zm-34.08 60.48c0,-11.48 -9.3,-20.78 -20.78,-20.78 -11.48,0 -20.78,9.3 -20.78,20.78 0,11.47 9.3,20.78 20.78,20.78 11.48,0 20.78,-9.31 20.78,-20.78zm-68.17 4.4c0,-11.48 -9.3,-20.78 -20.78,-20.78 -11.47,0 -20.78,9.3 -20.78,20.78 0,11.47 9.31,20.77 20.78,20.77 11.48,0 20.78,-9.3 20.78,-20.77zm-46.18 59.37c0,-11.48 -9.3,-20.78 -20.78,-20.78 -11.47,0 -20.77,9.3 -20.77,20.78 0,11.48 9.3,20.78 20.77,20.78 11.48,0 20.78,-9.3 20.78,-20.78zm-68.17 6.6c0,-11.48 -9.3,-20.78 -20.78,-20.78 -11.47,0 -20.77,9.3 -20.77,20.78 0,11.47 9.3,20.77 20.77,20.77 11.48,0 20.78,-9.3 20.78,-20.77zm-35.18 56.07c0,-11.47 -9.31,-20.78 -20.78,-20.78 -11.48,0 -20.78,9.31 -20.78,20.78 0,11.48 9.3,20.78 20.78,20.78 11.47,0 20.78,-9.3 20.78,-20.78zm-74.77 30.79c0,-11.48 -9.3,-20.78 -20.78,-20.78 -11.47,0 -20.77,9.3 -20.77,20.78 0,11.47 9.3,20.78 20.77,20.78 11.48,0 20.78,-9.31 20.78,-20.78zm-10.99 83.56c0,-11.48 -9.31,-20.78 -20.78,-20.78 -11.48,0 -20.78,9.3 -20.78,20.78 0,11.47 9.3,20.78 20.78,20.78 11.47,0 20.78,-9.31 20.78,-20.78zm225.39 -73.67c0,-11.47 -9.3,-20.77 -20.77,-20.77 -11.48,0 -20.78,9.3 -20.78,20.77 0,11.48 9.3,20.78 20.78,20.78 11.47,0 20.77,-9.3 20.77,-20.78zm-294.61 106.65c0,-15.15 -12.28,-27.43 -27.43,-27.43 -15.15,0 -27.42,12.28 -27.42,27.43 0,15.15 12.27,27.43 27.42,27.43 15.15,0 27.43,-12.28 27.43,-27.43zm70.37 75.87c0,-15.15 -12.28,-27.43 -27.43,-27.43 -15.15,0 -27.43,12.28 -27.43,27.43 0,15.14 12.28,27.42 27.43,27.42 15.15,0 27.43,-12.28 27.43,-27.42zm-108.85 32.98c0,-15.15 -12.28,-27.43 -27.43,-27.43 -15.15,0 -27.43,12.28 -27.43,27.43 0,15.15 12.28,27.43 27.43,27.43 15.15,0 27.43,-12.28 27.43,-27.43zm-57.18 -119.84c0,-15.15 -12.28,-27.43 -27.42,-27.43 -15.15,0 -27.43,12.28 -27.43,27.43 0,15.14 12.28,27.42 27.43,27.42 15.14,0 27.42,-12.28 27.42,-27.42zm-67.07 -54.98c0,-15.15 -12.28,-27.43 -27.42,-27.43 -15.15,0 -27.43,12.28 -27.43,27.43 0,15.15 12.28,27.43 27.43,27.43 15.14,0 27.42,-12.28 27.42,-27.43zm-69.27 76.97c0,-15.15 -12.28,-27.43 -27.42,-27.43 -15.15,0 -27.43,12.28 -27.43,27.43 0,15.14 12.28,27.42 27.43,27.42 15.14,0 27.42,-12.28 27.42,-27.42zm-19.79 125.34c0,-15.15 -12.28,-27.43 -27.42,-27.43 -15.15,0 -27.43,12.28 -27.43,27.43 0,15.15 12.28,27.43 27.43,27.43 15.14,0 27.42,-12.28 27.42,-27.43zm-79.16 -64.87c0,-15.15 -12.28,-27.43 -27.43,-27.43 -15.15,0 -27.43,12.28 -27.43,27.43 0,15.15 12.28,27.43 27.43,27.43 15.15,0 27.43,-12.28 27.43,-27.43zm-28.59 86.86c0,-15.15 -12.28,-27.43 -27.43,-27.43 -15.14,0 -27.42,12.28 -27.42,27.43 0,15.15 12.28,27.43 27.42,27.43 15.15,0 27.43,-12.28 27.43,-27.43zm205.61 -63.77c0,-15.15 -12.28,-27.43 -27.43,-27.43 -15.15,0 -27.43,12.28 -27.43,27.43 0,15.14 12.28,27.42 27.43,27.42 15.15,0 27.43,-12.28 27.43,-27.42zm36.28 92.36c0,-15.15 -12.28,-27.43 -27.43,-27.43 -15.14,0 -27.42,12.28 -27.42,27.43 0,15.14 12.28,27.42 27.42,27.42 15.15,0 27.43,-12.28 27.43,-27.42zm142.94 -5.5c0,-15.15 -12.28,-27.43 -27.43,-27.43 -15.15,0 -27.43,12.28 -27.43,27.43 0,15.15 12.28,27.43 27.43,27.43 15.15,0 27.43,-12.28 27.43,-27.43zm-64.87 67.07c0,-15.15 -12.28,-27.43 -27.43,-27.43 -15.15,0 -27.43,12.28 -27.43,27.43 0,15.15 12.28,27.43 27.43,27.43 15.15,0 27.43,-12.28 27.43,-27.43zm-148.44 -2.2c0,-15.15 -12.28,-27.43 -27.42,-27.43 -15.15,0 -27.43,12.28 -27.43,27.43 0,15.15 12.28,27.43 27.43,27.43 15.14,0 27.42,-12.28 27.42,-27.43zm-119.84 12.09c0,-15.14 -12.28,-27.42 -27.43,-27.42 -15.15,0 -27.43,12.28 -27.43,27.42 0,15.15 12.28,27.43 27.43,27.43 15.15,0 27.43,-12.28 27.43,-27.43zm-108.85 25.29c0,-15.14 -12.28,-27.42 -27.43,-27.42 -15.15,0 -27.43,12.28 -27.43,27.42 0,15.15 12.28,27.43 27.43,27.43 15.15,0 27.43,-12.28 27.43,-27.43zm50.57 97.86c0,-15.15 -12.28,-27.43 -27.42,-27.43 -15.15,0 -27.43,12.28 -27.43,27.43 0,15.15 12.28,27.43 27.43,27.43 15.14,0 27.42,-12.28 27.42,-27.43zm80.27 34.08c0,-15.14 -12.28,-27.42 -27.43,-27.42 -15.15,0 -27.43,12.28 -27.43,27.42 0,15.15 12.28,27.43 27.43,27.43 15.15,0 27.43,-12.28 27.43,-27.43zm46.18 -90.15c0,-15.15 -12.28,-27.43 -27.43,-27.43 -15.15,0 -27.43,12.28 -27.43,27.43 0,15.14 12.28,27.42 27.43,27.42 15.15,0 27.43,-12.28 27.43,-27.42zm71.46 54.97c0,-15.15 -12.28,-27.43 -27.42,-27.43 -15.15,0 -27.43,12.28 -27.43,27.43 0,15.15 12.28,27.43 27.43,27.43 15.14,0 27.42,-12.28 27.42,-27.43zm67.07 -69.27c0,-15.14 -12.28,-27.42 -27.42,-27.42 -15.15,0 -27.43,12.28 -27.43,27.42 0,15.15 12.28,27.43 27.43,27.43 15.14,0 27.42,-12.28 27.42,-27.43zm52.18 -423.85c0,-11.48 -9.3,-20.78 -20.78,-20.78 -11.47,0 -20.78,9.3 -20.78,20.78 0,11.47 9.31,20.77 20.78,20.77 11.48,0 20.78,-9.3 20.78,-20.77z"/>
</symbol>
 <g id="Ebene_x0020_1">
  <metadata id="CorelCorpID_0Corel-Layer"/>
  <use id="ISO_x0020_7010_x0020_W041_0" transform="scale(0.571429 0.571429)" x="-0" y="-0" width="7000" height="6223.14" xlink:href="#ISO_x0020_7010_x0020_W041"/>
 </g>
</svg>
