<?xml version="1.0" encoding="UTF-8"?>
<!DOCTYPE svg PUBLIC "-//W3C//DTD SVG 1.1//EN" "http://www.w3.org/Graphics/SVG/1.1/DTD/svg11.dtd">
<!-- Creator: Corel DESIGNER -->
<svg xmlns="http://www.w3.org/2000/svg" xml:space="preserve" width="40mm" height="34.9578mm" version="1.1" style="shape-rendering:geometricPrecision; text-rendering:geometricPrecision; image-rendering:optimizeQuality; fill-rule:evenodd; clip-rule:evenodd"
viewBox="0 0 2000.04 1747.92"
 xmlns:xlink="http://www.w3.org/1999/xlink"
 xmlns:xodm="http://www.corel.com/coreldraw/odm/2003">
 <defs>
  <style type="text/css">
   <![CDATA[
    .fil0w {fill:#F5CA2B}
    .fil1w {fill:#21251E}
   ]]>
  </style>
 </defs>
<symbol id="ISO_x0020_7010_x0020_W047" viewBox="-3750.03 4519.62 3500.06 3058.85">
 <polygon class="fil0w" points="-354.77,7472.76 -3644.06,7472.76 -1999.41,4624.15 "/>
 <path class="fil1w" d="M-3461.23 7367.76l1461.23 -2530.91 1461.23 2530.91 -2922.46 0zm3106.66 210.71l-3290.87 0.01c-80.57,0 -130.66,-86.75 -90.38,-156.53l1645.43 -2849.99c40.29,-69.78 140.47,-69.78 180.75,0l1645.43 2849.98c40.29,69.78 -9.81,156.53 -90.38,156.53z"/>
 <polygon class="fil1w" points="-2351.48,6203.61 -2414.65,6203.61 -2414.65,6811.5 -2351.48,6811.5 -2460.95,6929.91 -2570.42,6811.5 -2507.25,6811.5 -2507.25,6203.61 -2570.42,6203.61 -2460.95,6085.21 "/>
 <polygon class="fil1w" points="-3151.33,7197.81 -854.97,7197.81 -984.82,6972.9 -3021.48,6972.9 "/>
 <path class="fil1w" d="M-2160.04 6008.31c55.59,17.63 88.59,28.7 121.44,28.7l0 -0.11c30.71,-0.01 58.25,-8.69 113.23,-26.02 56.37,-17.76 74.37,-12.73 112.66,1.4 154.54,57.02 196.88,-4.1 266.33,-12.01l-28.97 -50.2c-47.11,11.98 -93.76,38.99 -149.09,30.13 -86.29,-13.82 -106.48,-56.61 -209.08,-24.31 -49.04,15.44 -80.78,26.22 -105.08,26.22l0 -0.11c-22.19,0 -47.23,-7.9 -97.37,-23.71 -160.14,-50.13 -148.33,57.65 -305.87,10.65l-28.16 48.77c184.47,60.62 189.29,-47.67 309.95,-9.4z"/>
 <path class="fil1w" d="M-1950.65 6044.92l-64.99 149.64 -109.75 -92.99c-17.76,-15.06 -39.49,-10.69 -49.68,3.66l-117.39 165.34c-27.43,38.64 31.06,80.15 58.48,41.47l92.35 -130.26 132.56 112.31 -104.64 79.31c-7.45,5.1 -12.93,13.4 -14.11,25.14l-19.36 192.36c-4.74,47.16 66.59,54.29 71.33,7.12l17.8 -176.89 142.64 -108.06c5.76,-4.37 9.63,-9.4 11.94,-14.68l74.46 -171.46 33.05 56.88 -24.95 140.94c-7.06,39.88 53.25,50.56 60.31,10.68l26.83 -151.58c1.71,-9.64 -0.54,-17.57 -5,-23.5l-59.94 -103.19 5.22 -12.01c-8.89,-2.74 -18.15,-5.88 -27.81,-9.44 -17.08,-6.3 -29.51,-10.58 -42.12,-11.2 -26.32,-1.29 -61.24,12.48 -87.22,20.4zm62.64 -124.78c42.6,-4.97 70.15,5.15 101.99,16.84 6.9,2.54 14.04,5.16 21.63,7.67 2.16,-6.53 3.35,-13.85 3.35,-21.95 0,-82.73 -124.39,-83.59 -126.96,-2.57zm-99.63 -15.14l-15.09 -139.91c-4.35,-40.28 -65.24,-33.71 -60.89,6.56l16.13 149.64c-0.96,10.08 3.11,20.61 14.59,27.72l10.41 6.46c17.08,-3.06 39.47,-10.14 68.94,-19.46l10.6 -3.32 -44.69 -27.69z"/>
</symbol>
 <g id="Ebene_x0020_1">
  <metadata id="CorelCorpID_0Corel-Layer"/>
  <use id="ISO_x0020_7010_x0020_W047_0" transform="scale(0.571429 0.571428)" x="-0" y="0" width="3500.06" height="3058.85" xlink:href="#ISO_x0020_7010_x0020_W047"/>
 </g>
</svg>
