<?xml version="1.0" encoding="UTF-8"?>
<!DOCTYPE svg PUBLIC "-//W3C//DTD SVG 1.1//EN" "http://www.w3.org/Graphics/SVG/1.1/DTD/svg11.dtd">
<!-- Creator: Corel DESIGNER -->
<svg xmlns="http://www.w3.org/2000/svg" xml:space="preserve" width="40mm" height="34.9578mm" version="1.1" style="shape-rendering:geometricPrecision; text-rendering:geometricPrecision; image-rendering:optimizeQuality; fill-rule:evenodd; clip-rule:evenodd"
viewBox="0 0 4002.68 3498.12"
 xmlns:xlink="http://www.w3.org/1999/xlink"
 xmlns:xodm="http://www.corel.com/coreldraw/odm/2003">
 <defs>
  <style type="text/css">
   <![CDATA[
    .fil0w {fill:#F5CA2B}
    .fil1w {fill:#21251E}
   ]]>
  </style>
 </defs>
<symbol id="ISO_x0020_7010_x0020_W049" viewBox="-1502.35 2807.63 7004.69 6121.7">
 <polygon class="fil0w" points="5292.61,8717.75 -1290.26,8717.76 2001.17,3016.81 "/>
 <path class="fil1w" d="M-924.37 8507.63l2924.37 -5065.13 2924.36 5065.13 -5848.73 0zm6217.39 421.69l-6586.03 0.01c-161.25,0 -261.5,-173.61 -180.87,-313.26l3293.02 -5703.7c80.62,-139.64 281.12,-139.64 361.74,0l3293.02 5703.69c80.62,139.65 -19.62,313.26 -180.87,313.26z"/>
 <path class="fil1w" d="M2228.4 4869.97l-250.08 526.35 -362.36 388.15c-56.04,2.21 -110.2,31.05 -142.14,81.85l-330.88 526.5c-32.78,52.17 -34.52,115.43 -10.24,167.71l180.02 399.48 -109.09 424.12c-12.99,50.5 17.56,102.47 68.06,115.53 50.26,13.01 102.59,-17.74 115.54,-68.05l115.81 -450.23c7.15,-21.7 6.57,-46.03 -3.5,-68.39l-123.11 -273.17c25.29,-13.87 47.49,-34.12 63.85,-60.15l330.87 -526.5c26.81,-42.66 32.85,-92.71 20.9,-138.12l357.03 -382.45c7.5,-8.02 14.04,-17.65 18.76,-27.58l257.31 -541.59c30.55,-64.29 -3.36,-119.81 -52.56,-143.18 -49.19,-23.37 -113.66,-14.59 -144.2,49.7zm-1381.73 1826.92c-56.43,89.78 -29.39,208.31 60.4,264.73 89.78,56.43 208.3,29.38 264.72,-60.4 56.43,-89.78 29.38,-208.3 -60.4,-264.73 -89.78,-56.42 -208.3,-29.38 -264.72,60.4z"/>
 <path class="fil1w" d="M996.85 6077.87l-50.21 347.68 84.98 -3.87 -34.76 -343.81zm-233.73 546.63l30.91 -30.91 -154.51 -129.42 123.6 160.33zm-102.35 112.03c0,-7.73 0,-15.45 0,-23.18l-7.73 -57.94 -106.25 3.85 40.57 83.07 73.41 -5.8zm119.75 108.15c-32.31,0 -16.12,-0.54 -42.51,-9.65l-260.75 -69.55 262.71 112.05 40.56 -32.85zm699.21 471.31l7.74 81.12 397.89 -262.69 -405.62 181.56zm25.11 112.03l-54.09 85 94.65 1.92 69.54 -86.92 -110.1 0zm65.67 94.65l-15.45 79.19 -92.7 69.54 175.76 5.79 57.95 -61.81 -9.66 -106.24c-5.15,0 -10.31,0 -15.45,0l-100.45 13.53zm-818.95 -509.96l3.85 81.12 61.81 -65.66 -65.66 -15.46z"/>
 <polygon class="fil1w" points="695.57,7006.9 556.49,6921.93 525.58,7026.23 347.68,6851.84 -450.26,8233.92 4450.26,8233.92 3805.44,7117.06 3768.62,7443.43 3712.62,7522.62 3643.09,7400.94 3513.66,7429.92 3511.74,7518.77 3511.74,7526.49 3544.57,7551.6 3521.39,7644.32 3457.66,7590.24 3324.38,7588.3 3250.98,7659.77 3289.61,7787.25 3337.9,7800.76 3335.98,7825.88 3171.79,8011.31 2841.49,8115.61 1696.1,8115.61 1576.35,8055.74 1348.42,7783.38 1290.47,7785.33 1267.3,7592.16 1116.64,7667.5 1110.84,7532.3 1000.74,7464.68 998.81,7091.89 909.97,7057.14 707.14,7248.36 664.67,7217.45 712.95,7180.74 "/>
 <path class="fil1w" d="M1833.88 5477.73c-65.21,-43.47 -132.1,-83.41 -217.88,-83.41 -89.28,0 -158.87,46.76 -229.47,94.2 -60.27,40.49 -121.47,81.59 -188.16,81.11 -15.81,-0.11 -29.09,-1.1 -40.56,-2.83l14.53 37.07c10.52,26.87 47.24,66.23 75.65,61.27 73.62,-12.86 134.2,-53.57 194.03,-93.75 57.72,-38.79 114.62,-77.01 173.98,-77.01 52.03,0 100.67,26.33 148.67,57.48l69.21 -74.14zm617.79 -83.41c-84.22,0 -150.24,38.52 -214.35,81.06l-24.3 51.14c-5.66,13.04 -17.61,29.9 -27.37,40.23l-89.1 95.44c64.84,-15.24 119.5,-52.04 174.15,-88.85 58.62,-39.48 117.25,-78.96 180.97,-78.96 56.04,0 101.27,34.55 148.72,70.8 56.77,43.36 116.06,88.66 203.2,101.16 27.89,3.99 68.58,-48.01 78.88,-74.22l11.59 -29.45c-13.77,4.33 -27.95,6.96 -42.15,6.96 -81.23,0 -137.48,-42.97 -190.94,-83.81 -61.34,-46.85 -119.8,-91.51 -209.3,-91.51z"/>
</symbol>
 <g id="Ebene_x0020_1">
  <metadata id="CorelCorpID_0Corel-Layer"/>
  <use id="ISO_x0020_7010_x0020_W049_0" transform="scale(0.571429 0.571428)" x="-0" y="0.01" width="7004.69" height="6121.7" xlink:href="#ISO_x0020_7010_x0020_W049"/>
 </g>
</svg>
