<?xml version="1.0" encoding="UTF-8"?>
<!DOCTYPE svg PUBLIC "-//W3C//DTD SVG 1.1//EN" "http://www.w3.org/Graphics/SVG/1.1/DTD/svg11.dtd">
<!-- Creator: Corel DESIGNER -->
<svg xmlns="http://www.w3.org/2000/svg" xml:space="preserve" width="40mm" height="34.9578mm" version="1.1" style="shape-rendering:geometricPrecision; text-rendering:geometricPrecision; image-rendering:optimizeQuality; fill-rule:evenodd; clip-rule:evenodd"
viewBox="0 0 1000 873.94"
 xmlns:xlink="http://www.w3.org/1999/xlink"
 xmlns:xodm="http://www.corel.com/coreldraw/odm/2003">
 <defs>
  <style type="text/css">
   <![CDATA[
    .fil0w {fill:#F5CA2B}
    .fil1w {fill:#21251E}
   ]]>
  </style>
 </defs>
<symbol id="ISO_x0020_7010_x0020_W051" viewBox="1125 -856.9 1750 1529.4">
 <polygon class="fil0w" points="2822.6,619.64 1177.99,619.65 2000.29,-804.64 "/>
 <path class="fil1w" d="M1269.4 567.15l730.6 -1265.43 730.6 1265.43 -1461.2 0zm1553.3 105.35l-1645.4 0c-40.29,0 -65.33,-43.37 -45.19,-78.26l822.7 -1424.97c20.14,-34.89 70.23,-34.89 90.38,0l822.7 1424.97c20.14,34.89 -4.9,78.26 -45.19,78.26z"/>
 <path class="fil1w" d="M1707.06 19.6l65.56 30.35c-0.51,0.96 -1,1.95 -1.46,2.95 -13.94,30.12 -0.83,65.84 29.29,79.79 30.12,13.94 65.85,0.83 79.79,-29.29 0.47,-1 0.9,-2.02 1.3,-3.03l202.69 93.84c-0.51,0.96 -1,1.94 -1.46,2.95 -13.95,30.12 -0.83,65.84 29.29,79.79 30.12,13.94 65.84,0.83 79.79,-29.29 0.46,-1 0.89,-2.01 1.3,-3.02l66.87 30.95c6.57,3.04 14.41,0.16 17.45,-6.41l35.85 -77.43c2.75,-5.94 0.78,-12.87 -4.68,-16.48l-119.86 -79.27 -20.83 -124.27c-83.47,-42.95 -156.8,-75.54 -222.5,-100.36l-90.67 69.59 -96.12 -29.23c-6.06,-1.84 -12.32,1.23 -15.2,6.87l-42.63 83.24c-1.67,3.28 -1.84,6.73 -0.62,10.2 1.22,3.47 3.54,6.02 6.88,7.56zm303.48 -8.86l39.01 -74.22c-31.03,-13.77 -55.06,-23.56 -75.63,-31.57l-66.08 58.06 102.7 47.72zm58.05 -65.67l-38.05 74.96 127.34 59.18 -7.44 -95.46c-31.68,-15.45 -58.58,-28.1 -81.85,-38.68z"/>
 <path class="fil1w" d="M2466.95 444.85l7.14 -1.92c-1.08,15.21 -2.8,28.65 -12.43,31.37 -36.45,6.79 -61.6,-4.33 -87.18,-15.65 -18.6,-8.23 -37.48,-16.58 -60.98,-16.37 -18.76,0.17 -37.3,8.66 -56.8,17.59 -23.83,10.91 -48.97,22.41 -80.43,22.85 -27.59,0.38 -46.79,-8.68 -66.98,-18.19 -21.81,-10.28 -44.92,-21.18 -81.84,-18.31 -29.36,2.28 -47.42,11.07 -63.66,18.98 -21.65,10.54 -40.54,19.73 -74.23,14.48 -14.77,-2.31 -14.74,-18.57 -16.29,-32.03l7.05 2.05c35.22,8.76 52.71,0.25 73.19,-9.72 18.23,-8.87 38.51,-18.75 72.16,-21.36 43.07,-3.34 69.08,8.92 93.61,20.48 17.74,8.37 34.63,16.33 56.69,16.03 26.41,-0.36 49.32,-10.85 71.04,-20.79 21.76,-9.95 42.44,-19.42 66.3,-19.64 28.58,-0.26 49.72,9.09 70.57,18.32 24.34,10.77 48.22,21.34 83.07,11.86zm0 -63.49l7.14 -1.92c-1.08,15.22 -2.8,28.65 -12.43,31.37 -36.45,6.8 -61.6,-4.33 -87.18,-15.65 -18.6,-8.23 -37.48,-16.58 -60.98,-16.37 -18.76,0.18 -37.3,8.66 -56.8,17.58 -23.83,10.91 -48.97,22.42 -80.43,22.85 -27.59,0.38 -46.79,-8.68 -66.98,-18.19 -21.81,-10.29 -44.92,-21.18 -81.84,-18.31 -29.36,2.28 -47.42,11.07 -63.66,18.98 -21.65,10.54 -40.54,19.73 -74.23,14.48 -14.77,-2.31 -14.74,-18.56 -16.29,-32.03l7.05 2.05c35.22,8.76 52.71,0.25 73.19,-9.72 18.23,-8.87 38.51,-18.75 72.16,-21.36 43.07,-3.34 69.08,8.92 93.61,20.48 17.74,8.37 34.63,16.33 56.69,16.03 26.41,-0.36 49.32,-10.85 71.04,-20.78 21.76,-9.96 42.44,-19.43 66.3,-19.65 28.58,-0.27 49.72,9.09 70.57,18.32 24.34,10.77 48.22,21.34 83.07,11.86z"/>
 <path class="fil1w" d="M1609.36 138.27l-201.44 348.91 444.68 0 0 -348.91 -26.17 0c-0.51,0.01 -1.02,0.01 -1.53,0l-215.53 0z"/>
</symbol>
 <g id="Ebene_x0020_1">
  <metadata id="CorelCorpID_0Corel-Layer"/>
  <use id="ISO_x0020_7010_x0020_W051_0" transform="scale(0.571429 0.571428)" x="-0" y="0" width="1750" height="1529.4" xlink:href="#ISO_x0020_7010_x0020_W051"/>
 </g>
</svg>
