<?xml version="1.0" encoding="UTF-8"?>
<!DOCTYPE svg PUBLIC "-//W3C//DTD SVG 1.1//EN" "http://www.w3.org/Graphics/SVG/1.1/DTD/svg11.dtd">
<!-- Creator: Corel DESIGNER -->
<svg xmlns="http://www.w3.org/2000/svg" xml:space="preserve" width="40mm" height="34.9578mm" version="1.1" style="shape-rendering:geometricPrecision; text-rendering:geometricPrecision; image-rendering:optimizeQuality; fill-rule:evenodd; clip-rule:evenodd"
viewBox="0 0 2000.04 1747.92"
 xmlns:xlink="http://www.w3.org/1999/xlink"
 xmlns:xodm="http://www.corel.com/coreldraw/odm/2003">
 <defs>
  <style type="text/css">
   <![CDATA[
    .fil0w {fill:#F5CA2B}
    .fil1w {fill:#21251E}
   ]]>
  </style>
 </defs>
<symbol id="ISO_x0020_7010_x0020_W053" viewBox="-3750.03 -1713.82 3500.06 3058.85">
 <polygon class="fil0w" points="-354.77,1239.31 -3644.06,1239.32 -1999.41,-1609.3 "/>
 <path class="fil1w" d="M-3461.23 1134.32l1461.23 -2530.91 1461.23 2530.91 -2922.46 0zm3106.66 210.71l-3290.87 0.01c-80.57,0 -130.66,-86.75 -90.38,-156.53l1645.43 -2849.99c40.29,-69.78 140.47,-69.78 180.75,0l1645.43 2849.98c40.29,69.78 -9.81,156.53 -90.38,156.53z"/>
 <path class="fil1w" d="M-1638.08 334.62l-110.93 37.07 -48.11 -0.01 -114.92 -46.74 -61.05 -99.41c-17.74,-28.88 -61.4,-2.07 -43.67,26.81l65.25 106.26c3.94,6.42 9.15,10.08 14.69,11.59l98.34 40c0,123.26 0.2,245.94 0.04,369.13l-105.81 116.12c-26.46,29.04 17.43,69.07 43.91,40.02l113.04 -124.03c5.96,-6.54 8.26,-12.19 8.27,-21.2l0.2 -159.25 67.08 139.62 -27.33 156.42c-6.77,38.71 51.76,48.94 58.53,10.22l28.88 -165.31c1.45,-8.27 -0.09,-15.23 -3.46,-20.7l-60.98 -126.91 0.01 -209.59 102.99 -34.42c0.76,-0.26 1.48,-0.53 2.18,-0.83 5.44,-1.9 10.4,-5.94 13.88,-12.66l55.44 -107.17c15.57,-30.1 -29.95,-53.64 -45.51,-23.55l-50.95 98.51zm-95.05 -53.71c-12.77,-24.68 -43.14,-34.34 -67.82,-21.58 -24.69,12.77 -34.34,43.13 -21.58,67.82 12.77,24.69 43.13,34.34 67.81,21.58 24.69,-12.77 34.35,-43.13 21.58,-67.82z"/>
 <path class="fil1w" d="M-1978.56 -246c48.25,-79.8 14.59,-100.55 122.37,-100.55 8.04,0 67.13,50.38 50.27,64.71 -46.66,39.66 -30.08,105.62 -130.97,109.92 -6.6,0.28 -59.05,-45.35 -41.68,-74.08zm150.15 273.19c-4.59,1.5 -61.19,50.18 -45.43,65.94 20.99,20.99 86.6,1.08 89.09,-9.72 15.88,-3.66 8.18,-73.18 -43.66,-56.22zm-130.6 -141.22c-31.68,46.81 -67.32,97.05 -84.93,143.32 -13.9,36.51 55.26,10.72 72.54,-0.57 36.19,-23.63 58.88,-12.04 64.82,-60.4 3.58,-29.1 67.36,-47.1 11.58,-79.91 -30.74,-18.08 -61.84,-5.65 -64.01,-2.44zm-164.28 -264.55c-12.57,4.6 -5.98,82.11 -1.5,98.58 9.3,34.19 -2.94,68.52 16.64,122.32 5.18,14.23 15.76,74.14 32.41,75.02 12.89,0.68 19.81,11.91 37.93,-15.11 6.72,-10 33.51,-71.51 33.51,-80.93 0,-34.87 3.56,-21.16 -8.43,-56.06 -11.62,-33.82 -11.85,-41.37 4.14,-76.18 6.51,-14.17 29.43,-60.96 20,-75.96 -16.45,-26.16 -17.01,-25.04 -50.93,-23.15 -8.19,0.46 -58.91,22.36 -83.76,31.46zm-188.29 -22.21l-149.7 52.29 -158.14 273.9 -624.36 1081.41 1150.48 0c20.25,-68.48 24.65,-178.42 21.96,-306.9l-67.35 -109.84 -78.97 2.63c35.48,-61.11 62.74,-139.4 88.48,-220.85l-44.85 -101.87 2.27 -238.17c-43.3,-52.05 -9.45,-301.76 43.35,-401.33 1.15,-4.93 2.81,-8.23 5.12,-9.08 0.08,-0.13 0.16,-0.26 0.23,-0.38l-188.52 -21.83z"/>
</symbol>
 <g id="Ebene_x0020_1">
  <metadata id="CorelCorpID_0Corel-Layer"/>
  <use id="ISO_x0020_7010_x0020_W053_0" transform="scale(0.571429 0.571428)" x="-0" y="0" width="3500.06" height="3058.85" xlink:href="#ISO_x0020_7010_x0020_W053"/>
 </g>
</svg>
