<?xml version="1.0" encoding="UTF-8"?>
<!DOCTYPE svg PUBLIC "-//W3C//DTD SVG 1.1//EN" "http://www.w3.org/Graphics/SVG/1.1/DTD/svg11.dtd">
<!-- Creator: Corel DESIGNER -->
<svg xmlns="http://www.w3.org/2000/svg" xml:space="preserve" width="40mm" height="34.9577mm" version="1.1" style="shape-rendering:geometricPrecision; text-rendering:geometricPrecision; image-rendering:optimizeQuality; fill-rule:evenodd; clip-rule:evenodd"
viewBox="0 0 4000 3495.77"
 xmlns:xlink="http://www.w3.org/1999/xlink"
 xmlns:xodm="http://www.corel.com/coreldraw/odm/2003">
 <defs>
  <style type="text/css">
   <![CDATA[
    .fil0w {fill:#F5CA2B}
    .fil1w {fill:#21251E}
   ]]>
  </style>
 </defs>
<symbol id="ISO_x0020_7010_x0020_W060" viewBox="-1500 2805.74 7000 6117.6">
 <polygon class="fil0w" points="5290.4,8711.9 -1288.06,8711.91 2001.17,3014.78 "/>
 <path class="fil1w" d="M-922.41 8501.92l2922.41 -5061.74 2922.4 5061.74 -5844.81 0zm6213.22 421.41l-6581.62 0.01c-161.14,0 -261.32,-173.49 -180.75,-313.05l3290.81 -5699.88c80.57,-139.55 280.93,-139.55 361.5,0l3290.81 5699.87c80.57,139.56 -19.61,313.05 -180.75,313.05z"/>
 <path class="fil1w" d="M782.44 8172.63c598.02,-85.74 902.6,-142.01 1200.36,-179.27 349.24,-43.72 498.84,-28.16 634.98,-74.71 162.4,-55.55 115.3,-152.83 102.35,-311.97 -5.94,-73.14 181.81,-133.49 169.13,-196.47 -68.93,-341.92 95.89,-342.33 204.6,-642.77 99.18,-274.13 -66.72,-546.58 77.25,-698.68l1214.68 2103.87 -3603.35 0z"/>
 <path id="Head" class="fil1w" d="M2362.09 6730.99c0,-51.14 -41.46,-92.6 -92.6,-92.6 -51.14,0 -92.59,41.46 -92.59,92.6 0,51.14 41.45,92.59 92.59,92.59 51.14,0 92.6,-41.45 92.6,-92.59zm-177.98 117.5l171.41 0 307.22 -308.66c17.74,-17.82 46.86,-17.83 64.66,-0.06 17.81,17.77 17.81,46.84 0.07,64.67l-320.56 322.05c-8.81,8.6 -19.97,13.38 -32.31,13.38l-0.06 324.81 86.34 567.89c4.31,28.32 -15.54,55.06 -44.1,59.4 -28.56,4.34 -55.45,-15.28 -59.76,-43.61l-80.2 -527.48 -14.67 0 -80.2 527.48c-4.31,28.33 -31.2,47.95 -59.76,43.61 -28.38,-4.31 -48.43,-30.9 -44.1,-59.4l86.35 -567.89 0 -324.8c-12.53,0 -24.49,-5.1 -33.14,-14.17l-312.66 -329.73c-17.3,-18.25 -16.59,-47.32 1.63,-64.65 18.23,-17.33 47.34,-16.62 64.65,1.63l299.19 315.53z"/>
 <path class="fil1w" d="M-337.49 8096.11l1387.62 0c146.83,0 353.87,-147.58 519.12,-120.64 18.08,2.94 35.8,-4.75 54.4,-28.88 -42.78,-47.83 -259.32,-9.08 -329.89,0.38 -48.33,6.47 -96.7,12.99 -146.64,17.41 -64.95,5.85 -134,16.75 -196.21,26.55 -58.15,9.17 -120.8,20.99 -179.75,20.81 -73.78,-0.21 -128.03,-16.59 -164.46,-41.41 -84.45,-57.52 -69.51,-152.88 -21.37,-230.59 11.61,-18.74 25.83,-36.92 42.65,-53.48 -66.22,8.32 -168.48,49.75 -276.4,93.47 -97.45,39.48 -199.35,80.78 -288.75,102.35 -52.82,12.74 -106.48,12.42 -161.05,0.23 -31.95,-7.14 -64.15,-18.33 -96.6,-33.31l-142.67 247.11zm167.71 -290.48c27.85,12.59 55.29,22 82.3,28.04 47.2,10.54 93.39,10.87 138.59,-0.03 85.17,-20.55 185.63,-61.27 281.71,-100.19 155.08,-62.83 294.07,-116.58 375.92,-94.08 24.99,11.63 37.75,17.17 52.12,46.97 41.73,-63.66 -13.65,-157.79 -126.36,-125.52 -250.53,71.72 -375.25,183.71 -563.34,191.32 -73.58,2.98 -139.55,-1.67 -206.33,-6.45l-34.61 59.94zm1832.5 95.24c16.86,-51.36 0.12,-107.08 -108.65,-100.22 -251.29,15.85 -476.38,53.62 -708.99,86 -90.59,12.61 -198.2,-46.17 -214.88,-128 -34.2,43.29 -59.03,127.1 4.62,170.46 28.87,19.67 73.61,32.65 136.34,32.83 56.12,0.1 116.73,-11.49 172.13,-20.23 64.17,-10.11 135.4,-21.35 199.53,-27.03 0.16,1.62 132.38,-15.53 144.3,-17.13 86.39,-11.6 309.23,-50.22 375.6,3.32z"/>
</symbol>
 <g id="Ebene_x0020_1">
  <metadata id="CorelCorpID_0Corel-Layer"/>
  <use id="ISO_x0020_7010_x0020_W060_0" transform="scale(0.571428 0.571429)" x="-0" y="-0" width="7000" height="6117.6" xlink:href="#ISO_x0020_7010_x0020_W060"/>
 </g>
</svg>
