<?xml version="1.0" encoding="UTF-8"?>
<!DOCTYPE svg PUBLIC "-//W3C//DTD SVG 1.1//EN" "http://www.w3.org/Graphics/SVG/1.1/DTD/svg11.dtd">
<!-- Creator: Corel DESIGNER -->
<svg xmlns="http://www.w3.org/2000/svg" xml:space="preserve" width="40mm" height="34.9578mm" version="1.1" style="shape-rendering:geometricPrecision; text-rendering:geometricPrecision; image-rendering:optimizeQuality; fill-rule:evenodd; clip-rule:evenodd"
viewBox="0 0 2000 1747.89"
 xmlns:xlink="http://www.w3.org/1999/xlink"
 xmlns:xodm="http://www.corel.com/coreldraw/odm/2003">
 <defs>
  <style type="text/css">
   <![CDATA[
    .fil0w {fill:#F5CA2B}
    .fil1w {fill:#21251E}
   ]]>
  </style>
 </defs>
<symbol id="ISO_x0020_7010_x0020_W064" viewBox="-3750 -1713.79 3500 3058.8">
 <polygon class="fil0w" points="-354.8,1239.29 -3644.03,1239.29 -1999.41,-1609.27 "/>
 <path class="fil1w" d="M-3461.2 1134.3l1461.2 -2530.87 1461.2 2530.87 -2922.4 0zm3106.61 210.7l-3290.81 0.01c-80.57,0 -130.66,-86.75 -90.38,-156.53l1645.4 -2849.94c40.28,-69.78 140.46,-69.78 180.75,0l1645.4 2849.94c40.29,69.78 -9.8,156.52 -90.38,156.52z"/>
 <path class="fil1w" d="M-2659.48 933.13l105.84 0 0 -806.25 191.34 137.96c102.41,29.76 227.68,74.16 316,112.22 103.31,44.51 201.5,54.09 304.06,49.56 95.07,-4.2 150.36,-41.15 227.64,-37.8 77.28,3.36 214.19,72.24 214.19,72.24l68.88 -208.32c0,0 -142.88,-81.15 -192.36,-95.75 -55.28,-16.32 -85.83,-32.18 -180.12,-34.05 -179.1,-3.54 -259.32,26.75 -364.64,-88 -101.24,-110.29 -259.63,-95.42 -395.85,-97.18l-189.15 136.35 0 -22.97 -105.84 0 0 881.98zm154.42 -832.62l131.36 94.72 0 -189.42 -131.36 94.7z"/>
</symbol>
 <g id="Ebene_x0020_1">
  <metadata id="CorelCorpID_0Corel-Layer"/>
  <use id="ISO_x0020_7010_x0020_W064_0" transform="scale(0.571429 0.571428)" x="-0" y="0" width="3500" height="3058.8" xlink:href="#ISO_x0020_7010_x0020_W064"/>
 </g>
</svg>
