<?xml version="1.0" encoding="UTF-8"?>
<!DOCTYPE svg PUBLIC "-//W3C//DTD SVG 1.1//EN" "http://www.w3.org/Graphics/SVG/1.1/DTD/svg11.dtd">
<!-- Creator: Corel DESIGNER -->
<svg xmlns="http://www.w3.org/2000/svg" xml:space="preserve" width="40mm" height="34.9578mm" version="1.1" style="shape-rendering:geometricPrecision; text-rendering:geometricPrecision; image-rendering:optimizeQuality; fill-rule:evenodd; clip-rule:evenodd"
viewBox="0 0 1000 873.94"
 xmlns:xlink="http://www.w3.org/1999/xlink"
 xmlns:xodm="http://www.corel.com/coreldraw/odm/2003">
 <defs>
  <style type="text/css">
   <![CDATA[
    .fil0w {fill:#F5CA2B}
    .fil1w {fill:#21251E}
   ]]>
  </style>
 </defs>
<symbol id="ISO_x0020_7010_x0020_W065" viewBox="1125 -2415.23 1750 1529.4">
 <polygon class="fil0w" points="2822.6,-938.69 1177.99,-938.69 2000.29,-2362.97 "/>
 <path class="fil1w" d="M1269.4 -991.18l730.6 -1265.44 730.6 1265.44 -1461.2 0zm1553.3 105.35l-1645.4 0c-40.29,0 -65.33,-43.37 -45.19,-78.26l822.7 -1424.97c20.14,-34.89 70.23,-34.89 90.38,0l822.7 1424.97c20.14,34.89 -4.9,78.26 -45.19,78.26z"/>
 <path class="fil1w" d="M1484.07 -1072.65c17.1,-65.97 64.33,-146.7 118.62,-217.84 69.07,-90.51 150.69,-166.41 197.35,-177.7 30.85,-7.47 60.37,0.78 64.37,36.02 54.94,-44.3 32.57,-129.46 -35.49,-114.2 -57.26,12.84 -194.32,140.16 -276.5,220.8l-146.03 252.93 77.69 0zm1039.9 -48.09c-66.84,1.34 -114.36,22.36 -173.95,48.09l249.04 0 -27.74 -48.05 -47.35 -0.04zm-500.26 -426.62c14.31,-15.61 19.38,-30.21 18.94,-43.71 -0.45,-13.94 -6.63,-27.48 -14.64,-40.02 -30.31,-47.87 -62.03,-95.83 -121.86,-108.69 -43.09,-9.26 -95.31,11.72 -133.31,32.39l-61.28 106.13c49.21,-36.43 102.54,-70.61 145.69,-71.98 82.01,-2.6 151.73,85.24 137.29,152.64 11.15,-9.38 22.27,-19.24 29.16,-26.77zm-55.04 -8.65c-10.75,-53.44 -63.28,-103.24 -127.46,-90.36 -41.14,8.25 -109.66,61.33 -162.09,101.31l-81.82 141.71c79.94,-74.61 176.3,-156.17 226.12,-167.35 63.43,-14.22 104.89,40.12 102.01,95.76 27.32,-23.08 50.66,-44.14 43.24,-81.07zm-173.62 -189.85c36.06,-15.44 78.29,-26.5 116.27,-18.34 67.58,14.53 103.63,65.05 137.68,119.73 3.28,5.13 6.32,10.46 8.95,15.96 -8.88,-40.23 -25.35,-107.46 -91.19,-150.84 -42.84,-28.23 -105.75,-22.62 -145.77,-11.43l-25.93 44.93zm63.46 566.2c-35.95,-16.31 -68.55,-37.4 -97.1,-67.55 -30.31,-31.98 -36.25,-74.81 -22.31,-115.79 11.89,-34.91 47.53,-64.76 78.73,-82.88 -60.18,3.46 -161.44,126.09 -195.34,170.52 -50.92,66.74 -95.31,141.56 -112.67,202.7l492.88 0 315.16 0c12.72,-5.14 24.98,-10.47 37.09,-15.73 47.81,-20.79 93.5,-40.66 155.48,-44.29 -52.09,-61.57 -142.3,-6.18 -213.95,-6 -61.55,0.16 -120.28,-16.6 -154.12,-51.92 -68.72,29.31 -173.1,0.97 -245.22,-32.54 -78.99,-36.71 -137.67,-109.77 -75.02,-196.18 -22.95,14.59 -50.49,38.18 -59.39,64.34 -10.95,32.13 -7.15,65.38 16.73,90.59 26.1,27.55 56.09,46.92 89.29,61.98 33.83,15.35 71.1,26.32 110.98,36.88 50.96,13.49 104.44,16.42 155.99,4.85 19.96,20.82 34.83,26.62 61.41,36.73 45.79,17.42 113.75,13.38 170,-5.67 14.46,-4.89 97.89,-32.13 136.7,-6.97 -37.97,-3.01 -97.05,10.14 -130.96,19.75 -32.44,9.2 -61.61,20.11 -90.37,20.34 -31.84,0.25 -63.15,0.47 -88.75,-6.31 -24.28,-6.43 -48.49,-14.03 -66.18,-30.61 -48.48,9.32 -106.72,4.57 -154.2,-7.98 -41.09,-10.87 -79.56,-22.22 -114.88,-38.25z"/>
 <path class="fil1w" d="M2315.78 -1245.62c0,-16.35 -13.25,-29.6 -29.6,-29.6 -16.34,0 -29.59,13.25 -29.59,29.6 0,16.34 13.25,29.59 29.59,29.59 16.35,0 29.6,-13.25 29.6,-29.59zm-47.58 91.52l73.66 -22.84c19.47,-6.03 10.46,-35.5 -9.01,-29.47l-61.41 19.04 -28.52 -55.07 3.67 -27.14c0.22,-3.72 -1.06,-7.66 -4.46,-11.21l-37.53 -39.18 50.36 -19.96c18.95,-7.51 7.69,-36.2 -11.25,-28.69l-71.69 28.42c-9.89,3.9 -14.37,16.28 -4.53,26.04l15.29 15.96 -61.18 -8.35 5.57 -82.36c0.71,-10.54 -5.62,-16.52 -13.19,-18.73l-94.54 -27.06c-23.28,-6.66 -33.24,28.69 -9.92,35.25l80.14 22.56 -4.85 71.79c-5.78,-8.58 -27.21,-42.54 -33.36,-47.24 -5.12,-3.9 -11.22,-4.97 -18.23,-2.04l-90.74 36.49c-22.47,9.04 -8.67,42.96 13.8,33.92l80.09 -32.2 47.68 70.79c3.64,5.4 8.47,8.16 13.32,8.92l122.41 16.32 30.22 58.36c1.22,2.36 2.76,4.17 4.47,5.5 3.44,2.72 8.16,3.92 13.75,2.19z"/>
</symbol>
 <g id="Ebene_x0020_1">
  <metadata id="CorelCorpID_0Corel-Layer"/>
  <use id="ISO_x0020_7010_x0020_W065_0" transform="scale(0.571429 0.571428)" x="-0" y="0" width="1750" height="1529.4" xlink:href="#ISO_x0020_7010_x0020_W065"/>
 </g>
</svg>
