<?xml version="1.0" encoding="UTF-8"?>
<!DOCTYPE svg PUBLIC "-//W3C//DTD SVG 1.1//EN" "http://www.w3.org/Graphics/SVG/1.1/DTD/svg11.dtd">
<!-- Creator: Corel DESIGNER -->
<svg xmlns="http://www.w3.org/2000/svg" xml:space="preserve" width="40mm" height="34.9578mm" version="1.1" style="shape-rendering:geometricPrecision; text-rendering:geometricPrecision; image-rendering:optimizeQuality; fill-rule:evenodd; clip-rule:evenodd"
viewBox="0 0 4000 3495.78"
 xmlns:xlink="http://www.w3.org/1999/xlink"
 xmlns:xodm="http://www.corel.com/coreldraw/odm/2003">
 <defs>
  <style type="text/css">
   <![CDATA[
    .fil0w {fill:#F5CA2B}
    .fil1w {fill:#21251E}
   ]]>
  </style>
 </defs>
<symbol id="ISO_x0020_7010_x0020_W066" viewBox="-1500 -9660.91 7000 6117.6">
 <polygon class="fil0w" points="5290.4,-3754.75 -1288.06,-3754.74 2001.17,-9451.87 "/>
 <path class="fil1w" d="M-922.41 -3964.73l2922.41 -5061.74 2922.4 5061.74 -5844.81 0zm6213.22 421.41l-6581.62 0.01c-161.14,0 -261.32,-173.49 -180.75,-313.05l3290.81 -5699.88c80.57,-139.55 280.93,-139.55 361.5,0l3290.81 5699.87c80.57,139.56 -19.61,313.05 -180.75,313.05z"/>
 <path class="fil1w" d="M2663.73 -7240.84c0,-151.88 -230.72,-151.88 -230.72,0 0,151.88 230.72,151.88 230.72,0zm-474.23 550.32l266.67 -268.7 404.32 303.45c63.82,47.89 136.33,-48.63 72.47,-96.55l-443.87 -332.05c-36.07,-26.54 -80.42,-98.72 -123.39,-103.62l-234.05 -26.71 0 -232.02c0,-79.81 -121.06,-79.84 -120.72,0l1.19 280.01c0.19,44.17 21.22,64.08 66.47,68.75l119.62 12.36 -235.74 240.46c-19.12,22.5 -72.64,256.15 -84.4,301.41l-255.04 -116.45c-81.23,-37.08 -137.39,85.77 -56.11,122.88l334.79 152.52c37.06,12.65 75.91,-4.9 86.72,-46.54l64.37 -247.83 103.6 327.34 -30.53 351.37c-7.74,89.01 126.86,100.7 134.59,11.69 5.14,-59.23 38.6,-359.78 28.2,-393.02l-99.16 -308.75z"/>
 <path class="fil1w" d="M3706.34 -5021.46c-226.05,-60.06 -274.77,-132.09 -508.36,-58.81 -127.82,40.09 -272.18,110.3 -465.97,58.81 -183.96,-48.86 -250.5,-105.7 -394.82,-85.64 31.99,46.35 51.37,73.2 95.55,108.78 31.13,5.14 64.86,15.38 108.03,30.38 280.14,97.37 387.59,96.28 639.8,7.94 157.73,-55.23 200.51,-54.51 334.53,-7.94 214.04,74.39 327.34,91.35 481.55,55.7l-57.46 -99.5c-69.72,12 -146.37,13.28 -232.85,-9.72zm-508.36 -310.18c-127.82,40.09 -272.18,110.32 -465.97,58.83 -232.63,-61.79 -277.86,-135.66 -531.09,-51.47 19.46,33.25 38.71,65.3 57.35,95.48 117.23,-36.96 164.55,-31.48 282.5,9.51 280.14,97.35 387.59,96.26 639.8,7.94 157.73,-55.23 200.51,-54.51 334.53,-7.94 148.19,51.5 248.1,75.47 346.71,73.51l-64 -110.84c-29.26,-2.57 -59.69,-7.75 -91.47,-16.19 -226.05,-60.06 -274.77,-132.11 -508.36,-58.83zm-657.21 -142.37c280.14,97.36 387.59,96.29 639.8,7.95 157.73,-55.23 200.51,-54.51 334.53,-7.95 73.11,25.41 134.47,44.12 189.72,56.32l-76.78 -132.97c-163.11,-52.88 -226.13,-99.64 -430.06,-35.7 -127.82,40.1 -272.18,110.32 -465.97,58.84 -226.03,-60.04 -274.79,-132.09 -508.36,-58.84 -46.41,14.56 -92.52,32.38 -142.01,47.17 17.08,32.51 34.68,65.17 52.52,97.45 25.81,-8.12 49.84,-16.53 72.04,-24.3 157.73,-55.27 200.59,-54.52 334.57,-7.97zm191.26 -309.83c-226.03,-60.05 -274.79,-132.11 -508.38,-58.84 -79.57,24.96 -158.27,59.45 -254.5,71.98 14.17,32.46 30.04,66.78 47.16,102.16 73.31,-12.98 136.82,-35.22 189.89,-53.83 157.75,-55.26 200.59,-54.49 334.57,-7.96 280.12,97.35 387.59,96.29 639.8,7.95 153.77,-53.84 193.34,-56.74 346.04,-3.96l-80.13 -138.83c-66.94,-14.35 -136.45,-12.63 -248.5,22.49 -127.84,40.11 -272.18,110.32 -465.95,58.84zm465.95 -307.51c-127.84,40.11 -272.18,110.32 -465.95,58.85 -181.01,-48.09 -248.33,-103.88 -387.93,-86.57 -4.35,43.03 -8.66,82.46 -11.53,111.19 69.74,-12.9 118.58,-2.26 208.2,28.88 280.12,97.37 387.59,96.28 639.8,7.96 81.23,-28.46 131.98,-42.05 180.41,-42.19l-59.7 -103.39c-30.39,4.84 -64.26,13.03 -103.3,25.27zm-652.89 -152.1c279.95,97.29 387.56,96.36 639.78,7.97 14.21,-4.97 27.48,-9.51 39.96,-13.58l-40.69 -70.49 -14.72 -25.48c-119.79,40.37 -255.73,95.18 -433.07,48.07 -176.58,-46.9 -244.93,-101.13 -377.72,-87.71 2.59,25.15 1.66,64.42 -1.09,109.15 59.42,-7.34 107,4.07 187.55,32.07zm-486.25 205.77c-50.84,13.81 -105.65,23.62 -168.11,23.1 8.93,36.3 14.88,72.2 26.07,107.97 55.78,-1.85 107.09,-10.6 153.73,-22.13 -19.58,-37.47 -15.14,-69.43 -11.69,-108.94zm13.45 -154.93l10.03 -115.34c-89.16,26.09 -189.21,42.84 -307.97,14.14 25.06,36.8 46.36,77.24 64.49,120.05 78.77,9.03 149.47,2.48 233.45,-18.85z"/>
 <path class="fil1w" d="M2614.44 -4789.92c-98.22,-56.32 -247.1,-162.11 -284.92,-209.37 -195.55,-244.4 -463.79,-791.94 -493.83,-940.37 -24.05,-118.81 -98.22,-484.93 -440.72,-484.93l-527.32 0 -60.63 105.02 -1188.56 2058.63 4754.22 0.01 -210.69 -364.92 -1163.88 0c-73.84,0 -229.83,-75.87 -383.67,-164.07z"/>
</symbol>
 <g id="Ebene_x0020_1">
  <metadata id="CorelCorpID_0Corel-Layer"/>
  <use id="ISO_x0020_7010_x0020_W066_0" transform="scale(0.571429 0.571428)" x="-0" y="0.01" width="7000" height="6117.6" xlink:href="#ISO_x0020_7010_x0020_W066"/>
 </g>
</svg>
