<?xml version="1.0" encoding="UTF-8"?>
<!DOCTYPE svg PUBLIC "-//W3C//DTD SVG 1.1//EN" "http://www.w3.org/Graphics/SVG/1.1/DTD/svg11.dtd">
<!-- Creator: Corel DESIGNER -->
<svg xmlns="http://www.w3.org/2000/svg" xml:space="preserve" width="40mm" height="34.9578mm" version="1.1" style="shape-rendering:geometricPrecision; text-rendering:geometricPrecision; image-rendering:optimizeQuality; fill-rule:evenodd; clip-rule:evenodd"
viewBox="0 0 4000 3495.78"
 xmlns:xlink="http://www.w3.org/1999/xlink"
 xmlns:xodm="http://www.corel.com/coreldraw/odm/2003">
 <defs>
  <style type="text/css">
   <![CDATA[
    .fil0w {fill:#F5CA2B}
    .fil1w {fill:#21251E}
   ]]>
  </style>
 </defs>
<symbol id="ISO_x0020_7010_x0020_W068" viewBox="-1500 9039.09 7000 6117.6">
 <polygon class="fil0w" points="5290.4,14945.25 -1288.06,14945.26 2001.17,9248.13 "/>
 <path class="fil1w" d="M-922.41 14735.27l2922.41 -5061.74 2922.4 5061.74 -5844.81 0zm6213.22 421.41l-6581.62 0.01c-161.14,0 -261.32,-173.49 -180.75,-313.05l3290.81 -5699.88c80.57,-139.55 280.93,-139.55 361.5,0l3290.81 5699.87c80.57,139.56 -19.61,313.05 -180.75,313.05z"/>
 <path class="fil1w" d="M2745.75 13772.84c-230.44,110.01 -342.92,129.59 -568.43,18.72 -205.17,-100.87 -349.96,-104.49 -561.08,2.67 -83.53,42.39 -156.32,79.33 -286.25,58.21 -56.97,-9.27 -56.81,-74.65 -62.83,-128.81 276.32,83.97 284.71,-92.22 587.68,-116.73 293.71,-23.76 383.52,149.59 579.61,146.8 284.68,-4.05 429.81,-311.2 899.74,-80.23 198.9,97.76 284.21,80.29 492.56,-19.15 45.36,-21.64 89.52,-42.73 135.05,-57.65 30.91,-10.14 0.2,115.23 -14,122.26 -125.68,56.9 -248.9,127.93 -393.85,130 -284.31,4.06 -378.84,-281.01 -808.2,-76.09zm0 263.4c-230.44,110.01 -342.92,129.59 -568.43,18.72 -205.17,-100.87 -349.96,-104.49 -561.08,2.67 -83.53,42.39 -156.32,79.33 -286.25,58.21 -56.97,-9.27 -56.81,-74.65 -62.83,-128.81 276.32,83.97 284.71,-92.22 587.68,-116.73 293.7,-23.76 383.56,149.6 579.61,146.81 284.61,-4.05 429.82,-311.2 899.74,-80.24 198.87,97.74 284.24,80.3 492.56,-19.15 52.21,-24.92 272.27,-120.5 258.67,-57.23 -7.41,34.12 -23.83,87.97 -62.16,96.84 -141.2,32.73 -272.18,152.19 -469.31,155 -284.31,4.06 -378.84,-281.01 -808.2,-76.09z"/>
 <path class="fil1w" d="M1143.5 14133.79l0 -735.63 -929.52 0 -424.72 735.63 1354.24 0zm1657.11 -654.32l1078.78 0 -149.75 -259.4 -929.03 0 0 259.4z"/>
 <path id="Upper_x0020_arm" class="fil1w" d="M2645.96 12280.59l-177.83 -314.29c-7.54,-13.31 -17.95,-24 -30.01,-31.78l-352.7 -229.39c-14.45,-9.48 -31.73,-15 -50.2,-15l-454.98 0.36c-25.92,0 -50.75,11.43 -67.92,30.46l-304.74 337.84c-33.7,37.37 -30.55,95.68 6.83,129.31 37.44,33.68 95.58,30.56 129.31,-6.83l277.54 -307.69 354.75 -0.26 -348.97 536.44c-9.93,15.24 -15.35,32.15 -16.62,49.17l-74.73 499.72 -491.23 143.7c-55.34,16.2 -86.71,75.14 -70.59,130.24 16.25,55.52 74.58,87.78 129.65,71.66l555.79 -162.57c38.76,-11.34 68.54,-45.44 74.49,-85.39l61.55 -411.59 28.46 18.52 410.01 365.37 190.3 518.94c19.88,54.17 80.72,81.49 134.67,61.72 54.31,-19.91 82.58,-80.28 62.83,-134.16l-199.36 -543.65c-5.87,-16 -16.05,-30.98 -28.78,-42.32l-364.85 -325.15 303.37 -466.36 199.9 353.24c25.89,46.01 83.99,60.53 132.88,31.52l385.41 -228.7c43.25,-25.65 57.79,-82.13 32.19,-125.43 -25.64,-43.32 -82.11,-57.88 -125.43,-32.19l-310.99 184.54zm-100.34 -557.06c55.84,-85.83 31.52,-200.69 -54.33,-256.53 -85.84,-55.84 -200.7,-31.52 -256.54,54.31 -55.84,85.85 -31.52,200.71 54.32,256.55 85.85,55.84 200.69,31.52 256.55,-54.33z"/>
</symbol>
 <g id="Ebene_x0020_1">
  <metadata id="CorelCorpID_0Corel-Layer"/>
  <use id="ISO_x0020_7010_x0020_W068_0" transform="scale(0.571429 0.571428)" x="-0" y="0.01" width="7000" height="6117.6" xlink:href="#ISO_x0020_7010_x0020_W068"/>
 </g>
</svg>
