<?xml version="1.0" encoding="UTF-8"?>
<!DOCTYPE svg PUBLIC "-//W3C//DTD SVG 1.1//EN" "http://www.w3.org/Graphics/SVG/1.1/DTD/svg11.dtd">
<!-- Creator: Corel DESIGNER -->
<svg xmlns="http://www.w3.org/2000/svg" xml:space="preserve" width="40mm" height="34.9578mm" version="1.1" style="shape-rendering:geometricPrecision; text-rendering:geometricPrecision; image-rendering:optimizeQuality; fill-rule:evenodd; clip-rule:evenodd"
viewBox="0 0 1000 873.95"
 xmlns:xlink="http://www.w3.org/1999/xlink"
 xmlns:xodm="http://www.corel.com/coreldraw/odm/2003">
 <defs>
  <style type="text/css">
   <![CDATA[
    .fil0w {fill:#F5CA2B}
    .fil1w {fill:#21251E}
   ]]>
  </style>
 </defs>
<symbol id="ISO_x0020_7010_x0020_W070" viewBox="1125 701.44 1750 1529.4">
 <polygon class="fil0w" points="2822.6,2177.98 1177.99,2177.98 2000.29,753.7 "/>
 <path class="fil1w" d="M1269.4 2125.48l730.6 -1265.43 730.6 1265.43 -1461.2 0zm1553.3 105.35l-1645.4 0c-40.29,0 -65.33,-43.37 -45.19,-78.26l822.7 -1424.97c20.14,-34.89 70.23,-34.89 90.38,0l822.7 1424.97c20.14,34.89 -4.9,78.26 -45.19,78.26z"/>
 <path id="Head" class="fil1w" d="M2155.71 1367.61c18.42,-24.52 13.48,-59.33 -11.03,-77.75 -24.52,-18.42 -59.33,-13.48 -77.75,11.03 -18.42,24.52 -13.48,59.33 11.03,77.75 24.52,18.42 59.33,13.48 77.75,-11.03zm-36.41 60.88c7.07,5.43 10.94,13.16 11.01,22.12l-0.69 125.1 86.36 90.72c10.4,10.93 9.93,28.38 -1.01,38.77 -10.94,10.38 -28.37,9.92 -38.76,-1.01l-93.94 -98.68c-5,-5.29 -7.52,-11.91 -7.55,-19.04l0.55 -99.38 -93.34 124.21 88.05 121.65c3.39,4.67 5.34,10.16 5.88,15.9l14.18 172.83c1.44,17.55 -12.14,31.49 -28.84,33.7 -17.18,2.28 -32.54,-11.43 -33.95,-28.56l-13.45 -164.06 -83.07 -114.77 8.3 95.25c0.48,6.07 -0.75,12.21 -3.59,17.55l-81.57 153.03c-8.08,15.16 -27.2,20.9 -42.49,12.75 -15.29,-8.14 -21.19,-27.22 -13.11,-42.38l77.17 -144.79 -14.24 -163.45c-0.55,-8.28 1.21,-15.21 6.16,-21.94l114.18 -151.94 -104.15 0.03 -87.26 89.13c-10.55,10.77 -27.99,11 -38.77,0.46 -10.8,-10.53 -11.02,-28 -0.47,-38.78l95.32 -97.35c5.29,-5.3 12.06,-8.3 19.59,-8.3l136.24 -0.04c6.19,0 11.93,2.07 16.54,5.56l100.72 75.7z"/>
 <polygon class="fil1w" points="1965.24,2004.38 2483.86,2004.38 2483.86,2049.59 1920.04,2049.59 1920.04,1972.11 1521.44,1972.11 1521.44,1926.9 1965.24,1926.9 "/>
</symbol>
 <g id="Ebene_x0020_1">
  <metadata id="CorelCorpID_0Corel-Layer"/>
  <use id="ISO_x0020_7010_x0020_W070_0" transform="scale(0.571429 0.571428)" x="-0" y="0" width="1750" height="1529.4" xlink:href="#ISO_x0020_7010_x0020_W070"/>
 </g>
</svg>
