<?xml version="1.0" encoding="UTF-8"?>
<!DOCTYPE svg PUBLIC "-//W3C//DTD SVG 1.1//EN" "http://www.w3.org/Graphics/SVG/1.1/DTD/svg11.dtd">
<!-- Creator: Corel DESIGNER -->
<svg xmlns="http://www.w3.org/2000/svg" xml:space="preserve" width="40mm" height="40mm" version="1.1" style="shape-rendering:geometricPrecision; text-rendering:geometricPrecision; image-rendering:optimizeQuality; fill-rule:evenodd; clip-rule:evenodd"
viewBox="0 0 4000 4000"
 xmlns:xlink="http://www.w3.org/1999/xlink"
 xmlns:xodm="http://www.corel.com/coreldraw/odm/2003">
 <defs>
  <style type="text/css">
   <![CDATA[
    .fil0e {fill:#008E5E}
    .fil1 {fill:white}
   ]]>
  </style>
 </defs>
<symbol id="ISO_x0020_7010_x0020_E016" viewBox="-1500 2616.66 7000 7000">
 <polygon class="fil0e" points="-1500,9616.66 5500,9616.66 5500,2616.66 -1500,2616.66 "/>
 <path class="fil1" d="M1957.71 4689.25l511.94 0 0 369.92c0,11 5.53,17.88 13.49,25.85l324.18 324.88 0 -886.67c0,-104.43 -100.39,-166.92 -167.35,-166.92l-883.34 0c-35.38,0.13 -63.45,14.52 -89.59,40.86 -349.66,352.34 -703.77,702.17 -1050.85,1056.9 -34.15,34.9 -67.6,44.22 -106.46,42.82l-716.88 0c-236.27,1.82 -231.09,337.27 0,337.7l880.71 0c38.55,-0.06 54.77,-6.34 87.84,-39.79l575.24 -581.86c11.7,-11.83 30.98,-13.93 45.98,1.1l672.24 673.64c20.94,20.98 14.59,35.02 -4.34,54.07l-1356.03 1364.46c-170.45,171.51 117.49,435.69 293.81,258.46l1625.34 -1633.68c8.44,-8.48 20.29,-8.12 30.74,-0.61l172.38 171.59c8.07,8.03 25,15.89 35.62,15.12l530.2 0 -1424.87 -1427.84zm-660.93 -589c-148.79,-116.84 -363.76,-91.39 -480.17,56.84 -116.4,148.23 -90.14,363.11 58.64,479.95 148.79,116.83 363.77,91.39 480.17,-56.84 116.4,-148.24 90.15,-363.12 -58.64,-479.95z"/>
 <ellipse class="fil1" transform="matrix(0.140377 -0.178762 0.178762 0.140377 1086.02 4368.64)" rx="1501.41" ry="1507.05"/>
 <path class="fil1" d="M1678.06 6183.37l215.58 -215.05 0 -105.56 -215.58 -214.77 0 535.38zm0 -1906.78c23.73,-9.83 34.27,-13.77 74.04,-15.69l141.44 -0.05 0.1 -782.93 2605.02 0 0 2741.94 -2037.61 0 -229.19 229.67 2492.71 0 0 -3190.35 -3046.51 0 0 1017.41z"/>
 <path class="fil1" d="M704.65 3252.42l171.47 0 0 731.99c-71.89,38.97 -131.29,97.68 -171.47,168.78l0 -316.48 -1251.96 0 0 796.38 1251.96 0 0 -51.26c40.11,71.59 99.66,130.34 171.47,169.83l0 303.22c-57.25,57.58 -114.42,115.25 -171.47,173.04l0 -433.12 -1251.96 0 0 796.38 90.01 0c-15.85,52.31 -16.96,109.32 -1.54,161.72l-88.47 0 0 796.38 1251.96 0 0 -620.82c79.16,-8.71 119.68,-61.52 171.47,-113.91l0 1173.48 -171.47 172.54 0 -449.58 -1251.96 0 0 796.38 1108.57 0c21.37,64.58 66.44,122.69 127.15,161.72l-1235.72 0 0 796.38 1251.96 0 0 -786.62c51.82,29.11 112.02,43.99 171.47,39.04l0 1276.91 -171.47 0 0 -367.62 -1251.96 0 0 367.62 -171.47 0 0 -5742.38 171.47 0 0 422.57 1251.96 0 0 -422.57z"/>
</symbol>
 <g id="Ebene_x0020_1">
  <metadata id="CorelCorpID_0Corel-Layer"/>
  <use id="ISO_x0020_7010_x0020_E016_0" transform="scale(0.571429 0.571429)" x="-0" y="-0" width="7000" height="7000" xlink:href="#ISO_x0020_7010_x0020_E016"/>
 </g>
</svg>
