<?xml version="1.0" encoding="UTF-8"?>
<!DOCTYPE svg PUBLIC "-//W3C//DTD SVG 1.1//EN" "http://www.w3.org/Graphics/SVG/1.1/DTD/svg11.dtd">
<!-- Creator: Corel DESIGNER -->
<svg xmlns="http://www.w3.org/2000/svg" xml:space="preserve" width="40mm" height="40mm" version="1.1" style="shape-rendering:geometricPrecision; text-rendering:geometricPrecision; image-rendering:optimizeQuality; fill-rule:evenodd; clip-rule:evenodd"
viewBox="0 0 2000 2000"
 xmlns:xlink="http://www.w3.org/1999/xlink"
 xmlns:xodm="http://www.corel.com/coreldraw/odm/2003">
 <defs>
  <style type="text/css">
   <![CDATA[
    .fil0e {fill:#008E5E}
    .fil1 {fill:white}
   ]]>
  </style>
 </defs>
<symbol id="ISO_x0020_7010_x0020_E017" viewBox="-3750 1308.33 3500 3500">
 <polygon class="fil0e" points="-3750,1308.33 -250,1308.33 -250,4808.33 -3750,4808.33 "/>
 <path class="fil1" d="M-1540.38 3627.49l-247.16 0.31 0 343.24 -835.49 0 0 -506.53 -279.03 0 -263.96 23.51c-22.03,1.97 -31.25,6.82 -45,35.79l-137.84 350.43c-2.86,7.28 -5.22,15.05 -5.23,22.86l-0.4 351.86c1.15,49.73 30.49,64.51 69.63,64.51l32.48 0c-0.85,-130.62 103.41,-238.36 234.49,-242.91 133.37,-4.63 246.47,99.24 251.12,232.94 0.1,3.02 0.13,6.04 0.13,9.05l982.14 0.24c-0.49,-130.32 103.64,-237.68 234.49,-242.23 133.37,-4.63 246.47,99.24 251.12,232.94 0.11,3.05 0.13,6.07 0.12,9.1l142.98 0.75c7.61,-0.62 13.99,-1.43 20.3,-4.19l151.36 -60.35 0 -277.76 -306.95 0 0 -91.09 30.72 -17.2 52.12 65.2 155.18 0 74.43 -276.37 -510.24 -678.88c-2.73,16.11 -9.86,30.64 -20.9,42.22l48.4 64.4 -195.56 -3.66 -21.91 -29.15 26.05 -96.72 0 -195.2 -195.86 -260.59 -52.64 0 16.28 21.66 -195.56 -3.66 -21.91 -29.16 50.86 -188.86 60.33 80.28c8.4,-11.76 19.84,-20.71 33.26,-25.79l-297.23 -395.47 -302.34 -5.66 3.61 4.79 855.03 1137.64 -32.86 143.16 262.01 348.74 -70.55 45.82zm-1707.45 251.93l378.74 -33.82 0 -283.2 -305.61 26.87c-5.86,0.52 -10.82,6.51 -12.97,11.99l-89.55 227.77c-10.42,26.53 10.02,52.12 29.39,50.39zm2172.36 -30.11l44.2 -164.11 -169.94 -3.18 125.74 167.3zm37.74 -206.32l-166.61 -221.68 -50.86 188.86 21.92 29.16 195.56 3.66zm-205.36 -239.62l-169.94 -3.18 125.74 167.3 44.2 -164.12zm-6.47 -42.2l-166.61 -221.68 -50.87 188.86 21.92 29.16 195.55 3.66zm-205.36 -239.62l-169.94 -3.18 125.74 167.3 44.2 -164.12zm-211.82 -281.83l-169.93 -3.18 125.73 167.3 44.2 -164.12zm-6.47 -42.21l-166.61 -221.68 -50.86 188.86 21.91 29.16 195.55 3.66zm-205.36 -239.62l-169.93 -3.18 125.74 167.3 44.19 -164.12zm-211.82 -281.83l-169.93 -3.18 125.74 167.3 44.19 -164.12zm-6.46 -42.21l-166.61 -221.68 -50.86 188.86 21.91 29.16 195.56 3.66zm-205.36 -239.62l-169.93 -3.17 125.73 167.3 44.2 -164.12zm-700.91 2511.39c107.73,-3.56 192.2,-93.17 188.66,-200.14 -3.54,-106.97 -93.75,-190.8 -201.48,-187.24 -107.73,3.57 -192.19,93.17 -188.66,200.15 3.54,106.97 93.74,190.8 201.48,187.23zm1467.95 -0.01c107.73,-3.6 192.16,-93.24 188.58,-200.22 -3.58,-106.97 -93.82,-190.76 -201.55,-187.15 -107.73,3.61 -192.16,93.24 -188.58,200.22 3.58,106.97 93.82,190.77 201.55,187.15zm-1148.72 -1063.19l-139.38 0 0 -69.69c0,-38.34 31.36,-69.69 69.69,-69.69l0 0c38.33,0 69.68,31.36 69.68,69.69l0 69.69z"/>
 <path class="fil1" d="M-1546.46 2497.38l63.99 -63.84 0 -31.34 -63.99 -63.76 0 158.93zm0 -566.04c7.05,-2.92 10.17,-4.09 21.97,-4.66l41.99 -0.01 0.02 -232.42 773.33 0 0 813.97 -604.88 0 -68.04 68.18 739.99 0 0 -947.08 -904.38 0 0 302.03z"/>
 <path class="fil1" d="M-1463.45 2053.84l151.98 0 0 109.81c0,3.26 1.63,5.31 4,7.67l96.23 96.45 0 -263.22c0,-31 -29.8,-49.55 -49.67,-49.55l-262.23 0c-10.5,0.04 -18.84,4.31 -26.6,12.13 -60.12,60.58 -108.67,108.87 -169.02,169.38 -7.67,7.7 -8.36,13.92 -8.36,25.91l-0.01 206.34 -204.57 0c-60.97,0 -71.22,100.24 0,100.24l261.44 0c32.12,0 44.38,-20.15 44.41,-42.25l0.26 -189.61c0.01,-9.26 9.13,-9.76 13.38,-5.51l177.6 177.97c6.22,6.22 4.4,10.48 -1.29,16.05l-179.73 175.8c-7.92,7.74 -12.18,19.84 -12.18,30.91l0 325.22c0,81.34 115.18,74.21 115.18,0l0 -289.97 243.89 -245.14c2.51,-2.52 6.03,-2.41 9.12,-0.19l51.18 50.94c2.39,2.38 7.42,4.72 10.57,4.49l157.4 0 -422.99 -423.86zm-196.2 -174.86c-44.17,-34.68 -107.99,-27.13 -142.54,16.88 -34.56,44 -26.76,107.79 17.41,142.48 44.17,34.68 107.99,27.13 142.54,-16.87 34.56,-44.01 26.76,-107.8 -17.41,-142.48z"/>
</symbol>
 <g id="Ebene_x0020_1">
  <metadata id="CorelCorpID_0Corel-Layer"/>
  <use id="ISO_x0020_7010_x0020_E017_0" transform="scale(0.571429 0.571429)" x="-0" y="-0" width="3500" height="3500" xlink:href="#ISO_x0020_7010_x0020_E017"/>
 </g>
</svg>
