<?xml version="1.0" encoding="UTF-8"?>
<!DOCTYPE svg PUBLIC "-//W3C//DTD SVG 1.1//EN" "http://www.w3.org/Graphics/SVG/1.1/DTD/svg11.dtd">
<!-- Creator: Corel DESIGNER -->
<svg xmlns="http://www.w3.org/2000/svg" xml:space="preserve" width="40mm" height="40mm" version="1.1" style="shape-rendering:geometricPrecision; text-rendering:geometricPrecision; image-rendering:optimizeQuality; fill-rule:evenodd; clip-rule:evenodd"
viewBox="0 0 2000 2000"
 xmlns:xlink="http://www.w3.org/1999/xlink"
 xmlns:xodm="http://www.corel.com/coreldraw/odm/2003">
 <defs>
  <style type="text/css">
   <![CDATA[
    .fil2 {fill:none}
    .fil0e {fill:#008E5E}
    .fil1 {fill:white}
   ]]>
  </style>
 </defs>
<symbol id="ISO_x0020_7010_x0020_E020" viewBox="-3750 -1808.34 3500 3500">
 <rect class="fil0e" x="-3750.01" y="-1808.34" width="3500" height="3500"/>
 <path class="fil1" d="M-1881.82 1215.91l0 -715.46 266.06 0c0,-215.55 -174.74,-390.3 -390.3,-390.3 -215.55,0 -390.3,174.75 -390.3,390.3l266.06 0 0 715.46 -277.27 0 0 160.61 803.03 0 0 -160.61 -277.28 0z"/>
 <polygon class="fil1" points="-3437.88,1051.58 -2219.01,1051.58 -2219.01,1173.49 -2299.18,1173.49 -2299.18,1131.75 -3437.88,1131.75 "/>
 <polygon class="fil1" points="-562.36,1051.58 -1781.23,1051.58 -1781.23,1173.49 -1701.06,1173.49 -1701.06,1131.75 -562.36,1131.75 "/>
 <path class="fil2" d="M-3202.26 -90.8c104.48,45.45 262.29,18.69 321.97,-113.64l87.12 -193.19 276.52 -208.34 249.05 -98.49 306.81 0"/>
 <path class="fil2" d="M-1838.62 -412.76l-268.93 132.58 -252.38 84.75c-130.13,43.7 -165.25,212.29 -156.72,290.25"/>
 <path class="fil2" d="M-1960.79 -704.44c57.09,69.84 98.15,166.46 122.16,291.67"/>
 <path class="fil1" d="M-2203.88 -290.13l69.11 -153.21 197.63 -148.91c-6,-12.31 -12.43,-24.33 -19.36,-36.01l-77.96 30.83 -251.43 189.44 -77.27 171.34 159.28 -53.49zm-378.51 99.27c-18.63,40.59 -45.91,73.79 -78.62,99.11 107.18,1.45 212.07,-54.06 259.89,-158.25l82.91 -183.83 263.97 -198.89 79.99 -31.63 -31.71 0 -229.56 90.78 -263.97 198.88 -82.9 183.83zm-342.03 103.58c103.93,36.01 248.88,5.48 305.49,-120.06l87.12 -193.18 276.52 -208.34 140.32 -55.49 -144.99 0 -236.91 93.69 -263.97 198.89 -82.91 183.82c-19.01,41.43 -47.05,75.16 -80.66,100.67zm2362.31 -1401.25l-678.03 0 -68.18 325.76c-13.81,66.01 -91.65,125 -159.1,125l-11.36 0 -727.28 37.88 -443.18 181.82 -333.34 261.37 -219.7 465.91c104.48,45.45 262.3,18.69 321.98,-113.64l87.12 -193.19 276.51 -208.34 249.05 -98.49 306.82 0c57.09,69.84 98.15,166.46 122.16,291.67l-268.93 132.58 -252.38 84.75c-130.14,43.7 -165.25,212.29 -156.72,290.25 379.65,-82.43 774.82,-178.26 1214.02,-382.57 110.84,-51.56 252.36,-120.83 312.5,-227.28l388.35 -687.36c22.57,-39.95 39.68,-85.92 39.68,-131.81l0 -154.33z"/>
</symbol>
 <g id="Ebene_x0020_1">
  <metadata id="CorelCorpID_0Corel-Layer"/>
  <use id="ISO_x0020_7010_x0020_E020_0" transform="scale(0.571429 0.571429)" x="-0" y="-0" width="3500" height="3500" xlink:href="#ISO_x0020_7010_x0020_E020"/>
 </g>
</svg>
