<?xml version="1.0" encoding="UTF-8"?>
<!DOCTYPE svg PUBLIC "-//W3C//DTD SVG 1.1//EN" "http://www.w3.org/Graphics/SVG/1.1/DTD/svg11.dtd">
<!-- Creator: Corel DESIGNER -->
<svg xmlns="http://www.w3.org/2000/svg" xml:space="preserve" width="40mm" height="40mm" version="1.1" style="shape-rendering:geometricPrecision; text-rendering:geometricPrecision; image-rendering:optimizeQuality; fill-rule:evenodd; clip-rule:evenodd"
viewBox="0 0 4000 4000"
 xmlns:xlink="http://www.w3.org/1999/xlink"
 xmlns:xodm="http://www.corel.com/coreldraw/odm/2003">
 <defs>
  <style type="text/css">
   <![CDATA[
    .fil0e {fill:#008E5E}
    .fil1 {fill:white}
   ]]>
  </style>
 </defs>
<symbol id="ISO_x0020_7010_x0020_E024" viewBox="-1500 8850 7000 7000">
 <polygon class="fil0e" points="-1500,8850 5500,8850 5500,15850 -1500,15850 "/>
 <polygon class="fil1" points="-597.29,9481.75 222.79,10301.83 222.79,9479.31 601.1,9857.62 601.09,10968.14 -509.42,10968.14 -887.74,10589.83 -65.22,10589.83 -885.29,9769.75 "/>
 <polygon class="fil1" points="-868.25,14947.31 -48.17,14127.23 -870.69,14127.23 -492.38,13748.92 618.14,13748.93 618.14,14859.44 239.83,15237.76 239.83,14415.24 -580.25,15235.31 "/>
 <polygon class="fil1" points="4597.31,15218.27 3777.23,14398.19 3777.23,15220.71 3398.92,14842.4 3398.93,13731.88 4509.44,13731.88 4887.76,14110.19 4065.24,14110.19 4885.31,14930.27 "/>
 <polygon class="fil1" points="4868.27,9752.71 4048.19,10572.79 4870.71,10572.79 4492.4,10951.1 3381.88,10951.09 3381.88,9840.58 3760.19,9462.26 3760.19,10284.78 4580.27,9464.71 "/>
 <path class="fil1" d="M1291.41 12054.52c-196.47,196.46 -317.99,467.88 -317.99,767.64 0,299.78 121.52,571.18 317.99,767.65 196.47,196.47 467.89,317.99 767.65,317.99 299.76,0 571.18,-121.52 767.64,-317.99 12.42,-12.42 24.54,-25.14 36.35,-38.14l-111.3 -262.78c-30.06,44.53 -64.29,85.99 -102.14,123.83 -151.11,151.12 -359.91,244.6 -590.55,244.6 -230.64,0 -439.44,-93.48 -590.56,-244.6 -151.12,-151.12 -244.6,-359.92 -244.6,-590.56 0,-216.83 82.62,-414.36 218.08,-562.79l-38.4 -302.67c-39.61,30.03 -77.08,62.73 -112.17,97.82zm729.79 -1088.82c0,-159.64 -129.43,-289.07 -289.08,-289.07 -159.64,0 -289.07,129.43 -289.07,289.07 0,159.65 129.43,289.08 289.07,289.08 159.65,0 289.08,-129.43 289.08,-289.08zm31.33 1027.23l604.67 0c80.5,0 146.35,65.86 146.35,146.36 0,80.49 -65.85,146.35 -146.35,146.35l-570.47 0 19.35 165.67 592.84 0c85.64,0 158.79,48.45 192.19,127.31l336.17 793.63c33.17,78.32 -3.04,171.27 -82.08,202.69 -66.57,26.46 -164.74,7.55 -202.7,-82.07l-310.17 -732.3 -841.82 0c-106.44,0 -194.94,-78.75 -207.32,-184.46l-110.53 -944.53c-17.04,-145.85 85.59,-280.03 231.3,-298.51 145.1,-18.41 281.44,85.22 298.49,231.3l50.08 428.56z"/>
</symbol>
 <g id="Ebene_x0020_1">
  <metadata id="CorelCorpID_0Corel-Layer"/>
  <use id="ISO_x0020_7010_x0020_E024_0" transform="scale(0.571429 0.571429)" x="-0" y="-0" width="7000" height="7000" xlink:href="#ISO_x0020_7010_x0020_E024"/>
 </g>
</svg>
