<?xml version="1.0" encoding="UTF-8"?>
<!DOCTYPE svg PUBLIC "-//W3C//DTD SVG 1.1//EN" "http://www.w3.org/Graphics/SVG/1.1/DTD/svg11.dtd">
<!-- Creator: Corel DESIGNER -->
<svg xmlns="http://www.w3.org/2000/svg" xml:space="preserve" width="40mm" height="40mm" version="1.1" style="shape-rendering:geometricPrecision; text-rendering:geometricPrecision; image-rendering:optimizeQuality; fill-rule:evenodd; clip-rule:evenodd"
viewBox="0 0 4000 4000"
 xmlns:xlink="http://www.w3.org/1999/xlink"
 xmlns:xodm="http://www.corel.com/coreldraw/odm/2003">
 <defs>
  <style type="text/css">
   <![CDATA[
    .fil0e {fill:#008E5E}
    .fil1 {fill:white}
   ]]>
  </style>
 </defs>
<symbol id="ISO_x0020_7010_x0020_E027" viewBox="-1500 2616.66 7000 6999.99">
 <rect class="fil0e" x="-1500" y="2616.65" width="7000" height="6999.99"/>
 <path class="fil1" d="M3962.89 6760.99l20.44 -12.9c15.28,-9.64 27.79,-0.05 27.79,21.32 0,19.26 -11.05,45.83 -27.79,56.39l-20.44 12.9c-15.29,9.65 -27.79,0.05 -27.79,-21.32l0 0c0,-21.37 12.5,-46.74 27.79,-56.39zm84.67 -296.05l69.06 -43.58c21.05,-13.28 38.26,-48.21 38.26,-77.63 0,-23.28 -13.41,-45.03 -38.26,-29.35l-69.06 43.58c-21.04,13.28 -38.25,48.21 -38.25,77.63 0,23.28 13.4,45.02 38.25,29.35zm0 -216.81l69.06 -43.58c21.05,-13.28 38.26,-48.21 38.26,-77.62 0,-23.28 -13.41,-45.04 -38.26,-29.35l-69.06 43.57c-21.04,13.29 -38.25,48.21 -38.25,77.64 0,23.27 13.4,45.02 38.25,29.34zm11.54 439.07l20.44 -12.9c15.29,-9.65 27.79,-0.06 27.79,21.32 0,19.26 -11.05,45.82 -27.79,56.39l-20.44 12.9c-15.28,9.64 -27.79,0.05 -27.79,-21.32 0,-19.26 11.05,-45.83 27.79,-56.39zm96.67 -65.28l20.45 -12.9c15.28,-9.64 27.78,-0.05 27.78,21.32 0,19.26 -11.04,45.83 -27.78,56.39l-20.45 12.9c-15.28,9.65 -27.78,0.05 -27.78,-21.32 0,-19.26 11.04,-45.83 27.78,-56.39zm94.15 -66.62l20.44 -12.9c15.28,-9.64 27.78,-0.05 27.78,21.32 0,19.26 -11.04,45.83 -27.78,56.39l-20.44 12.9c-15.29,9.65 -27.79,0.06 -27.79,-21.32 0,-19.25 11.05,-45.82 27.79,-56.39zm96.67 -69.4l20.44 -12.9c15.29,-9.65 27.79,-0.06 27.79,21.32 0,19.26 -11.05,45.82 -27.79,56.39l-20.44 12.9c-15.28,9.64 -27.79,0.05 -27.79,-21.32 0,-19.26 11.05,-45.83 27.79,-56.39zm-5087.62 1948.8l982.57 83.35 11.92 -1135.15 -1017.02 -67.8 -4.96 1089.55c-0.07,15.81 11.57,28.7 27.49,30.05zm4788.59 -2401.4l69.06 -43.58c12.97,-8.18 24.47,-24.57 31.4,-42.84l55 100.08c-23.65,48.82 -6.2,94.7 27.35,73.53l9.7 -6.12 42.26 76.89 -8.99 5.68c-21.04,13.28 -38.26,48.21 -38.26,77.63 0,29.42 17.22,42.63 38.26,29.35l52.64 -33.23 37.91 68.97 48.7 -171.83 0 159.2 -527.89 323.11 0 -770.38c0,-55.71 -43.76,-101.86 -99.75,-104.69l-956.53 -48.48c-9.35,-65.04 -23.34,-125.45 -41.47,-181.52l30.97 -16.57 72.66 3.48 -8.23 7.64c-37.28,34.58 71.32,41.96 110.49,5.64l8.6 -7.98 74.95 3.58c-45.75,42.46 68.3,44.76 110.86,5.3l76.52 3.66c-36.41,34.5 72.13,41.45 110.86,5.3l77.01 3.68c-42.49,39.4 69.34,43.81 110.86,5.3l77.13 3.69 -7.04 6.53c-37.28,34.58 71.32,41.97 110.49,5.64l7.41 -6.87 71.67 3.43c-39.5,36.64 69.8,43.39 110.86,5.3l122.96 5.88 -39.21 34.43c-31.47,27.65 10.49,75.4 41.95,47.76l28.12 -24.7 -2.03 134.71c-1.93,12.91 -2.22,26.02 -0.57,38.18l-1.3 85.92 -35.38 22.33c-21.04,13.28 -38.25,48.2 -38.25,77.63 0,29.42 17.21,42.62 38.25,29.34zm365.03 43.99l-216.5 -352.33c-20.22,-32.9 -51.81,-31.59 -72.84,-18.31l1.43 -94.69c14.59,-12.82 30.04,-31.25 11.48,-52.38l-0.01 0c-16.37,-18.66 -31.46,-6.96 -42.43,-7.48l-122.34 -5.85c36.83,-34.52 -71.67,-41.84 -110.86,-5.3l-72.87 -3.49c7.85,-12.45 -4.5,-22.8 -30.98,-24.15 -26.73,-1.37 -59.3,6.87 -77.63,18.96l-78.25 -3.74c13.89,-14.29 1.92,-26.93 -27.55,-28.44 -29.71,-1.52 -66.64,8.83 -83.21,23.14l-77.05 -3.68c39.8,-36.94 -69.61,-43.58 -110.86,-5.3l-76.8 -3.68c11.77,-13.69 -0.37,-25.55 -28.86,-27.01 -28.73,-1.46 -64.19,8.16 -81.49,21.74l-76.89 -3.68c6.41,-11.94 -5.98,-21.7 -31.66,-23.01 -25.92,-1.33 -57.32,6.37 -75.92,17.87l-74.22 -3.55c33.85,-31.34 -42.97,-42.39 -94.47,-16.57 -19.75,-48.08 -42.79,-92.62 -68.78,-133.85l1572.36 65.14c82.17,3.4 147.2,70.97 147.2,153.63l0 516.01zm-4568.1 -749.38c4.97,7.08 0.13,13.79 -7.29,20.67l92.32 4.41c18.14,-12.44 51.38,-20.99 78.59,-19.6 26.96,1.37 39.27,12.07 30.54,24.82l77.45 3.7c18.43,-11.89 50.62,-19.96 77.09,-18.61 26.23,1.34 38.59,11.5 31.21,23.79l78.35 3.75c1.58,-0.4 56.69,-29.25 96.69,-13.68 24.92,-38.19 51.75,-73.58 80.29,-106.35l-448.77 -18.6 -186.47 95.7zm1310.73 55.29c18.2,6.52 15.81,17.2 3.56,28.57l72.16 3.45c41.25,-38.23 150.52,-31.43 110.87,5.3l78.45 3.75c40.15,-37.37 148.79,-29.67 110.87,5.3l72.18 3.45c16.3,-14.56 53.7,-25.15 83.75,-23.62 29.8,1.52 41.7,14.43 27.07,28.92l81.68 3.91c16.7,-14.2 53.38,-24.43 82.94,-22.92 29.31,1.5 41.31,14.02 27.77,28.21l81.84 3.91c17.07,-13.83 53.02,-23.68 82.08,-22.2 7.01,0.36 13.02,1.35 17.93,2.84 -122.88,-63.78 -281.88,-98.52 -475.13,-101.01 -187.28,4.89 -327.98,11.95 -458.02,52.14zm944.93 55.13c5.05,4.95 4.95,11.45 -1.28,18.39l35.6 1.7c-11.1,-6.97 -22.53,-13.67 -34.32,-20.09zm110.79 77.29c-50.08,16.56 -104.31,4.82 -81.52,-20.04l-68.71 -3.28c-42.06,39.04 -155.6,36.18 -110.85,-5.3l-81.61 -3.9c-41.74,38.71 -153.82,34.59 -110.85,-5.3l-81.6 -3.91c-41.28,38.3 -152.18,33.02 -110.86,-5.29l-72.17 -3.46c-40.74,37.75 -149.38,30.36 -110.86,-5.29l-78.46 -3.76c-39.79,36.57 -147.27,29.02 -110.86,-5.29l-72.22 -3.46c-16.6,14.3 -53.46,24.61 -83.14,23.1 -25.77,-1.32 -38.16,-11.15 -31.59,-23.15 -73.82,41.11 -148.77,97.48 -231.87,175.18l1570.69 79.6c-30.43,-72.08 -75.09,-134.47 -133.52,-186.45zm-1851.57 -91.51c-46.67,32.58 -139.79,22.22 -105.18,-9.89l8.51 -7.89 -75.31 -3.6c-22.37,20.75 -53.02,33.35 -92.09,31.36 -30.39,-1.56 -42.17,-14.95 -26.19,-29.78l7.42 -6.88 -75.31 -3.6c-51.72,47.95 -152.2,33.05 -117.19,0.57l6.33 -5.87 -91.54 -4.38c-16.37,14.5 -53.65,25.02 -83.6,23.49 -7.8,-0.39 -14.37,-1.57 -19.56,-3.36l-290.09 148.86 877.22 44.45c21.89,-62.84 47.57,-120.54 76.58,-173.48zm2731.06 -139.92c-174.8,-179.75 -399.7,-319.53 -663.3,-330.62 -91.97,-3.87 -172.41,-0.72 -243.19,8.26 -166.52,-57.27 -349.82,-83.68 -531.37,-90.52 -384.08,-14.47 -811.33,37.25 -1103.08,307.61l-525.27 -21.76c-7.3,-0.29 -14.2,1.54 -20.1,4.95l-759.48 387.19c-42.68,21.76 -75.09,53.82 -75.29,101.68l-12.53 2753.38c-0.25,54.71 41.67,100.39 96.01,104.99l4518.17 383.31c32.61,2.76 62.91,-17.76 96.14,-38.67l600.43 -378.88c11.87,-6.29 19.97,-18.77 19.97,-33.14l0 -2880.69c0,-122.32 -96.59,-223.21 -219.22,-228.28l-1177.89 -48.81zm1322.16 1589.24l0 -458.74 -527.89 323.12 0 2016.73 527.89 -333.11 0 -1548zm-5168.58 -1222.16l-4.94 1084.91 1020.48 66.29 11.88 -1130.62 -995.64 -50.45c-14.63,-0.76 -31.71,12.98 -31.78,29.87zm1463.33 2906.3l1655.15 140.41 -1.07 -1174.55 -1640.69 -109.38 -13.39 1143.52zm2127.31 180.47l942.5 79.96c17.89,1.52 32.61,-11.73 32.61,-29.89l0 -1168.12 -976.18 -65.08 1.07 1183.13zm975.11 -1704.96l0 -1153.32c0,-16.18 -12.51,-29.24 -28.33,-30.04l-949.45 -48.11 1.06 1168.03 976.72 63.44zm-1449.94 -1255.4l-1618.96 -82.04 -13.32 1137.23 1633.35 106.1 -1.07 -1161.29zm1812.19 149.72l-54.4 -104.93c-23.86,-46.05 25.12,-118.03 58.61,-69.84l47.71 68.65 -51.92 106.12z"/>
 <polygon class="fil1" points="4885.61,3816.47 4885.61,4401.87 4297.44,4401.87 4297.44,4990.03 3712.03,4990.03 3712.03,4401.87 3123.87,4401.87 3123.87,3816.47 3712.03,3816.47 3712.03,3228.29 4297.44,3228.29 4297.44,3816.47 "/>
</symbol>
 <g id="Ebene_x0020_1">
  <metadata id="CorelCorpID_0Corel-Layer"/>
  <use id="ISO_x0020_7010_x0020_E027_0" transform="scale(0.571429 0.571429)" x="-0" y="0.01" width="7000" height="6999.99" xlink:href="#ISO_x0020_7010_x0020_E027"/>
 </g>
</svg>
