<?xml version="1.0" encoding="UTF-8"?>
<!DOCTYPE svg PUBLIC "-//W3C//DTD SVG 1.1//EN" "http://www.w3.org/Graphics/SVG/1.1/DTD/svg11.dtd">
<!-- Creator: Corel DESIGNER -->
<svg xmlns="http://www.w3.org/2000/svg" xml:space="preserve" width="40mm" height="40mm" version="1.1" style="shape-rendering:geometricPrecision; text-rendering:geometricPrecision; image-rendering:optimizeQuality; fill-rule:evenodd; clip-rule:evenodd"
viewBox="0 0 4000 4000"
 xmlns:xlink="http://www.w3.org/1999/xlink"
 xmlns:xodm="http://www.corel.com/coreldraw/odm/2003">
 <defs>
  <style type="text/css">
   <![CDATA[
    .fil0e {fill:#008E5E}
    .fil1 {fill:white}
   ]]>
  </style>
 </defs>
<symbol id="ISO_x0020_7010_x0020_E030" viewBox="-1500 -3616.67 7000 7000">
 <polygon class="fil0e" points="-1500,-3616.67 5500,-3616.67 5500,3383.33 -1500,3383.33 "/>
 <polygon class="fil1" points="4089.67,2831.85 3645.71,3275.05 -546.05,3275.05 -117.55,2847.31 -117.55,-3176.82 4089.67,-3176.82 "/>
 <path class="fil0e" d="M1779.97 -557.37l926.76 0c101.7,0 184.91,83.2 184.91,184.9 0,101.71 -83.21,184.91 -184.91,184.91l-884.78 0 51.52 453.86 1092.13 0c101.36,0 198.99,74.73 236.73,166.81l597.68 1438.77c68.26,141.24 29.87,299.42 -117.19,371.72 -158.76,78.05 -314.78,-9.11 -378.57,-162.97l-529.22 -1276.41 -1260.13 0c-11.72,0 -23.28,-0.76 -34.61,-2.23 -181.88,-11.56 -336.11,-152.79 -357.35,-339.84l-168.15 -1481.16c-23.82,-209.8 128.35,-400.94 338.16,-424.76 217.53,0 398.32,105.14 424.78,338.15l62.24 548.25zm-834.35 637.72c-254.47,239.14 -413.43,578.75 -413.43,955.52 0,724.14 587.02,1311.17 1311.16,1311.17 493.58,0 923.38,-272.78 1147.07,-675.78l165.86 400.06c-306.21,387.79 -780.46,636.73 -1312.93,636.73 -923.52,0 -1672.19,-748.65 -1672.19,-1672.18 0,-572.46 287.73,-1077.61 726.38,-1379l48.08 423.48zm813.79 -2106.89c0,-252.52 -204.71,-457.22 -457.22,-457.22 -252.52,0 -457.23,204.7 -457.23,457.22 0,252.52 204.71,457.23 457.23,457.23 252.51,0 457.22,-204.71 457.22,-457.23z"/>
</symbol>
 <g id="Ebene_x0020_1">
  <metadata id="CorelCorpID_0Corel-Layer"/>
  <use id="ISO_x0020_7010_x0020_E030_0" transform="scale(0.571429 0.571429)" x="-0" y="-0" width="7000" height="7000" xlink:href="#ISO_x0020_7010_x0020_E030"/>
 </g>
</svg>
