<?xml version="1.0" encoding="UTF-8"?>
<!DOCTYPE svg PUBLIC "-//W3C//DTD SVG 1.1//EN" "http://www.w3.org/Graphics/SVG/1.1/DTD/svg11.dtd">
<!-- Creator: Corel DESIGNER -->
<svg xmlns="http://www.w3.org/2000/svg" xml:space="preserve" width="40mm" height="40mm" version="1.1" style="shape-rendering:geometricPrecision; text-rendering:geometricPrecision; image-rendering:optimizeQuality; fill-rule:evenodd; clip-rule:evenodd"
viewBox="0 0 1000 1000"
 xmlns:xlink="http://www.w3.org/1999/xlink"
 xmlns:xodm="http://www.corel.com/coreldraw/odm/2003">
 <defs>
  <style type="text/css">
   <![CDATA[
    .fil0e {fill:#008E5E}
    .fil1 {fill:white}
   ]]>
  </style>
 </defs>
<symbol id="ISO_x0020_7010_x0020_E032" viewBox="1125 -2462.5 1750 1750">
 <polygon class="fil0e" points="1125,-2462.5 2875,-2462.5 2875,-712.5 1125,-712.5 "/>
 <polygon class="fil1" points="1335.38,-2304.94 1485.78,-2154.54 1485.78,-2305.39 1555.16,-2236.01 1555.16,-2032.34 1351.49,-2032.34 1282.11,-2101.72 1432.96,-2101.72 1282.56,-2252.12 "/>
 <polygon class="fil1" points="2717.45,-2252.12 2567.05,-2101.72 2717.89,-2101.72 2648.51,-2032.34 2444.85,-2032.34 2444.84,-2236.01 2514.22,-2305.39 2514.22,-2154.54 2664.62,-2304.94 "/>
 <polygon class="fil1" points="2664.62,-870.05 2514.22,-1020.46 2514.22,-869.61 2444.84,-938.99 2444.85,-1142.65 2648.51,-1142.66 2717.89,-1073.28 2567.05,-1073.28 2717.45,-922.88 "/>
 <polygon class="fil1" points="1282.56,-922.88 1432.96,-1073.28 1282.11,-1073.28 1351.49,-1142.66 1555.16,-1142.65 1555.16,-938.99 1485.78,-869.61 1485.78,-1020.46 1335.38,-870.05 "/>
 <path class="fil1" d="M1997.18 -885.52l-716.11 -718.95 350.97 -157.74c0.3,12.54 5.28,23.94 13.26,32.52 -38.78,0 -49.61,25.03 -53.23,28.18l-243.53 109.48 662.25 664.88 293.84 -304.19c22.42,3.91 43.01,-13.46 43.01,-36.15l0 -8.37 304.92 -315.65 -249.62 -89.82c0,-16.1 1.2,-27.07 -2.02,-42.13l321.61 115.69c-237.09,245.46 -474.18,490.91 -711.29,736.34l-14.05 -14.11zm-281.88 -914.12l57.12 -25.68 0 42.75 -41.31 18.57c-0.17,-14.04 -6.19,-26.65 -15.82,-35.63zm269.63 -73.49l19.2 6.91 1.09 41.81 -15.71 -5.65c0,-16.22 1.25,-27.68 -4.59,-43.06zm174.44 62.78l80.96 29.13c-23.7,0 -41.13,2.41 -59.69,19.92l-45.6 -16.41 0 -28.76c8.34,2.77 17.37,1.26 24.34,-3.88z"/>
 <path class="fil1" d="M2096.63 -1588.51c0,-20.16 -16.34,-36.5 -36.5,-36.5 -20.16,0 -36.5,16.34 -36.5,36.5 0,20.16 16.34,36.5 36.5,36.5 20.16,0 36.5,-16.34 36.5,-36.5zm-88.37 98.05l9.98 0 0 337.34c0,24.2 36.72,24.2 36.72,0l0 -201.3c0,-5.23 10.19,-5.23 10.19,0l0 201.3c0,24.2 36.72,24.2 36.72,0l0 -337.34 9.29 0 0 143.94c0,22.16 33.63,22.16 33.63,0l0 -150.78 -0.33 0c-1.09,-24.68 -21.55,-44.46 -46.49,-44.46l-76.8 0c-24.94,0 -45.4,19.79 -46.49,44.46l-0.05 0 0 150.78c0,22.16 33.63,22.16 33.63,0l0 -143.94z"/>
 <path class="fil1" d="M2327.86 -1828.4c0,-25.97 -21.05,-47.02 -47.02,-47.02 -25.97,0 -47.02,21.05 -47.02,47.02 0,25.97 21.05,47.02 47.02,47.02 25.97,0 47.02,-21.05 47.02,-47.02zm-113.84 126.32l12.85 0 0 434.6c0,31.17 47.31,31.17 47.31,0l0 -259.34c0,-6.74 13.12,-6.74 13.12,0l0 259.34c0,31.17 47.31,31.17 47.31,0l0 -434.6 11.96 0 0 185.43c0,28.55 43.33,28.55 43.33,0l0 -194.25 -0.43 0c-1.41,-31.79 -27.77,-57.28 -59.89,-57.28l-98.94 0c-32.12,0 -58.49,25.49 -59.89,57.28l-0.06 0 0 194.25c0,28.55 43.33,28.55 43.33,0l0 -185.43z"/>
 <path class="fil1" d="M1922.42 -1954.77c0,-22.63 -18.35,-40.97 -40.97,-40.97 -22.63,0 -40.97,18.35 -40.97,40.97 0,22.63 18.34,40.97 40.97,40.97 22.63,0 40.97,-18.34 40.97,-40.97zm-99.2 110.07l11.2 0 0 378.68c0,27.16 41.22,27.16 41.22,0l0 -225.97c0,-5.88 11.44,-5.88 11.44,0l0 225.97c0,27.16 41.22,27.16 41.22,0l0 -378.68 10.42 0 0 161.57c0,24.88 37.75,24.88 37.75,0l0 -169.25 -0.37 0c-1.23,-27.7 -24.19,-49.91 -52.19,-49.91l-86.21 0c-27.99,0 -50.96,22.21 -52.19,49.91l-0.05 0 0 169.25c0,24.88 37.75,24.88 37.75,0l0 -161.57z"/>
 <path class="fil1" d="M2117.68 -2031.34c0,-16.6 -13.46,-30.07 -30.07,-30.07 -16.61,0 -30.07,13.46 -30.07,30.07 0,16.61 13.46,30.07 30.07,30.07 16.61,0 30.07,-13.46 30.07,-30.07zm-72.79 80.77l8.22 0 0 277.88c0,19.93 30.25,19.93 30.25,0l0 -165.82c0,-4.31 8.39,-4.31 8.39,0l0 165.82c0,19.93 30.25,19.93 30.25,0l0 -277.88 7.65 0 0 118.57c0,18.25 27.7,18.25 27.7,0l0 -124.2 -0.28 0c-0.9,-20.33 -17.75,-36.62 -38.29,-36.62l-63.26 0c-20.54,0 -37.39,16.3 -38.3,36.62l-0.04 0 0 124.2c0,18.25 27.7,18.25 27.7,0l0 -118.57z"/>
 <path class="fil1" d="M1718.08 -1763.39c0,-20.16 -16.34,-36.5 -36.5,-36.5 -20.16,0 -36.5,16.34 -36.5,36.5 0,20.16 16.34,36.5 36.5,36.5 20.16,0 36.5,-16.34 36.5,-36.5zm-88.37 98.05l9.98 0 0 337.34c0,24.2 36.72,24.2 36.72,0l0 -201.3c0,-5.23 10.19,-5.23 10.19,0l0 201.3c0,24.2 36.72,24.2 36.72,0l0 -337.34 9.29 0 0 143.93c0,22.16 33.63,22.16 33.63,0l0 -150.78 -0.33 0c-1.09,-24.68 -21.55,-44.46 -46.49,-44.46l-76.8 0c-24.94,0 -45.4,19.78 -46.49,44.46l-0.05 0 0 150.78c0,22.16 33.63,22.16 33.63,0l0 -143.93z"/>
</symbol>
 <g id="Ebene_x0020_1">
  <metadata id="CorelCorpID_0Corel-Layer"/>
  <use id="ISO_x0020_7010_x0020_E032_0" transform="scale(0.571429 0.571429)" x="-0" y="-0" width="1750" height="1750" xlink:href="#ISO_x0020_7010_x0020_E032"/>
 </g>
</svg>
