<?xml version="1.0" encoding="UTF-8"?>
<!DOCTYPE svg PUBLIC "-//W3C//DTD SVG 1.1//EN" "http://www.w3.org/Graphics/SVG/1.1/DTD/svg11.dtd">
<!-- Creator: Corel DESIGNER -->
<svg xmlns="http://www.w3.org/2000/svg" xml:space="preserve" width="40mm" height="40mm" version="1.1" style="shape-rendering:geometricPrecision; text-rendering:geometricPrecision; image-rendering:optimizeQuality; fill-rule:evenodd; clip-rule:evenodd"
viewBox="0 0 4000 4000"
 xmlns:xlink="http://www.w3.org/1999/xlink"
 xmlns:xodm="http://www.corel.com/coreldraw/odm/2003">
 <defs>
  <style type="text/css">
   <![CDATA[
    .fil0e {fill:#008E5E}
    .fil1 {fill:white}
   ]]>
  </style>
 </defs>
<symbol id="ISO_x0020_7010_x0020_E033" viewBox="-1500 -9850 7000 7000">
 <rect class="fil0e" x="-1500" y="-9850" width="7000" height="7000"/>
 <path class="fil1" d="M-426.56 -8791.68l2449.24 0 0 4883.37 -2449.24 0 0 -4883.37zm-446.03 -446.03l5745.14 0 0 446.03 -223.01 0 0 -223.02 -5299.12 0 0 223.02 -223.01 0 0 -446.03zm0 5775.43l5745.14 0 0 -446.03 -223.01 0 0 223.01 -5299.12 0 0 -223.01 -223.01 0 0 446.03z"/>
 <polygon class="fil1" points="2506.49,-6682.61 4044.82,-6682.61 4044.82,-7136.18 4872.58,-6357.55 4044.82,-5578.92 4044.82,-6032.51 2506.49,-6032.51 "/>
</symbol>
 <g id="Ebene_x0020_1">
  <metadata id="CorelCorpID_0Corel-Layer"/>
  <use id="ISO_x0020_7010_x0020_E033_0" transform="scale(0.571429 0.571429)" x="-0" y="-0" width="7000" height="7000" xlink:href="#ISO_x0020_7010_x0020_E033"/>
 </g>
</svg>
