<?xml version="1.0" encoding="UTF-8"?>
<!DOCTYPE svg PUBLIC "-//W3C//DTD SVG 1.1//EN" "http://www.w3.org/Graphics/SVG/1.1/DTD/svg11.dtd">
<!-- Creator: Corel DESIGNER -->
<svg xmlns="http://www.w3.org/2000/svg" xml:space="preserve" width="40mm" height="40mm" version="1.1" style="shape-rendering:geometricPrecision; text-rendering:geometricPrecision; image-rendering:optimizeQuality; fill-rule:evenodd; clip-rule:evenodd"
viewBox="0 0 1000 1000"
 xmlns:xlink="http://www.w3.org/1999/xlink"
 xmlns:xodm="http://www.corel.com/coreldraw/odm/2003">
 <defs>
  <style type="text/css">
   <![CDATA[
    .fil0e {fill:#008E5E}
    .fil1 {fill:white}
   ]]>
  </style>
 </defs>
<symbol id="ISO_x0020_7010_x0020_E034" viewBox="1125 2212.5 1750 1750">
 <rect class="fil0e" x="1125" y="2212.5" width="1750" height="1750"/>
 <path class="fil1" d="M2606.64 2477.08l-612.31 0 0 1220.84 612.31 0 0 -1220.84zm111.51 1332.35l-1436.29 0 0 -111.51 55.75 0 0 55.75 1324.78 0 0 -55.75 55.75 0 0 111.51zm0 -1443.86l-1436.29 0 0 111.51 55.75 0 0 -55.76 1324.78 0 0 55.76 55.75 0 0 -111.51z"/>
 <polygon class="fil1" points="1873.38,3004.35 1488.8,3004.35 1488.8,2890.95 1281.86,3085.61 1488.8,3280.27 1488.8,3166.87 1873.38,3166.87 "/>
</symbol>
 <g id="Ebene_x0020_1">
  <metadata id="CorelCorpID_0Corel-Layer"/>
  <use id="ISO_x0020_7010_x0020_E034_0" transform="scale(0.571429 0.571429)" x="-0" y="-0" width="1750" height="1750" xlink:href="#ISO_x0020_7010_x0020_E034"/>
 </g>
</svg>
