<?xml version="1.0" encoding="UTF-8"?>
<!DOCTYPE svg PUBLIC "-//W3C//DTD SVG 1.1//EN" "http://www.w3.org/Graphics/SVG/1.1/DTD/svg11.dtd">
<!-- Creator: Corel DESIGNER -->
<svg xmlns="http://www.w3.org/2000/svg" xml:space="preserve" width="40mm" height="40mm" version="1.1" style="shape-rendering:geometricPrecision; text-rendering:geometricPrecision; image-rendering:optimizeQuality; fill-rule:evenodd; clip-rule:evenodd"
viewBox="0 0 2000 2000"
 xmlns:xlink="http://www.w3.org/1999/xlink"
 xmlns:xodm="http://www.corel.com/coreldraw/odm/2003">
 <defs>
  <style type="text/css">
   <![CDATA[
    .fil0e {fill:#008E5E}
    .fil1 {fill:white}
   ]]>
  </style>
 </defs>
<symbol id="ISO_x0020_7010_x0020_E039" viewBox="-3750 1308.33 3500 3500">
 <rect class="fil0e" x="-3750.01" y="1308.32" width="3500" height="3500"/>
 <path class="fil1" d="M-2227.09 3614.64c-372.51,-12.26 -757.59,-133.13 -1082.96,-365.82l-15.63 -11.12 1.09 -1.53c-67.7,10.24 -114.19,39.16 -105.39,125.93 42.25,54.89 90.94,95.07 143.88,122.48 57.8,29.93 120.87,44.84 186.34,47.25 6.24,0.22 11.68,3.39 15.01,8.13 34.12,48.57 75.6,79.07 125.7,94.38 51.29,15.68 112.33,15.9 184.26,3.65 8.26,-1.38 16.18,2.74 19.99,9.7 27.74,50.39 67.53,83 120.92,96.67 55.42,14.2 126.09,8.66 213.71,-17.76 5.2,-1.55 10.54,-0.8 14.92,1.67 62.18,29.54 120.13,41.46 172.01,39.36 56.05,-2.28 105.14,-21.01 144.84,-51.52 5.92,-4.57 13.66,-5.14 19.98,-2.14 67.74,30.36 125.17,35.43 176.36,24.67 51.71,-10.86 98.07,-38.06 142.7,-71.79 4.53,-3.42 10.09,-4.52 15.25,-3.52 72.15,9.13 127.91,2.04 174.98,-17.92 47.34,-20.07 86.83,-53.64 125.93,-97.07 4.51,-5.01 11.07,-7.1 17.27,-6.12 52.28,4.62 112.26,-0.28 166.22,-22.05 43.11,-17.4 82.4,-45.74 110.6,-88.91l1.41 -2.16c14.29,-77.46 -14.38,-102.82 -55.3,-119.47l-9.9 7.48c-277.75,209.7 -644.57,310.01 -1024.19,297.53zm-743.08 56.38c-55.85,-17.06 -102.24,-49.87 -140.43,-101.28 -67.66,-3.67 -132.92,-19.86 -193.1,-51.02 -45.24,-23.43 -87.53,-55.25 -125.73,-96.47 -48.34,48.47 -3.5,188.24 48.52,249.36 140.13,164.7 260.67,240.45 519.15,315.11 320.53,92.59 685.65,145.34 1166.43,11.58 178.07,-49.55 420.69,-172.35 553.68,-312.57 38.12,-40.18 32.58,-139.2 6.93,-197.91 -28.89,30.97 -63.6,53.01 -100.7,67.99 -57.17,23.07 -120.03,29.14 -175.62,25.26 -40.51,43.86 -82.39,78.13 -133.21,99.67 -51.73,21.95 -111.89,30.24 -188.15,21.42 -46.72,34.57 -95.89,62.32 -151.83,74.07 -56.14,11.79 -118.19,7.26 -189.95,-22.94 -44.13,31.21 -97.41,50.23 -157.54,52.67 -56.22,2.29 -118.35,-9.99 -184.43,-40.48 -91.16,26.65 -166.36,31.59 -227.18,16.01 -60.06,-15.38 -105.63,-50.25 -138.26,-103.5 -72,10.98 -134.44,9.58 -188.57,-6.97zm-317.63 -453.45c111.85,79.99 230.89,146.5 354.05,199.69 33.2,14.31 69.9,7.06 95.13,-18.83 112.66,-115.59 302.5,-348.24 349.66,-408.7 47.48,18.55 155.86,37.7 222.8,40.24 4.16,54.06 13.3,313.73 30.06,470.88 4.67,43.88 41.53,76.77 85.67,76.44 343.89,-2.52 672.13,-100.36 924.4,-290.83l1.29 -0.97c-23.5,-32 -68.55,-68.01 -135.66,-117.16 -141.96,-103.99 -283.82,-244.82 -426.88,-383.27 -111.42,-107.83 -290.74,-149.55 -477.35,-152.26l0 -430.09c15.64,-4.88 29.95,-12.8 42.22,-23.07l1277.86 930.59c37.78,27.51 58.16,67.8 57.95,114.53l-4.15 918.8c-0.04,7.2 2.51,13.42 7.59,18.53 5.09,5.1 11.29,7.68 18.5,7.68l262.95 0c14.37,0 26.09,-11.72 26.09,-26.09l0 -1069.48c0,-52.4 -26.37,-97.36 -72.09,-122.95l-1530.77 -856.73c0.24,-3.16 0.36,-6.34 0.36,-9.56 0,-68.12 -55.22,-123.34 -123.34,-123.34 -68.12,0 -123.34,55.22 -123.34,123.34 0,55.3 36.39,102.1 86.52,117.75l0 431.38c-181.12,9.5 -294.57,64.03 -353.11,99.63 -193.41,117.66 -439.56,311.65 -572.22,419.59 -21.54,17.53 -31.44,38.06 -34.6,56.87l10.39 7.39z"/>
</symbol>
 <g id="Ebene_x0020_1">
  <metadata id="CorelCorpID_0Corel-Layer"/>
  <use id="ISO_x0020_7010_x0020_E039_0" transform="scale(0.571429 0.571429)" x="-0" y="-0" width="3500" height="3500" xlink:href="#ISO_x0020_7010_x0020_E039"/>
 </g>
</svg>
