<?xml version="1.0" encoding="UTF-8"?>
<!DOCTYPE svg PUBLIC "-//W3C//DTD SVG 1.1//EN" "http://www.w3.org/Graphics/SVG/1.1/DTD/svg11.dtd">
<!-- Creator: Corel DESIGNER -->
<svg xmlns="http://www.w3.org/2000/svg" xml:space="preserve" width="40mm" height="40mm" version="1.1" style="shape-rendering:geometricPrecision; text-rendering:geometricPrecision; image-rendering:optimizeQuality; fill-rule:evenodd; clip-rule:evenodd"
viewBox="0 0 1000 1000"
 xmlns:xlink="http://www.w3.org/1999/xlink"
 xmlns:xodm="http://www.corel.com/coreldraw/odm/2003">
 <defs>
  <style type="text/css">
   <![CDATA[
    .fil0e {fill:#008E5E}
    .fil1 {fill:white}
   ]]>
  </style>
 </defs>
<symbol id="ISO_x0020_7010_x0020_E048" viewBox="1125 654.16 1750 1750">
 <rect class="fil0e" x="1125" y="654.16" width="1750" height="1750"/>
 <path class="fil1" d="M2520.81 1235.41l-131.54 -91.5 -127.3 97.31 46.38 -153.38 -131.89 -91 160.2 -3.29 45.79 -153.56 52.63 151.35 160.19 -3.91 -127.68 96.82 53.22 151.14zm-1159.77 1012.38l213.49 0c16.41,-533.86 281.64,-909.23 662.09,-1125.89 10.96,-6.24 4.98,-23.12 -7.45,-21.09 -493.69,80.82 -843.57,535.52 -868.12,1146.97zm970.27 -1014.42c5.21,-25.58 44.08,-17.62 38.84,7.92l-22.02 106.38c-5.26,25.61 -44.08,17.6 -38.84,-7.92l22.02 -106.38zm202.71 -108.14c-21.89,-14.21 -0.3,-47.46 21.6,-33.25l94.3 61.17c21.88,14.2 0.3,47.46 -21.6,33.25l-94.29 -61.17zm2.78 -169.01c-19.65,17.18 -45.74,-12.68 -26.1,-29.83l94.9 -82.75c19.68,-17.18 45.73,12.69 26.1,29.83l-94.91 82.75zm-279.63 -23.19c20.48,15.99 -3.93,47.23 -24.39,31.23l-77.64 -60.81c-20.48,-16.01 3.94,-47.23 24.39,-31.23l77.64 60.81zm-31.49 225.22c14.62,-21.59 47.41,0.65 32.78,22.22l-51.69 76.09c-14.64,21.59 -47.41,-0.66 -32.78,-22.22l51.69 -76.09zm189.66 73.23c-7.05,-25.13 31.12,-35.89 38.22,-10.72l13.87 48.92c7.08,25.11 -31.12,35.91 -38.22,10.72l-13.87 -48.92zm73.72 -331.2c-6.85,25.17 -45.1,14.72 -38.22,-10.41l12.58 -45.69c6.9,-25.19 45.09,-14.7 38.22,10.41l-12.58 45.7zm-158.06 -2.8c9.6,24.22 -27.17,38.85 -36.82,14.6l-22.05 -55.22c-9.63,-24.19 27.16,-38.87 36.82,-14.6l22.05 55.22zm-151.36 133.46c24.46,9.21 10.43,46.36 -13.98,37.13l-64.53 -24.45c-24.46,-9.24 -10.42,-46.35 13.98,-37.13l64.53 24.45z"/>
</symbol>
 <g id="Ebene_x0020_1">
  <metadata id="CorelCorpID_0Corel-Layer"/>
  <use id="ISO_x0020_7010_x0020_E048_0" transform="scale(0.571429 0.571429)" x="-0" y="-0" width="1750" height="1750" xlink:href="#ISO_x0020_7010_x0020_E048"/>
 </g>
</svg>
