<?xml version="1.0" encoding="UTF-8"?>
<!DOCTYPE svg PUBLIC "-//W3C//DTD SVG 1.1//EN" "http://www.w3.org/Graphics/SVG/1.1/DTD/svg11.dtd">
<!-- Creator: Corel DESIGNER -->
<svg xmlns="http://www.w3.org/2000/svg" xml:space="preserve" width="40mm" height="40mm" version="1.1" style="shape-rendering:geometricPrecision; text-rendering:geometricPrecision; image-rendering:optimizeQuality; fill-rule:evenodd; clip-rule:evenodd"
viewBox="0 0 4000 4000"
 xmlns:xlink="http://www.w3.org/1999/xlink"
 xmlns:xodm="http://www.corel.com/coreldraw/odm/2003">
 <defs>
  <style type="text/css">
   <![CDATA[
    .fil0e {fill:#008E5E}
    .fil1 {fill:white}
   ]]>
  </style>
 </defs>
<symbol id="ISO_x0020_7010_x0020_E049" viewBox="-1500 2616.66 7000 7000">
 <rect class="fil0e" x="-1500.01" y="2616.65" width="7000" height="7000"/>
 <path class="fil1" d="M2223.63 8701.92l-434.88 -544.54 -651.31 247.82 383.5 -581.85 -436.96 -542.87 671.89 184.94 381.27 -583.33 31.74 696.15 672.6 182.34 -652.28 245.31 34.43 696.03zm-1226.36 -1277.27c132.04,37.03 75.74,237.64 -56.26,200.57l-294.54 -82.83c-132.05,-37.09 -75.71,-237.63 56.26,-200.57l294.54 82.83zm54.4 460.64c121.34,-63.89 218.32,120.5 97.02,184.27l-368.17 193.29c-121.43,63.84 -218.25,-120.52 -97.02,-184.27l368.17 -193.29zm365.88 573.74c81.27,-109.6 248.4,14.31 167.15,123.94l-262.73 354.7c-81.22,109.6 -248.41,-14.3 -167.15,-123.95l262.73 -354.69zm557.6 395.26c6.96,136.79 -200.77,147.57 -207.92,10.6l-16.09 -301.45c-7.12,-136.67 200.78,-147.67 207.92,-10.61l16.09 301.46zm899.76 -436.02c99.29,94.45 -44.19,245.32 -143.51,150.85l-331.37 -315.24c-99.29,-94.46 44.19,-245.32 143.51,-150.85l331.37 315.24zm166.79 -1437.68c113.77,-76.75 230.39,96.05 116.6,172.85l-361.27 243.92c-113.73,76.76 -230.4,-96.04 -116.6,-172.85l361.27 -243.92zm-912.76 -1729.16l1670.1 0 -1280.68 1454.77c-90.71,103.05 65.84,240.85 156.55,137.8l1353.54 -1537.53c4.05,-4.6 25.79,-53.09 25.84,-55.04 -14.43,-1125.74 -896.8,-2029.71 -2029.71,-2029.71 -1122.38,0 -2029.71,910.9 -2029.71,2029.71 2.42,9.5 16.87,33.4 26.21,44l1363.28 1548.57c90.71,103.05 247.26,-34.75 156.55,-137.8l-1280.69 -1454.77 1659.99 0 0 1426.65c0,137.4 208.73,137.4 208.73,0l0 -1426.65z"/>
</symbol>
 <g id="Ebene_x0020_1">
  <metadata id="CorelCorpID_0Corel-Layer"/>
  <use id="ISO_x0020_7010_x0020_E049_0" transform="scale(0.571429 0.571429)" x="-0" y="-0" width="7000" height="7000" xlink:href="#ISO_x0020_7010_x0020_E049"/>
 </g>
</svg>
