<?xml version="1.0" encoding="UTF-8"?>
<!DOCTYPE svg PUBLIC "-//W3C//DTD SVG 1.1//EN" "http://www.w3.org/Graphics/SVG/1.1/DTD/svg11.dtd">
<!-- Creator: Corel DESIGNER -->
<svg xmlns="http://www.w3.org/2000/svg" xml:space="preserve" width="40mm" height="40mm" version="1.1" style="shape-rendering:geometricPrecision; text-rendering:geometricPrecision; image-rendering:optimizeQuality; fill-rule:evenodd; clip-rule:evenodd"
viewBox="0 0 2000 2000"
 xmlns:xlink="http://www.w3.org/1999/xlink"
 xmlns:xodm="http://www.corel.com/coreldraw/odm/2003">
 <defs>
  <style type="text/css">
   <![CDATA[
    .fil0e {fill:#008E5E}
    .fil1 {fill:white}
   ]]>
  </style>
 </defs>
<symbol id="ISO_x0020_7010_x0020_E050" viewBox="-3750 1308.33 3500 3500">
 <rect class="fil0e" x="-3750" y="1308.33" width="3500" height="3500"/>
 <path class="fil1" d="M-2205.31 3474.53c-20.45,51.38 -36.01,109.11 -49.51,168.16l-111.52 -182.62c12.24,-36.01 26.32,-70.79 43.01,-103.55l118.01 118.01zm-68.51 256.89l-30.62 142.99 -121.9 -175.88c10.8,-52.51 22.09,-105.91 35.93,-158.04l116.59 190.93zm-51.91 221.87c-7.65,24.74 -16.11,48.37 -25.7,70.56l-130.09 -95.4c14.44,-42.02 26.32,-92.09 37.71,-145.52l118.07 170.36zm-54.65 126.8c-25.73,41.76 -56.95,71.52 -95.01,100.3l-137.46 -96.6c42.17,-24.1 82.18,-52.77 106.11,-96.36l126.36 92.66zm-150.94 137.39c-43.61,25.38 -90.16,45.36 -139.94,64.58l-91.39 -132.55c30.19,-11.26 58.95,-22.31 86.05,-34.15l145.29 102.12zm-200.17 87.2l-80.28 30.19 -98.89 -128.86c30.13,-12.4 59.34,-23.56 87.61,-34.11l91.55 132.78zm-140.26 54.65c-33.27,14.27 -67.64,30.32 -103.03,49.12l-111.27 -117.32c40.03,-22.98 78.81,-42.44 116.28,-59.53l98.03 127.73zm-159.07 80.79c-20.66,12.41 -41.64,25.86 -62.9,40.52l-248.32 0c70.07,-64.63 137.22,-115.35 201.34,-156.38l109.88 115.85zm-263.59 -206.16l968.53 -968.53 180.86 180.86 30.36 -30.35c-13.64,-20.38 -23.03,-84.97 -98.88,-160.29 -79.28,-78.73 -154.36,-92.18 -169.22,-107.05l-11.17 -11.16 -998.51 998.5c-64.47,64.48 33.56,162.5 98.03,98.02zm1227.68 -865.95l1346.21 -1346.21c-228.45,-95.3 -264.06,-267.95 -276.93,-280.84l-1352.24 1352.24c20.67,20.69 92.65,31.24 180.18,118.17 44.09,43.79 78.49,95.89 102.78,156.64zm1390.48 -1394.13l87.25 -373.54 -362.42 98.12c60.61,134.11 137.38,213.81 275.17,275.42z"/>
</symbol>
 <g id="Ebene_x0020_1">
  <metadata id="CorelCorpID_0Corel-Layer"/>
  <use id="ISO_x0020_7010_x0020_E050_0" transform="scale(0.571429 0.571429)" x="-0" y="-0" width="3500" height="3500" xlink:href="#ISO_x0020_7010_x0020_E050"/>
 </g>
</svg>
