<?xml version="1.0" encoding="UTF-8"?>
<!DOCTYPE svg PUBLIC "-//W3C//DTD SVG 1.1//EN" "http://www.w3.org/Graphics/SVG/1.1/DTD/svg11.dtd">
<!-- Creator: Corel DESIGNER -->
<svg xmlns="http://www.w3.org/2000/svg" xml:space="preserve" width="40mm" height="40mm" version="1.1" style="shape-rendering:geometricPrecision; text-rendering:geometricPrecision; image-rendering:optimizeQuality; fill-rule:evenodd; clip-rule:evenodd"
viewBox="0 0 1000 1000"
 xmlns:xlink="http://www.w3.org/1999/xlink"
 xmlns:xodm="http://www.corel.com/coreldraw/odm/2003">
 <defs>
  <style type="text/css">
   <![CDATA[
    .fil0e {fill:#008E5E}
    .fil1 {fill:white}
   ]]>
  </style>
 </defs>
<symbol id="ISO_x0020_7010_x0020_E054" viewBox="1125 -2462.5 1750 1750">
 <rect class="fil0e" x="1125" y="-2462.5" width="1750" height="1750"/>
 <path class="fil1" d="M1288.45 -1222.57c104.49,-2.55 109.46,39.45 214.19,47.12 39.72,2.91 81.71,-2.33 124.97,-20.22 200.98,-83.09 252.3,19.67 385.72,20.51 133.35,0.84 184.57,-103.59 385.55,-20.51 81.82,33.83 161.76,23.78 237.94,-9.04 33.55,-14.46 53.84,-17.67 92.74,-17.51l-0.18 45.54c-32.19,-0.14 -46.81,2 -74.52,13.93 -87.06,37.5 -179.36,48.06 -273.3,9.22 -182.05,-75.26 -222.11,24.83 -368.4,23.9 -146.25,-0.93 -186.15,-99.17 -368.22,-23.9 -93.93,38.84 -186.25,28.28 -273.3,-9.22 -28.94,-12.47 -47.9,-15.11 -82.11,-14.28l-1.08 -45.54zm0 92.53c104.49,-2.55 109.46,39.45 214.19,47.12 39.72,2.91 81.71,-2.33 124.97,-20.22 200.98,-83.09 252.29,19.67 385.72,20.51 133.33,0.84 184.57,-103.59 385.55,-20.51 81.82,33.83 161.76,23.78 237.94,-9.05 33.55,-14.45 53.84,-17.67 92.74,-17.51l-0.18 45.54c-32.19,-0.14 -46.81,2 -74.52,13.93 -87.06,37.5 -179.36,48.06 -273.3,9.22 -182.05,-75.26 -222.11,24.83 -368.4,23.9 -146.25,-0.92 -186.15,-99.17 -368.22,-23.9 -93.93,38.83 -186.25,28.28 -273.3,-9.22 -28.94,-12.47 -47.91,-15.11 -82.11,-14.28l-1.08 -45.54zm158.43 -476.2c93.69,-34.7 221.89,-53 355.18,-49.8l-71.56 52.55c-103.76,3.61 -196.58,20.58 -265.68,46.17 -151.55,56.13 -151.55,129.25 0,185.38 168.87,62.55 445.82,62.54 614.68,0 81.13,-30.05 146.19,-76.77 96.53,-129.83l36.62 -35.92c21.28,22.22 32.94,46.82 32.94,73.06 0,57.83 -56.61,107.72 -148.14,141.61 -180.53,66.86 -470.05,66.86 -650.57,0 -197.78,-73.25 -197.78,-209.98 0,-283.23zm210.26 341.77c-120.4,-11.28 -293.18,-48.54 -357.94,-135.76l0 72.08c25.18,17.98 55.36,34.18 89.71,48.27 46.82,19.2 101.97,34.92 162.95,46.14 24.66,-2.63 49.97,-8.8 75.75,-19.45 10.23,-4.23 20.06,-7.97 29.53,-11.28zm587.62 -135.27c-66.14,88.32 -243.01,125.37 -365.63,136 25.12,8.82 87.94,31.23 113.04,30.06 61.1,-11.22 116.35,-26.96 163.24,-46.19 34.19,-14.02 64.24,-30.13 89.35,-48.01l0 -71.85zm434.44 -739.8c18.23,-15.59 41.76,11.95 23.69,27.68l-737.8 642.01c-41.27,35.91 -75.75,-13.41 -46.18,-37.98l760.29 -631.71zm-142.87 -31.55c19.09,-14.32 40.92,14.8 21.83,29.11l-756.09 581.63c-37.03,26.89 -72.19,-16.95 -37.77,-43.83l772.03 -566.9zm157.34 79.76c17.94,-15.97 41.39,10.44 24.25,27.25l-587.65 576.43c-17.14,16.82 -221.23,94.32 -116.59,1.23l679.98 -604.91zm-109.63 -16.97c-24.05,0 -24.05,-36.53 0,-36.53 23.38,0 53.64,-5.47 53.64,18.26 0,23.74 -30.26,18.26 -53.64,18.26zm-808.47 611.18c-19.81,-13.52 0.72,-43.62 20.55,-30.11l59.54 40.56c19.81,13.51 -0.71,43.63 -20.55,30.11l-59.54 -40.56zm-30.7 -35.76c0,-23.31 -35.4,-23.31 -35.4,0 0,23.31 35.4,23.31 35.4,0zm163.09 98.37c0,-23.31 -35.4,-23.31 -35.4,0 0,23.31 35.4,23.31 35.4,0z"/>
</symbol>
 <g id="Ebene_x0020_1">
  <metadata id="CorelCorpID_0Corel-Layer"/>
  <use id="ISO_x0020_7010_x0020_E054_0" transform="scale(0.571429 0.571429)" x="-0" y="-0" width="1750" height="1750" xlink:href="#ISO_x0020_7010_x0020_E054"/>
 </g>
</svg>
