<?xml version="1.0" encoding="UTF-8"?>
<!DOCTYPE svg PUBLIC "-//W3C//DTD SVG 1.1//EN" "http://www.w3.org/Graphics/SVG/1.1/DTD/svg11.dtd">
<!-- Creator: Corel DESIGNER -->
<svg xmlns="http://www.w3.org/2000/svg" xml:space="preserve" width="40mm" height="40mm" version="1.1" style="shape-rendering:geometricPrecision; text-rendering:geometricPrecision; image-rendering:optimizeQuality; fill-rule:evenodd; clip-rule:evenodd"
viewBox="0 0 1000 1000"
 xmlns:xlink="http://www.w3.org/1999/xlink"
 xmlns:xodm="http://www.corel.com/coreldraw/odm/2003">
 <defs>
  <style type="text/css">
   <![CDATA[
    .fil0e {fill:#008E5E}
    .fil1 {fill:white}
   ]]>
  </style>
 </defs>
<symbol id="ISO_x0020_7010_x0020_E059" viewBox="1125 654.16 1750 1750">
 <rect class="fil0e" x="1125" y="654.17" width="1750" height="1750"/>
 <path class="fil1" d="M2257.36 941.13l-514.71 0 0 188.63 514.71 0 0 -188.63zm0 1245.08l-514.71 0 0 64.7 -60.38 0 0 -1443.49 60.38 0 0 73.32 514.71 0 0 -73.32 60.38 0 0 1443.49 -60.38 0 0 -64.7zm-514.71 -60.39l514.71 0 0 -188.63 -514.71 0 0 188.63zm0 -935.68l0 188.63 514.71 0 0 -188.63 -514.71 0zm0 249.01l0 188.63 514.71 0 0 -188.63 -514.71 0zm0 249.02l0 188.63 514.71 0 0 -188.63 -514.71 0z"/>
</symbol>
 <g id="Ebene_x0020_1">
  <metadata id="CorelCorpID_0Corel-Layer"/>
  <use id="ISO_x0020_7010_x0020_E059_0" transform="scale(0.571429 0.571429)" x="-0" y="-0" width="1750" height="1750" xlink:href="#ISO_x0020_7010_x0020_E059"/>
 </g>
</svg>
