<?xml version="1.0" encoding="UTF-8"?>
<!DOCTYPE svg PUBLIC "-//W3C//DTD SVG 1.1//EN" "http://www.w3.org/Graphics/SVG/1.1/DTD/svg11.dtd">
<!-- Creator: Corel DESIGNER -->
<svg xmlns="http://www.w3.org/2000/svg" xml:space="preserve" width="40mm" height="40mm" version="1.1" style="shape-rendering:geometricPrecision; text-rendering:geometricPrecision; image-rendering:optimizeQuality; fill-rule:evenodd; clip-rule:evenodd"
viewBox="0 0 4000 4000"
 xmlns:xlink="http://www.w3.org/1999/xlink"
 xmlns:xodm="http://www.corel.com/coreldraw/odm/2003">
 <defs>
  <style type="text/css">
   <![CDATA[
    .fil0e {fill:#008E5E}
    .fil1 {fill:white}
   ]]>
  </style>
 </defs>
<symbol id="ISO_x0020_7010_x0020_E063" viewBox="-1500 -3616.67 7000 7000">
 <polygon class="fil0e" points="-1500,-3616.67 5500,-3616.67 5500,3383.33 -1500,3383.33 "/>
 <path class="fil1" d="M3339.4 476.77l-372.88 0 -237.29 -330.51c-42.37,-59.31 -101.69,-84.74 -169.49,-84.74l-652.55 0c-42.37,0 -67.79,16.95 -93.21,50.85l-211.87 338.98c-25.43,50.85 -8.47,110.17 42.38,144.07 42.37,25.43 110.16,8.47 135.58,-42.38l186.45 -288.13 228.81 0 -203.39 491.52c-8.48,16.96 -8.48,25.43 -8.48,42.38l-50.84 516.95 -449.15 -8.47c-93.22,0 -161.02,76.27 -177.97,144.06l-33.9 93.22 771.19 8.48c59.32,0 110.17,-50.85 118.64,-110.18l42.38 -466.09 84.74 33.89 398.31 805.09c33.89,59.32 76.27,101.7 186.43,101.7l127.12 0c-169.48,-347.47 -355.93,-728.82 -533.9,-1076.28l194.93 -440.68 169.49 245.77c25.42,25.42 50.84,42.37 93.21,42.37l415.26 0c59.33,0 101.7,-50.85 101.7,-101.7 0,-59.32 -42.37,-110.17 -101.7,-110.17zm-491.53 -593.21c42.38,-110.18 -8.47,-228.82 -110.16,-271.2 -110.17,-50.84 -228.82,0 -279.66,110.18 -42.38,101.69 8.46,228.81 110.16,271.18 110.17,50.85 228.81,0 279.66,-110.16z"/>
 <path class="fil1" d="M-898.31 2781.64l0 -3072.89c1177.97,-161.01 1898.31,228.81 2228.81,1101.7 -905.8,-644.01 -1756.62,-32.88 -1645.05,652.21 143.23,879.61 1277.72,1103.2 2344.3,1318.98l-2928.06 0z"/>
 <path class="fil1" d="M4249.93 -4.38l0 -679.11 370.42 0 0 679.11 277.96 0 0 -2831.04 -1636.32 0 0 2831.04 987.94 0zm-339.55 -1081.56l-370.42 0 0 -520.35 370.42 0 0 520.35zm709.97 0l-370.42 0 0 -520.35 370.42 0 0 520.35zm-709.97 -933.69l-370.42 0 0 -520.35 370.42 0 0 520.35zm709.97 0l-370.42 0 0 -520.35 370.42 0 0 520.35z"/>
</symbol>
 <g id="Ebene_x0020_1">
  <metadata id="CorelCorpID_0Corel-Layer"/>
  <use id="ISO_x0020_7010_x0020_E063_0" transform="scale(0.571429 0.571429)" x="-0" y="-0" width="7000" height="7000" xlink:href="#ISO_x0020_7010_x0020_E063"/>
 </g>
</svg>
