<?xml version="1.0" encoding="UTF-8"?>
<!DOCTYPE svg PUBLIC "-//W3C//DTD SVG 1.1//EN" "http://www.w3.org/Graphics/SVG/1.1/DTD/svg11.dtd">
<!-- Creator: Corel DESIGNER -->
<svg xmlns="http://www.w3.org/2000/svg" xml:space="preserve" width="40mm" height="40mm" version="1.1" style="shape-rendering:geometricPrecision; text-rendering:geometricPrecision; image-rendering:optimizeQuality; fill-rule:evenodd; clip-rule:evenodd"
viewBox="0 0 1000 1000"
 xmlns:xlink="http://www.w3.org/1999/xlink"
 xmlns:xodm="http://www.corel.com/coreldraw/odm/2003">
 <defs>
  <style type="text/css">
   <![CDATA[
    .fil0f {fill:#A1262D}
    .fil1 {fill:white}
   ]]>
  </style>
 </defs>
<symbol id="ISO_x0020_7010_x0020_F001" viewBox="1125 2212.5 1750 1750">
 <rect class="fil0f" x="1125" y="2212.5" width="1750" height="1750"/>
 <path class="fil1" d="M2224.36 2663.81c100.15,42.69 79.72,204.36 141.3,303.09 61.58,98.73 142.95,206.73 329.86,167.2 -120.31,-65.86 -186.12,-155.09 -216.56,-247.3 -30.43,-92.21 -95.73,-248.05 -254.59,-222.99zm-93.69 668.8c109.88,1.76 143.63,100.85 233.44,174.84 89.81,73.99 184.06,124.58 331.4,17.25 -138.46,-44.84 -189.57,-68.79 -247.78,-146.51 -58.2,-77.72 -207.67,-136.86 -317.07,-45.58zm147.19 -379.72c101.66,154 237.76,253.3 417.65,283.04l0 195.02c-108.73,-28.19 -189.58,-55.15 -300.29,-157.05 -110.72,-101.9 -125.26,-238.39 -117.36,-321.01zm231.26 -384.86c56.28,173.36 118.6,263.28 186.39,277.86l0 195.02c-71.75,-38.38 -166.8,-127.25 -193.29,-220.91 -26.49,-93.66 -13.84,-188.47 6.9,-251.97zm-231.26 957.84c62.13,92.62 275.27,141.23 417.65,91.47l0 190.7c-126.56,4.03 -228.12,-16.36 -276.99,-43.14 -48.88,-26.78 -130.01,-106.71 -140.66,-239.03z"/>
 <path class="fil1" d="M1458.14 3128.07l369.33 0 0 -226.09 -369.33 0 0 226.09zm379.68 -688.61l-57.82 -15.53 -66.44 0 0 -58.68 -141.52 0 0 58.68 -87.73 0 -154.58 144.71c-18.73,17.54 -17.25,86.47 -24.3,191.71l53.31 -1.57 9.65 -94.96 134.58 -125.99 48.36 0 0 105.27 -2.29 0c-81.91,0 -148.72,66.81 -148.72,148.72l0 986.64c0,17.25 14.07,31.31 31.31,31.31l422.34 0c17.24,0 31.31,-14.07 31.31,-31.31l0 -986.64c0,-81.91 -66.81,-148.72 -148.72,-148.72l-2.29 0 0 -105.27 45.73 0 57.82 -15.53 0 -82.84z"/>
</symbol>
 <g id="Ebene_x0020_1">
  <metadata id="CorelCorpID_0Corel-Layer"/>
  <use id="ISO_x0020_7010_x0020_F001_0" transform="scale(0.571429 0.571429)" x="-0" y="-0" width="1750" height="1750" xlink:href="#ISO_x0020_7010_x0020_F001"/>
 </g>
</svg>
