<?xml version="1.0" encoding="UTF-8"?>
<!DOCTYPE svg PUBLIC "-//W3C//DTD SVG 1.1//EN" "http://www.w3.org/Graphics/SVG/1.1/DTD/svg11.dtd">
<!-- Creator: Corel DESIGNER -->
<svg xmlns="http://www.w3.org/2000/svg" xml:space="preserve" width="40mm" height="40mm" version="1.1" style="shape-rendering:geometricPrecision; text-rendering:geometricPrecision; image-rendering:optimizeQuality; fill-rule:evenodd; clip-rule:evenodd"
viewBox="0 0 4000 4000"
 xmlns:xlink="http://www.w3.org/1999/xlink"
 xmlns:xodm="http://www.corel.com/coreldraw/odm/2003">
 <defs>
  <style type="text/css">
   <![CDATA[
    .fil0f {fill:#A1262D}
    .fil1 {fill:white}
   ]]>
  </style>
 </defs>
<symbol id="ISO_x0020_7010_x0020_F002" viewBox="-1500 8850 7000 7000">
 <rect class="fil0f" x="-1500" y="8850" width="7000" height="7000"/>
 <path class="fil1" d="M3022.68 10655.23c400.62,170.75 318.89,817.42 565.2,1212.35 246.31,394.93 571.78,826.92 1319.42,668.82 -481.23,-263.44 -744.5,-620.37 -866.24,-989.2 -121.75,-368.83 -382.92,-992.18 -1018.38,-891.97zm-374.75 2675.18c439.54,7.03 574.52,403.39 933.75,699.35 359.23,295.96 736.25,498.32 1325.62,69 -553.86,-179.36 -758.29,-275.15 -991.11,-586.02 -232.81,-310.88 -830.67,-547.45 -1268.26,-182.33zm588.76 -1518.86c406.64,615.99 951.03,1013.18 1670.61,1132.14l0 780.08c-434.91,-112.75 -758.33,-220.6 -1201.18,-628.2 -442.86,-407.6 -501.04,-953.55 -469.43,-1284.02zm925.04 -1539.45c225.12,693.44 474.42,1053.1 745.57,1111.43l0 780.08c-287.02,-153.51 -667.22,-508.99 -773.18,-883.63 -105.96,-374.64 -55.36,-753.86 27.61,-1007.88zm-925.05 3831.36c248.53,370.47 1101.09,564.92 1670.62,365.87l0 762.82c-506.24,16.11 -912.48,-65.45 -1107.99,-172.58 -195.5,-107.13 -520.05,-426.85 -562.63,-956.11z"/>
 <path class="fil1" d="M76.52 9671.5c89.23,0 162.24,72.97 162.24,162.21l0 3361.97c0,89.23 -73,162.22 -162.22,162.22 -89.23,0 -162.23,-72.97 -162.23,-162.22l0 -3361.97c0,-89.22 72.99,-162.21 162.21,-162.21zm1335.81 0c89.23,0 162.23,72.97 162.23,162.21l0 3361.97c0,89.23 -72.99,162.22 -162.21,162.22 -89.23,0 -162.24,-72.97 -162.24,-162.22l0 -3361.97c0,-89.22 73,-162.21 162.22,-162.21zm-445.27 0c89.23,0 162.24,72.97 162.24,162.21l0 3361.97c0,89.23 -73,162.22 -162.22,162.22 -89.23,0 -162.23,-72.97 -162.23,-162.22l0 -3361.97c0,-89.22 72.99,-162.21 162.21,-162.21zm-445.27 0c89.23,0 162.23,72.97 162.23,162.21l0 3361.97c0,89.23 -72.99,162.22 -162.21,162.22 -89.24,0 -162.24,-72.97 -162.24,-162.22l0 -3361.97c0,-89.22 72.99,-162.21 162.22,-162.21zm-890.53 0c89.23,0 162.23,72.98 162.23,162.21l0 4318.08 -324.45 0 0 -4318.08c0,-89.22 72.99,-162.21 162.22,-162.21zm-450.94 -189.81l167.91 0 0 4066.02 -167.91 0 -156.55 -156.55 0 -3752.92 156.55 -156.55zm288.72 4790.91l324.45 0 -55.23 455.63 -213.99 0 -55.23 -455.63zm3463.36 -2830.96c-14.25,-66.57 -47.59,-126.07 -93.99,-172.48 -46.41,-46.41 -105.91,-79.75 -172.48,-93.99l0 266.47 266.47 0zm-1069.12 -1959.95l-167.9 0 0 4066.02 167.9 0 156.55 -156.55 0 -1803.41 85.08 0c15.88,106.98 66.1,202.78 139.12,275.79 89.28,89.26 212.61,144.51 348.84,144.51 136.22,0 259.56,-55.25 348.84,-144.51 89.27,-89.28 144.51,-212.62 144.51,-348.84 0,-136.23 -55.24,-259.56 -144.51,-348.84 -89.28,-89.29 -212.63,-144.51 -348.84,-144.51 -136.23,0 -259.56,55.22 -348.84,144.51 -73.02,73.01 -123.24,168.8 -139.12,275.78l-85.08 0 0 -1803.4 -156.55 -156.55zm656.53 1693.48c-66.57,14.24 -126.07,47.58 -172.48,93.99 -46.41,46.41 -79.75,105.91 -93.99,172.48l266.47 0 0 -266.47zm146.12 412.58l0 266.48c66.57,-14.25 126.07,-47.59 172.48,-93.99 46.4,-46.41 79.74,-105.91 93.99,-172.49l-266.47 0zm-146.12 266.48l0 -266.48 -266.47 0c14.24,66.58 47.58,126.08 93.99,172.49 46.41,46.4 105.91,79.74 172.48,93.99z"/>
</symbol>
 <g id="Ebene_x0020_1">
  <metadata id="CorelCorpID_0Corel-Layer"/>
  <use id="ISO_x0020_7010_x0020_F002_0" transform="scale(0.571429 0.571429)" x="-0" y="-0" width="7000" height="7000" xlink:href="#ISO_x0020_7010_x0020_F002"/>
 </g>
</svg>
