<?xml version="1.0" encoding="UTF-8"?>
<!DOCTYPE svg PUBLIC "-//W3C//DTD SVG 1.1//EN" "http://www.w3.org/Graphics/SVG/1.1/DTD/svg11.dtd">
<!-- Creator: Corel DESIGNER -->
<svg xmlns="http://www.w3.org/2000/svg" xml:space="preserve" width="40mm" height="40mm" version="1.1" style="shape-rendering:geometricPrecision; text-rendering:geometricPrecision; image-rendering:optimizeQuality; fill-rule:evenodd; clip-rule:evenodd"
viewBox="0 0 1000 1000"
 xmlns:xlink="http://www.w3.org/1999/xlink"
 xmlns:xodm="http://www.corel.com/coreldraw/odm/2003">
 <defs>
  <style type="text/css">
   <![CDATA[
    .fil0f {fill:#A1262D}
    .fil1 {fill:white}
   ]]>
  </style>
 </defs>
<symbol id="ISO_x0020_7010_x0020_F004" viewBox="1125 654.16 1750 1750">
 <rect class="fil0f" x="1125" y="654.16" width="1750" height="1750"/>
 <path class="fil1" d="M1308.22 1356.46l29.2 0c34.11,0 60.3,-53.93 79.43,-120.59l-15.53 -4.9 61.02 -193.42 14.12 4.45c59.06,-95.98 158.3,-143.44 271.27,-137.09 64.18,3.61 120.42,27.73 168.1,71.42 48.38,44.33 87.49,127.77 109.41,185.02 47.4,123.77 98.46,194.27 229.32,195.44 9.38,0.74 17.17,10.15 17.17,22.88l-984.38 0c0,-13.75 8.39,-23.21 20.89,-23.21zm277.62 -446.41l4.87 -100.46c31.85,0 74.33,-2.31 95.56,0 70.4,7.66 126.38,21.26 184.21,47.2 49.49,22.2 87.9,50.75 130.67,99.59 29.48,33.67 53.93,82.81 71.96,123.77 23.28,52.87 30.32,110.23 55.26,162.33 19.66,41.07 56.41,59.1 88.65,80.6l0 6.96c-88.76,-7.98 -138.51,-102.46 -167.43,-177.97 -39.95,-104.33 -93.27,-204.5 -201.72,-250.57 -83.67,-35.54 -180.85,-29.88 -262.04,8.55zm685.87 495.73l0 55.45 -984.38 0 0 -55.45 984.38 0z"/>
 <path class="fil1" d="M2257.88 1104.62c100.22,42.72 79.77,204.49 141.39,303.29 61.62,98.79 143.04,206.87 330.07,167.31 -120.39,-65.9 -186.25,-155.2 -216.7,-247.46 -30.46,-92.27 -95.79,-248.21 -254.76,-223.14zm-93.75 669.24c109.96,1.76 143.72,100.91 233.59,174.95 89.86,74.04 184.18,124.66 331.62,17.26 -138.56,-44.87 -189.7,-68.83 -247.94,-146.6 -58.24,-77.77 -207.8,-136.95 -317.28,-45.61zm147.29 -379.97c101.72,154.1 237.91,253.46 417.93,283.22l0 195.15c-108.8,-28.21 -189.71,-55.19 -300.49,-157.15 -110.79,-101.97 -125.34,-238.54 -117.43,-321.22zm231.41 -385.11c56.32,173.47 118.68,263.45 186.52,278.04l0 195.15c-71.81,-38.4 -166.91,-127.33 -193.42,-221.05 -26.51,-93.72 -13.85,-188.59 6.91,-252.13zm-231.41 958.47c62.17,92.68 275.45,141.32 417.93,91.53l0 190.83c-126.64,4.03 -228.27,-16.37 -277.18,-43.17 -48.91,-26.8 -130.1,-106.78 -140.75,-239.18z"/>
</symbol>
 <g id="Ebene_x0020_1">
  <metadata id="CorelCorpID_0Corel-Layer"/>
  <use id="ISO_x0020_7010_x0020_F004_0" transform="scale(0.571429 0.571429)" x="-0" y="-0" width="1750" height="1750" xlink:href="#ISO_x0020_7010_x0020_F004"/>
 </g>
</svg>
