<?xml version="1.0" encoding="UTF-8"?>
<!DOCTYPE svg PUBLIC "-//W3C//DTD SVG 1.1//EN" "http://www.w3.org/Graphics/SVG/1.1/DTD/svg11.dtd">
<!-- Creator: Corel DESIGNER -->
<svg xmlns="http://www.w3.org/2000/svg" xml:space="preserve" width="40mm" height="40mm" version="1.1" style="shape-rendering:geometricPrecision; text-rendering:geometricPrecision; image-rendering:optimizeQuality; fill-rule:evenodd; clip-rule:evenodd"
viewBox="0 0 4000 4000"
 xmlns:xlink="http://www.w3.org/1999/xlink"
 xmlns:xodm="http://www.corel.com/coreldraw/odm/2003">
 <defs>
  <style type="text/css">
   <![CDATA[
    .fil0f {fill:#A1262D}
    .fil1 {fill:white}
   ]]>
  </style>
 </defs>
<symbol id="ISO_x0020_7010_x0020_F008" viewBox="-1500 -3616.67 7000 7000">
 <rect class="fil0f" x="-1500" y="-3616.67" width="7000" height="7000"/>
 <path class="fil1" d="M3034.08 -1809.4c400.46,170.69 318.77,817.1 564.98,1211.88 246.22,394.77 571.56,826.59 1318.9,668.55 -481.04,-263.34 -744.2,-620.13 -865.9,-988.81 -121.69,-368.68 -382.77,-991.79 -1017.98,-891.62zm-374.59 2674.13c439.36,7.03 574.29,403.24 933.38,699.08 359.08,295.84 735.95,498.12 1325.09,68.97 -553.64,-179.29 -757.99,-275.04 -990.71,-585.79 -232.73,-310.76 -830.35,-547.24 -1267.76,-182.26zm588.52 -1518.27c406.48,615.76 950.66,1012.79 1669.95,1131.71l0 779.77c-434.74,-112.71 -758.03,-220.52 -1200.71,-627.96 -442.68,-407.44 -500.84,-953.17 -469.24,-1283.52zm924.68 -1538.83c225.03,693.16 474.23,1052.68 745.27,1110.99l0 779.77c-286.91,-153.45 -666.95,-508.79 -772.87,-883.28 -105.92,-374.5 -55.34,-753.57 27.6,-1007.48zm-924.69 3829.84c248.43,370.34 1100.66,564.7 1669.96,365.73l0 762.52c-506.04,16.11 -912.11,-65.42 -1107.55,-172.51 -195.43,-107.09 -519.84,-426.69 -562.41,-955.74z"/>
 <path class="fil1" d="M-909.39 -2164.82l3279.19 0 0 221.86 -269.71 0 0 135.99c0,36.87 14.17,68.61 41.62,93.22l138.71 124.35c27.46,24.61 41.63,56.35 41.63,93.21l0 3376.02 -644.06 0 0 -3376c0,-36.87 14.17,-68.62 41.63,-93.23l138.72 -124.34c27.46,-24.61 41.62,-56.36 41.62,-93.23l0 -135.99 -644.3 0 0 135.99c0,36.87 14.16,68.61 41.62,93.22l138.71 124.35c27.46,24.61 41.63,56.35 41.63,93.21l0 3376.02 -644.06 0 0 -3376c0,-36.87 14.17,-68.62 41.62,-93.23l138.72 -124.34c27.46,-24.61 41.63,-56.36 41.63,-93.23l0 -135.99 -644.3 0 0 135.99c0,36.87 14.17,68.61 41.63,93.22l138.71 124.35c27.46,24.61 41.62,56.35 41.62,93.21l0 3376.02 -644.05 0 0 -3376c0,-36.87 14.16,-68.62 41.62,-93.23l138.72 -124.34c27.46,-24.61 41.63,-56.36 41.63,-93.23l0 -135.99 -644.31 0 0 135.99c0,36.87 14.17,68.61 41.63,93.22l138.71 124.35c27.45,24.61 41.62,56.35 41.62,93.21l0 3376.02 -644.06 0 0 -3376c0,-36.87 14.17,-68.62 41.63,-93.23l138.72 -124.34c27.46,-24.61 41.62,-56.36 41.62,-93.23l0 -135.99 -276.06 0 0 -221.86z"/>
</symbol>
 <g id="Ebene_x0020_1">
  <metadata id="CorelCorpID_0Corel-Layer"/>
  <use id="ISO_x0020_7010_x0020_F008_0" transform="scale(0.571429 0.571429)" x="-0" y="-0" width="7000" height="7000" xlink:href="#ISO_x0020_7010_x0020_F008"/>
 </g>
</svg>
