<?xml version="1.0" encoding="UTF-8"?>
<!DOCTYPE svg PUBLIC "-//W3C//DTD SVG 1.1//EN" "http://www.w3.org/Graphics/SVG/1.1/DTD/svg11.dtd">
<!-- Creator: Corel DESIGNER -->
<svg xmlns="http://www.w3.org/2000/svg" xml:space="preserve" width="40mm" height="40mm" version="1.1" style="shape-rendering:geometricPrecision; text-rendering:geometricPrecision; image-rendering:optimizeQuality; fill-rule:evenodd; clip-rule:evenodd"
viewBox="0 0 1000 1000"
 xmlns:xlink="http://www.w3.org/1999/xlink"
 xmlns:xodm="http://www.corel.com/coreldraw/odm/2003">
 <defs>
  <style type="text/css">
   <![CDATA[
    .fil0f {fill:#A1262D}
    .fil1 {fill:white}
   ]]>
  </style>
 </defs>
<symbol id="ISO_x0020_7010_x0020_F010" viewBox="1125 -2462.5 1750 1750">
 <rect class="fil0f" x="1125" y="-2462.5" width="1750" height="1750"/>
 <path class="fil1" d="M2258.52 -2010.68c100.12,42.67 79.69,204.27 141.24,302.97 61.56,98.69 142.89,206.65 329.72,167.14 -120.26,-65.84 -186.05,-155.03 -216.47,-247.2 -30.42,-92.17 -95.69,-247.95 -254.49,-222.9zm-93.65 668.53c109.84,1.76 143.57,100.81 233.35,174.77 89.77,73.96 183.99,124.53 331.27,17.24 -138.41,-44.82 -189.5,-68.76 -247.68,-146.45 -58.18,-77.69 -207.59,-136.81 -316.94,-45.57zm147.13 -379.57c101.62,153.94 237.66,253.2 417.49,282.93l0 194.94c-108.68,-28.18 -189.51,-55.13 -300.18,-156.99 -110.67,-101.86 -125.21,-238.29 -117.31,-320.88zm231.17 -384.71c56.26,173.29 118.56,263.17 186.32,277.75l0 194.94c-71.73,-38.36 -166.74,-127.2 -193.22,-220.82 -26.48,-93.62 -13.84,-188.39 6.9,-251.87zm-231.17 957.46c62.11,92.58 275.16,141.17 417.49,91.43l0 190.63c-126.51,4.03 -228.03,-16.35 -276.89,-43.13 -48.86,-26.77 -129.96,-106.67 -140.6,-238.93z"/>
 <path class="fil1" d="M1800.46 -2171.89l0 1.3c36.72,3.04 65.84,34.04 65.84,71.52l0 775.88 -595.48 0 0 -775.88c0,-39.47 32.29,-71.77 71.77,-71.77l96.86 0 0 -89.63 -37.98 0 0 -19.75 334.19 0 0 19.75 -37.98 0 0 89.63 33.89 0c0,-125.6 150.98,-188.88 239.61,-100.17 25.43,25.45 41.22,60.55 41.22,99.12l0 1000.85 245.83 -72.39 0 255.21 -247.61 -72.93 -65.32 0 -72.92 41.79 0 -192.93 71.13 40.75 0 -1000.35c0,-63.39 -77.02,-95.68 -122,-50.67 -12.97,12.99 -21.03,30.93 -21.03,50.67zm-474.96 792.5l486.1 0 0 -202.04 -486.1 0 0 202.04z"/>
</symbol>
 <g id="Ebene_x0020_1">
  <metadata id="CorelCorpID_0Corel-Layer"/>
  <use id="ISO_x0020_7010_x0020_F010_0" transform="scale(0.571429 0.571429)" x="-0" y="-0" width="1750" height="1750" xlink:href="#ISO_x0020_7010_x0020_F010"/>
 </g>
</svg>
