<?xml version="1.0" encoding="UTF-8"?>
<!DOCTYPE svg PUBLIC "-//W3C//DTD SVG 1.1//EN" "http://www.w3.org/Graphics/SVG/1.1/DTD/svg11.dtd">
<!-- Creator: Corel DESIGNER -->
<svg xmlns="http://www.w3.org/2000/svg" xml:space="preserve" width="40mm" height="40mm" version="1.1" style="shape-rendering:geometricPrecision; text-rendering:geometricPrecision; image-rendering:optimizeQuality; fill-rule:evenodd; clip-rule:evenodd"
viewBox="0 0 4000 4000"
 xmlns:xlink="http://www.w3.org/1999/xlink"
 xmlns:xodm="http://www.corel.com/coreldraw/odm/2003">
 <defs>
  <style type="text/css">
   <![CDATA[
    .fil0f {fill:#A1262D}
    .fil1 {fill:white}
   ]]>
  </style>
 </defs>
<symbol id="ISO_x0020_7010_x0020_F013" viewBox="-1500 8850 7000 7000">
 <rect class="fil0f" x="-1500" y="8849.99" width="7000" height="7000"/>
 <path class="fil1" d="M3034.08 10657.26c400.46,170.69 318.77,817.1 564.98,1211.88 246.22,394.77 571.56,826.59 1318.9,668.55 -481.04,-263.34 -744.2,-620.13 -865.9,-988.81 -121.69,-368.68 -382.77,-991.79 -1017.98,-891.62zm-374.59 2674.13c439.36,7.03 574.29,403.24 933.38,699.08 359.08,295.84 735.95,498.12 1325.09,68.97 -553.64,-179.29 -757.99,-275.04 -990.71,-585.79 -232.73,-310.75 -830.35,-547.24 -1267.76,-182.26zm588.52 -1518.26c406.48,615.75 950.66,1012.78 1669.95,1131.7l0 779.77c-434.74,-112.71 -758.03,-220.52 -1200.71,-627.96 -442.68,-407.44 -500.84,-953.17 -469.24,-1283.51zm924.68 -1538.84c225.03,693.16 474.23,1052.68 745.27,1110.99l0 779.77c-286.91,-153.45 -666.95,-508.79 -772.87,-883.28 -105.92,-374.49 -55.34,-753.57 27.6,-1007.48zm-924.69 3829.84c248.43,370.34 1100.66,564.7 1669.96,365.73l0 762.52c-506.04,16.11 -912.11,-65.42 -1107.55,-172.51 -195.43,-107.09 -519.84,-426.68 -562.41,-955.74z"/>
 <path class="fil1" d="M1124.38 11190.63c0,-150.6 -122.08,-272.68 -272.68,-272.68 -150.6,0 -272.68,122.08 -272.68,272.68 0,150.6 122.08,272.68 272.68,272.68 150.6,0 272.68,-122.08 272.68,-272.68zm1471.8 0c0,-963.48 -781,-1744.48 -1744.48,-1744.48 -963.48,0 -1744.48,781 -1744.48,1744.48 0,562.25 266.04,1062.29 679.03,1381.3l0 860.03 -491.33 0 0 441.65 3113.56 0 0 -441.65 -491.32 0 0 -860.03c412.98,-319.02 679.02,-819.05 679.02,-1381.3zm-2611.2 1514.27c255.35,146.46 551.24,230.22 866.72,230.22 315.48,0 611.39,-83.74 866.72,-230.22l0 727.06 -1733.44 0 0 -727.06z"/>
</symbol>
 <g id="Ebene_x0020_1">
  <metadata id="CorelCorpID_0Corel-Layer"/>
  <use id="ISO_x0020_7010_x0020_F013_0" transform="scale(0.571429 0.571429)" x="-0" y="-0" width="7000" height="7000" xlink:href="#ISO_x0020_7010_x0020_F013"/>
 </g>
</svg>
