<?xml version="1.0" encoding="UTF-8"?>
<!DOCTYPE svg PUBLIC "-//W3C//DTD SVG 1.1//EN" "http://www.w3.org/Graphics/SVG/1.1/DTD/svg11.dtd">
<!-- Creator: Corel DESIGNER -->
<svg xmlns="http://www.w3.org/2000/svg" xml:space="preserve" width="40mm" height="40mm" version="1.1" style="shape-rendering:geometricPrecision; text-rendering:geometricPrecision; image-rendering:optimizeQuality; fill-rule:evenodd; clip-rule:evenodd"
viewBox="0 0 1000 1000"
 xmlns:xlink="http://www.w3.org/1999/xlink"
 xmlns:xodm="http://www.corel.com/coreldraw/odm/2003">
 <defs>
  <style type="text/css">
   <![CDATA[
    .fil0f {fill:#A1262D}
    .fil1 {fill:white}
   ]]>
  </style>
 </defs>
<symbol id="ISO_x0020_7010_x0020_F015" viewBox="1125 654.16 1750 1750">
 <rect class="fil0f" x="1125" y="654.16" width="1750" height="1750"/>
 <path class="fil1" d="M2258.52 1105.98c100.12,42.67 79.69,204.27 141.24,302.97 61.56,98.69 142.89,206.65 329.72,167.14 -120.26,-65.83 -186.05,-155.03 -216.47,-247.2 -30.42,-92.17 -95.69,-247.95 -254.49,-222.9zm-93.65 668.53c109.84,1.76 143.57,100.81 233.35,174.77 89.77,73.96 183.99,124.53 331.27,17.24 -138.41,-44.82 -189.5,-68.76 -247.68,-146.45 -58.18,-77.69 -207.59,-136.81 -316.94,-45.56zm147.13 -379.57c101.62,153.94 237.66,253.19 417.49,282.92l0 194.94c-108.68,-28.18 -189.51,-55.13 -300.18,-156.99 -110.67,-101.86 -125.21,-238.29 -117.31,-320.88zm231.17 -384.71c56.26,173.29 118.56,263.17 186.32,277.75l0 194.94c-71.73,-38.36 -166.74,-127.2 -193.22,-220.82 -26.48,-93.62 -13.84,-188.39 6.9,-251.87zm-231.17 957.46c62.11,92.59 275.16,141.17 417.49,91.43l0 190.63c-126.51,4.03 -228.03,-16.36 -276.89,-43.13 -48.86,-26.77 -129.96,-106.67 -140.6,-238.93z"/>
 <path class="fil1" d="M1699.81 2029.44l0 -597.77 6.9 0c16.13,0 29.32,-13.19 29.32,-29.33 0,-16.13 -13.19,-29.33 -29.32,-29.33l-6.9 0 0 -141.32 651.2 -283.24 10.67 28.67 134.19 -49.95 -43.94 -118.02 -134.19 49.95 10.67 28.67 -649.01 202.52 -26.93 -49.06 24.96 -13.7 -21.68 -39.49 -114.74 29.1 -25.94 -80.66 68.96 -37.86 -21.68 -39.49 -291.87 160.23 21.68 39.49 68.96 -37.86 54.13 65.19 -86.15 81.18 21.68 39.49 24.96 -13.7 42.86 78.07 0 101.78 -6.04 0c-16.13,0 -29.33,13.19 -29.33,29.33 0,16.13 13.19,29.33 29.33,29.33l6.04 0 0 597.77 -79.36 0 0 75.91 438.19 0 0 -75.91 -77.63 0z"/>
</symbol>
 <g id="Ebene_x0020_1">
  <metadata id="CorelCorpID_0Corel-Layer"/>
  <use id="ISO_x0020_7010_x0020_F015_0" transform="scale(0.571429 0.571429)" x="-0" y="-0" width="1750" height="1750" xlink:href="#ISO_x0020_7010_x0020_F015"/>
 </g>
</svg>
