<svg id="Ebene_1" data-name="Ebene 1" xmlns="http://www.w3.org/2000/svg" viewBox="0 0 553.1 553.1"><defs><style>.cls-1{fill:#fff;}.cls-1,.cls-2,.cls-3{fill-rule:evenodd;}.cls-2{fill:#da251d;}</style></defs><polygon class="cls-1" points="0 276.55 276.55 0 553.1 276.55 276.55 553.1 0 276.55 0 276.55"/><path class="cls-2" d="M21,421.44,297.55,144.89,574.1,421.44,297.55,698,21,421.44Zm44.84,0L297.55,189.73,529.27,421.44,297.55,653.16,65.84,421.44Z" transform="translate(-21 -144.89)"/><polygon class="cls-3" points="243.57 275.83 232.34 283.74 218.41 280.63 218.65 281.84 218.89 283.09 219.2 284.3 219.58 285.47 219.96 286.68 220.41 287.86 220.86 289.03 221.38 290.17 221.93 291.28 222.56 292.42 223.18 293.49 223.83 294.56 224.56 295.6 225.29 296.6 226.08 297.57 226.88 298.54 227.74 299.44 228.6 300.33 229.54 301.17 230.47 301.96 231.44 302.72 232.48 303.45 233.51 304.14 234.59 304.76 235.69 305.35 236.8 305.9 237.97 306.38 239.15 306.8 240.36 307.18 241.6 307.49 242.85 307.77 244.16 307.98 245.79 308.15 247.41 308.29 249.03 308.36 250.63 308.32 252.18 308.29 253.7 308.15 255.22 307.98 256.71 307.73 258.16 307.42 259.58 307.04 261 306.63 262.38 306.14 263.73 305.59 265.04 305 266.32 304.35 267.56 303.62 268.77 302.86 269.95 302 271.13 301.13 272.23 300.16 273.3 299.16 274.34 298.12 275.34 297.02 276.31 295.84 277.24 294.6 278.11 293.32 278.97 292 279.77 290.62 280.53 289.17 281.25 287.68 281.91 286.13 282.53 284.54 276.83 281.63 268.57 273.89 267.5 281.05 257.02 287.51 243.57 275.83 243.57 275.83"/><polygon class="cls-3" points="257.92 267.67 254.88 258.33 265.28 259.79 267.18 253.49 279.21 253.43 278.49 252.46 277.69 251.52 276.9 250.59 276.03 249.73 275.17 248.86 274.24 248.07 273.3 247.27 272.33 246.51 271.37 245.82 270.36 245.13 269.36 244.47 268.32 243.85 267.25 243.26 266.18 242.71 265.11 242.19 264.04 241.71 262.97 241.22 261.86 240.81 260.79 240.43 259.68 240.08 258.61 239.74 257.54 239.46 256.47 239.22 255.4 238.97 254.36 238.8 253.32 238.66 252.32 238.53 251.32 238.46 250.35 238.39 249.38 238.39 248.45 238.42 247.55 238.46 246.44 238.59 245.34 238.73 244.19 238.94 243.09 239.18 241.98 239.46 240.84 239.81 239.74 240.19 238.63 240.6 237.52 241.05 236.42 241.57 235.35 242.12 234.27 242.71 233.2 243.37 232.16 244.06 231.16 244.82 230.16 245.58 229.19 246.44 228.22 247.31 227.33 248.24 226.43 249.21 225.56 250.25 224.73 251.32 223.94 252.46 223.18 253.63 222.49 254.84 221.79 256.12 221.17 257.44 220.59 258.82 220.03 260.24 219.55 261.72 219.1 263.24 218.72 264.83 224.15 270.47 236 268.95 249.38 275.62 257.92 267.67 257.92 267.67"/><polygon class="cls-3" points="158.71 330.96 153.11 323.19 154.73 315.89 156.22 316.06 160.71 319.38 162.51 317.55 167.14 319.56 165.97 323.01 163.82 325.33 160.19 325.33 158.71 330.96 158.71 330.96"/><polygon class="cls-3" points="211.25 319.56 206.97 314.58 211.42 310.29 219.2 310.46 222.35 312.26 220.52 318.55 216.4 320.38 214.91 318.07 211.25 319.56 211.25 319.56"/><polygon class="cls-3" points="175.58 301.86 184.84 301.86 185.32 305.49 181.52 307.32 175.58 301.86 175.58 301.86"/><polygon class="cls-3" points="156.56 283.98 166.79 291.24 156.22 290.1 151.27 290.28 151.27 287.61 156.56 283.98 156.56 283.98"/><polygon class="cls-3" points="191.62 288.27 185.15 286.78 179.69 282.32 182.66 277.35 190.44 276.69 192.41 280.01 197.39 278.52 197.56 285.13 193.59 283.98 191.62 288.27 191.62 288.27"/><polygon class="cls-3" points="262.34 174.44 266.32 176.75 267.94 171.12 271.75 171.12 275.41 182.04 266.32 192.48 264.31 185.71 260.51 183.53 262.34 174.44 262.34 174.44"/><polygon class="cls-3" points="303 199.91 305.14 197.77 306.97 202.75 306.97 207.38 303.34 212.01 300.51 212.01 297.54 207.52 299.19 200.57 301.68 197.6 303 199.91 303 199.91"/><polygon class="cls-3" points="308.46 227.71 303.65 238.63 291.11 249.38 288.96 243.44 281.84 247.72 280.36 243.26 284.99 240.63 288.44 236.14 298.19 236.49 308.46 227.71 308.46 227.71"/><polygon class="cls-3" points="384.3 217.78 377.22 213.98 378.84 206.38 380.5 204.06 389.59 204.37 393.39 194.14 401 207.38 400.34 219.27 389.42 212.01 384.3 217.78 384.3 217.78"/><polygon class="cls-3" points="348.94 227.88 359.86 238.8 349.94 237.49 343.17 236.83 345.97 233.34 345.31 230.85 348.94 227.88 348.94 227.88"/><polygon class="cls-3" points="335.22 267.77 354.23 276.52 353.92 278.35 346.97 284.81 336.39 284.3 333.07 280.67 324.15 283.33 322.49 274.55 330.1 273.54 335.22 267.77 335.22 267.77"/><polygon class="cls-3" points="296.39 294.39 303.65 296.71 305.8 293.08 317.03 298.37 321.84 303.34 321.01 307.8 309.95 305 302.82 304 294.39 298.54 296.39 294.39 296.39 294.39"/><polygon class="cls-3" points="205.93 253.46 207.55 256.47 233.38 274.2 205.93 253.46 205.93 253.46"/><polygon class="cls-3" points="199.91 261.58 199.46 259.2 229.16 275.24 199.91 261.58 199.91 261.58"/><polygon class="cls-3" points="186.71 267.74 227.5 277.04 183.73 270.43 186.71 267.74 186.71 267.74"/><polygon class="cls-3" points="138.72 274.51 227.81 280.49 141.15 278.11 138.72 274.51 138.72 274.51"/><polygon class="cls-3" points="111.45 297.47 226.6 284.09 110.24 300.61 111.45 297.47 111.45 297.47"/><polygon class="cls-3" points="139.04 306.63 225.56 287.1 138.9 309.77 139.04 306.63 139.04 306.63"/><polygon class="cls-3" points="193.62 300.61 194.21 297.33 229.16 288.17 193.62 300.61 193.62 300.61"/><polygon class="cls-3" points="177.89 318.17 224.53 290.55 177.58 315.48 177.89 318.17 177.89 318.17"/><polygon class="cls-3" points="174.44 339.05 235.45 289.2 178.03 342.82 174.44 339.05 174.44 339.05"/><polygon class="cls-3" points="280.01 165.66 284.19 168.04 259.16 246.72 280.01 165.66 280.01 165.66"/><polygon class="cls-3" points="301.3 128.56 308.81 133.23 265.32 253.18 264.42 252.87 257.95 250.63 301.3 128.56 301.3 128.56"/><polygon class="cls-3" points="299.33 183.53 303.55 186.22 264.87 250.49 299.33 183.53 299.33 183.53"/><polygon class="cls-3" points="256.61 269.98 354.54 163.68 358.72 168.35 256.61 269.98 256.61 269.98"/><polygon class="cls-3" points="267.56 266.53 358 202.44 358 210.7 267.56 266.53 267.56 266.53"/><polygon class="cls-3" points="276.55 264.73 329.93 239.36 329.79 244.02 276.55 264.73 276.55 264.73"/><polygon class="cls-3" points="264.28 269.74 423.06 228.88 425.3 234.14 264.28 269.74 264.28 269.74"/><polygon class="cls-3" points="270.12 274.51 444.31 245.06 444.59 251.49 270.12 274.51 270.12 274.51"/><polygon class="cls-3" points="270.71 280.22 421.57 285.3 425.58 288.44 270.71 280.22 270.71 280.22"/><polygon class="cls-3" points="271.92 285.44 344.03 296.08 341.96 304.59 271.92 285.44 271.92 285.44"/><polygon class="cls-3" points="270.43 287.1 317.24 313.71 319.35 318.21 270.43 287.1 270.43 287.1"/><polygon class="cls-3" points="256.64 279.9 323.25 328.23 320.11 330.48 256.64 279.9 256.64 279.9"/><polygon class="cls-3" points="306.49 322.11 308.87 327.06 263.83 290.97 306.49 322.11 306.49 322.11"/></svg>