<svg id="Ebene_1" data-name="Ebene 1" xmlns="http://www.w3.org/2000/svg" viewBox="0 0 553.1 553.1"><defs><style>.cls-1{fill:#fff;}.cls-1,.cls-2,.cls-3{fill-rule:evenodd;}.cls-2{fill:#da251d;}.cls-4{fill:none;stroke:#000;stroke-linecap:square;stroke-miterlimit:10;stroke-width:0.21px;}</style></defs><polygon class="cls-1" points="0 276.55 276.55 0 553.1 276.55 276.55 553.1 0 276.55 0 276.55"/><path class="cls-2" d="M21,421.44,297.55,144.89,574.1,421.44,297.55,698,21,421.44Zm44.84,0L297.55,189.73,529.27,421.44,297.55,653.16,65.84,421.44Z" transform="translate(-21 -144.89)"/><polygon class="cls-3" points="273.54 322.32 275.2 322.39 276.83 322.49 278.45 322.7 280.01 322.98 281.56 323.36 283.09 323.77 284.57 324.29 286.02 324.85 287.48 325.5 288.86 326.19 290.17 326.99 291.49 327.82 292.76 328.72 293.98 329.65 295.12 330.65 296.22 331.72 297.29 332.83 298.3 334.01 299.26 335.22 300.16 336.5 300.99 337.77 301.75 339.12 302.48 340.5 303.1 341.92 303.69 343.37 304.21 344.86 304.62 346.42 305 347.94 305.28 349.53 305.49 351.15 305.59 352.78 305.63 354.4 305.59 356.06 305.49 357.69 305.28 359.31 305 360.87 304.62 362.42 304.21 363.94 303.69 365.46 303.1 366.92 302.48 368.33 301.75 369.71 300.99 371.06 300.16 372.34 299.26 373.62 298.3 374.83 297.29 375.97 296.22 377.11 295.12 378.15 293.98 379.19 292.76 380.12 291.49 381.02 290.17 381.85 288.86 382.61 287.48 383.34 286.02 383.99 284.57 384.55 283.09 385.06 281.56 385.48 280.01 385.86 278.45 386.14 276.83 386.34 275.2 386.45 273.54 386.52 271.92 386.45 270.26 386.34 268.67 386.14 267.08 385.86 265.52 385.48 264 385.06 262.52 384.55 261.06 383.99 259.65 383.34 258.26 382.61 256.92 381.85 255.6 381.02 254.36 380.12 253.15 379.19 251.97 378.15 250.87 377.11 249.8 375.97 248.79 374.83 247.86 373.62 246.96 372.34 246.13 371.06 245.34 369.71 244.65 368.33 243.99 366.92 243.4 365.46 242.92 363.94 242.47 362.42 242.12 360.87 241.84 359.31 241.64 357.69 241.5 356.06 241.46 354.4 241.5 352.78 241.64 351.15 241.84 349.53 242.12 347.94 242.47 346.42 242.92 344.86 243.4 343.37 243.99 341.92 244.65 340.5 245.34 339.12 246.13 337.77 246.96 336.5 247.86 335.22 248.79 334.01 249.8 332.83 250.87 331.72 251.97 330.65 253.15 329.65 254.36 328.72 255.6 327.82 256.92 326.99 258.26 326.19 259.65 325.5 261.06 324.85 262.52 324.29 264 323.77 265.52 323.36 267.08 322.98 268.67 322.7 270.26 322.49 271.92 322.39 273.54 322.32 273.54 322.32"/><polygon class="cls-4" points="273.54 322.32 275.2 322.39 276.83 322.49 278.45 322.7 280.01 322.98 281.56 323.36 283.09 323.77 284.57 324.29 286.02 324.85 287.48 325.5 288.86 326.19 290.17 326.99 291.49 327.82 292.76 328.72 293.98 329.65 295.12 330.65 296.22 331.72 297.29 332.83 298.3 334.01 299.26 335.22 300.16 336.5 300.99 337.77 301.75 339.12 302.48 340.5 303.1 341.92 303.69 343.37 304.21 344.86 304.62 346.42 305 347.94 305.28 349.53 305.49 351.15 305.59 352.78 305.63 354.4 305.59 356.06 305.49 357.69 305.28 359.31 305 360.87 304.62 362.42 304.21 363.94 303.69 365.46 303.1 366.92 302.48 368.33 301.75 369.71 300.99 371.06 300.16 372.34 299.26 373.62 298.3 374.83 297.29 375.97 296.22 377.11 295.12 378.15 293.98 379.19 292.76 380.12 291.49 381.02 290.17 381.85 288.86 382.61 287.48 383.34 286.02 383.99 284.57 384.55 283.09 385.06 281.56 385.48 280.01 385.86 278.45 386.14 276.83 386.34 275.2 386.45 273.54 386.52 271.92 386.45 270.26 386.34 268.67 386.14 267.08 385.86 265.52 385.48 264 385.06 262.52 384.55 261.06 383.99 259.65 383.34 258.26 382.61 256.92 381.85 255.6 381.02 254.36 380.12 253.15 379.19 251.97 378.15 250.87 377.11 249.8 375.97 248.79 374.83 247.86 373.62 246.96 372.34 246.13 371.06 245.34 369.71 244.65 368.33 243.99 366.92 243.4 365.46 242.92 363.94 242.47 362.42 242.12 360.87 241.84 359.31 241.64 357.69 241.5 356.06 241.46 354.4 241.5 352.78 241.64 351.15 241.84 349.53 242.12 347.94 242.47 346.42 242.92 344.86 243.4 343.37 243.99 341.92 244.65 340.5 245.34 339.12 246.13 337.77 246.96 336.5 247.86 335.22 248.79 334.01 249.8 332.83 250.87 331.72 251.97 330.65 253.15 329.65 254.36 328.72 255.6 327.82 256.92 326.99 258.26 326.19 259.65 325.5 261.06 324.85 262.52 324.29 264 323.77 265.52 323.36 267.08 322.98 268.67 322.7 270.26 322.49 271.92 322.39 273.54 322.32 273.54 322.32"/><polygon class="cls-3" points="233.96 147.23 233.82 145.53 233.82 143.91 234 142.35 234.34 140.83 234.83 139.38 235.45 137.97 236.21 136.62 237.11 135.34 238.11 134.13 239.22 132.95 240.46 131.81 241.78 130.78 243.16 129.74 244.65 128.8 246.2 127.91 247.79 127.04 249.48 126.25 251.18 125.52 252.94 124.83 254.74 124.21 256.57 123.62 258.4 123.1 260.24 122.62 262.07 122.2 263.9 121.82 265.73 121.51 267.53 121.23 269.29 120.99 271.06 120.85 272.71 120.72 274.37 120.65 275.93 120.65 277.56 120.65 279.25 120.75 280.98 120.89 282.74 121.06 284.5 121.27 286.3 121.55 288.13 121.89 289.93 122.27 291.76 122.69 293.56 123.17 295.36 123.69 297.12 124.28 298.88 124.93 300.58 125.62 302.24 126.35 303.83 127.14 305.38 127.97 306.87 128.87 308.29 129.84 309.6 130.84 310.84 131.91 312.02 133.02 313.06 134.2 313.99 135.41 314.82 136.69 315.51 138.03 316.06 139.42 316.51 140.87 316.79 142.35 316.93 143.94 316.93 145.53 316.72 147.23 315.79 152.93 314.75 159.19 313.57 165.93 312.3 173.16 310.91 180.87 309.43 189.02 307.84 197.7 306.14 206.83 304.31 216.37 302.41 226.39 300.44 236.83 298.37 247.72 296.19 259.03 293.91 270.71 291.56 282.84 289.13 295.36 288.89 296.29 288.48 297.19 287.93 297.99 287.27 298.75 286.47 299.47 285.61 300.09 284.64 300.68 283.57 301.2 282.43 301.65 281.22 302.06 279.94 302.41 278.63 302.69 277.28 302.89 275.93 303.03 274.51 303.14 273.13 303.17 271.71 303.14 270.33 303.07 268.95 302.89 267.6 302.69 266.32 302.41 265.07 302.06 263.87 301.68 262.72 301.23 261.69 300.72 260.72 300.13 259.89 299.47 259.13 298.78 258.47 298.02 257.95 297.19 257.61 296.29 257.37 295.36 255.84 285.71 254.22 275.48 252.49 264.73 250.73 253.63 248.97 242.33 247.13 231.03 245.37 219.79 243.61 208.8 241.91 198.18 240.32 188.13 238.84 178.72 237.52 170.18 236.31 162.61 235.31 156.15 234.52 151 233.96 147.23 233.96 147.23"/><polygon class="cls-4" points="233.96 147.23 233.82 145.53 233.82 143.91 234 142.35 234.34 140.83 234.83 139.38 235.45 137.97 236.21 136.62 237.11 135.34 238.11 134.13 239.22 132.95 240.46 131.81 241.78 130.78 243.16 129.74 244.65 128.8 246.2 127.91 247.79 127.04 249.48 126.25 251.18 125.52 252.94 124.83 254.74 124.21 256.57 123.62 258.4 123.1 260.24 122.62 262.07 122.2 263.9 121.82 265.73 121.51 267.53 121.23 269.29 120.99 271.06 120.85 272.71 120.72 274.37 120.65 275.93 120.65 277.56 120.65 279.25 120.75 280.98 120.89 282.74 121.06 284.5 121.27 286.3 121.55 288.13 121.89 289.93 122.27 291.76 122.69 293.56 123.17 295.36 123.69 297.12 124.28 298.88 124.93 300.58 125.62 302.24 126.35 303.83 127.14 305.38 127.97 306.87 128.87 308.29 129.84 309.6 130.84 310.84 131.91 312.02 133.02 313.06 134.2 313.99 135.41 314.82 136.69 315.51 138.03 316.06 139.42 316.51 140.87 316.79 142.35 316.93 143.94 316.93 145.53 316.72 147.23 315.79 152.93 314.75 159.19 313.57 165.93 312.3 173.16 310.91 180.87 309.43 189.02 307.84 197.7 306.14 206.83 304.31 216.37 302.41 226.39 300.44 236.83 298.37 247.72 296.19 259.03 293.91 270.71 291.56 282.84 289.13 295.36 288.89 296.29 288.48 297.19 287.93 297.99 287.27 298.75 286.47 299.47 285.61 300.09 284.64 300.68 283.57 301.2 282.43 301.65 281.22 302.06 279.94 302.41 278.63 302.69 277.28 302.89 275.93 303.03 274.51 303.14 273.13 303.17 271.71 303.14 270.33 303.07 268.95 302.89 267.6 302.69 266.32 302.41 265.07 302.06 263.87 301.68 262.72 301.23 261.69 300.72 260.72 300.13 259.89 299.47 259.13 298.78 258.47 298.02 257.95 297.19 257.61 296.29 257.37 295.36 255.84 285.71 254.22 275.48 252.49 264.73 250.73 253.63 248.97 242.33 247.13 231.03 245.37 219.79 243.61 208.8 241.91 198.18 240.32 188.13 238.84 178.72 237.52 170.18 236.31 162.61 235.31 156.15 234.52 151 233.96 147.23 233.96 147.23"/></svg>