<svg id="Ebene_1" data-name="Ebene 1" xmlns="http://www.w3.org/2000/svg" viewBox="0 0 553.18 553.1"><defs><style>.cls-1{fill:#fff;}.cls-1,.cls-2,.cls-3,.cls-5{fill-rule:evenodd;}.cls-2{fill:#da251d;}.cls-3{fill:#000808;}.cls-4{fill:none;stroke:#000;stroke-linecap:square;stroke-miterlimit:10;stroke-width:0.21px;}</style></defs><polygon class="cls-1" points="0 276.55 276.59 0 553.18 276.55 276.59 553.1 0 276.55 0 276.55"/><path class="cls-2" d="M21,421.44,297.59,144.89,574.18,421.44,297.59,698,21,421.44Zm44.84,0L297.59,189.73,529.33,421.44,297.59,653.16,65.84,421.44Z" transform="translate(-21 -144.89)"/><polygon class="cls-3" points="206.09 296.6 205.68 296.08 204.88 295.08 204.05 294.04 203.22 293.04 202.39 292.04 201.6 291 200.77 290 199.94 288.96 199.25 287.61 198.56 286.23 197.86 284.88 197.14 283.54 196.45 282.15 195.72 280.8 195.03 279.42 194.3 278.07 193.99 276.31 193.65 274.58 193.34 272.82 192.99 271.09 192.64 269.33 192.3 267.56 191.99 265.8 191.64 264.07 191.33 262.31 190.98 260.55 190.64 258.78 190.33 257.06 189.98 255.29 189.64 253.56 189.29 251.8 188.98 250.04 188.94 248 188.94 245.96 188.94 243.92 188.91 241.88 188.91 239.84 188.91 237.84 188.91 235.79 188.88 233.76 188.88 231.72 188.88 229.68 188.88 227.67 188.84 225.63 188.84 223.59 188.81 221.55 188.81 219.55 188.81 217.51 188.7 216.23 188.56 214.95 188.43 213.67 188.29 212.39 188.15 211.11 188.01 209.87 187.87 208.59 187.77 207.31 187.63 206.03 187.49 204.75 187.35 203.47 187.22 202.19 187.08 200.91 186.94 199.67 186.84 198.39 186.7 197.11 186.56 196.84 186.42 196.56 186.42 195.94 186.42 195.35 186.42 194.76 186.42 194.17 186.66 194.21 186.9 194.35 187.18 194.45 187.49 194.62 187.8 194.8 188.15 195 188.53 195.28 188.91 195.52 189.71 196.07 190.57 196.73 191.47 197.42 192.4 198.15 194.27 199.64 196.1 201.09 196.97 201.78 197.79 202.44 198.56 202.99 199.25 203.47 200.66 204.34 202.08 205.2 203.5 206.03 204.92 206.9 206.34 207.76 207.75 208.62 209.17 209.49 210.59 210.35 210.41 209.31 210.21 208.24 210.03 207.21 209.83 206.13 209.62 205.06 209.41 203.99 209.24 202.92 209.03 201.88 208.86 200.81 208.72 199.74 208.55 198.67 208.41 197.6 208.31 196.56 208.2 195.52 208.1 194.49 208.03 193.45 208.06 192.24 208.06 191.06 208.06 189.89 208.1 188.71 208.1 187.54 208.1 186.33 208.13 185.15 208.13 183.98 208.1 182.8 208.1 181.63 208.06 180.45 208.03 179.28 208.03 178.1 207.99 176.92 207.99 175.75 207.93 174.57 207.93 173.22 207.86 171.91 207.75 170.6 207.65 169.28 207.54 167.97 207.37 166.69 207.2 165.38 207.06 164.1 206.85 162.82 206.65 161.54 206.44 160.26 206.23 158.98 206.02 157.7 205.82 156.43 205.61 155.15 205.4 153.87 205.57 154 205.82 154.21 206.16 154.59 206.75 155.25 207.65 156.32 208.96 157.84 210.76 159.99 213.15 162.82 214.15 164.17 214.98 165.31 215.7 166.31 216.47 167.42 217.36 168.7 218.47 170.32 219.92 172.47 221.79 175.23 223.1 175.89 224.38 176.54 225.66 177.2 226.97 177.89 228.25 178.58 229.57 179.28 230.85 179.93 232.16 180.62 231.99 179.21 231.78 177.79 231.61 176.37 231.44 174.95 231.26 173.54 231.09 172.12 230.92 170.7 230.74 169.28 230.57 167.87 230.4 166.45 230.22 165.03 230.05 163.62 229.88 162.2 229.71 160.78 229.53 159.36 229.36 157.95 229.71 155.25 230.05 152.9 230.29 150.82 230.54 149.06 230.74 147.54 230.92 146.26 231.06 145.16 231.19 144.26 231.3 143.5 231.4 142.87 231.47 142.32 231.57 141.84 231.64 141.42 231.71 141.04 231.78 140.66 231.88 140.21 232.58 138.9 233.27 137.59 233.96 136.27 234.65 134.96 235.34 133.64 236.03 132.33 236.76 131.02 237.45 129.7 237.35 129.05 237.24 128.39 237.07 127.7 236.93 127.04 236.59 125.73 236.21 124.41 235.83 123.1 235.45 121.86 235.1 120.61 234.75 119.37 234.89 119.33 235.06 119.3 235.76 120.16 236.48 121.03 237.17 121.89 237.9 122.75 238.63 123.62 239.35 124.52 240.04 125.35 240.77 126.25 241.5 127.11 242.19 127.97 242.91 128.84 243.6 129.7 244.33 130.6 245.06 131.47 245.78 132.33 246.47 133.19 246.65 133.5 246.79 133.85 246.92 134.2 247.06 134.58 247.34 135.41 247.62 136.27 247.82 137.13 248.06 138 248.27 138.83 248.48 139.56 249 140.59 249.48 141.66 250.04 142.74 250.55 143.77 251.14 144.84 251.76 145.92 252.39 146.99 253.11 148.09 255.05 150.62 256.5 152.48 257.57 153.87 258.26 154.76 258.75 155.35 259.02 155.66 259.16 155.8 259.3 155.87 260.24 153.56 261.06 151.52 261.79 149.68 262.41 148.13 262.97 146.81 263.42 145.67 263.76 144.74 264.07 143.98 264.31 143.32 264.52 142.81 264.66 142.39 264.8 142.04 264.9 141.77 264.97 141.53 265.04 141.32 265.11 141.15 265.42 139.66 265.66 138.21 265.97 136.75 266.25 135.3 266.53 133.85 266.8 132.4 267.08 130.91 267.36 129.46 267.63 128.01 267.94 126.56 268.22 125.11 268.5 123.65 268.77 122.17 269.05 120.72 269.33 119.26 269.64 117.85 269.64 116.74 269.64 115.63 269.64 114.53 269.64 113.45 269.64 112.35 269.64 111.24 269.67 110.17 269.67 109.06 269.67 107.96 269.67 106.89 269.67 105.78 269.67 104.67 269.71 103.6 269.71 102.5 269.71 101.39 269.71 100.32 270.26 97.9 270.75 95.72 271.16 93.86 271.54 92.23 271.85 90.81 272.16 89.6 272.4 88.53 272.61 87.6 272.79 86.77 272.96 86.04 273.13 85.35 273.27 84.69 273.41 84.07 273.55 83.42 273.68 82.72 273.86 81.93 273.89 81.86 273.96 81.76 274.03 81.62 274.1 81.48 274.24 81.13 274.34 80.72 274.58 79.75 274.82 78.68 275.03 77.54 275.24 76.54 275.34 76.05 275.45 75.67 275.52 75.33 275.62 75.08 275.97 76.5 276.31 77.88 276.66 79.34 277.04 80.75 277.38 82.17 277.73 83.59 278.07 85 278.45 86.42 278.8 87.84 279.15 89.26 279.49 90.67 279.84 92.13 280.22 93.51 280.56 94.96 280.91 96.38 281.29 97.8 281.98 99.45 282.67 101.11 283.33 102.74 284.06 104.36 284.75 106.02 285.44 107.65 286.1 109.31 286.75 110.97 287.41 112.63 288.03 114.28 288.65 115.98 289.28 117.67 289.86 119.4 290.42 121.16 290.94 122.89 291.42 124.69 291.52 124.79 291.59 125.04 291.7 125.31 291.77 125.66 291.87 125.97 291.97 126.25 292.08 126.49 292.15 126.63 292.8 128.91 293.29 130.64 293.67 131.91 293.94 132.85 294.15 133.5 294.29 133.99 294.43 134.4 294.5 134.78 294.5 136.31 294.5 137.79 294.5 139.28 294.5 140.8 294.5 142.29 294.5 143.81 294.5 145.29 294.5 146.78 294.5 148.3 294.5 149.79 294.5 151.27 294.5 152.79 294.5 154.32 294.5 155.8 294.5 157.32 294.5 158.81 294.7 158.74 294.88 158.64 296.12 158.01 297.37 157.39 298.65 156.77 299.86 156.15 301.13 155.56 302.38 154.94 303.66 154.32 304.9 153.73 305.56 152.35 306.25 151 306.91 149.68 307.57 148.3 308.26 146.95 308.95 145.6 309.61 144.26 310.3 142.91 310.61 141.32 310.95 139.76 311.26 138.17 311.61 136.62 311.96 135.03 312.3 133.44 312.65 131.88 312.99 130.29 313.03 129.56 313.06 128.84 313.1 128.15 313.13 127.42 313.17 126.69 313.2 125.97 313.24 125.21 313.27 124.48 314.1 126.31 314.93 128.11 315.79 129.91 316.62 131.71 317.45 133.5 318.28 135.34 319.11 137.13 319.98 138.93 320.81 140.73 321.64 142.53 322.47 144.36 323.3 146.16 324.13 147.96 324.99 149.75 325.82 151.59 326.65 153.38 326.65 154.45 326.65 155.49 326.65 156.56 326.62 157.63 326.62 158.71 326.62 159.78 326.62 160.85 326.62 161.89 326.62 162.96 326.58 164.03 326.58 165.1 326.58 166.17 326.58 167.25 326.55 168.32 326.55 169.39 326.55 170.46 326.31 172.01 326.03 173.61 325.75 175.16 325.51 176.75 325.23 178.34 324.96 179.93 324.68 181.52 324.44 183.08 327.45 181.69 329.73 180.62 331.39 179.86 332.53 179.34 333.25 178.96 333.7 178.76 334.01 178.58 334.26 178.41 334.95 177.72 335.61 177.06 336.26 176.37 336.92 175.68 337.58 174.99 338.23 174.33 338.86 173.64 339.55 172.95 339.75 172.53 339.96 172.15 340.17 171.63 340.44 170.94 340.83 169.98 341.34 168.59 342 166.73 342.9 164.27 343.28 165.48 343.66 166.69 344.07 167.94 344.46 169.18 344.87 170.46 345.29 171.74 345.67 173.05 346.05 174.33 346.46 175.65 346.84 176.96 347.15 178.24 347.5 179.55 347.81 180.87 348.09 182.14 348.33 183.42 348.54 184.67 348.22 185.71 347.95 186.71 347.6 187.74 347.29 188.75 347.01 189.78 346.7 190.79 346.39 191.82 346.08 192.83 345.77 193.86 345.46 194.9 345.15 195.9 344.84 196.94 344.52 197.98 344.21 198.98 343.94 200.02 343.63 201.05 343.11 203.47 342.66 205.62 342.24 207.48 341.9 209.07 341.62 210.42 341.38 211.56 341.17 212.5 341.03 213.26 340.89 213.84 340.83 214.29 340.76 214.64 340.72 214.88 340.69 215.02 340.69 215.16 340.69 215.23 340.69 215.26 343.63 213.91 345.87 212.88 347.5 212.12 348.64 211.56 349.43 211.15 350.02 210.84 350.47 210.59 350.92 210.35 351.92 209.35 352.96 208.38 354 207.41 355.04 206.48 356.07 205.48 357.07 204.54 358.11 203.58 359.15 202.61 359.18 201.95 359.22 201.29 359.22 200.64 359.25 199.98 359.25 199.36 359.29 198.7 359.32 198.05 359.36 197.42 360.7 203.06 361.92 208.04 362.95 212.32 363.85 215.99 364.61 219.1 365.23 221.73 365.75 223.87 366.2 225.6 366.51 226.91 366.79 227.95 366.96 228.67 367.1 229.19 367.2 229.54 367.27 229.71 367.31 229.81 367.38 229.88 367.38 229.95 367.38 230.06 367.34 231.89 367.34 233.76 367.34 235.59 367.31 237.42 367.31 239.29 367.31 241.12 367.31 242.95 367.27 244.82 367.27 246.65 367.27 248.52 367.24 250.35 367.24 252.18 367.24 254.05 367.2 255.88 367.2 257.75 367.17 259.61 366.69 261.06 366.1 262.62 365.48 264.28 364.85 265.97 364.54 266.84 364.27 267.7 363.99 268.57 363.71 269.43 363.47 270.3 363.23 271.13 363.06 271.99 362.88 272.78 362.78 272.92 362.68 273.06 362.57 273.2 362.5 273.34 362.37 273.72 362.19 274.13 362.09 274.58 361.99 275.07 361.85 275.51 361.74 276.03 361.64 276.55 361.54 277.04 361.4 277.52 361.29 277.94 361.12 278.38 360.95 278.73 360.88 278.9 360.81 279.04 360.67 279.18 360.57 279.32 360.36 279.9 360.15 280.46 359.94 281.05 359.74 281.63 359.53 282.19 359.32 282.77 359.12 283.36 358.91 283.92 357.97 285.4 357.04 286.89 356.14 288.38 355.21 289.86 354.27 291.35 353.34 292.83 352.41 294.32 351.47 295.84 350.57 297.33 349.64 298.81 348.71 300.3 347.77 301.79 346.88 303.27 345.94 304.76 345.04 306.25 345.46 304.31 345.8 302.38 346.15 300.4 346.39 298.4 346.6 296.39 346.74 294.36 346.84 292.31 346.88 290.28 346.84 288.93 346.81 287.55 346.74 286.2 346.67 284.85 346.53 283.5 346.39 282.19 346.22 280.87 346.05 279.52 345.84 278.25 345.6 276.93 345.32 275.62 345.04 274.34 344.73 273.06 344.39 271.82 344.04 270.54 343.66 269.29 343.66 269.22 343.83 267.7 344.01 266.18 344.18 264.69 344.35 263.21 344.49 261.72 344.59 260.24 344.7 258.75 344.84 257.3 344.9 255.81 345.01 254.32 345.04 252.84 345.11 251.35 345.15 249.87 345.18 248.38 345.22 246.86 345.22 245.68 345.22 244.47 345.22 243.26 345.22 242.05 345.22 240.88 345.22 239.67 345.22 238.49 345.22 237.28 345.22 236.73 345.22 236.21 345.22 235.66 345.22 235.17 345.22 234.62 345.22 234.1 345.22 233.55 345.22 233.03 344.46 233.55 343.66 234.07 342.9 234.62 342.14 235.1 341.38 235.66 340.62 236.18 339.86 236.69 339.1 237.25 337.33 238.59 335.64 239.94 334.05 241.15 332.6 242.29 331.39 243.26 330.42 244.06 329.87 244.47 328.69 243.12 327.48 241.81 326.24 240.53 324.96 239.25 323.64 238.04 322.29 236.87 320.91 235.69 319.49 234.59 319.32 233.69 318.91 231.51 318.46 229.3 318.04 227.12 317.63 224.94 317.18 222.73 316.76 220.55 316.35 218.37 315.93 216.19 315.48 214.02 315.07 211.84 314.65 209.63 314.2 207.45 313.79 205.27 313.37 203.06 312.93 200.88 312.79 200.85 312.65 200.85 311.71 202.3 310.82 203.75 309.88 205.2 308.95 206.65 308.01 208.1 307.08 209.56 306.15 211.01 305.21 212.46 304.28 213.91 303.35 215.37 302.45 216.82 301.51 218.27 300.58 219.72 299.65 221.17 298.71 222.62 298.3 223.28 297.44 223 296.54 222.73 295.64 222.45 294.74 222.21 293.84 221.97 292.94 221.76 292.04 221.52 291.11 221.31 291.11 221.28 290.76 220.21 290.45 219.17 290.11 218.1 289.76 217.02 289.45 215.95 289.14 214.91 288.83 213.88 288.69 213.74 288.58 213.6 288.48 213.43 288.38 213.26 288.2 212.88 288.07 212.46 287.93 212.01 287.79 211.53 287.69 211.01 287.58 210.53 287.38 209.52 287.13 208.62 287 208.24 286.86 207.86 286.79 207.72 286.72 207.59 286.61 207.45 286.51 207.34 286.51 207.28 286.51 207.21 286.48 207.07 286.44 206.86 286.37 206.55 286.27 206.07 286.17 205.48 286.03 204.72 285.85 203.75 285.61 202.54 285.33 201.05 285.06 199.32 284.68 197.28 284.23 194.87 283.78 192.1 283.23 188.95 281.08 186.4 279.18 184.15 277.56 182.21 276.17 180.55 274.96 179.14 273.96 177.96 273.17 176.99 272.47 176.2 271.95 175.58 271.54 175.09 271.23 174.75 270.99 174.5 270.81 174.3 270.71 174.19 270.61 174.09 270.5 174.02 270.47 174.44 270.47 174.88 270.43 175.26 270.43 175.68 270.4 176.09 270.4 176.61 270.37 177.2 270.37 177.86 270.33 178.65 270.33 179.62 270.3 180.76 270.26 182.07 270.23 183.6 270.23 185.39 270.19 187.43 270.16 189.75 269.5 191.03 268.84 192.27 268.22 193.52 267.56 194.8 266.91 196.04 266.29 197.32 265.63 198.56 264.97 199.81 264.31 201.09 263.69 202.37 263.04 203.61 262.38 204.89 261.76 206.13 261.1 207.41 260.44 208.69 259.79 209.94 259.85 211.53 259.85 213.12 259.89 214.71 259.89 216.3 259.92 217.89 259.96 219.48 259.99 221.07 259.99 221.69 258.92 221.93 257.81 222.24 256.74 222.52 255.67 222.87 254.6 223.18 253.56 223.56 252.49 223.9 251.45 224.32 251.07 223.52 250.28 222.04 249.48 220.55 248.72 219.06 247.96 217.58 247.17 216.09 246.41 214.6 245.61 213.12 245.37 211.77 245.09 210.42 244.81 209.11 244.54 207.76 244.26 206.41 243.95 205.06 243.64 203.72 243.33 202.37 243.02 201.05 242.74 199.71 242.43 198.39 242.12 197.08 241.81 195.76 241.53 194.45 241.22 193.17 240.94 191.86 240.91 191.79 240.84 191.69 240.77 191.51 240.74 191.34 240.6 190.93 240.42 190.47 240.25 191.58 240.11 192.72 239.94 193.83 239.8 194.97 239.63 196.07 239.46 197.22 239.32 198.32 239.15 199.46 238.97 200.6 238.8 201.71 238.66 202.85 238.49 203.96 238.35 205.1 238.18 206.24 238 207.34 237.83 208.49 237.56 209.59 237.24 210.7 236.93 211.8 236.59 212.94 236.28 214.05 235.93 215.16 235.58 216.3 235.24 217.4 234.89 218.54 234.58 219.69 234.24 220.83 233.92 221.97 233.58 223.11 233.27 224.25 232.99 225.39 232.68 226.53 233.03 227.43 233.41 228.36 233.75 229.23 234.13 230.13 234.48 231.03 234.86 231.92 235.2 232.82 235.27 233 234.51 233.55 233.79 234.1 233.03 234.69 232.3 235.28 231.57 235.86 230.85 236.45 230.16 237.07 229.43 237.66 229.43 237.66 228.6 237.63 227.77 237.56 226.94 237.49 226.11 237.45 225.28 237.42 224.45 237.35 223.62 237.32 222.93 236.9 222.24 236.52 221.55 236.14 220.89 235.73 220.2 235.35 219.51 234.97 218.85 234.59 218.16 234.21 216.95 233.03 215.77 231.82 214.56 230.64 213.35 229.47 212.14 228.29 210.97 227.19 210.34 226.63 209.76 226.15 209.17 225.63 208.58 225.11 208.82 226.7 209.1 228.29 209.34 229.85 209.65 231.44 209.93 233 210.24 234.55 210.55 236.14 210.86 237.73 211.21 239.29 211.56 240.88 211.9 242.43 212.28 244.02 212.63 245.58 213.01 247.2 213.39 248.79 213.8 250.42 213.8 251.46 213.8 252.49 213.84 253.53 213.87 254.57 213.87 255.6 213.91 256.64 213.94 257.5 212.97 259.34 212.07 261.24 211.24 263.14 210.48 265.07 209.76 267.05 209.07 269.05 208.48 271.09 207.93 273.13 207.44 275.2 206.99 277.28 206.65 279.42 206.34 281.53 206.09 283.71 205.95 285.89 205.85 288.06 205.82 290.28 205.82 291.07 205.82 291.87 205.85 292.66 205.88 293.46 205.92 294.25 205.95 295.01 206.02 295.81 206.09 296.6 206.09 296.6"/><polygon class="cls-4" points="206.09 296.6 205.68 296.08 204.88 295.08 204.05 294.04 203.22 293.04 202.39 292.04 201.6 291 200.77 290 199.94 288.96 199.25 287.61 198.56 286.23 197.86 284.88 197.14 283.54 196.45 282.15 195.72 280.8 195.03 279.42 194.3 278.07 193.99 276.31 193.65 274.58 193.34 272.82 192.99 271.09 192.64 269.33 192.3 267.56 191.99 265.8 191.64 264.07 191.33 262.31 190.98 260.55 190.64 258.78 190.33 257.06 189.98 255.29 189.64 253.56 189.29 251.8 188.98 250.04 188.94 248 188.94 245.96 188.94 243.92 188.91 241.88 188.91 239.84 188.91 237.84 188.91 235.79 188.88 233.76 188.88 231.72 188.88 229.68 188.88 227.67 188.84 225.63 188.84 223.59 188.81 221.55 188.81 219.55 188.81 217.51 188.7 216.23 188.56 214.95 188.43 213.67 188.29 212.39 188.15 211.11 188.01 209.87 187.87 208.59 187.77 207.31 187.63 206.03 187.49 204.75 187.35 203.47 187.22 202.19 187.08 200.91 186.94 199.67 186.84 198.39 186.7 197.11 186.56 196.84 186.42 196.56 186.42 195.94 186.42 195.35 186.42 194.76 186.42 194.17 186.66 194.21 186.9 194.35 187.18 194.45 187.49 194.62 187.8 194.8 188.15 195 188.53 195.28 188.91 195.52 189.71 196.07 190.57 196.73 191.47 197.42 192.4 198.15 194.27 199.64 196.1 201.09 196.97 201.78 197.79 202.44 198.56 202.99 199.25 203.47 200.66 204.34 202.08 205.2 203.5 206.03 204.92 206.9 206.34 207.76 207.75 208.62 209.17 209.49 210.59 210.35 210.41 209.31 210.21 208.24 210.03 207.21 209.83 206.13 209.62 205.06 209.41 203.99 209.24 202.92 209.03 201.88 208.86 200.81 208.72 199.74 208.55 198.67 208.41 197.6 208.31 196.56 208.2 195.52 208.1 194.49 208.03 193.45 208.06 192.24 208.06 191.06 208.06 189.89 208.1 188.71 208.1 187.54 208.1 186.33 208.13 185.15 208.13 183.98 208.1 182.8 208.1 181.63 208.06 180.45 208.03 179.28 208.03 178.1 207.99 176.92 207.99 175.75 207.93 174.57 207.93 173.22 207.86 171.91 207.75 170.6 207.65 169.28 207.54 167.97 207.37 166.69 207.2 165.38 207.06 164.1 206.85 162.82 206.65 161.54 206.44 160.26 206.23 158.98 206.02 157.7 205.82 156.43 205.61 155.15 205.4 153.87 205.57 154 205.82 154.21 206.16 154.59 206.75 155.25 207.65 156.32 208.96 157.84 210.76 159.99 213.15 162.82 214.15 164.17 214.98 165.31 215.7 166.31 216.47 167.42 217.36 168.7 218.47 170.32 219.92 172.47 221.79 175.23 223.1 175.89 224.38 176.54 225.66 177.2 226.97 177.89 228.25 178.58 229.57 179.28 230.85 179.93 232.16 180.62 231.99 179.21 231.78 177.79 231.61 176.37 231.44 174.95 231.26 173.54 231.09 172.12 230.92 170.7 230.74 169.28 230.57 167.87 230.4 166.45 230.22 165.03 230.05 163.62 229.88 162.2 229.71 160.78 229.53 159.36 229.36 157.95 229.71 155.25 230.05 152.9 230.29 150.82 230.54 149.06 230.74 147.54 230.92 146.26 231.06 145.16 231.19 144.26 231.3 143.5 231.4 142.87 231.47 142.32 231.57 141.84 231.64 141.42 231.71 141.04 231.78 140.66 231.88 140.21 232.58 138.9 233.27 137.59 233.96 136.27 234.65 134.96 235.34 133.64 236.03 132.33 236.76 131.02 237.45 129.7 237.35 129.05 237.24 128.39 237.07 127.7 236.93 127.04 236.59 125.73 236.21 124.41 235.83 123.1 235.45 121.86 235.1 120.61 234.75 119.37 234.89 119.33 235.06 119.3 235.76 120.16 236.48 121.03 237.17 121.89 237.9 122.75 238.63 123.62 239.35 124.52 240.04 125.35 240.77 126.25 241.5 127.11 242.19 127.97 242.91 128.84 243.6 129.7 244.33 130.6 245.06 131.47 245.78 132.33 246.47 133.19 246.65 133.5 246.79 133.85 246.92 134.2 247.06 134.58 247.34 135.41 247.62 136.27 247.82 137.13 248.06 138 248.27 138.83 248.48 139.56 249 140.59 249.48 141.66 250.04 142.74 250.55 143.77 251.14 144.84 251.76 145.92 252.39 146.99 253.11 148.09 255.05 150.62 256.5 152.48 257.57 153.87 258.26 154.76 258.75 155.35 259.02 155.66 259.16 155.8 259.3 155.87 260.24 153.56 261.06 151.52 261.79 149.68 262.41 148.13 262.97 146.81 263.42 145.67 263.76 144.74 264.07 143.98 264.31 143.32 264.52 142.81 264.66 142.39 264.8 142.04 264.9 141.77 264.97 141.53 265.04 141.32 265.11 141.15 265.42 139.66 265.66 138.21 265.97 136.75 266.25 135.3 266.53 133.85 266.8 132.4 267.08 130.91 267.36 129.46 267.63 128.01 267.94 126.56 268.22 125.11 268.5 123.65 268.77 122.17 269.05 120.72 269.33 119.26 269.64 117.85 269.64 116.74 269.64 115.63 269.64 114.53 269.64 113.45 269.64 112.35 269.64 111.24 269.67 110.17 269.67 109.06 269.67 107.96 269.67 106.89 269.67 105.78 269.67 104.67 269.71 103.6 269.71 102.5 269.71 101.39 269.71 100.32 270.26 97.9 270.75 95.72 271.16 93.86 271.54 92.23 271.85 90.81 272.16 89.6 272.4 88.53 272.61 87.6 272.79 86.77 272.96 86.04 273.13 85.35 273.27 84.69 273.41 84.07 273.55 83.42 273.68 82.72 273.86 81.93 273.89 81.86 273.96 81.76 274.03 81.62 274.1 81.48 274.24 81.13 274.34 80.72 274.58 79.75 274.82 78.68 275.03 77.54 275.24 76.54 275.34 76.05 275.45 75.67 275.52 75.33 275.62 75.08 275.97 76.5 276.31 77.88 276.66 79.34 277.04 80.75 277.38 82.17 277.73 83.59 278.07 85 278.45 86.42 278.8 87.84 279.15 89.26 279.49 90.67 279.84 92.13 280.22 93.51 280.56 94.96 280.91 96.38 281.29 97.8 281.98 99.45 282.67 101.11 283.33 102.74 284.06 104.36 284.75 106.02 285.44 107.65 286.1 109.31 286.75 110.97 287.41 112.63 288.03 114.28 288.65 115.98 289.28 117.67 289.86 119.4 290.42 121.16 290.94 122.89 291.42 124.69 291.52 124.79 291.59 125.04 291.7 125.31 291.77 125.66 291.87 125.97 291.97 126.25 292.08 126.49 292.15 126.63 292.8 128.91 293.29 130.64 293.67 131.91 293.94 132.85 294.15 133.5 294.29 133.99 294.43 134.4 294.5 134.78 294.5 136.31 294.5 137.79 294.5 139.28 294.5 140.8 294.5 142.29 294.5 143.81 294.5 145.29 294.5 146.78 294.5 148.3 294.5 149.79 294.5 151.27 294.5 152.79 294.5 154.32 294.5 155.8 294.5 157.32 294.5 158.81 294.7 158.74 294.88 158.64 296.12 158.01 297.37 157.39 298.65 156.77 299.86 156.15 301.13 155.56 302.38 154.94 303.66 154.32 304.9 153.73 305.56 152.35 306.25 151 306.91 149.68 307.57 148.3 308.26 146.95 308.95 145.6 309.61 144.26 310.3 142.91 310.61 141.32 310.95 139.76 311.26 138.17 311.61 136.62 311.96 135.03 312.3 133.44 312.65 131.88 312.99 130.29 313.03 129.56 313.06 128.84 313.1 128.15 313.13 127.42 313.17 126.69 313.2 125.97 313.24 125.21 313.27 124.48 314.1 126.31 314.93 128.11 315.79 129.91 316.62 131.71 317.45 133.5 318.28 135.34 319.11 137.13 319.98 138.93 320.81 140.73 321.64 142.53 322.47 144.36 323.3 146.16 324.13 147.96 324.99 149.75 325.82 151.59 326.65 153.38 326.65 154.45 326.65 155.49 326.65 156.56 326.62 157.63 326.62 158.71 326.62 159.78 326.62 160.85 326.62 161.89 326.62 162.96 326.58 164.03 326.58 165.1 326.58 166.17 326.58 167.25 326.55 168.32 326.55 169.39 326.55 170.46 326.31 172.01 326.03 173.61 325.75 175.16 325.51 176.75 325.23 178.34 324.96 179.93 324.68 181.52 324.44 183.08 327.45 181.69 329.73 180.62 331.39 179.86 332.53 179.34 333.25 178.96 333.7 178.76 334.01 178.58 334.26 178.41 334.95 177.72 335.61 177.06 336.26 176.37 336.92 175.68 337.58 174.99 338.23 174.33 338.86 173.64 339.55 172.95 339.75 172.53 339.96 172.15 340.17 171.63 340.44 170.94 340.83 169.98 341.34 168.59 342 166.73 342.9 164.27 343.28 165.48 343.66 166.69 344.07 167.94 344.46 169.18 344.87 170.46 345.29 171.74 345.67 173.05 346.05 174.33 346.46 175.65 346.84 176.96 347.15 178.24 347.5 179.55 347.81 180.87 348.09 182.14 348.33 183.42 348.54 184.67 348.22 185.71 347.95 186.71 347.6 187.74 347.29 188.75 347.01 189.78 346.7 190.79 346.39 191.82 346.08 192.83 345.77 193.86 345.46 194.9 345.15 195.9 344.84 196.94 344.52 197.98 344.21 198.98 343.94 200.02 343.63 201.05 343.11 203.47 342.66 205.62 342.24 207.48 341.9 209.07 341.62 210.42 341.38 211.56 341.17 212.5 341.03 213.26 340.89 213.84 340.83 214.29 340.76 214.64 340.72 214.88 340.69 215.02 340.69 215.16 340.69 215.23 340.69 215.26 343.63 213.91 345.87 212.88 347.5 212.12 348.64 211.56 349.43 211.15 350.02 210.84 350.47 210.59 350.92 210.35 351.92 209.35 352.96 208.38 354 207.41 355.04 206.48 356.07 205.48 357.07 204.54 358.11 203.58 359.15 202.61 359.18 201.95 359.22 201.29 359.22 200.64 359.25 199.98 359.25 199.36 359.29 198.7 359.32 198.05 359.36 197.42 360.7 203.06 361.92 208.04 362.95 212.32 363.85 215.99 364.61 219.1 365.23 221.73 365.75 223.87 366.2 225.6 366.51 226.91 366.79 227.95 366.96 228.67 367.1 229.19 367.2 229.54 367.27 229.71 367.31 229.81 367.38 229.88 367.38 229.95 367.38 230.06 367.34 231.89 367.34 233.76 367.34 235.59 367.31 237.42 367.31 239.29 367.31 241.12 367.31 242.95 367.27 244.82 367.27 246.65 367.27 248.52 367.24 250.35 367.24 252.18 367.24 254.05 367.2 255.88 367.2 257.75 367.17 259.61 366.69 261.06 366.1 262.62 365.48 264.28 364.85 265.97 364.54 266.84 364.27 267.7 363.99 268.57 363.71 269.43 363.47 270.3 363.23 271.13 363.06 271.99 362.88 272.78 362.78 272.92 362.68 273.06 362.57 273.2 362.5 273.34 362.37 273.72 362.19 274.13 362.09 274.58 361.99 275.07 361.85 275.51 361.74 276.03 361.64 276.55 361.54 277.04 361.4 277.52 361.29 277.94 361.12 278.38 360.95 278.73 360.88 278.9 360.81 279.04 360.67 279.18 360.57 279.32 360.36 279.9 360.15 280.46 359.94 281.05 359.74 281.63 359.53 282.19 359.32 282.77 359.12 283.36 358.91 283.92 357.97 285.4 357.04 286.89 356.14 288.38 355.21 289.86 354.27 291.35 353.34 292.83 352.41 294.32 351.47 295.84 350.57 297.33 349.64 298.81 348.71 300.3 347.77 301.79 346.88 303.27 345.94 304.76 345.04 306.25 345.46 304.31 345.8 302.38 346.15 300.4 346.39 298.4 346.6 296.39 346.74 294.36 346.84 292.31 346.88 290.28 346.84 288.93 346.81 287.55 346.74 286.2 346.67 284.85 346.53 283.5 346.39 282.19 346.22 280.87 346.05 279.52 345.84 278.25 345.6 276.93 345.32 275.62 345.04 274.34 344.73 273.06 344.39 271.82 344.04 270.54 343.66 269.29 343.66 269.22 343.83 267.7 344.01 266.18 344.18 264.69 344.35 263.21 344.49 261.72 344.59 260.24 344.7 258.75 344.84 257.3 344.9 255.81 345.01 254.32 345.04 252.84 345.11 251.35 345.15 249.87 345.18 248.38 345.22 246.86 345.22 245.68 345.22 244.47 345.22 243.26 345.22 242.05 345.22 240.88 345.22 239.67 345.22 238.49 345.22 237.28 345.22 236.73 345.22 236.21 345.22 235.66 345.22 235.17 345.22 234.62 345.22 234.1 345.22 233.55 345.22 233.03 344.46 233.55 343.66 234.07 342.9 234.62 342.14 235.1 341.38 235.66 340.62 236.18 339.86 236.69 339.1 237.25 337.33 238.59 335.64 239.94 334.05 241.15 332.6 242.29 331.39 243.26 330.42 244.06 329.87 244.47 328.69 243.12 327.48 241.81 326.24 240.53 324.96 239.25 323.64 238.04 322.29 236.87 320.91 235.69 319.49 234.59 319.32 233.69 318.91 231.51 318.46 229.3 318.04 227.12 317.63 224.94 317.18 222.73 316.76 220.55 316.35 218.37 315.93 216.19 315.48 214.02 315.07 211.84 314.65 209.63 314.2 207.45 313.79 205.27 313.37 203.06 312.93 200.88 312.79 200.85 312.65 200.85 311.71 202.3 310.82 203.75 309.88 205.2 308.95 206.65 308.01 208.1 307.08 209.56 306.15 211.01 305.21 212.46 304.28 213.91 303.35 215.37 302.45 216.82 301.51 218.27 300.58 219.72 299.65 221.17 298.71 222.62 298.3 223.28 297.44 223 296.54 222.73 295.64 222.45 294.74 222.21 293.84 221.97 292.94 221.76 292.04 221.52 291.11 221.31 291.11 221.28 290.76 220.21 290.45 219.17 290.11 218.1 289.76 217.02 289.45 215.95 289.14 214.91 288.83 213.88 288.69 213.74 288.58 213.6 288.48 213.43 288.38 213.26 288.2 212.88 288.07 212.46 287.93 212.01 287.79 211.53 287.69 211.01 287.58 210.53 287.38 209.52 287.13 208.62 287 208.24 286.86 207.86 286.79 207.72 286.72 207.59 286.61 207.45 286.51 207.34 286.51 207.28 286.51 207.21 286.48 207.07 286.44 206.86 286.37 206.55 286.27 206.07 286.17 205.48 286.03 204.72 285.85 203.75 285.61 202.54 285.33 201.05 285.06 199.32 284.68 197.28 284.23 194.87 283.78 192.1 283.23 188.95 281.08 186.4 279.18 184.15 277.56 182.21 276.17 180.55 274.96 179.14 273.96 177.96 273.17 176.99 272.47 176.2 271.95 175.58 271.54 175.09 271.23 174.75 270.99 174.5 270.81 174.3 270.71 174.19 270.61 174.09 270.5 174.02 270.47 174.44 270.47 174.88 270.43 175.26 270.43 175.68 270.4 176.09 270.4 176.61 270.37 177.2 270.37 177.86 270.33 178.65 270.33 179.62 270.3 180.76 270.26 182.07 270.23 183.6 270.23 185.39 270.19 187.43 270.16 189.75 269.5 191.03 268.84 192.27 268.22 193.52 267.56 194.8 266.91 196.04 266.29 197.32 265.63 198.56 264.97 199.81 264.31 201.09 263.69 202.37 263.04 203.61 262.38 204.89 261.76 206.13 261.1 207.41 260.44 208.69 259.79 209.94 259.85 211.53 259.85 213.12 259.89 214.71 259.89 216.3 259.92 217.89 259.96 219.48 259.99 221.07 259.99 221.69 258.92 221.93 257.81 222.24 256.74 222.52 255.67 222.87 254.6 223.18 253.56 223.56 252.49 223.9 251.45 224.32 251.07 223.52 250.28 222.04 249.48 220.55 248.72 219.06 247.96 217.58 247.17 216.09 246.41 214.6 245.61 213.12 245.37 211.77 245.09 210.42 244.81 209.11 244.54 207.76 244.26 206.41 243.95 205.06 243.64 203.72 243.33 202.37 243.02 201.05 242.74 199.71 242.43 198.39 242.12 197.08 241.81 195.76 241.53 194.45 241.22 193.17 240.94 191.86 240.91 191.79 240.84 191.69 240.77 191.51 240.74 191.34 240.6 190.93 240.42 190.47 240.25 191.58 240.11 192.72 239.94 193.83 239.8 194.97 239.63 196.07 239.46 197.22 239.32 198.32 239.15 199.46 238.97 200.6 238.8 201.71 238.66 202.85 238.49 203.96 238.35 205.1 238.18 206.24 238 207.34 237.83 208.49 237.56 209.59 237.24 210.7 236.93 211.8 236.59 212.94 236.28 214.05 235.93 215.16 235.58 216.3 235.24 217.4 234.89 218.54 234.58 219.69 234.24 220.83 233.92 221.97 233.58 223.11 233.27 224.25 232.99 225.39 232.68 226.53 233.03 227.43 233.41 228.36 233.75 229.23 234.13 230.13 234.48 231.03 234.86 231.92 235.2 232.82 235.27 233 234.51 233.55 233.79 234.1 233.03 234.69 232.3 235.28 231.57 235.86 230.85 236.45 230.16 237.07 229.43 237.66 229.43 237.66 228.6 237.63 227.77 237.56 226.94 237.49 226.11 237.45 225.28 237.42 224.45 237.35 223.62 237.32 222.93 236.9 222.24 236.52 221.55 236.14 220.89 235.73 220.2 235.35 219.51 234.97 218.85 234.59 218.16 234.21 216.95 233.03 215.77 231.82 214.56 230.64 213.35 229.47 212.14 228.29 210.97 227.19 210.34 226.63 209.76 226.15 209.17 225.63 208.58 225.11 208.82 226.7 209.1 228.29 209.34 229.85 209.65 231.44 209.93 233 210.24 234.55 210.55 236.14 210.86 237.73 211.21 239.29 211.56 240.88 211.9 242.43 212.28 244.02 212.63 245.58 213.01 247.2 213.39 248.79 213.8 250.42 213.8 251.46 213.8 252.49 213.84 253.53 213.87 254.57 213.87 255.6 213.91 256.64 213.94 257.5 212.97 259.34 212.07 261.24 211.24 263.14 210.48 265.07 209.76 267.05 209.07 269.05 208.48 271.09 207.93 273.13 207.44 275.2 206.99 277.28 206.65 279.42 206.34 281.53 206.09 283.71 205.95 285.89 205.85 288.06 205.82 290.28 205.82 291.07 205.82 291.87 205.85 292.66 205.88 293.46 205.92 294.25 205.95 295.01 206.02 295.81 206.09 296.6 206.09 296.6"/><polygon class="cls-5" points="192.64 371.31 352.82 371.31 352.82 395.92 192.64 395.92 192.64 371.31 192.64 371.31"/><path class="cls-5" d="M293.51,363.05l3.91.11,3.9.28,3.84.48,3.77.69,3.7.86,3.63,1,3.56,1.21,3.46,1.35,3.42,1.56,3.28,1.69,3.22,1.87,3.11,2,3,2.14,2.9,2.28L345,383l2.66,2.56,2.56,2.66,2.42,2.77,2.28,2.9,2.14,3,2,3.11,1.86,3.21,1.7,3.29,1.52,3.42,1.38,3.46L366.7,417l1,3.63.86,3.7.69,3.76.49,3.84.27,3.87.11,3.94-.11,3.95-.27,3.87-.49,3.83-.69,3.77-.86,3.7-1,3.63L365.49,466l-1.38,3.49-1.52,3.39-1.7,3.32L359,479.41l-2,3.12-2.14,3-2.28,2.87-2.42,2.8-2.56,2.66L345,496.42l-2.77,2.39-2.9,2.28-3,2.14-3.11,2L330,507.07l-3.28,1.73-3.42,1.52-3.46,1.38-3.56,1.21-3.63,1-3.7.86-3.77.66-3.84.48-3.9.31-3.91.11-3.94-.11-3.88-.31-3.83-.48-3.77-.66-3.7-.86-3.63-1-3.56-1.21-3.49-1.38-3.39-1.52L257,507.07l-3.22-1.83-3.11-2-3-2.14-2.87-2.28-2.8-2.39-2.66-2.56-2.56-2.66-2.38-2.8-2.28-2.87-2.15-3-2-3.12-1.87-3.21-1.69-3.32-1.53-3.39L221.49,466l-1.21-3.56-1-3.63-.86-3.7-.66-3.77-.48-3.83-.31-3.87-.11-3.95.11-3.94.31-3.87.48-3.84.66-3.76.86-3.7,1-3.63,1.21-3.56,1.38-3.46,1.53-3.42,1.69-3.29L228,400l2-3.11,2.15-3,2.28-2.9,2.38-2.77,2.56-2.66L242,383l2.8-2.42,2.87-2.28,3-2.14,3.11-2,3.22-1.87,3.32-1.69,3.39-1.56,3.49-1.35,3.56-1.21,3.63-1,3.7-.86,3.77-.69,3.83-.48,3.88-.28,3.94-.11Zm0,22.13,2.8.07,2.76.21,2.7.34,2.7.49,2.63.62,2.59.72,2.52.87,2.49,1,2.39,1.1,2.35,1.21,2.31,1.32,2.22,1.41,2.11,1.52,2.07,1.63,2,1.73,1.9,1.79,1.8,1.91,1.73,2,1.62,2.07,1.53,2.11,1.41,2.21,1.32,2.28,1.21,2.35,1.1,2.42,1,2.49.87,2.53.72,2.59.62,2.63.49,2.69.34,2.7.21,2.76.07,2.8-.07,2.8-.21,2.77-.34,2.73-.49,2.66-.62,2.66-.72,2.56-.87,2.56-1,2.46-1.1,2.42-1.21,2.35-1.32,2.28-1.41,2.21-1.53,2.14-1.62,2.08-1.73,2-1.8,1.9-1.9,1.8-2,1.72-2.07,1.63L324,484.91l-2.22,1.42-2.31,1.31-2.35,1.21-2.39,1.07-2.49,1-2.52.83-2.59.76-2.63.58-2.7.49-2.7.34-2.76.25-2.8.06-2.8-.06-2.77-.25-2.73-.34-2.7-.49-2.62-.58-2.56-.76-2.56-.83-2.46-1-2.42-1.07-2.35-1.21-2.28-1.31-2.21-1.42-2.14-1.52-2.08-1.63-2-1.72-1.9-1.8-1.8-1.9-1.73-2-1.62-2.08-1.52-2.14-1.42-2.21-1.32-2.28-1.21-2.35-1.07-2.42-1-2.46-.86-2.56-.73-2.56-.62-2.66-.45-2.66-.35-2.73-.24-2.77-.07-2.8.07-2.8.24-2.76.35-2.7.45-2.69.62-2.63.73-2.59.86-2.53,1-2.49,1.07-2.42,1.21-2.35,1.32-2.28,1.42-2.21,1.52-2.11,1.62-2.07,1.73-2,1.8-1.91,1.9-1.79,2-1.73,2.08-1.63,2.14-1.52,2.21-1.41,2.28-1.32,2.35-1.21,2.42-1.1,2.46-1,2.56-.87,2.56-.72,2.62-.62,2.7-.49,2.73-.34,2.77-.21,2.8-.07Z" transform="translate(-21 -144.89)"/></svg>