<svg id="Ebene_1" data-name="Ebene 1" xmlns="http://www.w3.org/2000/svg" viewBox="0 0 553.18 553.1"><defs><style>.cls-1{fill:#fff;}.cls-1,.cls-2,.cls-3{fill-rule:evenodd;}.cls-2{fill:#da251d;}.cls-4{fill:none;stroke:#000;stroke-linecap:square;stroke-miterlimit:10;stroke-width:0.21px;}</style></defs><polygon class="cls-1" points="0 276.55 276.59 0 553.18 276.55 276.59 553.1 0 276.55 0 276.55"/><path class="cls-2" d="M21,421.44,297.59,144.89,574.18,421.44,297.59,698,21,421.44Zm44.84,0L297.59,189.73,529.33,421.44,297.59,653.16,65.84,421.44Z" transform="translate(-21 -144.89)"/><polygon class="cls-3" points="298.89 364.84 299.86 364.29 300.79 363.7 301.76 363.11 302.69 362.52 303.59 361.9 304.52 361.31 305.46 360.69 306.36 360.07 307.29 359.41 308.19 358.79 309.09 358.13 309.99 357.51 310.88 356.86 311.78 356.2 312.68 355.54 313.58 354.88 314.51 353.95 315.48 353.02 316.42 352.12 317.35 351.19 318.32 350.25 319.25 349.35 320.19 348.42 321.12 347.52 322.09 346.59 323.02 345.69 323.95 344.76 324.92 343.86 325.86 342.92 326.82 341.99 327.76 341.09 328.69 340.16 329.38 338.85 330.11 337.5 330.8 336.15 331.49 334.83 332.22 333.49 332.94 332.17 333.63 330.82 334.33 329.51 335.05 328.16 335.74 326.85 336.44 325.5 337.16 324.15 337.89 322.84 338.58 321.53 339.27 320.18 340 318.83 338.61 319.73 337.19 320.59 335.85 321.42 334.53 322.22 333.19 322.98 331.87 323.74 331.21 324.08 330.52 324.43 329.87 324.78 329.21 325.09 328.52 325.4 327.83 325.71 327.13 325.99 326.44 326.26 325.75 326.54 325.06 326.78 324.33 326.99 323.61 327.2 322.88 327.4 322.12 327.58 321.36 327.75 320.56 327.85 319.81 327.99 318.98 328.09 318.18 328.16 317.35 328.23 316.66 328.23 315.97 328.23 315.31 328.2 314.62 328.2 313.96 328.2 313.27 328.16 312.61 328.16 311.92 328.16 311.51 328.13 311.13 328.09 310.71 328.09 310.3 328.06 309.88 328.06 309.47 328.02 309.09 327.99 308.67 327.96 309.54 327.06 310.4 326.16 311.23 325.26 312.03 324.36 312.82 323.46 313.62 322.56 314.38 321.67 315.14 320.73 315.9 319.83 316.62 318.9 317.35 317.97 318.08 317 318.8 316.03 319.56 315.03 320.25 314.06 320.98 313.02 321.33 312.09 321.64 311.16 321.91 310.22 322.23 309.29 322.57 308.36 322.88 307.46 323.16 306.52 323.5 305.59 323.81 304.66 324.13 303.72 324.44 302.79 324.75 301.86 325.06 300.96 325.37 300.02 325.68 299.09 325.99 298.16 325.99 294.6 325.99 291.49 325.96 288.79 325.96 286.47 325.96 284.54 325.92 282.91 325.92 281.56 325.92 280.53 325.89 279.7 325.89 279.11 325.86 278.69 325.86 278.42 325.82 278.28 325.82 278.21 325.79 278.25 325.72 278.31 325.2 279.56 324.64 280.8 324.06 282.05 323.5 283.29 322.95 284.57 322.4 285.82 321.85 287.06 321.29 288.31 320.43 288.89 319.49 289.48 318.6 290.07 317.73 290.66 316.83 291.24 315.93 291.83 315.07 292.45 314.17 293.01 313.27 293.6 312.37 294.22 311.47 294.77 310.61 295.39 309.71 295.98 308.81 296.57 307.91 297.15 307.05 297.74 306.05 298.78 305.01 299.78 304 300.82 303 301.86 302 302.89 301 303.9 299.99 304.97 298.99 305.97 298.99 305.45 298.99 304.93 298.99 304.45 298.99 303.93 298.99 303 298.99 302.06 298.99 301.17 298.99 300.2 298.99 299.3 299.03 298.37 299.03 297.43 299.03 296.53 299.03 295.6 299.03 294.67 299.03 293.73 299.03 292.83 299.06 291.9 299.06 290.97 299.06 290.07 299.06 289.13 299.06 288.31 299.06 287.51 299.06 286.71 299.03 285.89 299.03 285.09 299.03 284.26 299.03 283.47 299.03 282.64 299.03 281.84 299.03 281.05 298.99 280.22 298.99 279.42 298.99 278.63 298.99 277.8 298.99 277 298.99 276.21 298.27 273.2 297.64 270.61 297.09 268.32 296.61 266.35 296.23 264.66 295.85 263.21 295.57 262 295.33 261 295.12 260.13 294.91 259.37 294.74 258.75 294.57 258.2 294.43 257.68 294.29 257.16 294.12 256.64 293.98 256.09 293.36 255.19 292.73 254.29 292.11 253.36 291.52 252.46 290.9 251.56 290.28 250.66 289.66 249.76 289.07 248.86 288.45 247.96 287.86 247.06 287.24 246.17 286.61 245.27 286.03 244.37 285.4 243.44 284.78 242.54 284.16 241.64 283.05 240.53 281.95 239.46 280.81 238.35 279.7 237.25 278.59 236.18 277.45 235.07 276.35 233.96 275.24 232.89 275.2 232.86 275.17 232.86 275.14 232.89 275.1 233.06 275.1 233.34 275.07 233.76 275.07 234.34 275.03 235.14 275.03 236.18 275 237.45 275 239.04 274.96 240.95 274.93 243.23 274.93 245.82 274.89 248.86 274.86 252.35 274.24 254.08 273.62 255.84 272.99 257.61 272.4 259.34 271.78 261.1 271.16 262.86 270.54 264.59 269.95 266.35 269.33 268.12 268.74 269.88 268.12 271.61 267.5 273.37 266.91 275.13 266.29 276.9 265.66 278.63 265.07 280.39 265.04 281.36 264.97 282.22 264.97 283.05 264.94 284.02 264.97 285.23 264.97 286.85 265.04 289.03 265.07 291.87 265.18 292.45 265.32 293.14 265.49 293.94 265.7 294.8 265.9 295.74 266.11 296.74 266.32 297.74 266.56 298.81 266.74 299.85 266.94 300.85 267.08 301.86 267.22 302.79 267.25 303.24 267.29 303.65 267.32 304.07 267.36 304.45 267.36 304.8 267.36 305.11 267.32 305.42 267.29 305.69 266.25 305.11 265.21 304.55 264.21 304 263.17 303.41 262.17 302.86 261.13 302.27 260.1 301.72 259.09 301.17 258.06 300.61 257.05 300.06 256.02 299.47 254.98 298.92 253.94 298.37 252.94 297.81 251.9 297.22 250.9 296.67 250.1 295.63 249.48 294.8 248.93 294.08 248.38 293.32 247.79 292.45 247.06 291.35 246.09 290 244.88 288.17 244.4 286.96 243.92 285.71 243.43 284.47 242.95 283.26 242.46 282.01 241.98 280.8 241.5 279.56 241.05 278.31 240.98 278.49 240.94 278.73 240.87 279.14 240.8 279.9 240.74 281.08 240.63 282.81 240.49 285.23 240.32 288.44 240.04 289.65 239.77 290.9 239.49 292.11 239.25 293.35 238.97 294.56 238.69 295.81 238.42 297.05 238.18 298.3 238.73 299.99 239.21 301.34 239.63 302.48 239.97 303.48 240.35 304.55 240.8 305.76 241.39 307.25 242.12 309.15 242.84 310.36 243.57 311.57 244.3 312.75 245.06 313.92 245.85 315.06 246.61 316.24 247.41 317.38 248.2 318.55 249.03 319.66 249.86 320.83 250.73 321.98 251.56 323.12 252.46 324.26 253.32 325.4 254.22 326.57 255.12 327.75 254.94 327.82 254.7 327.85 254.39 327.85 254.01 327.89 253.63 327.85 253.18 327.85 252.7 327.82 252.18 327.78 251.04 327.68 249.83 327.54 248.51 327.37 247.2 327.23 245.85 327.02 244.54 326.85 243.26 326.64 242.12 326.47 241.08 326.3 240.18 326.16 239.46 326.09 238.94 326.02 237.87 325.64 236.83 325.26 235.76 324.88 234.72 324.5 233.65 324.12 232.61 323.77 231.54 323.39 230.5 323.01 229.36 322.22 228.25 321.42 227.15 320.59 226.04 319.8 224.9 319 223.79 318.21 222.69 317.41 221.58 316.62 221.72 317.17 221.89 317.79 222.07 318.38 222.27 319 222.72 320.21 223.17 321.49 223.69 322.74 224.21 324.05 224.8 325.33 225.38 326.64 226.01 327.92 226.59 329.27 227.22 330.55 227.84 331.83 228.43 333.11 229.01 334.39 229.57 335.6 230.12 336.81 232.61 339.81 234.82 342.44 236.76 344.72 238.38 346.69 239.8 348.35 240.98 349.74 241.94 350.91 242.74 351.84 243.36 352.57 243.85 353.12 244.23 353.57 244.5 353.88 244.75 354.13 244.92 354.26 245.06 354.4 245.19 354.54 246.06 354.95 246.92 355.37 247.75 355.78 248.62 356.2 249.48 356.61 250.35 357.03 251.21 357.44 252.04 357.89 252.91 358.31 253.77 358.72 254.63 359.14 255.5 359.55 256.33 359.97 257.19 360.38 258.06 360.8 258.92 361.21 259.37 361.28 260.06 361.42 261 361.56 262.1 361.73 263.38 361.97 264.73 362.18 266.18 362.42 267.63 362.7 269.09 362.94 270.5 363.22 271.82 363.49 272.99 363.74 274 363.98 274.82 364.22 275.1 364.32 275.38 364.43 275.52 364.53 275.62 364.6 273.37 364.46 271.13 364.32 268.84 364.18 266.6 364.05 264.35 363.91 262.1 363.77 259.82 363.63 257.61 363.46 255.36 363.36 253.08 363.22 250.83 363.04 248.58 362.9 246.34 362.77 244.05 362.63 241.81 362.52 239.56 362.39 237.66 361.63 235.96 360.94 234.44 360.35 233.06 359.76 231.81 359.28 230.6 358.79 229.46 358.31 228.29 357.86 227.11 357.34 225.83 356.82 224.45 356.23 222.93 355.58 221.24 354.85 219.3 354.06 217.12 353.12 214.63 352.08 213.59 351.32 212.56 350.6 211.56 349.87 210.52 349.15 209.48 348.39 208.44 347.66 207.41 346.9 206.37 346.17 205.37 345.45 204.33 344.72 203.29 343.96 202.25 343.24 201.25 342.51 200.22 341.78 199.21 341.02 198.18 340.3 197.52 339.12 196.86 338.02 196.24 336.84 195.58 335.7 194.93 334.52 194.27 333.42 193.65 332.24 192.99 331.1 192.33 329.96 191.68 328.79 191.02 327.64 190.4 326.5 189.74 325.36 189.12 324.22 188.46 323.08 187.8 321.94 186.9 318.73 185.97 315.51 185.07 312.33 184.14 309.12 183.21 305.94 182.31 302.75 181.37 299.54 180.47 296.32 179.57 293.11 178.64 289.93 177.71 286.75 176.81 283.54 175.88 280.32 174.94 277.14 174.04 273.93 173.14 270.74 173.04 270.19 172.97 269.53 172.87 268.74 172.76 267.88 172.66 266.91 172.56 265.94 172.42 264.9 172.28 263.87 172.14 262.83 171.97 261.86 171.83 260.93 171.66 260.06 171.49 259.3 171.31 258.68 171.21 258.4 171.14 258.16 171.03 257.99 170.97 257.85 170.97 257.44 170.97 257.02 170.97 256.64 170.97 256.26 171.97 257.23 173.01 258.23 174.01 259.2 175.01 260.2 175.98 261.2 176.95 262.24 177.88 263.28 178.85 264.35 179.75 265.39 180.68 266.49 181.58 267.6 182.48 268.7 183.38 269.85 184.24 271.02 185.07 272.2 185.94 273.41 187.11 274.31 188.32 275.17 189.5 276.07 190.67 276.97 191.88 277.87 193.06 278.76 194.27 279.66 195.44 280.56 196.48 280.7 197.52 280.84 198.52 280.98 199.59 281.15 200.59 281.29 201.63 281.43 202.67 281.6 203.71 281.74 204.74 281.91 205.78 282.05 206.78 282.19 207.82 282.36 208.86 282.5 209.9 282.67 210.93 282.81 211.97 282.98 212.04 282.81 212.11 282.7 211.28 280.91 210.45 279.11 209.65 277.35 208.86 275.58 208.1 273.82 207.34 272.06 206.58 270.33 205.82 268.57 205.09 266.84 204.36 265.07 203.67 263.31 202.95 261.55 202.25 259.79 201.56 258.02 200.91 256.23 200.22 254.43 200.11 253.53 199.97 252.6 199.87 251.7 199.77 250.76 199.63 249.87 199.52 248.97 199.38 248.03 199.28 247.13 199.18 246.24 199.07 245.34 198.94 244.44 198.83 243.54 198.73 242.6 198.63 241.71 198.49 240.81 198.38 239.91 198.38 238.87 198.35 237.87 198.35 236.83 198.31 235.83 198.31 234.83 198.28 233.82 198.28 232.82 198.28 231.78 198.24 230.78 198.24 229.75 198.24 228.74 198.21 227.74 198.21 226.74 198.21 225.74 198.18 224.7 198.18 223.7 197.83 220.07 197.52 216.85 197.28 214.05 197.07 211.7 196.86 209.66 196.72 207.97 196.59 206.58 196.48 205.48 196.41 204.61 196.38 203.92 196.34 203.44 196.34 203.09 196.34 202.85 196.34 202.71 196.34 202.61 196.38 202.54 197.66 203.85 198.94 205.13 200.22 206.45 201.53 207.72 202.81 209.04 204.09 210.35 205.37 211.67 206.65 212.94 207.37 214.02 208.13 215.09 208.86 216.13 209.59 217.2 210.34 218.27 211.11 219.31 211.83 220.38 212.59 221.41 213.32 222.49 214.08 223.52 214.84 224.59 215.57 225.67 216.33 226.7 217.05 227.78 217.81 228.85 218.57 229.92 219.58 230.54 220.58 231.2 221.58 231.85 222.58 232.51 223.59 233.2 224.59 233.82 225.63 234.52 226.63 235.14 226.63 235 226.63 234.83 226.63 234.59 226.59 234.31 226.46 233.72 226.25 232.96 226.04 232.16 225.76 231.27 225.45 230.33 225.11 229.37 224.45 227.5 223.79 225.77 223.28 224.35 222.96 223.49 222.93 221.24 222.93 219 222.96 216.78 223 214.6 223.07 212.39 223.17 210.21 223.28 208.04 223.38 205.86 223.55 203.68 223.72 201.54 223.93 199.36 224.18 197.22 224.42 195.04 224.69 192.86 224.97 190.68 225.28 188.5 225.59 187.12 225.83 185.74 226.11 184.39 226.42 183.01 226.66 181.63 226.97 180.28 227.25 178.9 227.53 177.51 227.25 175.96 226.94 174.44 226.63 172.88 226.35 171.32 226.08 169.77 225.76 168.25 225.45 166.73 225.18 165.17 228.19 165.86 230.47 166.41 232.09 166.79 233.23 167.07 233.96 167.25 234.41 167.42 234.69 167.49 234.86 167.59 235.69 168.42 236.52 169.25 237.42 170.11 238.28 171.01 238.73 171.46 239.15 171.91 239.56 172.4 239.97 172.88 240.35 173.36 240.74 173.85 241.08 174.37 241.43 174.88 241.91 176.13 242.36 177.34 242.84 178.58 243.33 179.79 243.81 181 244.3 182.25 244.75 183.46 245.23 184.67 245.37 185.57 245.51 186.47 245.65 187.33 245.78 188.23 245.96 189.09 246.09 189.99 246.23 190.89 246.37 191.79 246.51 192.65 246.68 193.55 246.82 194.42 246.96 195.31 247.1 196.21 247.24 197.08 247.37 198.01 247.55 198.88 248.82 201.43 249.93 203.68 250.9 205.62 251.73 207.28 252.46 208.69 253.04 209.87 253.53 210.84 253.91 211.6 254.22 212.19 254.46 212.63 254.63 212.98 254.77 213.19 254.84 213.32 254.88 213.39 254.94 213.39 254.98 213.39 255.36 212.56 255.71 211.74 256.09 210.91 256.47 210.04 256.85 209.21 257.19 208.38 257.57 207.55 257.95 206.72 258.33 205.86 258.71 205.03 259.09 204.2 259.44 203.37 259.82 202.5 260.2 201.68 260.58 200.81 260.96 199.98 261.41 198.53 261.86 197.08 262.24 195.63 262.65 194.14 263 192.69 263.35 191.2 263.66 189.75 263.97 188.26 264.25 186.81 264.52 185.32 264.76 183.84 264.97 182.39 265.18 180.9 265.39 179.41 265.56 177.93 265.73 176.44 265.87 174.95 266.01 173.47 266.15 171.98 266.25 170.49 266.35 169.01 266.42 167.52 266.49 166.03 266.6 164.55 266.7 161.58 266.77 158.57 266.8 155.59 266.84 152.62 266.84 151.76 266.84 150.86 266.84 150 266.84 149.13 266.87 148.27 266.87 147.4 266.87 146.54 266.87 145.67 266.87 144.81 266.87 143.94 266.87 143.08 266.91 142.22 266.91 141.35 266.91 140.49 266.91 139.62 266.91 138.76 267.05 137.83 267.15 136.93 267.29 136.06 267.43 135.16 267.6 134.27 267.74 133.4 267.94 132.5 268.12 131.6 268.32 130.74 268.53 129.88 268.77 129.01 269.02 128.11 269.5 126.38 270.02 124.69 270.57 122.96 271.13 121.23 271.71 119.54 272.06 118.47 272.44 117.43 272.82 116.36 273.2 115.29 273.55 114.25 273.93 113.18 274.31 112.14 274.65 111.07 274.93 112.63 275.2 114.15 275.45 115.67 275.72 117.22 276 118.75 276.28 120.27 276.59 121.82 276.87 123.34 277.21 124.86 277.52 126.42 277.87 127.97 278.25 129.5 278.63 131.05 279.04 132.61 279.49 134.16 279.98 135.75 282.29 140.63 283.88 143.53 285.47 146.3 287.06 149.03 288.62 151.69 290.18 154.38 291.66 157.12 292.39 158.53 293.11 159.95 293.84 161.44 294.53 162.96 295.64 165.93 296.23 167.66 296.85 169.42 297.47 171.19 298.09 172.91 298.68 174.68 299.3 176.44 299.93 178.17 300.51 179.93 301.13 181.66 301.76 183.42 302.35 185.19 302.97 186.95 303.59 188.68 304.18 190.44 304.8 192.2 305.01 193.69 305.21 195.21 305.42 196.73 305.63 198.25 305.84 199.77 306.05 201.29 306.25 202.78 306.46 204.3 306.39 204.86 306.25 205.62 306.11 206.48 305.94 207.45 305.73 208.56 305.53 209.7 305.28 210.87 305.11 212.08 304.9 213.29 304.73 214.47 304.56 215.61 304.45 216.64 304.42 217.13 304.38 217.58 304.35 217.99 304.35 218.37 304.35 218.72 304.38 219.03 304.42 219.31 304.45 219.51 305.35 219.17 306.25 218.82 307.15 218.48 308.05 218.13 308.95 217.78 309.85 217.44 310.75 217.09 311.65 216.75 312.61 215.85 313.62 214.91 314.65 213.95 315.66 212.94 316.18 212.43 316.66 211.91 317.14 211.39 317.59 210.87 318.01 210.32 318.39 209.76 318.56 209.49 318.73 209.25 318.87 208.94 319.04 208.66 319.32 207.69 319.6 206.69 319.87 205.72 320.15 204.72 320.43 203.75 320.7 202.75 320.98 201.78 321.29 200.78 321.53 199.81 321.85 198.84 322.12 197.84 322.4 196.87 322.67 195.9 322.99 194.9 323.23 193.93 323.54 192.96 323.71 191.37 323.88 189.82 324.06 188.23 324.23 186.67 324.4 185.08 324.61 183.53 324.75 181.94 324.96 180.38 325.13 178.79 325.3 177.2 325.48 175.65 325.65 174.09 325.82 172.5 325.99 170.94 326.2 169.39 326.37 167.8 327 169.04 327.62 170.29 328.27 171.5 328.9 172.74 329.52 173.99 330.14 175.2 330.8 176.44 331.42 177.69 332.04 178.93 332.67 180.14 333.32 181.38 333.94 182.59 334.6 183.84 335.23 185.08 335.85 186.33 336.47 187.54 336.68 189.02 336.81 190.47 337.02 191.96 337.19 193.41 337.37 194.9 337.54 196.39 337.71 197.84 337.89 199.32 338.06 200.81 338.23 202.3 338.37 203.78 338.51 205.27 338.65 206.76 338.79 208.24 338.89 209.76 338.96 211.25 338.92 211.91 338.92 212.53 338.89 213.19 338.89 213.81 338.86 214.47 338.82 215.12 338.82 215.75 338.79 216.4 338.79 217.02 338.79 217.68 338.79 218.3 338.79 218.96 338.79 219.58 338.79 220.24 338.79 220.9 338.79 221.52 338.79 222.14 338.79 222.76 338.79 223.38 338.79 224.01 338.79 224.66 338.79 225.29 338.79 225.91 338.79 226.56 338.79 226.94 338.75 227.33 338.75 227.74 338.75 228.12 338.75 228.54 338.75 228.92 338.72 229.33 338.72 229.75 338.51 230.23 338.23 230.96 337.85 231.82 337.4 232.82 336.88 233.93 336.37 235.14 335.85 236.42 335.29 237.7 334.74 238.97 334.26 240.22 333.77 241.36 333.39 242.47 333.19 242.95 333.05 243.4 332.91 243.85 332.81 244.23 332.74 244.58 332.67 244.85 332.63 245.09 332.67 245.27 333.94 244.54 335.26 243.78 336.57 243.06 337.89 242.33 339.2 241.6 340.51 240.88 341.83 240.12 343.14 239.43 344.42 238.15 345.67 236.87 346.91 235.59 348.19 234.34 349.43 233.06 350.71 231.78 351.96 230.54 353.24 229.26 354.55 226.7 355.69 224.49 356.66 222.52 357.52 220.86 358.25 219.44 358.84 218.27 359.36 217.3 359.77 216.51 360.08 215.88 360.36 215.43 360.53 215.09 360.67 214.85 360.77 214.67 360.88 214.57 360.91 214.47 360.98 214.43 361.33 215.61 361.64 216.78 361.99 217.96 362.33 219.13 362.64 220.27 362.95 221.45 363.3 222.62 363.64 223.8 363.99 224.97 364.3 226.15 364.65 227.33 364.96 228.5 365.3 229.68 365.65 230.85 366 232.03 366.31 233.2 366.44 234.03 366.58 234.9 366.69 235.73 366.82 236.59 366.96 237.45 367.1 238.28 367.24 239.15 367.38 239.98 367.48 240.84 367.65 241.67 367.76 242.54 367.9 243.37 368.04 244.23 368.17 245.06 368.31 245.92 368.07 248.86 367.9 250 367.69 251.07 367.45 252.15 367.24 253.18 366.72 255.22 366.2 257.19 365.65 259.16 365.1 261.17 364.54 263.24 363.99 265.42 363.33 266.73 362.71 268.05 362.05 269.36 361.4 270.68 360.74 272.02 360.08 273.34 359.46 274.65 358.8 276 358.53 276.45 358.08 277.07 357.49 277.87 356.83 278.8 356.11 279.8 355.35 280.91 354.52 282.05 353.72 283.22 352.93 284.37 352.17 285.5 351.47 286.58 350.85 287.58 350.33 288.44 349.92 289.17 349.75 289.45 349.64 289.72 349.61 289.93 349.57 290.1 350.61 289.79 352.44 289.24 354.24 288.72 356.07 288.17 357.87 287.65 359.7 287.13 361.5 286.58 363.33 286.06 365.17 285.54 366.17 285.23 369.04 283.26 371.18 281.77 372.74 280.67 373.84 279.9 374.54 279.39 374.95 279.04 375.26 278.8 375.5 278.56 375.78 277.21 376.09 275.89 376.4 274.55 376.68 273.2 376.99 271.88 377.3 270.54 377.61 269.22 377.89 267.88 377.79 269.95 377.65 272.02 377.51 274.1 377.37 276.17 377.2 278.76 377.06 281.36 376.89 283.98 376.71 286.58 376.57 289.17 376.4 291.76 376.23 294.36 376.06 296.91 375.92 298.99 375.78 301.1 375.33 302.62 374.88 304.14 374.26 306.25 373.64 308.36 373.01 310.46 372.36 312.57 371.73 314.68 371.11 316.76 370.45 318.86 369.83 320.97 369.38 322.49 368.9 324.05 368.45 325.57 367.69 326.81 366.93 328.02 366.13 329.24 365.37 330.44 364.61 331.65 363.82 332.9 363.09 334.11 362.3 335.32 361.54 336.53 360.77 337.77 360.01 338.98 359.25 340.19 358.49 341.44 357.73 342.65 356.97 343.86 356.18 345.1 355.31 345.69 354.45 346.31 353.58 346.9 352.72 347.52 351.82 348.11 350.96 348.73 350.09 349.32 349.19 349.94 348.33 350.56 347.46 351.15 346.6 351.77 345.74 352.36 344.87 352.98 343.97 353.57 343.11 354.19 342.24 354.78 341.24 355.27 340.27 355.75 339.27 356.23 338.27 356.72 337.26 357.17 336.3 357.65 335.29 358.13 334.29 358.62 333.32 359.1 332.32 359.59 331.35 360.07 330.35 360.52 329.35 361 328.38 361.49 327.38 361.97 326.41 362.46 325.51 362.63 324.64 362.77 323.75 362.94 322.88 363.08 321.98 363.25 321.08 363.39 320.22 363.53 319.32 363.7 318.46 363.84 317.59 363.98 316.69 364.15 315.83 364.32 314.93 364.46 314.07 364.63 313.17 364.77 312.3 364.94 311.47 364.94 310.61 364.94 309.78 364.91 308.95 364.91 308.12 364.91 307.25 364.91 306.43 364.91 305.6 364.91 304.76 364.91 303.9 364.88 303.07 364.88 302.24 364.88 301.41 364.88 300.58 364.88 299.72 364.88 298.89 364.84 298.89 364.84"/><polygon class="cls-4" points="298.89 364.84 299.86 364.29 300.79 363.7 301.76 363.11 302.69 362.52 303.59 361.9 304.52 361.31 305.46 360.69 306.36 360.07 307.29 359.41 308.19 358.79 309.09 358.13 309.99 357.51 310.88 356.86 311.78 356.2 312.68 355.54 313.58 354.88 314.51 353.95 315.48 353.02 316.42 352.12 317.35 351.19 318.32 350.25 319.25 349.35 320.19 348.42 321.12 347.52 322.09 346.59 323.02 345.69 323.95 344.76 324.92 343.86 325.86 342.92 326.82 341.99 327.76 341.09 328.69 340.16 329.38 338.85 330.11 337.5 330.8 336.15 331.49 334.83 332.22 333.49 332.94 332.17 333.63 330.82 334.33 329.51 335.05 328.16 335.74 326.85 336.44 325.5 337.16 324.15 337.89 322.84 338.58 321.53 339.27 320.18 340 318.83 338.61 319.73 337.19 320.59 335.85 321.42 334.53 322.22 333.19 322.98 331.87 323.74 331.21 324.08 330.52 324.43 329.87 324.78 329.21 325.09 328.52 325.4 327.83 325.71 327.13 325.99 326.44 326.26 325.75 326.54 325.06 326.78 324.33 326.99 323.61 327.2 322.88 327.4 322.12 327.58 321.36 327.75 320.56 327.85 319.81 327.99 318.98 328.09 318.18 328.16 317.35 328.23 316.66 328.23 315.97 328.23 315.31 328.2 314.62 328.2 313.96 328.2 313.27 328.16 312.61 328.16 311.92 328.16 311.51 328.13 311.13 328.09 310.71 328.09 310.3 328.06 309.88 328.06 309.47 328.02 309.09 327.99 308.67 327.96 309.54 327.06 310.4 326.16 311.23 325.26 312.03 324.36 312.82 323.46 313.62 322.56 314.38 321.67 315.14 320.73 315.9 319.83 316.62 318.9 317.35 317.97 318.08 317 318.8 316.03 319.56 315.03 320.25 314.06 320.98 313.02 321.33 312.09 321.64 311.16 321.91 310.22 322.23 309.29 322.57 308.36 322.88 307.46 323.16 306.52 323.5 305.59 323.81 304.66 324.13 303.72 324.44 302.79 324.75 301.86 325.06 300.96 325.37 300.02 325.68 299.09 325.99 298.16 325.99 294.6 325.99 291.49 325.96 288.79 325.96 286.47 325.96 284.54 325.92 282.91 325.92 281.56 325.92 280.53 325.89 279.7 325.89 279.11 325.86 278.69 325.86 278.42 325.82 278.28 325.82 278.21 325.79 278.25 325.72 278.31 325.2 279.56 324.64 280.8 324.06 282.05 323.5 283.29 322.95 284.57 322.4 285.82 321.85 287.06 321.29 288.31 320.43 288.89 319.49 289.48 318.6 290.07 317.73 290.66 316.83 291.24 315.93 291.83 315.07 292.45 314.17 293.01 313.27 293.6 312.37 294.22 311.47 294.77 310.61 295.39 309.71 295.98 308.81 296.57 307.91 297.15 307.05 297.74 306.05 298.78 305.01 299.78 304 300.82 303 301.86 302 302.89 301 303.9 299.99 304.97 298.99 305.97 298.99 305.45 298.99 304.93 298.99 304.45 298.99 303.93 298.99 303 298.99 302.06 298.99 301.17 298.99 300.2 298.99 299.3 299.03 298.37 299.03 297.43 299.03 296.53 299.03 295.6 299.03 294.67 299.03 293.73 299.03 292.83 299.06 291.9 299.06 290.97 299.06 290.07 299.06 289.13 299.06 288.31 299.06 287.51 299.06 286.71 299.03 285.89 299.03 285.09 299.03 284.26 299.03 283.47 299.03 282.64 299.03 281.84 299.03 281.05 298.99 280.22 298.99 279.42 298.99 278.63 298.99 277.8 298.99 277 298.99 276.21 298.27 273.2 297.64 270.61 297.09 268.32 296.61 266.35 296.23 264.66 295.85 263.21 295.57 262 295.33 261 295.12 260.13 294.91 259.37 294.74 258.75 294.57 258.2 294.43 257.68 294.29 257.16 294.12 256.64 293.98 256.09 293.36 255.19 292.73 254.29 292.11 253.36 291.52 252.46 290.9 251.56 290.28 250.66 289.66 249.76 289.07 248.86 288.45 247.96 287.86 247.06 287.24 246.17 286.61 245.27 286.03 244.37 285.4 243.44 284.78 242.54 284.16 241.64 283.05 240.53 281.95 239.46 280.81 238.35 279.7 237.25 278.59 236.18 277.45 235.07 276.35 233.96 275.24 232.89 275.2 232.86 275.17 232.86 275.14 232.89 275.1 233.06 275.1 233.34 275.07 233.76 275.07 234.34 275.03 235.14 275.03 236.18 275 237.45 275 239.04 274.96 240.95 274.93 243.23 274.93 245.82 274.89 248.86 274.86 252.35 274.24 254.08 273.62 255.84 272.99 257.61 272.4 259.34 271.78 261.1 271.16 262.86 270.54 264.59 269.95 266.35 269.33 268.12 268.74 269.88 268.12 271.61 267.5 273.37 266.91 275.13 266.29 276.9 265.66 278.63 265.07 280.39 265.04 281.36 264.97 282.22 264.97 283.05 264.94 284.02 264.97 285.23 264.97 286.85 265.04 289.03 265.07 291.87 265.18 292.45 265.32 293.14 265.49 293.94 265.7 294.8 265.9 295.74 266.11 296.74 266.32 297.74 266.56 298.81 266.74 299.85 266.94 300.85 267.08 301.86 267.22 302.79 267.25 303.24 267.29 303.65 267.32 304.07 267.36 304.45 267.36 304.8 267.36 305.11 267.32 305.42 267.29 305.69 266.25 305.11 265.21 304.55 264.21 304 263.17 303.41 262.17 302.86 261.13 302.27 260.1 301.72 259.09 301.17 258.06 300.61 257.05 300.06 256.02 299.47 254.98 298.92 253.94 298.37 252.94 297.81 251.9 297.22 250.9 296.67 250.1 295.63 249.48 294.8 248.93 294.08 248.38 293.32 247.79 292.45 247.06 291.35 246.09 290 244.88 288.17 244.4 286.96 243.92 285.71 243.43 284.47 242.95 283.26 242.46 282.01 241.98 280.8 241.5 279.56 241.05 278.31 240.98 278.49 240.94 278.73 240.87 279.14 240.8 279.9 240.74 281.08 240.63 282.81 240.49 285.23 240.32 288.44 240.04 289.65 239.77 290.9 239.49 292.11 239.25 293.35 238.97 294.56 238.69 295.81 238.42 297.05 238.18 298.3 238.73 299.99 239.21 301.34 239.63 302.48 239.97 303.48 240.35 304.55 240.8 305.76 241.39 307.25 242.12 309.15 242.84 310.36 243.57 311.57 244.3 312.75 245.06 313.92 245.85 315.06 246.61 316.24 247.41 317.38 248.2 318.55 249.03 319.66 249.86 320.83 250.73 321.98 251.56 323.12 252.46 324.26 253.32 325.4 254.22 326.57 255.12 327.75 254.94 327.82 254.7 327.85 254.39 327.85 254.01 327.89 253.63 327.85 253.18 327.85 252.7 327.82 252.18 327.78 251.04 327.68 249.83 327.54 248.51 327.37 247.2 327.23 245.85 327.02 244.54 326.85 243.26 326.64 242.12 326.47 241.08 326.3 240.18 326.16 239.46 326.09 238.94 326.02 237.87 325.64 236.83 325.26 235.76 324.88 234.72 324.5 233.65 324.12 232.61 323.77 231.54 323.39 230.5 323.01 229.36 322.22 228.25 321.42 227.15 320.59 226.04 319.8 224.9 319 223.79 318.21 222.69 317.41 221.58 316.62 221.72 317.17 221.89 317.79 222.07 318.38 222.27 319 222.72 320.21 223.17 321.49 223.69 322.74 224.21 324.05 224.8 325.33 225.38 326.64 226.01 327.92 226.59 329.27 227.22 330.55 227.84 331.83 228.43 333.11 229.01 334.39 229.57 335.6 230.12 336.81 232.61 339.81 234.82 342.44 236.76 344.72 238.38 346.69 239.8 348.35 240.98 349.74 241.94 350.91 242.74 351.84 243.36 352.57 243.85 353.12 244.23 353.57 244.5 353.88 244.75 354.13 244.92 354.26 245.06 354.4 245.19 354.54 246.06 354.95 246.92 355.37 247.75 355.78 248.62 356.2 249.48 356.61 250.35 357.03 251.21 357.44 252.04 357.89 252.91 358.31 253.77 358.72 254.63 359.14 255.5 359.55 256.33 359.97 257.19 360.38 258.06 360.8 258.92 361.21 259.37 361.28 260.06 361.42 261 361.56 262.1 361.73 263.38 361.97 264.73 362.18 266.18 362.42 267.63 362.7 269.09 362.94 270.5 363.22 271.82 363.49 272.99 363.74 274 363.98 274.82 364.22 275.1 364.32 275.38 364.43 275.52 364.53 275.62 364.6 273.37 364.46 271.13 364.32 268.84 364.18 266.6 364.05 264.35 363.91 262.1 363.77 259.82 363.63 257.61 363.46 255.36 363.36 253.08 363.22 250.83 363.04 248.58 362.9 246.34 362.77 244.05 362.63 241.81 362.52 239.56 362.39 237.66 361.63 235.96 360.94 234.44 360.35 233.06 359.76 231.81 359.28 230.6 358.79 229.46 358.31 228.29 357.86 227.11 357.34 225.83 356.82 224.45 356.23 222.93 355.58 221.24 354.85 219.3 354.06 217.12 353.12 214.63 352.08 213.59 351.32 212.56 350.6 211.56 349.87 210.52 349.15 209.48 348.39 208.44 347.66 207.41 346.9 206.37 346.17 205.37 345.45 204.33 344.72 203.29 343.96 202.25 343.24 201.25 342.51 200.22 341.78 199.21 341.02 198.18 340.3 197.52 339.12 196.86 338.02 196.24 336.84 195.58 335.7 194.93 334.52 194.27 333.42 193.65 332.24 192.99 331.1 192.33 329.96 191.68 328.79 191.02 327.64 190.4 326.5 189.74 325.36 189.12 324.22 188.46 323.08 187.8 321.94 186.9 318.73 185.97 315.51 185.07 312.33 184.14 309.12 183.21 305.94 182.31 302.75 181.37 299.54 180.47 296.32 179.57 293.11 178.64 289.93 177.71 286.75 176.81 283.54 175.88 280.32 174.94 277.14 174.04 273.93 173.14 270.74 173.04 270.19 172.97 269.53 172.87 268.74 172.76 267.88 172.66 266.91 172.56 265.94 172.42 264.9 172.28 263.87 172.14 262.83 171.97 261.86 171.83 260.93 171.66 260.06 171.49 259.3 171.31 258.68 171.21 258.4 171.14 258.16 171.03 257.99 170.97 257.85 170.97 257.44 170.97 257.02 170.97 256.64 170.97 256.26 171.97 257.23 173.01 258.23 174.01 259.2 175.01 260.2 175.98 261.2 176.95 262.24 177.88 263.28 178.85 264.35 179.75 265.39 180.68 266.49 181.58 267.6 182.48 268.7 183.38 269.85 184.24 271.02 185.07 272.2 185.94 273.41 187.11 274.31 188.32 275.17 189.5 276.07 190.67 276.97 191.88 277.87 193.06 278.76 194.27 279.66 195.44 280.56 196.48 280.7 197.52 280.84 198.52 280.98 199.59 281.15 200.59 281.29 201.63 281.43 202.67 281.6 203.71 281.74 204.74 281.91 205.78 282.05 206.78 282.19 207.82 282.36 208.86 282.5 209.9 282.67 210.93 282.81 211.97 282.98 212.04 282.81 212.11 282.7 211.28 280.91 210.45 279.11 209.65 277.35 208.86 275.58 208.1 273.82 207.34 272.06 206.58 270.33 205.82 268.57 205.09 266.84 204.36 265.07 203.67 263.31 202.95 261.55 202.25 259.79 201.56 258.02 200.91 256.23 200.22 254.43 200.11 253.53 199.97 252.6 199.87 251.7 199.77 250.76 199.63 249.87 199.52 248.97 199.38 248.03 199.28 247.13 199.18 246.24 199.07 245.34 198.94 244.44 198.83 243.54 198.73 242.6 198.63 241.71 198.49 240.81 198.38 239.91 198.38 238.87 198.35 237.87 198.35 236.83 198.31 235.83 198.31 234.83 198.28 233.82 198.28 232.82 198.28 231.78 198.24 230.78 198.24 229.75 198.24 228.74 198.21 227.74 198.21 226.74 198.21 225.74 198.18 224.7 198.18 223.7 197.83 220.07 197.52 216.85 197.28 214.05 197.07 211.7 196.86 209.66 196.72 207.97 196.59 206.58 196.48 205.48 196.41 204.61 196.38 203.92 196.34 203.44 196.34 203.09 196.34 202.85 196.34 202.71 196.34 202.61 196.38 202.54 197.66 203.85 198.94 205.13 200.22 206.45 201.53 207.72 202.81 209.04 204.09 210.35 205.37 211.67 206.65 212.94 207.37 214.02 208.13 215.09 208.86 216.13 209.59 217.2 210.34 218.27 211.11 219.31 211.83 220.38 212.59 221.41 213.32 222.49 214.08 223.52 214.84 224.59 215.57 225.67 216.33 226.7 217.05 227.78 217.81 228.85 218.57 229.92 219.58 230.54 220.58 231.2 221.58 231.85 222.58 232.51 223.59 233.2 224.59 233.82 225.63 234.52 226.63 235.14 226.63 235 226.63 234.83 226.63 234.59 226.59 234.31 226.46 233.72 226.25 232.96 226.04 232.16 225.76 231.27 225.45 230.33 225.11 229.37 224.45 227.5 223.79 225.77 223.28 224.35 222.96 223.49 222.93 221.24 222.93 219 222.96 216.78 223 214.6 223.07 212.39 223.17 210.21 223.28 208.04 223.38 205.86 223.55 203.68 223.72 201.54 223.93 199.36 224.18 197.22 224.42 195.04 224.69 192.86 224.97 190.68 225.28 188.5 225.59 187.12 225.83 185.74 226.11 184.39 226.42 183.01 226.66 181.63 226.97 180.28 227.25 178.9 227.53 177.51 227.25 175.96 226.94 174.44 226.63 172.88 226.35 171.32 226.08 169.77 225.76 168.25 225.45 166.73 225.18 165.17 228.19 165.86 230.47 166.41 232.09 166.79 233.23 167.07 233.96 167.25 234.41 167.42 234.69 167.49 234.86 167.59 235.69 168.42 236.52 169.25 237.42 170.11 238.28 171.01 238.73 171.46 239.15 171.91 239.56 172.4 239.97 172.88 240.35 173.36 240.74 173.85 241.08 174.37 241.43 174.88 241.91 176.13 242.36 177.34 242.84 178.58 243.33 179.79 243.81 181 244.3 182.25 244.75 183.46 245.23 184.67 245.37 185.57 245.51 186.47 245.65 187.33 245.78 188.23 245.96 189.09 246.09 189.99 246.23 190.89 246.37 191.79 246.51 192.65 246.68 193.55 246.82 194.42 246.96 195.31 247.1 196.21 247.24 197.08 247.37 198.01 247.55 198.88 248.82 201.43 249.93 203.68 250.9 205.62 251.73 207.28 252.46 208.69 253.04 209.87 253.53 210.84 253.91 211.6 254.22 212.19 254.46 212.63 254.63 212.98 254.77 213.19 254.84 213.32 254.88 213.39 254.94 213.39 254.98 213.39 255.36 212.56 255.71 211.74 256.09 210.91 256.47 210.04 256.85 209.21 257.19 208.38 257.57 207.55 257.95 206.72 258.33 205.86 258.71 205.03 259.09 204.2 259.44 203.37 259.82 202.5 260.2 201.68 260.58 200.81 260.96 199.98 261.41 198.53 261.86 197.08 262.24 195.63 262.65 194.14 263 192.69 263.35 191.2 263.66 189.75 263.97 188.26 264.25 186.81 264.52 185.32 264.76 183.84 264.97 182.39 265.18 180.9 265.39 179.41 265.56 177.93 265.73 176.44 265.87 174.95 266.01 173.47 266.15 171.98 266.25 170.49 266.35 169.01 266.42 167.52 266.49 166.03 266.6 164.55 266.7 161.58 266.77 158.57 266.8 155.59 266.84 152.62 266.84 151.76 266.84 150.86 266.84 150 266.84 149.13 266.87 148.27 266.87 147.4 266.87 146.54 266.87 145.67 266.87 144.81 266.87 143.94 266.87 143.08 266.91 142.22 266.91 141.35 266.91 140.49 266.91 139.62 266.91 138.76 267.05 137.83 267.15 136.93 267.29 136.06 267.43 135.16 267.6 134.27 267.74 133.4 267.94 132.5 268.12 131.6 268.32 130.74 268.53 129.88 268.77 129.01 269.02 128.11 269.5 126.38 270.02 124.69 270.57 122.96 271.13 121.23 271.71 119.54 272.06 118.47 272.44 117.43 272.82 116.36 273.2 115.29 273.55 114.25 273.93 113.18 274.31 112.14 274.65 111.07 274.93 112.63 275.2 114.15 275.45 115.67 275.72 117.22 276 118.75 276.28 120.27 276.59 121.82 276.87 123.34 277.21 124.86 277.52 126.42 277.87 127.97 278.25 129.5 278.63 131.05 279.04 132.61 279.49 134.16 279.98 135.75 282.29 140.63 283.88 143.53 285.47 146.3 287.06 149.03 288.62 151.69 290.18 154.38 291.66 157.12 292.39 158.53 293.11 159.95 293.84 161.44 294.53 162.96 295.64 165.93 296.23 167.66 296.85 169.42 297.47 171.19 298.09 172.91 298.68 174.68 299.3 176.44 299.93 178.17 300.51 179.93 301.13 181.66 301.76 183.42 302.35 185.19 302.97 186.95 303.59 188.68 304.18 190.44 304.8 192.2 305.01 193.69 305.21 195.21 305.42 196.73 305.63 198.25 305.84 199.77 306.05 201.29 306.25 202.78 306.46 204.3 306.39 204.86 306.25 205.62 306.11 206.48 305.94 207.45 305.73 208.56 305.53 209.7 305.28 210.87 305.11 212.08 304.9 213.29 304.73 214.47 304.56 215.61 304.45 216.64 304.42 217.13 304.38 217.58 304.35 217.99 304.35 218.37 304.35 218.72 304.38 219.03 304.42 219.31 304.45 219.51 305.35 219.17 306.25 218.82 307.15 218.48 308.05 218.13 308.95 217.78 309.85 217.44 310.75 217.09 311.65 216.75 312.61 215.85 313.62 214.91 314.65 213.95 315.66 212.94 316.18 212.43 316.66 211.91 317.14 211.39 317.59 210.87 318.01 210.32 318.39 209.76 318.56 209.49 318.73 209.25 318.87 208.94 319.04 208.66 319.32 207.69 319.6 206.69 319.87 205.72 320.15 204.72 320.43 203.75 320.7 202.75 320.98 201.78 321.29 200.78 321.53 199.81 321.85 198.84 322.12 197.84 322.4 196.87 322.67 195.9 322.99 194.9 323.23 193.93 323.54 192.96 323.71 191.37 323.88 189.82 324.06 188.23 324.23 186.67 324.4 185.08 324.61 183.53 324.75 181.94 324.96 180.38 325.13 178.79 325.3 177.2 325.48 175.65 325.65 174.09 325.82 172.5 325.99 170.94 326.2 169.39 326.37 167.8 327 169.04 327.62 170.29 328.27 171.5 328.9 172.74 329.52 173.99 330.14 175.2 330.8 176.44 331.42 177.69 332.04 178.93 332.67 180.14 333.32 181.38 333.94 182.59 334.6 183.84 335.23 185.08 335.85 186.33 336.47 187.54 336.68 189.02 336.81 190.47 337.02 191.96 337.19 193.41 337.37 194.9 337.54 196.39 337.71 197.84 337.89 199.32 338.06 200.81 338.23 202.3 338.37 203.78 338.51 205.27 338.65 206.76 338.79 208.24 338.89 209.76 338.96 211.25 338.92 211.91 338.92 212.53 338.89 213.19 338.89 213.81 338.86 214.47 338.82 215.12 338.82 215.75 338.79 216.4 338.79 217.02 338.79 217.68 338.79 218.3 338.79 218.96 338.79 219.58 338.79 220.24 338.79 220.9 338.79 221.52 338.79 222.14 338.79 222.76 338.79 223.38 338.79 224.01 338.79 224.66 338.79 225.29 338.79 225.91 338.79 226.56 338.79 226.94 338.75 227.33 338.75 227.74 338.75 228.12 338.75 228.54 338.75 228.92 338.72 229.33 338.72 229.75 338.51 230.23 338.23 230.96 337.85 231.82 337.4 232.82 336.88 233.93 336.37 235.14 335.85 236.42 335.29 237.7 334.74 238.97 334.26 240.22 333.77 241.36 333.39 242.47 333.19 242.95 333.05 243.4 332.91 243.85 332.81 244.23 332.74 244.58 332.67 244.85 332.63 245.09 332.67 245.27 333.94 244.54 335.26 243.78 336.57 243.06 337.89 242.33 339.2 241.6 340.51 240.88 341.83 240.12 343.14 239.43 344.42 238.15 345.67 236.87 346.91 235.59 348.19 234.34 349.43 233.06 350.71 231.78 351.96 230.54 353.24 229.26 354.55 226.7 355.69 224.49 356.66 222.52 357.52 220.86 358.25 219.44 358.84 218.27 359.36 217.3 359.77 216.51 360.08 215.88 360.36 215.43 360.53 215.09 360.67 214.85 360.77 214.67 360.88 214.57 360.91 214.47 360.98 214.43 361.33 215.61 361.64 216.78 361.99 217.96 362.33 219.13 362.64 220.27 362.95 221.45 363.3 222.62 363.64 223.8 363.99 224.97 364.3 226.15 364.65 227.33 364.96 228.5 365.3 229.68 365.65 230.85 366 232.03 366.31 233.2 366.44 234.03 366.58 234.9 366.69 235.73 366.82 236.59 366.96 237.45 367.1 238.28 367.24 239.15 367.38 239.98 367.48 240.84 367.65 241.67 367.76 242.54 367.9 243.37 368.04 244.23 368.17 245.06 368.31 245.92 368.07 248.86 367.9 250 367.69 251.07 367.45 252.15 367.24 253.18 366.72 255.22 366.2 257.19 365.65 259.16 365.1 261.17 364.54 263.24 363.99 265.42 363.33 266.73 362.71 268.05 362.05 269.36 361.4 270.68 360.74 272.02 360.08 273.34 359.46 274.65 358.8 276 358.53 276.45 358.08 277.07 357.49 277.87 356.83 278.8 356.11 279.8 355.35 280.91 354.52 282.05 353.72 283.22 352.93 284.37 352.17 285.5 351.47 286.58 350.85 287.58 350.33 288.44 349.92 289.17 349.75 289.45 349.64 289.72 349.61 289.93 349.57 290.1 350.61 289.79 352.44 289.24 354.24 288.72 356.07 288.17 357.87 287.65 359.7 287.13 361.5 286.58 363.33 286.06 365.17 285.54 366.17 285.23 369.04 283.26 371.18 281.77 372.74 280.67 373.84 279.9 374.54 279.39 374.95 279.04 375.26 278.8 375.5 278.56 375.78 277.21 376.09 275.89 376.4 274.55 376.68 273.2 376.99 271.88 377.3 270.54 377.61 269.22 377.89 267.88 377.79 269.95 377.65 272.02 377.51 274.1 377.37 276.17 377.2 278.76 377.06 281.36 376.89 283.98 376.71 286.58 376.57 289.17 376.4 291.76 376.23 294.36 376.06 296.91 375.92 298.99 375.78 301.1 375.33 302.62 374.88 304.14 374.26 306.25 373.64 308.36 373.01 310.46 372.36 312.57 371.73 314.68 371.11 316.76 370.45 318.86 369.83 320.97 369.38 322.49 368.9 324.05 368.45 325.57 367.69 326.81 366.93 328.02 366.13 329.24 365.37 330.44 364.61 331.65 363.82 332.9 363.09 334.11 362.3 335.32 361.54 336.53 360.77 337.77 360.01 338.98 359.25 340.19 358.49 341.44 357.73 342.65 356.97 343.86 356.18 345.1 355.31 345.69 354.45 346.31 353.58 346.9 352.72 347.52 351.82 348.11 350.96 348.73 350.09 349.32 349.19 349.94 348.33 350.56 347.46 351.15 346.6 351.77 345.74 352.36 344.87 352.98 343.97 353.57 343.11 354.19 342.24 354.78 341.24 355.27 340.27 355.75 339.27 356.23 338.27 356.72 337.26 357.17 336.3 357.65 335.29 358.13 334.29 358.62 333.32 359.1 332.32 359.59 331.35 360.07 330.35 360.52 329.35 361 328.38 361.49 327.38 361.97 326.41 362.46 325.51 362.63 324.64 362.77 323.75 362.94 322.88 363.08 321.98 363.25 321.08 363.39 320.22 363.53 319.32 363.7 318.46 363.84 317.59 363.98 316.69 364.15 315.83 364.32 314.93 364.46 314.07 364.63 313.17 364.77 312.3 364.94 311.47 364.94 310.61 364.94 309.78 364.91 308.95 364.91 308.12 364.91 307.25 364.91 306.43 364.91 305.6 364.91 304.76 364.91 303.9 364.88 303.07 364.88 302.24 364.88 301.41 364.88 300.58 364.88 299.72 364.88 298.89 364.84 298.89 364.84"/><polygon class="cls-3" points="195.38 381.81 363.51 381.81 363.51 398.93 195.38 398.93 195.38 381.81 195.38 381.81"/><polygon class="cls-4" points="195.38 381.81 363.51 381.81 363.51 398.93 195.38 398.93 195.38 381.81 195.38 381.81"/></svg>