<svg id="Ebene_1" data-name="Ebene 1" xmlns="http://www.w3.org/2000/svg" viewBox="0 0 553.1 553.1"><defs><style>.cls-1{fill:#fff;}.cls-1,.cls-2,.cls-3{fill-rule:evenodd;}.cls-2{fill:#da251d;}</style></defs><polygon class="cls-1" points="0 276.55 276.55 0 553.1 276.55 276.55 553.1 0 276.55 0 276.55"/><path class="cls-2" d="M21,421.44,297.55,144.89,574.1,421.44,297.55,698,21,421.44Zm44.84,0L297.55,189.73,529.27,421.44,297.55,653.16,65.84,421.44Z" transform="translate(-21 -144.89)"/><polygon class="cls-3" points="158.74 259.72 164.72 258.13 171.43 256.36 178.9 254.39 187.05 252.25 195.94 249.9 205.44 247.41 215.64 244.71 226.46 241.88 237.87 238.87 249.9 235.69 262.45 232.37 275.58 228.92 289.24 225.32 303.41 221.59 318.07 217.72 333.21 213.74 334.45 213.46 335.63 213.32 336.74 213.26 337.81 213.32 338.85 213.5 339.81 213.71 340.78 214.05 341.68 214.43 342.54 214.88 343.37 215.4 344.17 215.95 344.96 216.54 345.69 217.2 346.45 217.85 347.18 218.54 347.87 219.2 349.25 220.59 350.6 221.93 351.29 222.56 351.98 223.14 352.67 223.7 353.4 224.18 354.13 224.63 354.85 224.97 355.61 225.29 356.41 225.49 357.2 225.63 358.03 225.67 358.93 225.6 359.83 225.39 362.35 224.77 364.74 224.15 366.95 223.59 369.06 223.04 371.06 222.49 373.03 221.97 375 221.45 377.01 220.9 379.05 220.34 381.19 219.79 383.44 219.17 385.82 218.54 388.42 217.85 391.22 217.13 394.26 216.3 397.61 215.43 398.65 215.23 399.65 215.12 400.62 215.16 401.52 215.3 402.38 215.5 403.21 215.85 403.97 216.26 404.7 216.75 405.36 217.34 405.98 217.96 406.53 218.68 407.05 219.41 407.5 220.24 407.88 221.07 408.19 221.93 408.47 222.83 408.64 223.73 408.78 224.66 408.85 225.6 408.81 226.5 408.74 227.4 408.61 228.29 408.36 229.16 408.05 229.99 407.67 230.78 407.22 231.54 406.67 232.24 406.05 232.86 405.32 233.41 404.53 233.89 403.66 234.31 402.69 234.62 400.34 235.24 398.1 235.83 395.85 236.42 393.64 237 391.46 237.59 389.25 238.15 387.04 238.73 384.82 239.32 382.57 239.91 380.26 240.53 377.91 241.15 375.49 241.78 373 242.43 370.41 243.12 367.71 243.85 364.91 244.58 363.91 244.89 363.01 245.27 362.21 245.75 361.52 246.27 360.9 246.82 360.38 247.44 359.9 248.14 359.52 248.86 359.14 249.62 358.83 250.42 358.58 251.25 358.34 252.11 357.89 253.88 357.48 255.71 357.27 256.64 357.03 257.54 356.79 258.47 356.48 259.37 356.13 260.27 355.75 261.13 355.3 261.96 354.82 262.79 354.23 263.59 353.57 264.31 352.81 265.04 351.95 265.7 351.01 266.29 349.94 266.84 348.77 267.32 347.45 267.74 337.08 270.47 327.47 272.99 318.55 275.38 310.15 277.59 302.2 279.66 294.6 281.67 287.2 283.64 279.9 285.54 272.61 287.48 265.21 289.41 257.61 291.42 249.66 293.52 241.26 295.74 232.34 298.09 222.76 300.61 212.39 303.34 172.98 313.71 171.98 313.96 170.98 314.13 169.98 314.23 169.01 314.27 168.04 314.27 167.04 314.2 166.1 314.06 165.14 313.85 164.17 313.61 163.24 313.3 162.34 312.92 161.4 312.47 160.5 311.99 159.64 311.43 158.74 310.81 157.91 310.15 157.08 309.39 156.25 308.63 155.46 307.77 154.7 306.87 153.94 305.9 153.21 304.9 152.52 303.83 151.83 302.69 151.17 301.51 150.55 300.27 149.96 298.95 149.37 297.61 148.85 296.19 148.34 294.7 147.85 293.18 147.44 291.62 147.02 290 146.68 288.41 146.4 286.85 146.16 285.37 145.99 283.88 145.85 282.43 145.78 281.05 145.78 279.66 145.81 278.35 145.88 277.07 146.02 275.83 146.19 274.62 146.43 273.44 146.71 272.3 147.02 271.23 147.4 270.19 147.82 269.19 148.27 268.22 148.78 267.32 149.3 266.42 149.89 265.63 150.51 264.83 151.17 264.11 151.86 263.42 152.62 262.79 153.38 262.21 154.18 261.65 155.04 261.17 155.91 260.72 156.81 260.34 157.77 259.99 158.74 259.72 158.74 259.72"/></svg>