<?xml version="1.0" encoding="UTF-8"?>
<!DOCTYPE svg PUBLIC "-//W3C//DTD SVG 1.1//EN" "http://www.w3.org/Graphics/SVG/1.1/DTD/svg11.dtd">
<!-- Creator: Corel DESIGNER -->
<svg xmlns="http://www.w3.org/2000/svg" xml:space="preserve" width="40mm" height="40mm" version="1.1" style="shape-rendering:geometricPrecision; text-rendering:geometricPrecision; image-rendering:optimizeQuality; fill-rule:evenodd; clip-rule:evenodd"
viewBox="0 0 1000 1000"
 xmlns:xlink="http://www.w3.org/1999/xlink"
 xmlns:xodm="http://www.corel.com/coreldraw/odm/2003">
 <defs>
  <style type="text/css">
   <![CDATA[
    .fil0m {fill:#004873}
    .fil1 {fill:white}
   ]]>
  </style>
 </defs>
<symbol id="ISO_x0020_7010_x0020_M001" viewBox="1125 2212.5 1750 1750">
 <circle class="fil0m" cx="2000" cy="3087.5" r="875"/>
 <path class="fil1" d="M2105.28 3651.01c0,-57.19 -46.36,-103.55 -103.55,-103.55 -57.19,0 -103.55,46.36 -103.55,103.55 0,57.19 46.36,103.55 103.55,103.55 57.19,0 103.55,-46.36 103.55,-103.55zm-23.24 -317.41l101.06 -711.98c15.66,-110.36 -69.77,-209.17 -181.37,-209.17 -111.6,0 -197.03,98.82 -181.37,209.17l101.06 711.98c5.59,39.35 39.41,69.61 80.31,69.61 40.89,0 74.72,-30.26 80.31,-69.61z"/>
</symbol>
 <g id="Ebene_x0020_1">
  <metadata id="CorelCorpID_0Corel-Layer"/>
  <use id="ISO_x0020_7010_x0020_M001_0" transform="scale(0.571429 0.571429)" x="-0" y="-0" width="1750" height="1750" xlink:href="#ISO_x0020_7010_x0020_M001"/>
 </g>
</svg>
