<?xml version="1.0" encoding="UTF-8"?>
<!DOCTYPE svg PUBLIC "-//W3C//DTD SVG 1.1//EN" "http://www.w3.org/Graphics/SVG/1.1/DTD/svg11.dtd">
<!-- Creator: Corel DESIGNER -->
<svg xmlns="http://www.w3.org/2000/svg" xml:space="preserve" width="40mm" height="40mm" version="1.1" style="shape-rendering:geometricPrecision; text-rendering:geometricPrecision; image-rendering:optimizeQuality; fill-rule:evenodd; clip-rule:evenodd"
viewBox="0 0 2000 2000"
 xmlns:xlink="http://www.w3.org/1999/xlink"
 xmlns:xodm="http://www.corel.com/coreldraw/odm/2003">
 <defs>
  <style type="text/css">
   <![CDATA[
    .fil0m {fill:#004873}
    .fil1 {fill:white}
   ]]>
  </style>
 </defs>
<symbol id="ISO_x0020_7010_x0020_M003" viewBox="-3750 4425 3500 3500">
 <circle class="fil0m" cx="-2000" cy="6175" r="1750"/>
 <path class="fil1" d="M-1240.78 6865.69l157.77 4.91c139.9,4.36 260.52,-87.68 293.23,-223.78l112.54 -468.14c32.72,-136.09 -32.88,-272.9 -159.46,-332.6l-131.24 -61.9 0 -275.36 -63.09 0c-11.41,-170.14 -84.19,-308.35 -194.38,-434.77 -87.43,-100.31 -218.91,-182.83 -344.78,-225.21 -138.22,-46.54 -276.63,-37.67 -429.82,-37.67 -280.76,0 -383.26,-13.6 -624.26,133.72 -143.61,87.8 -280.89,272.53 -323.81,436.56 -11.08,42.35 -18.11,85.74 -20.9,127.36l-63.09 0 0 275.36 -131.24 61.9c-126.59,59.7 -192.18,196.52 -159.47,332.6l112.54 468.14c32.72,136.1 153.33,228.14 293.24,223.78l157.77 -4.91c95.93,337.4 365.14,673.08 759.22,673.08 394.07,0 663.28,-335.68 759.22,-673.08zm-759.22 -1950.14c262.24,0 349.29,-16.73 570.04,118.23 119.8,73.24 241.2,235.64 277.34,373.77 11.3,43.18 17.57,88.15 18.47,130.49 -280.31,-597.19 -1071.8,-740.29 -1541.82,-270.28 -77.94,77.94 -142.48,169.29 -189.88,270.28 3.35,-155.34 70.05,-281.35 169.53,-395.49 75.71,-86.86 192.88,-159.15 299.53,-195.05 120.87,-40.69 260.83,-31.95 396.79,-31.95zm0 176.58c594.2,0 957.38,542.98 813.54,1105.86 -41.24,-9.91 -76.57,3.28 -86.28,43.66l-28.57 118.85c-9.71,40.39 15.77,68.18 57.01,78.1l-88.77 369.24c-80.07,304.92 -308.86,626.55 -666.92,626.55 -358.06,0 -586.85,-321.63 -666.92,-626.55l-88.77 -369.24c41.24,-9.92 66.72,-37.72 57.01,-78.1l-28.57 -118.85c-9.71,-40.39 -45.04,-53.58 -86.28,-43.66 -143.84,-562.88 219.34,-1105.86 813.54,-1105.86z"/>
</symbol>
 <g id="Ebene_x0020_1">
  <metadata id="CorelCorpID_0Corel-Layer"/>
  <use id="ISO_x0020_7010_x0020_M003_0" transform="scale(0.571429 0.571429)" x="-0" y="-0" width="3500" height="3500" xlink:href="#ISO_x0020_7010_x0020_M003"/>
 </g>
</svg>
