<?xml version="1.0" encoding="UTF-8"?>
<!DOCTYPE svg PUBLIC "-//W3C//DTD SVG 1.1//EN" "http://www.w3.org/Graphics/SVG/1.1/DTD/svg11.dtd">
<!-- Creator: Corel DESIGNER -->
<svg xmlns="http://www.w3.org/2000/svg" xml:space="preserve" width="40mm" height="40mm" version="1.1" style="shape-rendering:geometricPrecision; text-rendering:geometricPrecision; image-rendering:optimizeQuality; fill-rule:evenodd; clip-rule:evenodd"
viewBox="0 0 1000 1000"
 xmlns:xlink="http://www.w3.org/1999/xlink"
 xmlns:xodm="http://www.corel.com/coreldraw/odm/2003">
 <defs>
  <style type="text/css">
   <![CDATA[
    .fil0m {fill:#004873}
    .fil1 {fill:white}
   ]]>
  </style>
 </defs>
<symbol id="ISO_x0020_7010_x0020_M004" viewBox="1125 654.16 1750 1750">
 <circle class="fil0m" cx="2000" cy="1529.16" r="875"/>
 <path class="fil1" d="M1499.87 1426.9c-126.59,0.47 -76.78,179.4 -48.23,245.96 21.2,49.41 53.91,111.74 106.78,131.77 13.96,5.29 25.05,0.64 38.86,4.41 22.34,85.7 33.7,132.02 85.83,208.22 44.79,65.48 109.27,135.3 188.83,160.53 33.84,10.73 94.61,17.85 128.72,16.28 38.9,-1.8 92.51,-4.05 129.16,-17.58 146.21,-53.94 238.23,-224.16 273.21,-369.95 30.98,1.01 42.83,-3.84 62.23,-17.56 42.82,-30.26 75.04,-98.33 93.09,-147.8 29.13,-79.88 53.57,-206.39 -63.86,-215.46 -0.42,-12.77 2.11,-16.1 2.98,-27.24 7.64,-98.58 -20.59,-211.51 -71.48,-292.81 -41.2,-65.82 -98.7,-127 -165.48,-166.74 -78.66,-46.8 -156.45,-74.99 -260.7,-74.89 -72.79,0.07 -153.45,14.7 -218.05,49.6 -77.19,41.7 -147.84,93.68 -196.2,168.88 -51.06,79.38 -65.44,121.88 -84.08,217.44 -8.28,42.45 -2.62,93.23 -1.61,126.94zm50.91 -31c11.75,5.01 67.17,30.83 82.71,42.5 -0.02,11.44 -0.54,20.43 -0.79,40.88 -18.37,-12.87 -51.27,-31.08 -76.5,-40.39 -0.09,17.59 12.98,40.67 -7.39,51.59 -34.11,18.28 -40.37,-36.99 -67.08,-13.18 -11.81,10.52 -13.04,35.14 -13.01,49.93 0.14,67.25 37.65,158.82 80.32,209.78 37.08,44.28 42.82,-2.06 72.52,7.22 19.5,6.09 40.67,108.38 49.03,136.11 31.17,89.38 110.79,200.91 195.46,239.41 58.05,26.4 191.88,27.45 243.03,8.45 100.65,-37.37 170.98,-135.28 212.2,-237.44 14.73,-36.5 30.62,-148.25 62.25,-147.02 27.49,1.07 39.28,47.37 96.97,-53.98 24.2,-42.52 35.05,-81.74 45.88,-129.63 10.09,-44.68 -3.81,-103.23 -32.44,-88.91 -9.73,4.87 -10.95,17.53 -26.02,19.68 -44.95,6.43 -28.82,-48.28 -28.84,-51.73 -18.69,5.48 -53.15,25.45 -74.85,37.21l-0.26 -40.52c31.2,-16.23 52.03,-27.76 82.4,-39.86 -1.46,-128.14 -25.98,-241.57 -120.65,-337.42 -93.03,-94.18 -209.62,-144.98 -336.72,-142.53 -127.1,2.45 -237.5,51.74 -318.92,143.43 -90.75,117.52 -121.68,180.49 -119.29,336.41zm102.93 40.1c-1.57,49.77 -5.16,177.82 6.07,211.44 17.39,49.5 77.99,82.65 136.67,82.02 58.68,-0.63 73.42,-7.84 106.45,-31.57 24.9,-20.9 42.74,-59.67 42.62,-100.45l-5.79 -169.18c-72.09,-2.69 -208.56,-1.51 -286.02,7.75zm402.11 -4.91l-2.74 165.1c-0.59,35.62 17.27,85.54 63.63,113.87 34.6,21.4 117.05,24.08 154.02,2.53 44.26,-27.17 73.44,-65.12 73.38,-114.74l-0.22 -163.12c-107.1,-3.14 -184.03,-5.01 -288.08,-3.63zm-375.42 34.2c-0.46,55.26 -3.85,140.26 9.78,172.85 34.03,81.07 174.25,87.87 212.08,6.87 15.18,-29.63 12.35,-56.07 12.22,-87.5l-3.57 -98.02c-85.84,-1.19 -153.02,-0.51 -230.51,5.8zm403.45 126.71c-2.54,152.56 232.3,132.44 232.73,14.6l0.53 -141.42c-73.06,-3.08 -151.13,-4.26 -231.1,-2.75l-2.16 129.58zm-385.35 -108.88c-1.63,17.67 1.34,129.07 5.47,141.1 14.38,41.8 52.55,59.75 95.44,58.57 42.07,-1.17 74.38,-14.6 91.4,-58.81 9.41,-27.63 3.21,-109.8 3.28,-145.74 -41.92,-0.98 -134.1,1.34 -195.59,4.88zm599.39 -1.08c-63.6,-3.86 -128.32,-4.92 -194.22,-3.03l-2.76 108.45c-1.43,56.29 36,91.63 93.13,93.05 57.13,1.43 102.83,-26.79 103.15,-81.83l0.68 -116.64zm62.07 152.03c28.95,-8.62 32.66,-45.17 38.18,-68.67l14.89 -94.23c-20.18,11.22 -34.09,18.85 -49.18,27.34 -2.16,53.68 2.08,114.09 -3.89,135.57zm-721.48 1.74c-5.97,-44.27 -7.2,-89.41 -6.71,-136.28 -10.32,-5.57 -31.52,-18.7 -46.85,-26.79 0.96,15.06 18.03,121.07 24.14,136.76 3.47,8.91 20.95,23.25 29.41,26.31zm124.32 -223.94c-74.33,-16.03 -143.49,-20.4 -182.19,-21.4 19.78,8.86 36.7,17 58.69,29.57 44.63,-4.97 74.37,-6.29 123.5,-8.16zm475.09 4.1c65.31,-16.17 136.91,-23.11 182.83,-24.42 -19.78,7.16 -38.65,13.93 -64.51,26.98 -49.93,-2.52 -71.16,-2.42 -118.32,-2.56zm-275.68 109.84l73.21 0c0,-36.21 -20.75,-34.78 -45.38,-34.78 -15.31,0 -27.83,12.52 -27.83,27.83l0 6.96zm0 -47l73.21 0c0,-36.21 -20.75,-34.78 -45.38,-34.78 -15.31,0 -27.83,12.52 -27.83,27.83l0 6.96z"/>
</symbol>
 <g id="Ebene_x0020_1">
  <metadata id="CorelCorpID_0Corel-Layer"/>
  <use id="ISO_x0020_7010_x0020_M004_0" transform="scale(0.571429 0.571429)" x="-0" y="-0" width="1750" height="1750" xlink:href="#ISO_x0020_7010_x0020_M004"/>
 </g>
</svg>
