<?xml version="1.0" encoding="UTF-8"?>
<!DOCTYPE svg PUBLIC "-//W3C//DTD SVG 1.1//EN" "http://www.w3.org/Graphics/SVG/1.1/DTD/svg11.dtd">
<!-- Creator: Corel DESIGNER -->
<svg xmlns="http://www.w3.org/2000/svg" xml:space="preserve" width="40mm" height="40mm" version="1.1" style="shape-rendering:geometricPrecision; text-rendering:geometricPrecision; image-rendering:optimizeQuality; fill-rule:evenodd; clip-rule:evenodd"
viewBox="0 0 1000 1000"
 xmlns:xlink="http://www.w3.org/1999/xlink"
 xmlns:xodm="http://www.corel.com/coreldraw/odm/2003">
 <defs>
  <style type="text/css">
   <![CDATA[
    .fil0m {fill:#004873}
    .fil1 {fill:white}
   ]]>
  </style>
 </defs>
<symbol id="ISO_x0020_7010_x0020_M018" viewBox="1125 -904.17 1750 1750">
 <circle class="fil0m" cx="2000" cy="-29.17" r="875"/>
 <path class="fil1" d="M2131.59 -560.45c6.2,-52.39 -31.24,-99.87 -83.62,-106.06 -52.39,-6.18 -99.89,31.28 -106.09,83.68 -6.2,52.39 31.24,99.87 83.62,106.05 52.39,6.18 99.89,-31.28 106.09,-83.67zm-91.95 60.97c39.8,-1.72 70.7,-35.37 69.02,-75.16 -1.68,-39.79 -35.29,-70.66 -75.09,-68.94 -39.8,1.72 -70.7,35.37 -69.02,75.16 1.67,39.79 35.29,70.66 75.09,68.94zm184.48 92.19l-38.36 -29.92c-14.47,-11.29 -31.03,-12.69 -48.95,-12.69l-202.07 0c-30.16,0.25 -40.66,4.45 -62.8,27.19l-129.33 127.84c-4.53,4.48 -12.5,9.44 -24.7,9.44l-184.9 0.03c-108.97,0.02 -105.8,141.51 0,141.51l201.42 0c47.53,0.17 56.43,-4.26 77.9,-24.62l93.17 -87.28 0 225.84 -206.29 167.41c-33.27,27 -30.4,62.43 -17.12,97.08l98.96 258.19c38.16,99.55 182.99,53.14 145.02,-50.66l-82.11 -224.49 169.89 -133.89 0 515.34c0,108.65 152.48,109.35 152.67,0l0 -861.21c1.46,-6.75 5.84,-8.81 11.01,-5.03l84.65 61.84 0 199.38c0.18,98.97 140.88,102.85 140.88,0l0 -214.46c0.14,-29.14 -2.06,-45.61 -23.77,-66.74 -13.05,-12.71 -30.08,-23.75 -45.12,-35.7 -16.5,-13.11 -58.53,-42.92 -71.05,-55.52 28.19,-97.3 43.59,-197.51 38.97,-299.37l-44.17 -18.5c0.08,128.57 -6.91,182.16 -33.83,288.99zm-78.03 432.98c-36.51,6.23 -72.6,22.58 -109.86,54.76l0 519.28c-0.44,79.39 109.95,75 109.86,1.82l0 -575.86zm-330.2 185.59l166.43 -132.48 -70.86 -83.97 -185.77 149.25c-35.62,28.62 -35.53,45.87 -21,84.11l96.07 252.82c28.9,76.05 132.29,44.21 102.55,-35.46l-87.43 -234.25zm302.89 -263.83l27.42 -1.28 0 -211.62c0,-22.34 20.53,-34.24 40.38,-22.88l98.17 73.35 0 214.55c0,64.72 95.86,65.5 95.86,0l0 -224.64c0,-29.16 -8.21,-40.58 -27.2,-55.11l-165.75 -126.83c-11.44,-8.83 -28.42,-22.44 -46.29,-20.2 -21.21,129.76 -22.29,245.84 -22.59,374.66zm-359.8 -116.1c17.62,-0.01 25.12,-3.52 36.6,-15.06l109.94 -110.46c-0.09,-47.53 -1.32,-83.11 3.99,-128.83l-151.57 144.02c-12.82,12.18 -20.6,18.14 -43.77,18.13l-184.29 -0.12c-71.22,0.6 -67.73,92.51 0,92.47l229.11 -0.14zm190.95 87.76c37.04,15.8 84.09,24.2 130.35,25.44 -0.84,-61.02 -0.39,-124.39 1.97,-188.61l-132.32 -1.47 0 164.65zm0 -211.82l134.8 1.88c3.22,-50.79 8.3,-96.02 14.72,-137.21l-147.62 0c-1.87,40.43 -2.56,75.62 -1.91,135.33zm67.26 329.46c21.47,-17.76 37.11,-29.43 72.12,-43.55 -50.59,0.26 -90.67,-6.47 -132.17,-22.98l60.05 66.53z"/>
</symbol>
 <g id="Ebene_x0020_1">
  <metadata id="CorelCorpID_0Corel-Layer"/>
  <use id="ISO_x0020_7010_x0020_M018_0" transform="scale(0.571429 0.57143)" x="-0" width="1750" height="1750" xlink:href="#ISO_x0020_7010_x0020_M018"/>
 </g>
</svg>
