<?xml version="1.0" encoding="UTF-8"?>
<!DOCTYPE svg PUBLIC "-//W3C//DTD SVG 1.1//EN" "http://www.w3.org/Graphics/SVG/1.1/DTD/svg11.dtd">
<!-- Creator: Corel DESIGNER -->
<svg xmlns="http://www.w3.org/2000/svg" xml:space="preserve" width="40mm" height="40mm" version="1.1" style="shape-rendering:geometricPrecision; text-rendering:geometricPrecision; image-rendering:optimizeQuality; fill-rule:evenodd; clip-rule:evenodd"
viewBox="0 0 4000 4000"
 xmlns:xlink="http://www.w3.org/1999/xlink"
 xmlns:xodm="http://www.corel.com/coreldraw/odm/2003">
 <defs>
  <style type="text/css">
   <![CDATA[
    .fil0m {fill:#004873}
    .fil1 {fill:white}
   ]]>
  </style>
 </defs>
<symbol id="ISO_x0020_7010_x0020_M022" viewBox="-1500 -9849.99 7000 6999.98">
 <ellipse class="fil0m" cx="2000" cy="-6350" rx="3500" ry="3499.98"/>
 <path class="fil1" d="M-333.61 -4707.55c-5.11,181.07 96.34,228.4 210.29,230.53l1670.49 0c181.63,0.21 198.55,-20.54 306.14,-85.06l841.95 -504.93c41.44,-30.13 66.42,-64.95 99.25,-102.4l585.85 -687.39c162.95,-191.2 -136.12,-456.82 -328.42,-240.48l-576.87 675.73c-23.78,24.8 -39.49,31.06 -64.53,35.59l-794.99 143.77c-118.23,23.58 -237.12,-1.61 -325.31,-77.61l-265.47 -228.79c-83.77,-72.2 -57.63,-188.13 41.47,-244.77l431.28 -246.51c90.93,-51.98 175.81,-115.12 257.33,-254.75 46.25,-79.23 99.23,-227.56 34.43,-333.57 -44.77,-73.24 -126.72,-50.2 -196.18,-9.76l-1727.89 1005.93c-149.16,86.84 -197.68,154.93 -198.82,342.24l0 582.23z"/>
 <path class="fil1" d="M1926.7 -8437.56c-72.23,63.89 -121.28,134.65 -160.69,220.77 -164.55,359.6 58.99,564.35 35.19,819.95 -8.78,94.23 -46.94,190.72 -154.73,312.39 -86.61,97.77 38.1,217.14 134.33,135.26 122.08,-103.89 186.66,-259.41 204.88,-415.19 27.71,-237.05 -106.44,-416.04 -94.65,-615.66 4.79,-81.24 54.25,-212.5 133.39,-274.3l0 -239.24c-25.71,9.82 -68.04,29.77 -97.72,56.02zm276.1 -95.58l89.19 0 0 349.83 -89.19 0 0 -349.83zm2403.89 723.65c-253.15,-451.14 -619.86,-829.97 -1061.61,-1097.47l-728.74 0 -479.76 373.75 0 349.96 479.76 373.76 1790.35 0zm-2537.68 -723.65l89.19 0 0 349.83 -89.19 0 0 -349.83zm897.49 -259.65l623.76 0 0 869.13 -623.76 0 0 -869.13z"/>
 <path class="fil1" d="M1412.27 -5346.15l408.47 -73.87 467.05 -547.96 -53.82 -63.68c-55.06,-65.12 -191.42,-53.97 -275.97,45.23l-545.73 640.28z"/>
 <path class="fil1" d="M2012.31 -5454.67l408.47 -73.87 431.48 -506.24 -34.95 -44.74c-68.49,-87.67 -209.85,-72.56 -294.82,26.29l-510.18 598.56z"/>
</symbol>
 <g id="Ebene_x0020_1">
  <metadata id="CorelCorpID_0Corel-Layer"/>
  <use id="ISO_x0020_7010_x0020_M022_0" transform="scale(0.571429 0.571432)" x="-0" y="-0.01" width="7000" height="6999.98" xlink:href="#ISO_x0020_7010_x0020_M022"/>
 </g>
</svg>
