<?xml version="1.0" encoding="UTF-8"?>
<!DOCTYPE svg PUBLIC "-//W3C//DTD SVG 1.1//EN" "http://www.w3.org/Graphics/SVG/1.1/DTD/svg11.dtd">
<!-- Creator: Corel DESIGNER -->
<svg xmlns="http://www.w3.org/2000/svg" xml:space="preserve" width="40mm" height="40mm" version="1.1" style="shape-rendering:geometricPrecision; text-rendering:geometricPrecision; image-rendering:optimizeQuality; fill-rule:evenodd; clip-rule:evenodd"
viewBox="0 0 1000 1000"
 xmlns:xlink="http://www.w3.org/1999/xlink"
 xmlns:xodm="http://www.corel.com/coreldraw/odm/2003">
 <defs>
  <style type="text/css">
   <![CDATA[
    .fil0m {fill:#004873}
    .fil1 {fill:white}
   ]]>
  </style>
 </defs>
<symbol id="ISO_x0020_7010_x0020_M023" viewBox="1125 2212.5 1750 1750">
 <circle class="fil0m" cx="2000" cy="3087.5" r="875"/>
 <path class="fil1" d="M2075.3 2396.64c-15.62,-25.42 -48.77,-33.44 -74.05,-17.91 -25.28,15.53 -33.1,48.73 -17.48,74.15 15.62,25.42 48.77,33.44 74.05,17.91 25.27,-15.53 33.1,-48.73 17.48,-74.15zm-458.36 348.98l-173.26 395.54 58.02 219.12 11.13 17.44 -60.66 172.09 121.51 0 144.21 -399.88 564.82 0 144.21 399.88 121.31 0 -60.74 -172.09 10.61 -15.35 57.95 -221.21 -172.4 -395.54 -108.07 0c10.81,-7.74 15.49,-22.71 3.38,-37.5l-168.6 -205.88c-6.87,-8.39 -20.44,-8.96 -31.29,-8.96l-107.1 0c-10.37,0 -22.24,5.68 -27.44,14.64l-61.96 106.62 -112.46 49.07c-31.09,13.57 -14.07,64.02 24.36,47.95l106.24 -44.43c11.58,-4.85 21.99,-13.95 28.39,-24.75l37.44 -63.22 0 155.14 -4.19 11.34 -345.42 0zm624.97 0l-139.18 0 -12.23 -23.23 0 -153.38 144.46 170.24c2.19,2.58 4.53,4.69 6.96,6.37zm-291.29 31.84l-95.56 259.05 -218.89 0 -105.75 290.51 -49.48 -185.86 157.64 -363.7 312.05 0zm-31.27 259.05l98.5 -259.05 29.02 0 68.73 124.09c4.3,7.76 12.41,12.99 20.07,17.45l135.11 78.89c34.8,20.32 67.72,-31.98 32.07,-52.82l-137.41 -80.34 -45.95 -87.27 241.99 0 158.54 363.7 -50.47 186.64 -105.13 -291.3 -445.08 0z"/>
</symbol>
 <g id="Ebene_x0020_1">
  <metadata id="CorelCorpID_0Corel-Layer"/>
  <use id="ISO_x0020_7010_x0020_M023_0" transform="scale(0.571429 0.57143)" x="-0" width="1750" height="1750" xlink:href="#ISO_x0020_7010_x0020_M023"/>
 </g>
</svg>
