<?xml version="1.0" encoding="UTF-8"?>
<!DOCTYPE svg PUBLIC "-//W3C//DTD SVG 1.1//EN" "http://www.w3.org/Graphics/SVG/1.1/DTD/svg11.dtd">
<!-- Creator: Corel DESIGNER -->
<svg xmlns="http://www.w3.org/2000/svg" xml:space="preserve" width="40mm" height="40mm" version="1.1" style="shape-rendering:geometricPrecision; text-rendering:geometricPrecision; image-rendering:optimizeQuality; fill-rule:evenodd; clip-rule:evenodd"
viewBox="0 0 1000 1000"
 xmlns:xlink="http://www.w3.org/1999/xlink"
 xmlns:xodm="http://www.corel.com/coreldraw/odm/2003">
 <defs>
  <style type="text/css">
   <![CDATA[
    .fil0m {fill:#004873}
    .fil1 {fill:white}
   ]]>
  </style>
 </defs>
<symbol id="ISO_x0020_7010_x0020_M026" viewBox="1125 654.16 1750 1750">
 <circle class="fil0m" cx="2000" cy="1529.16" r="875"/>
 <path class="fil1" d="M1851.06 1204.16l-53.88 199.62 -147.56 0 0 42.48 147.56 0 0 440.73 29.8 0 -28.44 253.84c-12.32,109.95 126,122.03 138.26,23.48l34.51 -277.32 57.82 0 34.17 278.9c11.64,94.97 149.69,82.08 138.12,-17.83l-30.22 -261.07 31.57 0 0 -440.73 147.49 0 0 -42.48 -147.49 0 -54.68 -199.27 164.19 54.82 118.38 191.95c44.97,72.91 150.51,9.31 105.33,-64.65l-124.71 -204.15c-13.25,-21.7 -22.34,-28.82 -49.08,-37.99l-199.41 -68.41c-17.33,-5.94 -34.19,-12.28 -56.68,-12.2l-204.41 0.03c-26.69,-0.05 -42.79,4.68 -65.95,12.61l-208.52 71.4c-12.46,4.27 -19.9,9.27 -26.74,20.2l-136.46 218.16c-44.76,71.56 61.4,134.3 105.92,63.76l120.77 -191.37 160.34 -54.52zm253.44 -321.23c-22.63,-57.81 -87.77,-86.34 -145.5,-63.74 -57.73,22.6 -86.18,87.78 -63.56,145.58 22.63,57.8 87.77,86.34 145.5,63.74 57.73,-22.6 86.19,-87.78 63.56,-145.58zm-76.36 124.3c46.28,-15.53 71.24,-65.55 55.74,-111.72 -15.5,-46.17 -65.58,-71 -111.86,-55.46 -46.28,15.53 -71.24,65.55 -55.74,111.72 15.49,46.17 65.58,71 111.86,55.46zm119.71 171.89l179.71 61.77 120.77 195.28c32.97,53.32 95.4,5.76 67.26,-37.14 -42.68,-65.05 -81.67,-132.45 -122.5,-198.68 -16.71,-28.36 -16.73,-26.59 -49.46,-37.21l-195.65 -64.52 -0.12 80.51zm-296.08 -79.67l-212.7 69.25c-11.65,3.79 -20.23,11.4 -26.13,21.01l-128.85 209.54c-27.46,42.06 38.74,82.83 65.35,39.74l123.31 -199.72 178.16 -63.79 0.88 -76.03zm92.91 787.53l-91.9 0 -30.31 261.38c-7.73,66.71 82.74,81.5 90.59,13.37l31.62 -274.75zm201.39 0l-90.65 0 33.22 278.26c7.3,61.12 97.81,55.43 89.67,-11.8l-32.24 -266.47zm-241.01 -797.82l189.82 0 0 110.92 -189.82 0 0 -110.92z"/>
</symbol>
 <g id="Ebene_x0020_1">
  <metadata id="CorelCorpID_0Corel-Layer"/>
  <use id="ISO_x0020_7010_x0020_M026_0" transform="scale(0.571429 0.571429)" x="-0" y="-0" width="1750" height="1750" xlink:href="#ISO_x0020_7010_x0020_M026"/>
 </g>
</svg>
