<?xml version="1.0" encoding="UTF-8"?>
<!DOCTYPE svg PUBLIC "-//W3C//DTD SVG 1.1//EN" "http://www.w3.org/Graphics/SVG/1.1/DTD/svg11.dtd">
<!-- Creator: Corel DESIGNER -->
<svg xmlns="http://www.w3.org/2000/svg" xml:space="preserve" width="40mm" height="40mm" version="1.1" style="shape-rendering:geometricPrecision; text-rendering:geometricPrecision; image-rendering:optimizeQuality; fill-rule:evenodd; clip-rule:evenodd"
viewBox="0 0 1000 1000"
 xmlns:xlink="http://www.w3.org/1999/xlink"
 xmlns:xodm="http://www.corel.com/coreldraw/odm/2003">
 <defs>
  <style type="text/css">
   <![CDATA[
    .fil0m {fill:#004873}
    .fil1 {fill:white}
   ]]>
  </style>
 </defs>
<symbol id="ISO_x0020_7010_x0020_M029" viewBox="1125 -904.17 1750 1750">
 <circle class="fil0m" cx="2000" cy="-29.17" r="875"/>
 <path class="fil1" d="M1562.22 -84.63c-21.91,-52.56 -73.78,-89.51 -134.28,-89.51 -80.31,0 -145.42,65.11 -145.42,145.43 0,80.31 65.11,145.42 145.42,145.42 60.59,0 112.52,-37.06 134.37,-89.74l34.52 0 0 14.73 82.84 0 0 -14.73 156.01 0c176.37,0 457.46,15.84 487.38,206.01l26.23 1.11 0 -525.58 -24.85 0c-11.04,146.27 -311.85,206.87 -488.76,206.87l-156.01 0 0 -14.5 -82.84 0 0 14.5 -34.62 0zm856.67 282.28c-4.09,7.6 -13.56,10.45 -21.16,6.36 -7.6,-4.09 -10.45,-13.56 -6.36,-21.16 17.62,-32.54 31.06,-67.03 40.08,-102.64 9.02,-35.58 13.63,-72.32 13.63,-109.39 0,-37.07 -4.61,-73.81 -13.63,-109.39 -9.02,-35.6 -22.45,-70.09 -40.08,-102.64 -4.09,-7.6 -1.24,-17.07 6.36,-21.16 7.6,-4.09 17.07,-1.24 21.16,6.36 18.86,34.83 33.24,71.75 42.9,109.85 9.66,38.13 14.61,77.41 14.61,116.97 0,39.56 -4.94,78.84 -14.61,116.97 -9.66,38.11 -24.03,75.02 -42.9,109.85zm96.13 52.06c-4.76,8.86 -15.82,12.18 -24.68,7.42 -8.86,-4.76 -12.18,-15.82 -7.42,-24.68 21.75,-40.16 38.33,-82.72 49.46,-126.65 11.13,-43.9 16.82,-89.23 16.82,-134.97 0,-45.74 -5.69,-91.08 -16.82,-134.97 -11.13,-43.93 -27.7,-86.48 -49.46,-126.65 -4.76,-8.87 -1.44,-19.92 7.42,-24.68 8.86,-4.76 19.92,-1.44 24.68,7.42 23.19,42.82 40.87,88.21 52.74,135.07 11.88,46.88 17.96,95.18 17.96,143.82 0,48.63 -6.08,96.94 -17.96,143.82 -11.87,46.86 -29.55,92.24 -52.74,135.06zm103.05 55.8c-5.45,10.13 -18.08,13.93 -28.21,8.48 -10.13,-5.45 -13.93,-18.08 -8.48,-28.21 26.19,-48.35 46.14,-99.58 59.54,-152.46 13.39,-52.86 20.24,-107.43 20.24,-162.49 0,-55.06 -6.85,-109.64 -20.24,-162.49 -13.4,-52.89 -33.36,-104.12 -59.54,-152.47 -5.45,-10.13 -1.65,-22.76 8.48,-28.21 10.13,-5.45 22.76,-1.65 28.21,8.48 27.83,51.39 49.04,105.86 63.29,162.09 14.26,56.26 21.55,114.23 21.55,172.6 0,58.37 -7.3,116.34 -21.55,172.6 -14.25,56.23 -35.46,110.69 -63.29,162.08z"/>
</symbol>
 <g id="Ebene_x0020_1">
  <metadata id="CorelCorpID_0Corel-Layer"/>
  <use id="ISO_x0020_7010_x0020_M029_0" transform="scale(0.571429 0.571429)" x="-0" y="-0" width="1750" height="1750" xlink:href="#ISO_x0020_7010_x0020_M029"/>
 </g>
</svg>
