<?xml version="1.0" encoding="UTF-8"?>
<!DOCTYPE svg PUBLIC "-//W3C//DTD SVG 1.1//EN" "http://www.w3.org/Graphics/SVG/1.1/DTD/svg11.dtd">
<!-- Creator: Corel DESIGNER -->
<svg xmlns="http://www.w3.org/2000/svg" xml:space="preserve" width="40mm" height="40mm" version="1.1" style="shape-rendering:geometricPrecision; text-rendering:geometricPrecision; image-rendering:optimizeQuality; fill-rule:evenodd; clip-rule:evenodd"
viewBox="0 0 2000 2000"
 xmlns:xlink="http://www.w3.org/1999/xlink"
 xmlns:xodm="http://www.corel.com/coreldraw/odm/2003">
 <defs>
  <style type="text/css">
   <![CDATA[
    .fil0m {fill:#004873}
    .fil1 {fill:white}
   ]]>
  </style>
 </defs>
<symbol id="ISO_x0020_7010_x0020_M031" viewBox="-3750 -1808.34 3500 3500">
 <circle class="fil0m" cx="-2000" cy="-58.34" r="1750"/>
 <path class="fil1" d="M-1474.28 -916.6c-198.35,-261.3 -507.52,-414.78 -835.59,-414.78 -579.37,0 -1049.04,469.67 -1049.04,1049.04 0,223.03 71.08,440.25 202.92,620.14l1681.7 -1254.4z"/>
 <path class="fil1" d="M-2438.12 -133.04l-122.47 91.34c-0.52,1.54 -1.09,3.09 -1.71,4.63 -6.02,14.98 -27.4,37.18 -39.09,28.6 -0.61,-0.45 -1.22,-0.93 -1.83,-1.43l-123.15 91.86c-4.07,15.98 -18.33,38.05 -30.62,32.85 -2.51,-1.06 -5.09,-2.49 -7.72,-4.25l-104.55 77.99c5.63,12.17 10.21,24.84 11.4,39.01 1.34,16.08 -7.8,45.51 -22.1,43.1 -14.68,-2.49 -33.8,-15.07 -54.48,-33.48l-82.44 61.5c0.11,0.5 0.22,0.98 0.33,1.47 10.13,42.01 51,62.41 64.43,103.48 5.01,15.35 2.91,46.09 -11.56,47.04 -28.62,1.87 -81.89,-28.93 -132.86,-67.42 -3.88,33.99 -8.53,97.51 6.74,127.6 17.33,34.16 54.24,46.23 78.1,74.21l1801.84 0c-30.56,-20.39 -69.97,-18.64 -100.15,-42.7 -12.62,-10.07 -27.75,-36.91 -16.18,-45.65 22.89,-17.29 84.31,-20.83 148.04,-16.68 -15.44,-30.53 -46.45,-86.15 -75.75,-102.91 -37.51,-21.46 -80.4,-5.72 -119.49,-24.14 -14.61,-6.88 -35.52,-29.51 -26.28,-40.69 18.29,-22.11 77.24,-39.71 140.21,-50.38 -22.07,-26.14 -65.07,-73.11 -97.44,-82.66 -41.45,-12.23 -79.56,12.97 -121.84,4.06 -15.79,-3.33 -41.37,-20.53 -34.95,-33.53 12.7,-25.73 65.99,-56.46 124.81,-81.36 -27.5,-20.35 -80.17,-56.13 -113.88,-57.96 -43.15,-2.34 -74.42,30.97 -117.62,32.05 -16.13,0.4 -44.99,-10.44 -41.74,-24.56 6.42,-27.97 51.19,-70.15 102.69,-107.95 -31.46,-13.45 -90.96,-36.12 -124.18,-30.13 -42.53,7.67 -65.26,47.3 -107.06,58.31 -15.6,4.11 -46.17,0.22 -46.28,-14.28 -0.2,-28.69 33.64,-80.06 75.02,-128.72 -33.7,-5.84 -96.84,-14.18 -127.77,-0.69 -39.62,17.28 -52.61,61.07 -90.72,81.43 -14.24,7.6 -44.88,10.86 -48.33,-3.22 -6.82,-27.87 14.27,-85.67 43.32,-142.54 -34.15,2.08 -97.51,8.53 -124.49,28.79 -34.57,25.95 -37.11,71.56 -69.51,100.16 -12.1,10.69 -41.16,20.93 -47.76,8.02 -13.06,-25.55 -5.88,-86.65 9.28,-148.7 -10.69,3.24 -24.32,7.64 -38.57,13.01l-89.6 66.84c-12.03,29.2 -11.35,62.74 -30.85,90.36 -9.31,13.19 -35.23,29.85 -44.63,18.81 -7.14,-8.4 -12.6,-22.59 -16.57,-40.51z"/>
 <path class="fil1" d="M-731.61 632.76l-2536.79 0c17.5,32.05 36.18,63.37 55.98,93.88l2424.83 0c19.8,-30.52 38.48,-61.84 55.98,-93.88z"/>
 <path class="fil1" d="M-1135.72 192.95l0 392.1 429.01 0c60.76,-121.9 104.8,-253.6 129.1,-392.1l-558.11 0z"/>
 <path class="fil1" d="M-1323.55 -357.84c-5.07,-73.73 -18.32,-146.38 -39.35,-216.63 -27.6,-92.22 -68.44,-180.25 -121.61,-261.11l65.12 -42.81c57.65,87.67 101.77,182.6 131.4,281.6 22.63,75.6 36.92,153.64 42.46,232.71l96.02 -164.02 67.27 39.44 -201.15 343.56 -210.64 -339.74 66.35 -40.98 104.14 167.97z"/>
</symbol>
 <g id="Ebene_x0020_1">
  <metadata id="CorelCorpID_0Corel-Layer"/>
  <use id="ISO_x0020_7010_x0020_M031_0" transform="scale(0.571429 0.571429)" x="-0" y="-0" width="3500" height="3500" xlink:href="#ISO_x0020_7010_x0020_M031"/>
 </g>
</svg>
