<?xml version="1.0" encoding="UTF-8"?>
<!DOCTYPE svg PUBLIC "-//W3C//DTD SVG 1.1//EN" "http://www.w3.org/Graphics/SVG/1.1/DTD/svg11.dtd">
<!-- Creator: Corel DESIGNER -->
<svg xmlns="http://www.w3.org/2000/svg" xml:space="preserve" width="40mm" height="40mm" version="1.1" style="shape-rendering:geometricPrecision; text-rendering:geometricPrecision; image-rendering:optimizeQuality; fill-rule:evenodd; clip-rule:evenodd"
viewBox="0 0 4000 4000"
 xmlns:xlink="http://www.w3.org/1999/xlink"
 xmlns:xodm="http://www.corel.com/coreldraw/odm/2003">
 <defs>
  <style type="text/css">
   <![CDATA[
    .fil0m {fill:#004873}
    .fil1 {fill:white}
   ]]>
  </style>
 </defs>
<symbol id="ISO_x0020_7010_x0020_M038" viewBox="-1500 2616.66 7000 7000">
 <circle class="fil0m" cx="2000" cy="6116.66" r="3500"/>
 <path class="fil1" d="M2915.55 5067.72c16.29,16.3 16.29,42.74 0,59.03 -16.3,16.3 -42.74,16.3 -59.03,0l-105.86 -105.85c-16.29,-16.3 -16.29,-42.74 0,-59.03 16.29,-16.29 42.74,-16.29 59.03,0l105.86 105.85z"/>
 <path class="fil1" d="M1831.7 3796.34c16.29,16.3 16.29,42.74 0,59.03 -16.29,16.3 -42.74,16.3 -59.03,0l-105.86 -105.85c-16.29,-16.3 -16.29,-42.74 0,-59.03 16.29,-16.29 42.74,-16.29 59.03,0l105.86 105.85z"/>
 <path class="fil1" d="M1608.5 3796.34c16.3,16.3 16.3,42.74 0,59.03 -16.29,16.3 -42.73,16.3 -59.02,0l-105.86 -105.85c-16.29,-16.3 -16.29,-42.74 0,-59.03 16.29,-16.29 42.73,-16.29 59.03,0l105.85 105.85z"/>
 <path class="fil1" d="M1373.79 3796.34c16.29,16.3 16.29,42.74 0,59.03 -16.3,16.3 -42.74,16.3 -59.03,0l-105.86 -105.85c-16.29,-16.3 -16.29,-42.74 0,-59.03 16.29,-16.29 42.74,-16.29 59.03,0l105.86 105.85z"/>
 <path class="fil1" d="M2048.02 3796.34c16.29,16.3 16.29,42.74 0,59.03 -16.29,16.3 -42.74,16.3 -59.03,0l-105.86 -105.85c-16.29,-16.3 -16.29,-42.74 0,-59.03 16.29,-16.29 42.74,-16.29 59.03,0l105.86 105.85z"/>
 <path class="fil1" d="M2257.42 3796.34c16.29,16.3 16.29,42.74 0,59.03 -16.29,16.3 -42.74,16.3 -59.03,0l-105.86 -105.85c-16.29,-16.3 -16.29,-42.74 0,-59.03 16.29,-16.29 42.74,-16.29 59.03,0l105.86 105.85z"/>
 <path class="fil1" d="M2480.63 3796.34c16.3,16.3 16.3,42.74 0,59.03 -16.29,16.3 -42.73,16.3 -59.02,0l-105.86 -105.85c-16.29,-16.3 -16.29,-42.74 0,-59.03 16.29,-16.29 42.73,-16.29 59.03,0l105.85 105.85z"/>
 <path class="fil1" d="M2701.53 3796.34c16.3,16.3 16.3,42.74 0,59.03 -16.29,16.3 -42.73,16.3 -59.02,0l-105.86 -105.85c-16.29,-16.3 -16.29,-42.74 0,-59.03 16.29,-16.29 42.73,-16.29 59.03,0l105.85 105.85z"/>
 <path class="fil1" d="M2915.55 3796.34c16.29,16.3 16.29,42.74 0,59.03 -16.3,16.3 -42.74,16.3 -59.03,0l-105.86 -105.85c-16.29,-16.3 -16.29,-42.74 0,-59.03 16.29,-16.29 42.74,-16.29 59.03,0l105.86 105.85z"/>
 <path class="fil1" d="M2915.55 4008.24c16.29,16.29 16.29,42.74 0,59.03 -16.3,16.29 -42.74,16.29 -59.03,0l-105.86 -105.86c-16.29,-16.29 -16.29,-42.74 0,-59.03 16.29,-16.29 42.74,-16.29 59.03,0l105.86 105.86z"/>
 <path class="fil1" d="M2915.55 4855.83c16.29,16.29 16.29,42.74 0,59.03 -16.3,16.29 -42.74,16.29 -59.03,0l-105.86 -105.86c-16.29,-16.29 -16.29,-42.74 0,-59.03 16.29,-16.29 42.74,-16.29 59.03,0l105.86 105.86z"/>
 <path class="fil1" d="M2915.55 4643.93c16.29,16.29 16.29,42.74 0,59.03 -16.3,16.29 -42.74,16.29 -59.03,0l-105.86 -105.86c-16.29,-16.29 -16.29,-42.74 0,-59.03 16.29,-16.29 42.74,-16.29 59.03,0l105.86 105.86z"/>
 <path class="fil1" d="M2915.55 4432.03c16.29,16.3 16.29,42.74 0,59.03 -16.3,16.3 -42.74,16.3 -59.03,0l-105.86 -105.85c-16.29,-16.3 -16.29,-42.74 0,-59.03 16.29,-16.29 42.74,-16.29 59.03,0l105.86 105.85z"/>
 <path class="fil1" d="M2915.55 4220.14c16.29,16.29 16.29,42.74 0,59.03 -16.3,16.29 -42.74,16.29 -59.03,0l-105.86 -105.86c-16.29,-16.29 -16.29,-42.74 0,-59.03 16.29,-16.29 42.74,-16.29 59.03,0l105.86 105.86z"/>
 <path class="fil1" d="M1261.04 3920.59c16.29,16.29 16.29,42.74 0,59.03 -16.29,16.29 -42.74,16.29 -59.03,0l-105.86 -105.86c-16.29,-16.29 -16.29,-42.73 0,-59.03 16.29,-16.29 42.74,-16.29 59.03,0l105.86 105.86z"/>
 <path class="fil1" d="M1261.04 4745.31c16.29,16.29 16.29,42.74 0,59.03 -16.29,16.29 -42.74,16.29 -59.03,0l-105.86 -105.86c-16.29,-16.29 -16.29,-42.74 0,-59.03 16.29,-16.29 42.74,-16.29 59.03,0l105.86 105.86z"/>
 <path class="fil1" d="M1261.04 4539.13c16.29,16.3 16.29,42.74 0,59.03 -16.29,16.29 -42.74,16.29 -59.03,0l-105.86 -105.85c-16.29,-16.3 -16.29,-42.74 0,-59.03 16.29,-16.29 42.74,-16.29 59.03,0l105.86 105.85z"/>
 <path class="fil1" d="M1261.04 4332.95c16.29,16.29 16.29,42.74 0,59.03 -16.29,16.29 -42.74,16.29 -59.03,0l-105.86 -105.86c-16.29,-16.29 -16.29,-42.74 0,-59.03 16.29,-16.29 42.74,-16.29 59.03,0l105.86 105.86z"/>
 <path class="fil1" d="M1261.04 4126.78c16.29,16.29 16.29,42.73 0,59.03 -16.29,16.29 -42.74,16.29 -59.03,0l-105.86 -105.86c-16.29,-16.29 -16.29,-42.74 0,-59.03 16.29,-16.29 42.74,-16.29 59.03,0l105.86 105.86z"/>
 <path class="fil1" d="M1261.04 4951.49c16.29,16.29 16.29,42.74 0,59.03 -16.29,16.29 -42.74,16.29 -59.03,0l-105.86 -105.86c-16.29,-16.29 -16.29,-42.73 0,-59.03 16.29,-16.29 42.74,-16.29 59.03,0l105.86 105.86z"/>
 <path class="fil1" d="M2000 8721.19c1452.85,0 2630.63,-1177.77 2630.61,-2630.61l-524.64 -0.01c0,1163.09 -942.88,2105.97 -2105.98,2105.97l0 -249.42 -258.49 233.71 -24.51 22.16 -283 255.86 272.23 246.13 10.77 9.73 283 255.88 0.01 -249.4z"/>
 <path class="fil1" d="M3085.4 5279.11c0,23.05 -18.69,41.74 -41.75,41.74 -23.05,0 -41.74,-18.69 -41.74,-41.74l0 -149.71c0,-23.05 18.69,-41.74 41.74,-41.74 23.06,0 41.75,18.69 41.75,41.74l0 149.71z"/>
 <path class="fil1" d="M3231.33 5524.54c-4.76,22.51 -26.89,36.9 -49.4,32.13 -22.51,-4.77 -36.89,-26.9 -32.13,-49.41l31.38 -146.37c4.77,-22.51 26.89,-36.9 49.4,-32.13 22.52,4.77 36.9,26.9 32.13,49.41l-31.38 146.37z"/>
 <path class="fil1" d="M3322.58 5795.19c-9.36,20.98 -33.98,30.41 -54.96,21.04 -20.97,-9.36 -30.4,-33.98 -21.04,-54.96l61.36 -136.54c9.36,-20.97 33.98,-30.4 54.96,-21.04 20.98,9.36 30.4,33.98 21.04,54.96l-61.36 136.54z"/>
 <path class="fil1" d="M3355.11 6079.07c-13.59,18.54 -39.67,22.56 -58.21,8.97 -18.55,-13.59 -22.57,-39.67 -8.98,-58.21l88.62 -120.65c13.59,-18.54 39.67,-22.56 58.21,-8.97 18.55,13.58 22.57,39.67 8.98,58.21l-88.62 120.65z"/>
 <path class="fil1" d="M3327.29 6363.41c-17.2,15.22 -43.49,13.62 -58.71,-3.58 -15.21,-17.2 -13.62,-43.49 3.58,-58.7l111.95 -99.4c17.19,-15.22 43.48,-13.62 58.7,3.58 15.22,17.2 13.62,43.49 -3.58,58.7l-111.94 99.4z"/>
 <path class="fil1" d="M3240.74 6635.55c-19.99,11.35 -45.41,4.34 -56.76,-15.65 -11.34,-19.99 -4.33,-45.41 15.66,-56.75l130.29 -73.73c19.98,-11.34 45.41,-4.33 56.75,15.66 11.35,19.98 4.33,45.41 -15.65,56.75l-130.29 73.72z"/>
 <path class="fil1" d="M3098.83 6883.61c-21.97,6.85 -45.34,-5.43 -52.19,-27.4 -6.85,-21.96 5.43,-45.34 27.4,-52.19l142.84 -44.77c21.97,-6.85 45.35,5.43 52.19,27.39 6.85,21.97 -5.42,45.35 -27.39,52.2l-142.85 44.77z"/>
 <path class="fil1" d="M2908.15 7096.24c-22.88,2.07 -43.11,-14.79 -45.17,-37.67 -2.07,-22.88 14.8,-43.1 37.67,-45.17l149.06 -13.84c22.87,-2.07 43.1,14.8 45.17,37.68 2.06,22.87 -14.8,43.1 -37.68,45.17l-149.05 13.83z"/>
 <path class="fil1" d="M2677.29 7264.4c-22.88,-2.7 -39.23,-23.44 -36.53,-46.32 2.71,-22.88 23.44,-39.23 46.32,-36.53l148.64 17.71c22.87,2.71 39.23,23.44 36.52,46.32 -2.7,22.88 -23.44,39.23 -46.31,36.53l-148.64 -17.71z"/>
 <path class="fil1" d="M2416.28 7380.28c-21.79,-7.38 -33.47,-31.04 -26.09,-52.83 7.38,-21.8 31.04,-33.47 52.83,-26.1l141.62 48.48c21.8,7.38 33.47,31.04 26.1,52.83 -7.38,21.79 -31.04,33.47 -52.83,26.09l-141.63 -48.47z"/>
 <path class="fil1" d="M2136.67 7438.81c-19.72,-11.79 -26.15,-37.36 -14.35,-57.07 11.79,-19.72 37.36,-26.15 57.07,-14.35l128.32 77.08c19.72,11.79 26.14,37.36 14.35,57.08 -11.79,19.71 -37.36,26.14 -57.08,14.35l-128.31 -77.09z"/>
 <path class="fil1" d="M1851.01 7437.39c-16.74,-15.66 -17.62,-41.96 -1.95,-58.7 15.66,-16.74 41.96,-17.62 58.7,-1.95l109.31 102.26c16.74,15.67 17.62,41.97 1.96,58.71 -15.67,16.74 -41.97,17.62 -58.71,1.95l-109.31 -102.27z"/>
 <path class="fil1" d="M1571.86 7376.34c-13.14,-18.91 -8.47,-44.91 10.44,-58.05 18.91,-13.14 44.91,-8.47 58.05,10.44l85.44 122.91c13.14,18.91 8.47,44.91 -10.44,58.05 -18.91,13.14 -44.9,8.47 -58.04,-10.44l-85.45 -122.91z"/>
 <path class="fil1" d="M1311.84 7257.91c-8.82,-21.25 1.26,-45.65 22.51,-54.47 21.25,-8.82 45.65,1.26 54.47,22.51l57.77 138.1c8.82,21.25 -1.26,45.65 -22.51,54.46 -21.25,8.82 -45.65,-1.26 -54.47,-22.51l-57.77 -138.09z"/>
 <path class="fil1" d="M1082.48 7087.82c-4.23,-22.6 10.67,-44.36 33.27,-48.59 22.61,-4.23 44.37,10.67 48.6,33.27l27.54 147.15c4.22,22.6 -10.67,44.36 -33.27,48.59 -22.61,4.23 -44.37,-10.67 -48.6,-33.27l-27.54 -147.15z"/>
 <path class="fil1" d="M893.87 6873.45c0.53,-22.97 19.6,-41.14 42.56,-40.6 22.96,0.53 41.13,19.6 40.6,42.56l-3.91 149.65c-0.54,22.96 -19.6,41.13 -42.56,40.6 -22.96,-0.54 -41.13,-19.6 -40.6,-42.57l3.91 -149.64z"/>
 <path class="fil1" d="M754.35 6624.07c5.4,-22.33 27.89,-36.05 50.23,-30.65 22.33,5.41 36.06,27.9 30.65,50.23l-35.19 145.51c-5.41,22.33 -27.9,36.06 -50.23,30.65 -22.34,-5.4 -36.06,-27.9 -30.66,-50.23l35.2 -145.51z"/>
 <path class="fil1" d="M670.16 6351.22c9.91,-20.7 34.75,-29.47 55.45,-19.57 20.71,9.91 29.48,34.75 19.57,55.45l-64.9 134.89c-9.91,20.71 -34.75,29.48 -55.45,19.57 -20.71,-9.9 -29.47,-34.74 -19.57,-55.45l64.9 -134.89z"/>
 <path class="fil1" d="M645.04 6066.64c14.05,-18.19 40.2,-21.54 58.39,-7.5 18.19,14.05 21.54,40.2 7.49,58.39l-91.74 118.28c-14.05,18.19 -40.19,21.55 -58.38,7.5 -18.19,-14.05 -21.54,-40.19 -7.49,-58.38l91.73 -118.29z"/>
 <path class="fil1" d="M680.29 5783.13c17.55,-14.77 43.78,-12.5 58.55,5.05 14.77,17.55 12.5,43.78 -5.05,58.55l-114.5 96.43c-17.56,14.77 -43.78,12.51 -58.55,-5.05 -14.77,-17.55 -12.51,-43.78 5.05,-58.55l114.5 -96.43z"/>
 <path class="fil1" d="M773.98 5513.18c20.35,-10.8 45.62,-3.07 56.42,17.28 10.8,20.35 3.07,45.62 -17.29,56.42l-132.17 70.29c-20.36,10.8 -45.62,3.07 -56.42,-17.28 -10.81,-20.35 -3.07,-45.62 17.28,-56.42l132.18 -70.29z"/>
 <path class="fil1" d="M922.24 5269.02c22.15,-6.3 45.23,6.56 51.53,28.71 6.31,22.14 -6.55,45.23 -28.7,51.53l-143.97 41.03c-22.14,6.3 -45.23,-6.56 -51.53,-28.7 -6.31,-22.15 6.55,-45.24 28.7,-51.54l143.97 -41.03z"/>
 <path class="fil1" d="M1118.54 5061.4c22.96,-1.44 42.75,16.01 44.19,38.97 1.44,22.96 -16.01,42.75 -38.97,44.19l-149.38 9.93c-22.96,1.44 -42.75,-16.01 -44.19,-38.97 -1.44,-22.96 16.01,-42.74 38.97,-44.18l149.38 -9.94z"/>
 <path class="fil1" d="M1367.28 3946.55l1277.13 0 0 1147.34c326.39,211.45 542.35,578.81 542.35,996.68 0,655.47 -531.3,1186.77 -1186.77,1186.77 -655.47,0 -1186.77,-531.3 -1186.77,-1186.77 0,-422.85 221.14,-793.96 554.06,-1004.16l0 -1139.86zm1141.39 339.51l-1005.64 0 0 676.54 208.48 0 -509.69 875.03c-13.57,23.29 -21.35,50.41 -21.35,79.33 0,71.7 47.82,132.25 113.3,151.46l655.66 192.46c16.03,4.75 33.01,7.31 50.57,7.31 98.09,0 177.62,-79.53 177.62,-177.62 0,-84.26 -58.69,-154.82 -137.38,-173.04l-605.86 -140.36 474.48 -814.57 599.81 0 0 -676.54zm-508.67 1691.69c62.31,0 112.82,50.51 112.82,112.82 0,62.3 -50.51,112.82 -112.82,112.82 -62.31,0 -112.82,-50.52 -112.82,-112.82 0,-62.31 50.51,-112.82 112.82,-112.82z"/>
</symbol>
 <g id="Ebene_x0020_1">
  <metadata id="CorelCorpID_0Corel-Layer"/>
  <use id="ISO_x0020_7010_x0020_M038_0" transform="scale(0.571429 0.571429)" x="-0" y="-0" width="7000" height="7000" xlink:href="#ISO_x0020_7010_x0020_M038"/>
 </g>
</svg>
