<?xml version="1.0" encoding="UTF-8"?>
<!DOCTYPE svg PUBLIC "-//W3C//DTD SVG 1.1//EN" "http://www.w3.org/Graphics/SVG/1.1/DTD/svg11.dtd">
<!-- Creator: Corel DESIGNER -->
<svg xmlns="http://www.w3.org/2000/svg" xml:space="preserve" width="40mm" height="40mm" version="1.1" style="shape-rendering:geometricPrecision; text-rendering:geometricPrecision; image-rendering:optimizeQuality; fill-rule:evenodd; clip-rule:evenodd"
viewBox="0 0 4000 4000"
 xmlns:xlink="http://www.w3.org/1999/xlink"
 xmlns:xodm="http://www.corel.com/coreldraw/odm/2003">
 <defs>
  <style type="text/css">
   <![CDATA[
    .fil0m {fill:#004873}
    .fil1 {fill:white}
   ]]>
  </style>
 </defs>
<symbol id="ISO_x0020_7010_x0020_M041" viewBox="-1500 -3616.67 7000 7000">
 <circle class="fil0m" cx="2000" cy="-116.67" r="3500"/>
 <polygon class="fil1" points="2661.65,-9.37 2791.47,-9.37 2791.47,1181.13 2974.17,855.36 3089.2,915.52 2726.56,1565.22 2362.5,911.55 2477.54,851.39 2661.65,1181.14 "/>
 <path class="fil1" d="M1059.51 -1655.06c0,-103.82 -84.17,-187.99 -187.98,-187.99 -103.82,0 -187.99,84.17 -187.99,187.99 0,103.82 84.17,187.98 187.99,187.98 103.81,0 187.98,-84.16 187.98,-187.98zm265.36 1456.5l-39.43 -262.12 275.44 199.88 -12.3 62.24 -223.71 0zm-564.77 0l104.04 -144.2 21.69 144.2 -125.73 0zm3114.93 -2080.61l85.57 77.33 0 1230.85 -0.07 0.24c-3.31,323.14 -240.75,772.19 -957.1,772.19l-1286.07 0 15.21 -76.29c6.04,-24.88 4.84,-55.04 -17.48,-78.61l-282.58 -205.07 194.96 -445.24 334.18 -56.75c152.41,-25.87 289.75,-171.22 402.48,-408.25 20.35,-42.81 67.94,-64.05 113.4,-50.64l508.68 150.12c278.87,82.3 340.87,391.02 432.26,394.84l456.56 0 0 -1304.72zm-3925.26 165.39l85.57 -84.24 0 1334.19 279.18 0 370.68 486.1 -106.06 147.06c-7.35,10.18 -10.69,21.37 -12.2,32.11 -90.86,-1.44 -237.64,-26.6 -357.65,-91.34 -140.55,-75.83 -259.53,-199.86 -259.53,-311.23l0.02 -205.79 -0.01 0 0 -1306.86zm1188.79 1267.66c0,-103.82 -84.16,-187.98 -187.98,-187.98 -103.83,0 -187.99,84.16 -187.99,187.98 0,103.81 84.16,187.99 187.99,187.99 103.82,0 187.98,-84.18 187.98,-187.99zm425.07 -150.47c10.6,-24.19 -1.17,-70.15 -19.8,-87.66l-311.72 -292.9c-30.61,-28.77 -67.31,-42.52 -109.29,-40.96l-405.94 15.11c-58.27,2.16 -106.96,34.67 -131.66,87.48l-192.69 412.08c-8.17,17.48 -6.01,42.29 5.69,57.62l320.07 419.73c71.96,94.35 208.49,6.72 137.96,-92.14l-246.18 -323.07c-2.37,-3.11 -2.78,-9.84 -0.47,-15.08l103.84 -235.41 9.55 227.96 -60.32 0 215.95 283.18 284.63 -42.82 142.6 -325.7 -159.26 27.05 -10.63 -253.48 219.25 209.67c7.69,7.34 10.65,24.28 5.98,34.02l-144.41 324.82c-51.77,116.46 98.91,176.72 146.53,67.96l200.32 -457.46zm867.35 2.28l661.39 0c-35.72,-126.83 -179.13,-271.42 -332.02,-271.42l-238.45 0 -90.92 271.42z"/>
 <path class="fil1" d="M1440.33 1617.06c-253.64,-68.22 -507.3,-136.45 -772.01,-136.45 -253.21,0 -507.34,72.27 -754.23,142.46 -51.54,14.66 -102.75,29.22 -153.4,42.94 38.28,48.02 78.06,94.77 119.29,140.19 26.51,-7.44 53.11,-15 79.79,-22.59 235.6,-66.99 478.13,-135.95 708.55,-135.95 243.44,0 486.19,65.3 728.93,130.58 253.62,68.22 507.3,136.45 771.99,136.45 275.28,0 541.57,-68.23 807.86,-136.45 254.82,-65.28 509.66,-130.58 766.73,-130.58 137.56,0 297.25,27.75 457.34,65.18 38.99,-46.87 76.53,-95 112.52,-144.32 -194.48,-48.67 -395.29,-87.91 -569.86,-87.91 -275.28,0 -541.57,68.23 -807.84,136.45 -254.84,65.28 -509.7,130.58 -766.75,130.58 -243.44,0 -486.2,-65.3 -728.91,-130.58z"/>
 <path class="fil1" d="M1440.33 1976.91c-253.64,-68.22 -507.3,-136.45 -772.01,-136.45 -216.34,0 -433.35,52.75 -645.94,111.89 48.02,45.93 97.66,90.2 148.79,132.72 167.29,-43.5 335.21,-77.56 497.15,-77.56 243.44,0 486.19,65.29 728.93,130.58 253.62,68.22 507.3,136.45 771.99,136.45 275.28,0 541.57,-68.23 807.86,-136.45 254.82,-65.29 509.66,-130.58 766.73,-130.58 51.47,0 106.03,3.88 162.55,10.7 52.28,-46.72 102.85,-95.33 151.57,-145.74 -109.14,-19.57 -215.8,-32.01 -314.12,-32.01 -275.28,0 -541.57,68.23 -807.84,136.45 -254.84,65.28 -509.7,130.58 -766.75,130.58 -243.44,0 -486.2,-65.3 -728.91,-130.58z"/>
</symbol>
 <g id="Ebene_x0020_1">
  <metadata id="CorelCorpID_0Corel-Layer"/>
  <use id="ISO_x0020_7010_x0020_M041_0" transform="scale(0.571429 0.571429)" x="-0" y="-0" width="7000" height="7000" xlink:href="#ISO_x0020_7010_x0020_M041"/>
 </g>
</svg>
