<?xml version="1.0" encoding="UTF-8"?>
<!DOCTYPE svg PUBLIC "-//W3C//DTD SVG 1.1//EN" "http://www.w3.org/Graphics/SVG/1.1/DTD/svg11.dtd">
<!-- Creator: Corel DESIGNER -->
<svg xmlns="http://www.w3.org/2000/svg" xml:space="preserve" width="40mm" height="40mm" version="1.1" style="shape-rendering:geometricPrecision; text-rendering:geometricPrecision; image-rendering:optimizeQuality; fill-rule:evenodd; clip-rule:evenodd"
viewBox="0 0 2000 2000"
 xmlns:xlink="http://www.w3.org/1999/xlink"
 xmlns:xodm="http://www.corel.com/coreldraw/odm/2003">
 <defs>
  <style type="text/css">
   <![CDATA[
    .fil0m {fill:#004873}
    .fil1 {fill:white}
   ]]>
  </style>
 </defs>
<symbol id="ISO_x0020_7010_x0020_M047" viewBox="-3750 4425 3500 3500">
 <circle class="fil0m" cx="-2000" cy="6175" r="1750"/>
 <path class="fil1" d="M-1762.09 7596.77l0 -1221.58c0,-52.48 -21.49,-100.23 -56.12,-134.85 -14.12,-14.12 -30.43,-26.06 -48.35,-35.24l-86.49 0c-101.31,0 -185.36,108.38 -190.99,197.94l0 1206.26c-21.02,-2.09 -41.88,-4.69 -62.62,-7.66l0 -847.01c-63.77,127.13 -167.76,239.77 -322.85,241.62l-27.53 508.57c-20.61,-8.65 -40.96,-17.78 -61.07,-27.34l26.32 -486.2c-206.7,-33.95 -332.41,-200.69 -330,-420.42 1.7,-156.34 49.44,-324.7 117.34,-468.99l-71.2 -41.74c-62.91,-36.86 -6.95,-132.32 55.95,-95.46l6.57 3.86 9.49 -16.2 -87.37 -52.84c-29.07,-17.58 -21.96,-71.59 -9.75,-103.3l303.12 -787.16 1.07 0.41 0.04 -0.41 64.32 11.85c93.03,-154.86 278.61,-268.01 454.51,-270.18 208.61,-2.59 325.28,47.02 455.39,186.63 115.74,124.19 164.16,292.97 140.62,465.87 -22.16,162.78 -181.89,278.87 -181.89,535.69l0 161.85 302.84 0 0 25.26 79.39 0 0 -35.21 -43.49 0 0 -53.84 212.62 0 0 53.84 -43.49 0 0 113.37c126.47,28.8 221.6,142.51 221.6,277.36l0 663.85c-154.6,169.69 -349.16,302.39 -568.84,383.06l0 -1046.91c0,-7.19 0.29,-14.32 0.82,-21.37 -16.22,-58.51 -44.58,-113.24 -78.38,-158.66 -31.45,-42.26 -66.98,-75.96 -100.95,-96.39l-83.88 0c40.88,45.06 65.88,104.79 65.88,170.1l0 1209.77c-20.72,4.39 -41.59,8.32 -62.62,11.82zm401.35 -1416.94l0 25.26 -221.22 0c42.82,41.76 80.17,94.52 107.66,152.38 37.38,-76.49 108.11,-134.02 192.95,-153.32l0 -24.31 -79.39 0zm-1353.49 -25.11c-86.2,188.04 -162.91,476.58 -37.32,633.86 41.16,51.53 99.3,84.68 165.44,97.9l20.59 -380.36c9.37,-173.1 209.74,-284.68 209.74,-351.85l0 -112.29c-33.03,36.1 -65.7,74.59 -97.35,114.21l-121.8 -70.85 -9.93 16.95 6.59 3.86c62.9,36.87 6.95,132.32 -55.95,95.46l-80.01 -46.9zm421.07 -177.74l0 177.3c0,108.26 -201.78,203.73 -209.97,355.04l-20.71 382.41c139.6,-7.18 219.19,-152.79 259.35,-267.18 39.78,-113.32 -42.46,-296.31 128.87,-449.7 49.78,-44.56 112.89,-74.11 182.59,-74.11l226.85 0c0,-137.85 -2.46,-217.6 13.42,-295.48l-316.21 0c-77.75,13.47 -170.73,80.02 -264.17,171.72zm609.76 -268.37c16.53,-41.6 39.37,-88.1 70.95,-146.01 32.23,-59.11 61.36,-112.52 68.87,-167.72 4.24,-31.14 5.89,-62.12 4.96,-92.68l-318.6 -59.98 -187.71 466.39 361.52 0zm132.03 -506.99c-18.78,-82.4 -57.84,-158.59 -116.68,-221.73 -118.29,-126.92 -218.44,-169.17 -408.92,-166.81 -146.17,1.81 -303.5,93.81 -389.07,220l914.67 168.54zm-959.28 -82.44c-3.88,10.6 -7.25,21.32 -10.04,32.15 -12.25,47.58 -114.71,429.95 -111.77,444.24 2.36,11.41 12.39,20.68 25.84,20.68l102.9 0 0 104.2 263.65 -10.06c25.23,-0.97 46.27,-15.77 55.7,-39.19l155.04 -385.22c7.24,-18 6.15,-36.44 -3.17,-53.46 -9.32,-17.02 -24.27,-27.87 -43.34,-31.46l-434.82 -81.88zm-55.7 603.68l0 -43.98c-42.65,0 -79.62,5.2 -110.35,-34.46 -17.08,-22.04 -22.7,-49.18 -15.73,-76.27l111.32 -432.23c2.45,-9.55 5.3,-19.03 8.47,-28.41l-20.01 -3.77 -241.07 629.32 267.36 -10.21zm243.4 -371.83c0,-34.81 -28.22,-63.03 -63.03,-63.03 -34.81,0 -63.03,28.22 -63.03,63.03 0,34.81 28.22,63.03 63.03,63.03 34.81,0 63.03,-28.22 63.03,-63.03z"/>
</symbol>
 <g id="Ebene_x0020_1">
  <metadata id="CorelCorpID_0Corel-Layer"/>
  <use id="ISO_x0020_7010_x0020_M047_0" transform="scale(0.571429 0.571429)" x="-0" y="-0" width="3500" height="3500" xlink:href="#ISO_x0020_7010_x0020_M047"/>
 </g>
</svg>
