<?xml version="1.0" encoding="UTF-8"?>
<!DOCTYPE svg PUBLIC "-//W3C//DTD SVG 1.1//EN" "http://www.w3.org/Graphics/SVG/1.1/DTD/svg11.dtd">
<!-- Creator: Corel DESIGNER -->
<svg xmlns="http://www.w3.org/2000/svg" xml:space="preserve" width="40mm" height="40mm" version="1.1" style="shape-rendering:geometricPrecision; text-rendering:geometricPrecision; image-rendering:optimizeQuality; fill-rule:evenodd; clip-rule:evenodd"
viewBox="0 0 4000 4000"
 xmlns:xlink="http://www.w3.org/1999/xlink"
 xmlns:xodm="http://www.corel.com/coreldraw/odm/2003">
 <defs>
  <style type="text/css">
   <![CDATA[
    .fil0m {fill:#004873}
    .fil1 {fill:white}
   ]]>
  </style>
 </defs>
<symbol id="ISO_x0020_7010_x0020_M049" viewBox="-1500 2616.66 7000 7000">
 <circle class="fil0m" cx="2000" cy="6116.66" r="3500"/>
 <path class="fil1" d="M1734.67 3985.81c-22.7,-22.7 -42.51,-48.3 -58.82,-76.2l-93.88 0c162.35,358.36 673.71,358.35 836.06,0l-93.88 0c-123.83,211.77 -415.17,250.51 -589.48,76.2z"/>
 <path class="fil1" d="M1703.15 3545.07l593.7 0c60,101.34 47.89,201.47 47.89,314.8l108.8 0c92.84,-302.52 -132.47,-613.74 -453.54,-613.74 -321.07,0 -546.38,311.22 -453.54,613.74l109 0c0,-112.22 -12.57,-213.03 47.69,-314.8z"/>
 <path class="fil1" d="M967.49 5411.79l-278.49 -197.08 -239.79 634.73 321.73 120.3 196.55 -557.95zm2065.02 0l278.49 -197.08 239.79 634.73 -321.73 120.3 -196.55 -557.95zm-256.94 1929.95c11.38,88.14 1.5,172.68 -24.72,245.27l169.32 986.51c61.2,356.7 -476.68,410.17 -535.05,69.25l-165.33 -965.6c-51.41,-66.54 -88.03,-153.19 -100.62,-250.72 -10.45,-81.06 -2.96,-159.11 18.73,-227.59l-123.31 -720.17c-9.73,0 -19.45,0 -29.18,0l-123.31 720.17c21.69,68.48 29.18,146.53 18.73,227.59 -12.59,97.53 -49.21,184.18 -100.62,250.72l-165.33 965.6c-58.37,340.92 -596.25,287.45 -535.05,-69.25l169.32 -986.51c-26.22,-72.59 -36.1,-157.13 -24.72,-245.27 13.52,-104.8 54.8,-197.05 112.36,-265.27l157.52 -917.69 0 -1200.55 -430.23 430.24 -215.05 610.47c11.87,4.45 17.96,17.86 13.48,29.76l-73.91 196.53c-4.15,11.04 -15.98,17.04 -27.18,14.29 -149.38,303.96 -586.01,142.8 -480.4,-179.45 -11.9,-4.45 -17.94,-17.9 -13.49,-29.76l73.9 -196.54c7.69,-20.45 29.74,-13.5 29.77,-13.5l165.16 -437.16c-7.18,-30.23 -11,-61.75 -11,-94.17 0,-195.76 138.68,-359.1 323.16,-397.19 194.3,-186.73 388.52,-373.6 582.68,-560.47 20.2,-19.44 44.32,-29.17 72.36,-29.17 330.97,0 661.91,0 992.88,0 28.04,0 52.16,9.73 72.36,29.17 194.16,186.87 388.38,373.74 582.68,560.47 184.48,38.09 323.16,201.43 323.16,397.19 0,32.42 -3.82,63.94 -11,94.17l165.16 437.16c0.03,0 22.08,-6.95 29.77,13.5l73.9 196.54c4.45,11.86 -1.59,25.31 -13.49,29.76 105.61,322.25 -331.02,483.41 -480.4,179.45 -11.2,2.75 -23.03,-3.25 -27.18,-14.29l-73.91 -196.53c-4.48,-11.9 1.61,-25.31 13.48,-29.76l-215.05 -610.47 -430.23 -430.24 0 1200.55 157.52 917.69c57.56,68.22 98.84,160.47 112.36,265.27zm-690.67 -946.54l116.19 678.62c90.17,-120.16 233.91,-155.29 363.11,-81.29l-142 -827.27 0 -1408.59c177.4,177.44 354.71,354.98 532.22,532.31l282.4 -199.85 -731.65 -703.53c-336.78,0 -673.56,0 -1010.34,0l-731.65 703.53 282.4 199.85c177.51,-177.33 354.82,-354.87 532.22,-532.31l0 1408.59 -142 827.27c129.2,-74 272.94,-38.87 363.11,81.29l116.19 -678.62c56.6,0 113.2,0 169.8,0zm601.39 1308.64c-94.06,116.97 -239.29,144.59 -366.1,65.63l147.13 859.28c39.69,231.86 413.1,206.15 370.65,-41.21l-151.68 -883.7zm954.59 -1614.57l-323.58 120.98c107.42,200.87 391.72,98.07 323.58,-120.98zm-2327.17 1614.57c94.06,116.97 239.29,144.59 366.1,65.63l-147.13 859.28c-39.69,231.86 -413.1,206.15 -370.65,-41.21l151.68 -883.7zm-954.59 -1614.57l323.58 120.98c-107.42,200.87 -391.72,98.07 -323.58,-120.98z"/>
</symbol>
 <g id="Ebene_x0020_1">
  <metadata id="CorelCorpID_0Corel-Layer"/>
  <use id="ISO_x0020_7010_x0020_M049_0" transform="scale(0.571429 0.571429)" x="-0" y="-0" width="7000" height="7000" xlink:href="#ISO_x0020_7010_x0020_M049"/>
 </g>
</svg>
