<?xml version="1.0" encoding="UTF-8"?>
<!DOCTYPE svg PUBLIC "-//W3C//DTD SVG 1.1//EN" "http://www.w3.org/Graphics/SVG/1.1/DTD/svg11.dtd">
<!-- Creator: Corel DESIGNER -->
<svg xmlns="http://www.w3.org/2000/svg" xml:space="preserve" width="40mm" height="40mm" version="1.1" style="shape-rendering:geometricPrecision; text-rendering:geometricPrecision; image-rendering:optimizeQuality; fill-rule:evenodd; clip-rule:evenodd"
viewBox="0 0 4000 4000"
 xmlns:xlink="http://www.w3.org/1999/xlink"
 xmlns:xodm="http://www.corel.com/coreldraw/odm/2003">
 <defs>
  <style type="text/css">
   <![CDATA[
    .fil1p {fill:#0E1313}
    .fil2p {fill:#A1262D}
    .fil0p {fill:white}
   ]]>
  </style>
 </defs>
<symbol id="ISO_x0020_7010_x0020_P002" viewBox="-1500 8850 7000 7000">
 <circle class="fil0p" cx="2000" cy="12350" r="3150"/>
 <path class="fil1p" d="M398.47 13963.6l157.15 -105.66 426.36 634.11 -157.17 105.67 -426.34 -634.12zm228.69 -153.76l157.16 -105.66 426.34 634.11 -157.15 105.66 -426.35 -634.11zm228.7 -153.76l3135.53 -2108.18 426.35 634.1 -3135.54 2108.18 -105.66 -157.15 2978.38 -2002.51 -215.02 -319.81 -2978.38 2002.52 -105.66 -157.15zm-501.32 242.18c-75.71,-112.59 -142.98,-196.18 -175.41,-354.22 -56.84,-277.12 95.55,-529.11 62.58,-689.64 -42.37,-206.28 -585.94,70.67 -766.96,-214.04 -124.16,-195.3 -52.44,-350.37 106.87,-519.39 122.39,-129.77 187.18,-141.27 124.86,-316.36l162.12 -109c91.46,257.02 95.13,308.65 -110.79,516.06 -94.15,94.8 -219.57,179.87 -124.86,325.89 72.84,112.35 295.59,-0.61 530.82,52.05 162,36.27 238.49,108.24 262.85,226.92 57.85,281.64 -206.31,542.69 13.34,869.39l71.73 106.68 -157.15 105.66zm228.68 -153.76c-70.41,-104.73 -150.53,-195.67 -144.52,-330.44 10.63,-238.07 263.25,-458.11 323.28,-705.14 16.9,-69.56 6.05,-124.72 -58.96,-144.07 -245.66,-73.14 -555.01,79.02 -727.5,-186.08 -168.91,-259.59 -9.64,-402.68 164.97,-557.28 112.41,-99.51 151.85,-226.69 85.19,-365.96l158.53 -106.59c110,229.24 75.18,443.57 -119.04,614.25 -101.19,88.93 -224.73,172.74 -132.5,309.91 98.44,146.41 364.39,33.57 624.42,110.98 192.19,57.23 229.93,197.02 188.07,369.26 -55.55,228.6 -310.98,514.85 -317.87,669.42 -2.88,64.42 76.24,161.25 113.1,216.07l-157.17 105.67z"/>
 <path class="fil2p" d="M4796.54 12350c0,-1544.49 -1252.05,-2796.54 -2796.54,-2796.54 -673.67,0 -1291.7,238.22 -1774.43,635.02l3945.51 3924.07c391,-481 625.46,-1094.36 625.46,-1762.55zm-4967.62 -1762.55c-390.98,481.01 -625.46,1094.36 -625.46,1762.55 0,1544.49 1252.05,2796.54 2796.54,2796.54 673.67,0 1291.67,-238.25 1774.43,-635.03l-3945.51 -3924.06zm5671.08 1762.55c0,-1933 -1567,-3500 -3500,-3500 -1933,0 -3500,1567 -3500,3500 0,1933 1567,3500 3500,3500 1933,0 3500,-1567 3500,-3500z"/>
</symbol>
 <g id="Ebene_x0020_1">
  <metadata id="CorelCorpID_0Corel-Layer"/>
  <use id="ISO_x0020_7010_x0020_P002_0" transform="scale(0.571429 0.571429)" x="-0" y="-0" width="7000" height="7000" xlink:href="#ISO_x0020_7010_x0020_P002"/>
 </g>
</svg>
