<?xml version="1.0" encoding="UTF-8"?>
<!DOCTYPE svg PUBLIC "-//W3C//DTD SVG 1.1//EN" "http://www.w3.org/Graphics/SVG/1.1/DTD/svg11.dtd">
<!-- Creator: Corel DESIGNER -->
<svg xmlns="http://www.w3.org/2000/svg" xml:space="preserve" width="40mm" height="40mm" version="1.1" style="shape-rendering:geometricPrecision; text-rendering:geometricPrecision; image-rendering:optimizeQuality; fill-rule:evenodd; clip-rule:evenodd"
viewBox="0 0 2000 2000"
 xmlns:xlink="http://www.w3.org/1999/xlink"
 xmlns:xodm="http://www.corel.com/coreldraw/odm/2003">
 <defs>
  <style type="text/css">
   <![CDATA[
    .fil1p {fill:#0E1313}
    .fil2p {fill:#A1262D}
    .fil0p {fill:white}
   ]]>
  </style>
 </defs>
<symbol id="ISO_x0020_7010_x0020_P003" viewBox="-3750 4425 3500 3500">
 <circle class="fil0p" cx="-2000" cy="6175" r="1575"/>
 <path class="fil1p" d="M-2651.01 6523.21c-100.93,27.54 -135.25,-4.67 -184.07,-42.69 33.51,155.88 141.47,227.46 235.98,249.92 109.22,25.95 191.84,31.64 229.13,120.2 -6.52,-169.76 86.27,-266.49 155.04,-368.74 68.78,-102.25 -37.61,-316.49 -156.61,-336.07 -3.01,67.41 45.4,109.86 30.34,198.65 -33.19,-59.43 -55.69,-198.65 -284.15,-199.04 4.86,24.31 16.64,23.66 24.48,43.51 -72.55,9.32 -150.36,-42.74 -177.3,-127.88 -63.57,202.77 60.11,375.91 127.16,462.14zm561.2 41.89c-68.68,80.44 -54.12,187.84 -103.72,277.22 -60.63,109.28 -203.42,120.52 -288.95,185.34 -77.56,58.78 -99.6,191.14 -21.91,260.7 85.23,76.31 207.71,34.2 269.38,-37.62 57.6,-67.08 54.73,-231.98 162.3,-324.49 64.23,-55.24 167.54,-71.11 228.36,-142.36l937.89 -1098.64 -18.93 -182.39 -255.54 -2.43 -908.88 1064.66zm207.16 178.71c-42.93,50.29 -106.86,81.86 -173.05,78.01l1080.35 -1265.51 11.54 111.19 -918.84 1076.31zm-213.82 41.05c-18.78,-65.41 1.18,-128.4 40.68,-174.68l899.98 -1054.44 107.68 1.03 -1048.34 1228.09zm-775.12 -837.56c-58.12,-29.64 -68.53,-58.6 -92.9,-98 -99.39,230.35 -58.96,406.43 65.22,609.95 -36.67,9.69 -83.65,4.19 -108.38,-7.51 -2.77,165.31 188.92,228.05 193.58,250.11l-51.58 -4.27c113.96,215.44 347.04,14.93 490.88,245 62.3,3.43 186.37,-138.56 148.63,-245.68 -14.86,29.01 -46.2,59.28 -75.86,69.52 32.28,-104.79 218.08,-319.38 260.73,-449.93 72.92,-223.15 -29.55,-670.59 -208.61,-827.06 4.76,41.19 5.54,84.19 -0.24,130.16 -184.14,-72.24 -102.27,-327.59 -4.83,-453.57 -264.01,126.2 -707.54,363.93 -616.66,781.27z"/>
 <path class="fil2p" d="M-601.73 6175c0,-772.24 -626.03,-1398.27 -1398.27,-1398.27 -336.84,0 -645.85,119.11 -887.22,317.51l1972.76 1962.03c195.5,-240.5 312.73,-547.18 312.73,-881.27zm-2483.81 -881.27c-195.49,240.5 -312.73,547.18 -312.73,881.27 0,772.24 626.03,1398.27 1398.27,1398.27 336.84,0 645.84,-119.12 887.22,-317.52l-1972.76 -1962.03zm2835.54 881.27c0,-966.5 -783.5,-1750 -1750,-1750 -966.5,0 -1750,783.5 -1750,1750 0,966.5 783.5,1750 1750,1750 966.5,0 1750,-783.5 1750,-1750z"/>
</symbol>
 <g id="Ebene_x0020_1">
  <metadata id="CorelCorpID_0Corel-Layer"/>
  <use id="ISO_x0020_7010_x0020_P003_0" transform="scale(0.571429 0.571429)" x="-0" y="-0" width="3500" height="3500" xlink:href="#ISO_x0020_7010_x0020_P003"/>
 </g>
</svg>
