<?xml version="1.0" encoding="UTF-8"?>
<!DOCTYPE svg PUBLIC "-//W3C//DTD SVG 1.1//EN" "http://www.w3.org/Graphics/SVG/1.1/DTD/svg11.dtd">
<!-- Creator: Corel DESIGNER -->
<svg xmlns="http://www.w3.org/2000/svg" xml:space="preserve" width="40mm" height="40mm" version="1.1" style="shape-rendering:geometricPrecision; text-rendering:geometricPrecision; image-rendering:optimizeQuality; fill-rule:evenodd; clip-rule:evenodd"
viewBox="0 0 4000 4000"
 xmlns:xlink="http://www.w3.org/1999/xlink"
 xmlns:xodm="http://www.corel.com/coreldraw/odm/2003">
 <defs>
  <style type="text/css">
   <![CDATA[
    .fil1p {fill:#0E1313}
    .fil2p {fill:#A1262D}
    .fil0p {fill:white}
   ]]>
  </style>
 </defs>
<symbol id="ISO_x0020_7010_x0020_P005" viewBox="-1500 2616.66 7000 7000">
 <circle class="fil0p" cx="2000" cy="6116.66" r="3150"/>
 <path class="fil1p" d="M3946.42 4527.89l-1041.43 0 0 -195.5 190.74 0c104.91,0 190.74,-85.83 190.74,-190.74 0,-104.91 -85.83,-190.73 -190.74,-190.73l-791.56 0c-104.9,0 -190.73,85.82 -190.73,190.73 0,104.91 85.83,190.74 190.73,190.74l190.74 0 0 195.5 -750.52 0c-501.74,0 -906.97,394.81 -906.97,906.97l0 390.04 581.75 0 0 -390.04c0,-153.31 171.91,-325.22 325.22,-325.22l349.08 0c158.05,135.64 363.5,217.61 588.12,217.61 224.61,0 430.05,-81.98 588.1,-217.61l676.73 0 0 -581.75z"/>
 <path class="fil1p" d="M1874.68 7806.41l261.55 -950.45c-113.56,-13.79 -197.03,-45.31 -275.27,-74.86 -70.74,-26.71 -136.86,-62.61 -216.9,-53.17 -38.97,4.6 -76.37,44.98 -119.64,76.67 -184.49,135.14 -411.15,301.08 -880.77,29.77 -79.47,-45.88 -142.24,-81.19 -237.42,-90.55l292.41 1062.59 1176.04 0zm511.24 -1857.8l309.88 87.04 -575.87 2092.63 -1666.55 0 -575.86 -2092.63 309.87 -87.04 78.18 284.08c234.43,-8.49 403.13,21.45 617.09,150.8 217.21,131.3 321.9,51.11 425,-27.86 88.19,-67.56 175.59,-134.51 310.31,-137.2 347.8,-6.95 405.31,139.47 656.73,134.33l111.22 -404.15zm-163.13 592.82c-253.58,-11.28 -317.33,-140.18 -601.12,-134.51 -72.4,1.45 -135.63,49.89 -199.44,98.76 -153.81,117.82 -310,237.46 -637.14,39.69 -164.81,-99.63 -291.34,-127.09 -467.88,-125.03l36.21 131.58c146.23,1.67 248.19,38.87 376.94,108.52 199.51,107.93 360.76,227.52 682.44,-8.12 48.94,-35.85 156,-116.27 218.38,-112.99 121.15,-1.03 205.25,30.72 296.31,65.1 72.46,27.37 150.24,56.74 259.72,66.25l35.58 -129.25z"/>
 <path class="fil2p" d="M4796.54 6116.66c0,-1544.49 -1252.05,-2796.54 -2796.54,-2796.54 -673.67,0 -1291.7,238.22 -1774.43,635.02l3945.51 3924.07c391,-481 625.46,-1094.36 625.46,-1762.55zm-4967.62 -1762.55c-390.98,481.01 -625.46,1094.36 -625.46,1762.55 0,1544.49 1252.05,2796.54 2796.54,2796.54 673.67,0 1291.67,-238.25 1774.43,-635.03l-3945.51 -3924.06zm5671.08 1762.55c0,-1933 -1567,-3500 -3500,-3500 -1933,0 -3500,1567 -3500,3500 0,1933 1567,3500 3500,3500 1933,0 3500,-1567 3500,-3500z"/>
</symbol>
 <g id="Ebene_x0020_1">
  <metadata id="CorelCorpID_0Corel-Layer"/>
  <use id="ISO_x0020_7010_x0020_P005_0" transform="scale(0.571429 0.571429)" x="-0" y="-0" width="7000" height="7000" xlink:href="#ISO_x0020_7010_x0020_P005"/>
 </g>
</svg>
