<?xml version="1.0" encoding="UTF-8"?>
<!DOCTYPE svg PUBLIC "-//W3C//DTD SVG 1.1//EN" "http://www.w3.org/Graphics/SVG/1.1/DTD/svg11.dtd">
<!-- Creator: Corel DESIGNER -->
<svg xmlns="http://www.w3.org/2000/svg" xml:space="preserve" width="40mm" height="40mm" version="1.1" style="shape-rendering:geometricPrecision; text-rendering:geometricPrecision; image-rendering:optimizeQuality; fill-rule:evenodd; clip-rule:evenodd"
viewBox="0 0 2000 2000"
 xmlns:xlink="http://www.w3.org/1999/xlink"
 xmlns:xodm="http://www.corel.com/coreldraw/odm/2003">
 <defs>
  <style type="text/css">
   <![CDATA[
    .fil1p {fill:#0E1313}
    .fil2p {fill:#A1262D}
    .fil0p {fill:white}
   ]]>
  </style>
 </defs>
<symbol id="ISO_x0020_7010_x0020_P014" viewBox="-3750 4425 3500 3500">
 <circle class="fil0p" cx="-2000" cy="6175" r="1575"/>
 <path class="fil1p" d="M-2414.41 7133.06c-0.25,81.9 -16.92,211.09 35.62,207.33 136.59,-9.78 113.11,-629.16 274.08,-892.39l209.66 -348.2c132.48,64.1 184.96,79.56 192.83,-61.78 37.71,55.55 53.22,152.11 21.97,195.51 -90.27,125.35 -188.9,226.06 -259.55,343.81 -118.54,197.6 -224.93,567.02 -270.54,823.86 17.72,3.01 35.53,5.72 53.49,7.98 76.52,-402.35 170.13,-651.14 270.62,-817.86 107.66,-178.61 224.32,-278.43 253.84,-336.46 38,-74.7 22.23,-167.26 -20.02,-252.69 506.71,-26.67 366.71,-680.3 -74.14,-583.81 -141.86,31.05 -180.73,129.72 -192.83,254.6 -4.61,-3.08 -57.79,-475.76 -519.65,-292.11 -148.37,58.99 -230.73,183.68 -258.25,315.7 -70.15,336.56 147.78,857.18 55.04,1544 18.84,11.38 38.01,22.23 57.48,32.62 96.04,-915.82 -161.53,-1376.77 -36.63,-1641.36 106.85,-226.36 499.76,-375.28 624.14,-46.22 9.89,26.17 27.45,103.18 36.69,130.44 -28.92,0 -131.86,-82.47 -153.51,63.65 -22.76,153.57 -297.47,441.52 -300.34,1353.39zm559.59 -2193.56c-18.17,-2.11 -36.45,-3.87 -54.85,-5.19 59.39,170.56 114.2,0.59 61.43,463.47 568.77,-306.27 801.03,570.1 277.06,668.32 47.7,214.65 57.43,348.93 363.18,477.37 107.09,44.99 200.38,168.41 254.43,304.41 11.33,-17.57 22.23,-35.43 32.68,-53.59 -62.26,-150.97 -152.01,-231.31 -248.9,-286.26 -246.7,-139.92 -283.4,-119.88 -347.11,-410.11 488.09,-143.52 346.79,-954 -280.81,-784.39 37.38,-336.61 -4.12,-255.36 -57.12,-374.03z"/>
 <path class="fil2p" d="M-601.73 6175c0,-772.24 -626.03,-1398.27 -1398.27,-1398.27 -336.84,0 -645.85,119.11 -887.22,317.51l1972.76 1962.03c195.5,-240.5 312.73,-547.18 312.73,-881.27zm-2483.81 -881.27c-195.49,240.5 -312.73,547.18 -312.73,881.27 0,772.24 626.03,1398.27 1398.27,1398.27 336.84,0 645.84,-119.12 887.22,-317.52l-1972.76 -1962.03zm2835.54 881.27c0,-966.5 -783.5,-1750 -1750,-1750 -966.5,0 -1750,783.5 -1750,1750 0,966.5 783.5,1750 1750,1750 966.5,0 1750,-783.5 1750,-1750z"/>
</symbol>
 <g id="Ebene_x0020_1">
  <metadata id="CorelCorpID_0Corel-Layer"/>
  <use id="ISO_x0020_7010_x0020_P014_0" transform="scale(0.571429 0.571429)" x="-0" y="-0" width="3500" height="3500" xlink:href="#ISO_x0020_7010_x0020_P014"/>
 </g>
</svg>
