<?xml version="1.0" encoding="UTF-8"?>
<!DOCTYPE svg PUBLIC "-//W3C//DTD SVG 1.1//EN" "http://www.w3.org/Graphics/SVG/1.1/DTD/svg11.dtd">
<!-- Creator: Corel DESIGNER -->
<svg xmlns="http://www.w3.org/2000/svg" xml:space="preserve" width="40mm" height="40mm" version="1.1" style="shape-rendering:geometricPrecision; text-rendering:geometricPrecision; image-rendering:optimizeQuality; fill-rule:evenodd; clip-rule:evenodd"
viewBox="0 0 4000 4000"
 xmlns:xlink="http://www.w3.org/1999/xlink"
 xmlns:xodm="http://www.corel.com/coreldraw/odm/2003">
 <defs>
  <style type="text/css">
   <![CDATA[
    .fil1p {fill:#0E1313}
    .fil2p {fill:#A1262D}
    .fil0p {fill:white}
   ]]>
  </style>
 </defs>
<symbol id="ISO_x0020_7010_x0020_P016" viewBox="-1500 2616.66 7000 7000">
 <circle class="fil0p" cx="2000" cy="6116.66" r="3150"/>
 <path class="fil1p" d="M2523.44 5374.85l490.75 -778.72c28.63,-45.41 71.58,-72.96 124.8,-80 53.21,-7.05 101.85,8.37 141.3,44.78l23.94 22.09 50.71 -50.72c90.01,-89.99 221.51,-125.45 344.62,-93.93 100.34,25.69 186.41,96.49 209.37,200.44l262.33 1187.38c36.6,165.67 157.06,234.33 320.76,230.67l2.57 124.88c-224.02,5.03 -395.86,-103.8 -445.5,-328.49l-262.33 -1187.38c-12.7,-57.51 -64.01,-92.56 -118.34,-106.47 -79.68,-20.42 -166.83,2.83 -225.11,61.1l-47.26 47.26 21.3 19.66c39.44,36.4 58.71,83.65 55.95,137.26 -2.76,53.6 -26.77,98.63 -69.74,130.8l-736.92 551.55 -143.2 -132.16z"/>
 <circle class="fil1p" transform="matrix(0.842869 -0.913309 0.913309 0.842869 2365.63 5689.53)" r="44.44"/>
 <circle class="fil1p" transform="matrix(0.842869 -0.913309 0.913309 0.842869 438.766 7777.42)" r="44.44"/>
 <circle class="fil1p" transform="matrix(0.842869 -0.913309 0.913309 0.842869 567.219 7638.23)" r="44.44"/>
 <circle class="fil1p" transform="matrix(0.842869 -0.913309 0.913309 0.842869 695.679 7499.04)" r="44.44"/>
 <circle class="fil1p" transform="matrix(0.842869 -0.913309 0.913309 0.842869 824.138 7359.84)" r="44.44"/>
 <circle class="fil1p" transform="matrix(0.842869 -0.913309 0.913309 0.842869 952.591 7220.65)" r="44.44"/>
 <circle class="fil1p" transform="matrix(0.842869 -0.913309 0.913309 0.842869 1081.05 7081.46)" r="44.44"/>
 <circle class="fil1p" transform="matrix(0.842869 -0.913309 0.913309 0.842869 1209.51 6942.26)" r="44.44"/>
 <circle class="fil1p" transform="matrix(0.842869 -0.913309 0.913309 0.842869 1337.97 6803.07)" r="44.44"/>
 <circle class="fil1p" transform="matrix(0.842869 -0.913309 0.913309 0.842869 1466.42 6663.88)" r="44.44"/>
 <circle class="fil1p" transform="matrix(0.842869 -0.913309 0.913309 0.842869 1594.88 6524.68)" r="44.44"/>
 <circle class="fil1p" transform="matrix(0.842869 -0.913309 0.913309 0.842869 1723.34 6385.49)" r="44.44"/>
 <circle class="fil1p" transform="matrix(0.842869 -0.913309 0.913309 0.842869 1851.79 6246.3)" r="44.44"/>
 <circle class="fil1p" transform="matrix(0.842869 -0.913309 0.913309 0.842869 1980.25 6107.11)" r="44.44"/>
 <circle class="fil1p" transform="matrix(0.842869 -0.913309 0.913309 0.842869 2108.71 5967.91)" r="44.44"/>
 <circle class="fil1p" transform="matrix(0.842869 -0.913309 0.913309 0.842869 2237.17 5828.72)" r="44.44"/>
 <circle class="fil1p" transform="matrix(0.842869 -0.913309 0.913309 0.842869 310.306 7916.61)" r="44.44"/>
 <circle class="fil1p" transform="matrix(0.653115 -1.05736 1.05736 0.653115 2440.03 5746.01)" r="44.44"/>
 <circle class="fil1p" transform="matrix(0.653115 -1.05736 1.05736 0.653115 946.96 8163.2)" r="44.44"/>
 <circle class="fil1p" transform="matrix(0.653115 -1.05736 1.05736 0.653115 1046.49 8002.06)" r="44.44"/>
 <circle class="fil1p" transform="matrix(0.653115 -1.05736 1.05736 0.653115 1146.03 7840.91)" r="44.44"/>
 <circle class="fil1p" transform="matrix(0.653115 -1.05736 1.05736 0.653115 1245.57 7679.76)" r="44.44"/>
 <circle class="fil1p" transform="matrix(0.653115 -1.05736 1.05736 0.653115 1345.11 7518.62)" r="44.44"/>
 <circle class="fil1p" transform="matrix(0.653115 -1.05736 1.05736 0.653115 1444.65 7357.47)" r="44.44"/>
 <circle class="fil1p" transform="matrix(0.653115 -1.05736 1.05736 0.653115 1544.19 7196.32)" r="44.44"/>
 <circle class="fil1p" transform="matrix(0.653115 -1.05736 1.05736 0.653115 1643.73 7035.18)" r="44.44"/>
 <circle class="fil1p" transform="matrix(0.653115 -1.05736 1.05736 0.653115 1743.26 6874.04)" r="44.44"/>
 <circle class="fil1p" transform="matrix(0.653115 -1.05736 1.05736 0.653115 1842.8 6712.89)" r="44.44"/>
 <circle class="fil1p" transform="matrix(0.653115 -1.05736 1.05736 0.653115 1942.34 6551.74)" r="44.44"/>
 <circle class="fil1p" transform="matrix(0.653115 -1.05736 1.05736 0.653115 2041.88 6390.6)" r="44.44"/>
 <circle class="fil1p" transform="matrix(0.653115 -1.05736 1.05736 0.653115 2141.42 6229.45)" r="44.44"/>
 <circle class="fil1p" transform="matrix(0.653115 -1.05736 1.05736 0.653115 2240.96 6068.3)" r="44.44"/>
 <circle class="fil1p" transform="matrix(0.653115 -1.05736 1.05736 0.653115 2340.49 5907.16)" r="44.44"/>
 <circle class="fil1p" transform="matrix(0.653115 -1.05736 1.05736 0.653115 847.421 8324.35)" r="44.44"/>
 <circle class="fil1p" transform="matrix(0.439363 -1.16255 1.16255 0.439363 2523.84 5787.26)" r="44.44"/>
 <circle class="fil1p" transform="matrix(0.439363 -1.16255 1.16255 0.439363 1519.43 8444.93)" r="44.44"/>
 <circle class="fil1p" transform="matrix(0.439363 -1.16255 1.16255 0.439363 1586.39 8267.76)" r="44.44"/>
 <circle class="fil1p" transform="matrix(0.439363 -1.16255 1.16255 0.439363 1653.35 8090.58)" r="44.44"/>
 <circle class="fil1p" transform="matrix(0.439363 -1.16255 1.16255 0.439363 1720.31 7913.4)" r="44.44"/>
 <circle class="fil1p" transform="matrix(0.439363 -1.16255 1.16255 0.439363 1787.27 7736.22)" r="44.44"/>
 <circle class="fil1p" transform="matrix(0.439363 -1.16255 1.16255 0.439363 1854.23 7559.04)" r="44.44"/>
 <circle class="fil1p" transform="matrix(0.439363 -1.16255 1.16255 0.439363 1921.2 7381.86)" r="44.44"/>
 <circle class="fil1p" transform="matrix(0.439363 -1.16255 1.16255 0.439363 1988.16 7204.68)" r="44.44"/>
 <circle class="fil1p" transform="matrix(0.439363 -1.16255 1.16255 0.439363 2055.12 7027.51)" r="44.44"/>
 <circle class="fil1p" transform="matrix(0.439363 -1.16255 1.16255 0.439363 2122.08 6850.33)" r="44.44"/>
 <circle class="fil1p" transform="matrix(0.439363 -1.16255 1.16255 0.439363 2189.04 6673.14)" r="44.44"/>
 <circle class="fil1p" transform="matrix(0.439363 -1.16255 1.16255 0.439363 2256 6495.97)" r="44.44"/>
 <circle class="fil1p" transform="matrix(0.439363 -1.16255 1.16255 0.439363 2322.96 6318.79)" r="44.44"/>
 <circle class="fil1p" transform="matrix(0.439363 -1.16255 1.16255 0.439363 2389.92 6141.61)" r="44.44"/>
 <circle class="fil1p" transform="matrix(0.439363 -1.16255 1.16255 0.439363 2456.88 5964.44)" r="44.44"/>
 <circle class="fil1p" transform="matrix(0.439363 -1.16255 1.16255 0.439363 1452.47 8622.11)" r="44.44"/>
 <circle class="fil1p" transform="matrix(1.00165 -0.735702 0.735702 1.00165 2303.37 5619.89)" r="44.44"/>
 <circle class="fil1p" transform="matrix(1.00165 -0.735702 0.735702 1.00165 13.52 7301.75)" r="44.44"/>
 <circle class="fil1p" transform="matrix(1.00165 -0.735702 0.735702 1.00165 166.171 7189.63)" r="44.44"/>
 <circle class="fil1p" transform="matrix(1.00165 -0.735702 0.735702 1.00165 318.83 7077.51)" r="44.44"/>
 <circle class="fil1p" transform="matrix(1.00165 -0.735702 0.735702 1.00165 471.489 6965.38)" r="44.44"/>
 <circle class="fil1p" transform="matrix(1.00165 -0.735702 0.735702 1.00165 624.14 6853.26)" r="44.44"/>
 <circle class="fil1p" transform="matrix(1.00165 -0.735702 0.735702 1.00165 776.8 6741.13)" r="44.44"/>
 <circle class="fil1p" transform="matrix(1.00165 -0.735702 0.735702 1.00165 929.459 6629.01)" r="44.44"/>
 <circle class="fil1p" transform="matrix(1.00165 -0.735702 0.735702 1.00165 1082.12 6516.88)" r="44.44"/>
 <circle class="fil1p" transform="matrix(1.00165 -0.735702 0.735702 1.00165 1234.77 6404.76)" r="44.44"/>
 <circle class="fil1p" transform="matrix(1.00165 -0.735702 0.735702 1.00165 1387.43 6292.63)" r="44.44"/>
 <circle class="fil1p" transform="matrix(1.00165 -0.735702 0.735702 1.00165 1540.09 6180.51)" r="44.44"/>
 <circle class="fil1p" transform="matrix(1.00165 -0.735702 0.735702 1.00165 1692.74 6068.39)" r="44.44"/>
 <circle class="fil1p" transform="matrix(1.00165 -0.735702 0.735702 1.00165 1845.4 5956.26)" r="44.44"/>
 <circle class="fil1p" transform="matrix(1.00165 -0.735702 0.735702 1.00165 1998.06 5844.13)" r="44.44"/>
 <circle class="fil1p" transform="matrix(1.00165 -0.735702 0.735702 1.00165 2150.71 5732.01)" r="44.44"/>
 <circle class="fil1p" transform="matrix(1.00165 -0.735702 0.735702 1.00165 -139.139 7413.88)" r="44.44"/>
 <circle class="fil1p" transform="matrix(1.12363 -0.531061 0.531061 1.12363 2255.54 5539.64)" r="44.44"/>
 <circle class="fil1p" transform="matrix(1.12363 -0.531061 0.531061 1.12363 -313.152 6753.69)" r="44.44"/>
 <circle class="fil1p" transform="matrix(1.12363 -0.531061 0.531061 1.12363 -141.912 6672.76)" r="44.44"/>
 <circle class="fil1p" transform="matrix(1.12363 -0.531061 0.531061 1.12363 29.3368 6591.82)" r="44.44"/>
 <circle class="fil1p" transform="matrix(1.12363 -0.531061 0.531061 1.12363 200.586 6510.88)" r="44.44"/>
 <circle class="fil1p" transform="matrix(1.12363 -0.531061 0.531061 1.12363 371.826 6429.95)" r="44.44"/>
 <circle class="fil1p" transform="matrix(1.12363 -0.531061 0.531061 1.12363 543.075 6349.01)" r="44.44"/>
 <circle class="fil1p" transform="matrix(1.12363 -0.531061 0.531061 1.12363 714.324 6268.07)" r="44.44"/>
 <circle class="fil1p" transform="matrix(1.12363 -0.531061 0.531061 1.12363 885.574 6187.13)" r="44.44"/>
 <circle class="fil1p" transform="matrix(1.12363 -0.531061 0.531061 1.12363 1056.81 6106.2)" r="44.44"/>
 <circle class="fil1p" transform="matrix(1.12363 -0.531061 0.531061 1.12363 1228.06 6025.26)" r="44.44"/>
 <circle class="fil1p" transform="matrix(1.12363 -0.531061 0.531061 1.12363 1399.31 5944.32)" r="44.44"/>
 <circle class="fil1p" transform="matrix(1.12363 -0.531061 0.531061 1.12363 1570.55 5863.39)" r="44.44"/>
 <circle class="fil1p" transform="matrix(1.12363 -0.531061 0.531061 1.12363 1741.8 5782.45)" r="44.44"/>
 <circle class="fil1p" transform="matrix(1.12363 -0.531061 0.531061 1.12363 1913.05 5701.52)" r="44.44"/>
 <circle class="fil1p" transform="matrix(1.12363 -0.531061 0.531061 1.12363 2084.29 5620.58)" r="44.44"/>
 <circle class="fil1p" transform="matrix(1.12363 -0.531061 0.531061 1.12363 -484.402 6834.63)" r="44.44"/>
 <path class="fil2p" d="M4796.54 6116.66c0,-1544.49 -1252.05,-2796.54 -2796.54,-2796.54 -673.67,0 -1291.7,238.22 -1774.43,635.02l3945.51 3924.07c391,-481 625.46,-1094.36 625.46,-1762.55zm-4967.62 -1762.55c-390.98,481.01 -625.46,1094.36 -625.46,1762.55 0,1544.49 1252.05,2796.54 2796.54,2796.54 673.67,0 1291.67,-238.25 1774.43,-635.03l-3945.51 -3924.06zm5671.08 1762.55c0,-1933 -1567,-3500 -3500,-3500 -1933,0 -3500,1567 -3500,3500 0,1933 1567,3500 3500,3500 1933,0 3500,-1567 3500,-3500z"/>
</symbol>
 <g id="Ebene_x0020_1">
  <metadata id="CorelCorpID_0Corel-Layer"/>
  <use id="ISO_x0020_7010_x0020_P016_0" transform="scale(0.571429 0.571429)" x="-0" y="-0" width="7000" height="7000" xlink:href="#ISO_x0020_7010_x0020_P016"/>
 </g>
</svg>
