<?xml version="1.0" encoding="UTF-8"?>
<!DOCTYPE svg PUBLIC "-//W3C//DTD SVG 1.1//EN" "http://www.w3.org/Graphics/SVG/1.1/DTD/svg11.dtd">
<!-- Creator: Corel DESIGNER -->
<svg xmlns="http://www.w3.org/2000/svg" xml:space="preserve" width="40mm" height="40mm" version="1.1" style="shape-rendering:geometricPrecision; text-rendering:geometricPrecision; image-rendering:optimizeQuality; fill-rule:evenodd; clip-rule:evenodd"
viewBox="0 0 1000 1000"
 xmlns:xlink="http://www.w3.org/1999/xlink"
 xmlns:xodm="http://www.corel.com/coreldraw/odm/2003">
 <defs>
  <style type="text/css">
   <![CDATA[
    .fil1p {fill:#0E1313}
    .fil2p {fill:#A1262D}
    .fil0p {fill:white}
   ]]>
  </style>
 </defs>
<symbol id="ISO_x0020_7010_x0020_P023" viewBox="1125 2212.5 1750 1750">
 <circle class="fil0p" cx="2000" cy="3087.5" r="787.5"/>
 <path class="fil1p" d="M2364.65 2761.45l-121.62 0 0 652.1 121.62 0 0 -652.1zm-606.1 0l-121.62 0 0 652.1 121.62 0 0 -652.1zm-139.41 30.99l-84.5 0 0 146.16 84.5 0 0 -146.16zm-93.4 -17.79l93.4 0 0 -30.99 157.2 0 0 30.99 448.9 0 0 -30.99 157.2 0 0 30.99 100.7 0 0 617.77 -100.7 0 0 38.92 -157.2 0 0 -38.92 -448.9 0 0 38.92 -157.2 0 0 -38.92 -102.29 0 0 -617.77 8.89 0zm8.89 436.03l84.5 0 0 -118.25 -84.5 0 0 118.25zm84.5 -254.29l-84.5 0 0 118.25 84.5 0 0 -118.25zm0 272.08l-84.5 0 0 146.16 84.5 0 0 -146.16zm847.8 -436.03l-84.5 0 0 146.16 84.5 0 0 -146.16zm-84.5 418.24l84.5 0 0 -118.25 -84.5 0 0 118.25zm84.5 -254.29l-84.5 0 0 118.25 84.5 0 0 -118.25zm0 272.08l-84.5 0 0 146.16 84.5 0 0 -146.16zm-241.7 -436.03l-448.9 0 0 146.16 448.9 0 0 -146.16zm-448.9 418.24l448.9 0 0 -118.25 -448.9 0 0 118.25zm448.9 -254.29l-448.9 0 0 118.25 448.9 0 0 -118.25zm0 272.08l-448.9 0 0 146.16 448.9 0 0 -146.16z"/>
 <path class="fil1p" d="M1485.46 3436.56l1029.08 0c-8.86,13.04 -18.22,25.72 -28.03,38.02l-973.02 0c-9.81,-12.3 -19.16,-24.98 -28.03,-38.02z"/>
 <path class="fil2p" d="M2699.14 3087.5c0,-386.12 -313.01,-699.14 -699.14,-699.14 -168.42,0 -322.92,59.56 -443.61,158.76l986.38 981.02c97.75,-120.25 156.37,-273.59 156.37,-440.64zm-1241.91 -440.64c-97.74,120.25 -156.37,273.59 -156.37,440.64 0,386.12 313.01,699.14 699.13,699.14 168.42,0 322.92,-59.56 443.61,-158.76l-986.38 -981.01zm1417.77 440.64c0,-483.25 -391.75,-875 -875,-875 -483.25,0 -875,391.75 -875,875 0,483.25 391.75,875 875,875 483.25,0 875,-391.75 875,-875z"/>
</symbol>
 <g id="Ebene_x0020_1">
  <metadata id="CorelCorpID_0Corel-Layer"/>
  <use id="ISO_x0020_7010_x0020_P023_0" transform="scale(0.571429 0.571429)" x="-0" y="-0" width="1750" height="1750" xlink:href="#ISO_x0020_7010_x0020_P023"/>
 </g>
</svg>
