<?xml version="1.0" encoding="UTF-8"?>
<!DOCTYPE svg PUBLIC "-//W3C//DTD SVG 1.1//EN" "http://www.w3.org/Graphics/SVG/1.1/DTD/svg11.dtd">
<!-- Creator: Corel DESIGNER -->
<svg xmlns="http://www.w3.org/2000/svg" xml:space="preserve" width="40mm" height="40mm" version="1.1" style="shape-rendering:geometricPrecision; text-rendering:geometricPrecision; image-rendering:optimizeQuality; fill-rule:evenodd; clip-rule:evenodd"
viewBox="0 0 2000 2000"
 xmlns:xlink="http://www.w3.org/1999/xlink"
 xmlns:xodm="http://www.corel.com/coreldraw/odm/2003">
 <defs>
  <style type="text/css">
   <![CDATA[
    .fil1p {fill:#0E1313}
    .fil2p {fill:#A1262D}
    .fil0p {fill:white}
   ]]>
  </style>
 </defs>
<symbol id="ISO_x0020_7010_x0020_P025" viewBox="-3750 4425 3500 3500">
 <circle class="fil0p" cx="-2000" cy="6175" r="1575"/>
 <path class="fil1p" d="M-2024.06 5602.78l154 210.55 271.47 117.8c75.42,32.72 25.66,147.41 -49.77,114.69l-286.1 -124.15c-11.22,-4.86 -19.94,-11.86 -27.15,-21.73l-84.18 -115.1 0 295.22 245.33 281.61c9.88,11.34 16.77,24.86 20.01,40.56l65.99 320.08c18.5,89.71 -116.49,121.88 -136.71,23.79l-62.53 -303.25 -253.52 -291.02c-10.7,-12.29 -11.26,-30.6 -16.89,-45.89l-2.38 14.28 -79.48 390.83c-2.19,10.77 -5.88,20.56 -10.93,29.64l-160.22 287.97c-48.81,87.73 -167.64,16.02 -123.3,-63.68l159.62 -286.87 77.2 -379.62 0 -341.66 -128.21 128.22 0 251.92c0,34.51 -27.99,62.51 -62.51,62.51 -34.66,0 -62.51,-28.28 -62.51,-62.72l0 -277.28c0,-17.34 6.65,-32.86 18.82,-45.03l218.92 -218.93c12.4,-12.4 30.37,-18.3 47.09,-18.3l214.61 0c20.16,0 40.7,8.32 53.34,25.6zm-160.64 -282.57c65.21,0 118.07,52.86 118.07,118.07 0,65.2 -52.86,118.07 -118.07,118.07 -65.21,0 -118.07,-52.87 -118.07,-118.07 0,-65.21 52.86,-118.07 118.07,-118.07zm-392.13 538.92l0 0z"/>
 <path class="fil1p" d="M-1463.37 7299.94l0 -299.57 -411.38 0 0 414.52c-20.22,2.02 -40.58,3.57 -61.08,4.62l0 -419.14 -77.25 0 -32.34 -194.01 109.59 0 0 -25.15 61.08 0 0 25.15 411.38 0 0 -70.06 -1155.08 0 0 70.06 120.36 0 32.34 194.02 -152.69 0 0 256.68c-20.76,-11.89 -41.1,-24.4 -61.08,-37.42l0 -219.26 -61.08 0 0 176.82c-20.88,-15.45 -41.23,-31.56 -61.08,-48.26l0 -128.56 -131.81 0c-52.95,-59.82 -100.2,-124.78 -140.98,-194.02l272.79 0 0 -70.06 -311.11 0c-10.14,-20.05 -19.72,-40.43 -28.78,-61.08l339.89 0 0 -1449.7 -5.29 0c25.1,-21.35 51.05,-41.73 77.82,-61.08l1265.79 0 0 -114.39c20.68,9.89 41.05,20.33 61.08,31.3l0 83.1 131.44 0c26.76,19.35 52.72,39.73 77.82,61.08l-209.26 0 0 1449.7 398.8 0 0 -1248.49c21.62,28.74 41.97,58.48 61.08,89.07l0 1159.43 83.97 0c-9.06,20.65 -18.64,41.03 -28.78,61.08l-55.19 0 0 70.06 16.88 0c-40.78,69.24 -88.05,134.18 -140.98,194.01l-335.78 0 0 268.27c-20.03,10.97 -40.39,21.41 -61.08,31.3zm459.88 -563.64l-398.8 0 0 70.06 398.8 0 0 -70.06zm-1676.04 0l-61.08 0 0 70.06 61.08 0 0 -70.06zm0 -61.08l0 -1449.7 -61.08 0 0 1449.7 61.08 0zm61.08 -1449.7l0 1449.7 1155.08 0 0 -1449.7 -1155.08 0z"/>
 <path class="fil2p" d="M-601.73 6175c0,-772.24 -626.03,-1398.27 -1398.27,-1398.27 -336.84,0 -645.85,119.11 -887.22,317.51l1972.76 1962.03c195.5,-240.5 312.73,-547.18 312.73,-881.27zm-2483.81 -881.27c-195.49,240.5 -312.73,547.18 -312.73,881.27 0,772.24 626.03,1398.27 1398.27,1398.27 336.84,0 645.84,-119.12 887.22,-317.52l-1972.76 -1962.03zm2835.54 881.27c0,-966.5 -783.5,-1750 -1750,-1750 -966.5,0 -1750,783.5 -1750,1750 0,966.5 783.5,1750 1750,1750 966.5,0 1750,-783.5 1750,-1750z"/>
</symbol>
 <g id="Ebene_x0020_1">
  <metadata id="CorelCorpID_0Corel-Layer"/>
  <use id="ISO_x0020_7010_x0020_P025_0" transform="scale(0.571429 0.571429)" x="-0" y="-0" width="3500" height="3500" xlink:href="#ISO_x0020_7010_x0020_P025"/>
 </g>
</svg>
