<?xml version="1.0" encoding="UTF-8"?>
<!DOCTYPE svg PUBLIC "-//W3C//DTD SVG 1.1//EN" "http://www.w3.org/Graphics/SVG/1.1/DTD/svg11.dtd">
<!-- Creator: Corel DESIGNER -->
<svg xmlns="http://www.w3.org/2000/svg" xml:space="preserve" width="40mm" height="40mm" version="1.1" style="shape-rendering:geometricPrecision; text-rendering:geometricPrecision; image-rendering:optimizeQuality; fill-rule:evenodd; clip-rule:evenodd"
viewBox="0 0 4000 4000"
 xmlns:xlink="http://www.w3.org/1999/xlink"
 xmlns:xodm="http://www.corel.com/coreldraw/odm/2003">
 <defs>
  <style type="text/css">
   <![CDATA[
    .fil1p {fill:#0E1313}
    .fil2p {fill:#A1262D}
    .fil0p {fill:white}
   ]]>
  </style>
 </defs>
<symbol id="ISO_x0020_7010_x0020_P027" viewBox="-1500 2616.66 7000 7000">
 <circle class="fil0p" cx="2000" cy="6116.66" r="3150"/>
 <path class="fil1p" d="M2217.13 4889.88c0,-118.54 -96.09,-214.63 -214.63,-214.63 -118.54,0 -214.63,96.09 -214.63,214.63 0,118.54 96.09,214.64 214.63,214.64 118.54,0 214.63,-96.1 214.63,-214.64zm-519.64 576.56l58.67 0c0,661.23 0,1322.46 0,1983.68 0,59.37 48.57,107.96 107.95,107.96 59.39,0 107.97,-48.57 107.97,-107.96l0 -1183.72c0,-12.29 10.02,-22.3 22.3,-22.3l15.31 0c12.29,0 22.3,10.01 22.3,22.3l0 1183.72c0,59.37 48.58,107.96 107.96,107.96 59.39,0 107.97,-48.57 107.97,-107.96 0,-661.22 0,-1322.45 0,-1983.68l54.61 0 0 846.39c0,54.38 44.49,98.87 98.88,98.87 54.39,0 98.88,-44.48 98.88,-98.87l0 -886.61c0,-166.97 -124.25,-261.46 -275.31,-261.46l-451.61 0c-143.36,0 -272.35,116.28 -273.65,261.46 -2.65,295.53 0,591.07 0,886.61 0,54.38 44.5,98.87 98.88,98.87 54.39,0 98.89,-44.48 98.89,-98.87l0 -846.39z"/>
 <path class="fil1p" d="M620.18 4354.18c2396.65,0 363,0 2759.65,0l0 3524.98c-2396.65,0 -363.01,0 -2759.65,0l0 -3524.98zm203.77 3321.2l2352.1 0 0 -3117.42 -2352.1 0 0 3117.42z"/>
 <polygon class="fil1p" points="1925.28,4269.95 1925.28,3907.95 1711.9,4121.33 1711.9,3925.04 2000,3636.95 2288.1,3925.04 2288.1,4121.33 2074.72,3907.95 2074.72,4269.95 "/>
 <polygon class="fil1p" points="1925.28,7980.53 1925.28,8342.52 1711.9,8129.15 1711.9,8325.44 2000,8613.53 2288.1,8325.44 2288.1,8129.15 2074.72,8342.52 2074.72,7980.53 "/>
 <path class="fil2p" d="M4796.54 6116.66c0,-1544.49 -1252.05,-2796.54 -2796.54,-2796.54 -673.67,0 -1291.7,238.22 -1774.43,635.02l3945.51 3924.07c391,-481 625.46,-1094.36 625.46,-1762.55zm-4967.62 -1762.55c-390.98,481.01 -625.46,1094.36 -625.46,1762.55 0,1544.49 1252.05,2796.54 2796.54,2796.54 673.67,0 1291.67,-238.25 1774.43,-635.03l-3945.51 -3924.06zm5671.08 1762.55c0,-1933 -1567,-3500 -3500,-3500 -1933,0 -3500,1567 -3500,3500 0,1933 1567,3500 3500,3500 1933,0 3500,-1567 3500,-3500z"/>
</symbol>
 <g id="Ebene_x0020_1">
  <metadata id="CorelCorpID_0Corel-Layer"/>
  <use id="ISO_x0020_7010_x0020_P027_0" transform="scale(0.571429 0.571429)" x="-0" y="-0" width="7000" height="7000" xlink:href="#ISO_x0020_7010_x0020_P027"/>
 </g>
</svg>
