<?xml version="1.0" encoding="UTF-8"?>
<!DOCTYPE svg PUBLIC "-//W3C//DTD SVG 1.1//EN" "http://www.w3.org/Graphics/SVG/1.1/DTD/svg11.dtd">
<!-- Creator: Corel DESIGNER -->
<svg xmlns="http://www.w3.org/2000/svg" xml:space="preserve" width="40mm" height="40mm" version="1.1" style="shape-rendering:geometricPrecision; text-rendering:geometricPrecision; image-rendering:optimizeQuality; fill-rule:evenodd; clip-rule:evenodd"
viewBox="0 0 2000 2000"
 xmlns:xlink="http://www.w3.org/1999/xlink"
 xmlns:xodm="http://www.corel.com/coreldraw/odm/2003">
 <defs>
  <style type="text/css">
   <![CDATA[
    .fil1p {fill:#0E1313}
    .fil2p {fill:#A1262D}
    .fil0p {fill:white}
   ]]>
  </style>
 </defs>
<symbol id="ISO_x0020_7010_x0020_P028" viewBox="-3750 1308.33 3500 3500">
 <circle class="fil0p" cx="-2000" cy="3058.33" r="1575"/>
 <path class="fil1p" d="M-2729.72 2940.57c-31.54,131.26 -43.73,267.03 -84.03,402.95 -42.23,159.82 -92.08,273.7 -181.53,401.53 -16.05,22.95 -52.62,64.25 -11.38,73.68 321.63,73.62 616.97,171.33 929.18,280.74 28.21,9.89 33.18,-1.12 33.23,-27.17 0.32,-141.7 -33.25,-281.01 -13.85,-429.32 93.62,36.3 184.48,129.98 280.03,170.89 11.62,4.97 19.36,8.52 23.77,-3.99 24.42,-69.23 30.31,-159 50.7,-233.75 13.79,-50.57 113.89,-341.71 118.77,-353.07 124.51,-289.68 296.49,-552.48 490.39,-799.95 26.09,-33.29 74.72,-110.94 52.07,-162.07 -39.94,-90.17 -137.17,-26.84 -151.82,-24.82 3.76,-14.95 15.64,-28.05 21.93,-43.47 45.06,-110.53 -50.74,-177.53 -156.99,-95.13l-77 60.89c1.62,-9.05 105.91,-190.66 -41.59,-196.26 -74.8,-2.84 -141.35,83.74 -182.97,125.33 7.77,-41.45 18.76,-76.28 -2.38,-107.22 -17.95,-26.31 -50.38,-34.46 -83.29,-21.04 -89.21,36.4 -223.65,258.33 -257.47,350.24 -9.01,24.53 -47.29,98.74 -3.12,92.21 17.2,-2.55 24.43,-28.84 29.23,-41.47 34.12,-89.82 156.12,-310.45 235.24,-353.88 69.03,-37.87 39.15,73.84 29.4,111.29 -22.7,87.15 -83.49,156.58 -109.2,236.99 -11.53,36.09 2.76,52.79 26.22,24.11 30.46,-37.26 84.68,-160.87 157.86,-257.88 54.03,-71.62 120.93,-131.28 183.29,-118.02 45.86,30.47 -57.75,207.99 -77.51,242.4 -17.81,31.01 -98.36,137.15 -113.07,191.14 -9.26,33.97 11,37.5 32.66,12.29 18.61,-21.64 38.87,-59.42 55.18,-80.3 34.46,-44.09 241.86,-322.04 309.55,-253.18 53.01,53.93 -162.3,318.02 -203.99,372.88 -14.7,19.34 -28.78,30.07 -25.5,59.47 34.13,2.2 39.69,-19.54 72.41,-60.23 51.78,-64.4 126.28,-167.02 197.87,-208.97 102.65,-60.17 118.88,16.52 64.85,93.46 -194.55,277.05 -369.79,501.06 -510.17,820.7 -15.56,35.43 -106.34,299.69 -115.63,334.41 -21.16,79.07 -37.1,150.54 -52.56,230.83 -24.91,-17.09 -208.17,-149.74 -260.5,-167.64 1.01,-63.46 21.86,-184.36 32.38,-252.61 5.57,-35.27 116.66,-516 122.77,-551.12 14.43,-82.89 34.33,-158.92 43.76,-243.81 17.83,-160.54 -97.65,-138.49 -125.83,-97.89 -24.28,34.99 -119.5,429.26 -172.17,630.97 -5.12,19.57 -21.7,4.02 -16.92,-16.69 26.11,-113.07 91.55,-385.82 99.12,-417.93l45.01 -221.82c29.03,-145.47 -76.22,-137.86 -112.11,-103.26 -25.42,24.52 -63.71,157.53 -72.82,194.61l-101.59 412.97c-4.12,16.75 -22.93,6.44 -17.72,-17.78 27.12,-126 110.03,-458.77 117.38,-500.96 7.99,-45.85 16.49,-92.3 -26.43,-115.23 -32.39,-17.3 -86.89,-1.55 -100.67,47.89 -45.45,163.09 -107.52,359.78 -128.3,457.71l-0.02 0c-3.74,11.63 -6.74,31.43 -13.38,46.68 -3.42,7.86 -7.81,14.51 -13.78,18.22 -10.66,-6.1 -8.8,6.88 -8.28,-18.84 17.25,-75.24 74.27,-242.17 95.55,-367.04 6.39,-37.49 -11.62,-66.49 -41.09,-83.38 -30.67,-17.58 -60.59,-7.14 -88.78,27.22 -41.34,50.41 -77.2,136.7 -84.74,155.46 -64.64,160.84 -76.41,228.64 -109.66,367zm981.76 153.77c-5.81,6.1 -4.11,19.14 1.72,25.2 6.2,6.47 27.73,3.12 38.29,-6.77 20.21,-18.93 59.42,-61.22 79.73,-83.51 82.22,-90.25 196.27,-238.11 199.64,-352.24 1.73,-58.58 -13.24,-103.49 -82.35,-105.55 -75.17,-2.24 -199.16,71.18 -255.26,113.62 -47.13,35.66 -108,77.3 -86.87,99.13 13.24,13.68 41.01,-11.48 59.26,-26.24 52.75,-42.62 196.38,-134.07 263.72,-143.23 64.1,-8.71 67.25,51.71 52.04,100.53 -30.44,97.74 -86.84,178.66 -152.31,254.41 -39.2,41.55 -79.22,84.29 -117.62,124.64z"/>
 <path class="fil2p" d="M-601.73 3058.33c0,-772.24 -626.03,-1398.27 -1398.27,-1398.27 -336.84,0 -645.85,119.11 -887.22,317.51l1972.76 1962.04c195.5,-240.5 312.73,-547.18 312.73,-881.28zm-2483.81 -881.28c-195.49,240.51 -312.73,547.18 -312.73,881.28 0,772.24 626.03,1398.27 1398.27,1398.27 336.84,0 645.84,-119.12 887.22,-317.52l-1972.76 -1962.03zm2835.54 881.28c0,-966.5 -783.5,-1750 -1750,-1750 -966.5,0 -1750,783.5 -1750,1750 0,966.5 783.5,1750 1750,1750 966.5,0 1750,-783.5 1750,-1750z"/>
</symbol>
 <g id="Ebene_x0020_1">
  <metadata id="CorelCorpID_0Corel-Layer"/>
  <use id="ISO_x0020_7010_x0020_P028_0" transform="scale(0.571429 0.571429)" x="-0" y="-0" width="3500" height="3500" xlink:href="#ISO_x0020_7010_x0020_P028"/>
 </g>
</svg>
