<?xml version="1.0" encoding="UTF-8"?>
<!DOCTYPE svg PUBLIC "-//W3C//DTD SVG 1.1//EN" "http://www.w3.org/Graphics/SVG/1.1/DTD/svg11.dtd">
<!-- Creator: Corel DESIGNER -->
<svg xmlns="http://www.w3.org/2000/svg" xml:space="preserve" width="40mm" height="40mm" version="1.1" style="shape-rendering:geometricPrecision; text-rendering:geometricPrecision; image-rendering:optimizeQuality; fill-rule:evenodd; clip-rule:evenodd"
viewBox="0 0 4000 4000"
 xmlns:xlink="http://www.w3.org/1999/xlink"
 xmlns:xodm="http://www.corel.com/coreldraw/odm/2003">
 <defs>
  <style type="text/css">
   <![CDATA[
    .fil1p {fill:#0E1313}
    .fil2p {fill:#A1262D}
    .fil0p {fill:white}
   ]]>
  </style>
 </defs>
<symbol id="ISO_x0020_7010_x0020_P030" viewBox="-1500 -3616.67 7000 7000">
 <circle class="fil0p" cx="2000" cy="-116.67" r="3150"/>
 <path id="Knoten" class="fil1p" d="M1922.63 613.76c-305.14,76.26 -284.06,457.55 -255.26,716.83 -431.62,215.75 -283.24,867.6 234.28,793.74 5.88,58.77 2.82,69.65 52.45,90.91 -30.99,51.67 -29.18,108.32 -10.49,164.35 114.49,-51.52 346.39,-105.53 209.8,-276.24 23.96,-47.88 33.36,-90.05 24.48,-143.36 128.95,-28.65 279.32,-299.91 206.3,-402.12 93.92,-62.6 8.5,-335.56 -41.96,-398.63 86.8,-26.03 139.87,-60.59 139.87,-157.35 289.09,-144.51 -95.66,-486.04 -318.2,-486.04 40.47,-40.46 111.62,-183.02 13.99,-199.3 41.33,-41.3 85.87,-167.51 0,-181.83 32.31,-32.28 87.22,-164.36 3.49,-178.34 45.55,-45.5 85.49,-174.54 0,-188.82 40.86,-40.81 83.83,-164.36 0,-178.32 40.93,-40.88 84.25,-167.79 0,-181.83 48.87,-73.22 85.44,-178.14 -30.1,-178.49 80.52,-80.41 103.1,-160.16 -6.68,-178.48 95.93,-63.49 124.82,-174.42 40.29,-188.51 41.68,-62.57 90.91,-193.95 -23.44,-168.42 46.9,-46.9 123.94,-178.49 23.44,-195.24 31.06,-46.6 90.3,-170.27 0,-185.32 40.82,-40.83 83.82,-164.36 0,-178.33 40.8,-40.84 83.83,-164.36 0,-178.33 32.37,-48.55 91.54,-177.64 3.49,-192.32 58.35,-29.19 83.7,-168.47 3.5,-181.83 51.51,-103.04 67.55,-148.73 -38.16,-195.05 -62.83,45.7 -180.23,97.97 -215.12,172.2 -20.14,42.84 1.29,148.73 50.47,148.73 -45.49,36.39 -86.61,197.09 6.99,178.33 -50.99,44.6 -105.8,185.32 0,185.32 -51.95,34.65 -106.55,185.33 -6.99,185.33 -56.32,32.2 -90.4,178.33 0,178.33 -50.11,42.96 -90.76,185.33 0,185.33 -79.89,57.03 -100.41,207.38 11.33,176.34 -58.95,50.53 -138.92,183.96 8.73,183.96 -76.34,54.55 -125.74,178.34 6.84,178.34 -51.8,34.54 -150.42,185.17 -30.4,185.17 -46.96,40.25 -96.33,185.33 0,185.33 -50.34,35.95 -94,181.82 0,181.82 -49.14,42.13 -91.66,181.83 0,181.83 -60.61,43.3 -83.2,178.33 6.99,178.33 -52.63,35.1 -110.4,185.32 -10.48,185.32 -45.68,39.15 -97.12,185.33 0,185.33 -53.74,38.38 -64.52,102.07 -48.96,164.34 -2.26,0 -7.73,4.24 -10.49,6.99zm38.46 258.76c-23.86,38.19 -30.27,52.05 -73.43,66.44 30.56,76.35 5.85,150.04 24.48,230.78 74.81,-29.94 35.95,-23.98 125.88,-41.96 -60.86,-76.12 -55.87,-140.79 -20.04,-218.05 -29.51,-11.8 -48.96,-5.5 -56.89,-37.21zm272.74 -94.41c7.34,44.03 2.24,54.96 -17.47,94.41 39.78,13.26 43.61,26 59.44,62.94 0,-45.77 11.92,-85.35 45.46,-118.89 -34.92,-4.36 -62.2,-13.23 -87.43,-38.46zm-119.33 501.24c-41,51.22 -88.8,97.31 -149.91,117.67 61.04,48.84 85.36,90.09 59.45,167.84 55.74,22.31 80.42,57.46 80.42,118.89 16.13,-26.89 23.49,-38.47 55.95,-38.47 -36.43,-54.63 -47.22,-112.74 -10.5,-167.84 -45.31,-67.99 -48.48,-119.84 -35.41,-198.09zm-338.73 243.55c-28.66,38.22 -61.44,53.69 -108.4,41.96 18.96,56.83 3.38,99.73 -48.95,125.88 39.23,39.22 38.84,73.5 27.97,122.39 48.77,12.18 87.64,22.67 94.41,76.92 36.18,-18.08 73.69,-1.27 111.9,10.49 0,-59.84 16.49,-131.96 26.45,-191.71 -92.65,-30.94 -103.38,-101.43 -103.38,-185.93z"/>
 <path class="fil2p" d="M4796.54 -116.67c0,-1544.49 -1252.05,-2796.54 -2796.54,-2796.54 -673.67,0 -1291.7,238.22 -1774.43,635.02l3945.51 3924.07c391,-481 625.46,-1094.36 625.46,-1762.55zm-4967.62 -1762.55c-390.98,481.01 -625.46,1094.36 -625.46,1762.55 0,1544.49 1252.05,2796.54 2796.54,2796.54 673.67,0 1291.67,-238.25 1774.43,-635.03l-3945.51 -3924.06zm5671.08 1762.55c0,-1933 -1567,-3500 -3500,-3500 -1933,0 -3500,1567 -3500,3500 0,1933 1567,3500 3500,3500 1933,0 3500,-1567 3500,-3500z"/>
</symbol>
 <g id="Ebene_x0020_1">
  <metadata id="CorelCorpID_0Corel-Layer"/>
  <use id="ISO_x0020_7010_x0020_P030_0" transform="scale(0.571429 0.571429)" x="-0" y="-0" width="7000" height="7000" xlink:href="#ISO_x0020_7010_x0020_P030"/>
 </g>
</svg>
