<?xml version="1.0" encoding="UTF-8"?>
<!DOCTYPE svg PUBLIC "-//W3C//DTD SVG 1.1//EN" "http://www.w3.org/Graphics/SVG/1.1/DTD/svg11.dtd">
<!-- Creator: Corel DESIGNER -->
<svg xmlns="http://www.w3.org/2000/svg" xml:space="preserve" width="40mm" height="40mm" version="1.1" style="shape-rendering:geometricPrecision; text-rendering:geometricPrecision; image-rendering:optimizeQuality; fill-rule:evenodd; clip-rule:evenodd"
viewBox="0 0 2000 2000"
 xmlns:xlink="http://www.w3.org/1999/xlink"
 xmlns:xodm="http://www.corel.com/coreldraw/odm/2003">
 <defs>
  <style type="text/css">
   <![CDATA[
    .fil1p {fill:#0E1313}
    .fil2p {fill:#A1262D}
    .fil0p {fill:white}
   ]]>
  </style>
 </defs>
<symbol id="ISO_x0020_7010_x0020_P031" viewBox="-3750 -1808.34 3500 3500">
 <circle class="fil0p" cx="-2000" cy="-58.34" r="1575"/>
 <polygon class="fil1p" points="-1148.78,-1.09 -802.45,213.8 -1146.38,427.32 -1177.95,375.83 -961.49,244.01 -1438.28,244.01 -1438.28,183.6 -961.49,183.6 -1180.36,50.41 "/>
 <path class="fil1p" d="M-2175.35 -572.96l350.7 0 0 -706.28c-116.24,-16.05 -234.6,-15.6 -350.7,1.4l0 704.89zm399.44 1273.55l636.94 -1273.65 -311.7 -160.75 -640.93 1281.62c-82.62,35.54 -140.47,117.65 -140.47,213.28 0,58.14 21.39,111.3 56.72,152.02l0 251.73c116.11,17 234.47,17.46 350.7,1.39l0 -253.14c35.34,-40.72 56.71,-93.87 56.71,-152.01 0,-20.94 -2.78,-41.22 -7.98,-60.5zm-106.73 58.71c0,-65 -52.7,-117.7 -117.7,-117.7 -65,0 -117.71,52.69 -117.71,117.7 0,65 52.7,117.71 117.71,117.71 65.01,0 117.7,-52.7 117.7,-117.71z"/>
 <polygon class="fil1p" points="-2318.69,-1.09 -2665.03,213.8 -2321.1,427.32 -2289.53,375.83 -2505.99,244.01 -2029.2,244.01 -2029.2,183.6 -2505.99,183.6 -2287.12,50.41 "/>
 <path class="fil2p" d="M-601.73 -58.34c0,-772.25 -626.03,-1398.27 -1398.27,-1398.27 -336.84,0 -645.85,119.11 -887.22,317.51l1972.76 1962.03c195.5,-240.5 312.73,-547.18 312.73,-881.27zm-2483.81 -881.27c-195.49,240.5 -312.73,547.18 -312.73,881.27 0,772.25 626.03,1398.27 1398.27,1398.27 336.84,0 645.84,-119.12 887.22,-317.51l-1972.76 -1962.03zm2835.54 881.27c0,-966.5 -783.5,-1750 -1750,-1750 -966.5,0 -1750,783.5 -1750,1750 0,966.5 783.5,1750 1750,1750 966.5,0 1750,-783.5 1750,-1750z"/>
</symbol>
 <g id="Ebene_x0020_1">
  <metadata id="CorelCorpID_0Corel-Layer"/>
  <use id="ISO_x0020_7010_x0020_P031_0" transform="scale(0.571429 0.571429)" x="-0" y="-0" width="3500" height="3500" xlink:href="#ISO_x0020_7010_x0020_P031"/>
 </g>
</svg>
