<?xml version="1.0" encoding="UTF-8"?>
<!DOCTYPE svg PUBLIC "-//W3C//DTD SVG 1.1//EN" "http://www.w3.org/Graphics/SVG/1.1/DTD/svg11.dtd">
<!-- Creator: Corel DESIGNER -->
<svg xmlns="http://www.w3.org/2000/svg" xml:space="preserve" width="40mm" height="40mm" version="1.1" style="shape-rendering:geometricPrecision; text-rendering:geometricPrecision; image-rendering:optimizeQuality; fill-rule:evenodd; clip-rule:evenodd"
viewBox="0 0 1000 1000"
 xmlns:xlink="http://www.w3.org/1999/xlink"
 xmlns:xodm="http://www.corel.com/coreldraw/odm/2003">
 <defs>
  <style type="text/css">
   <![CDATA[
    .fil3 {fill:none}
    .fil1p {fill:#FEFEFE}
    .fil2p {fill:#2B2A29}
    .fil4 {fill:#0E1313}
    .fil5 {fill:#A1262D}
    .fil0p {fill:white}
   ]]>
  </style>
  <clipPath id="id0">
   <path d="M1679.44 3403.89l-106.59 39.85c47.92,98.49 167.54,147.82 270.7,107.97 102.41,-39.56 157.55,-152.85 126.28,-257.82l-105.41 41.03c7.9,41.28 -13.81,92.65 -61.85,111.51 -45.17,17.73 -98.07,-1.99 -123.12,-42.54z"/>
  </clipPath>
 </defs>
<symbol id="ISO_x0020_7010_x0020_P034" viewBox="1125 2212.5 1750 1750">
 <circle class="fil0p" cx="2000" cy="3087.5" r="787.5"/>
 <path class="fil1p" d="M1679.44 3403.89l-106.59 39.85c47.92,98.49 167.54,147.82 270.7,107.97 102.41,-39.56 157.55,-152.85 126.28,-257.82l-105.41 41.03c7.9,41.28 -13.81,92.65 -61.85,111.51 -45.17,17.73 -98.07,-1.99 -123.12,-42.54z"/>
 <g style="clip-path:url(#id0)">
  <path id="1" class="fil2p" d="M1687.24 3373.59c-2.83,-25.59 33.08,-21.06 16.91,1.06 -9.42,12.88 -16.88,-0.79 -16.91,-1.06z"/>
  <path class="fil2p" d="M1707.19 3348.93c7.51,18.3 9.21,10.43 26.67,15.81 0.85,-0.97 -9.14,-18.08 -18.25,-17.67 -6.33,0.28 -13.94,-11.59 -8.42,1.86z"/>
  <path class="fil2p" d="M1713.65 3374.21c8.42,22.32 10.97,13.97 18.72,-0.77 0.05,-0.09 0.04,-6.91 -6.61,-2.3 -0.13,0.1 -15.15,-5.01 -12.11,3.07z"/>
  <path class="fil2p" d="M1720.12 3407.06c-2.83,-25.59 33.08,-21.05 16.91,1.06 -9.42,12.88 -16.88,-0.78 -16.91,-1.06z"/>
  <path class="fil2p" d="M1740.07 3382.4c7.51,18.3 9.21,10.43 26.67,15.81 0.85,-0.97 -9.14,-18.08 -18.25,-17.67 -6.33,0.29 -13.94,-11.59 -8.42,1.86z"/>
  <path class="fil2p" d="M1750.31 3411.72c8.42,22.32 10.97,13.97 18.72,-0.77 0.04,-0.09 0.04,-6.91 -6.61,-2.3 -0.14,0.09 -15.16,-5.01 -12.11,3.07z"/>
  <path class="fil2p" d="M1740.8 3365.86c-2.83,-25.59 33.08,-21.05 16.9,1.06 -9.42,12.88 -16.88,-0.78 -16.9,-1.06z"/>
  <path class="fil2p" d="M1764.33 3346.81c7.52,18.3 9.21,10.43 26.67,15.81 0.85,-0.97 -9.14,-18.08 -18.25,-17.67 -6.33,0.29 -13.95,-11.59 -8.42,1.86z"/>
  <path class="fil2p" d="M1763.05 3371.88c8.42,22.32 10.97,13.97 18.72,-0.77 0.05,-0.09 0.04,-6.91 -6.61,-2.3 -0.13,0.1 -15.16,-5.01 -12.11,3.07z"/>
  <path class="fil2p" d="M1725.51 3316.21c13.82,21.72 -20.41,33.48 -15.64,6.5 2.77,-15.71 15.49,-6.74 15.64,-6.5z"/>
  <path class="fil2p" d="M1739.67 3309.76c-1.72,19.71 3.4,13.5 16.45,26.29 1.2,-0.48 0.18,-20.26 -8.11,-24.08 -5.75,-2.65 -7.08,-16.69 -8.34,-2.21z"/>
  <path class="fil2p" d="M1733.81 3335.19c-2.76,23.7 3.34,17.44 16.99,7.9 0.08,-0.05 3.21,-6.12 -4.82,-5.07 -0.16,0.02 -11.17,-11.4 -12.17,-2.83z"/>
  <path class="fil2p" d="M1660.56 3262.43c-2.83,-25.59 33.08,-21.06 16.9,1.06 -9.42,12.88 -16.87,-0.78 -16.9,-1.06z"/>
  <path class="fil2p" d="M1680.5 3237.76c7.51,18.3 9.21,10.43 26.68,15.81 0.85,-0.97 -9.14,-18.08 -18.26,-17.67 -6.33,0.28 -13.94,-11.58 -8.42,1.86z"/>
  <path class="fil2p" d="M1686.96 3263.04c8.42,22.32 10.97,13.97 18.72,-0.77 0.05,-0.09 0.04,-6.91 -6.61,-2.3 -0.14,0.1 -15.16,-5.01 -12.11,3.07z"/>
  <path class="fil2p" d="M1693.43 3295.89c-2.83,-25.59 33.08,-21.06 16.9,1.06 -9.42,12.88 -16.87,-0.78 -16.9,-1.06z"/>
  <path class="fil2p" d="M1713.38 3271.23c7.51,18.3 9.21,10.43 26.68,15.81 0.85,-0.97 -9.14,-18.08 -18.26,-17.67 -6.33,0.28 -13.94,-11.59 -8.42,1.86z"/>
  <path class="fil2p" d="M1719.84 3296.51c8.42,22.32 10.97,13.96 18.72,-0.77 0.05,-0.09 0.04,-6.91 -6.61,-2.3 -0.14,0.09 -15.16,-5.01 -12.11,3.07z"/>
  <path class="fil2p" d="M1714.11 3254.69c-2.83,-25.59 33.08,-21.06 16.9,1.06 -9.42,12.88 -16.88,-0.78 -16.9,-1.06z"/>
  <path class="fil2p" d="M1737.64 3235.65c7.52,18.3 9.22,10.43 26.68,15.81 0.85,-0.97 -9.14,-18.08 -18.25,-17.67 -6.33,0.28 -13.94,-11.59 -8.42,1.86z"/>
  <path class="fil2p" d="M1736.36 3260.71c8.42,22.32 10.97,13.97 18.72,-0.77 0.05,-0.09 0.04,-6.91 -6.61,-2.3 -0.13,0.09 -15.16,-5.01 -12.11,3.07z"/>
  <path class="fil2p" d="M1698.82 3205.04c13.82,21.72 -20.41,33.48 -15.64,6.5 2.78,-15.71 15.49,-6.73 15.64,-6.5z"/>
  <path class="fil2p" d="M1712.98 3198.6c-1.72,19.71 3.4,13.49 16.45,26.29 1.2,-0.48 0.17,-20.26 -8.11,-24.08 -5.75,-2.65 -7.08,-16.69 -8.34,-2.21z"/>
  <path class="fil2p" d="M1707.12 3224.02c-2.76,23.7 3.34,17.44 16.99,7.91 0.08,-0.05 3.2,-6.12 -4.82,-5.07 -0.16,0.02 -11.17,-11.41 -12.17,-2.83z"/>
  <path class="fil2p" d="M1813.45 3245.95c25.02,6.06 8.51,38.28 -6.77,15.53 -8.89,-13.24 6.49,-15.59 6.77,-15.53z"/>
  <path class="fil2p" d="M1829.83 3273.11c-19.77,0.82 -12.94,5.11 -23.96,19.68 0.63,1.13 20.11,-2.42 22.84,-11.13 1.89,-6.05 15.64,-9.16 1.12,-8.55z"/>
  <path class="fil2p" d="M1803.87 3270.56c-23.86,0.3 -16.87,5.55 -5.66,17.86 0.06,0.07 6.48,2.39 4.42,-5.43 -0.04,-0.16 9.88,-12.54 1.25,-12.43z"/>
  <path class="fil2p" d="M1770.78 3265.44c25.02,6.07 8.51,38.28 -6.76,15.53 -8.89,-13.24 6.49,-15.6 6.76,-15.53z"/>
  <path class="fil2p" d="M1787.16 3292.6c-19.77,0.82 -12.95,5.11 -23.96,19.68 0.63,1.13 20.11,-2.42 22.84,-11.13 1.89,-6.05 15.64,-9.16 1.12,-8.55z"/>
  <path class="fil2p" d="M1761.19 3290.05c-23.86,0.3 -16.87,5.55 -5.66,17.86 0.07,0.07 6.48,2.39 4.41,-5.43 -0.04,-0.16 9.88,-12.54 1.25,-12.43z"/>
  <path class="fil2p" d="M1788.98 3318.03c0.02,-25.74 35.21,-17.27 16.68,2.92 -10.78,11.76 -16.68,-2.64 -16.68,-2.92z"/>
  <path class="fil2p" d="M1815.84 3332.99c-17.84,-8.55 -13.83,-1.56 -30.39,6.15 0.02,1.29 18.9,7.29 25.39,0.88 4.51,-4.45 18.11,-0.75 5,-7.03z"/>
  <path class="fil2p" d="M1780.71 3318.47c-23.85,0.3 -16.87,5.55 -5.66,17.86 0.07,0.07 6.48,2.39 4.41,-5.43 -0.04,-0.16 9.88,-12.54 1.25,-12.43z"/>
  <path class="fil2p" d="M1854.34 3301.48c-25.13,5.59 -24.52,-30.61 -0.77,-16.92 13.82,7.97 1.05,16.86 0.77,16.92z"/>
  <path class="fil2p" d="M1855.57 3316.99c-17.94,-8.34 -13.85,-1.4 -30.32,6.5 0.04,1.3 18.98,7.08 25.4,0.59 4.46,-4.5 18.1,-0.96 4.92,-7.09z"/>
  <path class="fil2p" d="M1833.67 3302.82c-21.34,-10.68 -17.54,-2.81 -13.23,13.28 0.02,0.09 4.66,5.1 6.41,-2.8 0.03,-0.16 14.53,-6.61 6.81,-10.47z"/>
  <path class="fil2p" d="M1741.32 3221.63c-2.83,-25.59 33.08,-21.06 16.9,1.06 -9.41,12.88 -16.87,-0.79 -16.9,-1.06z"/>
  <path class="fil2p" d="M1761.27 3196.97c7.52,18.3 9.22,10.43 26.68,15.81 0.85,-0.98 -9.14,-18.08 -18.25,-17.67 -6.33,0.28 -13.94,-11.59 -8.42,1.86z"/>
  <path class="fil2p" d="M1764.05 3225.6c8.42,22.32 10.97,13.97 18.72,-0.77 0.05,-0.09 0.04,-6.91 -6.61,-2.3 -0.14,0.09 -15.16,-5.01 -12.11,3.07z"/>
  <path class="fil2p" d="M1774.2 3255.1c-2.83,-25.59 33.08,-21.05 16.9,1.06 -9.41,12.88 -16.87,-0.78 -16.9,-1.06z"/>
  <path class="fil2p" d="M1794.19 3230.17c12.28,15.51 11.73,7.48 30,7.83 0.55,-1.17 -13.78,-14.86 -22.42,-11.94 -6.01,2.02 -16.6,-7.28 -7.58,4.12z"/>
  <path class="fil2p" d="M1731.59 3192.77c8.42,22.32 10.97,13.97 18.73,-0.77 0.04,-0.09 0.04,-6.91 -6.61,-2.3 -0.13,0.1 -15.16,-5.01 -12.11,3.07z"/>
  <path class="fil2p" d="M1794.88 3213.89c-2.83,-25.59 33.08,-21.05 16.9,1.06 -9.42,12.88 -16.87,-0.78 -16.9,-1.06z"/>
  <path class="fil2p" d="M1818.41 3194.85c7.51,18.3 9.21,10.43 26.68,15.81 0.85,-0.98 -9.14,-18.08 -18.26,-17.68 -6.33,0.29 -13.94,-11.58 -8.42,1.86z"/>
  <path class="fil2p" d="M1821.21 3220.05c8.42,22.32 10.97,13.96 18.72,-0.77 0.05,-0.09 0.04,-6.91 -6.61,-2.3 -0.13,0.09 -15.16,-5.01 -12.11,3.07z"/>
  <path class="fil2p" d="M1779.59 3164.25c13.82,21.72 -20.41,33.48 -15.64,6.5 2.78,-15.71 15.49,-6.74 15.64,-6.5z"/>
  <path class="fil2p" d="M1787.89 3183.23c-2.76,23.7 3.34,17.44 16.99,7.91 0.08,-0.05 3.2,-6.12 -4.82,-5.07 -0.16,0.02 -11.17,-11.41 -12.17,-2.83z"/>
  <path class="fil2p" d="M1834.59 3260.2c7.51,18.3 9.21,10.43 26.67,15.81 0.85,-0.98 -9.14,-18.08 -18.25,-17.67 -6.33,0.28 -13.94,-11.59 -8.42,1.86z"/>
  <path class="fil2p" d="M1867.51 3293.39c12.28,15.51 11.74,7.48 30,7.83 0.55,-1.17 -13.78,-14.86 -22.42,-11.94 -6.01,2.02 -16.6,-7.28 -7.58,4.12z"/>
  <path class="fil2p" d="M1868.19 3277.12c-2.83,-25.59 33.08,-21.05 16.9,1.06 -9.41,12.88 -16.87,-0.78 -16.9,-1.06z"/>
  <path class="fil2p" d="M1891.72 3258.08c7.52,18.3 9.21,10.43 26.68,15.81 0.85,-0.97 -9.14,-18.08 -18.25,-17.67 -6.33,0.28 -13.94,-11.59 -8.42,1.86z"/>
  <path class="fil2p" d="M1894.53 3283.28c8.42,22.32 10.97,13.96 18.72,-0.77 0.04,-0.09 0.04,-6.91 -6.61,-2.3 -0.14,0.09 -15.16,-5.01 -12.11,3.07z"/>
  <path class="fil2p" d="M1852.9 3227.48c13.82,21.72 -20.41,33.48 -15.64,6.5 2.78,-15.71 15.49,-6.74 15.64,-6.5z"/>
  <path class="fil2p" d="M1861.2 3246.45c-2.76,23.7 3.34,17.44 16.99,7.91 0.08,-0.06 3.2,-6.12 -4.82,-5.08 -0.16,0.02 -11.17,-11.4 -12.17,-2.83z"/>
  <path class="fil2p" d="M1622.01 3307.79c7.52,18.3 9.22,10.43 26.68,15.81 0.85,-0.97 -9.14,-18.08 -18.26,-17.68 -6.33,0.29 -13.94,-11.58 -8.42,1.87z"/>
  <path class="fil2p" d="M1654.94 3340.99c12.28,15.52 11.74,7.48 30.01,7.83 0.55,-1.17 -13.78,-14.86 -22.43,-11.95 -6,2.02 -16.6,-7.28 -7.58,4.12z"/>
  <path class="fil2p" d="M1655.62 3324.72c-2.83,-25.59 33.08,-21.06 16.9,1.06 -9.42,12.88 -16.87,-0.79 -16.9,-1.06z"/>
  <path class="fil2p" d="M1679.15 3305.68c7.52,18.3 9.21,10.43 26.67,15.81 0.85,-0.97 -9.13,-18.08 -18.25,-17.67 -6.33,0.28 -13.94,-11.59 -8.42,1.86z"/>
  <path class="fil2p" d="M1681.96 3330.87c8.42,22.32 10.97,13.97 18.72,-0.77 0.05,-0.09 0.04,-6.91 -6.61,-2.3 -0.13,0.1 -15.16,-5.01 -12.11,3.07z"/>
  <path class="fil2p" d="M1640.33 3275.07c13.82,21.72 -20.41,33.48 -15.64,6.5 2.78,-15.71 15.49,-6.74 15.64,-6.5z"/>
  <path class="fil2p" d="M1648.63 3294.05c-2.76,23.7 3.34,17.44 16.99,7.91 0.08,-0.05 3.2,-6.12 -4.82,-5.07 -0.17,0.02 -11.17,-11.41 -12.17,-2.83z"/>
  <path class="fil2p" d="M1691.07 3279.61c-14.14,-19.21 -14.34,-10.47 -17.82,5.81 -0.02,0.09 1.84,6.66 6.99,0.42 0.11,-0.13 15.94,0.72 10.83,-6.23z"/>
  <path class="fil2p" d="M1644.7 3263.01c0.13,19.79 4.65,13.12 18.83,24.64 1.15,-0.59 -1.72,-20.19 -10.33,-23.22 -5.98,-2.1 -8.6,-15.96 -8.51,-1.42z"/>
  <path class="fil2p" d="M1520.86 3537.4c-2.83,-25.59 33.08,-21.06 16.9,1.06 -9.42,12.88 -16.88,-0.78 -16.9,-1.06z"/>
  <path class="fil2p" d="M1540.81 3512.74c7.52,18.3 9.22,10.43 26.68,15.81 0.85,-0.97 -9.14,-18.08 -18.25,-17.67 -6.33,0.28 -13.94,-11.59 -8.42,1.86z"/>
  <path class="fil2p" d="M1547.26 3538.01c8.42,22.32 10.97,13.97 18.73,-0.77 0.04,-0.09 0.04,-6.91 -6.61,-2.3 -0.13,0.09 -15.16,-5.01 -12.11,3.07z"/>
  <path class="fil2p" d="M1553.74 3570.86c-2.83,-25.59 33.08,-21.05 16.9,1.06 -9.42,12.88 -16.88,-0.78 -16.9,-1.06z"/>
  <path class="fil2p" d="M1573.68 3546.2c7.52,18.3 9.22,10.43 26.68,15.81 0.85,-0.97 -9.14,-18.08 -18.25,-17.67 -6.33,0.28 -13.94,-11.59 -8.42,1.86z"/>
  <path class="fil2p" d="M1580.14 3571.48c8.42,22.32 10.97,13.97 18.72,-0.77 0.04,-0.09 0.04,-6.91 -6.61,-2.3 -0.13,0.1 -15.16,-5.01 -12.11,3.07z"/>
  <path class="fil2p" d="M1574.41 3529.66c-2.83,-25.59 33.08,-21.05 16.9,1.06 -9.42,12.88 -16.87,-0.78 -16.9,-1.06z"/>
  <path class="fil2p" d="M1597.95 3510.62c7.52,18.3 9.21,10.43 26.67,15.81 0.85,-0.97 -9.14,-18.08 -18.25,-17.67 -6.33,0.28 -13.94,-11.59 -8.42,1.86z"/>
  <path class="fil2p" d="M1596.66 3535.68c8.42,22.32 10.97,13.97 18.72,-0.77 0.05,-0.09 0.04,-6.91 -6.61,-2.3 -0.14,0.1 -15.16,-5.01 -12.11,3.07z"/>
  <path class="fil2p" d="M1559.12 3480.01c13.82,21.72 -20.41,33.48 -15.64,6.5 2.77,-15.71 15.49,-6.73 15.64,-6.5z"/>
  <path class="fil2p" d="M1573.28 3473.57c-1.72,19.71 3.4,13.49 16.45,26.29 1.2,-0.48 0.17,-20.26 -8.11,-24.08 -5.75,-2.65 -7.07,-16.69 -8.34,-2.21z"/>
  <path class="fil2p" d="M1567.43 3498.99c-2.76,23.7 3.34,17.44 16.99,7.91 0.08,-0.05 3.2,-6.12 -4.82,-5.08 -0.16,0.02 -11.17,-11.4 -12.17,-2.83z"/>
  <path class="fil2p" d="M1494.17 3426.23c-2.83,-25.59 33.08,-21.05 16.9,1.06 -9.42,12.88 -16.87,-0.78 -16.9,-1.06z"/>
  <path class="fil2p" d="M1514.12 3401.57c7.51,18.3 9.21,10.43 26.68,15.81 0.85,-0.98 -9.14,-18.08 -18.26,-17.68 -6.33,0.28 -13.94,-11.58 -8.42,1.87z"/>
  <path class="fil2p" d="M1520.58 3426.85c8.42,22.32 10.97,13.97 18.72,-0.77 0.05,-0.09 0.04,-6.91 -6.61,-2.3 -0.14,0.09 -15.16,-5.01 -12.11,3.07z"/>
  <path class="fil2p" d="M1527.05 3459.7c-2.83,-25.59 33.08,-21.06 16.9,1.06 -9.42,12.88 -16.87,-0.78 -16.9,-1.06z"/>
  <path class="fil2p" d="M1546.99 3435.04c7.51,18.3 9.21,10.43 26.68,15.81 0.85,-0.97 -9.14,-18.08 -18.26,-17.67 -6.33,0.28 -13.94,-11.59 -8.42,1.86z"/>
  <path class="fil2p" d="M1553.45 3460.32c8.42,22.32 10.97,13.97 18.72,-0.77 0.05,-0.09 0.04,-6.91 -6.61,-2.3 -0.14,0.1 -15.16,-5.01 -12.11,3.07z"/>
  <path class="fil2p" d="M1547.72 3418.49c-2.83,-25.59 33.08,-21.06 16.91,1.06 -9.42,12.88 -16.88,-0.78 -16.91,-1.06z"/>
  <path class="fil2p" d="M1571.26 3399.45c7.52,18.3 9.21,10.43 26.67,15.81 0.85,-0.97 -9.14,-18.08 -18.25,-17.67 -6.33,0.28 -13.94,-11.59 -8.42,1.86z"/>
  <path class="fil2p" d="M1569.97 3424.51c8.42,22.32 10.97,13.97 18.73,-0.77 0.05,-0.09 0.04,-6.91 -6.61,-2.3 -0.13,0.1 -15.16,-5.01 -12.11,3.07z"/>
  <path class="fil2p" d="M1532.43 3368.85c13.82,21.72 -20.41,33.48 -15.64,6.5 2.78,-15.71 15.49,-6.74 15.64,-6.5z"/>
  <path class="fil2p" d="M1546.6 3362.41c-1.72,19.71 3.4,13.49 16.45,26.28 1.2,-0.47 0.17,-20.26 -8.11,-24.08 -5.75,-2.65 -7.08,-16.69 -8.34,-2.21z"/>
  <path class="fil2p" d="M1540.74 3387.83c-2.76,23.7 3.34,17.44 16.99,7.91 0.08,-0.06 3.2,-6.12 -4.82,-5.08 -0.16,0.02 -11.17,-11.4 -12.17,-2.83z"/>
  <path class="fil2p" d="M1647.06 3409.75c25.02,6.07 8.51,38.28 -6.76,15.53 -8.89,-13.24 6.49,-15.6 6.76,-15.53z"/>
  <path class="fil2p" d="M1663.44 3436.91c-19.77,0.82 -12.95,5.11 -23.96,19.68 0.63,1.13 20.11,-2.42 22.84,-11.13 1.89,-6.05 15.64,-9.16 1.12,-8.55z"/>
  <path class="fil2p" d="M1637.48 3434.36c-23.86,0.3 -16.87,5.55 -5.66,17.86 0.06,0.07 6.48,2.39 4.41,-5.43 -0.04,-0.16 9.88,-12.54 1.25,-12.43z"/>
  <path class="fil2p" d="M1604.39 3429.24c25.02,6.07 8.51,38.28 -6.76,15.53 -8.89,-13.24 6.49,-15.6 6.76,-15.53z"/>
  <path class="fil2p" d="M1620.77 3456.41c-19.77,0.82 -12.95,5.11 -23.96,19.68 0.63,1.13 20.11,-2.42 22.84,-11.13 1.89,-6.05 15.64,-9.16 1.12,-8.55z"/>
  <path class="fil2p" d="M1594.81 3453.86c-23.86,0.3 -16.87,5.55 -5.66,17.86 0.06,0.07 6.48,2.39 4.41,-5.43 -0.04,-0.16 9.88,-12.54 1.25,-12.43z"/>
  <path class="fil2p" d="M1622.6 3481.83c0.02,-25.74 35.21,-17.27 16.68,2.92 -10.78,11.76 -16.68,-2.64 -16.68,-2.92z"/>
  <path class="fil2p" d="M1649.45 3496.8c-17.84,-8.55 -13.83,-1.57 -30.39,6.14 0.02,1.29 18.9,7.3 25.39,0.88 4.51,-4.45 18.12,-0.75 5,-7.03z"/>
  <path class="fil2p" d="M1614.33 3482.28c-23.85,0.3 -16.87,5.55 -5.66,17.86 0.07,0.07 6.48,2.39 4.41,-5.43 -0.04,-0.16 9.88,-12.54 1.25,-12.43z"/>
  <path class="fil2p" d="M1687.96 3465.29c-25.13,5.59 -24.51,-30.61 -0.78,-16.92 13.82,7.97 1.05,16.86 0.78,16.92z"/>
  <path class="fil2p" d="M1689.19 3480.8c-17.94,-8.34 -13.85,-1.4 -30.32,6.5 0.04,1.3 18.98,7.07 25.4,0.59 4.45,-4.51 18.1,-0.96 4.92,-7.09z"/>
  <path class="fil2p" d="M1667.28 3466.62c-21.33,-10.67 -17.54,-2.8 -13.23,13.28 0.03,0.09 4.66,5.1 6.41,-2.8 0.04,-0.16 14.53,-6.61 6.81,-10.47z"/>
  <path class="fil2p" d="M1574.93 3385.44c-2.83,-25.59 33.08,-21.05 16.9,1.06 -9.42,12.88 -16.87,-0.78 -16.9,-1.06z"/>
  <path class="fil2p" d="M1594.88 3360.78c7.52,18.3 9.21,10.43 26.68,15.81 0.85,-0.97 -9.14,-18.08 -18.25,-17.67 -6.33,0.28 -13.94,-11.59 -8.42,1.86z"/>
  <path class="fil2p" d="M1597.66 3389.41c8.42,22.32 10.97,13.96 18.72,-0.77 0.05,-0.09 0.04,-6.91 -6.61,-2.3 -0.14,0.09 -15.16,-5.01 -12.11,3.07z"/>
  <path class="fil2p" d="M1607.81 3418.91c-2.83,-25.59 33.08,-21.06 16.9,1.06 -9.41,12.88 -16.87,-0.78 -16.9,-1.06z"/>
  <path class="fil2p" d="M1627.81 3393.97c12.28,15.52 11.73,7.48 30,7.83 0.55,-1.17 -13.78,-14.86 -22.42,-11.95 -6,2.02 -16.6,-7.28 -7.58,4.12z"/>
  <path class="fil2p" d="M1565.21 3356.57c8.42,22.32 10.97,13.96 18.72,-0.77 0.05,-0.08 0.04,-6.91 -6.61,-2.3 -0.13,0.09 -15.16,-5.01 -12.11,3.07z"/>
  <path class="fil2p" d="M1628.49 3377.7c-2.83,-25.59 33.08,-21.05 16.9,1.06 -9.42,12.88 -16.88,-0.78 -16.9,-1.06z"/>
  <path class="fil2p" d="M1652.02 3358.66c7.51,18.3 9.21,10.43 26.67,15.81 0.85,-0.98 -9.13,-18.08 -18.25,-17.68 -6.33,0.28 -13.94,-11.59 -8.42,1.86z"/>
  <path class="fil2p" d="M1654.83 3383.85c8.42,22.32 10.97,13.97 18.73,-0.77 0.04,-0.09 0.04,-6.91 -6.61,-2.3 -0.13,0.1 -15.16,-5.01 -12.11,3.07z"/>
  <path class="fil2p" d="M1613.7 3331.3c13.82,21.72 -20.41,33.48 -15.64,6.5 2.78,-15.71 15.49,-6.74 15.64,-6.5z"/>
  <path class="fil2p" d="M1621.5 3347.03c-2.76,23.7 3.34,17.44 16.99,7.91 0.08,-0.06 3.2,-6.12 -4.82,-5.08 -0.17,0.02 -11.17,-11.4 -12.17,-2.83z"/>
  <path class="fil2p" d="M1668.2 3424c7.51,18.3 9.21,10.43 26.67,15.81 0.85,-0.97 -9.14,-18.08 -18.25,-17.67 -6.33,0.28 -13.94,-11.59 -8.42,1.86z"/>
  <path class="fil2p" d="M1701.12 3457.2c12.28,15.52 11.74,7.48 30.01,7.83 0.55,-1.17 -13.78,-14.86 -22.42,-11.95 -6.01,2.02 -16.6,-7.28 -7.58,4.12z"/>
  <path class="fil2p" d="M1701.81 3440.93c-2.83,-25.59 33.08,-21.05 16.9,1.06 -9.41,12.88 -16.87,-0.78 -16.9,-1.06z"/>
  <path class="fil2p" d="M1725.34 3421.89c7.52,18.3 9.21,10.43 26.67,15.81 0.85,-0.97 -9.14,-18.08 -18.25,-17.67 -6.33,0.28 -13.94,-11.59 -8.42,1.86z"/>
  <path class="fil2p" d="M1728.14 3447.08c8.42,22.32 10.97,13.97 18.72,-0.77 0.04,-0.09 0.04,-6.91 -6.61,-2.3 -0.14,0.1 -15.16,-5.01 -12.11,3.07z"/>
  <path class="fil2p" d="M1686.51 3391.28c13.82,21.72 -20.41,33.48 -15.64,6.5 2.78,-15.71 15.49,-6.74 15.64,-6.5z"/>
  <path class="fil2p" d="M1694.82 3410.26c-2.76,23.7 3.34,17.44 16.99,7.91 0.08,-0.05 3.21,-6.12 -4.82,-5.07 -0.16,0.02 -11.17,-11.4 -12.17,-2.83z"/>
  <path class="fil2p" d="M1455.63 3471.6c7.51,18.3 9.21,10.43 26.68,15.81 0.85,-0.98 -9.14,-18.08 -18.25,-17.68 -6.33,0.28 -13.94,-11.58 -8.42,1.86z"/>
  <path class="fil2p" d="M1488.55 3504.8c12.28,15.51 11.73,7.48 30,7.83 0.55,-1.17 -13.78,-14.86 -22.42,-11.95 -6,2.02 -16.6,-7.28 -7.58,4.12z"/>
  <path class="fil2p" d="M1489.24 3488.52c-2.83,-25.59 33.08,-21.06 16.9,1.06 -9.42,12.88 -16.88,-0.78 -16.9,-1.06z"/>
  <path class="fil2p" d="M1512.77 3469.48c7.51,18.3 9.22,10.43 26.67,15.81 0.85,-0.97 -9.14,-18.08 -18.25,-17.67 -6.33,0.28 -13.94,-11.58 -8.42,1.86z"/>
  <path class="fil2p" d="M1515.58 3494.68c8.42,22.32 10.97,13.96 18.72,-0.77 0.05,-0.09 0.04,-6.91 -6.61,-2.3 -0.13,0.09 -15.16,-5.01 -12.11,3.07z"/>
  <path class="fil2p" d="M1473.95 3438.88c13.82,21.72 -20.41,33.48 -15.64,6.5 2.78,-15.71 15.49,-6.73 15.64,-6.5z"/>
  <path class="fil2p" d="M1482.25 3457.86c-2.76,23.7 3.34,17.44 16.99,7.91 0.08,-0.05 3.2,-6.12 -4.82,-5.07 -0.16,0.02 -11.17,-11.4 -12.17,-2.83z"/>
  <path class="fil2p" d="M1524.68 3443.42c-14.14,-19.21 -14.34,-10.47 -17.82,5.81 -0.02,0.09 1.84,6.66 6.98,0.42 0.11,-0.13 15.95,0.72 10.83,-6.23z"/>
  <path class="fil2p" d="M1478.32 3426.82c0.13,19.78 4.65,13.12 18.83,24.63 1.15,-0.59 -1.72,-20.19 -10.33,-23.22 -5.98,-2.1 -8.6,-15.96 -8.51,-1.42z"/>
  <path class="fil2p" d="M1694.85 3398.23c-2.83,-25.59 33.08,-21.05 16.9,1.06 -9.42,12.88 -16.88,-0.78 -16.9,-1.06z"/>
  <path class="fil2p" d="M1598.18 3305.34c-2.76,23.69 3.34,17.44 16.99,7.91 0.08,-0.05 3.2,-6.12 -4.82,-5.08 -0.16,0.02 -11.17,-11.4 -12.17,-2.83z"/>
  <path class="fil2p" d="M1627.24 3330.64c7.52,18.3 9.21,10.43 26.67,15.81 0.85,-0.97 -9.14,-18.08 -18.25,-17.67 -6.33,0.28 -13.94,-11.59 -8.42,1.86z"/>
  <path class="fil2p" d="M1866.48 3486.36c-2.83,-25.59 33.08,-21.05 16.9,1.06 -9.41,12.88 -16.87,-0.78 -16.9,-1.06z"/>
  <path class="fil2p" d="M1886.43 3461.7c7.52,18.3 9.21,10.43 26.67,15.81 0.85,-0.97 -9.14,-18.08 -18.25,-17.68 -6.33,0.28 -13.94,-11.58 -8.42,1.87z"/>
  <path class="fil2p" d="M1892.88 3486.97c8.42,22.32 10.97,13.97 18.72,-0.77 0.04,-0.09 0.04,-6.91 -6.61,-2.3 -0.13,0.09 -15.16,-5.01 -12.11,3.07z"/>
  <path class="fil2p" d="M1899.36 3519.82c-2.83,-25.59 33.08,-21.06 16.9,1.06 -9.41,12.88 -16.87,-0.78 -16.9,-1.06z"/>
  <path class="fil2p" d="M1919.3 3495.16c7.52,18.3 9.21,10.43 26.67,15.81 0.85,-0.97 -9.14,-18.08 -18.25,-17.67 -6.33,0.28 -13.94,-11.59 -8.42,1.86z"/>
  <path class="fil2p" d="M1925.76 3520.44c8.42,22.32 10.97,13.97 18.72,-0.77 0.05,-0.09 0.04,-6.91 -6.61,-2.3 -0.13,0.1 -15.16,-5.01 -12.11,3.07z"/>
  <path class="fil2p" d="M1920.04 3478.62c-2.83,-25.59 33.08,-21.06 16.9,1.06 -9.41,12.88 -16.87,-0.78 -16.9,-1.06z"/>
  <path class="fil2p" d="M1943.57 3459.58c7.51,18.3 9.21,10.43 26.68,15.81 0.85,-0.97 -9.14,-18.08 -18.26,-17.67 -6.33,0.28 -13.94,-11.59 -8.42,1.86z"/>
  <path class="fil2p" d="M1942.28 3484.64c8.42,22.32 10.97,13.97 18.72,-0.77 0.04,-0.09 0.04,-6.91 -6.61,-2.3 -0.14,0.1 -15.16,-5.01 -12.11,3.07z"/>
  <path class="fil2p" d="M1904.74 3428.97c13.82,21.72 -20.41,33.48 -15.64,6.5 2.78,-15.71 15.49,-6.73 15.64,-6.5z"/>
  <path class="fil2p" d="M1918.9 3422.53c-1.72,19.71 3.4,13.49 16.45,26.28 1.2,-0.47 0.18,-20.26 -8.11,-24.08 -5.76,-2.65 -7.08,-16.69 -8.34,-2.21z"/>
  <path class="fil2p" d="M1913.05 3447.95c-2.76,23.7 3.34,17.44 16.99,7.91 0.08,-0.06 3.2,-6.12 -4.82,-5.08 -0.16,0.02 -11.17,-11.4 -12.17,-2.83z"/>
  <path class="fil2p" d="M1839.79 3375.19c-2.83,-25.59 33.08,-21.05 16.9,1.06 -9.42,12.88 -16.88,-0.78 -16.9,-1.06z"/>
  <path class="fil2p" d="M1851.19 3340.45c7.51,18.3 9.21,10.43 26.67,15.81 0.85,-0.97 -9.14,-18.08 -18.25,-17.67 -6.33,0.28 -13.94,-11.59 -8.42,1.86z"/>
  <path class="fil2p" d="M1866.2 3375.8c8.42,22.32 10.97,13.97 18.72,-0.77 0.04,-0.09 0.04,-6.91 -6.61,-2.3 -0.13,0.09 -15.16,-5.01 -12.11,3.07z"/>
  <path class="fil2p" d="M1872.66 3408.66c-2.83,-25.59 33.08,-21.06 16.9,1.06 -9.42,12.88 -16.88,-0.78 -16.9,-1.06z"/>
  <path class="fil2p" d="M1892.61 3384c7.52,18.3 9.22,10.43 26.67,15.81 0.85,-0.98 -9.14,-18.08 -18.25,-17.67 -6.33,0.28 -13.94,-11.58 -8.42,1.86z"/>
  <path class="fil2p" d="M1899.07 3409.27c8.42,22.32 10.97,13.97 18.72,-0.77 0.04,-0.09 0.04,-6.91 -6.61,-2.3 -0.13,0.09 -15.15,-5.01 -12.11,3.07z"/>
  <path class="fil2p" d="M1893.35 3367.45c-2.83,-25.59 33.08,-21.05 16.9,1.06 -9.41,12.88 -16.87,-0.78 -16.9,-1.06z"/>
  <path class="fil2p" d="M1916.88 3348.41c7.51,18.3 9.21,10.43 26.67,15.81 0.85,-0.98 -9.14,-18.08 -18.25,-17.67 -6.33,0.28 -13.94,-11.58 -8.42,1.86z"/>
  <path class="fil2p" d="M1915.59 3373.47c8.42,22.32 10.97,13.97 18.72,-0.77 0.04,-0.09 0.04,-6.91 -6.61,-2.3 -0.13,0.09 -15.16,-5.01 -12.11,3.07z"/>
  <path class="fil2p" d="M1878.05 3317.81c13.82,21.72 -20.41,33.48 -15.64,6.5 2.78,-15.71 15.49,-6.73 15.64,-6.5z"/>
  <path class="fil2p" d="M1892.21 3311.36c-1.72,19.71 3.4,13.49 16.45,26.29 1.2,-0.48 0.17,-20.26 -8.11,-24.08 -5.76,-2.65 -7.08,-16.69 -8.34,-2.21z"/>
  <path class="fil2p" d="M1886.36 3336.79c-2.76,23.7 3.34,17.44 16.99,7.91 0.08,-0.06 3.2,-6.12 -4.82,-5.08 -0.16,0.02 -11.17,-11.4 -12.17,-2.83z"/>
  <path class="fil2p" d="M1992.68 3358.71c25.02,6.07 8.51,38.28 -6.76,15.53 -8.89,-13.24 6.49,-15.59 6.76,-15.53z"/>
  <path class="fil2p" d="M2009.06 3385.87c-19.77,0.82 -12.94,5.11 -23.96,19.68 0.62,1.13 20.11,-2.42 22.84,-11.13 1.89,-6.05 15.64,-9.16 1.12,-8.55z"/>
  <path class="fil2p" d="M1983.1 3383.32c-23.86,0.3 -16.87,5.55 -5.66,17.86 0.07,0.07 6.48,2.39 4.41,-5.43 -0.04,-0.16 9.88,-12.54 1.25,-12.43z"/>
  <path class="fil2p" d="M1950.01 3378.2c25.02,6.07 8.52,38.28 -6.76,15.53 -8.89,-13.24 6.49,-15.6 6.76,-15.53z"/>
  <path class="fil2p" d="M1966.39 3405.36c-19.77,0.82 -12.95,5.11 -23.96,19.69 0.63,1.13 20.11,-2.43 22.84,-11.13 1.89,-6.05 15.64,-9.16 1.12,-8.55z"/>
  <path class="fil2p" d="M1940.42 3402.82c-23.85,0.3 -16.87,5.55 -5.66,17.86 0.07,0.07 6.48,2.39 4.41,-5.43 -0.04,-0.16 9.88,-12.54 1.25,-12.43z"/>
  <path class="fil2p" d="M1968.22 3430.79c0.02,-25.74 35.2,-17.27 16.68,2.93 -10.78,11.76 -16.68,-2.64 -16.68,-2.93z"/>
  <path class="fil2p" d="M1995.08 3445.76c-17.84,-8.55 -13.83,-1.57 -30.39,6.14 0.02,1.3 18.9,7.3 25.39,0.89 4.51,-4.46 18.11,-0.75 5,-7.03z"/>
  <path class="fil2p" d="M1959.95 3431.24c-23.86,0.3 -16.87,5.55 -5.66,17.86 0.06,0.07 6.48,2.39 4.41,-5.43 -0.04,-0.16 9.88,-12.54 1.25,-12.43z"/>
  <path class="fil2p" d="M2033.58 3414.25c-25.13,5.58 -24.52,-30.61 -0.78,-16.92 13.82,7.97 1.05,16.86 0.78,16.92z"/>
  <path class="fil2p" d="M2034.81 3429.76c-17.94,-8.34 -13.85,-1.4 -30.32,6.5 0.04,1.29 18.99,7.07 25.4,0.59 4.45,-4.51 18.1,-0.96 4.92,-7.09z"/>
  <path class="fil2p" d="M2012.9 3415.58c-21.33,-10.67 -17.53,-2.81 -13.22,13.27 0.03,0.09 4.66,5.1 6.41,-2.8 0.04,-0.16 14.53,-6.61 6.81,-10.47z"/>
  <path class="fil2p" d="M1920.56 3334.4c-2.83,-25.59 33.08,-21.06 16.9,1.06 -9.42,12.88 -16.88,-0.78 -16.9,-1.06z"/>
  <path class="fil2p" d="M1940.5 3309.74c7.51,18.3 9.21,10.43 26.67,15.81 0.85,-0.97 -9.14,-18.08 -18.25,-17.67 -6.33,0.28 -13.94,-11.59 -8.42,1.86z"/>
  <path class="fil2p" d="M1943.28 3338.37c8.42,22.32 10.97,13.97 18.72,-0.77 0.04,-0.09 0.04,-6.91 -6.61,-2.3 -0.14,0.09 -15.16,-5.01 -12.11,3.07z"/>
  <path class="fil2p" d="M1953.43 3367.86c-2.83,-25.59 33.08,-21.05 16.9,1.06 -9.42,12.88 -16.87,-0.78 -16.9,-1.06z"/>
  <path class="fil2p" d="M1973.42 3342.93c12.28,15.52 11.74,7.48 30,7.83 0.55,-1.17 -13.78,-14.86 -22.42,-11.95 -6.01,2.02 -16.6,-7.28 -7.58,4.12z"/>
  <path class="fil2p" d="M1910.83 3305.53c8.42,22.32 10.97,13.97 18.72,-0.77 0.05,-0.09 0.04,-6.91 -6.61,-2.3 -0.13,0.09 -15.16,-5.01 -12.11,3.07z"/>
  <path class="fil2p" d="M1974.11 3326.66c-2.83,-25.59 33.08,-21.05 16.91,1.06 -9.42,12.88 -16.88,-0.78 -16.91,-1.06z"/>
  <path class="fil2p" d="M1997.64 3307.62c7.52,18.3 9.21,10.43 26.68,15.81 0.85,-0.97 -9.14,-18.08 -18.25,-17.67 -6.33,0.28 -13.95,-11.59 -8.42,1.86z"/>
  <path class="fil2p" d="M2000.45 3332.81c8.42,22.32 10.97,13.97 18.72,-0.77 0.04,-0.09 0.04,-6.91 -6.61,-2.3 -0.13,0.1 -15.16,-5.01 -12.11,3.07z"/>
  <path class="fil2p" d="M1958.82 3277.01c13.82,21.72 -20.41,33.48 -15.64,6.5 2.78,-15.71 15.49,-6.73 15.64,-6.5z"/>
  <path class="fil2p" d="M1967.12 3295.99c-2.76,23.7 3.34,17.44 16.99,7.91 0.08,-0.06 3.2,-6.12 -4.82,-5.08 -0.16,0.02 -11.17,-11.4 -12.17,-2.83z"/>
  <path class="fil2p" d="M2013.82 3372.96c7.52,18.3 9.21,10.43 26.67,15.81 0.85,-0.97 -9.14,-18.08 -18.25,-17.68 -6.33,0.29 -13.95,-11.58 -8.42,1.87z"/>
  <path class="fil2p" d="M2046.74 3406.16c12.28,15.52 11.74,7.48 30,7.83 0.55,-1.17 -13.78,-14.86 -22.42,-11.95 -6.01,2.02 -16.6,-7.28 -7.58,4.12z"/>
  <path class="fil2p" d="M2047.43 3389.89c-2.83,-25.59 33.08,-21.06 16.9,1.06 -9.42,12.88 -16.87,-0.78 -16.9,-1.06z"/>
  <path class="fil2p" d="M2070.96 3370.85c7.51,18.3 9.22,10.43 26.68,15.81 0.85,-0.98 -9.14,-18.08 -18.26,-17.67 -6.33,0.28 -13.94,-11.59 -8.42,1.86z"/>
  <path class="fil2p" d="M2073.76 3396.04c8.42,22.32 10.97,13.97 18.72,-0.77 0.04,-0.09 0.04,-6.91 -6.61,-2.3 -0.14,0.1 -15.16,-5.01 -12.11,3.07z"/>
  <path class="fil2p" d="M2032.13 3340.24c13.82,21.72 -20.41,33.48 -15.64,6.5 2.78,-15.71 15.49,-6.73 15.64,-6.5z"/>
  <path class="fil2p" d="M2040.44 3359.22c-2.76,23.7 3.34,17.44 16.99,7.91 0.08,-0.05 3.2,-6.12 -4.82,-5.08 -0.16,0.02 -11.17,-11.4 -12.17,-2.83z"/>
  <path class="fil2p" d="M1801.25 3420.55c7.51,18.3 9.21,10.43 26.67,15.81 0.85,-0.98 -9.14,-18.08 -18.25,-17.67 -6.33,0.28 -13.94,-11.59 -8.42,1.86z"/>
  <path class="fil2p" d="M1834.17 3453.75c12.28,15.51 11.74,7.48 30,7.83 0.55,-1.17 -13.77,-14.85 -22.42,-11.94 -6.01,2.02 -16.6,-7.28 -7.58,4.12z"/>
  <path class="fil2p" d="M1834.86 3437.48c-2.83,-25.59 33.08,-21.05 16.9,1.07 -9.42,12.87 -16.88,-0.78 -16.9,-1.07z"/>
  <path class="fil2p" d="M1858.39 3418.44c7.52,18.3 9.21,10.43 26.68,15.81 0.85,-0.97 -9.14,-18.08 -18.25,-17.68 -6.33,0.29 -13.94,-11.58 -8.42,1.87z"/>
  <path class="fil2p" d="M1861.19 3443.63c8.42,22.32 10.97,13.96 18.72,-0.77 0.05,-0.08 0.04,-6.91 -6.61,-2.3 -0.13,0.09 -15.16,-5.01 -12.11,3.07z"/>
  <path class="fil2p" d="M1819.57 3387.84c13.82,21.72 -20.41,33.48 -15.64,6.5 2.78,-15.71 15.49,-6.74 15.64,-6.5z"/>
  <path class="fil2p" d="M1827.87 3406.82c-2.76,23.7 3.34,17.44 16.99,7.91 0.08,-0.05 3.2,-6.12 -4.82,-5.07 -0.16,0.02 -11.17,-11.41 -12.17,-2.83z"/>
  <path class="fil2p" d="M1870.3 3392.38c-14.14,-19.21 -14.34,-10.47 -17.82,5.8 -0.02,0.1 1.83,6.66 6.99,0.43 0.11,-0.13 15.95,0.72 10.83,-6.23z"/>
  <path class="fil2p" d="M1823.93 3375.78c0.13,19.78 4.65,13.12 18.84,24.63 1.15,-0.59 -1.72,-20.18 -10.32,-23.21 -5.98,-2.1 -8.6,-15.96 -8.51,-1.42z"/>
  <path class="fil2p" d="M1700.1 3650.16c-2.83,-25.59 33.08,-21.05 16.9,1.06 -9.41,12.88 -16.87,-0.78 -16.9,-1.06z"/>
  <path class="fil2p" d="M1720.04 3625.5c7.51,18.3 9.21,10.43 26.67,15.81 0.85,-0.98 -9.14,-18.08 -18.25,-17.67 -6.33,0.28 -13.94,-11.58 -8.42,1.86z"/>
  <path class="fil2p" d="M1726.5 3650.78c8.42,22.32 10.97,13.97 18.72,-0.77 0.04,-0.09 0.04,-6.91 -6.61,-2.3 -0.13,0.1 -15.16,-5.01 -12.11,3.07z"/>
  <path class="fil2p" d="M1732.97 3683.63c-2.83,-25.59 33.08,-21.06 16.9,1.06 -9.41,12.88 -16.87,-0.78 -16.9,-1.06z"/>
  <path class="fil2p" d="M1752.92 3658.97c7.51,18.3 9.21,10.43 26.67,15.81 0.85,-0.98 -9.14,-18.08 -18.25,-17.67 -6.33,0.28 -13.94,-11.59 -8.42,1.86z"/>
  <path class="fil2p" d="M1759.38 3684.24c8.42,22.32 10.97,13.97 18.72,-0.77 0.04,-0.09 0.04,-6.91 -6.61,-2.3 -0.13,0.1 -15.16,-5.01 -12.11,3.07z"/>
  <path class="fil2p" d="M1753.65 3642.43c-2.83,-25.59 33.08,-21.06 16.9,1.06 -9.42,12.88 -16.87,-0.79 -16.9,-1.06z"/>
  <path class="fil2p" d="M1777.18 3623.38c7.51,18.3 9.21,10.43 26.68,15.81 0.85,-0.98 -9.14,-18.08 -18.26,-17.67 -6.33,0.28 -13.94,-11.59 -8.42,1.86z"/>
  <path class="fil2p" d="M1775.9 3648.45c8.42,22.32 10.97,13.97 18.72,-0.77 0.05,-0.09 0.04,-6.91 -6.61,-2.3 -0.14,0.09 -15.16,-5.01 -12.11,3.07z"/>
  <path class="fil2p" d="M1738.36 3592.78c13.82,21.72 -20.41,33.48 -15.64,6.5 2.78,-15.71 15.49,-6.74 15.64,-6.5z"/>
  <path class="fil2p" d="M1752.52 3586.34c-1.72,19.71 3.4,13.49 16.45,26.28 1.2,-0.47 0.18,-20.26 -8.11,-24.08 -5.76,-2.65 -7.08,-16.69 -8.34,-2.21z"/>
  <path class="fil2p" d="M1746.66 3611.76c-2.76,23.7 3.34,17.44 16.99,7.91 0.08,-0.05 3.2,-6.12 -4.82,-5.07 -0.16,0.02 -11.17,-11.41 -12.17,-2.83z"/>
  <path class="fil2p" d="M1673.4 3538.99c-2.83,-25.59 33.08,-21.05 16.9,1.06 -9.42,12.88 -16.88,-0.78 -16.9,-1.06z"/>
  <path class="fil2p" d="M1693.35 3514.33c7.52,18.3 9.22,10.43 26.67,15.81 0.85,-0.97 -9.14,-18.08 -18.25,-17.67 -6.33,0.28 -13.95,-11.59 -8.42,1.86z"/>
  <path class="fil2p" d="M1699.81 3539.61c8.42,22.32 10.97,13.96 18.72,-0.77 0.05,-0.09 0.04,-6.91 -6.61,-2.3 -0.14,0.09 -15.16,-5.01 -12.11,3.07z"/>
  <path class="fil2p" d="M1706.28 3572.46c-2.83,-25.59 33.08,-21.05 16.9,1.06 -9.42,12.88 -16.88,-0.78 -16.9,-1.06z"/>
  <path class="fil2p" d="M1726.23 3547.8c7.52,18.3 9.22,10.43 26.67,15.81 0.85,-0.98 -9.14,-18.08 -18.25,-17.68 -6.33,0.28 -13.94,-11.59 -8.42,1.86z"/>
  <path class="fil2p" d="M1732.69 3573.08c8.42,22.32 10.97,13.97 18.72,-0.77 0.04,-0.09 0.04,-6.91 -6.61,-2.3 -0.13,0.1 -15.16,-5.01 -12.11,3.07z"/>
  <path class="fil2p" d="M1726.96 3531.26c-2.83,-25.59 33.08,-21.06 16.9,1.06 -9.41,12.88 -16.87,-0.78 -16.9,-1.06z"/>
  <path class="fil2p" d="M1750.49 3512.22c7.51,18.3 9.21,10.43 26.67,15.81 0.85,-0.98 -9.14,-18.08 -18.25,-17.68 -6.33,0.28 -13.94,-11.59 -8.42,1.86z"/>
  <path class="fil2p" d="M1749.21 3537.28c8.42,22.32 10.97,13.96 18.72,-0.77 0.04,-0.09 0.04,-6.91 -6.61,-2.3 -0.13,0.09 -15.16,-5.01 -12.11,3.07z"/>
  <path class="fil2p" d="M1711.67 3481.61c13.82,21.72 -20.41,33.48 -15.64,6.5 2.78,-15.71 15.49,-6.74 15.64,-6.5z"/>
  <path class="fil2p" d="M1725.83 3475.17c-1.72,19.71 3.4,13.49 16.45,26.29 1.2,-0.48 0.17,-20.26 -8.11,-24.08 -5.76,-2.65 -7.08,-16.69 -8.34,-2.21z"/>
  <path class="fil2p" d="M1719.97 3500.59c-2.76,23.69 3.34,17.44 16.99,7.91 0.08,-0.05 3.2,-6.12 -4.82,-5.07 -0.16,0.02 -11.17,-11.41 -12.17,-2.83z"/>
  <path class="fil2p" d="M1826.3 3522.51c25.02,6.07 8.51,38.28 -6.76,15.53 -8.89,-13.24 6.49,-15.6 6.76,-15.53z"/>
  <path class="fil2p" d="M1842.68 3549.68c-19.77,0.82 -12.95,5.11 -23.96,19.69 0.62,1.13 20.11,-2.43 22.84,-11.13 1.89,-6.05 15.64,-9.16 1.12,-8.55z"/>
  <path class="fil2p" d="M1816.71 3547.13c-23.86,0.3 -16.87,5.55 -5.66,17.86 0.07,0.07 6.48,2.39 4.41,-5.43 -0.04,-0.16 9.88,-12.54 1.25,-12.43z"/>
  <path class="fil2p" d="M1783.62 3542.01c25.02,6.07 8.52,38.28 -6.76,15.53 -8.89,-13.24 6.49,-15.59 6.76,-15.53z"/>
  <path class="fil2p" d="M1800.01 3569.17c-19.77,0.82 -12.95,5.11 -23.96,19.68 0.63,1.13 20.11,-2.43 22.84,-11.13 1.89,-6.05 15.64,-9.16 1.12,-8.55z"/>
  <path class="fil2p" d="M1774.04 3566.62c-23.85,0.3 -16.87,5.55 -5.66,17.86 0.07,0.07 6.48,2.39 4.41,-5.43 -0.04,-0.16 9.88,-12.54 1.25,-12.43z"/>
  <path class="fil2p" d="M1801.84 3594.6c0.02,-25.74 35.2,-17.27 16.68,2.92 -10.78,11.76 -16.68,-2.64 -16.68,-2.92z"/>
  <path class="fil2p" d="M1828.69 3609.56c-17.84,-8.55 -13.83,-1.57 -30.39,6.14 0.02,1.3 18.9,7.3 25.39,0.89 4.51,-4.45 18.11,-0.75 5,-7.03z"/>
  <path class="fil2p" d="M1793.56 3595.05c-23.86,0.3 -16.87,5.55 -5.66,17.86 0.06,0.07 6.48,2.39 4.41,-5.43 -0.04,-0.16 9.88,-12.54 1.25,-12.43z"/>
  <path class="fil2p" d="M1867.19 3578.05c-25.13,5.58 -24.52,-30.6 -0.78,-16.92 13.82,7.96 1.05,16.86 0.78,16.92z"/>
  <path class="fil2p" d="M1868.42 3593.56c-17.94,-8.34 -13.85,-1.4 -30.32,6.5 0.04,1.29 18.99,7.07 25.4,0.59 4.45,-4.51 18.1,-0.96 4.92,-7.09z"/>
  <path class="fil2p" d="M1846.52 3579.39c-21.34,-10.67 -17.53,-2.81 -13.22,13.27 0.03,0.1 4.66,5.1 6.41,-2.8 0.04,-0.16 14.53,-6.61 6.81,-10.47z"/>
  <path class="fil2p" d="M1754.17 3498.2c-2.83,-25.59 33.08,-21.05 16.9,1.07 -9.42,12.88 -16.88,-0.78 -16.9,-1.07z"/>
  <path class="fil2p" d="M1774.12 3473.54c7.51,18.3 9.21,10.43 26.67,15.81 0.85,-0.97 -9.14,-18.08 -18.25,-17.67 -6.33,0.28 -13.94,-11.58 -8.42,1.86z"/>
  <path class="fil2p" d="M1776.9 3502.17c8.42,22.32 10.97,13.96 18.72,-0.77 0.05,-0.09 0.04,-6.91 -6.61,-2.3 -0.13,0.09 -15.15,-5.01 -12.11,3.07z"/>
  <path class="fil2p" d="M1787.05 3531.67c-2.83,-25.59 33.08,-21.06 16.9,1.06 -9.42,12.88 -16.88,-0.78 -16.9,-1.06z"/>
  <path class="fil2p" d="M1807.04 3506.74c12.28,15.51 11.74,7.48 30.01,7.83 0.55,-1.17 -13.78,-14.86 -22.42,-11.95 -6.01,2.02 -16.6,-7.28 -7.58,4.12z"/>
  <path class="fil2p" d="M1744.44 3469.34c8.42,22.32 10.97,13.96 18.72,-0.77 0.05,-0.09 0.04,-6.91 -6.61,-2.3 -0.13,0.09 -15.16,-5.01 -12.11,3.07z"/>
  <path class="fil2p" d="M1807.72 3490.47c-2.83,-25.59 33.08,-21.06 16.91,1.06 -9.42,12.88 -16.88,-0.79 -16.91,-1.06z"/>
  <path class="fil2p" d="M1831.26 3471.42c7.52,18.3 9.21,10.43 26.67,15.81 0.85,-0.97 -9.14,-18.08 -18.25,-17.67 -6.33,0.28 -13.95,-11.59 -8.42,1.86z"/>
  <path class="fil2p" d="M1834.06 3496.62c8.42,22.32 10.97,13.97 18.72,-0.77 0.04,-0.09 0.04,-6.91 -6.61,-2.3 -0.13,0.09 -15.16,-5.01 -12.11,3.07z"/>
  <path class="fil2p" d="M1792.94 3444.06c13.82,21.72 -20.41,33.48 -15.64,6.5 2.78,-15.71 15.49,-6.73 15.64,-6.5z"/>
  <path class="fil2p" d="M1800.74 3459.8c-2.76,23.7 3.34,17.44 16.99,7.91 0.08,-0.05 3.21,-6.12 -4.82,-5.07 -0.16,0.02 -11.17,-11.4 -12.17,-2.83z"/>
  <path class="fil2p" d="M1847.43 3536.77c7.52,18.3 9.21,10.43 26.67,15.81 0.85,-0.98 -9.14,-18.08 -18.25,-17.67 -6.33,0.28 -13.95,-11.58 -8.42,1.86z"/>
  <path class="fil2p" d="M1880.36 3569.97c12.28,15.51 11.74,7.48 30,7.82 0.55,-1.17 -13.77,-14.85 -22.42,-11.94 -6,2.02 -16.6,-7.28 -7.58,4.12z"/>
  <path class="fil2p" d="M1881.04 3553.69c-2.83,-25.59 33.08,-21.06 16.9,1.06 -9.42,12.88 -16.87,-0.78 -16.9,-1.06z"/>
  <path class="fil2p" d="M1904.57 3534.65c7.52,18.3 9.21,10.43 26.68,15.81 0.85,-0.97 -9.14,-18.08 -18.26,-17.67 -6.33,0.28 -13.94,-11.59 -8.42,1.86z"/>
  <path class="fil2p" d="M1907.38 3559.84c8.42,22.32 10.97,13.97 18.72,-0.77 0.05,-0.09 0.04,-6.91 -6.61,-2.3 -0.14,0.09 -15.16,-5.01 -12.11,3.07z"/>
  <path class="fil2p" d="M1865.75 3504.05c13.82,21.72 -20.41,33.48 -15.64,6.5 2.78,-15.71 15.49,-6.74 15.64,-6.5z"/>
  <path class="fil2p" d="M1874.06 3523.03c-2.76,23.7 3.34,17.44 16.99,7.91 0.08,-0.05 3.2,-6.12 -4.82,-5.07 -0.16,0.02 -11.17,-11.41 -12.17,-2.83z"/>
  <path class="fil2p" d="M1634.87 3584.36c7.52,18.3 9.21,10.43 26.67,15.81 0.85,-0.97 -9.14,-18.08 -18.25,-17.67 -6.33,0.29 -13.94,-11.59 -8.42,1.86z"/>
  <path class="fil2p" d="M1667.78 3617.56c12.28,15.52 11.74,7.48 30.01,7.83 0.55,-1.17 -13.78,-14.86 -22.42,-11.95 -6.01,2.02 -16.6,-7.28 -7.58,4.12z"/>
  <path class="fil2p" d="M1668.47 3601.28c-2.83,-25.59 33.08,-21.05 16.9,1.06 -9.41,12.88 -16.87,-0.78 -16.9,-1.06z"/>
  <path class="fil2p" d="M1692.01 3582.24c7.51,18.3 9.21,10.43 26.67,15.81 0.85,-0.98 -9.14,-18.08 -18.25,-17.67 -6.33,0.28 -13.94,-11.58 -8.42,1.86z"/>
  <path class="fil2p" d="M1694.81 3607.44c8.42,22.32 10.97,13.97 18.72,-0.77 0.04,-0.09 0.04,-6.91 -6.61,-2.3 -0.14,0.09 -15.16,-5.01 -12.11,3.07z"/>
  <path class="fil2p" d="M1653.18 3551.64c13.82,21.72 -20.41,33.48 -15.64,6.5 2.78,-15.71 15.49,-6.73 15.64,-6.5z"/>
  <path class="fil2p" d="M1661.49 3570.62c-2.76,23.7 3.34,17.44 16.99,7.91 0.08,-0.06 3.21,-6.12 -4.82,-5.08 -0.16,0.02 -11.17,-11.4 -12.17,-2.83z"/>
  <path class="fil2p" d="M1703.91 3556.18c-14.14,-19.21 -14.34,-10.47 -17.82,5.8 -0.02,0.1 1.83,6.66 6.99,0.43 0.11,-0.13 15.95,0.72 10.83,-6.23z"/>
  <path class="fil2p" d="M1657.55 3539.58c0.13,19.78 4.65,13.12 18.83,24.64 1.15,-0.59 -1.72,-20.18 -10.33,-23.22 -5.98,-2.1 -8.61,-15.95 -8.51,-1.42z"/>
  <path class="fil2p" d="M1874.08 3510.99c-2.83,-25.58 33.08,-21.05 16.9,1.07 -9.41,12.88 -16.87,-0.78 -16.9,-1.07z"/>
  <path class="fil2p" d="M1777.41 3418.11c-2.76,23.7 3.34,17.44 16.99,7.91 0.08,-0.05 3.2,-6.12 -4.82,-5.07 -0.16,0.02 -11.17,-11.4 -12.17,-2.83z"/>
  <path class="fil2p" d="M1806.47 3443.41c7.52,18.3 9.21,10.43 26.68,15.81 0.85,-0.98 -9.14,-18.08 -18.25,-17.68 -6.33,0.28 -13.95,-11.58 -8.42,1.87z"/>
  <path class="fil2p" d="M1753.62 3451.09c-2.83,-25.59 33.08,-21.06 16.9,1.06 -9.42,12.88 -16.88,-0.79 -16.9,-1.06z"/>
  <path class="fil2p" d="M1753.62 3451.09c-2.83,-25.59 33.08,-21.06 16.9,1.06 -9.42,12.88 -16.88,-0.79 -16.9,-1.06z"/>
  <path class="fil2p" d="M1773.3 3403.39c-2.83,-25.59 33.08,-21.05 16.9,1.07 -9.42,12.88 -16.88,-0.78 -16.9,-1.07z"/>
  <path class="fil2p" d="M1792.41 3354.17c7.52,18.3 9.21,10.43 26.68,15.81 0.85,-0.97 -9.14,-18.08 -18.25,-17.67 -6.33,0.28 -13.95,-11.59 -8.42,1.86z"/>
  <path class="fil2p" d="M1818.1 3353.05c0.02,-25.74 35.2,-17.27 16.68,2.92 -10.78,11.76 -16.68,-2.64 -16.68,-2.92z"/>
  <path class="fil2p" d="M1790.84 3375.99c8.42,22.32 10.97,13.96 18.72,-0.77 0.05,-0.09 0.04,-6.91 -6.61,-2.3 -0.13,0.09 -15.16,-5.01 -12.11,3.07z"/>
  <path class="fil2p" d="M1664.23 3512.29c0.01,-25.74 35.2,-17.27 16.68,2.93 -10.78,11.76 -16.68,-2.64 -16.68,-2.93z"/>
  <path class="fil2p" d="M1657.17 3508.18c-23.86,0.3 -16.87,5.55 -5.66,17.86 0.07,0.07 6.48,2.39 4.42,-5.43 -0.04,-0.16 9.88,-12.54 1.25,-12.43z"/>
  <path class="fil2p" d="M1643.67 3523.26c13.82,21.72 -20.41,33.48 -15.64,6.5 2.78,-15.71 15.49,-6.74 15.64,-6.5z"/>
  <path class="fil2p" d="M1615.14 3553.81c8.42,22.32 10.97,13.97 18.72,-0.77 0.04,-0.09 0.04,-6.91 -6.61,-2.3 -0.13,0.1 -15.16,-5.01 -12.11,3.07z"/>
  <path class="fil2p" d="M1605.2 3574.15c7.52,18.3 9.22,10.43 26.68,15.81 0.85,-0.97 -9.14,-18.08 -18.25,-17.67 -6.33,0.28 -13.94,-11.59 -8.42,1.86z"/>
 </g>
 <path class="fil3" d="M1679.44 3403.89l-106.59 39.85c47.92,98.49 167.54,147.82 270.7,107.97 102.41,-39.56 157.55,-152.85 126.28,-257.82l-105.41 41.03c7.9,41.28 -13.81,92.65 -61.85,111.51 -45.17,17.73 -98.07,-1.99 -123.12,-42.54z"/>
 <path class="fil4" d="M1977.8 2932.28l-1.08 105.44 -78.62 8.9 -23.62 33.35c-52.7,-20.4 -133.24,-38.22 -217.93,-0.23 -164.38,73.72 -216.02,239.84 -159.06,392.26l49.58 -19.04c43.91,97.7 171.53,183.71 318.56,120.05 141.19,-61.13 156.23,-201.57 131.18,-289.62l50.69 -19.73c37.59,53.91 192.64,51.47 257.24,22.79 18.21,-8.09 17.92,-23.48 24.4,-33.36 59.35,2.29 116.42,10.11 116.18,-66.77 25.37,-3.05 42.33,-2.77 61.57,-15.79 50.28,-33.52 43.8,-92.21 41.02,-118.74 5.63,-10.48 42.23,-45.74 11.06,-123.59 -10.59,-26.44 -40.71,-39.56 -63.31,-55.72 -18.93,-14.25 -70.45,-180.51 -67.29,-210.52 4.44,-42.21 33.35,-15.35 -64.5,-96.63 -36.64,-30.44 -166.35,-101.78 -202.65,-97.76 0.36,47.69 -4.9,96.29 -23.31,137.53 -18.61,41.72 -43.53,58.81 -73.88,88.68 -38.66,38.05 -39.88,48.34 -63.92,98.65 -23.56,49.31 -23.41,85.74 -22.32,139.87zm86.67 35.07l336.67 -115.34 74.73 193.01c-6.73,2.42 -55.09,21.82 -58.13,21.7 -12.48,-0.5 -10.3,-13.51 -53.27,-22.46 -21.06,-4.39 -41.19,0.32 -53.23,13.2 -24.41,26.12 2.56,48.22 14.56,55.7l-20.96 8.16c-25.82,-18.18 -62.15,-45.28 -88.1,-22.72 -33.56,29.16 -13.72,51.37 -0.46,57.19l-183.7 71.51c-9.97,-24.35 -29.87,-53.59 -49.83,-74.06 42.11,-26.32 76.37,-7.72 81.71,-185.9zm-542.29 449.3l144.67 -53.77c-4.9,-30.16 12.22,-86.1 64.8,-103.64 56.47,-18.84 100.67,11.12 116.13,37.54l143.2 -55.39c-26.62,-54.27 -67.42,-92.98 -118.75,-116.63 -69.17,-31.87 -138.7,-33.38 -193.45,-8.67 -54.81,17.85 -99.87,60.33 -129.94,107.48 -29.75,46.63 -47.96,129.18 -26.66,193.09zm276.45 -16.71c26.15,-18.33 32.58,-54.25 14.37,-80.22 -18.21,-25.98 -54.17,-32.17 -80.32,-13.84 -26.15,18.33 -32.58,54.24 -14.37,80.22 18.21,25.98 54.17,32.18 80.32,13.84zm664.27 -498.71l48.12 128.23c23.63,-2.73 52.77,-96.45 -48.12,-128.23zm-393.76 17.15l51.14 -17.44c-3.71,-18.18 -50.19,-24.33 -51.14,17.44zm-389.7 485.5l-106.59 39.85c47.92,98.49 167.54,147.82 270.7,107.97 102.41,-39.56 157.55,-152.85 126.28,-257.82l-105.41 41.03c7.9,41.28 -13.81,92.65 -61.85,111.51 -45.17,17.73 -98.07,-1.99 -123.12,-42.54z"/>
 <path class="fil5" d="M2699.14 3087.5c0,-386.12 -313.01,-699.14 -699.14,-699.14 -168.42,0 -322.92,59.56 -443.61,158.76l986.38 981.02c97.75,-120.25 156.37,-273.59 156.37,-440.64zm-1241.91 -440.64c-97.74,120.25 -156.37,273.59 -156.37,440.64 0,386.12 313.01,699.14 699.13,699.14 168.42,0 322.92,-59.56 443.61,-158.76l-986.38 -981.01zm1417.77 440.64c0,-483.25 -391.75,-875 -875,-875 -483.25,0 -875,391.75 -875,875 0,483.25 391.75,875 875,875 483.25,0 875,-391.75 875,-875z"/>
</symbol>
 <g id="Ebene_x0020_1">
  <metadata id="CorelCorpID_0Corel-Layer"/>
  <use id="ISO_x0020_7010_x0020_P034_0" transform="scale(0.571429 0.571429)" x="-0" y="-0" width="1750" height="1750" xlink:href="#ISO_x0020_7010_x0020_P034"/>
 </g>
</svg>
