<?xml version="1.0" encoding="UTF-8"?>
<!DOCTYPE svg PUBLIC "-//W3C//DTD SVG 1.1//EN" "http://www.w3.org/Graphics/SVG/1.1/DTD/svg11.dtd">
<!-- Creator: Corel DESIGNER -->
<svg xmlns="http://www.w3.org/2000/svg" xml:space="preserve" width="40mm" height="40mm" version="1.1" style="shape-rendering:geometricPrecision; text-rendering:geometricPrecision; image-rendering:optimizeQuality; fill-rule:evenodd; clip-rule:evenodd"
viewBox="0 0 2000 2000"
 xmlns:xlink="http://www.w3.org/1999/xlink"
 xmlns:xodm="http://www.corel.com/coreldraw/odm/2003">
 <defs>
  <style type="text/css">
   <![CDATA[
    .fil1p {fill:#0E1313}
    .fil2p {fill:#A1262D}
    .fil0p {fill:white}
   ]]>
  </style>
 </defs>
<symbol id="ISO_x0020_7010_x0020_P042" viewBox="-3750 -1750.05 3500 3500">
 <circle class="fil0p" cx="-2000" cy="-0.05" r="1575"/>
 <path class="fil1p" d="M-2240.96 -778.43l-310.52 306.1c-27.39,27.01 -33.8,67.56 -19.16,100.94l148.54 417.62c16.69,46.91 68.83,71.56 115.73,54.81 28.35,-10.13 49.6,-33.69 57.13,-62.79l-105.98 676.51c-5.48,35.02 21.26,66.28 56.71,66.28l232.29 0 0 367.64c0,56.73 46.8,103.14 104,103.14 56.85,0 104,-46.06 104,-103.14l0 -367.64 378.47 0c35.44,0 62.19,-31.26 56.71,-66.28l-135.56 -865.39c-24.56,-182.56 -166.87,-326.94 -338.44,-343.5l-59.4 -215.12c-20.68,-74.91 -89.85,-124.07 -164.3,-123 -46.07,0.67 -89.38,20.33 -120.22,53.81zm-5.53 799.11c0.67,-11.69 -0.92,-23.69 -5.07,-35.36l-131.42 -369.48 132.39 -130.5 64.78 234.58c-15.95,40.31 -27.4,84.23 -33.89,129.89l-26.78 170.87zm23.54 -1080.3c0,-101.26 82.09,-183.35 183.35,-183.35 101.26,0 183.35,82.09 183.35,183.35 0,101.26 -82.09,183.34 -183.35,183.34 -101.26,0 -183.35,-82.09 -183.35,-183.34z"/>
 <path class="fil2p" d="M-601.73 -0.05c0,-772.25 -626.03,-1398.27 -1398.27,-1398.27 -336.84,0 -645.85,119.11 -887.22,317.51l1972.76 1962.03c195.5,-240.5 312.73,-547.18 312.73,-881.27zm-2483.81 -881.27c-195.49,240.51 -312.73,547.18 -312.73,881.27 0,772.25 626.03,1398.27 1398.27,1398.27 336.84,0 645.83,-119.12 887.22,-317.51l-1972.76 -1962.03zm2835.54 881.27c0,-966.5 -783.5,-1750 -1750,-1750 -966.5,0 -1750,783.5 -1750,1750 0,966.5 783.5,1750 1750,1750 966.5,0 1750,-783.5 1750,-1750z"/>
</symbol>
 <g id="Ebene_x0020_1">
  <metadata id="CorelCorpID_0Corel-Layer"/>
  <use id="ISO_x0020_7010_x0020_P042_0" transform="scale(0.571429 0.571429)" x="-0" y="-0" width="3500" height="3500" xlink:href="#ISO_x0020_7010_x0020_P042"/>
 </g>
</svg>
