<?xml version="1.0" encoding="UTF-8"?>
<!DOCTYPE svg PUBLIC "-//W3C//DTD SVG 1.1//EN" "http://www.w3.org/Graphics/SVG/1.1/DTD/svg11.dtd">
<!-- Creator: Corel DESIGNER -->
<svg xmlns="http://www.w3.org/2000/svg" xml:space="preserve" width="40mm" height="40mm" version="1.1" style="shape-rendering:geometricPrecision; text-rendering:geometricPrecision; image-rendering:optimizeQuality; fill-rule:evenodd; clip-rule:evenodd"
viewBox="0 0 4000 4000"
 xmlns:xlink="http://www.w3.org/1999/xlink"
 xmlns:xodm="http://www.corel.com/coreldraw/odm/2003">
 <defs>
  <style type="text/css">
   <![CDATA[
    .fil1p {fill:#0E1313}
    .fil2p {fill:#A1262D}
    .fil0p {fill:white}
   ]]>
  </style>
 </defs>
<symbol id="ISO_x0020_7010_x0020_P044" viewBox="-1500 -9850 7000 7000">
 <circle class="fil0p" cx="2000" cy="-6350" r="3150"/>
 <path class="fil1p" d="M2566.06 -7517.52c0,-44.34 -17.97,-84.47 -47.01,-113.51 -29.04,-29.04 -69.18,-47.02 -113.51,-47.02 -14.14,0 -27.65,1.75 -40.33,5.03 -13.28,3.43 -25.91,8.53 -37.63,15.05l-22.05 -39.64c15.04,-8.37 31.24,-14.91 48.3,-19.32 16.73,-4.33 34.07,-6.63 51.71,-6.63 56.88,0 108.4,23.07 145.68,60.35 37.29,37.28 60.35,88.8 60.35,145.69l-45.51 0zm150.94 0c0,-86.01 -34.86,-163.88 -91.23,-220.24 -56.36,-56.36 -134.22,-91.23 -220.23,-91.23 -27.33,0 -53.55,3.4 -78.25,9.79 -25.78,6.67 -50.27,16.56 -73,29.21l-33.07 -59.47c27.72,-15.42 57.57,-27.48 89,-35.6 30.76,-7.95 62.72,-12.19 95.32,-12.19 104.85,0 199.79,42.51 268.5,111.22 68.72,68.72 111.22,163.65 111.22,268.51l-68.26 0zm236.09 0c0,-151.21 -61.29,-288.1 -160.38,-387.18 -99.08,-99.09 -235.97,-160.37 -387.17,-160.37 -47.91,0 -93.99,5.99 -137.54,17.25 -45.32,11.72 -88.38,29.11 -128.34,51.34l-44.09 -79.28c46.61,-25.94 96.82,-46.21 149.68,-59.88 51.62,-13.35 105.35,-20.45 160.29,-20.45 176.33,0 335.97,71.47 451.53,187.03 115.55,115.56 187.04,275.21 187.04,451.54l-91.02 0z"/>
 <path class="fil1p" d="M571.48 -5481.35l160.72 -92.79 0 -218.5 -160.72 92.79 0 218.5zm3570.28 213.32c-71.31,95.72 -218.3,209.5 -321.94,263.84 -236.98,124.23 -361.1,151.55 -628.37,161.04 -161.04,5.79 -375.84,9.31 -570.14,-25.36 -196.33,-35.03 -371.98,-109.08 -452.05,-258.91l-217.39 -381.04c-17.25,-30.24 -45.65,-48.5 -80.32,-51.64l-118.46 -10.74c-48.06,-4.36 -91.51,23.88 -107.03,69.57 -13.14,38.66 -62.93,150.66 -87,185.61 -25.14,36.53 -83.14,90.53 -116.42,123.83 -14.24,14.24 -48.99,29.51 -69.23,35.08 -80.84,22.25 -185.06,-5.68 -259.21,-44.04l-338.06 -187.43c-50.65,-26.02 -26.34,-55.5 15.57,-34.65l345.01 161.39c65.5,31.06 148.6,59.38 218.41,40.68 16.95,-4.54 32.44,-11.76 46.19,-21.88l77.89 -77.9c46.37,-46.36 43.14,-97.95 44.89,-158.89l-1.47 -131.34c-0.41,-45.66 -23.77,-84.64 -63.86,-106.51l-1172.63 -639.79 -61.76 61.75c-14.02,14.02 -16.39,35.27 -5.8,52.04 76.51,121.17 39.17,72.7 103.75,115.74l450.14 259.89c9.8,4.49 16.61,14.38 16.61,25.87l0 283.96c0,10.76 -11.26,22.79 -14.33,24.55l-215.68 124.58c-10.19,7.04 -21.51,6.22 -31.96,0.07l-447.8 -258.54c-39.06,-22.63 -15.8,-17.4 -76.37,-2.95 -36.46,8.7 -69.56,3.48 -104.46,-10.19 -67.26,-26.37 -152.4,-64.95 -201.79,-92.25 -49.38,-27.3 -49.33,-36.4 -72.15,-65.25 -22.82,-28.84 -62.82,-97.1 -84.45,-144.37 -21.63,-47.28 -17.18,-43.52 -22.06,-81.42 -4.87,-37.89 -4.23,-112.6 0,-166.84 4.22,-54.23 18.56,-74.57 47.23,-114.02 32.85,-45.2 128.32,-136.37 176,-168.19l1361.08 -784.77c28.79,-16.6 55.08,-27.8 87,-37.05 165.61,-48 331.22,-96 496.83,-144.01 32.25,-9.34 60.75,-13.96 94.31,-15.26 195.28,-7.57 390.56,-15.13 585.85,-22.69 23.31,-0.9 43.33,15.89 46.48,39.02 18.64,136.69 -8.78,257.26 -73.57,364.75 -8.4,13.95 -22.39,21.85 -38.67,21.85 -159.31,0 -289.75,0 -447.57,0 -23.52,0 -43.75,-9.83 -58.3,-28.31 -48.95,-62.2 -116.21,-124.39 -165.16,-186.59 -14.54,-18.48 -34.77,-28.3 -58.29,-28.3 -81.46,0 -149.82,-5.95 -228.74,20.75 -47.84,16.19 -95.69,32.38 -143.54,48.57 -28.37,9.6 -51.67,20.46 -77.31,35.91 -280.34,169.03 -650.14,387.15 -922.38,556.73l44.07 38.26c256.46,-154.89 582.04,-354.18 838.49,-509.06 28.29,-17.08 45.61,12.44 52.72,44.7 12.19,55.26 45.3,158.73 -14.06,196.84l-732.79 470.51 1217.41 664.22c90.61,49.43 333.51,63.58 427.49,53.06 560.27,-62.73 1152.93,-121.03 1701.07,-165.72 99.04,-8.07 424.06,-34.77 512.71,-87.15 45.13,-26.66 88.04,-71.01 115.47,-129.3 23.42,-49.79 43.92,-114.21 36.17,-182.52 -0.62,-57.2 -39.23,-181.65 -52.53,-217.96 -31.41,-70.36 -74.44,-154.78 -129.08,-226.47 -71.89,-94.33 -182.82,-182.72 -293.73,-271.1 -57.78,-46.03 -80.52,-61.58 -133.21,-108.52 -23.44,-20.86 -50.96,-71.37 -36.92,-86.71 14.04,-15.34 56.78,-2.91 80.22,17.95 51.59,45.96 72.44,60 128.32,104.52 116.41,92.76 232.84,185.53 313.29,291.1 59.63,78.24 107.04,153.76 142.41,233.01 35.83,80.26 75.08,163.49 85.58,256.01 19.61,172.73 -59.54,335.84 -198.22,417.77 -111.78,66.04 -437.83,92.61 -561.6,102.7 -506.39,41.28 -992.55,88.16 -1504.03,143.9 -55.79,6.08 -99.54,45.15 -111.87,99.89 -10.92,48.47 26.17,173.77 44.02,202.86l80.38 132.11 0.56 1.04c149.96,278.79 670.64,262.36 937.95,254.08 129.1,-4.52 223.39,-13.41 313.66,-36.02 90.23,-22.61 175.04,-38.54 288.66,-98.1 65.94,-34.52 183.28,-112.4 235.69,-160.88 52.61,-48.68 99.01,-84.56 116.93,-129.83 13.8,-34.86 59.18,-28.94 45.19,5.52 -10.72,27.1 -26.93,55.15 -47.94,83.34zm-3437.82 -573.83l-397.32 -229.39 -160.9 92.9 397.32 229.39 160.9 -92.9zm-581.97 133.76l392.63 226.68 0 -218.43 -392.63 -226.68 0 218.43zm-426.66 -363.97c-10.98,-55.52 -43.02,-95.94 -71.56,-90.3 -28.55,5.65 -42.79,55.23 -31.81,110.75 10.98,55.52 43.03,95.95 71.57,90.3 28.54,-5.65 42.78,-55.23 31.8,-110.75z"/>
 <path class="fil2p" d="M4796.54 -6350c0,-1544.49 -1252.05,-2796.54 -2796.54,-2796.54 -673.67,0 -1291.7,238.22 -1774.43,635.03l3945.51 3924.06c391,-481 625.46,-1094.36 625.46,-1762.55zm-4967.62 -1762.55c-390.98,481.02 -625.46,1094.36 -625.46,1762.55 0,1544.49 1252.05,2796.54 2796.54,2796.54 673.67,0 1291.66,-238.25 1774.43,-635.02l-3945.51 -3924.07zm5671.08 1762.55c0,-1932.99 -1567,-3500 -3500,-3500 -1933,0 -3500,1567.01 -3500,3500 0,1933 1567,3500 3500,3500 1933,0 3500,-1567 3500,-3500z"/>
</symbol>
 <g id="Ebene_x0020_1">
  <metadata id="CorelCorpID_0Corel-Layer"/>
  <use id="ISO_x0020_7010_x0020_P044_0" transform="scale(0.571429 0.571429)" x="-0" y="-0" width="7000" height="7000" xlink:href="#ISO_x0020_7010_x0020_P044"/>
 </g>
</svg>
