<?xml version="1.0" encoding="UTF-8"?>
<!DOCTYPE svg PUBLIC "-//W3C//DTD SVG 1.1//EN" "http://www.w3.org/Graphics/SVG/1.1/DTD/svg11.dtd">
<!-- Creator: Corel DESIGNER -->
<svg xmlns="http://www.w3.org/2000/svg" xml:space="preserve" width="40mm" height="40mm" version="1.1" style="shape-rendering:geometricPrecision; text-rendering:geometricPrecision; image-rendering:optimizeQuality; fill-rule:evenodd; clip-rule:evenodd"
viewBox="0 0 1000 1000"
 xmlns:xlink="http://www.w3.org/1999/xlink"
 xmlns:xodm="http://www.corel.com/coreldraw/odm/2003">
 <defs>
  <style type="text/css">
   <![CDATA[
    .fil1p {fill:#0E1313}
    .fil2p {fill:#A1262D}
    .fil0p {fill:white}
   ]]>
  </style>
 </defs>
<symbol id="ISO_x0020_7010_x0020_P051" viewBox="1125 -904.17 1750 1750">
 <circle class="fil0p" cx="2000" cy="-29.17" r="787.5"/>
 <path class="fil1p" d="M2443.28 -382.78l11.25 -2.7c-1.69,21.38 -4.41,40.27 -19.56,44.09 -57.39,9.55 -96.98,-6.09 -137.26,-22 -29.28,-11.57 -59,-23.31 -95.99,-23 -29.54,0.25 -58.73,12.17 -89.43,24.72 -37.52,15.33 -77.11,31.5 -126.63,32.11 -43.43,0.53 -73.67,-12.2 -105.45,-25.57 -34.33,-14.45 -70.73,-29.76 -128.85,-25.74 -46.21,3.2 -74.65,15.56 -100.22,26.67 -34.1,14.82 -63.81,27.73 -116.86,20.35 -23.25,-3.24 -23.19,-26.09 -25.65,-45.02l11.09 2.89c55.45,12.31 82.98,0.35 115.22,-13.66 28.7,-12.47 60.63,-26.35 113.61,-30.02 67.81,-4.7 108.75,12.53 147.37,28.78 27.94,11.75 54.53,22.95 89.26,22.52 41.59,-0.51 77.65,-15.25 111.84,-29.21 34.25,-14 66.82,-27.3 104.38,-27.61 44.99,-0.37 78.28,12.78 111.09,25.74 38.32,15.14 75.91,29.99 130.78,16.67z"/>
 <path class="fil1p" d="M1692.02 -118.49c0,-17.54 -14.22,-31.76 -31.76,-31.76 -17.54,0 -31.76,14.22 -31.76,31.76 0,17.54 14.22,31.76 31.76,31.76 17.54,0 31.76,-14.22 31.76,-31.76zm0 -86.32c0,-17.54 -14.22,-31.76 -31.76,-31.76 -17.54,0 -31.76,14.22 -31.76,31.76 0,17.54 14.22,31.76 31.76,31.76 17.54,0 31.76,-14.22 31.76,-31.76zm0 -86.32c0,-17.54 -14.22,-31.76 -31.76,-31.76 -17.54,0 -31.76,14.22 -31.76,31.76 0,17.54 14.22,31.76 31.76,31.76 17.54,0 31.76,-14.22 31.76,-31.76zm50.92 307.95c0,-45.67 -37.02,-82.68 -82.68,-82.68 -45.66,0 -82.68,37.02 -82.68,82.68 0,15.82 4.44,30.59 12.14,43.15l-12.88 22.92 107.16 60.19 45.73 -81.42c8.36,-12.92 13.21,-28.32 13.21,-44.85zm58.25 -56.11l192.44 -125.71c45.32,-29.6 0.56,-98.12 -44.76,-68.52l-192.44 125.7c-45.32,29.6 -0.57,98.12 44.76,68.52zm554.02 -147.73l-258.62 -2.34c-1.69,-0.08 -3.4,-0.09 -5.12,-0.05l-0.33 -0c-7.52,-0.07 -14.21,1.17 -20.08,3.4 -7.58,2.34 -15.27,5.93 -22.98,10.98l-230.98 151.37c-11.46,7.51 -20,16.29 -25.99,25.75l-1.04 1.71 -1.6 2.82 -211.88 383.73c-26.62,48.23 46.28,88.49 72.91,40.26l173.75 -314.68c23.01,13.4 52.6,15.33 82.31,-4.14l230.98 -151.37c20.27,-13.29 31.39,-30.51 35.46,-48.52l205.45 1.86c17.49,0.16 30.51,-6.68 39.01,-16.84l2.66 -3.06 115.11 -142.2c-13.75,-34.26 -30.67,-66.91 -50.39,-97.59l-128.65 158.93z"/>
 <path class="fil2p" d="M2699.14 -29.17c0,-386.12 -313.01,-699.13 -699.14,-699.13 -168.42,0 -322.92,59.55 -443.61,158.75l986.38 981.02c97.75,-120.25 156.37,-273.59 156.37,-440.64zm-1241.91 -440.64c-97.74,120.25 -156.37,273.59 -156.37,440.64 0,386.12 313.01,699.13 699.13,699.13 168.42,0 322.92,-59.56 443.61,-158.76l-986.38 -981.02zm1417.77 440.64c0,-483.25 -391.75,-875 -875,-875 -483.25,0 -875,391.75 -875,875 0,483.25 391.75,875 875,875 483.25,0 875,-391.75 875,-875z"/>
</symbol>
 <g id="Ebene_x0020_1">
  <metadata id="CorelCorpID_0Corel-Layer"/>
  <use id="ISO_x0020_7010_x0020_P051_0" transform="scale(0.571429 0.571429)" x="-0" y="-0" width="1750" height="1750" xlink:href="#ISO_x0020_7010_x0020_P051"/>
 </g>
</svg>
