<?xml version="1.0" encoding="UTF-8"?>
<!DOCTYPE svg PUBLIC "-//W3C//DTD SVG 1.1//EN" "http://www.w3.org/Graphics/SVG/1.1/DTD/svg11.dtd">
<!-- Creator: Corel DESIGNER -->
<svg xmlns="http://www.w3.org/2000/svg" xml:space="preserve" width="40mm" height="40mm" version="1.1" style="shape-rendering:geometricPrecision; text-rendering:geometricPrecision; image-rendering:optimizeQuality; fill-rule:evenodd; clip-rule:evenodd"
viewBox="0 0 4000 4000"
 xmlns:xlink="http://www.w3.org/1999/xlink"
 xmlns:xodm="http://www.corel.com/coreldraw/odm/2003">
 <defs>
  <style type="text/css">
   <![CDATA[
    .fil1p {fill:#0E1313}
    .fil2p {fill:#A1262D}
    .fil0p {fill:white}
   ]]>
  </style>
 </defs>
<symbol id="ISO_x0020_7010_x0020_P052" viewBox="-1500 -3616.67 7000 7000">
 <circle class="fil0p" cx="2000" cy="-116.67" r="3150"/>
 <path class="fil1p" d="M3891.79 1266.74l45.82 -11.01c-6.89,87.11 -17.94,164.02 -79.67,179.61 -233.77,38.91 -395.02,-24.79 -559.08,-89.6 -119.29,-47.14 -240.32,-94.95 -391.01,-93.7 -120.3,0.99 -239.2,49.58 -364.27,100.68 -152.82,62.44 -314.07,128.32 -515.79,130.78 -176.91,2.16 -300.07,-49.67 -429.52,-104.14 -139.84,-58.86 -288.08,-121.24 -524.83,-104.85 -188.25,13.04 -304.07,63.4 -408.23,108.66 -138.89,60.35 -259.93,112.95 -476,82.87 -94.73,-13.2 -94.48,-106.29 -104.48,-183.38l45.19 11.75c225.88,50.16 338,1.43 469.34,-55.65 116.92,-50.81 246.98,-107.34 462.76,-122.29 276.21,-19.14 442.98,51.03 600.29,117.24 113.81,47.89 222.1,93.46 363.59,91.75 169.39,-2.08 316.3,-62.1 455.54,-119 139.52,-57.01 272.16,-111.2 425.14,-112.47 183.28,-1.52 318.87,52.05 452.53,104.86 156.08,61.66 309.21,122.16 532.68,67.89zm0 -363.48l45.82 -11.02c-6.89,87.12 -17.94,164.03 -79.67,179.61 -233.77,38.91 -395.02,-24.79 -559.08,-89.6 -119.29,-47.13 -240.32,-94.94 -391.01,-93.7 -120.3,1 -239.2,49.58 -364.27,100.68 -152.82,62.45 -314.07,128.33 -515.79,130.79 -176.91,2.15 -300.07,-49.67 -429.52,-104.14 -139.84,-58.87 -288.08,-121.24 -524.83,-104.85 -188.25,13.04 -304.07,63.4 -408.23,108.65 -138.89,60.36 -259.93,112.95 -476,82.87 -94.73,-13.19 -94.48,-106.28 -104.48,-183.38l45.19 11.76c225.88,50.16 338,1.43 469.34,-55.65 116.92,-50.81 246.98,-107.34 462.76,-122.3 276.21,-19.13 442.98,51.04 600.29,117.25 113.81,47.89 222.1,93.46 363.59,91.74 169.39,-2.07 316.3,-62.1 455.54,-118.99 139.52,-57.01 272.16,-111.21 425.14,-112.47 183.28,-1.53 318.87,52.05 452.53,104.85 156.08,61.67 309.21,122.17 532.68,67.9z"/>
 <path class="fil1p" d="M575.69 -738.34c0,-155.33 -125.92,-281.25 -281.25,-281.25 -155.33,0 -281.25,125.92 -281.25,281.25 0,155.33 125.92,281.25 281.25,281.25 155.33,0 281.25,-125.92 281.25,-281.25zm1422.95 -278.33l1579.62 -737.91c206.96,-96.68 60.79,-409.54 -146.15,-312.87l-1613.29 753.64c-60.92,-38.01 -141.28,-39.22 -204.3,3.44l-892.88 604.43c-40.41,27.35 -66.72,68.05 -77.06,112.36l-879.91 1026.25c-121.87,142.14 92.76,326.73 214.65,184.57l789.22 -920.48c59.1,79.87 172.2,99.84 255.23,43.63l892.88 -604.43c52.45,-35.5 81.13,-93.45 81.99,-152.63z"/>
 <path class="fil2p" d="M4796.54 -116.67c0,-1544.49 -1252.05,-2796.54 -2796.54,-2796.54 -673.67,0 -1291.7,238.22 -1774.43,635.02l3945.51 3924.07c391,-481 625.46,-1094.36 625.46,-1762.55zm-4967.62 -1762.55c-390.98,481.01 -625.46,1094.36 -625.46,1762.55 0,1544.49 1252.05,2796.54 2796.54,2796.54 673.67,0 1291.67,-238.25 1774.43,-635.03l-3945.51 -3924.06zm5671.08 1762.55c0,-1933 -1567,-3500 -3500,-3500 -1933,0 -3500,1567 -3500,3500 0,1933 1567,3500 3500,3500 1933,0 3500,-1567 3500,-3500z"/>
</symbol>
 <g id="Ebene_x0020_1">
  <metadata id="CorelCorpID_0Corel-Layer"/>
  <use id="ISO_x0020_7010_x0020_P052_0" transform="scale(0.571429 0.571429)" x="-0" y="-0" width="7000" height="7000" xlink:href="#ISO_x0020_7010_x0020_P052"/>
 </g>
</svg>
