<?xml version="1.0" encoding="UTF-8"?>
<!DOCTYPE svg PUBLIC "-//W3C//DTD SVG 1.1//EN" "http://www.w3.org/Graphics/SVG/1.1/DTD/svg11.dtd">
<!-- Creator: Corel DESIGNER -->
<svg xmlns="http://www.w3.org/2000/svg" xml:space="preserve" width="40mm" height="40mm" version="1.1" style="shape-rendering:geometricPrecision; text-rendering:geometricPrecision; image-rendering:optimizeQuality; fill-rule:evenodd; clip-rule:evenodd"
viewBox="0 0 2000 2000"
 xmlns:xlink="http://www.w3.org/1999/xlink"
 xmlns:xodm="http://www.corel.com/coreldraw/odm/2003">
 <defs>
  <style type="text/css">
   <![CDATA[
    .fil1p {fill:#0E1313}
    .fil2p {fill:#A1262D}
    .fil0p {fill:white}
   ]]>
  </style>
 </defs>
<symbol id="ISO_x0020_7010_x0020_P053" viewBox="-3750 -1808.34 3500 3500">
 <circle class="fil0p" cx="-2000" cy="-58.34" r="1575"/>
 <path class="fil1p" d="M-1071.81 631.8l22.91 -5.5c-3.44,43.56 -8.97,82.01 -39.84,89.81 -116.88,19.45 -197.51,-12.4 -279.54,-44.8 -59.64,-23.57 -120.16,-47.48 -195.5,-46.85 -60.15,0.5 -119.6,24.79 -182.13,50.34 -76.41,31.22 -157.04,64.16 -257.89,65.39 -88.45,1.08 -150.03,-24.83 -214.76,-52.07 -69.92,-29.43 -144.04,-60.62 -262.41,-52.43 -94.12,6.52 -152.03,31.7 -204.11,54.33 -69.45,30.17 -129.97,56.48 -238,41.43 -47.37,-6.6 -47.24,-53.14 -52.24,-91.69l22.6 5.88c112.94,25.08 169,0.72 234.67,-27.83 58.46,-25.4 123.49,-53.67 231.38,-61.14 138.11,-9.57 221.49,25.51 300.14,58.62 56.91,23.95 111.05,46.73 181.8,45.88 84.7,-1.04 158.15,-31.05 227.77,-59.5 69.76,-28.5 136.08,-55.6 212.57,-56.24 91.64,-0.76 159.43,26.02 226.26,52.43 78.04,30.83 154.61,61.08 266.34,33.94zm0 -181.74l22.91 -5.51c-3.44,43.56 -8.97,82.01 -39.84,89.81 -116.88,19.45 -197.51,-12.4 -279.54,-44.8 -59.64,-23.56 -120.16,-47.47 -195.5,-46.85 -60.15,0.5 -119.6,24.79 -182.13,50.34 -76.41,31.22 -157.04,64.16 -257.89,65.39 -88.45,1.08 -150.03,-24.83 -214.76,-52.07 -69.92,-29.44 -144.04,-60.62 -262.41,-52.43 -94.12,6.52 -152.03,31.7 -204.11,54.33 -69.45,30.18 -129.97,56.47 -238,41.43 -47.37,-6.59 -47.24,-53.14 -52.24,-91.69l22.6 5.88c112.94,25.08 169,0.72 234.67,-27.82 58.46,-25.41 123.49,-53.67 231.38,-61.15 138.11,-9.56 221.49,25.52 300.14,58.62 56.91,23.95 111.05,46.73 181.8,45.87 84.7,-1.03 158.15,-31.05 227.77,-59.5 69.76,-28.5 136.08,-55.6 212.57,-56.24 91.64,-0.76 159.43,26.03 226.26,52.43 78.04,30.84 154.61,61.08 266.34,33.95z"/>
 <path class="fil1p" d="M-1776.99 314.09c69.76,-28.51 136.09,-55.61 212.58,-56.24 96.77,-0.81 164.48,28.83 251.38,62.25 42.32,-71.97 100.79,-138.28 205.35,-213.21l-1541.2 0c-46.59,81.95 -82.75,161.05 -89.73,232.18 90.36,-38.12 150.13,-62.94 251.92,-69.99 138.1,-9.56 221.5,25.52 300.14,58.62 56.91,23.94 111.05,46.73 181.8,45.87 84.69,-1.04 158.15,-31.05 227.77,-59.49zm-38.73 -1321.56l-2.07 994.25c245.87,-64.41 404.43,85.5 626.48,76.65 -142.2,-577.98 -387.48,-811.69 -624.41,-1070.9zm-85.06 -225.1l0 1271.99 -891.65 0 891.65 -1271.99z"/>
 <path class="fil2p" d="M-601.73 -58.34c0,-772.25 -626.03,-1398.27 -1398.27,-1398.27 -336.84,0 -645.85,119.11 -887.22,317.51l1972.76 1962.03c195.5,-240.5 312.73,-547.18 312.73,-881.27zm-2483.81 -881.27c-195.49,240.5 -312.73,547.18 -312.73,881.27 0,772.25 626.03,1398.27 1398.27,1398.27 336.84,0 645.84,-119.12 887.22,-317.51l-1972.76 -1962.03zm2835.54 881.27c0,-966.5 -783.5,-1750 -1750,-1750 -966.5,0 -1750,783.5 -1750,1750 0,966.5 783.5,1750 1750,1750 966.5,0 1750,-783.5 1750,-1750z"/>
</symbol>
 <g id="Ebene_x0020_1">
  <metadata id="CorelCorpID_0Corel-Layer"/>
  <use id="ISO_x0020_7010_x0020_P053_0" transform="scale(0.571429 0.571429)" x="-0" y="-0" width="3500" height="3500" xlink:href="#ISO_x0020_7010_x0020_P053"/>
 </g>
</svg>
