<?xml version="1.0" encoding="UTF-8"?>
<!DOCTYPE svg PUBLIC "-//W3C//DTD SVG 1.1//EN" "http://www.w3.org/Graphics/SVG/1.1/DTD/svg11.dtd">
<!-- Creator: Corel DESIGNER -->
<svg xmlns="http://www.w3.org/2000/svg" xml:space="preserve" width="40mm" height="40mm" version="1.1" style="shape-rendering:geometricPrecision; text-rendering:geometricPrecision; image-rendering:optimizeQuality; fill-rule:evenodd; clip-rule:evenodd"
viewBox="0 0 4000 4000"
 xmlns:xlink="http://www.w3.org/1999/xlink"
 xmlns:xodm="http://www.corel.com/coreldraw/odm/2003">
 <defs>
  <style type="text/css">
   <![CDATA[
    .fil1p {fill:#0E1313}
    .fil2p {fill:#A1262D}
    .fil0p {fill:white}
   ]]>
  </style>
 </defs>
<symbol id="ISO_x0020_7010_x0020_P063" viewBox="-1500 -3616.67 7000 7000">
 <circle class="fil0p" cx="2000" cy="-116.67" r="3150"/>
 <path class="fil1p" d="M3859.82 1314.43l45.22 -10.87c-6.82,85.99 -17.72,161.88 -78.63,177.27 -230.73,38.41 -389.86,-24.47 -551.77,-88.43 -117.72,-46.51 -237.19,-93.71 -385.9,-92.48 -118.72,0.99 -236.07,48.95 -359.52,99.37 -150.81,61.64 -309.96,126.64 -509.03,129.08 -174.59,2.13 -296.15,-49.04 -423.89,-102.78 -138.03,-58.1 -284.33,-119.66 -517.98,-103.47 -185.79,12.85 -300.1,62.55 -402.89,107.22 -137.07,59.56 -256.53,111.47 -469.77,81.8 -93.49,-13.04 -93.26,-104.9 -103.11,-180.99l44.6 11.6c222.91,49.51 333.56,1.41 463.2,-54.92 115.38,-50.15 243.74,-105.94 456.71,-120.7 272.59,-18.88 437.18,50.37 592.42,115.7 112.34,47.27 219.2,92.25 358.84,90.55 167.18,-2.04 312.16,-61.29 449.57,-117.44 137.71,-56.25 268.61,-109.75 419.6,-110.99 180.88,-1.5 314.69,51.36 446.6,103.49 154.04,60.85 305.18,120.56 525.73,66.99zm0 -358.72l45.22 -10.87c-6.82,85.98 -17.72,161.87 -78.63,177.25 -230.73,38.41 -389.86,-24.45 -551.77,-88.42 -117.72,-46.52 -237.19,-93.7 -385.9,-92.47 -118.72,0.97 -236.07,48.92 -359.52,99.37 -150.81,61.61 -309.96,126.64 -509.03,129.06 -174.59,2.13 -296.15,-49.02 -423.89,-102.78 -138.03,-58.08 -284.33,-119.64 -517.98,-103.47 -185.79,12.86 -300.1,62.57 -402.89,107.24 -137.07,59.56 -256.53,111.46 -469.77,81.77 -93.49,-13.01 -93.26,-104.89 -103.11,-180.98l44.6 11.6c222.91,49.51 333.56,1.41 463.2,-54.92 115.38,-50.14 243.74,-105.94 456.71,-120.68 272.59,-18.9 437.18,50.35 592.42,115.7 112.34,47.27 219.2,92.24 358.84,90.55 167.18,-2.06 312.16,-61.29 449.57,-117.44 137.71,-56.27 268.61,-109.75 419.6,-111 180.88,-1.51 314.69,51.37 446.6,103.49 154.04,60.86 305.18,120.56 525.73,67z"/>
 <path class="fil1p" d="M1497.65 755.7c63.35,19.73 128.54,44.92 200.63,75.24 67.85,28.68 128.39,54.09 193.66,68.94l2056.74 -597.41c119.34,-34.67 295.67,-191.4 261.03,-310.73l-6.37 -21.95 -2705.69 785.91z"/>
 <path class="fil1p" d="M1432.06 654.73l930.72 -826.29 516.72 355.62c57.43,39.53 127.95,46.6 189.56,25.45l1003.49 -308.15c111.81,-34.34 175.52,-153.79 141.31,-265.73 -34.2,-111.93 -153.8,-175.66 -265.7,-141.29l-912.81 280.31 -890.21 -612.67c-36.54,-25.15 -78.37,-37.16 -119.85,-37.13 -50.87,-1.14 -101.88,15.76 -143,52.27l-1140.15 1012.21c-113.25,100.55 -199.58,197.95 -285.78,322.48l-212.14 306.49c78.26,11.69 141.73,6.02 224.38,-25.89 23.66,-9.13 46.71,-19.42 70,-29.39 71.31,-30.74 136.76,-58.2 211.53,-80.87 99.51,-30.17 200.81,-47.08 304.47,-54.32 145.11,-10.08 262.12,-0.4 377.46,26.9zm1654.86 -1468.46c131.94,-198.09 78.28,-465.62 -119.82,-597.53 -198.07,-131.92 -465.6,-78.28 -597.51,119.82 -131.94,198.09 -78.28,465.62 119.82,597.53 198.07,131.92 465.6,78.28 597.51,-119.82z"/>
 <path class="fil2p" d="M4796.54 -116.67c0,-1544.49 -1252.05,-2796.54 -2796.54,-2796.54 -673.67,0 -1291.7,238.22 -1774.43,635.02l3945.51 3924.07c391,-481 625.46,-1094.36 625.46,-1762.55zm-4967.62 -1762.56c-390.98,481.02 -625.46,1094.37 -625.46,1762.56 0,1544.49 1252.05,2796.54 2796.54,2796.54 673.67,0 1291.67,-238.25 1774.43,-635.03l-3945.51 -3924.07zm5671.08 1762.56c0,-1933 -1567,-3500 -3500,-3500 -1933,0 -3500,1567 -3500,3500 0,1933 1567,3500 3500,3500 1933,0 3500,-1567 3500,-3500z"/>
</symbol>
 <g id="Ebene_x0020_1">
  <metadata id="CorelCorpID_0Corel-Layer"/>
  <use id="ISO_x0020_7010_x0020_P063_0" transform="scale(0.571429 0.571429)" x="-0" y="-0" width="7000" height="7000" xlink:href="#ISO_x0020_7010_x0020_P063"/>
 </g>
</svg>
