<?xml version="1.0" encoding="UTF-8"?>
<!DOCTYPE svg PUBLIC "-//W3C//DTD SVG 1.1//EN" "http://www.w3.org/Graphics/SVG/1.1/DTD/svg11.dtd">
<!-- Creator: Corel DESIGNER -->
<svg xmlns="http://www.w3.org/2000/svg" xml:space="preserve" width="40mm" height="40mm" version="1.1" style="shape-rendering:geometricPrecision; text-rendering:geometricPrecision; image-rendering:optimizeQuality; fill-rule:evenodd; clip-rule:evenodd"
viewBox="0 0 2000 2000"
 xmlns:xlink="http://www.w3.org/1999/xlink"
 xmlns:xodm="http://www.corel.com/coreldraw/odm/2003">
 <defs>
  <style type="text/css">
   <![CDATA[
    .fil1p {fill:#0E1313}
    .fil4 {fill:#A1262D}
    .fil2p {fill:#E41836}
    .fil3 {fill:#FFDD00}
    .fil0p {fill:white}
   ]]>
  </style>
 </defs>
<symbol id="ISO_x0020_7010_x0020_P064" viewBox="-3750 -1808.34 3500 3500">
 <circle class="fil0p" cx="-2000" cy="-58.34" r="1575"/>
 <path class="fil1p" d="M-1929.78 -471.24c18.78,-42.9 -0.78,-92.91 -43.7,-111.69 -42.91,-18.79 -92.93,0.77 -111.7,43.69 -18.78,42.92 0.78,92.94 43.7,111.72 42.9,18.78 92.91,-0.79 111.7,-43.71zm268.75 645.84c-326.32,222.72 -747.8,279.29 -953.51,192.78 128.67,-72.86 293.74,-132.15 474.23,-166.44l63.15 -131.1 -193.69 -100.31c-22.18,-11.48 -32.26,-39.22 -22.11,-62.42l118.82 -271.53 -171.22 4.77 -132.51 137.57c-15.98,16.59 -42.61,17.15 -59.21,1.19 -16.61,-15.94 -17.18,-42.62 -1.2,-59.22l144.38 -149.88c7.58,-7.88 17.95,-12.6 29,-12.91l208.02 -5.81c6.41,-0.18 12.55,1.12 18.07,3.56l176.31 77.13c3.62,1.56 7.08,3.68 10.25,6.33l159.38 133.81 159.38 133.81c17.64,14.82 19.9,41.39 5.08,59.02 -14.78,17.55 -41.45,19.82 -59.02,5.07l-159.38 -133.81 -149.97 -125.9 -90.6 207.04 258.08 7.3c33.82,0.97 56.38,36.97 42.52,67.82l-79.77 177.43c68.16,-2.53 136.98,-1.15 205.5,4.69zm-363.71 8.14c16.39,-2.05 32.87,-3.89 49.42,-5.51l71.22 -158.43 -73.51 -2.08c12.56,14.38 15.76,35.47 7.42,52.78l-54.56 113.25z"/>
 <path class="fil1p" d="M-1514.43 604.06l13.05 -3.13c-1.96,24.8 -5.11,46.7 -22.68,51.13 -66.55,11.08 -112.46,-7.06 -159.17,-25.51 -33.96,-13.42 -68.42,-27.03 -111.32,-26.68 -34.25,0.29 -68.1,14.12 -103.71,28.66 -43.51,17.78 -89.41,36.53 -146.84,37.24 -50.37,0.61 -85.43,-14.14 -122.28,-29.65 -39.82,-16.76 -82.02,-34.52 -149.42,-29.86 -53.59,3.72 -86.57,18.05 -116.22,30.93 -39.54,17.18 -74,32.16 -135.52,23.6 -26.96,-3.76 -26.9,-30.25 -29.74,-52.2l12.86 3.34c64.31,14.29 96.23,0.41 133.63,-15.84 33.28,-14.47 70.31,-30.56 131.74,-34.82 78.64,-5.45 126.12,14.53 170.91,33.38 32.4,13.64 63.23,26.62 103.51,26.12 48.22,-0.59 90.05,-17.68 129.69,-33.88 39.71,-16.23 77.48,-31.66 121.04,-32.02 52.17,-0.42 90.78,14.82 128.84,29.86 44.43,17.55 88.03,34.77 151.64,19.32zm0 -103.48l13.05 -3.13c-1.96,24.8 -5.11,46.69 -22.68,51.13 -66.55,11.08 -112.46,-7.06 -159.17,-25.51 -33.96,-13.42 -68.42,-27.03 -111.32,-26.68 -34.25,0.28 -68.1,14.12 -103.71,28.66 -43.51,17.78 -89.41,36.54 -146.84,37.25 -50.37,0.61 -85.43,-14.14 -122.28,-29.65 -39.82,-16.76 -82.02,-34.52 -149.42,-29.85 -53.59,3.72 -86.57,18.05 -116.22,30.94 -39.54,17.18 -74,32.15 -135.52,23.59 -26.96,-3.76 -26.9,-30.25 -29.74,-52.21l12.86 3.34c64.31,14.28 96.23,0.41 133.63,-15.84 33.28,-14.46 70.31,-30.56 131.74,-34.82 78.64,-5.45 126.12,14.53 170.91,33.38 32.4,13.63 63.23,26.61 103.51,26.12 48.22,-0.6 90.05,-17.68 129.69,-33.88 39.71,-16.23 77.48,-31.65 121.04,-32.02 52.17,-0.43 90.78,14.82 128.84,29.86 44.43,17.55 88.03,34.77 151.64,19.32z"/>
 <path class="fil1p" d="M-1509.91 -31.96c-39.66,52.79 -98.82,116 -147.95,155.02 19.16,1.85 38.57,4.09 54.41,5.97 40.1,-36.09 82.25,-81.72 115.12,-123.61l-21.59 -37.39zm54.8 94.91c-79.45,97.69 -177.59,173.91 -285.19,233.13 -124.19,68.37 -260.93,114.09 -396.17,144.07 2.47,1.01 4.96,2.06 7.48,3.11 11.42,4.78 23.45,10.02 35.21,13.86 9.66,3.15 18.87,5.62 28.39,6.99 118.04,-30.41 235.74,-73.3 344.29,-133.05 107.45,-59.15 206.01,-134.85 287.21,-231.34l-21.24 -36.77zm49.07 84.99c-92.96,106.98 -199.93,187.29 -312.38,247.26 -6.09,3.25 -12.19,6.44 -18.3,9.56 17.8,3.45 35.73,8.6 55.61,15.48 106.09,-58.96 207.04,-135.9 296.11,-235.89l-21.03 -36.41z"/>
 <path class="fil1p" d="M-1274.28 -623.56c-18.52,-6.29 -38.47,-6.68 -61.21,0l0 1604.23c16.87,6.93 37.01,6.67 60.06,0l1.15 -1604.23z"/>
 <rect class="fil2p" x="-1274.44" y="-613.33" width="397.8" height="206.11"/>
 <rect class="fil3" x="-1274.44" y="-407.22" width="397.8" height="206.11"/>
 <path class="fil1p" d="M-2725.72 -623.56c18.52,-6.29 38.47,-6.68 61.21,0l0 1604.23c-16.87,6.93 -37.01,6.67 -60.06,0l-1.15 -1604.23z"/>
 <rect class="fil2p" x="-3123.37" y="-613.33" width="397.8" height="206.11"/>
 <rect class="fil3" x="-3123.37" y="-407.22" width="397.8" height="206.11"/>
 <path class="fil4" d="M-601.73 -58.34c0,-772.25 -626.03,-1398.27 -1398.27,-1398.27 -336.84,0 -645.85,119.11 -887.22,317.51l1972.76 1962.03c195.5,-240.5 312.73,-547.18 312.73,-881.27zm-2483.81 -881.28c-195.49,240.51 -312.73,547.18 -312.73,881.28 0,772.25 626.03,1398.27 1398.27,1398.27 336.84,0 645.84,-119.12 887.22,-317.51l-1972.76 -1962.04zm2835.54 881.28c0,-966.5 -783.5,-1750 -1750,-1750 -966.5,0 -1750,783.5 -1750,1750 0,966.5 783.5,1750 1750,1750 966.5,0 1750,-783.5 1750,-1750z"/>
</symbol>
 <g id="Ebene_x0020_1">
  <metadata id="CorelCorpID_0Corel-Layer"/>
  <use id="ISO_x0020_7010_x0020_P064_0" transform="scale(0.571429 0.571429)" x="-0" y="-0" width="3500" height="3500" xlink:href="#ISO_x0020_7010_x0020_P064"/>
 </g>
</svg>
