<?xml version="1.0" encoding="UTF-8"?>
<!DOCTYPE svg PUBLIC "-//W3C//DTD SVG 1.1//EN" "http://www.w3.org/Graphics/SVG/1.1/DTD/svg11.dtd">
<!-- Creator: Corel DESIGNER -->
<svg xmlns="http://www.w3.org/2000/svg" xml:space="preserve" width="40mm" height="40mm" version="1.1" style="shape-rendering:geometricPrecision; text-rendering:geometricPrecision; image-rendering:optimizeQuality; fill-rule:evenodd; clip-rule:evenodd"
viewBox="0 0 1000 1000"
 xmlns:xlink="http://www.w3.org/1999/xlink"
 xmlns:xodm="http://www.corel.com/coreldraw/odm/2003">
 <defs>
  <style type="text/css">
   <![CDATA[
    .fil1p {fill:#0E1313}
    .fil2p {fill:#A1262D}
    .fil0p {fill:white}
   ]]>
  </style>
 </defs>
<symbol id="ISO_x0020_7010_x0020_P067" viewBox="1125 2212.5 1750 1750">
 <circle class="fil0p" cx="2000" cy="3087.5" r="787.5"/>
 <path class="fil1p" d="M2129.78 3250.83l-576.79 0c118.67,-277.86 325.83,-522.95 635,-730.25l0 505.36 0 224.89 0 127 51.6 0 0 62.18 -484.19 0 0 -62.18 374.38 0 0 -127zm-465.82 154.04c0,-29.91 -24.25,-54.16 -54.16,-54.16 -29.91,0 -54.16,24.25 -54.16,54.16 0,29.91 24.25,54.16 54.16,54.16 29.91,0 54.16,-24.25 54.16,-54.16zm60.86 0c0,-63.52 -51.5,-115.02 -115.02,-115.02 -63.52,0 -115.02,51.5 -115.02,115.02 0,63.52 51.5,115.02 115.02,115.02 63.52,0 115.02,-51.5 115.02,-115.02zm716.44 -0c0,-29.91 -24.25,-54.16 -54.16,-54.16 -29.91,0 -54.16,24.25 -54.16,54.16 0,29.91 24.25,54.16 54.16,54.16 29.91,0 54.16,-24.25 54.16,-54.16zm60.86 0c0,-63.52 -51.5,-115.02 -115.02,-115.02 -63.52,0 -115.02,51.5 -115.02,115.02 0,63.52 51.5,115.02 115.02,115.02 63.52,0 115.02,-51.5 115.02,-115.02z"/>
 <path class="fil2p" d="M2699.14 3087.5c0,-386.12 -313.01,-699.14 -699.14,-699.14 -168.42,0 -322.92,59.56 -443.61,158.76l986.38 981.02c97.75,-120.25 156.37,-273.59 156.37,-440.64zm-1241.91 -440.64c-97.74,120.25 -156.37,273.59 -156.37,440.64 0,386.12 313.01,699.14 699.13,699.14 168.42,0 322.92,-59.56 443.61,-158.76l-986.38 -981.01zm1417.77 440.64c0,-483.25 -391.75,-875 -875,-875 -483.25,0 -875,391.75 -875,875 0,483.25 391.75,875 875,875 483.25,0 875,-391.75 875,-875z"/>
</symbol>
 <g id="Ebene_x0020_1">
  <metadata id="CorelCorpID_0Corel-Layer"/>
  <use id="ISO_x0020_7010_x0020_P067_0" transform="scale(0.571429 0.571429)" x="-0" y="-0" width="1750" height="1750" xlink:href="#ISO_x0020_7010_x0020_P067"/>
 </g>
</svg>
