<?xml version="1.0" encoding="UTF-8"?>
<!DOCTYPE svg PUBLIC "-//W3C//DTD SVG 1.1//EN" "http://www.w3.org/Graphics/SVG/1.1/DTD/svg11.dtd">
<!-- Creator: Corel DESIGNER -->
<svg xmlns="http://www.w3.org/2000/svg" xml:space="preserve" width="40mm" height="40mm" version="1.1" style="shape-rendering:geometricPrecision; text-rendering:geometricPrecision; image-rendering:optimizeQuality; fill-rule:evenodd; clip-rule:evenodd"
viewBox="0 0 2000 2000"
 xmlns:xlink="http://www.w3.org/1999/xlink"
 xmlns:xodm="http://www.corel.com/coreldraw/odm/2003">
 <defs>
  <style type="text/css">
   <![CDATA[
    .fil1p {fill:#0E1313}
    .fil2p {fill:#A1262D}
    .fil0p {fill:white}
   ]]>
  </style>
 </defs>
<symbol id="ISO_x0020_7010_x0020_P072" viewBox="-3750 1308.33 3500 3500">
 <circle class="fil0p" cx="-2000" cy="3058.33" r="1575"/>
 <path id="Head" class="fil1p" d="M-1850.29 2027.5c-16.82,-60.48 -79.49,-95.86 -139.96,-79.03 -60.47,16.83 -95.86,79.49 -79.03,139.96 16.83,60.47 79.49,95.86 139.97,79.03 60.48,-16.83 95.86,-79.49 79.03,-139.96zm-195.05 204.01l438.68 -122.08 -117.04 -159.23c-18.29,-24.88 -12.81,-60.2 12.09,-78.45 24.9,-18.25 60.16,-12.78 78.45,12.09l162.81 221.5c23.55,32.03 12.24,79.28 -27.78,90.41l-268.67 74.76 108.06 388.36c4.06,14.89 2.93,30.32 -3.33,44.41l-121.37 266.4 261.88 130.8c31.46,15.72 44.24,54.53 28.39,86.25 -15.85,31.72 -54.56,44.82 -86.02,29.11l-317.53 -158.61c-29.98,-15.3 -44.2,-51.91 -29.85,-84.41l82.71 -181.53 -224.77 169.93 -57.45 324.59c-6.12,34.63 -39.71,57.91 -74.63,51.73 -34.91,-6.18 -58.47,-39.58 -52.34,-74.2l61.87 -349.51c2.97,-16.12 11.63,-30.18 24.61,-40.2l247.79 -187.34 -19.76 -71.02 -76.46 -274.78 -242.41 116.38c-27.78,13.34 -61.38,1.65 -74.84,-26.05l-136.64 -238.64c-15.34,-26.78 -6.06,-61.24 20.71,-76.62 26.77,-15.38 61.28,-6.07 76.62,20.72l112.68 196.78 204.15 -98.02c3.07,-1.47 6.22,-2.64 9.4,-3.52z"/>
 <path class="fil1p" d="M-750.32 3122.05l-666.55 0 0 868.81 -1417.48 0c46.17,41.34 95.43,79.3 147.39,113.49l1270.08 0 103.82 0c51.96,-34.19 101.22,-72.15 147.39,-113.49 241.14,-215.9 398.05,-523.96 415.34,-868.81z"/>
 <path class="fil2p" d="M-601.73 3058.33c0,-772.24 -626.03,-1398.27 -1398.27,-1398.27 -336.84,0 -645.85,119.11 -887.22,317.51l1972.76 1962.04c195.5,-240.5 312.73,-547.18 312.73,-881.28zm-2483.81 -881.28c-195.49,240.51 -312.73,547.18 -312.73,881.28 0,772.24 626.03,1398.27 1398.27,1398.27 336.84,0 645.84,-119.12 887.22,-317.52l-1972.76 -1962.03zm2835.54 881.28c0,-966.5 -783.5,-1750 -1750,-1750 -966.5,0 -1750,783.5 -1750,1750 0,966.5 783.5,1750 1750,1750 966.5,0 1750,-783.5 1750,-1750z"/>
</symbol>
 <g id="Ebene_x0020_1">
  <metadata id="CorelCorpID_0Corel-Layer"/>
  <use id="ISO_x0020_7010_x0020_P072_0" transform="scale(0.571429 0.571429)" x="-0" y="-0" width="3500" height="3500" xlink:href="#ISO_x0020_7010_x0020_P072"/>
 </g>
</svg>
