<?xml version="1.0" encoding="UTF-8"?>
<!DOCTYPE svg PUBLIC "-//W3C//DTD SVG 1.1//EN" "http://www.w3.org/Graphics/SVG/1.1/DTD/svg11.dtd">
<!-- Creator: Corel DESIGNER -->
<svg xmlns="http://www.w3.org/2000/svg" xml:space="preserve" width="40mm" height="34.9578mm" version="1.1" style="shape-rendering:geometricPrecision; text-rendering:geometricPrecision; image-rendering:optimizeQuality; fill-rule:evenodd; clip-rule:evenodd"
viewBox="0 0 1000 873.95"
 xmlns:xlink="http://www.w3.org/1999/xlink"
 xmlns:xodm="http://www.corel.com/coreldraw/odm/2003">
 <defs>
  <style type="text/css">
   <![CDATA[
    .fil0w {fill:#F5CA2B}
    .fil1w {fill:#21251E}
   ]]>
  </style>
 </defs>
<symbol id="ISO_x0020_7010_x0020_W004" viewBox="1125 701.44 1750 1529.4">
 <polygon class="fil0w" points="2822.6,2177.98 1177.99,2177.98 2000.29,753.7 "/>
 <path class="fil1w" d="M1269.4 2125.48l730.6 -1265.43 730.6 1265.43 -1461.2 0zm1553.3 105.35l-1645.4 0c-40.29,0 -65.33,-43.37 -45.19,-78.26l822.7 -1424.97c20.14,-34.89 70.23,-34.89 90.38,0l822.7 1424.97c20.14,34.89 -4.9,78.26 -45.19,78.26z"/>
 <path class="fil1w" d="M2116.18 1680.37l-0.35 -2.04 128.73 -29.04 -7.63 -28.47 -125.99 39.22c-1.19,-3.34 -2.52,-6.6 -3.99,-9.78l219.93 -118.87 -17.78 -30.81 -212.93 131.04c-2.03,-2.88 -4.2,-5.66 -6.48,-8.34l96.98 -89.52 -20.84 -20.84 -89.52 96.97c-2.68,-2.28 -5.46,-4.44 -8.34,-6.48l131.04 -212.92 -30.81 -17.79 -118.87 219.93c-3.19,-1.47 -6.45,-2.81 -9.78,-3.99l39.21 -125.99 -28.47 -7.63 -29.04 128.72c-3.44,-0.62 -6.93,-1.1 -10.47,-1.42l7.02 -249.91 -35.58 0 7.02 249.92c-3.53,0.32 -7.02,0.8 -10.46,1.42l-29.04 -128.73 -28.47 7.63 39.21 125.99c-3.33,1.19 -6.6,2.52 -9.78,3.99l-118.87 -219.93 -30.81 17.79 131.04 212.93c-2.88,2.04 -5.66,4.2 -8.33,6.48l-89.53 -96.98 -20.84 20.84 96.97 89.52c-2.28,2.68 -4.44,5.46 -6.48,8.34l-212.92 -131.04 -17.79 30.81 219.93 118.88c-1.47,3.19 -2.8,6.45 -3.99,9.78l-125.99 -39.22 -7.62 28.47 128.73 29.04c-0.63,3.44 -1.11,6.93 -1.42,10.47l-249.92 -7.02 0 35.58 249.91 -7.02c0.32,3.54 0.8,7.03 1.43,10.46l-128.73 29.04 7.63 28.47 125.98 -39.21c1.19,3.33 2.53,6.6 4,9.78l-219.92 118.87 17.78 30.81 212.93 -131.04c2.04,2.88 4.2,5.66 6.48,8.34l-96.98 89.53 20.84 20.84 89.53 -96.98c2.68,2.28 5.46,4.44 8.34,6.48l-131.04 212.93 30.81 17.79 118.88 -219.94c3.19,1.47 6.45,2.8 9.78,3.99l-39.21 125.99 28.47 7.62 29.04 -128.73c3.44,0.63 6.93,1.11 10.47,1.43l-7.02 249.92 35.58 0 -7.02 -249.91c3.53,-0.32 7.02,-0.8 10.46,-1.43l29.04 128.72 28.47 -7.63 -39.21 -125.99c3.33,-1.19 6.6,-2.52 9.79,-3.99l118.87 219.93 30.81 -17.79 -131.04 -212.93c2.88,-2.04 5.66,-4.2 8.34,-6.48l89.53 96.98 20.84 -20.84 -96.98 -89.53c2.28,-2.68 4.44,-5.46 6.48,-8.34l212.93 131.04 17.79 -30.81 -219.93 -118.87c1.47,-3.18 2.8,-6.45 3.99,-9.78l125.99 39.21 7.62 -28.47 -128.73 -29.04 0.35 -2.04 397.52 0 0 -38.4 -397.52 0z"/>
</symbol>
 <g id="Ebene_x0020_1">
  <metadata id="CorelCorpID_0Corel-Layer"/>
  <use id="ISO_x0020_7010_x0020_W004_0" transform="scale(0.571429 0.57143)" x="-0" width="1750" height="1529.4" xlink:href="#ISO_x0020_7010_x0020_W004"/>
 </g>
</svg>
