<?xml version="1.0" encoding="UTF-8"?>
<!DOCTYPE svg PUBLIC "-//W3C//DTD SVG 1.1//EN" "http://www.w3.org/Graphics/SVG/1.1/DTD/svg11.dtd">
<!-- Creator: Corel DESIGNER -->
<svg xmlns="http://www.w3.org/2000/svg" xml:space="preserve" width="40mm" height="34.9578mm" version="1.1" style="shape-rendering:geometricPrecision; text-rendering:geometricPrecision; image-rendering:optimizeQuality; fill-rule:evenodd; clip-rule:evenodd"
viewBox="0 0 2000 1747.89"
 xmlns:xlink="http://www.w3.org/1999/xlink"
 xmlns:xodm="http://www.corel.com/coreldraw/odm/2003">
 <defs>
  <style type="text/css">
   <![CDATA[
    .fil0w {fill:#F5CA2B}
    .fil1w {fill:#21251E}
   ]]>
  </style>
 </defs>
<symbol id="ISO_x0020_7010_x0020_W006" viewBox="-3750 1402.88 3500 3058.8">
 <polygon class="fil0w" points="-354.8,4355.95 -3644.03,4355.95 -1999.41,1507.39 "/>
 <path class="fil1w" d="M-3461.2 4250.97l1461.2 -2530.86 1461.2 2530.86 -2922.4 0zm3106.61 210.7l-3290.81 0.01c-80.57,0 -130.66,-86.74 -90.38,-156.53l1645.4 -2849.94c40.28,-69.78 140.46,-69.78 180.75,0l1645.4 2849.94c40.29,69.78 -9.8,156.52 -90.38,156.52z"/>
 <path id="Magnet" class="fil1w" d="M-2499.86 3094.18c-36.01,-350.61 173.67,-480.24 490.59,-485.55 316.93,5.3 526.6,134.94 490.59,485.55l-44.52 685.89 -21.24 322.96 -275.34 0c29.69,-329.42 55.52,-740.68 89.82,-1070.35 4.26,-141.22 -110.19,-204.88 -239.32,-198.3 -129.12,-6.58 -243.57,57.08 -239.31,198.3 34.25,329.2 58.91,740.95 89.82,1070.35l-275.34 0c-9.9,-106.64 -17.03,-203.57 -23.4,-322.96 -12.09,-226.45 -21.56,-483.26 -42.36,-685.89zm908.76 685.89l-213.57 0 -21.71 292.12 213.74 0 21.54 -292.12zm-837.07 0l213.57 0 22.43 292.12 -213.74 0 -22.27 -292.12z"/>
 <path class="fil1w" d="M-2658.32 3755.03c-16.28,49.47 -26.29,101.18 -28.84,155.47 -2.57,54.91 2.3,112.69 15.8,173.74l-60.76 13.42c-14.74,-66.72 -20.07,-129.85 -17.26,-189.84 2.85,-60.63 13.86,-117.9 31.77,-172.31l59.29 19.52zm134.22 0c-16.28,49.47 -26.28,101.18 -28.83,155.47 -2.58,54.91 2.31,112.69 15.79,173.74l-60.75 13.42c-14.74,-66.72 -20.07,-129.85 -17.26,-189.84 2.84,-60.63 13.86,-117.9 31.76,-172.31l59.29 19.52z"/>
 <path class="fil1w" d="M-1341.67 3755.03c16.28,49.47 26.29,101.18 28.83,155.47 2.58,54.91 -2.31,112.69 -15.79,173.74l60.75 13.42c14.75,-66.72 20.08,-129.85 17.27,-189.84 -2.85,-60.63 -13.87,-117.9 -31.77,-172.31l-59.29 19.52zm-134.23 0c16.28,49.47 26.29,101.18 28.83,155.47 2.58,54.91 -2.31,112.69 -15.79,173.74l60.76 13.42c14.74,-66.72 20.07,-129.85 17.26,-189.84 -2.84,-60.63 -13.86,-117.9 -31.77,-172.31l-59.29 19.52z"/>
</symbol>
 <g id="Ebene_x0020_1">
  <metadata id="CorelCorpID_0Corel-Layer"/>
  <use id="ISO_x0020_7010_x0020_W006_0" transform="scale(0.571429 0.57143)" x="-0" y="0" width="3500" height="3058.8" xlink:href="#ISO_x0020_7010_x0020_W006"/>
 </g>
</svg>
