<?xml version="1.0" encoding="UTF-8"?>
<!DOCTYPE svg PUBLIC "-//W3C//DTD SVG 1.1//EN" "http://www.w3.org/Graphics/SVG/1.1/DTD/svg11.dtd">
<!-- Creator: Corel DESIGNER -->
<svg xmlns="http://www.w3.org/2000/svg" xml:space="preserve" width="40mm" height="34.9578mm" version="1.1" style="shape-rendering:geometricPrecision; text-rendering:geometricPrecision; image-rendering:optimizeQuality; fill-rule:evenodd; clip-rule:evenodd"
viewBox="0 0 1000 873.94"
 xmlns:xlink="http://www.w3.org/1999/xlink"
 xmlns:xodm="http://www.corel.com/coreldraw/odm/2003">
 <defs>
  <style type="text/css">
   <![CDATA[
    .fil0w {fill:#F5CA2B}
    .fil1w {fill:#21251E}
   ]]>
  </style>
 </defs>
<symbol id="ISO_x0020_7010_x0020_W007" viewBox="1125 -856.9 1750 1529.4">
 <polygon class="fil0w" points="2822.6,619.64 1177.99,619.64 2000.29,-804.64 "/>
 <path class="fil1w" d="M1269.4 567.15l730.6 -1265.43 730.6 1265.43 -1461.2 0zm1553.3 105.35l-1645.4 0c-40.29,0 -65.33,-43.37 -45.19,-78.26l822.7 -1424.97c20.14,-34.89 70.23,-34.89 90.38,0l822.7 1424.97c20.14,34.89 -4.9,78.26 -45.19,78.26z"/>
 <path class="fil1w" d="M2260.99 -76.4c12.48,30.34 -2.01,65.07 -32.36,77.55 -30.34,12.48 -65.07,-2.01 -77.55,-32.36 -12.48,-30.34 2.01,-65.07 32.36,-77.55 30.35,-12.48 65.07,2.02 77.55,32.36zm-650.68 303.52c-51.58,-2.06 -41.16,-71.5 0.47,-69.83l162.65 6.51 63.65 -130.13c4.72,-9.66 12.41,-16.45 21.76,-20.3l184.06 -75.68 -85.82 -51.87 -114.68 48.03c-35.89,15.04 -65.4,-40.81 -24.3,-58.02l129.91 -54.4c7.95,-3.49 19.21,-2.42 26.92,2.16l131 79.33c6.32,3.82 11.13,9.2 13.62,15.58l44.55 114.29c3.76,9.66 3.41,20.45 -2.63,29.85l-62.36 96.9 77.84 85.51c27.78,30.52 -18.69,73.17 -46.52,42.35l-97.73 -108.22c-6.44,-10.57 -6.01,-23.52 0.79,-33.92l44.96 -71.05 -147.23 60.54 1.73 157.3c0.16,14.13 -7.37,25.96 -19.38,34.48l-142.27 100.99c-32.19,22.85 -80.57,-27.21 -34.02,-60.97l125.68 -91.15 -1.46 -132.81 -34.23 69.97c-5.91,14.87 -21.09,23.62 -36.55,21.78l-180.42 -7.22z"/>
 <rect class="fil1w" x="1828.84" y="399.64" width="349.82" height="93.65"/>
</symbol>
 <g id="Ebene_x0020_1">
  <metadata id="CorelCorpID_0Corel-Layer"/>
  <use id="ISO_x0020_7010_x0020_W007_0" transform="scale(0.571429 0.57143)" x="-0" width="1750" height="1529.4" xlink:href="#ISO_x0020_7010_x0020_W007"/>
 </g>
</svg>
