<?xml version="1.0" encoding="UTF-8"?>
<!DOCTYPE svg PUBLIC "-//W3C//DTD SVG 1.1//EN" "http://www.w3.org/Graphics/SVG/1.1/DTD/svg11.dtd">
<!-- Creator: Corel DESIGNER -->
<svg xmlns="http://www.w3.org/2000/svg" xml:space="preserve" width="40mm" height="34.9578mm" version="1.1" style="shape-rendering:geometricPrecision; text-rendering:geometricPrecision; image-rendering:optimizeQuality; fill-rule:evenodd; clip-rule:evenodd"
viewBox="0 0 4000 3495.78"
 xmlns:xlink="http://www.w3.org/1999/xlink"
 xmlns:xodm="http://www.corel.com/coreldraw/odm/2003">
 <defs>
  <style type="text/css">
   <![CDATA[
    .fil0w {fill:#F5CA2B}
    .fil1w {fill:#21251E}
   ]]>
  </style>
 </defs>
<symbol id="ISO_x0020_7010_x0020_W013" viewBox="-1500 9039.09 7000 6117.6">
 <polygon class="fil0w" points="5290.4,14945.25 -1288.06,14945.25 2001.17,9248.13 "/>
 <path class="fil1w" d="M-922.41 14735.27l2922.41 -5061.73 2922.4 5061.73 -5844.81 0zm6213.22 421.41l-6581.62 0.01c-161.14,0 -261.32,-173.49 -180.75,-313.05l3290.81 -5699.88c80.57,-139.55 280.93,-139.55 361.5,0l3290.81 5699.87c80.57,139.56 -19.61,313.05 -180.75,313.05z"/>
 <path class="fil1w" d="M3267.75 12917.38l-228.51 -201.87c-121.05,-113.96 -172.95,-190.53 -250.22,-263.22l-174.39 -143.26c-4.89,-152.25 98.57,-580 47.99,-681.58 -54.07,-1.67 -19.46,11.17 -102.09,72.28l-204.11 157.38c-84.25,69.09 -45.95,82.43 -118.22,73.73 -58.33,-86.35 -14.98,-214.85 -36.16,-318.82 -59.74,-16.41 -76.1,31.84 -94.12,72.62 -162.81,368.44 -58.59,389 -549.42,563.47 -42.91,15.25 -85.13,39.38 -136.97,53.34 -51.44,13.85 -92.4,26.26 -98.1,83.09 -7.8,77.84 -8.92,224.93 -111.36,256.25l-155.4 34.38c-104.09,29.89 -183.06,66.33 -274.11,96.06 -120.56,39.38 -374.05,3.31 -285.2,185.71 29.79,61.16 51.96,32.63 90.9,79.98 22.5,27.36 21.06,37.23 53.73,59.87 159.93,110.82 277.33,36.34 466.36,58.21 -45.53,61.67 -212.46,18.18 -248.77,114.45 -14.48,38.39 8.54,32.62 46.06,116.94 21.91,49.26 79.13,37.62 134.79,42.48 124.81,10.9 219.98,-8.13 323.85,-36.82 88.3,-24.4 200.35,-79.36 321.31,-45.5 46.92,13.14 177.42,271.63 214.47,327.87 88.32,134.11 -42.9,78.9 200.9,349.5 89.11,98.89 83.84,165.63 131.2,242.99l1035.59 -1349.53zm-1780.49 -241.08c42.41,3.84 58.72,-9.3 88.42,-21.73 37.54,-15.7 69.73,-8.71 113.14,-9.69 -4.23,-31.95 -3.75,-37.83 -57.86,-61.3 -130.56,-56.64 -222.14,-54.01 -143.7,92.72zm1037.42 1741.19l120.27 -0.02 957.44 -1265.8 -52.06 -83.22 -1025.65 1349.04zm427.81 -663.87c50.39,-31 66.56,-96.24 36.12,-145.71 -30.44,-49.48 -95.96,-64.45 -146.35,-33.45 -50.39,31 -66.56,96.24 -36.12,145.71 30.43,49.48 95.96,64.45 146.35,33.45zm314.57 -437.46c56.81,-16.35 89.8,-74.97 73.7,-130.95 -16.11,-55.98 -75.21,-88.11 -132.02,-71.77 -56.8,16.34 -89.79,74.97 -73.69,130.95 16.11,55.98 75.21,88.11 132.01,71.77zm-711.33 693.23c-59.09,-2.31 -108.82,42.69 -111.08,100.5 -2.25,57.8 43.82,106.54 102.91,108.84 59.09,2.31 108.82,-42.69 111.08,-100.5 2.25,-57.8 -43.82,-106.54 -102.91,-108.84z"/>
</symbol>
 <g id="Ebene_x0020_1">
  <metadata id="CorelCorpID_0Corel-Layer"/>
  <use id="ISO_x0020_7010_x0020_W013_0" transform="scale(0.571429 0.57143)" x="-0" y="0" width="7000" height="6117.6" xlink:href="#ISO_x0020_7010_x0020_W013"/>
 </g>
</svg>
