<?xml version="1.0" encoding="UTF-8"?>
<!DOCTYPE svg PUBLIC "-//W3C//DTD SVG 1.1//EN" "http://www.w3.org/Graphics/SVG/1.1/DTD/svg11.dtd">
<!-- Creator: Corel DESIGNER -->
<svg xmlns="http://www.w3.org/2000/svg" xml:space="preserve" width="40mm" height="34.9578mm" version="1.1" style="shape-rendering:geometricPrecision; text-rendering:geometricPrecision; image-rendering:optimizeQuality; fill-rule:evenodd; clip-rule:evenodd"
viewBox="0 0 2000 1747.89"
 xmlns:xlink="http://www.w3.org/1999/xlink"
 xmlns:xodm="http://www.corel.com/coreldraw/odm/2003">
 <defs>
  <style type="text/css">
   <![CDATA[
    .fil0w {fill:#F5CA2B}
    .fil1w {fill:#21251E}
   ]]>
  </style>
 </defs>
<symbol id="ISO_x0020_7010_x0020_W014" viewBox="-3750 4519.55 3500 3058.8">
 <polygon class="fil0w" points="-354.8,7472.62 -3644.03,7472.62 -1999.41,4624.06 "/>
 <path class="fil1w" d="M-3461.2 7367.64l1461.2 -2530.87 1461.2 2530.87 -2922.4 0zm3106.61 210.7l-3290.81 0c-80.57,0 -130.66,-86.74 -90.38,-156.52l1645.4 -2849.94c40.28,-69.77 140.46,-69.77 180.75,0l1645.4 2849.94c40.29,69.78 -9.8,156.53 -90.38,156.53z"/>
 <path class="fil1w" d="M-1750.22 6093.73c32.93,-22.48 41.56,-67.19 19.26,-99.86 -22.3,-32.67 -67.08,-40.93 -100.02,-18.44 -32.94,22.49 -41.57,67.2 -19.27,99.86 22.31,32.67 67.09,40.92 100.03,18.44zm95.72 878.73c-44.32,-1.19 -81.19,33.3 -82.37,77.04 -1.18,43.73 33.79,80.16 78.1,81.35 44.32,1.2 81.19,-33.3 82.37,-77.03 1.18,-43.74 -33.79,-80.16 -78.1,-81.36zm-387.9 -299.72l62.5 -177.72 41.08 0.05 0 177.67 -103.57 0zm37.97 -262.46c-19.51,-2.45 -38.7,9.2 -45.48,28.48l-73.11 207.89c-3.07,8.73 -2.98,17.83 -0.38,26.09l-212.32 0 222.62 -319.23 28.43 34.65c7.91,9.65 22.66,10.22 30.74,2.87 9.24,-7.66 10.47,-21.45 2.86,-30.74l-31.02 -37.8 169.21 46.3c16.24,5.18 33.64,-2.41 41.46,-17.41l12.68 -24.33 0 83.4 -145.69 -0.18zm84.26 -115.36l-147.62 -40.4c-18.39,-5.03 -37.48,6.39 -42.27,24.85 -0.67,2.57 -1.03,5.15 -1.09,7.69l-27.5 -33.51c-7.62,-9.28 -21.5,-10.52 -30.74,-2.86 -3.79,1.36 -13.86,17.48 -2.87,30.73l32.95 40.16 -244.89 351.16 -13.23 0 295.95 -758.82c8.17,-20.94 20.12,-30.57 44.59,-30.57l353.13 0c21.44,0 37,9.99 37,34.15l0 528.65 -58.07 0 0 -252.17c0,-36.83 -30.12,-66.95 -66.96,-66.95 -21.67,0 -48.07,13.37 -58.14,33.16l-70.24 134.72zm-610.44 493.2l-83.6 -0.04 446.72 -1145.8 -89.7 -34.97 -561.36 1439.8 -242.18 -94.43 -34.97 89.69 331.89 129.4 46.57 -119.44 152.57 0.06c0.42,87.56 70.37,159.59 160.56,162.01 90.18,2.43 168.24,-81.34 169.28,-158.31l0.05 -3.7 413.25 0c1.33,73.45 70.5,159.59 160.52,162.01 90.01,2.43 166.86,-68.42 169.28,-158.31 0.03,-1.23 0.05,-2.47 0.05,-3.7l219.78 0 0.62 -457.53c0.15,-107.36 -66.12,-148.4 -160.87,-148.52l-145.65 -0.18 0 -496.78c0,-90.95 -42.93,-150.89 -136.88,-150.89l-333.84 0c-52.86,0 -105.13,20.43 -125.91,73.72l-241.2 618.77 -114.98 297.13zm133.02 184.34c-44.32,-1.19 -81.2,33.3 -82.38,77.04 -1.18,43.73 33.79,80.16 78.11,81.35 44.31,1.2 81.19,-33.3 82.37,-77.03 1.18,-43.74 -33.79,-80.16 -78.1,-81.36z"/>
</symbol>
 <g id="Ebene_x0020_1">
  <metadata id="CorelCorpID_0Corel-Layer"/>
  <use id="ISO_x0020_7010_x0020_W014_0" transform="scale(0.571429 0.57143)" x="-0" y="0" width="3500" height="3058.8" xlink:href="#ISO_x0020_7010_x0020_W014"/>
 </g>
</svg>
