<?xml version="1.0" encoding="UTF-8"?>
<!DOCTYPE svg PUBLIC "-//W3C//DTD SVG 1.1//EN" "http://www.w3.org/Graphics/SVG/1.1/DTD/svg11.dtd">
<!-- Creator: Corel DESIGNER -->
<svg xmlns="http://www.w3.org/2000/svg" xml:space="preserve" width="40mm" height="34.9578mm" version="1.1" style="shape-rendering:geometricPrecision; text-rendering:geometricPrecision; image-rendering:optimizeQuality; fill-rule:evenodd; clip-rule:evenodd"
viewBox="0 0 4000 3495.78"
 xmlns:xlink="http://www.w3.org/1999/xlink"
 xmlns:xodm="http://www.corel.com/coreldraw/odm/2003">
 <defs>
  <style type="text/css">
   <![CDATA[
    .fil0w {fill:#F5CA2B}
    .fil1w {fill:#21251E}
   ]]>
  </style>
 </defs>
<symbol id="ISO_x0020_7010_x0020_W016" viewBox="-1500 2805.75 7000 6117.6">
 <polygon class="fil0w" points="5290.4,8711.91 -1288.06,8711.91 2001.17,3014.79 "/>
 <path class="fil1w" d="M-922.41 8501.93l2922.41 -5061.73 2922.4 5061.73 -5844.81 0zm6213.22 421.41l-6581.62 0.01c-161.14,0 -261.32,-173.49 -180.75,-313.05l3290.81 -5699.88c80.57,-139.55 280.93,-139.55 361.5,0l3290.81 5699.87c80.57,139.56 -19.61,313.05 -180.75,313.05z"/>
 <path class="fil1w" d="M1267.91 7003.85c-162.12,-55.07 -336.27,-122.98 -498.76,-183.78 -41.76,-15.63 -48.63,-25.17 -132.14,-89.33 -83.76,-64.36 -176.75,-51.39 -203.38,76.5 -17.83,85.67 22.27,86.72 -31.39,160.11 -66.5,90.95 -12.63,228.04 130.41,188.87 105.79,-28.98 131.91,-26.61 176.31,-9.22 225.5,88.34 458.79,146.81 676.05,230.02 5,16.7 6.18,30.57 21.83,75.04 12.5,35.54 18.02,48.54 22.98,72.45l-532.26 229.98c-37.23,16.08 -79.58,14.88 -124.31,12.65 -66.83,-3.34 -113.89,-16.98 -157.21,25.02 -42.41,41.11 -32.44,94.79 -7.99,142.64 62.38,122.11 17.34,45.99 36.05,146.21 7.41,39.68 41.66,77.6 84.9,93.93 74.59,28.16 101.33,-7.67 161.88,-50.87 27.65,-19.72 59.04,-43.53 95.05,-60.09l598.03 -274.87c123.6,119.74 257.39,159.65 432.22,156.87 150.7,-2.41 327.62,-63.13 411.99,-144.42 16.92,7.76 45.45,13.22 110.7,43.51 177.11,82.21 360.08,149.08 536.66,235.77 55.83,27.41 101.82,78.98 149.67,97.32 155.32,59.51 170.53,-86.85 196.55,-166.89 9.29,-28.56 91.67,-117.25 38.44,-191.16 -69.37,-96.29 -146.28,4.8 -310.65,-50.35l-553.63 -220.19c21.96,-40.63 42.99,-95.75 54.69,-146.38 11.56,-50.05 13.53,-71.25 18.78,-100.28l426.82 -198.37c65.12,-30.27 132.86,-36.91 216.57,-14.4 98.69,26.54 235.06,104.73 296.51,2.14 26.12,-43.61 18.96,-115.9 -2.92,-162.16 -7.6,-16.07 -32.62,-45.53 -36.88,-57.24 -17.82,-49.1 23.75,-164.85 -83.53,-223.06 -105.26,-57.11 -152.82,47.67 -278.22,98.18 -85.59,34.47 -375.54,172.16 -428.28,178.23 145.08,-269.27 -34.28,-215.9 84.18,-436.99 23.85,-44.52 37.47,-94.31 55.01,-153.41 49.2,-165.8 48.9,-517.91 -20.83,-654.38 -46.32,-90.66 -89.24,-151.49 -156.71,-222.71 -116.72,-123.21 -180.49,-147.47 -342.84,-221.94 -127,-58.25 -349.97,-81.6 -497.26,-70.92 -202.28,14.66 -412.12,102.26 -540.19,211.68 -166.33,142.11 -233.87,208.11 -309.6,445.04 -35.31,110.45 -39.43,303.98 27.45,475.02 19.47,49.82 47.99,86.62 63.99,129.41 33.63,89.93 -120.65,213.97 49.96,464.5 22.63,33.24 69.39,66.58 75.3,112.32zm-153.04 -977.03c0.15,56.31 40.45,274.93 95.04,300.63 61.51,-89.3 -60.95,-325.91 23.76,-512.11 9.92,-21.79 51.09,-21.13 64.43,-4.24 43.8,55.44 -16.33,87.73 -3.93,188.8 9.63,78.51 19.81,129.82 20.05,222 0.82,320.95 -193.76,329.77 -46.53,594.06 20.23,36.32 29.17,38.26 72.99,51.33 24.3,7.24 64.28,20.18 92.55,30.99 63.33,24.21 101.83,50.62 130.84,107.89 28.99,57.24 38.23,117.1 60.06,186.99 3.47,11.11 19.2,-5.99 32.18,-4.64 12.98,1.35 19.84,13.09 31.54,15.58 11.69,2.49 27.06,-6.69 40.08,-2.74 13.01,3.95 27.5,21.51 39.72,25.49 12.22,3.98 21.36,-2.94 33.88,2.37 12.53,5.31 15.66,15.92 27.77,19.81 12.11,3.89 26.71,-2.67 39.83,0.5 13.11,3.17 26.12,16.58 39.72,18.57 13.59,2 28.5,-7.35 42.72,-6.6 14.21,0.74 27.69,11.73 42.87,11.43 15.17,-0.29 27,-12.09 48.86,-13.33 21.85,-1.24 34.13,11.13 52.38,8.41 18.24,-2.73 30.12,-18.67 52.38,-24.06 22.26,-5.39 34.66,4.31 52.38,0.29 17.71,-4.02 22.32,-15.28 38.89,-21.82 16.58,-6.55 27.32,2.63 47.17,-7.69 19.85,-10.32 14.77,-18.08 30.89,-24.89 16.12,-6.81 26.67,2.43 41.34,-3.37 14.66,-5.8 12.01,-11.98 28.14,-21.29 16.13,-9.31 44.34,2.77 47.2,-10.44 24.23,-53.27 33.13,-111.94 65.41,-161.18 24.64,-37.6 90.26,-84.77 133.83,-105.36 143.21,-67.69 119.69,-170.04 62.63,-317.35 -55.41,-143.05 -58.35,-247.4 -21.24,-402.82 19.27,-80.69 44.67,-119.04 34.88,-217.17 -7.7,-77.21 -88.03,-158.89 -39.95,-207.2 32.88,-33.02 80.05,-9.49 113.45,99.08 76.8,249.69 -119.15,468.46 -23.88,613.81 62.05,-25.87 100.23,-306.49 100.37,-368.28 0.11,-43.12 -0.59,-83.28 -2.87,-121.22 -14.51,-240.67 -119.93,-403.15 -314.74,-538.45 -145.51,-101.08 -323.47,-161.2 -508.42,-167.12 -253.33,-8.1 -461.97,76.97 -623.97,203.2 -178.24,148.64 -295.36,312.02 -294.7,562.14zm1406.35 1141.8l-41.15 241.57c-1.92,22.88 -13.91,42.97 -33.09,53.03 -8.79,4.6 -16.9,-5.35 -26.07,-0.06 -10.83,6.24 -32.66,31.34 -43.95,36.67 -10.95,5.18 -33.36,-6.11 -43.95,3.54 -9.56,8.73 -27.07,22.43 -36.36,26.29 -19.57,8.14 -24.24,-6.16 -42.69,0.36 -18.44,6.52 -25.63,26.73 -43.08,31.71 -17.45,4.99 -34.45,-7 -51.06,-3.45 -16.6,3.55 -32.82,22.63 -48.72,24.83 -15.89,2.2 -31.48,-12.49 -46.81,-11.55 -15.33,0.94 -30.41,20.21 -45.32,19.99 -14.9,-0.22 -29.63,-22.66 -44.25,-23.95 -14.62,-1.3 -29.14,15.82 -43.61,13.54 -14.48,-2.28 -28.93,-21.27 -43.4,-24.44 -14.48,-3.17 -29,9.47 -43.61,5.5 -14.62,-3.96 -29.34,-27.25 -44.24,-31.93 -14.9,-4.67 -29.98,9.26 -45.3,3.97 -15.32,-5.29 -30.89,-32.51 -46.78,-38.32 -15.88,-5.81 -21.6,5.61 -48.69,-4.58 -27.09,-10.18 -52,-25.49 -67.28,-75 -28.26,-91.59 -46.64,-167.49 -69.1,-259.17 -20.41,-83.32 -52.52,-147.07 -126.34,-166.28 -1.19,33.67 25.88,97.9 33.72,139.66l53.6 285.19c15.84,65.8 58.96,168.01 118.65,257.47 95.79,143.54 225.78,187.67 410.01,183.14 176.87,-4.36 338.16,-67.75 435.42,-215.75 139.37,-212.07 128.84,-289.48 155.51,-520.01 4.7,-40.66 40.61,-133.17 16.18,-130.97 -52.38,38.98 -75.39,58.39 -98.24,179zm-919.62 -876.95c-76.94,18.13 -118.46,32.36 -150.45,83.71 -105.97,170.13 146.12,519.67 339.01,315.45 67.91,-71.9 112.6,-152.02 109.8,-240.17 -2.25,-70.81 -28.01,-123.64 -80.68,-146.56 -56.51,-24.58 -150.49,-28.27 -217.68,-12.43zm268.2 453.36c-43.44,87.97 -115.84,276.74 -12.09,319.92 65.89,27.44 82.45,-7.83 128.86,-7.63 47.44,0.21 94.65,41.04 143.78,8.4 70.78,-47.02 39.68,-220.27 -2.5,-322.48 -23.03,-55.81 -68.32,-121.59 -126.95,-121.24 -65.88,0.4 -105.47,71.11 -131.1,123.03zm-1389.97 313.17c58.34,-5.9 132.24,-53.24 246.89,-7.04 195.02,78.59 425.57,151.77 629.2,217.04 -7.59,-40.21 -7.86,-78.9 -27.38,-131.58 -155.12,-66.64 -351.76,-130.73 -513.02,-187.37 -64.9,-22.79 -127.39,-50.17 -182.34,-91.33 -29.55,-22.14 -53.85,-57.32 -94.87,-60.04 -7.42,51.94 0.22,106.65 -6.77,147.77 -8.54,50.22 -40.09,53.06 -51.71,112.55zm217.1 806.09c5.59,69.06 33.16,19.33 46.13,152.54 1.03,10.57 -2.33,88.56 64.02,43.66 67.77,-45.86 5.61,-15.06 128.51,-81.68l585.39 -267.87c-18.24,-30.56 -36.5,-63.09 -50.96,-93.56l-534.54 226.52c-69.07,31.17 -158.31,22.36 -238.55,20.39zm1991.5 -783.33l-10.38 110.66 396.14 -185.9c71.62,-33.61 147.13,-45.58 218.06,-27.6 59.47,15.08 183.52,61.29 231.79,57.96 -2.04,-87.01 -37.35,-76.05 -50.89,-137.22 -17.78,-80.37 16.91,-231.68 -120.32,-111.28 -37.28,32.72 -101.23,53.56 -153.33,76.05l-381.78 163.28c-41.69,16.94 -88.99,28.42 -129.29,54.05zm-191.37 640.56l576.54 244c39.53,16.73 80.34,40.27 126.39,76.96 129.53,103.2 100.63,-18.16 125.5,-70.83 14.16,-29.97 37.33,-52.25 44.43,-91.19 -98.23,2.6 -134.72,31.68 -235.38,-9.35l-575.75 -234.64c-15.73,27.7 -39.84,61.98 -61.73,85.05zm-104.05 -1430.75c76.94,18.13 118.45,32.36 150.44,83.72 105.98,170.13 -146.12,519.67 -339,315.44 -67.91,-71.9 -112.6,-152.01 -109.8,-240.16 2.24,-70.81 28.01,-123.65 80.67,-146.56 56.52,-24.59 150.5,-28.27 217.69,-12.44z"/>
</symbol>
 <g id="Ebene_x0020_1">
  <metadata id="CorelCorpID_0Corel-Layer"/>
  <use id="ISO_x0020_7010_x0020_W016_0" transform="scale(0.571429 0.57143)" x="-0" y="0" width="7000" height="6117.6" xlink:href="#ISO_x0020_7010_x0020_W016"/>
 </g>
</svg>
