<?xml version="1.0" encoding="UTF-8"?>
<!DOCTYPE svg PUBLIC "-//W3C//DTD SVG 1.1//EN" "http://www.w3.org/Graphics/SVG/1.1/DTD/svg11.dtd">
<!-- Creator: Corel DESIGNER -->
<svg xmlns="http://www.w3.org/2000/svg" xml:space="preserve" width="40mm" height="34.9578mm" version="1.1" style="shape-rendering:geometricPrecision; text-rendering:geometricPrecision; image-rendering:optimizeQuality; fill-rule:evenodd; clip-rule:evenodd"
viewBox="0 0 1000 873.94"
 xmlns:xlink="http://www.w3.org/1999/xlink"
 xmlns:xodm="http://www.corel.com/coreldraw/odm/2003">
 <defs>
  <style type="text/css">
   <![CDATA[
    .fil0w {fill:#F5CA2B}
    .fil1w {fill:#21251E}
   ]]>
  </style>
 </defs>
<symbol id="ISO_x0020_7010_x0020_W018" viewBox="1125 -856.9 1750 1529.4">
 <polygon class="fil0w" points="2822.6,619.64 1177.99,619.64 2000.29,-804.64 "/>
 <path class="fil1w" d="M1269.4 567.15l730.6 -1265.43 730.6 1265.43 -1461.2 0zm1553.3 105.35l-1645.4 0c-40.29,0 -65.33,-43.37 -45.19,-78.26l822.7 -1424.97c20.14,-34.89 70.23,-34.89 90.38,0l822.7 1424.97c20.14,34.89 -4.9,78.26 -45.19,78.26z"/>
 <path class="fil1w" d="M2095.89 -37.95c-153.36,-136.93 -400.5,-28.21 -397.83,183.05l-41.4 0.49c-4.09,-253.35 301.44,-380.65 478.49,-203.6 51.7,51.7 82.11,121.31 82.11,199.98 0,66.85 -28.71,124.25 -79.33,162.39 196.07,-64.31 224.65,-333.49 40.76,-436.13l20.13 -36.2c221.96,123.89 178.42,451.57 -62.87,516.22 -129.86,34.8 -297.12,-29.8 -315.21,-178.67 -11.62,55.52 -3.66,115.33 26.88,168.25l0.03 -0.02c66.73,115.58 215.09,154.24 330.44,85.03l21.26 35.56c-68.13,40.88 -145.95,49.93 -217.37,30.79 -233.81,-62.65 -288.43,-379.61 -69.26,-512.56 56.03,-34 122.38,-40.36 183.16,-14.57zm79.83 183.3c0,-121.73 -132.41,-196.74 -236.48,-136.18l0.01 0.02c-135.52,75.29 -84.87,293.61 79.03,293.61 86.93,0 157.44,-70.5 157.44,-157.44z"/>
</symbol>
 <g id="Ebene_x0020_1">
  <metadata id="CorelCorpID_0Corel-Layer"/>
  <use id="ISO_x0020_7010_x0020_W018_0" transform="scale(0.571429 0.57143)" x="-0" width="1750" height="1529.4" xlink:href="#ISO_x0020_7010_x0020_W018"/>
 </g>
</svg>
