<?xml version="1.0" encoding="UTF-8"?>
<!DOCTYPE svg PUBLIC "-//W3C//DTD SVG 1.1//EN" "http://www.w3.org/Graphics/SVG/1.1/DTD/svg11.dtd">
<!-- Creator: Corel DESIGNER -->
<svg xmlns="http://www.w3.org/2000/svg" xml:space="preserve" width="40mm" height="34.9578mm" version="1.1" style="shape-rendering:geometricPrecision; text-rendering:geometricPrecision; image-rendering:optimizeQuality; fill-rule:evenodd; clip-rule:evenodd"
viewBox="0 0 1000 873.94"
 xmlns:xlink="http://www.w3.org/1999/xlink"
 xmlns:xodm="http://www.corel.com/coreldraw/odm/2003">
 <defs>
  <style type="text/css">
   <![CDATA[
    .fil0w {fill:#F5CA2B}
    .fil1w {fill:#21251E}
   ]]>
  </style>
 </defs>
<symbol id="ISO_x0020_7010_x0020_W021" viewBox="1125 -2415.23 1750 1529.4">
 <polygon class="fil0w" points="2822.6,-938.69 1177.99,-938.69 2000.29,-2362.97 "/>
 <path class="fil1w" d="M1269.4 -991.18l730.6 -1265.43 730.6 1265.43 -1461.2 0zm1553.3 105.35l-1645.4 0c-40.29,0 -65.33,-43.37 -45.19,-78.26l822.7 -1424.97c20.14,-34.89 70.23,-34.89 90.38,0l822.7 1424.97c20.14,34.89 -4.9,78.26 -45.19,78.26z"/>
 <path class="fil1w" d="M1944.59 -1753.31c-9.3,2.96 -16.5,-50.67 -59.04,-70.29 12.18,27.15 17.23,66.21 17.82,83.46 1.23,36.17 -4.33,88.41 -25.55,116.46 -12.21,-5.12 -40.4,-57.49 -61.39,-61.59 0.58,30.42 6.91,62.76 -4.73,93.12 -12.45,32.48 -15.59,48.28 -14.04,89.43 -18.13,-4.43 -30.58,-27.49 -50.64,-29.51 1.74,19.49 12.14,21.34 10.84,51.93 -2.8,66 -4.33,127.99 8.52,174.26 21.28,76.61 106.22,123.86 180.45,108.83 -45.53,-24.28 -122.76,-146.48 -102.4,-185.74 11.76,3.76 8.82,15.2 23.35,17.05 1.05,-23.94 0.15,-76.5 16.16,-87.21 6.98,50.15 18.21,86.97 45.17,127 4.73,7.03 12.66,9.99 17.13,7.24 0.99,-8.16 -21.15,-100.37 4.21,-126.37 4.12,18.89 26.2,57.63 37.06,69.55 7.12,-7.99 16.5,-77.82 19.52,-94.65 3.42,-36.82 1.07,-80.16 1.01,-118.28 10.17,2.56 13.3,10.77 18.98,18.88 15.42,21.97 24.27,42.74 30.53,69.69 15.23,65.53 -5.93,86.54 -5.65,115.21 12.24,-7.41 22.53,-19.78 31.62,-32.72 9.19,-13.09 14.62,-29.99 23.23,-40.91 13.56,26.44 -1.47,65.79 -3.16,93.88 12.05,-2.49 13.68,-6.76 23.38,-11.98 7.08,-3.81 -0.93,-1.43 8.59,-3.55 0.16,40.66 -28.28,87.91 -48.39,111.75 -12.96,15.36 -27.58,28.18 -41.98,39.12l-49.84 30.45c38.77,10.19 100.8,2.44 120.36,-3.06 51.82,-14.55 92.06,-49.01 115.14,-93.81 19.34,-37.56 30.59,-98.73 14.25,-139.43 -4.24,-10.58 -7.11,-11.67 -7.2,-8.63 -0.28,9.4 -2.47,20.74 -10.05,29.81 -4.16,4.97 -6.56,6.69 -13.44,7.24 -9.67,-58.42 26.54,-138.42 6.72,-199.9 -4.44,-13.79 -16.59,-42 -30.34,-42.45 -2.09,15.78 -2.51,46.3 -21.61,51.71 -9.35,-58.73 -21.09,-155.88 -75.12,-189.56 -5.32,-3.31 -9.27,-5.26 -8.43,-2.7 7.39,22.64 1.7,65.55 -3.51,63.91 -6.37,-1.99 -5.78,-26.64 -11.4,-45.09 -15.49,-50.8 -59.38,-53.56 -79.92,-126.84 -3.04,-10.83 -2.68,-26.35 -8.06,-35.23 -15.93,9.07 -30.43,45.58 -27.3,76.51 4.62,45.54 -5.15,101.16 -10.86,102.98z"/>
 <rect class="fil1w" x="1654.98" y="-1148.37" width="690.03" height="74.61"/>
</symbol>
 <g id="Ebene_x0020_1">
  <metadata id="CorelCorpID_0Corel-Layer"/>
  <use id="ISO_x0020_7010_x0020_W021_0" transform="scale(0.571429 0.57143)" x="-0" width="1750" height="1529.4" xlink:href="#ISO_x0020_7010_x0020_W021"/>
 </g>
</svg>
