<?xml version="1.0" encoding="UTF-8"?>
<!DOCTYPE svg PUBLIC "-//W3C//DTD SVG 1.1//EN" "http://www.w3.org/Graphics/SVG/1.1/DTD/svg11.dtd">
<!-- Creator: Corel DESIGNER -->
<svg xmlns="http://www.w3.org/2000/svg" xml:space="preserve" width="40mm" height="34.9578mm" version="1.1" style="shape-rendering:geometricPrecision; text-rendering:geometricPrecision; image-rendering:optimizeQuality; fill-rule:evenodd; clip-rule:evenodd"
viewBox="0 0 2000 1747.89"
 xmlns:xlink="http://www.w3.org/1999/xlink"
 xmlns:xodm="http://www.corel.com/coreldraw/odm/2003">
 <defs>
  <style type="text/css">
   <![CDATA[
    .fil0w {fill:#F5CA2B}
    .fil1w {fill:#21251E}
   ]]>
  </style>
 </defs>
<symbol id="ISO_x0020_7010_x0020_W025" viewBox="-3750 4519.55 3500 3058.8">
 <polygon class="fil0w" points="-354.8,7472.62 -3644.03,7472.62 -1999.41,4624.06 "/>
 <path class="fil1w" d="M-3461.2 7367.64l1461.2 -2530.87 1461.2 2530.87 -2922.4 0zm3106.61 210.7l-3290.81 0c-80.57,0 -130.66,-86.74 -90.38,-156.52l1645.4 -2849.94c40.28,-69.77 140.46,-69.77 180.75,0l1645.4 2849.94c40.29,69.78 -9.8,156.53 -90.38,156.53z"/>
 <path class="fil1w" d="M-1788.32 5774.17c0,-58.45 -23.69,-111.38 -62,-149.68 -38.3,-38.3 -91.22,-61.99 -149.68,-61.99 -58.45,0 -111.38,23.69 -149.68,61.99 -38.3,38.31 -62,91.23 -62,149.68 0,58.46 23.7,111.39 62,149.69 38.3,38.31 91.23,62 149.68,62 58.46,0 111.38,-23.69 149.68,-62 38.31,-38.3 62,-91.23 62,-149.69zm-4.26 -207.42c53.09,53.09 85.92,126.42 85.92,207.42 0,81 -32.84,154.34 -85.92,207.42 -53.09,53.09 -126.42,85.93 -207.42,85.93 -81,0 -154.34,-32.84 -207.42,-85.93 -53.09,-53.09 -85.92,-126.42 -85.92,-207.42 0,-80.99 32.84,-154.33 85.92,-207.42 53.09,-53.09 126.42,-85.92 207.42,-85.92 81,0 154.34,32.84 207.42,85.92z"/>
 <path class="fil1w" d="M-1553.99 6633.66c0,-123.16 -49.92,-234.67 -130.63,-315.38 -80.7,-80.7 -192.21,-130.63 -315.38,-130.63 -123.16,0 -234.67,49.93 -315.38,130.63 -80.71,80.71 -130.63,192.22 -130.63,315.38 0,123.16 49.92,234.67 130.63,315.38 80.7,80.71 192.21,130.63 315.38,130.63 123.16,0 234.67,-49.92 315.38,-130.63 80.71,-80.7 130.63,-192.21 130.63,-315.38zm-72.89 -373.12c95.49,95.49 154.55,227.41 154.55,373.12 0,145.7 -59.07,277.62 -154.55,373.11 -95.49,95.49 -227.41,154.55 -373.11,154.55 -145.7,0 -277.62,-59.06 -373.11,-154.55 -95.49,-95.49 -154.55,-227.4 -154.55,-373.11 0,-145.7 59.07,-277.62 154.55,-373.12 95.49,-95.49 227.41,-154.55 373.11,-154.55 145.7,0 277.62,59.06 373.11,154.55z"/>
 <path class="fil1w" d="M-2141.32 6371.87l-49.62 178.85 -26.22 -7.28 38.84 -139.97 -0.41 -0.41c-71.22,55.19 -112.99,140.23 -112.99,230.61 0,112.17 64.22,214.41 165.35,263l-11.7 24.45c-110.5,-53.09 -180.87,-164.85 -180.87,-287.45 0,-94.41 41.9,-183.66 113.6,-244l-128.8 19.4 -4.06 -26.91 202.51 -30.5 -5.61 20.22z"/>
 <path class="fil1w" d="M-2056.45 5663.36c-20.86,10.62 -37.84,26.62 -49.59,45.79 -11.76,19.19 -18.31,41.6 -18.31,65.02 0,21.66 5.61,42.51 15.83,60.76 4.63,8.27 10.2,16.02 16.62,23.06l-8.12 -50.89 26.69 -5.34 20.53 113.68 -112.84 -24.22 6.01 -26.55 45.47 9.16c-6.91,-7.91 -12.96,-16.49 -18.07,-25.61 -12.48,-22.29 -19.34,-47.71 -19.34,-74.05 0,-28.45 8,-55.74 22.36,-79.16 14.37,-23.44 35.06,-42.97 60.43,-55.89l12.33 24.24z"/>
</symbol>
 <g id="Ebene_x0020_1">
  <metadata id="CorelCorpID_0Corel-Layer"/>
  <use id="ISO_x0020_7010_x0020_W025_0" transform="scale(0.571429 0.57143)" x="-0" y="0" width="3500" height="3058.8" xlink:href="#ISO_x0020_7010_x0020_W025"/>
 </g>
</svg>
