<?xml version="1.0" encoding="UTF-8"?>
<!DOCTYPE svg PUBLIC "-//W3C//DTD SVG 1.1//EN" "http://www.w3.org/Graphics/SVG/1.1/DTD/svg11.dtd">
<!-- Creator: Corel DESIGNER -->
<svg xmlns="http://www.w3.org/2000/svg" xml:space="preserve" width="40mm" height="34.9578mm" version="1.1" style="shape-rendering:geometricPrecision; text-rendering:geometricPrecision; image-rendering:optimizeQuality; fill-rule:evenodd; clip-rule:evenodd"
viewBox="0 0 2000 1747.89"
 xmlns:xlink="http://www.w3.org/1999/xlink"
 xmlns:xodm="http://www.corel.com/coreldraw/odm/2003">
 <defs>
  <style type="text/css">
   <![CDATA[
    .fil0w {fill:#F5CA2B}
    .fil1w {fill:#21251E}
   ]]>
  </style>
 </defs>
<symbol id="ISO_x0020_7010_x0020_W031" viewBox="-3750 -1713.79 3500 3058.8">
 <polygon class="fil0w" points="-354.8,1239.29 -3644.03,1239.29 -1999.41,-1609.27 "/>
 <path class="fil1w" d="M-3461.2 1134.3l1461.2 -2530.86 1461.2 2530.86 -2922.4 0zm3106.61 210.7l-3290.81 0.01c-80.57,0 -130.66,-86.75 -90.38,-156.53l1645.4 -2849.94c40.28,-69.78 140.46,-69.78 180.75,0l1645.4 2849.94c40.29,69.78 -9.8,156.52 -90.38,156.52z"/>
 <path class="fil1w" d="M-1464.12 783c-52.68,-132.01 -126.46,-246.16 -226.88,-337.76l70.26 -70.26 -251.23 -8.52 8.52 251.22 70.26 -70.25c102.68,88.97 158.39,182.88 191.3,279.17l137.78 -43.6z"/>
 <path class="fil1w" d="M-2326.7 537.35l-1.01 -862.74 -136.2 0 -22.99 39.83 120.37 0 0 806.43 -108.15 108.15 -91.04 -91.03c115.83,-113.84 99.92,-417.95 -17.12,-527.46l0 -129.92 -39.82 68.98 0 78.26c131.88,121.3 125.41,391.25 0,509.5l147.99 147.98 147.99 -147.98zm-388.33 131.95l-124.04 0 0 306.65 39.84 0 0 -266.82 67.72 0 256.83 256.83 256.82 -256.83 67.72 0 0 266.82 39.83 0 0 -306.65 -124.03 0 -240.35 240.35 -240.35 -240.35zm1060.44 -625.3l-153.74 -153.74 -66.59 66.59 87.15 87.15 -686.91 686.91 -345.38 -345.39 -66.59 66.59 411.97 411.96 820.09 -820.08z"/>
 <path class="fil1w" d="M-1942.79 -134.25c10.25,30.17 -2.23,53.21 -5.84,91.69 -1.86,19.91 -10.54,36.38 -25.9,49.18l-93.81 78.17c-36.91,30.76 -42.43,95.34 -15.89,82.62 83.39,-39.98 161.79,-89.93 236,-148.28l-62.27 -62.28 102.17 -102.17 99.46 99.47c20.29,7.91 47.75,6.94 66.38,19.49l379.02 255.34 -220.56 -382.01 -185.75 -96.5c-25.99,-13.5 -58.54,-17.4 -94.88,-19.25l-287.4 -14.57c-42.47,-2.15 -80.61,6.12 -109.57,38.68l-109.43 123.02c-27.62,31.06 -19.75,125.67 -19.7,169.1 0.01,4.54 1.91,8.27 5.09,11.51 12.82,13.09 47.61,-35.94 50.93,-45.06 12.69,-34.79 -11.64,-59.31 45.72,-132.98 48.04,-61.72 92.24,-62.87 163.44,-56.48 39.58,3.55 71.01,6.6 82.81,41.32zm-136.01 61.29c51.59,-51.11 27.93,-43.76 116.04,-30.7 1.05,0.16 2.06,0.38 3.05,0.69 3.58,-46.67 -26.78,-48.27 -67.67,-51.94 -64.37,-5.77 -102.23,-6.73 -145.31,48.6 -72.52,93.16 0.93,99.73 -80.16,175.62 -1.2,1.13 -2.13,1.98 -3.45,2.93 3.92,14.41 4.59,26.2 17.74,30.81 14.95,5.24 31.24,-11.14 50.95,-24.76 14.85,37.42 16.86,32.28 42.82,-1.93 17.02,-22.42 25.36,-16.8 72.62,-20.27 6.82,-0.5 21.41,-15.79 11.36,-24.58 -51.47,-45.04 -47.55,-29.37 -22.9,-96.78 1.11,-3.02 2.63,-5.39 4.91,-7.66z"/>
</symbol>
 <g id="Ebene_x0020_1">
  <metadata id="CorelCorpID_0Corel-Layer"/>
  <use id="ISO_x0020_7010_x0020_W031_0" transform="scale(0.571429 0.57143)" x="-0" y="0" width="3500" height="3058.8" xlink:href="#ISO_x0020_7010_x0020_W031"/>
 </g>
</svg>
