<?xml version="1.0" encoding="UTF-8"?>
<!DOCTYPE svg PUBLIC "-//W3C//DTD SVG 1.1//EN" "http://www.w3.org/Graphics/SVG/1.1/DTD/svg11.dtd">
<!-- Creator: Corel DESIGNER -->
<svg xmlns="http://www.w3.org/2000/svg" xml:space="preserve" width="40mm" height="34.9578mm" version="1.1" style="shape-rendering:geometricPrecision; text-rendering:geometricPrecision; image-rendering:optimizeQuality; fill-rule:evenodd; clip-rule:evenodd"
viewBox="0 0 1000 873.94"
 xmlns:xlink="http://www.w3.org/1999/xlink"
 xmlns:xodm="http://www.corel.com/coreldraw/odm/2003">
 <defs>
  <style type="text/css">
   <![CDATA[
    .fil0w {fill:#F5CA2B}
    .fil1w {fill:#21251E}
   ]]>
  </style>
 </defs>
<symbol id="ISO_x0020_7010_x0020_W034" viewBox="1125 2259.77 1750 1529.4">
 <polygon class="fil0w" points="2822.6,3736.31 1177.99,3736.31 2000.29,2312.03 "/>
 <path class="fil1w" d="M1269.4 3683.82l730.6 -1265.43 730.6 1265.43 -1461.2 0zm1553.3 105.35l-1645.4 0c-40.29,0 -65.33,-43.37 -45.19,-78.26l822.7 -1424.97c20.14,-34.89 70.23,-34.89 90.38,0l822.7 1424.97c20.14,34.89 -4.9,78.26 -45.19,78.26z"/>
 <path class="fil1w" d="M2056.78 3217.17c-13.34,-0.88 -23.69,-8.65 -23.12,-17.33 0.58,-8.68 11.86,-15 25.21,-14.11 13.34,0.88 23.69,8.65 23.12,17.33 -0.58,8.68 -11.86,15 -25.2,14.11zm174.33 -58.31c-4.73,-25.22 -15.76,-53.89 -28.01,-77.65 28.26,-6.86 54.25,1.56 96.08,33.07 1.88,1.41 4.57,0.11 4.63,-2.24 0.88,-35.89 -19.37,-76.26 -70.5,-99.82 -41.26,-19.02 -80.58,-14.38 -120.15,-9.78 -30.26,-31.69 -57.46,-63.72 -131.82,-70.01 -35.27,-38.66 -85.56,-62.86 -134.05,-83.68l-161.88 280.39 -274.26 475.03 417.55 0c-5.1,-37.92 -9.7,-67.29 -19.55,-109.76 -8.03,-34.64 25.01,-62.21 57.71,-58.66 53.52,5.81 69,27.66 99.34,44.15 21.08,11.45 59.6,-4.15 83.57,-3.46 29.86,0.84 66.5,27.85 103.5,26.69 2.63,21.12 17.2,43.56 40.62,43.56 26.53,0 41.12,-27.98 41.12,-51.64 0,-9.45 -2.02,-18.36 -5.53,-25.98 5.47,-8.93 9.47,-17.98 7.3,-28.27 -4.99,-23.61 -21.62,-63.47 -23.97,-111.63 -2.07,-42.59 27.39,-121.85 18.29,-170.3zm-37.21 367.81c-14.59,0 -21.1,-19.77 -21.1,-31.62 0,-11.84 6.51,-31.62 21.1,-31.62 14.59,0 21.1,19.77 21.1,31.62 0,11.85 -6.51,31.62 -21.1,31.62zm-359.64 -276.82c-49.14,-67.72 -25.01,-148.93 72.56,-174.61 5.49,-1.45 10.98,0.3 14.63,4.65l38.75 46.17c6.84,8.14 2.8,20.55 -7.51,23.12 -57.32,14.28 -99.55,29.57 -102.86,96.03 -0.4,8.12 -10.79,11.2 -15.57,4.63z"/>
</symbol>
 <g id="Ebene_x0020_1">
  <metadata id="CorelCorpID_0Corel-Layer"/>
  <use id="ISO_x0020_7010_x0020_W034_0" transform="scale(0.571429 0.571428)" x="-0" y="0" width="1750" height="1529.4" xlink:href="#ISO_x0020_7010_x0020_W034"/>
 </g>
</svg>
