<?xml version="1.0" encoding="UTF-8"?>
<!DOCTYPE svg PUBLIC "-//W3C//DTD SVG 1.1//EN" "http://www.w3.org/Graphics/SVG/1.1/DTD/svg11.dtd">
<!-- Creator: Corel DESIGNER -->
<svg xmlns="http://www.w3.org/2000/svg" xml:space="preserve" width="40mm" height="34.9578mm" version="1.1" style="shape-rendering:geometricPrecision; text-rendering:geometricPrecision; image-rendering:optimizeQuality; fill-rule:evenodd; clip-rule:evenodd"
viewBox="0 0 4000 3495.78"
 xmlns:xlink="http://www.w3.org/1999/xlink"
 xmlns:xodm="http://www.corel.com/coreldraw/odm/2003">
 <defs>
  <style type="text/css">
   <![CDATA[
    .fil0w {fill:#F5CA2B}
    .fil1w {fill:#21251E}
   ]]>
  </style>
 </defs>
<symbol id="ISO_x0020_7010_x0020_W035" viewBox="-1500 9039.09 7000 6117.6">
 <polygon class="fil0w" points="5290.4,14945.25 -1288.06,14945.25 2001.17,9248.13 "/>
 <path class="fil1w" d="M-922.41 14735.27l2922.41 -5061.73 2922.4 5061.73 -5844.81 0zm6213.22 421.41l-6581.62 0.01c-161.14,0 -261.32,-173.49 -180.75,-313.05l3290.81 -5699.88c80.57,-139.55 280.93,-139.55 361.5,0l3290.81 5699.87c80.57,139.56 -19.61,313.05 -180.75,313.05z"/>
 <path class="fil1w" d="M1377.9 12970.3c0,-88.67 -89,-160.55 -198.79,-160.55 -109.8,0 -198.79,71.88 -198.79,160.55 0,88.67 88.99,160.55 198.79,160.55 109.79,0 198.79,-71.88 198.79,-160.55zm131.19 -285.23l868.39 -276.6 -105.37 -330.8 -868.38 276.59 105.36 330.81zm162.06 -1470.83l0 958.31 -91.02 0 0 -958.31 91.02 0zm398.7 235.82l0 597.06 -45.51 0 0 -597.06 45.51 0zm489.37 50.17l0 913.15 -91.02 0 0 -913.15 91.02 0zm-1357.36 476.64l0 737.54 -45.51 0 0 -737.54 45.51 0zm1613.03 546.69c27.48,24.27 45.74,54.13 53.02,82.7 2.77,10.84 3.99,21.57 3.62,31.88 1.06,-1.05 2.08,-2.13 3.07,-3.26 17.56,-19.48 22.1,-46.1 15.29,-73.54 -5.86,-23.46 -20.57,-48.01 -42.7,-68.12 -22.08,-19.91 -48.03,-32.04 -72.1,-35.51 -27.95,-4.02 -54.1,3.22 -71.61,22.77 7.37,-0.51 15,-0.25 22.78,0.72 29.32,3.7 61.2,18.13 88.63,42.36zm11.82 133.16c5.87,-10.9 6.54,-25.28 2.63,-40.66 -5.45,-21.37 -19.47,-44.02 -40.73,-62.8 -21.3,-18.82 -45.5,-29.96 -67.34,-32.71 -13.43,-1.7 -25.77,-0.14 -35.39,4.88l0 19.83c-5.92,12.12 -6.08,27.4 -1.14,43.14l-229.76 219.73c-18.68,21.73 -6.65,52.53 10.23,67.78 22.14,20 45.71,22.51 64.44,9.3l232.17 -222.04c20.83,6.26 40.79,4.53 54.28,-5.95l10.61 -0.5zm-553.63 250.51l52.49 -50.33c21.59,-23.94 10.26,-69.42 -25.36,-101.62 -33.47,-30.18 -76.41,-37.93 -99.42,-18.99l-53.88 51.53c-31.11,31.22 -4.2,80.33 22.52,104.47 26.13,23.59 74.13,44.36 103.65,14.94z"/>
 <path class="fil1w" d="M1718.54 14620.38l618.73 0 -135.29 -440.02 629.76 -276.48c73.38,-32.1 96.81,-115.66 61.61,-182.03l-320.95 -581.53c-34.58,-62.67 -112.8,-83.05 -176.81,-51.05 -64.03,32.01 -85.66,114.16 -51.07,176.82l252.1 456.76 -489.61 214.95 -584.68 182.42c-28,8.09 -53.48,25.53 -71.13,51.33l-307.11 448.83 315.38 0 178.74 -261.23 80.33 261.23zm278.38 -881.88c0,-136.71 -110.83,-247.54 -247.54,-247.54 -136.7,0 -247.53,110.83 -247.53,247.54 0,136.7 110.83,247.53 247.53,247.53 136.71,0 247.54,-110.83 247.54,-247.53z"/>
</symbol>
 <g id="Ebene_x0020_1">
  <metadata id="CorelCorpID_0Corel-Layer"/>
  <use id="ISO_x0020_7010_x0020_W035_0" transform="scale(0.571429 0.57143)" x="-0" y="0" width="7000" height="6117.6" xlink:href="#ISO_x0020_7010_x0020_W035"/>
 </g>
</svg>
