<?xml version="1.0" encoding="UTF-8"?>
<!DOCTYPE svg PUBLIC "-//W3C//DTD SVG 1.1//EN" "http://www.w3.org/Graphics/SVG/1.1/DTD/svg11.dtd">
<!-- Creator: Corel DESIGNER -->
<svg xmlns="http://www.w3.org/2000/svg" xml:space="preserve" width="40mm" height="34.9578mm" version="1.1" style="shape-rendering:geometricPrecision; text-rendering:geometricPrecision; image-rendering:optimizeQuality; fill-rule:evenodd; clip-rule:evenodd"
viewBox="0 0 1000 873.95"
 xmlns:xlink="http://www.w3.org/1999/xlink"
 xmlns:xodm="http://www.corel.com/coreldraw/odm/2003">
 <defs>
  <style type="text/css">
   <![CDATA[
    .fil0w {fill:#F5CA2B}
    .fil1w {fill:#21251E}
   ]]>
  </style>
 </defs>
<symbol id="ISO_x0020_7010_x0020_W037" viewBox="1125 701.44 1750 1529.4">
 <polygon class="fil0w" points="2822.6,2177.98 1177.99,2177.98 2000.29,753.7 "/>
 <path class="fil1w" d="M1269.4 2125.48l730.6 -1265.43 730.6 1265.43 -1461.2 0zm1553.3 105.35l-1645.4 0c-40.29,0 -65.33,-43.37 -45.19,-78.26l822.7 -1424.97c20.14,-34.89 70.23,-34.89 90.38,0l822.7 1424.97c20.14,34.89 -4.9,78.26 -45.19,78.26z"/>
 <path class="fil1w" d="M2144.24 1388.35c-1.67,-3.17 -0.45,-7.1 2.72,-8.77l9.54 -5.03c3.17,-1.67 7.1,-0.45 8.77,2.72 33.15,62.68 32.93,126.33 0,189.02 -1.67,3.17 -5.6,4.39 -8.77,2.72l-9.54 -5.03c-3.17,-1.67 -4.39,-5.6 -2.72,-8.77 29.36,-55.88 29.54,-111 0,-166.87zm-43.24 16.06c-1.6,-3.2 -0.3,-7.09 2.9,-8.69l9.63 -4.82c3.2,-1.6 7.1,-0.3 8.69,2.9 26.28,52.32 26.2,103.58 0.04,155.93 -1.6,3.21 -5.5,4.52 -8.72,2.92l-9.67 -4.81c-3.21,-1.6 -4.52,-5.5 -2.92,-8.72 22.87,-45.78 23.03,-88.94 0.05,-134.72zm-46.66 16.09c-1.52,-3.24 -0.12,-7.1 3.12,-8.62l9.76 -4.56c3.24,-1.52 7.1,-0.12 8.62,3.12 19.57,41.67 19.44,80.93 0.03,122.63 -1.51,3.26 -5.39,4.66 -8.64,3.15l-9.8 -4.56c-3.26,-1.51 -4.67,-5.39 -3.15,-8.64 16.51,-35.45 16.71,-67.07 0.07,-102.53zm249.59 489.45l149.84 -84.96c21.25,-12.05 2.93,-44.36 -18.32,-32.31l-153.18 87.38 -59.56 -40.23 -70.15 -158.99c-4.57,-10.43 -14.43,-12.51 -22.61,-9.52l-12.7 -55.08 -96.54 0 0 -125.97c25.06,-10.72 17.48,-48.53 -9.94,-48.53 -27.41,0 -35,37.81 -9.94,48.53l0 125.97 -337.53 0 -133.81 232.72 0 131.75 48.81 0c36.15,91.06 165.78,91.05 201.93,0l104.23 0c16.18,40.74 55.76,68.54 100.96,68.54 16.25,0 31.67,-3.57 45.51,-9.97l149.64 0.01c8.25,0 13.71,-4.23 16.38,-9.84l81.88 -121.2c7.41,4.45 17.19,6.17 25.08,1.71zm-149.75 -133.56l44.03 99.7 -15.69 23.23 -28.34 -122.93zm11.93 147.23l-19.47 28.83c-32.69,-100.05 -20.98,-95.02 -75.76,-78.82 -69.93,-88.98 -213.07,-24.01 -192.16,87.2l-92.72 0c19.68,-104.63 -108.34,-172.13 -183.5,-96.96 -24.93,24.93 -36.71,60.93 -29.94,96.96l-23.18 0 0 -106.75 125.33 -217.97 426.78 0 64.61 287.51zm-116.11 -43.82l-65.53 19.37c-23.43,6.92 -12.9,42.54 10.53,35.62l74.67 -22.08c5.11,15.42 5.89,32.17 2.19,48.12 -24,90.68 -147.43,91.84 -172.83,0 -20.38,-87.76 88.82,-146.71 150.98,-81.03zm38.74 27.27l3.65 -1.08 17.91 54.84 -18.14 0c3.38,-17.97 2.17,-36.57 -3.42,-53.76zm28.05 73.63l7 21.44 -48.84 -0c4.58,-6.64 8.43,-13.83 11.45,-21.43l30.39 0zm-523.93 -19.88c24.82,91.1 147.52,91.8 172.83,0 20.11,-86.63 -86.36,-145.7 -149.15,-82.91 -21.35,21.35 -30.74,52.51 -23.68,82.91zm723.07 -139.84c0,-45.74 -69.48,-45.74 -69.48,0 0,45.74 69.48,45.74 69.48,0z"/>
</symbol>
 <g id="Ebene_x0020_1">
  <metadata id="CorelCorpID_0Corel-Layer"/>
  <use id="ISO_x0020_7010_x0020_W037_0" transform="scale(0.571429 0.57143)" x="-0" width="1750" height="1529.4" xlink:href="#ISO_x0020_7010_x0020_W037"/>
 </g>
</svg>
