<?xml version="1.0" encoding="UTF-8"?>
<!DOCTYPE svg PUBLIC "-//W3C//DTD SVG 1.1//EN" "http://www.w3.org/Graphics/SVG/1.1/DTD/svg11.dtd">
<!-- Creator: Corel DESIGNER -->
<svg xmlns="http://www.w3.org/2000/svg" xml:space="preserve" width="40mm" height="34.9578mm" version="1.1" style="shape-rendering:geometricPrecision; text-rendering:geometricPrecision; image-rendering:optimizeQuality; fill-rule:evenodd; clip-rule:evenodd"
viewBox="0 0 2000 1747.89"
 xmlns:xlink="http://www.w3.org/1999/xlink"
 xmlns:xodm="http://www.corel.com/coreldraw/odm/2003">
 <defs>
  <style type="text/css">
   <![CDATA[
    .fil0w {fill:#F5CA2B}
    .fil1w {fill:#21251E}
   ]]>
  </style>
 </defs>
<symbol id="ISO_x0020_7010_x0020_W039" viewBox="-3750 1402.88 3500 3058.8">
 <polygon class="fil0w" points="-354.8,4355.95 -3644.03,4355.95 -1999.41,1507.39 "/>
 <path class="fil1w" d="M-3461.2 4250.97l1461.2 -2530.86 1461.2 2530.86 -2922.4 0zm3106.61 210.7l-3290.81 0.01c-80.57,0 -130.66,-86.74 -90.38,-156.53l1645.4 -2849.94c40.28,-69.78 140.46,-69.78 180.75,0l1645.4 2849.94c40.29,69.78 -9.8,156.52 -90.38,156.52z"/>
 <path class="fil1w" d="M-1948.58 3612.48c19.83,-76.39 -26.02,-154.38 -102.41,-174.21 -76.38,-19.82 -154.38,26.03 -174.2,102.41 -19.82,76.38 26.03,154.38 102.41,174.2 76.39,19.83 154.38,-26.03 174.21,-102.41zm-241.17 519.84l341.17 0 -12.77 -234.03 371.13 -60.1c39.72,-10.21 63.78,-49.67 54.1,-91.37l-95 -371.48c-23.88,-93.39 -170.64,-60.82 -145.56,37.23l74.62 291.78 -277.17 44.64 -353.15 17.13c-16.82,0.46 -33.59,6.51 -47.19,18.37l-306.19 347.83 210.47 0 173.01 -215.89 12.53 215.89z"/>
 <path class="fil1w" d="M-1746.57 3056.35l-52.86 -537.93 91.21 19.65 -38.36 518.28zm-591.91 245.04l-66.93 -502.93 115.49 18.37 -48.57 484.57zm442.48 -132.57l-36.57 -431.76 72.27 18.52 -35.7 413.24zm-189.19 107.32l-63.14 -725.58 126.29 0 -63.15 725.58zm198.33 -1023.79l0 298.53 -22.76 0 0 -298.53 22.76 0zm-339.52 133.18l0 298.53 -22.76 0 0 -298.53 22.76 0zm220.15 -337.41l0 423.2 -45.51 0 0 -423.2 45.51 0z"/>
</symbol>
 <g id="Ebene_x0020_1">
  <metadata id="CorelCorpID_0Corel-Layer"/>
  <use id="ISO_x0020_7010_x0020_W039_0" transform="scale(0.571429 0.57143)" x="-0" y="0" width="3500" height="3058.8" xlink:href="#ISO_x0020_7010_x0020_W039"/>
 </g>
</svg>
