<?xml version="1.0" encoding="UTF-8"?>
<!DOCTYPE svg PUBLIC "-//W3C//DTD SVG 1.1//EN" "http://www.w3.org/Graphics/SVG/1.1/DTD/svg11.dtd">
<!-- Creator: Corel DESIGNER -->
<svg xmlns="http://www.w3.org/2000/svg" xml:space="preserve" width="40mm" height="35.5608mm" version="1.1" style="shape-rendering:geometricPrecision; text-rendering:geometricPrecision; image-rendering:optimizeQuality; fill-rule:evenodd; clip-rule:evenodd"
viewBox="0 0 2000 1778.04"
 xmlns:xlink="http://www.w3.org/1999/xlink"
 xmlns:xodm="http://www.corel.com/coreldraw/odm/2003">
 <defs>
  <style type="text/css">
   <![CDATA[
    .fil0w {fill:#F5CA2B}
    .fil1w {fill:#21251E}
   ]]>
  </style>
 </defs>
<symbol id="ISO_x0020_7010_x0020_W042" viewBox="-3750 -1725.1 3500 3111.57">
 <polygon class="fil0w" points="-354.8,1278.92 -3644.03,1278.93 -1999.41,-1618.79 "/>
 <path class="fil1w" d="M-3461.2 1172.12l1461.2 -2574.53 1461.2 2574.53 -2922.41 0zm3106.61 214.34l-3290.81 0.01c-80.57,0 -130.66,-88.25 -90.38,-159.23l1645.4 -2899.11c40.28,-70.98 140.46,-70.98 180.75,0l1645.4 2899.1c40.29,70.99 -9.8,159.23 -90.37,159.23z"/>
 <polygon class="fil1w" points="-2474.3,-260.4 -2698.06,479.27 -2373.22,305.54 -2451.33,801.38 -2515.99,716.47 -2459.49,1027.69 -2281.51,771.78 -2373.22,812.1 -2177.72,120.93 -2524.15,305.54 -2261.26,-256.49 "/>
 <polygon class="fil1w" points="-2285.9,-361.72 -2183.06,-766.84 -2167.48,-520.64 -1899.47,-751.26 -2013.33,-335.12 -1671.98,-539.35 -1884.1,-108.91 -1488.12,-240.18 -1724.96,103.86 -1435.14,46.53 -1681.49,238.92 -1256.98,257.4 -1632.15,414.26 -1369.69,526.44 -1644.93,531.58 -972.09,945.6 -1744.17,716.16 -1472.53,981.43 -1924.05,807.28 -1924.4,1034.41 -2054.63,711.86 -1874.55,722.78 -1966.06,579.79 -1716.18,625.41 -1911.42,436.67 -1741.19,339.55 -1963.76,237.96 -1779.44,-16.86 -2050.77,68.52 -1955.57,-212.13 -2173.72,-121.75 -2095.36,-410.69 "/>
</symbol>
 <g id="Ebene_x0020_1">
  <metadata id="CorelCorpID_0Corel-Layer"/>
  <use id="ISO_x0020_7010_x0020_W042_0" transform="scale(0.571429 0.571429)" x="-0" y="-0" width="3500" height="3111.57" xlink:href="#ISO_x0020_7010_x0020_W042"/>
 </g>
</svg>
