<?xml version="1.0" encoding="UTF-8"?>
<!DOCTYPE svg PUBLIC "-//W3C//DTD SVG 1.1//EN" "http://www.w3.org/Graphics/SVG/1.1/DTD/svg11.dtd">
<!-- Creator: Corel DESIGNER -->
<svg xmlns="http://www.w3.org/2000/svg" xml:space="preserve" width="40mm" height="34.9578mm" version="1.1" style="shape-rendering:geometricPrecision; text-rendering:geometricPrecision; image-rendering:optimizeQuality; fill-rule:evenodd; clip-rule:evenodd"
viewBox="0 0 4000 3495.78"
 xmlns:xlink="http://www.w3.org/1999/xlink"
 xmlns:xodm="http://www.corel.com/coreldraw/odm/2003">
 <defs>
  <style type="text/css">
   <![CDATA[
    .fil0w {fill:#F5CA2B}
    .fil1w {fill:#21251E}
   ]]>
  </style>
 </defs>
<symbol id="ISO_x0020_7010_x0020_W044" viewBox="-1500 -9660.91 7000 6117.6">
 <polygon class="fil0w" points="5290.4,-3754.75 -1288.06,-3754.75 2001.17,-9451.87 "/>
 <path class="fil1w" d="M-922.41 -3964.73l2922.41 -5061.73 2922.4 5061.73 -5844.81 0zm6213.22 421.41l-6581.62 0.01c-161.14,0 -261.32,-173.49 -180.75,-313.05l3290.81 -5699.88c80.57,-139.55 280.93,-139.55 361.5,0l3290.81 5699.87c80.57,139.56 -19.61,313.05 -180.75,313.05z"/>
 <polygon class="fil1w" points="3505.31,-4386.17 1176.97,-4386.17 3505.31,-5264.58 "/>
 <path class="fil1w" d="M2270.97 -5556.96c154.67,0 289.18,86.32 357.98,213.41 200.54,-103.59 386.01,-233.38 554.13,-393.33l2.65 -264.59 -178 54.76 -1290.69 -1303.16 -51.93 -168.81 -164.55 50.62 51.17 166.33 -718.36 1923.87 -185.02 56.92 -4.75 1.46c393.99,202.97 806.15,187.93 1223.12,115.11 -27.07,-240.74 160.91,-452.59 404.25,-452.59zm658.07 -365.55l-734.19 225.85 -431.56 -1402.87 1165.75 1177.02zm-898.74 276.47l-1083.44 333.27 650.24 -1741.45 433.2 1408.18zm541.22 338.2c-56.78,-107.99 -170.06,-181.65 -300.55,-181.65 -187.4,0 -339.33,151.92 -339.33,339.33 0,202.46 175.78,359.03 376.19,337.35l158.29 -59.72c114.35,-80.52 167.37,-222.53 134.67,-357.75l904.52 -341.25 0 -88.6 -933.79 352.29zm-300.56 -7.02c55.57,0 104.7,27.52 134.53,69.66l-148.76 56.12c-51.31,19.35 -22.04,96.92 29.26,77.56l148.76 -56.12c10.16,97.19 -65.59,182.19 -163.79,182.19 -90.96,0 -164.7,-73.74 -164.7,-164.71 0,-90.96 73.74,-164.7 164.7,-164.7z"/>
 <path class="fil1w" d="M1033.63 -4756.22c81.66,-35.52 172.54,-75.01 320.18,-85.24 185.7,-12.85 302.01,36.08 411.71,82.27 26.87,11.3 53.4,22.46 80.45,32.73l204.24 -77.05c-87.2,-7.98 -159.31,-38.31 -234.47,-69.94 -123.41,-51.94 -254.22,-107 -470.85,-91.97 -169.29,11.7 -271.29,56.07 -363,95.94 -103.04,44.75 -190.98,83 -368.16,43.63l-35.45 -9.23c7.87,60.49 7.64,133.49 81.96,143.87 169.48,23.58 264.43,-17.67 373.39,-65.01zm311.26 75.9c-169.29,11.73 -271.29,56.08 -363,95.93 -103.04,44.79 -190.98,83.02 -368.16,43.65l-35.45 -9.22c7.87,60.47 7.64,133.5 81.96,143.84 169.48,23.6 264.43,-17.65 373.39,-64.99 81.66,-35.51 172.54,-74.99 320.18,-85.25 16.02,-1.11 31.52,-1.75 46.53,-1.98l246.09 -92.84c-82.29,-23.46 -177.95,-37.7 -301.54,-29.14z"/>
</symbol>
 <g id="Ebene_x0020_1">
  <metadata id="CorelCorpID_0Corel-Layer"/>
  <use id="ISO_x0020_7010_x0020_W044_0" transform="scale(0.571429 0.571428)" x="-0" y="0.01" width="7000" height="6117.6" xlink:href="#ISO_x0020_7010_x0020_W044"/>
 </g>
</svg>
