<?xml version="1.0" encoding="UTF-8"?>
<!DOCTYPE svg PUBLIC "-//W3C//DTD SVG 1.1//EN" "http://www.w3.org/Graphics/SVG/1.1/DTD/svg11.dtd">
<!-- Creator: Corel DESIGNER -->
<svg xmlns="http://www.w3.org/2000/svg" xml:space="preserve" width="40mm" height="34.9578mm" version="1.1" style="shape-rendering:geometricPrecision; text-rendering:geometricPrecision; image-rendering:optimizeQuality; fill-rule:evenodd; clip-rule:evenodd"
viewBox="0 0 4002.68 3498.12"
 xmlns:xlink="http://www.w3.org/1999/xlink"
 xmlns:xodm="http://www.corel.com/coreldraw/odm/2003">
 <defs>
  <style type="text/css">
   <![CDATA[
    .fil0w {fill:#F5CA2B}
    .fil1w {fill:#21251E}
   ]]>
  </style>
 </defs>
<symbol id="ISO_x0020_7010_x0020_W046" viewBox="-1502.35 9045.15 7004.69 6121.7">
 <polygon class="fil0w" points="5292.61,14955.27 -1290.26,14955.28 2001.17,9254.33 "/>
 <path class="fil1w" d="M-924.37 14745.15l2924.37 -5065.13 2924.36 5065.13 -5848.73 0zm6217.39 421.69l-6586.03 0.01c-161.25,0 -261.5,-173.61 -180.87,-313.26l3293.02 -5703.7c80.62,-139.64 281.12,-139.64 361.74,0l3293.02 5703.69c80.62,139.65 -19.62,313.26 -180.87,313.26z"/>
 <path class="fil1w" d="M2365.84 11601.77c46.99,-107.37 -1.97,-232.53 -109.36,-279.52 -107.39,-47.02 -232.56,1.94 -279.56,109.32 -46.98,107.41 1.97,232.59 109.37,279.58 107.38,47.01 232.53,-1.96 279.55,-109.38zm672.58 1616.28c-816.66,557.37 -1871.44,698.95 -2386.27,482.44 322.02,-182.32 735.11,-330.7 1186.82,-416.52l158.04 -328.09 -484.74 -251.06c-55.49,-28.72 -80.71,-98.17 -55.32,-156.19l297.37 -679.55 -428.5 11.94 -331.62 344.28c-39.99,41.51 -106.63,42.91 -148.18,2.98 -41.56,-39.91 -42.99,-106.67 -3,-148.2l361.31 -375.1c18.97,-19.71 44.94,-31.54 72.58,-32.31l520.6 -14.52c16.05,-0.45 31.4,2.78 45.23,8.91l441.24 193.02c9.07,3.92 17.72,9.21 25.65,15.86l398.89 334.86 398.88 334.87c44.16,37.09 49.8,103.59 12.7,147.69 -36.98,43.94 -103.74,49.6 -147.7,12.7l-398.89 -334.88 -375.31 -315.07 -226.74 518.15 645.89 18.27c84.63,2.41 141.1,92.53 106.41,169.73l-199.62 444.04c170.58,-6.31 342.81,-2.86 514.3,11.75zm-910.24 20.37c41.02,-5.13 82.26,-9.74 123.67,-13.79l178.24 -396.49 -183.96 -5.21c31.43,35.98 39.44,88.77 18.58,132.08l-136.53 283.41z"/>
 <path class="fil1w" d="M3405.27 14292.82l32.65 -7.84c-4.91,62.06 -12.79,116.87 -56.75,127.97 -166.57,27.72 -281.46,-17.67 -398.35,-63.84 -85.01,-33.58 -171.22,-67.65 -278.6,-66.76 -85.71,0.72 -170.42,35.32 -259.54,71.74 -108.88,44.5 -223.75,91.43 -367.49,93.19 -126.04,1.53 -213.8,-35.39 -306.03,-74.2 -99.65,-41.95 -205.25,-86.4 -373.94,-74.72 -134.12,9.31 -216.66,45.18 -290.86,77.42 -98.95,43 -185.18,80.47 -339.15,59.05 -67.49,-9.41 -67.32,-75.72 -74.44,-130.66l32.2 8.37c160.94,35.76 240.81,1.02 334.4,-39.65 83.31,-36.19 175.97,-76.47 329.7,-87.14 196.8,-13.63 315.63,36.37 427.71,83.54 81.08,34.13 158.26,66.61 259.05,65.38 120.69,-1.48 225.36,-44.25 324.57,-84.79 99.4,-40.62 193.92,-79.23 302.91,-80.14 130.58,-1.06 227.18,37.08 322.43,74.72 111.2,43.93 220.31,87.03 379.51,48.36zm0 -258.97l32.65 -7.84c-4.91,62.05 -12.79,116.85 -56.75,127.97 -166.57,27.72 -281.46,-17.67 -398.35,-63.84 -85.01,-33.58 -171.22,-67.66 -278.6,-66.76 -85.71,0.71 -170.42,35.32 -259.54,71.73 -108.88,44.5 -223.75,91.44 -367.49,93.2 -126.04,1.53 -213.8,-35.39 -306.03,-74.21 -99.65,-41.95 -205.25,-86.39 -373.94,-74.71 -134.12,9.31 -216.66,45.18 -290.86,77.42 -98.95,43 -185.18,80.47 -339.15,59.05 -67.49,-9.41 -67.32,-75.72 -74.44,-130.66l32.2 8.37c160.94,35.74 240.81,1.02 334.4,-39.65 83.31,-36.19 175.97,-76.49 329.7,-87.14 196.8,-13.63 315.63,36.37 427.71,83.54 81.08,34.13 158.26,66.6 259.05,65.38 120.69,-1.49 225.36,-44.25 324.57,-84.8 99.4,-40.61 193.92,-79.22 302.91,-80.14 130.58,-1.08 227.18,37.09 322.43,74.73 111.2,43.92 220.31,87.03 379.51,48.36z"/>
 <path class="fil1w" d="M3416.6 12701.09c-99.26,132.12 -247.31,290.32 -370.26,387.96 47.96,4.64 96.52,10.24 136.17,14.95 100.34,-90.31 205.85,-204.52 288.11,-309.35l-54.03 -93.56zm137.14 237.54c-198.85,244.48 -444.46,435.22 -713.72,583.43 -310.82,171.1 -653.03,285.53 -991.46,360.57 6.17,2.54 12.41,5.14 18.71,7.79 28.59,11.96 58.71,25.07 88.14,34.68 24.17,7.9 47.22,14.05 71.06,17.49 295.41,-76.09 589.97,-183.42 861.63,-332.97 268.91,-148.02 515.56,-337.48 718.79,-578.96l-53.15 -92.03zm122.8 212.69c-232.65,267.73 -500.37,468.71 -781.77,618.79 -15.23,8.13 -30.5,16.1 -45.81,23.93 44.56,8.65 89.42,21.51 139.16,38.75 265.49,-147.55 518.16,-340.12 741.04,-590.34l-52.62 -91.13z"/>
</symbol>
 <g id="Ebene_x0020_1">
  <metadata id="CorelCorpID_0Corel-Layer"/>
  <use id="ISO_x0020_7010_x0020_W046_0" transform="scale(0.571429 0.571428)" x="-0" y="0.01" width="7004.69" height="6121.7" xlink:href="#ISO_x0020_7010_x0020_W046"/>
 </g>
</svg>
