<?xml version="1.0" encoding="UTF-8"?>
<!DOCTYPE svg PUBLIC "-//W3C//DTD SVG 1.1//EN" "http://www.w3.org/Graphics/SVG/1.1/DTD/svg11.dtd">
<!-- Creator: Corel DESIGNER -->
<svg xmlns="http://www.w3.org/2000/svg" xml:space="preserve" width="40mm" height="34.9578mm" version="1.1" style="shape-rendering:geometricPrecision; text-rendering:geometricPrecision; image-rendering:optimizeQuality; fill-rule:evenodd; clip-rule:evenodd"
viewBox="0 0 2000.04 1747.92"
 xmlns:xlink="http://www.w3.org/1999/xlink"
 xmlns:xodm="http://www.corel.com/coreldraw/odm/2003">
 <defs>
  <style type="text/css">
   <![CDATA[
    .fil0w {fill:#F5CA2B}
    .fil1w {fill:#21251E}
   ]]>
  </style>
 </defs>
<symbol id="ISO_x0020_7010_x0020_W050" viewBox="-3750.03 1402.9 3500.06 3058.85">
 <polygon class="fil0w" points="-354.77,4356.03 -3644.06,4356.04 -1999.41,1507.42 "/>
 <path class="fil1w" d="M-3461.23 4251.04l1461.23 -2530.91 1461.23 2530.91 -2922.46 0zm3106.66 210.71l-3290.87 0.01c-80.57,0 -130.66,-86.75 -90.38,-156.53l1645.43 -2849.99c40.29,-69.78 140.47,-69.78 180.75,0l1645.43 2849.98c40.29,69.78 -9.81,156.53 -90.38,156.53z"/>
 <path class="fil1w" d="M-1616.63 2800.41c0,-36.52 -29.6,-66.12 -66.12,-66.12 -36.52,0 -66.12,29.6 -66.12,66.12 0,36.52 29.6,66.12 66.12,66.12 36.52,0 66.12,-29.6 66.12,-66.12zm-117.31 176.19l195.21 216.75c29.34,32.57 78.89,-11.43 49.57,-43.99l-229.01 -254.43 -48.74 -45.45c-6.32,-5.9 -19.01,-13.71 -27.34,-15.34l-161.31 -31.51c-7.13,-1.4 -13.87,-0.87 -20.69,1.7l-153.86 57.83c-41.02,15.42 -17.75,77.47 23.29,62.05l146.35 -55.01 95.83 18.72 -144.58 150.63c-5.1,5.31 -8.89,12.17 -10.87,19.27l-54.94 197.06 -185.59 84.04c-44.66,20.22 -14.56,87.96 30.09,67.75l200.91 -90.97c11.22,-5.08 18.21,-12.92 21.58,-25.02l40.84 -146.53 235.88 371.57c26.26,41.37 89.12,2.08 62.87,-39.28l-217.07 -341.93 151.58 -157.92z"/>
 <path class="fil1w" d="M-2019.07 3000.73c-77.18,-12.58 -127.21,-69.16 -256.43,-60.21 -150.87,10.46 -155.21,85.6 -292.89,49.8 3,23.11 2.93,51.01 31.32,54.96 64.75,9.02 101.03,-6.75 142.66,-24.83 105.3,-45.76 177.42,-44.16 279.62,-1.15 21.04,8.85 40.09,15.75 57.93,20.81l37.8 -39.39zm399.1 -47.88l71.13 76.53c32.27,9.29 67.53,13.99 111.25,6.72 18.5,-4.69 21.81,-27.72 23.87,-53.84l-13.73 3.3c-80.3,19.5 -131.2,-10.86 -192.52,-32.7z"/>
 <polygon class="fil1w" points="-2294.22,3490.48 -2803.41,3366.16 -3237.61,4118.21 -781.1,4118.21 -880.78,3945.57 -2024.34,3945.57 "/>
</symbol>
 <g id="Ebene_x0020_1">
  <metadata id="CorelCorpID_0Corel-Layer"/>
  <use id="ISO_x0020_7010_x0020_W050_0" transform="scale(0.571429 0.571428)" x="-0" y="0" width="3500.06" height="3058.85" xlink:href="#ISO_x0020_7010_x0020_W050"/>
 </g>
</svg>
