<?xml version="1.0" encoding="UTF-8"?>
<!DOCTYPE svg PUBLIC "-//W3C//DTD SVG 1.1//EN" "http://www.w3.org/Graphics/SVG/1.1/DTD/svg11.dtd">
<!-- Creator: Corel DESIGNER -->
<svg xmlns="http://www.w3.org/2000/svg" xml:space="preserve" width="40mm" height="34.9578mm" version="1.1" style="shape-rendering:geometricPrecision; text-rendering:geometricPrecision; image-rendering:optimizeQuality; fill-rule:evenodd; clip-rule:evenodd"
viewBox="0 0 4002.68 3498.12"
 xmlns:xlink="http://www.w3.org/1999/xlink"
 xmlns:xodm="http://www.corel.com/coreldraw/odm/2003">
 <defs>
  <style type="text/css">
   <![CDATA[
    .fil0w {fill:#F5CA2B}
    .fil1w {fill:#21251E}
   ]]>
  </style>
 </defs>
<symbol id="ISO_x0020_7010_x0020_W052" viewBox="-1502.35 -3429.88 7004.69 6121.7">
 <polygon class="fil0w" points="5292.61,2480.24 -1290.26,2480.25 2001.17,-3220.7 "/>
 <path class="fil1w" d="M-924.37 2270.12l2924.37 -5065.13 2924.36 5065.13 -5848.73 0zm6217.39 421.69l-6586.03 0.01c-161.25,0 -261.5,-173.61 -180.87,-313.26l3293.02 -5703.7c80.62,-139.64 281.12,-139.64 361.74,0l3293.02 5703.69c80.62,139.65 -19.62,313.26 -180.87,313.26z"/>
 <path class="fil1w" d="M1561.41 1096.56c26.22,17.98 81.91,73.68 80.09,95.31 -1.82,21.63 -55.57,73.69 -80.09,95.31 -24.53,21.62 -80.08,-42.67 -80.08,-95.31 0,-52.65 53.87,-113.3 80.08,-95.31zm9.91 -271.92c26.22,17.98 81.91,73.68 80.09,95.31 -1.82,21.63 -32.41,63.77 -78.12,33.76 -45.71,-30.01 -82.05,18.88 -82.05,-33.76 0,-52.65 53.87,-113.3 80.08,-95.31zm9.63 -178.56c-23.76,-28.52 -62.43,-35.45 -86.38,-15.5 -23.95,19.95 -24.1,59.25 -0.33,87.76 23.76,28.51 62.43,35.45 86.38,15.5 23.95,-19.95 24.1,-59.25 0.33,-87.76zm-176.97 -116.97l-1024.98 23.18 -843.91 1461.68 1902.52 0 0 -405.08c-61.45,-93.29 -63.42,-241.61 -11.91,-440.84 -17.57,-77.78 -5.84,-195.33 11.91,-329.62 0,-100.87 -11.61,-190.12 -13.08,-289.5 -0.08,-5.56 -2.14,-10.33 -6.15,-14.19 -4.01,-3.86 -8.85,-5.75 -14.41,-5.62z"/>
 <path class="fil1w" d="M2001.79 -642.76l-236.5 457.23 -199.17 358.08 -391 131.93c-97.79,32.98 -47.91,180.87 49.9,147.87l417.67 -140.92c22.28,-7.52 34.68,-17.83 46,-38.18l207.12 -372.39 31.22 454.37 -205.19 364.71c-50.6,89.95 85.41,166.48 136.03,76.51l216.12 -384.18c10.61,-18.86 13,-37.11 9.72,-53.39l-27.92 -406.47 234.75 -453.84 231.01 127.45c19.75,10.91 39.98,12.5 61.26,4.09l322.94 -127.56c82.8,-32.7 33.34,-157.89 -49.44,-125.18l-295.36 116.67 -274.47 -151.41c-148.54,-85.5 -267.99,-123.44 -429.8,-187.03l0.56 -303.79c0.16,-89.01 -134.44,-89.26 -134.59,-0.23l-0.64 347.2c-0.05,30.4 14.34,54.16 43.51,65.61l236.27 92.84zm427.47 -224.17c0,-73 -59.18,-132.18 -132.18,-132.18 -73,0 -132.18,59.18 -132.18,132.18 0,73 59.18,132.18 132.18,132.18 73,0 132.18,-59.18 132.18,-132.18z"/>
</symbol>
 <g id="Ebene_x0020_1">
  <metadata id="CorelCorpID_0Corel-Layer"/>
  <use id="ISO_x0020_7010_x0020_W052_0" transform="scale(0.571429 0.571428)" x="-0" y="0.01" width="7004.69" height="6121.7" xlink:href="#ISO_x0020_7010_x0020_W052"/>
 </g>
</svg>
