<?xml version="1.0" encoding="UTF-8"?>
<!DOCTYPE svg PUBLIC "-//W3C//DTD SVG 1.1//EN" "http://www.w3.org/Graphics/SVG/1.1/DTD/svg11.dtd">
<!-- Creator: Corel DESIGNER -->
<svg xmlns="http://www.w3.org/2000/svg" xml:space="preserve" width="40mm" height="34.9578mm" version="1.1" style="shape-rendering:geometricPrecision; text-rendering:geometricPrecision; image-rendering:optimizeQuality; fill-rule:evenodd; clip-rule:evenodd"
viewBox="0 0 4000 3495.78"
 xmlns:xlink="http://www.w3.org/1999/xlink"
 xmlns:xodm="http://www.corel.com/coreldraw/odm/2003">
 <defs>
  <style type="text/css">
   <![CDATA[
    .fil0w {fill:#F5CA2B}
    .fil1w {fill:#21251E}
   ]]>
  </style>
 </defs>
<symbol id="ISO_x0020_7010_x0020_W055" viewBox="-1500 -9660.91 7000 6117.6">
 <polygon class="fil0w" points="5290.4,-3754.75 -1288.06,-3754.74 2001.17,-9451.87 "/>
 <path class="fil1w" d="M-922.41 -3964.73l2922.41 -5061.74 2922.4 5061.74 -5844.81 0zm6213.22 421.41l-6581.62 0.01c-161.14,0 -261.32,-173.49 -180.75,-313.05l3290.81 -5699.88c80.57,-139.55 280.93,-139.55 361.5,0l3290.81 5699.87c80.57,139.56 -19.61,313.05 -180.75,313.05z"/>
 <path class="fil1w" d="M2295.12 -5291.67c130.89,130.89 232.96,339.19 232.96,526.48 -25.35,-6.63 -52.52,-12.07 -82.18,-15.62 -3.97,-156.96 -99.74,-345.11 -208.14,-453.5 -129.8,-129.81 -309.15,-210.12 -507.24,-210.12l0 120c164.96,0 314.32,66.87 422.4,174.96 84.7,84.7 172.26,243.52 172.26,365.26 -25.64,1.43 -51.19,3.93 -76.59,7.77 -11.68,-123.99 -66.86,-235.34 -150.11,-318.59 -94.16,-94.16 -224.28,-152.42 -367.96,-152.42l0 120c110.57,0 210.68,44.82 283.12,117.26 64.96,64.96 116.74,169.59 116.74,262.59 -136.96,47.13 -194.01,114.9 -395.41,62.52 5.92,45.66 5.78,100.8 61.88,108.62 127.98,17.81 199.67,-13.35 281.94,-49.09 91.86,-39.92 170.86,-64.5 248.05,-66.04 39.08,-0.78 78.3,1.73 117.1,6.4 59.32,7.14 119.91,28.95 187.5,57.39 222.83,93.78 333.74,76.62 559.89,-15.78 192.4,-78.61 254.43,-80.36 447.36,-4.14 97.17,38.39 192.67,76.12 331.14,53.07 36.56,-9.23 43.11,-54.78 47.19,-106.38l-27.14 6.52c-236.74,57.49 -344.17,-104.31 -583.54,-102.32 -184.14,1.53 -324.27,134.69 -521.63,137.1 -91.2,1.11 -159.06,-30.9 -235.75,-62.88 1.65,-245.3 -95.67,-480.57 -269,-653.9 -166.2,-166.2 -395.82,-269.01 -649.44,-269.01l0 120c220.5,0 420.12,89.37 564.6,233.85zm1694.76 812.45l27.14 -6.52c-4.08,51.6 -10.63,97.15 -47.19,106.38 -138.47,23.04 -233.97,-14.68 -331.14,-53.07 -192.93,-76.22 -254.96,-74.47 -447.36,4.14 -226.15,92.4 -337.05,109.56 -559.89,15.78 -201.99,-85.01 -344.55,-88.18 -552.65,2.25 -82.27,35.75 -153.96,66.9 -281.94,49.08 -56.1,-7.81 -55.96,-62.95 -61.88,-108.61 272.09,70.77 280.67,-77.78 578.85,-98.44 289.28,-20.04 377.76,126.15 570.89,123.79 197.36,-2.41 337.49,-135.57 521.63,-137.1 239.37,-1.99 346.8,159.81 583.54,102.32z"/>
 <polygon class="fil1w" points="1648.63,-4955.76 1648.63,-6421.55 1463.43,-6421.55 1463.43,-6326.3 831.29,-6326.3 95,-5051.01 1463.43,-5051.01 1463.43,-4955.76 "/>
</symbol>
 <g id="Ebene_x0020_1">
  <metadata id="CorelCorpID_0Corel-Layer"/>
  <use id="ISO_x0020_7010_x0020_W055_0" transform="scale(0.571429 0.571428)" x="-0" y="0.01" width="7000" height="6117.6" xlink:href="#ISO_x0020_7010_x0020_W055"/>
 </g>
</svg>
