<?xml version="1.0" encoding="UTF-8"?>
<!DOCTYPE svg PUBLIC "-//W3C//DTD SVG 1.1//EN" "http://www.w3.org/Graphics/SVG/1.1/DTD/svg11.dtd">
<!-- Creator: Corel DESIGNER -->
<svg xmlns="http://www.w3.org/2000/svg" xml:space="preserve" width="40mm" height="34.9578mm" version="1.1" style="shape-rendering:geometricPrecision; text-rendering:geometricPrecision; image-rendering:optimizeQuality; fill-rule:evenodd; clip-rule:evenodd"
viewBox="0 0 1000 873.94"
 xmlns:xlink="http://www.w3.org/1999/xlink"
 xmlns:xodm="http://www.corel.com/coreldraw/odm/2003">
 <defs>
  <style type="text/css">
   <![CDATA[
    .fil0w {fill:#F5CA2B}
    .fil1w {fill:#21251E}
   ]]>
  </style>
 </defs>
<symbol id="ISO_x0020_7010_x0020_W056" viewBox="1125 2259.77 1750 1529.4">
 <polygon class="fil0w" points="2822.6,3736.31 1177.99,3736.31 2000.29,2312.03 "/>
 <path class="fil1w" d="M1269.4 3683.82l730.6 -1265.44 730.6 1265.44 -1461.2 0zm1553.3 105.35l-1645.4 0c-40.29,0 -65.33,-43.37 -45.19,-78.26l822.7 -1424.97c20.14,-34.89 70.23,-34.89 90.38,0l822.7 1424.97c20.14,34.89 -4.9,78.26 -45.19,78.26z"/>
 <path class="fil1w" d="M2307.19 3175.99c-58.42,-145.37 -254.45,-231.73 -424.6,-190.59 -131.23,31.73 -247.88,78.21 -344.87,127.83l-359.73 623.08 1644.61 -0 -152.8 -264.66c-134.27,34.12 -264.89,49.53 -391.95,29.17 -134.75,-21.59 -221.44,-63.68 -266.82,-165.21 -39.15,-87.57 32.6,-180.76 94.21,-191.84 76.07,-13.68 131.02,12.99 179.29,49.54 5.38,4.07 12.56,4.06 17.92,-0.04 5.36,-4.1 7.26,-11.02 4.74,-17.28z"/>
</symbol>
 <g id="Ebene_x0020_1">
  <metadata id="CorelCorpID_0Corel-Layer"/>
  <use id="ISO_x0020_7010_x0020_W056_0" transform="scale(0.571429 0.571428)" x="-0" y="0" width="1750" height="1529.4" xlink:href="#ISO_x0020_7010_x0020_W056"/>
 </g>
</svg>
