<?xml version="1.0" encoding="UTF-8"?>
<!DOCTYPE svg PUBLIC "-//W3C//DTD SVG 1.1//EN" "http://www.w3.org/Graphics/SVG/1.1/DTD/svg11.dtd">
<!-- Creator: Corel DESIGNER -->
<svg xmlns="http://www.w3.org/2000/svg" xml:space="preserve" width="40mm" height="34.9578mm" version="1.1" style="shape-rendering:geometricPrecision; text-rendering:geometricPrecision; image-rendering:optimizeQuality; fill-rule:evenodd; clip-rule:evenodd"
viewBox="0 0 4000 3495.78"
 xmlns:xlink="http://www.w3.org/1999/xlink"
 xmlns:xodm="http://www.corel.com/coreldraw/odm/2003">
 <defs>
  <style type="text/css">
   <![CDATA[
    .fil0w {fill:#F5CA2B}
    .fil1w {fill:#21251E}
   ]]>
  </style>
 </defs>
<symbol id="ISO_x0020_7010_x0020_W057" viewBox="-1500 9039.09 7000 6117.6">
 <polygon class="fil0w" points="5290.4,14945.25 -1288.06,14945.26 2001.17,9248.13 "/>
 <path class="fil1w" d="M-922.41 14735.27l2922.41 -5061.74 2922.4 5061.74 -5844.81 0zm6213.22 421.41l-6581.62 0.01c-161.14,0 -261.32,-173.49 -180.75,-313.05l3290.81 -5699.88c80.57,-139.55 280.93,-139.55 361.5,0l3290.81 5699.87c80.57,139.56 -19.61,313.05 -180.75,313.05z"/>
 <path class="fil1w" d="M3587.06 14381.07l0 -346.54c-273.07,-23.77 -445.09,-192.34 -764.54,-192.34 -342.22,0 -487.86,195.14 -828.47,195.14 -340.61,0 -486.25,-195.14 -828.47,-195.14 -343.68,0 -551.5,194.26 -828.48,195.14 -235.03,0.74 -409.63,-190.93 -339.12,-266.45 24.19,-25.91 145.88,47.66 331.68,51.41 232.95,4.71 445.85,-200.1 835.92,-200.1 391.6,0 546.16,195.14 828.47,195.14 282.31,0 436.87,-195.14 828.47,-195.14 356.37,0 543.06,162.84 764.54,190.99l0 -340.06 490.28 453.97 -490.28 453.98zm-1593.01 -714.74c340.61,0 486.25,-195.14 828.47,-195.14 217.74,0 366.98,78.32 526.41,135.73l0 66.86c54.13,21.38 108.22,41.29 168.13,55.47l0 -256.13 0 -160.21 117.56 108.85 156.58 144.98 48.01 -44.46 -490.28 -453.97 0 303.87c-141.93,-55.19 -299.88,-120.99 -526.41,-120.99 -391.6,0 -546.16,195.14 -828.47,195.14 -282.31,0 -436.87,-195.14 -828.47,-195.14 -390.07,0 -577.55,213.89 -828.48,195.14 -128.83,-9.63 -175.54,3.19 -178.53,55.43 -4.59,80.36 61.01,166.55 178.53,164.57 311.8,0 484.8,-195.14 828.48,-195.14 342.22,0 487.86,195.14 828.47,195.14z"/>
 <path class="fil1w" d="M2227.04 13297.96l0 -398.33c25.3,0.01 50.6,-9.56 69.79,-28.75l694.45 -694.45c38.42,-38.42 38.58,-101.27 0.18,-139.77 -38.38,-38.48 -101.32,-38.62 -139.76,-0.18 -221.88,221.89 -443.76,443.76 -665.64,665.65l-372.12 0c-221.88,-221.89 -443.77,-443.76 -665.65,-665.65 -38.45,-38.45 -101.39,-38.28 -139.76,0.19 -38.39,38.49 -38.25,101.33 0.19,139.76l694.44 694.45c19.19,19.19 44.49,28.76 69.79,28.75l0 402.5c73.78,25.5 145.3,43.98 221.1,44.2 79.86,-0.23 154.98,-20.73 232.99,-48.37zm-26.91 -849.8c0,-110.52 -89.6,-200.12 -200.13,-200.12 -110.53,0 -200.13,89.6 -200.13,200.12 0,110.53 89.6,200.13 200.13,200.13 110.53,0 200.13,-89.6 200.13,-200.13z"/>
</symbol>
 <g id="Ebene_x0020_1">
  <metadata id="CorelCorpID_0Corel-Layer"/>
  <use id="ISO_x0020_7010_x0020_W057_0" transform="scale(0.571429 0.571428)" x="-0" y="0.01" width="7000" height="6117.6" xlink:href="#ISO_x0020_7010_x0020_W057"/>
 </g>
</svg>
