<?xml version="1.0" encoding="UTF-8"?>
<!DOCTYPE svg PUBLIC "-//W3C//DTD SVG 1.1//EN" "http://www.w3.org/Graphics/SVG/1.1/DTD/svg11.dtd">
<!-- Creator: Corel DESIGNER -->
<svg xmlns="http://www.w3.org/2000/svg" xml:space="preserve" width="40mm" height="34.9578mm" version="1.1" style="shape-rendering:geometricPrecision; text-rendering:geometricPrecision; image-rendering:optimizeQuality; fill-rule:evenodd; clip-rule:evenodd"
viewBox="0 0 4000 3495.78"
 xmlns:xlink="http://www.w3.org/1999/xlink"
 xmlns:xodm="http://www.corel.com/coreldraw/odm/2003">
 <defs>
  <style type="text/css">
   <![CDATA[
    .fil0w {fill:#F5CA2B}
    .fil1w {fill:#21251E}
   ]]>
  </style>
 </defs>
<symbol id="ISO_x0020_7010_x0020_W063" viewBox="-1500 -3427.58 7000 6117.6">
 <polygon class="fil0w" points="5290.4,2478.58 -1288.06,2478.59 2001.17,-3218.54 "/>
 <path class="fil1w" d="M-922.41 2268.6l2922.41 -5061.74 2922.4 5061.74 -5844.81 0zm6213.22 421.41l-6581.62 0.01c-161.14,0 -261.32,-173.49 -180.75,-313.05l3290.81 -5699.88c80.57,-139.55 280.93,-139.55 361.5,0l3290.81 5699.87c80.57,139.56 -19.61,313.05 -180.75,313.05z"/>
 <path class="fil1w" d="M3420.81 1881.81c-172.69,-60.03 -227.99,-60.99 -431.27,10.24 -325.13,113.94 -463.86,115.15 -824.71,-10.26 -172.72,-60.02 -227.88,-60.95 -431.22,10.26 -325.09,113.83 -463.59,115.23 -824.68,-10.26 -172.69,-60.01 -227.96,-60.97 -431.26,10.26 -108.02,37.87 -249.58,87.41 -421.52,83.3 -51.45,-21.79 -92.05,-93.59 -84.19,-150.26 1.61,-11.67 38.34,7.58 63.54,9.66 191.14,10.8 326.9,-54.55 464.66,-97.77 301.09,-94.45 363.91,-1.58 655.27,75.83 249.81,66.36 435.89,-24.15 600.65,-75.83 301.09,-94.43 363.9,-1.58 655.28,75.83 249.81,66.36 435.87,-24.14 600.65,-75.83 301.1,-94.45 363.93,-1.58 655.27,75.83 287.38,76.35 520.82,-70.53 533.4,-36.93 20.44,54.65 18.43,126.18 -32.41,142.57 -298.06,96.22 -458.29,63.84 -747.46,-36.64zm0 -284.45c-172.69,-60 -227.99,-60.97 -431.27,10.26 -325.13,113.92 -463.86,115.15 -824.71,-10.26 -172.72,-60.02 -227.88,-60.95 -431.22,10.26 -325.09,113.84 -463.59,115.24 -824.68,-10.26 -172.69,-60 -227.96,-60.97 -431.26,10.26 -108.02,37.87 -249.58,87.39 -421.52,83.3 -51.45,-21.81 -92.05,-93.59 -84.19,-150.26 1.61,-11.67 38.34,7.58 63.54,9.66 191.14,10.8 326.9,-54.54 464.66,-97.77 301.09,-94.45 363.91,-1.57 655.27,75.83 249.81,66.36 435.89,-24.15 600.65,-75.83 301.09,-94.45 363.9,-1.57 655.28,75.83 249.81,66.36 435.87,-24.13 600.65,-75.83 301.1,-94.45 363.93,-1.57 655.27,75.83 287.38,76.35 520.82,-70.53 533.4,-36.93 20.44,54.66 18.43,126.18 -32.41,142.58 -298.06,96.21 -458.29,63.84 -747.46,-36.67z"/>
 <path class="fil1w" d="M1744.97 -825.51c42.01,-40.96 113.34,-23.81 194.76,9.75l152.67 573.99 -58.47 0 -288.96 -583.74zm554.61 762.33c0,-35.77 -28.99,-64.76 -64.77,-64.76 -35.77,0 -64.76,28.99 -64.76,64.76 0,35.78 28.99,64.77 64.76,64.77 35.78,0 64.77,-28.99 64.77,-64.77zm-81.88 394.28l-150.1 124.23c-16.18,13.41 -19.65,34.08 -5.04,50.42l151.17 169.04c30.39,33.98 81.76,-11.92 51.5,-45.93l23.6 26.39c30.41,34 81.84,-11.99 51.44,-46l-103.12 -115.31 128.53 -106.37c11.94,-9.88 13.27,-22.27 11.85,-33.82l-31.48 -254.9c155.56,-306.1 307.27,-612.67 459.66,-920.5 -58.25,-253.94 -285.61,-443.35 -557.21,-443.35 -266.14,0 -497.96,184.23 -557.23,443.46 156.14,315.39 312.27,630.78 468.4,946.18l-461.44 832.98 -103.17 -189.55 -1079.76 0c-64.75,0 -102.71,72.39 -65.88,125.65l88.32 127.75 -451.59 0 257.79 338.88c58.66,-18.18 113.88,-39.2 169.43,-56.63 301.09,-94.45 363.92,-1.57 655.27,75.83 249.81,66.36 435.89,-24.15 600.65,-75.83 246.57,-77.34 333.37,-29.07 516.72,33.46l-104.68 -327.68 -454.86 0 460.09 -830.55 16.55 33.44 14.59 118.71zm111.25 -302.05c-5.05,-3.57 -11.37,-5.35 -17.93,-4.55l-103.58 12.73c-13.1,1.6 -22.78,13.04 -22.53,25.99l-126.23 -254.99 189.79 0 189.79 0 -109.31 220.82zm-1731.84 980.45l808.64 0 -35.65 -93.43c-7.55,-19.8 -25.62,-32.24 -46.81,-32.24l-726.5 0c-20.67,0 -35.11,20.09 -28.54,39.68l28.86 85.99zm1676.4 -1833.17c77.31,-57.17 152.77,-57.01 233.32,3.24l-153.91 578.66 -79.41 0 0 -581.9zm283.69 7.94c81.41,-33.57 152.76,-50.74 194.8,-9.83l-288.99 583.79 -58.47 0 152.66 -573.96zm-567.08 -4.65c80.56,-60.29 156,-60.47 233.31,-3.35l0 581.96 -79.41 0 -153.9 -578.61z"/>
</symbol>
 <g id="Ebene_x0020_1">
  <metadata id="CorelCorpID_0Corel-Layer"/>
  <use id="ISO_x0020_7010_x0020_W063_0" transform="scale(0.571429 0.571428)" x="-0" y="0.01" width="7000" height="6117.6" xlink:href="#ISO_x0020_7010_x0020_W063"/>
 </g>
</svg>
