<?xml version="1.0" encoding="UTF-8"?>
<!DOCTYPE svg PUBLIC "-//W3C//DTD SVG 1.1//EN" "http://www.w3.org/Graphics/SVG/1.1/DTD/svg11.dtd">
<!-- Creator: Corel DESIGNER -->
<svg xmlns="http://www.w3.org/2000/svg" xml:space="preserve" width="40mm" height="34.9578mm" version="1.1" style="shape-rendering:geometricPrecision; text-rendering:geometricPrecision; image-rendering:optimizeQuality; fill-rule:evenodd; clip-rule:evenodd"
viewBox="0 0 1000 873.94"
 xmlns:xlink="http://www.w3.org/1999/xlink"
 xmlns:xodm="http://www.corel.com/coreldraw/odm/2003">
 <defs>
  <style type="text/css">
   <![CDATA[
    .fil0w {fill:#F5CA2B}
    .fil1w {fill:#21251E}
   ]]>
  </style>
 </defs>
<symbol id="ISO_x0020_7010_x0020_W067" viewBox="1125 2259.77 1750 1529.4">
 <polygon class="fil0w" points="2822.6,3736.31 1177.99,3736.31 2000.29,2312.03 "/>
 <path class="fil1w" d="M1269.4 3683.82l730.6 -1265.44 730.6 1265.44 -1461.2 0zm1553.3 105.35l-1645.4 0c-40.29,0 -65.33,-43.37 -45.19,-78.26l822.7 -1424.97c20.14,-34.89 70.23,-34.89 90.38,0l822.7 1424.97c20.14,34.89 -4.9,78.26 -45.19,78.26z"/>
 <path class="fil1w" d="M2426.85 3529.93c-12.95,-2.78 -24.25,1.22 -45.66,12.89 -52.78,28.78 -75.3,29.09 -133.88,-2.59 -47.66,-25.77 -54.85,0.68 -101.95,17.7 -65.63,23.71 -110.54,-37.47 -139.74,-28.4 -11.08,3.44 -21.9,7.91 -32.17,13.28 -53.27,27.86 -75.29,29.08 -133.87,-2.59 -28.04,-15.16 -37,-15.4 -70.01,2.59 -52.77,28.75 -75.25,29.11 -133.87,-2.59 -28.03,-15.16 -37,-15.4 -70,2.59 -13.91,7.59 -31.26,17.03 -51.76,20.09l0 -35.42c21.12,-3.69 38.17,-15.42 55.4,-23.84 48.88,-23.86 59.08,-0.4 106.37,19.16 40.56,16.76 70.76,-6.1 97.51,-19.16 48.88,-23.85 59.07,-0.4 106.37,19.16 71.65,29.61 96.88,-55.61 166.09,-18.98 68.05,36.02 71,31.2 135.28,-0.18 48.88,-23.85 59.07,-0.4 106.37,19.16 40.55,16.76 70.75,-6.1 97.5,-19.16 17.99,-8.78 30.73,-11.14 42.01,-9.66l0 35.94zm0 -71.84c-12.95,-2.78 -24.25,1.22 -45.66,12.89 -52.78,28.78 -75.3,29.09 -133.88,-2.59 -47.66,-25.77 -54.85,0.68 -101.95,17.71 -65.63,23.71 -110.54,-37.47 -139.74,-28.4 -11.08,3.44 -21.9,7.91 -32.17,13.28 -53.27,27.86 -75.29,29.08 -133.87,-2.59 -28.04,-15.16 -37,-15.4 -70.01,2.59 -52.77,28.76 -75.25,29.11 -133.87,-2.59 -28.03,-15.16 -37,-15.4 -70,2.59 -13.91,7.59 -31.26,17.03 -51.76,20.09l0 -35.42c21.12,-3.69 38.17,-15.42 55.4,-23.84 48.88,-23.86 59.08,-0.39 106.37,19.15 40.56,16.76 70.76,-6.1 97.51,-19.15 48.88,-23.85 59.07,-0.39 106.37,19.15 71.65,29.62 96.88,-55.61 166.09,-18.97 68.05,36.02 71,31.2 135.28,-0.18 48.88,-23.85 59.07,-0.39 106.37,19.15 40.55,16.76 70.75,-6.1 97.5,-19.15 17.99,-8.78 30.73,-11.14 42.01,-9.66l0 35.93z"/>
 <path class="fil1w" d="M1553.84 3400.03c64.9,-31.63 82.97,-3.65 135.39,18.25 24.75,9.96 46.46,-7.45 68.48,-18.26 65.33,-31.52 82.59,-3.81 135.39,18.26 48.28,19.68 81.25,-63.17 169.13,-17.55 55.09,29.51 48.37,25.98 103.22,-0.7 43.62,-21.04 65.76,-15.7 91.23,-3.32 42.66,-4.27 85.26,-13.99 85.14,-31.53 -0.22,-30.84 2.45,-27.64 -28.77,-27.64 -8.39,0 -25.47,-29.1 -35.32,-42.78 -11.32,57.21 -3.29,49.81 -38.52,49.81 -9.3,0 -24.32,-32.68 -34.26,-49.55 -11.65,58.86 -0.97,49.55 -49.84,49.55 -9.1,0 -19.84,-25.93 -29.04,-42.16 -8.7,43.93 3.75,35.13 -69.22,35.13 -9.4,0 -13.57,-18.31 -20.54,-34.92 -19.19,42.77 -6.78,34.92 -57.92,34.92 -9.4,0 -13.57,-18.31 -20.54,-34.92 -18.68,41.63 -7.91,34.92 -53.38,34.92 -8.45,0 -14.91,-17.21 -22.75,-31.03 -19.86,32.77 -4.47,25.2 -76.33,25.2 29.87,-25.74 58.53,-40.92 85.8,-43.93l31.8 11.75 -1.57 -22.21c6.85,-14.59 19.66,-22.35 39.52,-22.01l39.33 22.71c-3.66,-51.75 -10.39,-38.83 28.87,-60.7 7.82,-4.36 31.13,13 46.97,22.14 -3.94,-55.57 -10.51,-42.46 26.47,-63.05 7.47,-4.16 24.89,9.4 39.32,17.73 -3.25,-45.97 -9.41,-34.39 28.23,-55.36 7.47,-4.16 25.03,9.48 39.5,17.84 -3.18,-44.98 -8.05,-35.36 20.9,-51.48 6.91,-3.85 18.22,5.55 30.27,12.5 -2.46,-34.57 -6.44,-37.12 5.69,-44.13 9.57,-5.53 6.3,-44.39 -15.95,-46.74 -30.85,-3.27 -55.67,-11.88 -59.58,12.06 -0.9,5.51 -3.97,9.88 -8.84,12.59l-226.44 126.12c-32.35,-16.35 -56.48,-33.21 -91.48,-33.73 -21.78,-0.32 -41.17,5.03 -53.31,13.53l-93.29 65.36c-23.15,16.22 -24.87,-10.34 -68.84,-4.22l-109.07 188.9c5.13,-2.7 9.89,-5.31 14.12,-7.36zm333.3 -220.64c-0.24,16.4 -47.1,15.71 -46.86,-0.69 0.24,-16.41 47.11,-15.71 46.86,0.69z"/>
</symbol>
 <g id="Ebene_x0020_1">
  <metadata id="CorelCorpID_0Corel-Layer"/>
  <use id="ISO_x0020_7010_x0020_W067_0" transform="scale(0.571429 0.571428)" x="-0" y="0" width="1750" height="1529.4" xlink:href="#ISO_x0020_7010_x0020_W067"/>
 </g>
</svg>
