<?xml version="1.0" encoding="UTF-8"?>
<!DOCTYPE svg PUBLIC "-//W3C//DTD SVG 1.1//EN" "http://www.w3.org/Graphics/SVG/1.1/DTD/svg11.dtd">
<!-- Creator: Corel DESIGNER -->
<svg xmlns="http://www.w3.org/2000/svg" xml:space="preserve" width="40mm" height="34.9578mm" version="1.1" style="shape-rendering:geometricPrecision; text-rendering:geometricPrecision; image-rendering:optimizeQuality; fill-rule:evenodd; clip-rule:evenodd"
viewBox="0 0 2000 1747.89"
 xmlns:xlink="http://www.w3.org/1999/xlink"
 xmlns:xodm="http://www.corel.com/coreldraw/odm/2003">
 <defs>
  <style type="text/css">
   <![CDATA[
    .fil0w {fill:#F5CA2B}
    .fil1w {fill:#21251E}
   ]]>
  </style>
 </defs>
<symbol id="ISO_x0020_7010_x0020_W072" viewBox="-3750 1402.88 3500 3058.8">
 <polygon class="fil0w" points="-354.8,4355.95 -3644.03,4355.96 -1999.41,1507.39 "/>
 <path class="fil1w" d="M-3461.2 4250.97l1461.2 -2530.87 1461.2 2530.87 -2922.4 0zm3106.61 210.7l-3290.81 0.01c-80.57,0 -130.66,-86.74 -90.38,-156.53l1645.4 -2849.94c40.28,-69.78 140.46,-69.78 180.75,0l1645.4 2849.94c40.29,69.78 -9.8,156.52 -90.38,156.52z"/>
 <path class="fil1w" d="M-1264.07 3588.9c20.83,20.83 -15.9,57.57 -36.73,36.74 -20.88,-20.88 15.86,-57.61 36.73,-36.74zm-772.64 292.51l158.23 160.78c4.36,-8.91 8.62,-17.99 12.89,-27.09 22.86,-48.74 45.95,-97.95 80.17,-117.87 21.5,-12.51 51.83,-15.33 91.13,-18.98 70.58,-6.55 173.02,-16.06 290.37,-91.76 56.84,-36.66 111.53,-75.49 153.87,-122.84 36.55,-40.86 64.29,-88.54 76.77,-147.49l-141.52 10.42 50.55 -92.28c-40.18,-4.8 -79.1,-3.96 -116.52,2.13 -47.09,7.66 -91.9,23.69 -133.9,47.26 -137.61,77.21 -175.35,152.85 -209.17,220.65 -25.94,52 -49.78,99.79 -109.74,142.09 -21.19,14.95 -74.65,20.72 -138.4,27.59 -20.85,2.25 -42.85,4.62 -64.73,7.37zm-784.18 252.97l1994.96 0c-91.07,-209.51 -358.18,-90.35 -343.96,-227.54 8.08,-77.99 71.04,-60.23 47.59,-135.67 -10.33,-33.21 -59.26,-53.99 -116.08,-61.89 72.64,-72.76 98.79,-136.92 112.08,-236.61l-118.28 8.72 42.27 -77.16c-65.05,-11.81 -118.15,-18 -184.86,-7.14 -51.86,8.43 -101.06,26.01 -147.02,51.8 -44.71,25.09 -79.62,50.01 -107.6,74.58l-353.65 0 6.11 -137.86 189.73 -165.96 80.55 44.43 190.92 -87.72 -12.83 -36.84 -162.68 50.36 -82.05 -59.69 -185.29 79.97 16.76 -191.33 100.11 -125.06 -10.4 -99.12 175.2 -184.4 -11.91 -27.28 -190.89 137.7 -21.33 -159.3 53.95 -145.91 -31.81 -18.52 -95.4 175.83 39.13 273.17c-89.76,60.05 -122.47,120.55 -124.02,182.37l-36.31 20.07c-14.78,-142.16 -33.54,-151.32 -44.41,-224.06 -13.74,-91.97 25.95,-142.74 33.92,-227.01l-30.83 -5.75c-7.29,45.66 -21.91,84.77 -48.61,116.29 -42.39,-52.66 -83.68,-94.82 -139.9,-137.4l-23.66 29.51c72.48,84.4 147.29,186.99 131.67,320.97 -87.34,-42.5 -184.68,-69.01 -281.73,-71.82l0 37.49c136.16,20.54 226.07,71.98 287.23,148.11l12.81 102.19 -241.41 -101.07 -210.25 107.87 36.28 36.33 165.95 -63.16 223.61 129.63 -6.69 276.96 -599.45 0 0 50 598.24 0 -2.33 96.33 -128.22 126.12 165.71 -23.87 116.78 64.12 43.45 -84.57 134.72 10.68 -83.59 -167.49 0.94 -21.32 307.2 0c-32.3,39.22 -51.24,77.18 -69.16,113.11 -23.61,47.32 -45.31,90.82 -96.93,127.24 -12.81,9.03 -61.54,14.3 -119.65,20.57 -48.59,5.23 -95.81,11.58 -144.04,19.05l95.4 96.93c-170.12,39.42 -242.47,-7.44 -386.47,2.47 -162.07,11.15 -306.22,85.31 -409.59,181.58z"/>
</symbol>
 <g id="Ebene_x0020_1">
  <metadata id="CorelCorpID_0Corel-Layer"/>
  <use id="ISO_x0020_7010_x0020_W072_0" transform="scale(0.571429 0.571428)" x="-0" y="0" width="3500" height="3058.8" xlink:href="#ISO_x0020_7010_x0020_W072"/>
 </g>
</svg>
